<svg width="96" height="96" viewBox="0 0 96 96" fill="none" xmlns="http://www.w3.org/2000/svg">
<path d="M33 81C34.6569 81 36 79.6569 36 78C36 76.3431 34.6569 75 33 75C31.3431 75 30 76.3431 30 78C30 79.6569 31.3431 81 33 81Z" stroke="#444444" stroke-width="4" stroke-linecap="round" stroke-linejoin="round"/>
<path d="M75 81C76.6569 81 78 79.6569 78 78C78 76.3431 76.6569 75 75 75C73.3431 75 72 76.3431 72 78C72 79.6569 73.3431 81 75 81Z" stroke="#444444" stroke-width="4" stroke-linecap="round" stroke-linejoin="round"/>
<path d="M9 15H21L30 66H78" stroke="#444444" stroke-width="4" stroke-linecap="round" stroke-linejoin="round"/>
<path d="M30 54H76.77C77.1169 54.0002 77.4532 53.8802 77.7215 53.6604C77.9899 53.4406 78.1738 53.1345 78.2419 52.7944L83.6419 25.7944C83.6854 25.5767 83.6801 25.352 83.6264 25.1366C83.5726 24.9211 83.4716 24.7204 83.3308 24.5487C83.19 24.377 83.0128 24.2388 82.8121 24.1439C82.6113 24.049 82.392 23.9998 82.17 24H24" stroke="#444444" stroke-width="4" stroke-linecap="round" stroke-linejoin="round"/>
</svg>
