<svg width="92" height="83" viewBox="0 0 92 83" fill="none" xmlns="http://www.w3.org/2000/svg">
<path d="M27.4717 41.2075H36.6289V54.9434H27.4717V41.2075ZM27.4717 59.522H36.6289V73.2579H27.4717V59.522ZM41.2075 50.3648H50.3648V64.1006H41.2075V50.3648ZM41.2075 68.6792H50.3648V82.4151H41.2075V68.6792ZM54.9434 41.2075H64.1006V54.9434H54.9434V41.2075ZM54.9434 59.522H64.1006V73.2579H54.9434V59.522Z" fill="white"/>
<path d="M77.5801 27.9845C75.5792 12.2249 62.086 0 45.7862 0C33.1721 0 22.2063 7.37615 17.2019 19.0013C7.36699 21.9407 0 31.2216 0 41.2075C0 53.8308 10.2698 64.1006 22.8931 64.1006V54.9434C15.3201 54.9434 9.15723 48.7806 9.15723 41.2075C9.15723 34.7837 14.647 28.5889 21.3959 27.403L24.0606 26.9314L24.9351 24.372C28.1539 14.9858 36.1482 9.15723 45.7862 9.15723C58.4094 9.15723 68.6793 19.4271 68.6793 32.0503V36.6289H73.2579C78.3081 36.6289 82.4151 40.736 82.4151 45.7862C82.4151 50.8364 78.3081 54.9434 73.2579 54.9434H68.6793V64.1006H73.2579C83.3583 64.1006 91.5723 55.8866 91.5723 45.7862C91.5669 41.6815 90.1855 37.6972 87.649 34.4701C85.1125 31.243 81.5673 28.9595 77.5801 27.9845Z" fill="white"/>
</svg>
