<svg width="68" height="73" viewBox="0 0 68 73" fill="none" xmlns="http://www.w3.org/2000/svg">
<path d="M43.0296 9.09332C49.5313 9.09332 55.6647 11.8804 60.3023 16.9408L67.0087 10.7938C60.6251 3.83283 52.1092 0 43.0296 0C33.9453 0 25.434 3.83283 19.0596 10.7983C15.8724 14.272 13.4172 18.3276 11.7713 22.7333H0V31.8266H9.61163C9.43886 33.327 9.32065 34.841 9.32065 36.3733C9.32065 37.9055 9.43886 39.4195 9.61163 40.9199H0V50.0132H11.7713C13.4172 54.4235 15.8678 58.4746 19.0596 61.9528C25.434 68.9137 33.9453 72.7465 43.0296 72.7465C52.1092 72.7465 60.6251 68.9137 67.0041 61.9528L60.2978 55.8057C55.6647 60.8661 49.5313 63.6532 43.0296 63.6532C36.5278 63.6532 30.399 60.8707 25.7614 55.8057C24.17 54.0734 22.9197 52.0911 21.8285 50.0132H40.9199V40.9199H18.8186C18.5913 39.4286 18.414 37.9191 18.414 36.3733C18.414 34.8274 18.5913 33.3179 18.8186 31.8266H40.9199V22.7333H21.8285C22.9197 20.6555 24.1746 18.6731 25.7614 16.9408C30.399 11.8804 36.5278 9.09332 43.0296 9.09332Z" fill="#444444"/>
</svg>
