<svg width="138" height="42" viewBox="0 0 138 42" fill="none" xmlns="http://www.w3.org/2000/svg">
<path d="M18.0835 11.3845L19.7713 0.63623H22.7026L18.4389 27.1961H15.5963L17.6394 14.1382H7.33522L5.29216 27.1961H2.27197L6.53577 0.63623H9.55595L7.8682 11.3845H18.0835Z" fill="#C31328"/>
<path d="M22.9688 18.4899C23.7683 13.6043 28.2097 9.6958 33.0065 9.6958C37.8921 9.6958 41.09 13.6043 40.2905 18.4899C39.491 23.3755 35.0496 27.1951 30.2528 27.1951C25.456 27.1951 22.2582 23.2866 22.9688 18.4899ZM25.8114 18.401C25.2784 21.7765 27.2326 24.5302 30.697 24.5302C34.1613 24.5302 37.0038 21.7765 37.5368 18.401C38.0698 15.0255 36.1155 12.2718 32.6512 12.2718C29.1869 12.3607 26.3443 15.1144 25.8114 18.401Z" fill="#C31328"/>
<path d="M49.0849 0.635742L44.9099 27.1956H42.0674L46.2423 0.635742" fill="#C31328"/>
<path d="M60.3667 3.38944L59.1231 11.2952H67.9172L67.473 14.0489H58.679L56.5471 27.1956H53.6157L57.8795 0.635742H69.9603L69.5161 3.38944H60.3667Z" fill="white"/>
<path d="M68.2725 18.4015C69.072 13.5159 73.5135 9.60742 78.3102 9.60742C83.1958 9.60742 86.3937 13.5159 85.5942 18.4015C84.7947 23.2871 80.3533 27.1067 75.5565 27.1067C70.7598 27.1067 67.5619 23.1983 68.2725 18.4015ZM71.1151 18.3127C70.5821 21.6882 72.5363 24.4419 76.0007 24.4419C79.465 24.4419 82.3075 21.6882 82.8405 18.3127C83.3735 14.9372 81.4192 12.1835 77.9549 12.1835C74.4906 12.2723 71.648 15.026 71.1151 18.3127Z" fill="white"/>
<path d="M92.2556 11.9169C93.4992 10.5845 94.4763 9.51855 96.3417 9.51855C97.3188 9.51855 98.0295 9.87387 98.7401 10.318L96.9635 12.9829C96.4305 12.5387 96.0752 12.1834 95.3646 12.1834C92.3444 12.1834 91.5449 16.2696 91.1896 18.4903L89.8572 27.1067H87.0146L89.6795 9.87387H92.5221L92.2556 11.9169Z" fill="white"/>
<path d="M100.694 18.9345C100.25 21.9547 102.116 24.4419 105.225 24.4419C107.623 24.4419 109.4 23.0206 110.821 21.0664L112.953 22.3988C110.91 25.419 107.978 27.1067 104.603 27.1067C99.7173 27.1067 97.1412 23.2871 97.9407 18.5792C98.7402 13.6936 102.205 9.60742 107.357 9.60742C112.686 9.60742 114.729 14.0489 113.663 19.0233H100.694V18.9345ZM111.176 16.5361C111.176 14.1377 109.488 12.2723 107.001 12.2723C104.603 12.2723 102.027 14.1377 101.227 16.5361H111.176Z" fill="white"/>
<path d="M111.266 0.813477H114.73L123.258 15.4703L128.41 9.42989H131.963L124.679 17.691L137.293 39.2764H133.918L122.636 19.9117L116.241 27.1069H112.776L121.215 17.691L111.266 0.813477Z" fill="white"/>
<path d="M5.64739 35.3675L6.09154 32.7026H6.80217L5.73622 39.3648H5.02559L5.55856 36.0781H2.18306L1.65009 39.3648H0.939453L2.0054 32.7026H2.71603L2.27189 35.3675H5.64739Z" fill="white"/>
<path d="M6.9807 37.2329C7.15835 35.9893 8.31313 35.0122 9.46791 35.0122C10.7115 35.0122 11.511 35.9893 11.3333 37.2329C11.1557 38.4765 10.0009 39.4537 8.8461 39.4537C7.6025 39.4537 6.80304 38.4765 6.9807 37.2329ZM7.69133 37.2329C7.51367 38.1212 8.04664 38.743 8.93493 38.743C9.82322 38.743 10.5339 38.0324 10.6227 37.2329C10.8003 36.4335 10.2674 35.7228 9.37908 35.7228C8.57962 35.7228 7.86898 36.4335 7.69133 37.2329Z" fill="white"/>
<path d="M13.1084 35.634C13.4637 35.2787 13.9078 35.0122 14.4408 35.0122C15.5956 35.0122 15.6844 35.8117 15.5956 36.7888L15.2403 39.276H14.5297L14.885 36.9664C14.9738 36.2558 15.0626 35.7228 14.2632 35.7228C13.286 35.7228 13.1084 36.6111 12.9307 37.3218L12.6642 39.276H11.9536L12.5754 35.101H13.286L13.1084 35.634Z" fill="white"/>
<path d="M17.0173 37.4106C16.9285 38.21 17.3727 38.743 18.1721 38.743C18.7939 38.743 19.2381 38.3877 19.5934 37.8547L20.1264 38.2101C19.5934 38.9207 18.8827 39.3648 17.9945 39.3648C16.7509 39.3648 16.1291 38.3877 16.3067 37.2329C16.4844 35.9893 17.3727 35.0122 18.7051 35.0122C20.0375 35.0122 20.5705 36.0782 20.304 37.3218H17.0173V37.4106ZM19.6822 36.7888C19.6822 36.167 19.2381 35.7228 18.6163 35.7228C17.9945 35.7228 17.3727 36.167 17.195 36.7888H19.6822Z" fill="white"/>
<path d="M23.057 36.1684C22.9682 35.9908 22.7906 35.7243 22.5241 35.7243C22.2576 35.7243 21.9911 35.9019 21.9023 36.1684C21.8134 36.5237 22.2576 36.7014 22.7017 36.879C23.1459 37.0567 23.59 37.412 23.5012 38.0338C23.4124 38.8333 22.7017 39.3663 21.9023 39.3663C21.1916 39.3663 20.7475 39.0109 20.5698 38.3003L21.1916 38.0338C21.2805 38.3891 21.4581 38.6556 21.9023 38.6556C22.2576 38.6556 22.6129 38.3891 22.7017 38.0338C22.8794 37.1455 20.9251 37.412 21.1028 36.0796C21.1916 35.3689 21.9023 34.9248 22.5241 34.9248C22.9682 34.9248 23.4124 35.2801 23.5012 35.7243L23.057 36.1684Z" fill="white"/>
<path d="M25.0114 39.3648H24.3008L24.8338 35.9005H24.3896L24.4784 35.2786H24.9226L25.1891 33.7686H25.8997L25.6332 35.2786H26.3438L26.255 35.9005H25.5444L25.0114 39.3648Z" fill="white"/>
<path d="M26.1673 35.1899H26.9667L27.9438 38.1213L29.7204 35.1899H30.5199L26.4337 41.6745H25.6343L27.4109 38.9208L26.1673 35.1899Z" fill="white"/>
<path d="M34.6056 36.8789L34.5168 37.5007H32.7402L32.8291 36.8789H34.6056Z" fill="white"/>
<path d="M44.4665 35.9897C44.2 37.944 42.3346 39.4541 40.4692 39.4541C38.6038 39.4541 37.2714 37.944 37.5379 35.9897C37.8043 34.1243 39.6698 32.5254 41.5352 32.5254C43.4006 32.5254 44.733 34.1243 44.4665 35.9897ZM38.2485 35.9897C37.982 37.4998 39.048 38.7434 40.558 38.7434C42.0681 38.7434 43.4894 37.4998 43.6671 35.9897C43.9336 34.4796 42.8676 33.236 41.3575 33.236C39.9362 33.236 38.515 34.4796 38.2485 35.9897Z" fill="white"/>
<path d="M46.0652 35.7228C46.5093 35.2787 47.0423 35.0122 47.5753 35.0122C48.8189 35.0122 49.4407 36.0782 49.1742 37.2329C48.9966 38.3877 48.1083 39.4537 46.8647 39.4537C46.3317 39.4537 45.7987 39.1872 45.5322 38.743L45.0881 41.6744H44.3774L45.4434 35.1899H46.154L46.0652 35.7228ZM45.7987 37.2329C45.621 38.0324 46.0652 38.8319 46.8647 38.8319C47.7529 38.8319 48.3747 38.1212 48.4636 37.2329C48.5524 36.4335 48.1971 35.7228 47.3088 35.7228C46.5982 35.7228 45.8875 36.4335 45.7987 37.2329Z" fill="white"/>
<path d="M50.4168 37.4106C50.3279 38.21 50.7721 38.743 51.5715 38.743C52.1933 38.743 52.6375 38.3877 52.9928 37.8547L53.5258 38.2101C52.9928 38.9207 52.2822 39.3648 51.3939 39.3648C50.1503 39.3648 49.5285 38.3877 49.7061 37.2329C49.8838 35.9893 50.7721 35.0122 52.1045 35.0122C53.437 35.0122 53.9699 36.0782 53.7034 37.3218H50.4168V37.4106ZM53.0816 36.7888C53.0816 36.167 52.6375 35.7228 52.0157 35.7228C51.3939 35.7228 50.7721 36.167 50.5944 36.7888H53.0816Z" fill="white"/>
<path d="M55.5698 35.634C55.9251 35.2787 56.3693 35.0122 56.9023 35.0122C58.057 35.0122 58.1459 35.8117 58.057 36.7888L57.7017 39.276H56.9911L57.3464 36.9664C57.4352 36.2558 57.5241 35.7228 56.7246 35.7228C55.7475 35.7228 55.5698 36.6111 55.3922 37.3218L55.1257 39.276H54.415L55.0368 35.101H55.7475L55.5698 35.634Z" fill="white"/>
<path d="M60.0991 35.634C60.4544 35.2787 60.8986 35.0122 61.4316 35.0122C62.5863 35.0122 62.6751 35.8117 62.5863 36.7888L62.231 39.276H61.5204L61.8757 36.9664C61.9645 36.2558 62.0533 35.7228 61.2539 35.7228C60.2768 35.7228 60.0991 36.6111 59.9214 37.3218L59.655 39.276H58.9443L59.5661 35.101H60.2768L60.0991 35.634Z" fill="white"/>
<path d="M63.9202 37.4106C63.8313 38.21 64.2755 38.743 65.0749 38.743C65.6968 38.743 66.1409 38.3877 66.4962 37.8547L67.0292 38.2101C66.4962 38.9207 65.7856 39.3648 64.8973 39.3648C63.6537 39.3648 63.0319 38.3877 63.2095 37.2329C63.3872 35.9893 64.2755 35.0122 65.6079 35.0122C66.9404 35.0122 67.4733 36.0782 67.2069 37.3218H63.9202V37.4106ZM66.585 36.7888C66.585 36.167 66.1409 35.7228 65.5191 35.7228C64.8973 35.7228 64.2755 36.167 64.0978 36.7888H66.585Z" fill="white"/>
<path d="M69.9599 36.1684C69.871 35.9908 69.6934 35.7243 69.4269 35.7243C69.1604 35.7243 68.8939 35.9019 68.8051 36.1684C68.7163 36.5237 69.1604 36.7014 69.6046 36.879C70.0487 37.0567 70.4928 37.412 70.404 38.0338C70.3152 38.8333 69.6046 39.3663 68.8051 39.3663C68.0945 39.3663 67.6503 39.0109 67.4727 38.3003L68.0945 38.0338C68.1833 38.3891 68.3609 38.6556 68.8051 38.6556C69.1604 38.6556 69.5157 38.3891 69.6046 38.0338C69.7822 37.1455 67.828 37.412 68.0056 36.0796C68.0945 35.3689 68.8051 34.9248 69.4269 34.9248C69.8711 34.9248 70.3152 35.2801 70.404 35.7243L69.9599 36.1684Z" fill="white"/>
<path d="M73.3358 36.1684C73.247 35.9908 73.0694 35.7243 72.8029 35.7243C72.5364 35.7243 72.2699 35.9019 72.1811 36.1684C72.0922 36.5237 72.5364 36.7014 72.9805 36.879C73.4247 37.0567 73.8688 37.412 73.78 38.0338C73.6912 38.8333 72.9805 39.3663 72.1811 39.3663C71.4704 39.3663 71.0263 39.0109 70.8486 38.3003L71.4704 38.0338C71.5593 38.3891 71.7369 38.6556 72.1811 38.6556C72.5364 38.6556 72.8917 38.3891 72.9805 38.0338C73.1582 37.1455 71.204 37.412 71.3816 36.0796C71.4704 35.3689 72.1811 34.9248 72.8029 34.9248C73.247 34.9248 73.6912 35.2801 73.78 35.7243L73.3358 36.1684Z" fill="white"/>
<path d="M78.6647 36.8789L78.5759 37.5007H76.7993L76.8882 36.8789H78.6647Z" fill="white"/>
<path d="M83.1947 39.3653H82.4841L83.4612 33.4138H81.8623L81.9511 32.7031H85.9484L85.8596 33.4138H84.2607L83.1947 39.3653Z" fill="white"/>
<path d="M86.393 35.635C86.7483 35.2797 86.926 35.1021 87.459 35.1021C87.7254 35.1021 87.9031 35.1909 88.0808 35.2797L87.6366 35.9015C87.459 35.8127 87.459 35.7239 87.2813 35.7239C86.4818 35.7239 86.3042 36.701 86.2154 37.2339L85.86 39.277H85.1494L85.7712 35.1021H86.4818L86.393 35.635Z" fill="white"/>
<path d="M91.7226 39.3658H91.012L91.1008 38.8329C90.6567 39.277 90.1237 39.5435 89.5907 39.5435C88.3471 39.5435 87.8141 38.4776 87.9918 37.3228C88.1695 36.168 89.0578 35.1021 90.3014 35.1021C90.8343 35.1021 91.2785 35.3685 91.6338 35.8127L91.7226 35.1909H92.4333L91.7226 39.3658ZM88.7024 37.2339C88.5248 38.0334 88.9689 38.8329 89.7684 38.8329C90.6567 38.8329 91.2785 38.1222 91.3673 37.2339C91.4561 36.4345 91.1008 35.7239 90.2125 35.7239C89.4131 35.7239 88.7913 36.4345 88.7024 37.2339Z" fill="white"/>
<path d="M94.2094 35.634C94.5647 35.2787 95.0089 35.0122 95.5419 35.0122C96.6966 35.0122 96.7855 35.8117 96.6966 36.7888L96.3413 39.276H95.5419L95.8972 36.9664C95.986 36.2558 96.0748 35.7228 95.2754 35.7228C94.2982 35.7228 94.1206 36.6111 94.0318 37.3218L93.6764 39.276H92.9658L93.5876 35.101H94.2983L94.2094 35.634Z" fill="white"/>
<path d="M99.6288 36.1684C99.54 35.9908 99.3623 35.7243 99.0958 35.7243C98.8294 35.7243 98.5629 35.9019 98.474 36.1684C98.3852 36.5237 98.8293 36.7014 99.2735 36.879C99.7176 37.0567 100.162 37.412 100.073 38.0338C99.9841 38.8333 99.2735 39.3663 98.474 39.3663C97.7634 39.3663 97.3193 39.0109 97.1416 38.3003L97.7634 38.0338C97.8522 38.3891 98.0299 38.6556 98.474 38.6556C98.8294 38.6556 99.1847 38.3891 99.2735 38.0338C99.4512 37.1455 97.4969 37.412 97.6746 36.0796C97.7634 35.3689 98.474 34.9248 99.0958 34.9248C99.54 34.9248 99.9841 35.2801 100.073 35.7243L99.6288 36.1684Z" fill="white"/>
<path d="M102.115 35.7228C102.56 35.2787 103.093 35.0122 103.626 35.0122C104.869 35.0122 105.491 36.0782 105.224 37.2329C105.047 38.3877 104.159 39.4537 102.915 39.4537C102.382 39.4537 101.849 39.1872 101.583 38.743L101.138 41.6744H100.428L101.494 35.1899H102.204L102.115 35.7228ZM101.849 37.2329C101.671 38.0324 102.027 38.8319 102.915 38.8319C103.803 38.8319 104.425 38.1212 104.514 37.2329C104.603 36.4335 104.247 35.7228 103.359 35.7228C102.56 35.7228 101.938 36.4335 101.849 37.2329Z" fill="white"/>
<path d="M109.578 39.3658H108.867L108.956 38.8329C108.512 39.277 107.979 39.5435 107.446 39.5435C106.202 39.5435 105.669 38.4776 105.847 37.3228C106.024 36.168 106.913 35.1021 108.156 35.1021C108.689 35.1021 109.133 35.3685 109.489 35.8127L109.578 35.1909H110.288L109.578 39.3658ZM106.557 37.2339C106.38 38.0334 106.735 38.8329 107.623 38.8329C108.512 38.8329 109.133 38.1222 109.222 37.2339C109.311 36.4345 108.956 35.7239 108.068 35.7239C107.268 35.7239 106.646 36.4345 106.557 37.2339Z" fill="white"/>
<path d="M112.064 35.635C112.42 35.2797 112.597 35.1021 113.13 35.1021C113.397 35.1021 113.575 35.1909 113.752 35.2797L113.308 35.9015C113.13 35.8127 113.13 35.7239 112.953 35.7239C112.153 35.7239 111.976 36.701 111.887 37.2339L111.531 39.277H110.821L111.443 35.1021H112.153L112.064 35.635Z" fill="white"/>
<path d="M114.284 37.4106C114.196 38.21 114.64 38.743 115.439 38.743C116.061 38.743 116.505 38.3877 116.86 37.8547L117.393 38.2101C116.86 38.9207 116.15 39.3648 115.262 39.3648C114.018 39.3648 113.396 38.3877 113.574 37.2329C113.751 35.9893 114.64 35.0122 115.972 35.0122C117.305 35.0122 117.838 36.0782 117.571 37.3218H114.284V37.4106ZM116.86 36.7888C116.86 36.167 116.416 35.7228 115.795 35.7228C115.173 35.7228 114.551 36.167 114.373 36.7888H116.86Z" fill="white"/>
<path d="M119.349 35.634C119.704 35.2787 120.148 35.0122 120.681 35.0122C121.836 35.0122 121.925 35.8117 121.836 36.7888L121.481 39.276H120.77L121.125 36.9664C121.214 36.2558 121.303 35.7228 120.503 35.7228C119.526 35.7228 119.349 36.6111 119.171 37.3218L118.904 39.276H118.194L118.816 35.101H119.526L119.349 35.634Z" fill="white"/>
<path d="M126.099 36.4335C125.833 35.9893 125.477 35.7228 124.856 35.7228C123.967 35.7228 123.257 36.4335 123.168 37.2329C122.99 38.0324 123.523 38.743 124.323 38.743C124.944 38.743 125.389 38.4765 125.744 38.0324L125.566 39.0095C125.122 39.276 124.678 39.4537 124.234 39.4537C122.99 39.4537 122.191 38.4765 122.368 37.2329C122.546 35.9893 123.701 35.0122 124.944 35.0122C125.389 35.0122 125.833 35.1899 126.188 35.4564L126.099 36.4335Z" fill="white"/>
<path d="M126.633 35.1899H127.433L128.41 38.1213L130.186 35.1899H130.986L126.9 41.6745H126.1L127.877 38.9208L126.633 35.1899Z" fill="white"/>
<path d="M42.3333 11.2949H54.5029L54.0587 13.9598H41.8892" fill="#C31328"/>
</svg>
