<svg width="699" height="533" viewBox="0 0 699 533" fill="none" xmlns="http://www.w3.org/2000/svg">
<g filter="url(#filter0_dd)">
<path d="M330.038 176.318H41.4615C36.2361 176.318 32 180.654 32 186.002V466.843C32 472.191 36.2361 476.527 41.4615 476.527H330.038C335.264 476.527 339.5 472.191 339.5 466.843V186.002C339.5 180.654 335.264 176.318 330.038 176.318Z" fill="white"/>
<path d="M75.05 418.906H322.942" stroke="#E4E4E4" stroke-opacity="0.2" stroke-linecap="square"/>
<path d="M75.05 383.075H322.942" stroke="#E4E4E4" stroke-opacity="0.2" stroke-linecap="square"/>
<path d="M75.05 347.243H322.942" stroke="#E4E4E4" stroke-opacity="0.2" stroke-linecap="square"/>
<path d="M75.05 311.412H322.942" stroke="#E4E4E4" stroke-opacity="0.2" stroke-linecap="square"/>
<path d="M75.05 275.581H322.942" stroke="#E4E4E4" stroke-opacity="0.2" stroke-linecap="square"/>
<path d="M75.05 372.953C85.9399 371.038 94.8949 359.369 107.888 357.407C114.814 356.362 120.362 358.397 126.552 361.559C132.742 364.72 131.531 366.085 145.451 368.522C156.941 370.534 159.946 377.459 171.203 378.292C182.46 379.126 187.667 353.051 199.553 355.228C211.438 357.404 213.813 351.777 224.985 362.442C236.157 373.107 246.48 364.596 260.505 362.42C274.53 360.243 278.182 366.996 284.838 366.126C291.494 365.255 297.486 381.716 303.191 384.11C308.897 386.505 310.515 377.808 322.638 377.808" stroke="#F7DC39" stroke-width="2" stroke-linecap="round" stroke-linejoin="round"/>
<path d="M75.2502 355.335C89.548 352.949 88.5947 367.116 107.42 369.183C126.245 371.25 131.488 356.782 140.067 352.648C148.645 348.515 152.458 329.677 166.756 330.95C181.053 332.221 188.202 344.966 200.116 346.556C212.031 348.146 214.415 358.69 225.614 366.481C236.814 374.271 247.061 375.225 261.121 373.635C275.179 372.046 278.992 355.971 285.665 355.335C292.337 354.698 298.294 362.364 304.013 364.113C309.732 365.862 311.4 373.635 323.553 373.635" stroke="#9BA6FA" stroke-width="2" stroke-linecap="round" stroke-linejoin="round"/>
<path fill-rule="evenodd" clip-rule="evenodd" d="M266.32 418.048V359.273H267.266V418.048H266.32Z" fill="#F7DC39"/>
<g filter="url(#filter1_dd)">
<path d="M273.416 361.21C273.416 357.466 270.451 354.431 266.793 354.431C263.135 354.431 260.17 357.466 260.17 361.21C260.17 364.954 263.135 367.989 266.793 367.989C270.451 367.989 273.416 364.954 273.416 361.21Z" fill="#F7DC39"/>
<path d="M272.47 361.209C272.47 358 269.928 355.398 266.793 355.398C263.657 355.398 261.116 358 261.116 361.209C261.116 364.418 263.657 367.019 266.793 367.019C269.928 367.019 272.47 364.418 272.47 361.209Z" stroke="white" stroke-width="2"/>
</g>
<g filter="url(#filter2_dd)">
<path fill-rule="evenodd" clip-rule="evenodd" d="M270.541 349.734C268.732 352.123 265.799 352.123 263.99 349.734L261.012 346.349C260.115 345.33 258.838 344.747 257.497 344.747H249.506C243.18 344.747 240.885 344.073 238.572 342.807C236.259 341.541 234.445 339.683 233.207 337.316C231.971 334.948 231.312 332.601 231.312 326.125V310.107C231.312 303.631 231.971 301.284 233.207 298.916C234.445 296.549 236.259 294.691 238.572 293.425C240.885 292.159 243.18 291.484 249.506 291.484H284.08C290.406 291.484 292.7 292.159 295.013 293.425C297.326 294.691 299.141 296.549 300.377 298.916C301.615 301.284 302.274 303.631 302.274 310.107V326.125C302.274 332.601 301.615 334.948 300.377 337.316C299.141 339.683 297.326 341.541 295.013 342.807C292.7 344.073 290.406 344.747 284.08 344.747H279.14C276.46 344.747 273.904 345.912 272.11 347.95L270.541 349.734Z" fill="white"/>
</g>
<path d="M264.338 333.126V325.621H263.276L260.765 331.831H260.684L258.173 325.621H257.111V333.126H257.965V327.395H258.026L260.338 333.075H261.11L263.423 327.395H263.484V333.126H264.338ZM267.783 332.44C267.148 332.44 266.676 332.107 266.676 331.535C266.676 330.973 267.041 330.677 267.874 330.62L269.348 330.521V331.035C269.348 331.836 268.682 332.44 267.783 332.44ZM267.621 333.226C268.352 333.226 268.952 332.897 269.308 332.299H269.389V333.126H270.223V329.288C270.223 328.122 269.475 327.42 268.139 327.42C266.97 327.42 266.106 328.014 265.99 328.913H266.873C266.995 328.471 267.453 328.216 268.108 328.216C268.926 328.216 269.348 328.596 269.348 329.288V329.798L267.768 329.896C266.492 329.975 265.771 330.552 265.771 331.555C265.771 332.581 266.558 333.226 267.621 333.226ZM272.103 335.155C273.073 335.155 273.511 334.77 273.978 333.47L276.117 327.519H275.187L273.688 332.133H273.607L272.103 327.519H271.157L273.185 333.132L273.084 333.465C272.855 334.141 272.58 334.385 272.077 334.385C271.955 334.385 271.818 334.38 271.712 334.359V335.124C271.833 335.144 271.986 335.155 272.103 335.155Z" fill="#666666"/>
<path d="M243.654 316.66V315.737C245.74 315.56 246.939 314.461 246.939 312.702C246.939 311.205 246.1 310.29 244.34 309.871L243.654 309.722V306.85C244.485 306.963 245.067 307.545 245.088 308.275H246.745C246.71 306.679 245.504 305.545 243.654 305.375V304.396H242.697V305.375C240.743 305.545 239.565 306.645 239.565 308.318C239.565 309.737 240.431 310.701 242.032 311.106L242.697 311.269V314.29C241.734 314.184 241.104 313.616 241.041 312.822H239.351C239.357 314.496 240.633 315.617 242.697 315.745V316.66H243.654ZM245.248 312.886C245.248 313.723 244.666 314.241 243.654 314.305V311.454C244.748 311.674 245.248 312.127 245.248 312.886ZM241.277 308.169C241.277 307.445 241.873 306.893 242.697 306.843V309.517C241.769 309.318 241.277 308.851 241.277 308.169ZM248.893 308.453V308.482H250.57V308.453C250.57 307.411 251.277 306.709 252.323 306.709C253.307 306.709 254.028 307.361 254.028 308.262C254.028 308.985 253.689 309.517 252.323 310.936L248.99 314.425V315.694H255.934V314.141H251.443V314.021L253.536 311.872C255.234 310.155 255.781 309.248 255.781 308.149C255.781 306.438 254.354 305.205 252.378 305.205C250.327 305.205 248.893 306.538 248.893 308.453ZM258.366 315.694H260.237L264.513 307.02V305.46H257.556V306.999H262.711V307.112L258.366 315.694ZM265.726 318.404L266.924 314.121H265.185L264.54 318.404H265.726ZM272.482 315.943C274.658 315.943 276.197 314.454 276.197 312.347C276.197 310.383 274.804 308.943 272.905 308.943C271.727 308.943 270.785 309.502 270.312 310.475H270.195C270.195 308.134 271.062 306.737 272.524 306.737C273.383 306.737 274.048 307.219 274.27 307.992H276.058C275.759 306.311 274.36 305.205 272.538 305.205C269.987 305.205 268.484 307.247 268.484 310.688C268.484 311.992 268.726 313.085 269.19 313.921C269.855 315.233 271.013 315.943 272.482 315.943ZM272.461 314.418C271.346 314.418 270.493 313.539 270.493 312.376C270.493 311.234 271.332 310.396 272.475 310.396C273.618 310.396 274.443 311.234 274.443 312.404C274.443 313.546 273.584 314.418 272.461 314.418ZM280.347 311.155H281.602C282.835 311.155 283.591 311.772 283.591 312.773C283.591 313.737 282.787 314.411 281.644 314.411C280.493 314.411 279.703 313.808 279.626 312.858H277.915C278.005 314.73 279.474 315.95 281.629 315.95C283.806 315.95 285.413 314.646 285.413 312.886C285.413 311.524 284.567 310.573 283.203 310.411V310.29C284.311 310.049 285.011 309.134 285.011 307.935C285.011 306.368 283.562 305.205 281.623 305.205C279.543 305.205 278.199 306.374 278.109 308.254H279.779C279.849 307.29 280.535 306.694 281.567 306.694C282.613 306.694 283.285 307.283 283.285 308.19C283.285 309.105 282.586 309.737 281.567 309.737H280.347V311.155ZM287.243 308.453V308.482H288.92V308.453C288.92 307.411 289.626 306.709 290.673 306.709C291.657 306.709 292.378 307.361 292.378 308.262C292.378 308.985 292.038 309.517 290.673 310.936L287.339 314.425V315.694H294.283V314.141H289.793V314.021L291.886 311.872C293.583 310.155 294.131 309.248 294.131 308.149C294.131 306.438 292.703 305.205 290.729 305.205C288.677 305.205 287.243 306.538 287.243 308.453Z" fill="#151522"/>
<path d="M263.646 445.538V438.032H262.584L260.073 444.243H259.993L257.482 438.032H256.42V445.538H257.274V439.806H257.334L259.647 445.485H260.42L262.732 439.806H262.793V445.538H263.646ZM267.092 444.851C266.457 444.851 265.984 444.518 265.984 443.945C265.984 443.384 266.35 443.087 267.184 443.03L268.657 442.932V443.447C268.657 444.248 267.992 444.851 267.092 444.851ZM266.929 445.636C267.661 445.636 268.26 445.309 268.616 444.71H268.697V445.538H269.531V441.699C269.531 440.534 268.785 439.832 267.448 439.832C266.279 439.832 265.414 440.424 265.298 441.324H266.183C266.304 440.882 266.762 440.628 267.417 440.628C268.235 440.628 268.657 441.007 268.657 441.699V442.208L267.077 442.308C265.801 442.385 265.079 442.963 265.079 443.967C265.079 444.991 265.868 445.636 266.929 445.636ZM271.411 447.566C272.382 447.566 272.819 447.181 273.286 445.88L275.427 439.93H274.496L272.997 444.544H272.915L271.411 439.93H270.466L272.493 445.542L272.392 445.875C272.163 446.551 271.889 446.796 271.386 446.796C271.264 446.796 271.127 446.791 271.02 446.77V447.534C271.142 447.556 271.295 447.566 271.411 447.566Z" fill="#999999"/>
<path d="M215.854 445.538H216.814L214.111 438.032H213.206L210.502 445.538H211.463L212.2 443.39H215.117L215.854 445.538ZM213.618 439.244H213.699L214.848 442.594H212.469L213.618 439.244ZM220.656 439.832C219.909 439.832 219.253 440.222 218.903 440.867H218.822V439.93H217.988V447.41H218.863V444.695H218.944C219.244 445.288 219.874 445.636 220.656 445.636C222.048 445.636 222.958 444.487 222.958 442.734C222.958 440.971 222.054 439.832 220.656 439.832ZM220.447 444.831C219.461 444.831 218.837 444.019 218.837 442.734C218.837 441.444 219.461 440.637 220.453 440.637C221.454 440.637 222.054 441.423 222.054 442.734C222.054 444.044 221.454 444.831 220.447 444.831ZM224.33 445.538H225.205V442.063C225.205 441.273 225.809 440.7 226.643 440.7C226.815 440.7 227.13 440.731 227.202 440.753V439.858C227.09 439.842 226.907 439.832 226.765 439.832C226.038 439.832 225.408 440.216 225.245 440.762H225.164V439.93H224.33V445.538Z" fill="#999999"/>
<path d="M171.701 445.538V438.032H170.639L168.129 444.243H168.048L165.536 438.032H164.475V445.538H165.328V439.806H165.39L167.701 445.485H168.474L170.787 439.806H170.847V445.538H171.701ZM175.147 444.851C174.512 444.851 174.039 444.518 174.039 443.945C174.039 443.384 174.405 443.087 175.238 443.03L176.711 442.932V443.447C176.711 444.248 176.046 444.851 175.147 444.851ZM174.984 445.636C175.716 445.636 176.315 445.309 176.671 444.711H176.752V445.538H177.586V441.699C177.586 440.534 176.839 439.832 175.502 439.832C174.334 439.832 173.47 440.424 173.353 441.324H174.237C174.359 440.882 174.816 440.628 175.472 440.628C176.29 440.628 176.711 441.007 176.711 441.699V442.208L175.131 442.308C173.856 442.385 173.134 442.963 173.134 443.967C173.134 444.991 173.922 445.636 174.984 445.636ZM179.202 445.538H180.076V442.063C180.076 441.273 180.681 440.7 181.514 440.7C181.687 440.7 182.002 440.731 182.073 440.753V439.858C181.962 439.842 181.778 439.832 181.636 439.832C180.91 439.832 180.279 440.216 180.117 440.762H180.035V439.93H179.202V445.538Z" fill="#999999"/>
<path d="M119.3 445.538V442.287H122.547V441.455H119.3V438.875H122.836V438.032H118.385V445.538H119.3ZM126.415 440.622C127.283 440.622 127.862 441.278 127.883 442.271H124.864C124.93 441.278 125.541 440.622 126.415 440.622ZM127.858 444.086C127.629 444.581 127.151 444.846 126.445 444.846C125.515 444.846 124.91 444.144 124.864 443.036V442.995H128.803V442.651C128.803 440.909 127.903 439.832 126.424 439.832C124.92 439.832 123.955 440.976 123.955 442.739C123.955 444.513 124.905 445.636 126.424 445.636C127.624 445.636 128.468 445.049 128.732 444.086H127.858ZM132.899 445.636C134.286 445.636 135.196 444.487 135.196 442.734C135.196 440.971 134.292 439.832 132.899 439.832C132.147 439.832 131.481 440.211 131.182 440.815H131.1V437.704H130.226V445.538H131.059V444.643H131.141C131.486 445.267 132.136 445.636 132.899 445.636ZM132.695 440.637C133.696 440.637 134.292 441.423 134.292 442.734C134.292 444.044 133.696 444.831 132.695 444.831C131.7 444.831 131.079 444.029 131.079 442.734C131.079 441.439 131.7 440.637 132.695 440.637Z" fill="#999999"/>
<path d="M304.004 443.785C304.004 444.934 304.868 445.715 306.098 445.715C307.424 445.715 308.232 444.877 308.232 443.447V438.032H307.318V443.441C307.318 444.362 306.875 444.851 306.092 444.851C305.402 444.851 304.934 444.414 304.913 443.785H304.004ZM314.421 439.93H313.548V443.249C313.548 444.232 313.019 444.82 312.053 444.82C311.18 444.82 310.814 444.351 310.814 443.342V439.93H309.939V443.561C309.939 444.888 310.58 445.636 311.81 445.636C312.648 445.636 313.233 445.283 313.507 444.658H313.589V445.538H314.421V439.93ZM316.069 445.538H316.942V442.219C316.942 441.236 317.507 440.637 318.38 440.637C319.254 440.637 319.672 441.117 319.672 442.126V445.538H320.546V441.907C320.546 440.575 319.859 439.832 318.63 439.832C317.791 439.832 317.257 440.196 316.983 440.815H316.901V439.93H316.069V445.538Z" fill="#999999"/>
<path d="M72.4536 443.785C72.4536 444.934 73.3175 445.715 74.5474 445.715C75.8737 445.715 76.6817 444.877 76.6817 443.447V438.032H75.767V443.441C75.767 444.362 75.3248 444.851 74.5423 444.851C73.8511 444.851 73.3836 444.414 73.3632 443.785H72.4536ZM80.1272 444.851C79.492 444.851 79.0194 444.518 79.0194 443.945C79.0194 443.384 79.3852 443.087 80.2187 443.03L81.6924 442.932V443.447C81.6924 444.248 81.0267 444.851 80.1272 444.851ZM79.9646 445.636C80.6964 445.636 81.2961 445.309 81.6518 444.711H81.7331V445.538H82.5665V441.699C82.5665 440.534 81.8195 439.832 80.483 439.832C79.3141 439.832 78.4502 440.424 78.3333 441.324H79.2176C79.3395 440.882 79.7969 440.628 80.4525 440.628C81.2706 440.628 81.6924 441.007 81.6924 441.699V442.208L80.112 442.308C78.8365 442.385 78.1148 442.963 78.1148 443.967C78.1148 444.991 78.9025 445.636 79.9646 445.636ZM84.1825 445.538H85.0567V442.219C85.0567 441.236 85.6208 440.637 86.4948 440.637C87.3689 440.637 87.7856 441.117 87.7856 442.126V445.538H88.6597V441.907C88.6597 440.575 87.9737 439.832 86.7439 439.832C85.9053 439.832 85.3717 440.196 85.0973 440.815H85.016V439.93H84.1825V445.538Z" fill="#999999"/>
<path d="M65.1542 421.504C66.8007 421.504 67.746 420.079 67.746 417.587C67.746 415.101 66.7854 413.645 65.1542 413.645C63.5128 413.645 62.5522 415.095 62.5522 417.572C62.5522 420.068 63.5026 421.504 65.1542 421.504ZM65.1542 420.687C64.0718 420.687 63.4721 419.579 63.4721 417.572C63.4721 415.59 64.0819 414.467 65.1542 414.467C66.2264 414.467 66.8261 415.58 66.8261 417.572C66.8261 419.585 66.2367 420.687 65.1542 420.687Z" fill="#999999"/>
<path d="M49.7968 380.102V380.108H50.6809V380.102C50.6809 379.218 51.2603 378.63 52.1192 378.63C52.9272 378.63 53.5522 379.207 53.5522 379.957C53.5522 380.56 53.3235 380.966 52.3783 382.016L49.8425 384.851V385.496H54.5889V384.653H51.1536V384.57L52.917 382.63C54.1214 381.308 54.467 380.7 54.467 379.92C54.467 378.729 53.4607 377.813 52.1445 377.813C50.7826 377.813 49.7968 378.77 49.7968 380.102ZM58.5985 385.673C60.245 385.673 61.1903 384.248 61.1903 381.756C61.1903 379.27 60.2298 377.813 58.5985 377.813C56.9571 377.813 55.9966 379.264 55.9966 381.74C55.9966 384.237 56.9469 385.673 58.5985 385.673ZM58.5985 384.856C57.5161 384.856 56.9165 383.748 56.9165 381.74C56.9165 379.759 57.5263 378.636 58.5985 378.636C59.6708 378.636 60.2705 379.748 60.2705 381.74C60.2705 383.754 59.6809 384.856 58.5985 384.856ZM65.1542 385.673C66.8007 385.673 67.746 384.248 67.746 381.756C67.746 379.27 66.7854 377.813 65.1542 377.813C63.5128 377.813 62.5522 379.264 62.5522 381.74C62.5522 384.237 63.5026 385.673 65.1542 385.673ZM65.1542 384.856C64.0718 384.856 63.4721 383.748 63.4721 381.74C63.4721 379.759 64.0819 378.636 65.1542 378.636C66.2264 378.636 66.8261 379.748 66.8261 381.74C66.8261 383.754 66.2367 384.856 65.1542 384.856Z" fill="#999999"/>
<path d="M52.785 349.665H53.6794V348.109H54.7212V347.272H53.6794V342.159H52.353C51.0317 344.182 49.868 346.065 49.2124 347.256V348.109H52.785V349.665ZM50.1475 347.214C51.0215 345.696 51.977 344.145 52.7291 343.027H52.79V347.277H50.1475V347.214ZM58.5986 349.842C60.2451 349.842 61.1904 348.416 61.1904 345.924C61.1904 343.439 60.2299 341.982 58.5986 341.982C56.9571 341.982 55.9967 343.433 55.9967 345.909C55.9967 348.406 56.947 349.842 58.5986 349.842ZM58.5986 349.024C57.5162 349.024 56.9166 347.917 56.9166 345.909C56.9166 343.928 57.5263 342.804 58.5986 342.804C59.6709 342.804 60.2706 343.917 60.2706 345.909C60.2706 347.922 59.681 349.024 58.5986 349.024ZM65.1542 349.842C66.8007 349.842 67.746 348.416 67.746 345.924C67.746 343.439 66.7855 341.982 65.1542 341.982C63.5128 341.982 62.5523 343.433 62.5523 345.909C62.5523 348.406 63.5026 349.842 65.1542 349.842ZM65.1542 349.024C64.0718 349.024 63.4722 347.917 63.4722 345.909C63.4722 343.928 64.082 342.804 65.1542 342.804C66.2265 342.804 66.8262 343.917 66.8262 345.909C66.8262 347.922 66.2367 349.024 65.1542 349.024Z" fill="#999999"/>
<path d="M52.0887 314.005C53.593 314.005 54.6601 312.928 54.6601 311.42C54.6601 309.963 53.6489 308.908 52.2513 308.908C51.3773 308.908 50.6607 309.334 50.2999 310.062H50.2186C50.2694 308.064 50.9453 306.983 52.1395 306.983C52.8611 306.983 53.4151 307.41 53.6133 308.112H54.5534C54.3196 306.905 53.3948 306.151 52.1497 306.151C50.3558 306.151 49.3292 307.628 49.3292 310.207C49.3292 311.034 49.4462 311.727 49.685 312.299C50.1423 313.401 50.9859 314.005 52.0887 314.005ZM52.0786 313.183C51.1384 313.183 50.4218 312.423 50.4218 311.42C50.4218 310.426 51.1181 309.718 52.0887 309.718C53.0593 309.718 53.7353 310.426 53.7353 311.451C53.7353 312.434 53.0187 313.183 52.0786 313.183ZM58.5986 314.01C60.2451 314.01 61.1904 312.585 61.1904 310.093C61.1904 307.607 60.2299 306.151 58.5986 306.151C56.9571 306.151 55.9967 307.601 55.9967 310.078C55.9967 312.574 56.947 314.01 58.5986 314.01ZM58.5986 313.193C57.5162 313.193 56.9165 312.085 56.9165 310.078C56.9165 308.096 57.5263 306.973 58.5986 306.973C59.6709 306.973 60.2706 308.086 60.2706 310.078C60.2706 312.091 59.681 313.193 58.5986 313.193ZM65.1542 314.01C66.8007 314.01 67.746 312.585 67.746 310.093C67.746 307.607 66.7855 306.151 65.1542 306.151C63.5128 306.151 62.5523 307.601 62.5523 310.078C62.5523 312.574 63.5026 314.01 65.1542 314.01ZM65.1542 313.193C64.0718 313.193 63.4722 312.085 63.4722 310.078C63.4722 308.096 64.082 306.973 65.1542 306.973C66.2265 306.973 66.8262 308.086 66.8262 310.078C66.8262 312.091 66.2367 313.193 65.1542 313.193Z" fill="#999999"/>
<path d="M51.9922 278.179C53.5472 278.179 54.6348 277.278 54.6348 275.994C54.6348 275.016 54.03 274.257 53.1102 274.08V273.996C53.8674 273.783 54.335 273.143 54.335 272.322C54.335 271.151 53.3643 270.319 51.9922 270.319C50.6201 270.319 49.6494 271.151 49.6494 272.322C49.6494 273.138 50.1272 273.788 50.8741 273.996V274.08C49.9544 274.257 49.3496 275.016 49.3496 275.994C49.3496 277.278 50.4371 278.179 51.9922 278.179ZM51.9922 277.377C50.9759 277.377 50.2746 276.785 50.2746 275.927C50.2746 275.068 50.9759 274.475 51.9922 274.475C53.0086 274.475 53.7099 275.068 53.7099 275.927C53.7099 276.785 53.0086 277.377 51.9922 277.377ZM51.9922 273.685C51.1283 273.685 50.549 273.175 50.549 272.41C50.549 271.635 51.1232 271.12 51.9922 271.12C52.8612 271.12 53.4355 271.635 53.4355 272.41C53.4355 273.175 52.8561 273.685 51.9922 273.685ZM58.5986 278.179C60.2451 278.179 61.1904 276.754 61.1904 274.262C61.1904 271.776 60.2299 270.319 58.5986 270.319C56.9572 270.319 55.9967 271.77 55.9967 274.246C55.9967 276.743 56.947 278.179 58.5986 278.179ZM58.5986 277.362C57.5162 277.362 56.9166 276.254 56.9166 274.246C56.9166 272.265 57.5264 271.142 58.5986 271.142C59.6709 271.142 60.2706 272.254 60.2706 274.246C60.2706 276.26 59.681 277.362 58.5986 277.362ZM65.1542 278.179C66.8007 278.179 67.746 276.754 67.746 274.262C67.746 271.776 66.7855 270.319 65.1542 270.319C63.5129 270.319 62.5523 271.77 62.5523 274.246C62.5523 276.743 63.5026 278.179 65.1542 278.179ZM65.1542 277.362C64.0718 277.362 63.4722 276.254 63.4722 274.246C63.4722 272.265 64.082 271.142 65.1542 271.142C66.2265 271.142 66.8262 272.254 66.8262 274.246C66.8262 276.26 66.2367 277.362 65.1542 277.362Z" fill="#999999"/>
<path d="M135.131 236.581C135.131 234.442 133.436 232.707 131.346 232.707C129.256 232.707 127.562 234.442 127.562 236.581C127.562 238.72 129.256 240.455 131.346 240.455C133.436 240.455 135.131 238.72 135.131 236.581Z" fill="#9BA6FA"/>
<path d="M145.855 239.286H142.107V232.267H140.865V240.455H145.855V239.286ZM149.492 235.195C150.372 235.195 150.95 235.824 150.977 236.795H147.928C147.995 235.83 148.61 235.195 149.492 235.195ZM150.971 238.786C150.75 239.269 150.256 239.536 149.536 239.536C148.582 239.536 147.966 238.849 147.928 237.765V237.697H152.191V237.271C152.191 235.331 151.177 234.156 149.497 234.156C147.795 234.156 146.714 235.41 146.714 237.385C146.714 239.36 147.772 240.574 149.502 240.574C150.882 240.574 151.847 239.893 152.119 238.786H150.971ZM156.15 239.309C155.124 239.309 154.547 238.52 154.547 237.288C154.547 236.057 155.124 235.268 156.15 235.268C157.164 235.268 157.785 236.057 157.785 237.288C157.785 238.525 157.17 239.309 156.15 239.309ZM156.166 242.815C157.874 242.815 158.955 241.919 158.955 240.506V234.275H157.813V235.263H157.718C157.381 234.593 156.654 234.173 155.822 234.173C154.281 234.173 153.317 235.41 153.317 237.294C153.317 239.144 154.271 240.364 155.811 240.364C156.643 240.364 157.308 239.995 157.674 239.326H157.763V240.511C157.763 241.329 157.175 241.811 156.183 241.811C155.379 241.811 154.874 241.521 154.775 241.073H153.555C153.682 242.123 154.659 242.815 156.166 242.815ZM163.163 235.195C164.044 235.195 164.621 235.824 164.648 236.795H161.6C161.666 235.83 162.281 235.195 163.163 235.195ZM164.642 238.786C164.421 239.269 163.928 239.536 163.207 239.536C162.253 239.536 161.638 238.849 161.6 237.765V237.697H165.862V237.271C165.862 235.331 164.848 234.156 163.168 234.156C161.466 234.156 160.385 235.41 160.385 237.385C160.385 239.36 161.444 240.574 163.174 240.574C164.554 240.574 165.518 239.893 165.79 238.786H164.642ZM167.293 240.455H168.485V236.84C168.485 235.876 169.045 235.274 169.926 235.274C170.807 235.274 171.229 235.768 171.229 236.761V240.455H172.421V236.454C172.421 234.985 171.678 234.156 170.331 234.156C169.421 234.156 168.822 234.57 168.529 235.257H168.44V234.275H167.293V240.455ZM176.307 240.557C177.138 240.557 177.843 240.154 178.203 239.479H178.297V240.455H179.439V231.864H178.247V235.257H178.159C177.832 234.576 177.133 234.173 176.307 234.173C174.782 234.173 173.801 235.41 173.801 237.362C173.801 239.32 174.771 240.557 176.307 240.557ZM176.645 235.268C177.643 235.268 178.27 236.08 178.27 237.368C178.27 238.662 177.649 239.462 176.645 239.462C175.637 239.462 175.032 238.673 175.032 237.362C175.032 236.063 175.641 235.268 176.645 235.268ZM184.268 234.633V234.65H185.444V234.633C185.444 233.759 186.037 233.169 186.918 233.169C187.744 233.169 188.371 233.731 188.371 234.48C188.371 235.081 188.11 235.512 187.04 236.653L184.335 239.536V240.455H189.723V239.314H186.064V239.218L187.844 237.374C189.186 235.983 189.595 235.274 189.595 234.406C189.595 233.055 188.476 232.068 186.956 232.068C185.382 232.068 184.268 233.124 184.268 234.633Z" fill="#151522"/>
<path d="M54.7076 236.581C54.7076 234.442 53.0132 232.707 50.923 232.707C48.8329 232.707 47.1384 234.442 47.1384 236.581C47.1384 238.72 48.8329 240.455 50.923 240.455C53.0132 240.455 54.7076 238.72 54.7076 236.581Z" fill="#F7DC39"/>
<path d="M65.4314 239.286H61.6837V232.267H60.4419V240.455H65.4314V239.286ZM69.0682 235.195C69.9497 235.195 70.5263 235.824 70.5539 236.795H67.5048C67.5713 235.83 68.1867 235.195 69.0682 235.195ZM70.5484 238.786C70.3266 239.269 69.8332 239.536 69.1125 239.536C68.159 239.536 67.5436 238.849 67.5048 237.765V237.697H71.768V237.271C71.768 235.331 70.7535 234.156 69.0737 234.156C67.3718 234.156 66.2907 235.41 66.2907 237.385C66.2907 239.36 67.3496 240.574 69.0793 240.574C70.4597 240.574 71.4244 239.893 71.696 238.786H70.5484ZM75.7263 239.309C74.7008 239.309 74.1242 238.52 74.1242 237.288C74.1242 236.057 74.7008 235.268 75.7263 235.268C76.7409 235.268 77.3619 236.057 77.3619 237.288C77.3619 238.525 76.7465 239.309 75.7263 239.309ZM75.743 242.815C77.4505 242.815 78.5316 241.919 78.5316 240.506V234.275H77.3896V235.263H77.2953C76.9571 234.593 76.2308 234.173 75.3993 234.173C73.8581 234.173 72.8935 235.41 72.8935 237.294C72.8935 239.144 73.847 240.364 75.3882 240.364C76.2198 240.364 76.8851 239.995 77.251 239.326H77.3396V240.511C77.3396 241.329 76.752 241.811 75.7596 241.811C74.9558 241.811 74.4513 241.521 74.3515 241.073H73.1319C73.2593 242.123 74.2351 242.815 75.743 242.815ZM82.7394 235.195C83.6209 235.195 84.1974 235.824 84.2252 236.795H81.176C81.2425 235.83 81.8579 235.195 82.7394 235.195ZM84.2196 238.786C83.9978 239.269 83.5044 239.536 82.7837 239.536C81.8302 239.536 81.2148 238.849 81.176 237.765V237.697H85.4393V237.271C85.4393 235.331 84.4247 234.156 82.7449 234.156C81.043 234.156 79.9619 235.41 79.9619 237.385C79.9619 239.36 81.0207 240.574 82.7505 240.574C84.1309 240.574 85.0955 239.893 85.3672 238.786H84.2196ZM86.8696 240.455H88.0615V236.84C88.0615 235.876 88.6215 235.274 89.5029 235.274C90.3843 235.274 90.8057 235.768 90.8057 236.761V240.455H91.9976V236.454C91.9976 234.985 91.2548 234.156 89.9076 234.156C88.9984 234.156 88.3997 234.57 88.1058 235.257H88.0172V234.275H86.8696V240.455ZM95.8839 240.557C96.7154 240.557 97.4196 240.154 97.7799 239.479H97.8741V240.455H99.0162V231.864H97.8242V235.257H97.7356C97.4085 234.576 96.7099 234.173 95.8839 234.173C94.3593 234.173 93.3781 235.41 93.3781 237.362C93.3781 239.32 94.3483 240.557 95.8839 240.557ZM96.2221 235.268C97.2199 235.268 97.8465 236.08 97.8465 237.368C97.8465 238.662 97.2255 239.462 96.2221 239.462C95.213 239.462 94.6088 238.673 94.6088 237.362C94.6088 236.063 95.2186 235.268 96.2221 235.268ZM105.829 240.455H107.072V232.267H105.835L103.729 233.787V235.087L105.736 233.634H105.829V240.455Z" fill="#151522"/>
</g>
<g filter="url(#filter3_dd)">
<path d="M619.038 270.483H330.462C325.236 270.483 321 274.819 321 280.167V401.372C321 406.72 325.236 411.056 330.462 411.056H619.038C624.264 411.056 628.5 406.72 628.5 401.372V280.167C628.5 274.819 624.264 270.483 619.038 270.483Z" fill="white"/>
<path d="M347.555 387.499H343.808V380.48H342.566V388.668H347.555V387.499ZM350.965 387.743C350.316 387.743 349.845 387.419 349.845 386.863C349.845 386.319 350.222 386.03 351.054 385.973L352.528 385.877V386.393C352.528 387.159 351.863 387.743 350.965 387.743ZM350.66 388.77C351.453 388.77 352.113 388.419 352.473 387.8H352.567V388.668H353.715V384.446C353.715 383.141 352.861 382.37 351.347 382.37C349.978 382.37 349.002 383.051 348.88 384.111H350.034C350.167 383.674 350.627 383.425 351.292 383.425C352.107 383.425 352.528 383.794 352.528 384.446V384.98L350.893 385.076C349.457 385.167 348.648 385.808 348.648 386.921C348.648 388.05 349.496 388.77 350.66 388.77ZM355.272 384.236C355.272 385.155 355.805 385.683 356.952 385.961L358.006 386.211C358.61 386.359 358.893 386.597 358.893 386.966C358.893 387.459 358.366 387.8 357.623 387.8C356.902 387.8 356.459 387.505 356.309 387.028H355.117C355.223 388.123 356.16 388.787 357.595 388.787C359.037 388.787 360.096 388.01 360.096 386.847C360.096 385.939 359.558 385.434 358.41 385.161L357.407 384.923C356.753 384.77 356.448 384.537 356.448 384.168C356.448 383.686 356.952 383.363 357.618 383.363C358.294 383.363 358.726 383.652 358.837 384.105H359.979C359.863 383.016 358.976 382.37 357.618 382.37C356.254 382.37 355.272 383.141 355.272 384.236ZM361.909 380.951V382.517H360.949V383.544H361.909V387.034C361.909 388.225 362.435 388.703 363.76 388.703C363.993 388.703 364.215 388.673 364.409 388.64V387.624C364.243 387.641 364.137 387.653 363.954 387.653C363.361 387.653 363.1 387.369 363.1 386.722V383.544H364.409V382.517H363.1V380.951H361.909ZM374.005 382.489H372.813V386.103C372.813 387.074 372.287 387.658 371.322 387.658C370.446 387.658 370.052 387.181 370.052 386.183V382.489H368.861V386.5C368.861 387.953 369.603 388.787 370.939 388.787C371.854 388.787 372.47 388.39 372.763 387.687H372.858V388.668H374.005V382.489ZM378.867 382.386C378.047 382.386 377.337 382.807 376.971 383.51H376.883V382.489H375.735V390.723H376.927V387.732H377.021C377.337 388.384 378.019 388.77 378.878 388.77C380.403 388.77 381.373 387.538 381.373 385.575C381.373 383.612 380.403 382.386 378.867 382.386ZM378.529 387.675C377.531 387.675 376.905 386.869 376.905 385.581C376.905 384.287 377.531 383.482 378.535 383.482C379.544 383.482 380.148 384.27 380.148 385.575C380.148 386.887 379.544 387.675 378.529 387.675ZM385.015 388.77C385.847 388.77 386.551 388.367 386.911 387.692H387.006V388.668H388.148V380.077H386.956V383.47H386.867C386.54 382.789 385.841 382.386 385.015 382.386C383.491 382.386 382.51 383.623 382.51 385.575C382.51 387.534 383.48 388.77 385.015 388.77ZM385.354 383.482C386.351 383.482 386.978 384.293 386.978 385.581C386.978 386.875 386.357 387.675 385.354 387.675C384.345 387.675 383.74 386.887 383.74 385.575C383.74 384.276 384.35 383.482 385.354 383.482ZM391.912 387.743C391.263 387.743 390.792 387.419 390.792 386.863C390.792 386.319 391.169 386.03 392 385.973L393.475 385.877V386.393C393.475 387.159 392.81 387.743 391.912 387.743ZM391.607 388.77C392.399 388.77 393.06 388.419 393.419 387.8H393.514V388.668H394.662V384.446C394.662 383.141 393.808 382.37 392.294 382.37C390.925 382.37 389.95 383.051 389.828 384.111H390.98C391.114 383.674 391.573 383.425 392.239 383.425C393.054 383.425 393.475 383.794 393.475 384.446V384.98L391.84 385.076C390.404 385.167 389.595 385.808 389.595 386.921C389.595 388.05 390.443 388.77 391.607 388.77ZM396.779 380.951V382.517H395.821V383.544H396.779V387.034C396.779 388.225 397.306 388.703 398.631 388.703C398.864 388.703 399.086 388.673 399.28 388.64V387.624C399.113 387.641 399.008 387.653 398.825 387.653C398.232 387.653 397.971 387.369 397.971 386.722V383.544H399.28V382.517H397.971V380.951H396.779ZM403.094 383.408C403.976 383.408 404.552 384.038 404.579 385.008H401.531C401.597 384.043 402.212 383.408 403.094 383.408ZM404.575 387C404.352 387.482 403.859 387.749 403.138 387.749C402.185 387.749 401.57 387.062 401.531 385.978V385.911H405.794V385.484C405.794 383.544 404.779 382.37 403.1 382.37C401.397 382.37 400.317 383.623 400.317 385.598C400.317 387.573 401.376 388.787 403.105 388.787C404.486 388.787 405.45 388.106 405.721 387H404.575ZM410.927 390.91C412.158 390.91 412.729 390.427 413.245 388.923L415.496 382.489H414.232L412.724 387.397H412.629L411.116 382.489H409.819L412.003 388.691L411.914 388.991C411.71 389.616 411.388 389.854 410.822 389.854C410.711 389.854 410.529 389.848 410.434 389.832V390.881C410.545 390.898 410.828 390.91 410.927 390.91ZM418.961 383.408C419.842 383.408 420.419 384.038 420.446 385.008H417.397C417.464 384.043 418.079 383.408 418.961 383.408ZM420.441 387C420.219 387.482 419.725 387.749 419.005 387.749C418.052 387.749 417.436 387.062 417.397 385.978V385.911H421.66V385.484C421.66 383.544 420.646 382.37 418.966 382.37C417.264 382.37 416.183 383.623 416.183 385.598C416.183 387.573 417.242 388.787 418.971 388.787C420.352 388.787 421.317 388.106 421.588 387H420.441ZM422.952 384.236C422.952 385.155 423.484 385.683 424.632 385.961L425.685 386.211C426.29 386.359 426.573 386.597 426.573 386.966C426.573 387.459 426.046 387.8 425.303 387.8C424.582 387.8 424.138 387.505 423.989 387.028H422.797C422.903 388.123 423.839 388.787 425.275 388.787C426.716 388.787 427.775 388.01 427.775 386.847C427.775 385.939 427.238 385.434 426.09 385.161L425.086 384.923C424.432 384.77 424.128 384.537 424.128 384.168C424.128 383.686 424.632 383.363 425.297 383.363C425.974 383.363 426.406 383.652 426.517 384.105H427.659C427.542 383.016 426.655 382.37 425.297 382.37C423.933 382.37 422.952 383.141 422.952 384.236ZM429.588 380.951V382.517H428.629V383.544H429.588V387.034C429.588 388.225 430.115 388.703 431.44 388.703C431.672 388.703 431.895 388.673 432.089 388.64V387.624C431.922 387.641 431.817 387.653 431.634 387.653C431.04 387.653 430.78 387.369 430.78 386.722V383.544H432.089V382.517H430.78V380.951H429.588ZM435.903 383.408C436.785 383.408 437.361 384.038 437.388 385.008H434.34C434.406 384.043 435.021 383.408 435.903 383.408ZM437.382 387C437.161 387.482 436.667 387.749 435.947 387.749C434.993 387.749 434.378 387.062 434.34 385.978V385.911H438.602V385.484C438.602 383.544 437.588 382.37 435.908 382.37C434.206 382.37 433.125 383.623 433.125 385.598C433.125 387.573 434.184 388.787 435.914 388.787C437.294 388.787 438.259 388.106 438.53 387H437.382ZM440.033 388.668H441.225V385.02C441.225 384.151 441.863 383.567 442.766 383.567C442.976 383.567 443.331 383.607 443.431 383.641V382.438C443.304 382.404 443.076 382.386 442.899 382.386C442.111 382.386 441.441 382.829 441.269 383.436H441.18V382.489H440.033V388.668ZM446.63 388.77C447.462 388.77 448.166 388.367 448.526 387.692H448.62V388.668H449.762V380.077H448.571V383.47H448.482C448.154 382.789 447.456 382.386 446.63 382.386C445.105 382.386 444.124 383.623 444.124 385.575C444.124 387.534 445.095 388.77 446.63 388.77ZM446.968 383.482C447.966 383.482 448.593 384.293 448.593 385.581C448.593 386.875 447.972 387.675 446.968 387.675C445.959 387.675 445.355 386.887 445.355 385.575C445.355 384.276 445.965 383.482 446.968 383.482ZM453.527 387.743C452.878 387.743 452.406 387.419 452.406 386.863C452.406 386.319 452.784 386.03 453.616 385.973L455.09 385.877V386.393C455.09 387.159 454.425 387.743 453.527 387.743ZM453.222 388.77C454.014 388.77 454.674 388.419 455.035 387.8H455.129V388.668H456.276V384.446C456.276 383.141 455.423 382.37 453.909 382.37C452.54 382.37 451.564 383.051 451.442 384.111H452.595C452.728 383.674 453.188 383.425 453.854 383.425C454.669 383.425 455.09 383.794 455.09 384.446V384.98L453.455 385.076C452.019 385.167 451.21 385.808 451.21 386.921C451.21 388.05 452.057 388.77 453.222 388.77ZM458.372 390.91C459.603 390.91 460.173 390.427 460.689 388.923L462.94 382.489H461.676L460.168 387.397H460.074L458.56 382.489H457.263L459.448 388.691L459.359 388.991C459.153 389.616 458.832 389.854 458.267 389.854C458.155 389.854 457.973 389.848 457.878 389.832V390.881C457.99 390.898 458.272 390.91 458.372 390.91Z" fill="#999999"/>
<path d="M535.892 389.495L538.595 381.988H537.635L535.481 388.282H535.399L533.244 381.988H532.284L534.988 389.495H535.892ZM539.789 389.495H540.664V383.887H539.789V389.495ZM540.227 382.749C540.562 382.749 540.837 382.468 540.837 382.124C540.837 381.781 540.562 381.5 540.227 381.5C539.892 381.5 539.617 381.781 539.617 382.124C539.617 382.468 539.892 382.749 540.227 382.749ZM544.515 384.579C545.385 384.579 545.964 385.235 545.985 386.228H542.966C543.032 385.235 543.641 384.579 544.515 384.579ZM545.959 388.043C545.73 388.538 545.252 388.803 544.547 388.803C543.617 388.803 543.011 388.1 542.966 386.992V386.951H546.904V386.608C546.904 384.866 546.005 383.789 544.526 383.789C543.021 383.789 542.056 384.932 542.056 386.696C542.056 388.47 543.006 389.593 544.526 389.593C545.726 389.593 546.569 389.006 546.833 388.043H545.959ZM555.167 383.887H554.288L553.211 388.371H553.129L551.905 383.887H551.067L549.841 388.371H549.76L548.683 383.887H547.799L549.333 389.495H550.218L551.437 385.156H551.519L552.743 389.495H553.633L555.167 383.887ZM556.057 385.421C556.057 386.233 556.524 386.686 557.551 386.941L558.491 387.174C559.075 387.321 559.36 387.58 559.36 387.965C559.36 388.481 558.832 388.839 558.095 388.839C557.394 388.839 556.956 388.538 556.809 388.064H555.909C556.006 388.995 556.845 389.593 558.064 389.593C559.309 389.593 560.259 388.902 560.259 387.898C560.259 387.091 559.762 386.634 558.729 386.379L557.886 386.171C557.241 386.009 556.936 385.77 556.936 385.386C556.936 384.886 557.444 384.548 558.095 384.548C558.755 384.548 559.182 384.844 559.299 385.292H560.163C560.046 384.371 559.248 383.789 558.099 383.789C556.936 383.789 556.057 384.491 556.057 385.421Z" fill="#999999"/>
<path d="M566.983 389.672C568.502 389.672 569.544 388.631 569.544 387.107C569.544 385.63 568.569 384.594 567.176 384.594C566.5 384.594 565.982 384.808 565.626 385.235H565.545L565.753 382.826H569.128V381.988H565.037L564.634 386.244H565.494C565.793 385.708 566.342 385.401 567.008 385.401C567.969 385.401 568.629 386.103 568.629 387.133C568.629 388.163 567.973 388.85 566.993 388.85C566.129 388.85 565.499 388.308 565.418 387.497H564.518C564.599 388.792 565.596 389.672 566.983 389.672ZM572.506 386.035H573.437C574.478 386.035 575.123 386.577 575.123 387.445C575.123 388.267 574.438 388.854 573.472 388.854C572.527 388.854 571.867 388.34 571.785 387.538H570.901C570.967 388.823 571.994 389.672 573.483 389.672C574.931 389.672 576.064 388.709 576.064 387.472C576.064 386.446 575.459 385.739 574.463 385.609V385.526C575.266 385.328 575.749 384.673 575.749 383.778C575.749 382.686 574.727 381.812 573.447 381.812C572.049 381.812 571.139 382.613 571.048 383.914H571.938C572.014 383.107 572.568 382.629 573.411 382.629C574.255 382.629 574.819 383.138 574.819 383.903C574.819 384.684 574.229 385.235 573.396 385.235H572.506V386.035ZM580.246 383.664C580.246 382.602 579.601 381.859 578.687 381.859C577.772 381.859 577.121 382.608 577.121 383.664C577.121 384.725 577.772 385.474 578.687 385.474C579.601 385.474 580.246 384.725 580.246 383.664ZM578.687 384.808C578.234 384.808 577.935 384.355 577.935 383.664C577.935 382.972 578.229 382.525 578.687 382.525C579.144 382.525 579.433 382.962 579.433 383.664C579.433 384.35 579.133 384.808 578.687 384.808ZM578.605 389.495L581.12 385.973L583.966 381.988H583.042L580.47 385.583L577.67 389.495H578.605ZM584.49 387.814C584.49 386.753 583.844 386.009 582.929 386.009C582.015 386.009 581.364 386.759 581.364 387.814C581.364 388.876 582.015 389.624 582.929 389.624C583.844 389.624 584.49 388.876 584.49 387.814ZM582.929 388.959C582.477 388.959 582.177 388.506 582.177 387.814C582.177 387.123 582.472 386.676 582.929 386.676C583.387 386.676 583.677 387.112 583.677 387.814C583.677 388.501 583.377 388.959 582.929 388.959Z" fill="#F7DC39"/>
<path d="M346.583 353.359H352.193V320.607H346.539L338.179 326.622V332.137L346.45 326.19H346.583V353.359ZM359.401 330.321V330.389H364.767V330.299C364.767 327.053 367.251 324.647 370.577 324.647C373.748 324.647 376.121 326.803 376.121 329.504C376.121 331.956 375.123 333.635 371.486 337.426L359.711 349.41V353.359H382.197V348.57H367.339V348.456L375.256 340.444C379.447 336.109 381.709 333.158 381.709 329.255C381.709 323.943 377.141 319.949 370.754 319.949C364.124 319.949 359.401 324.284 359.401 330.321ZM398.474 354.017C406.301 354.017 410.958 347.412 410.958 336.926C410.958 326.44 406.258 319.949 398.474 319.949C390.668 319.949 385.945 326.485 385.945 336.949C385.945 347.458 390.623 354.017 398.474 354.017ZM398.474 349.228C394.216 349.228 391.711 344.643 391.711 336.926C391.711 329.345 394.26 324.738 398.474 324.738C402.665 324.738 405.171 329.3 405.171 336.949C405.171 344.666 402.71 349.228 398.474 349.228ZM421.403 353.359V342.827L424.553 339.06L434.953 353.359H441.915L428.632 335.133L440.962 320.607H434.376L421.602 335.927H421.403V320.607H415.682V353.359H421.403Z" fill="#151522"/>
<path d="M344.294 365.606V360.76H346.012V360.147H341.91V360.76H343.629V365.606H344.294ZM347.857 365.677C348.991 365.677 349.693 364.876 349.693 363.567C349.693 362.254 348.991 361.456 347.857 361.456C346.722 361.456 346.02 362.254 346.02 363.567C346.02 364.876 346.722 365.677 347.857 365.677ZM347.857 365.092C347.103 365.092 346.678 364.532 346.678 363.567C346.678 362.599 347.103 362.043 347.857 362.043C348.611 362.043 349.036 362.599 349.036 363.567C349.036 364.532 348.611 365.092 347.857 365.092ZM350.958 360.472V361.528H350.314V362.073H350.958V364.546C350.958 365.326 351.286 365.636 352.107 365.636C352.233 365.636 352.355 365.621 352.48 365.598V365.05C352.362 365.062 352.299 365.065 352.185 365.065C351.771 365.065 351.593 364.861 351.593 364.381V362.073H352.48V361.528H351.593V360.472H350.958ZM354.668 365.107C354.206 365.107 353.862 364.865 353.862 364.449C353.862 364.04 354.129 363.824 354.735 363.782L355.807 363.711V364.085C355.807 364.667 355.322 365.107 354.668 365.107ZM354.55 365.677C355.082 365.677 355.518 365.439 355.777 365.004H355.836V365.606H356.442V362.814C356.442 361.966 355.899 361.456 354.927 361.456C354.077 361.456 353.449 361.887 353.364 362.542H354.007C354.095 362.22 354.428 362.035 354.905 362.035C355.5 362.035 355.807 362.311 355.807 362.814V363.185L354.657 363.256C353.729 363.314 353.205 363.734 353.205 364.464C353.205 365.209 353.778 365.677 354.55 365.677ZM357.654 365.606H358.29V359.909H357.654V365.606ZM364.913 361.528H364.233L363.143 364.887H363.084L361.993 361.528H361.313L362.788 365.606H363.439L364.913 361.528ZM365.778 365.606H366.414V361.528H365.778V365.606ZM366.096 360.7C366.34 360.7 366.539 360.495 366.539 360.246C366.539 359.996 366.34 359.791 366.096 359.791C365.852 359.791 365.652 359.996 365.652 360.246C365.652 360.495 365.852 360.7 366.096 360.7ZM369.215 362.031C369.847 362.031 370.269 362.508 370.283 363.23H368.088C368.136 362.508 368.58 362.031 369.215 362.031ZM370.265 364.55C370.099 364.909 369.751 365.103 369.237 365.103C368.561 365.103 368.121 364.592 368.088 363.786V363.756H370.952V363.506C370.952 362.24 370.298 361.456 369.223 361.456C368.129 361.456 367.426 362.288 367.426 363.571C367.426 364.861 368.118 365.677 369.223 365.677C370.095 365.677 370.708 365.25 370.901 364.55H370.265ZM376.962 361.528H376.323L375.539 364.788H375.48L374.589 361.528H373.979L373.089 364.788H373.029L372.246 361.528H371.603L372.719 365.606H373.362L374.249 362.451H374.308L375.199 365.606H375.846L376.962 361.528ZM377.609 362.644C377.609 363.234 377.949 363.563 378.695 363.748L379.379 363.919C379.804 364.024 380.011 364.214 380.011 364.494C380.011 364.868 379.627 365.129 379.091 365.129C378.581 365.129 378.263 364.909 378.156 364.566H377.502C377.572 365.243 378.182 365.677 379.069 365.677C379.974 365.677 380.665 365.175 380.665 364.445C380.665 363.859 380.303 363.526 379.553 363.34L378.939 363.189C378.47 363.071 378.248 362.897 378.248 362.617C378.248 362.254 378.618 362.008 379.091 362.008C379.571 362.008 379.882 362.224 379.967 362.549H380.595C380.51 361.88 379.93 361.456 379.095 361.456C378.248 361.456 377.609 361.966 377.609 362.644Z" fill="#999999"/>
<path fill-rule="evenodd" clip-rule="evenodd" d="M581.681 363.849V317.755C581.681 315.925 583.13 314.442 584.917 314.442C586.705 314.442 588.154 315.925 588.154 317.755V363.849H581.681Z" fill="#D99913"/>
<path fill-rule="evenodd" clip-rule="evenodd" d="M571.274 363.849V333.405C571.274 331.576 572.722 330.093 574.509 330.093C576.298 330.093 577.746 331.576 577.746 333.405V363.849H571.274Z" fill="#F7DC39"/>
<path fill-rule="evenodd" clip-rule="evenodd" d="M559.387 363.849V324.199C559.387 322.37 560.837 320.887 562.624 320.887C564.411 320.887 565.86 322.37 565.86 324.199V363.849H559.387Z" fill="#D99913"/>
<path fill-rule="evenodd" clip-rule="evenodd" d="M548.979 363.849V342.612C548.979 340.782 550.429 339.299 552.216 339.299C554.003 339.299 555.452 340.782 555.452 342.612V363.849H548.979Z" fill="#F7DC39"/>
<path fill-rule="evenodd" clip-rule="evenodd" d="M537.094 363.849V330.337C537.094 328.507 538.542 327.024 540.33 327.024C542.117 327.024 543.566 328.507 543.566 330.337V363.849H537.094Z" fill="#D99913"/>
<path fill-rule="evenodd" clip-rule="evenodd" d="M526.686 363.849V339.543C526.686 337.713 528.135 336.23 529.922 336.23C531.709 336.23 533.158 337.713 533.158 339.543V363.849H526.686Z" fill="#F7DC39"/>
<path fill-rule="evenodd" clip-rule="evenodd" d="M514.8 363.849V321.13C514.8 319.301 516.248 317.818 518.035 317.818C519.823 317.818 521.272 319.301 521.272 321.13V363.849H514.8Z" fill="#D99913"/>
<path fill-rule="evenodd" clip-rule="evenodd" d="M504.392 363.849V327.268C504.392 325.439 505.84 323.956 507.628 323.956C509.415 323.956 510.865 325.439 510.865 327.268V363.849H504.392Z" fill="#F7DC39"/>
<path fill-rule="evenodd" clip-rule="evenodd" d="M603.9 363.849V317.832C603.9 315.96 605.382 314.442 607.211 314.442C609.04 314.442 610.523 315.96 610.523 317.832V363.849H603.9Z" fill="#D99913"/>
<path fill-rule="evenodd" clip-rule="evenodd" d="M593.492 363.849V342.689C593.492 340.817 594.975 339.299 596.804 339.299C598.632 339.299 600.115 340.817 600.115 342.689V363.849H593.492Z" fill="#F7DC39"/>
<path fill-rule="evenodd" clip-rule="evenodd" d="M492.505 363.849V327.268C492.505 325.439 493.954 323.956 495.742 323.956C497.529 323.956 498.978 325.439 498.978 327.268V363.849H492.505Z" fill="#D99913"/>
<path fill-rule="evenodd" clip-rule="evenodd" d="M482.098 363.849V342.612C482.098 340.782 483.546 339.299 485.334 339.299C487.122 339.299 488.57 340.782 488.57 342.612V363.849H482.098Z" fill="#F7DC39"/>
<path d="M605.792 389.01L600.115 383.2L594.438 389.01" stroke="#F7DC39" stroke-width="2" stroke-linecap="round" stroke-linejoin="round"/>
</g>
<g filter="url(#filter4_dd)">
<path d="M426.867 8H138.133C132.905 8 128.667 12.3252 128.667 17.6606V297.817C128.667 303.152 134.772 307.478 140 307.478H426.867C432.095 307.478 436.333 303.152 436.333 297.817V17.6606C436.333 12.3252 432.095 8 426.867 8Z" fill="white"/>
<path d="M271.711 168.402H268.273V161.984H267.135V169.471H271.711V168.402ZM277.904 169.471H279.114L276.465 161.984H275.239L272.59 169.471H273.759L274.435 167.483H277.233L277.904 169.471ZM275.794 163.343H275.88L276.942 166.508H274.726L275.794 163.343ZM283.41 169.471C284.976 169.471 285.916 168.667 285.916 167.348C285.916 166.373 285.256 165.652 284.265 165.548V165.46C284.986 165.335 285.551 164.635 285.551 163.851C285.551 162.699 284.722 161.984 283.344 161.984H280.395V169.471H283.41ZM281.533 162.969H283.079C283.924 162.969 284.417 163.374 284.417 164.064C284.417 164.775 283.893 165.153 282.886 165.153H281.533V162.969ZM281.533 168.485V166.072H283.115C284.188 166.072 284.752 166.482 284.752 167.265C284.752 168.059 284.209 168.485 283.182 168.485H281.533ZM292.039 168.412H288.52V166.166H291.85V165.159H288.52V163.041H292.039V161.984H287.381V169.471H292.039V168.412ZM298.262 168.402H294.826V161.984H293.686V169.471H298.262V168.402Z" fill="#696974"/>
<path d="M267.578 154.98L271.499 143.408H269.337L266.509 152.567H266.375L263.523 143.408H261.283L265.243 154.98H267.578ZM275.279 153.561C274.413 153.561 273.793 153.119 273.793 152.382C273.793 151.668 274.304 151.267 275.396 151.195L277.337 151.066V151.765C277.337 152.783 276.457 153.561 275.279 153.561ZM274.705 155.125C275.829 155.125 276.772 154.627 277.251 153.777H277.384V154.98H279.262V148.989C279.262 147.13 278.021 146.03 275.813 146.03C273.77 146.03 272.347 147.017 272.19 148.565H274.029C274.21 147.971 274.822 147.65 275.718 147.65C276.772 147.65 277.337 148.131 277.337 148.989V149.727L275.122 149.864C273.031 149.992 271.86 150.906 271.86 152.494C271.86 154.098 273.046 155.125 274.705 155.125ZM281.69 154.98H283.64V142.815H281.69V154.98ZM293.587 146.207H291.639V151.315C291.639 152.614 290.947 153.408 289.682 153.408C288.519 153.408 287.977 152.751 287.977 151.411V146.207H286.028V151.909C286.028 153.962 287.128 155.157 289.006 155.157C290.318 155.157 291.159 154.587 291.576 153.585H291.71V154.98H293.587V146.207ZM299.583 147.611C300.754 147.611 301.524 148.444 301.564 149.744H297.517C297.603 148.461 298.42 147.611 299.583 147.611ZM301.579 152.567C301.296 153.216 300.629 153.577 299.662 153.577C298.381 153.577 297.556 152.662 297.508 151.202V151.099H303.512V150.458C303.512 147.691 302.043 146.03 299.591 146.03C297.1 146.03 295.553 147.803 295.553 150.626C295.553 153.449 297.077 155.157 299.607 155.157C301.634 155.157 303.057 154.162 303.426 152.567H301.579Z" fill="#171725"/>
<path opacity="0.7" d="M261.657 106.906C261.051 105.004 262.07 102.95 263.962 102.428C273.608 99.7657 283.711 99.2073 293.607 100.807C304.674 102.595 315.168 107.031 324.233 113.752C333.297 120.473 340.675 129.287 345.761 139.475C350.311 148.585 352.912 158.563 353.411 168.748C353.509 170.746 351.91 172.369 349.95 172.369C347.989 172.369 346.41 170.746 346.301 168.748C345.808 159.708 343.476 150.856 339.435 142.765C334.857 133.596 328.217 125.663 320.059 119.614C311.902 113.565 302.456 109.573 292.496 107.963C283.707 106.543 274.736 107.013 266.159 109.329C264.263 109.84 262.263 108.809 261.657 106.906Z" fill="#E4E4E4"/>
<path d="M215.143 168.766C213.184 168.662 211.671 166.956 211.872 164.965C213.277 151 218.633 137.723 227.323 126.772C236.758 114.881 249.641 106.344 264.124 102.384C278.606 98.4229 293.946 99.2441 307.944 104.727C320.835 109.777 331.978 118.542 340.038 129.919C341.187 131.541 340.712 133.791 339.068 134.881C337.424 135.971 335.233 135.487 334.075 133.871C326.839 123.774 316.89 115.993 305.4 111.492C292.802 106.556 278.996 105.818 265.962 109.382C252.927 112.947 241.332 120.63 232.841 131.332C225.094 141.093 220.292 152.909 218.972 165.346C218.761 167.335 217.1 168.872 215.143 168.766Z" fill="#D99913"/>
<path d="M203.508 247.625H199.758V240.623H198.516V248.791H203.508V247.625ZM207.147 243.543C208.029 243.543 208.606 244.171 208.633 245.139H205.583C205.65 244.177 206.265 243.543 207.147 243.543ZM208.628 247.126C208.406 247.607 207.913 247.873 207.192 247.873C206.237 247.873 205.622 247.188 205.583 246.107V246.039H209.848V245.615C209.848 243.679 208.833 242.507 207.153 242.507C205.45 242.507 204.368 243.758 204.368 245.728C204.368 247.698 205.428 248.909 207.159 248.909C208.54 248.909 209.504 248.23 209.776 247.126H208.628ZM213.809 247.647C212.783 247.647 212.206 246.86 212.206 245.632C212.206 244.404 212.783 243.616 213.809 243.616C214.824 243.616 215.446 244.404 215.446 245.632C215.446 246.865 214.829 247.647 213.809 247.647ZM213.826 251.145C215.534 251.145 216.616 250.25 216.616 248.841V242.626H215.473V243.611H215.378C215.04 242.943 214.313 242.524 213.481 242.524C211.939 242.524 210.975 243.758 210.975 245.637C210.975 247.483 211.929 248.7 213.471 248.7C214.303 248.7 214.969 248.332 215.334 247.664H215.423V248.847C215.423 249.662 214.835 250.143 213.842 250.143C213.038 250.143 212.533 249.854 212.433 249.407H211.213C211.341 250.454 212.317 251.145 213.826 251.145ZM220.826 243.543C221.708 243.543 222.284 244.171 222.312 245.139H219.262C219.328 244.177 219.943 243.543 220.826 243.543ZM222.307 247.126C222.085 247.607 221.591 247.873 220.87 247.873C219.916 247.873 219.3 247.188 219.262 246.107V246.039H223.527V245.615C223.527 243.679 222.512 242.507 220.831 242.507C219.128 242.507 218.047 243.758 218.047 245.728C218.047 247.698 219.106 248.909 220.837 248.909C222.218 248.909 223.183 248.23 223.454 247.126H222.307ZM224.958 248.791H226.151V245.184C226.151 244.222 226.711 243.622 227.593 243.622C228.475 243.622 228.897 244.115 228.897 245.105V248.791H230.089V244.8C230.089 243.333 229.346 242.507 227.998 242.507C227.088 242.507 226.489 242.92 226.195 243.605H226.106V242.626H224.958V248.791ZM233.978 248.892C234.81 248.892 235.514 248.49 235.875 247.817H235.968V248.791H237.111V240.221H235.918V243.605H235.83C235.503 242.926 234.804 242.524 233.978 242.524C232.452 242.524 231.47 243.758 231.47 245.705C231.47 247.658 232.441 248.892 233.978 248.892ZM234.316 243.616C235.314 243.616 235.941 244.426 235.941 245.711C235.941 247.001 235.32 247.799 234.316 247.799C233.306 247.799 232.702 247.013 232.702 245.705C232.702 244.409 233.312 243.616 234.316 243.616ZM243.928 248.791H245.171V240.623H243.934L241.826 242.139V243.436L243.834 241.987H243.928V248.791Z" fill="#151522"/>
<path d="M212.086 223.253H215.387V221.504H212.086V218.153H210.389V221.504H207.081V223.253H210.389V226.613H212.086V223.253ZM224.753 221.922H226.176C227.574 221.922 228.431 222.619 228.431 223.75C228.431 224.841 227.519 225.602 226.223 225.602C224.918 225.602 224.022 224.921 223.936 223.846H221.995C222.097 225.964 223.763 227.342 226.207 227.342C228.674 227.342 230.498 225.867 230.498 223.879C230.498 222.339 229.539 221.264 227.991 221.08V220.943C229.248 220.671 230.041 219.636 230.041 218.282C230.041 216.509 228.4 215.194 226.199 215.194C223.842 215.194 222.318 216.517 222.215 218.642H224.109C224.187 217.551 224.965 216.878 226.136 216.878C227.323 216.878 228.086 217.544 228.086 218.569C228.086 219.604 227.291 220.318 226.136 220.318H224.753V221.922ZM233.35 230.118L234.709 225.274H232.737L232.007 230.118H233.35ZM242.308 227.054H244.249V224.897H245.782V223.149H244.249V215.483H241.389C239.385 218.562 237.79 221.136 236.768 223.053V224.897H242.308V227.054ZM238.647 223.076C239.966 220.703 241.145 218.802 242.23 217.167H242.34V223.197H238.647V223.076ZM251.84 227.335C254.724 227.335 256.437 225.033 256.437 221.136C256.437 219.669 256.162 218.433 255.635 217.479C254.873 215.996 253.561 215.194 251.903 215.194C249.436 215.194 247.691 216.886 247.691 219.259C247.691 221.489 249.263 223.109 251.424 223.109C252.752 223.109 253.828 222.475 254.362 221.377H254.386C254.386 221.377 254.418 221.377 254.426 221.377C254.441 221.377 254.497 221.377 254.497 221.377C254.497 224.023 253.514 225.602 251.855 225.602C250.881 225.602 250.127 225.058 249.867 224.183H247.848C248.186 226.083 249.765 227.335 251.84 227.335ZM251.911 221.465C250.607 221.465 249.679 220.518 249.679 219.195C249.679 217.904 250.653 216.918 251.919 216.918C253.184 216.918 254.159 217.92 254.159 219.227C254.159 220.518 253.207 221.465 251.911 221.465ZM263.116 218.121C263.116 216.405 262.079 215.242 260.554 215.242C259.03 215.242 257.978 216.412 257.978 218.121C257.978 219.829 259.03 221.008 260.554 221.008C262.079 221.008 263.116 219.829 263.116 218.121ZM260.554 219.652C259.942 219.652 259.557 219.051 259.557 218.113C259.557 217.175 259.942 216.589 260.554 216.589C261.168 216.589 261.545 217.158 261.545 218.113C261.545 219.051 261.152 219.652 260.554 219.652ZM261.018 227.054L264.555 221.609L268.924 215.483H266.998L263.384 221.008L259.085 227.054H261.018ZM269.977 224.407C269.977 222.699 268.939 221.529 267.415 221.529C265.891 221.529 264.846 222.699 264.846 224.407C264.846 226.124 265.891 227.295 267.415 227.295C268.939 227.295 269.977 226.124 269.977 224.407ZM267.415 225.94C266.802 225.94 266.417 225.346 266.417 224.407C266.417 223.469 266.802 222.876 267.415 222.876C268.027 222.876 268.405 223.454 268.405 224.407C268.405 225.346 268.012 225.94 267.415 225.94Z" fill="#D99913"/>
<path d="M190.36 216.428V226.088M180.894 226.088L190.36 216.428L180.894 226.088ZM190.36 216.428H180.894H190.36Z" stroke="#D99913" stroke-linecap="round" stroke-linejoin="round"/>
<path d="M326.596 247.625H322.846V240.623H321.604V248.791H326.596V247.625ZM330.235 243.543C331.116 243.543 331.693 244.171 331.721 245.139H328.67C328.737 244.177 329.352 243.543 330.235 243.543ZM331.715 247.126C331.494 247.607 331 247.873 330.279 247.873C329.325 247.873 328.709 247.188 328.67 246.107V246.039H332.935V245.615C332.935 243.679 331.921 242.507 330.24 242.507C328.537 242.507 327.455 243.758 327.455 245.728C327.455 247.698 328.515 248.909 330.245 248.909C331.626 248.909 332.592 248.23 332.864 247.126H331.715ZM336.896 247.647C335.87 247.647 335.294 246.86 335.294 245.632C335.294 244.404 335.87 243.616 336.896 243.616C337.911 243.616 338.532 244.404 338.532 245.632C338.532 246.865 337.917 247.647 336.896 247.647ZM336.912 251.145C338.621 251.145 339.703 250.25 339.703 248.841V242.626H338.561V243.611H338.466C338.128 242.943 337.401 242.524 336.569 242.524C335.027 242.524 334.062 243.758 334.062 245.637C334.062 247.483 335.016 248.7 336.557 248.7C337.39 248.7 338.055 248.332 338.421 247.664H338.51V248.847C338.51 249.662 337.923 250.143 336.929 250.143C336.125 250.143 335.62 249.854 335.521 249.407H334.301C334.427 250.454 335.404 251.145 336.912 251.145ZM343.913 243.543C344.795 243.543 345.372 244.171 345.399 245.139H342.349C342.415 244.177 343.031 243.543 343.913 243.543ZM345.394 247.126C345.172 247.607 344.679 247.873 343.958 247.873C343.003 247.873 342.388 247.188 342.349 246.107V246.039H346.615V245.615C346.615 243.679 345.599 242.507 343.919 242.507C342.216 242.507 341.134 243.758 341.134 245.728C341.134 247.698 342.194 248.909 343.924 248.909C345.306 248.909 346.27 248.23 346.542 247.126H345.394ZM348.045 248.791H349.238V245.184C349.238 244.222 349.798 243.622 350.68 243.622C351.562 243.622 351.983 244.115 351.983 245.105V248.791H353.176V244.8C353.176 243.333 352.433 242.507 351.085 242.507C350.175 242.507 349.576 242.92 349.283 243.605H349.194V242.626H348.045V248.791ZM357.065 248.892C357.896 248.892 358.602 248.49 358.961 247.817H359.056V248.791H360.199V240.221H359.006V243.605H358.918C358.59 242.926 357.892 242.524 357.065 242.524C355.539 242.524 354.557 243.758 354.557 245.705C354.557 247.658 355.529 248.892 357.065 248.892ZM357.403 243.616C358.402 243.616 359.028 244.426 359.028 245.711C359.028 247.001 358.407 247.799 357.403 247.799C356.394 247.799 355.789 247.013 355.789 245.705C355.789 244.409 356.399 243.616 357.403 243.616ZM365.03 242.983V242.999H366.206V242.983C366.206 242.111 366.8 241.522 367.681 241.522C368.507 241.522 369.135 242.082 369.135 242.83C369.135 243.43 368.874 243.86 367.803 244.998L365.097 247.873V248.791H370.488V247.653H366.827V247.556L368.608 245.717C369.95 244.329 370.36 243.622 370.36 242.757C370.36 241.409 369.24 240.424 367.72 240.424C366.145 240.424 365.03 241.477 365.03 242.983Z" fill="#151522"/>
<path d="M307.828 223.325V221.457H302.665V223.325H307.828ZM318.758 227.342C321.47 227.342 323.081 225.097 323.081 221.273C323.081 217.431 321.446 215.194 318.758 215.194C316.063 215.194 314.429 217.431 314.429 221.256C314.429 225.097 316.039 227.342 318.758 227.342ZM318.758 225.627C317.32 225.627 316.48 224.103 316.48 221.256C316.48 218.433 317.336 216.918 318.758 216.918C320.181 216.918 321.029 218.426 321.029 221.256C321.029 224.103 320.196 225.627 318.758 225.627ZM325.807 230.118L327.167 225.274H325.195L324.464 230.118H325.807ZM331.85 227.054H333.877V215.483H331.858L328.895 217.6V219.589L331.716 217.568H331.85V227.054ZM339.7 221.922H341.122C342.521 221.922 343.378 222.619 343.378 223.75C343.378 224.841 342.467 225.602 341.17 225.602C339.865 225.602 338.97 224.921 338.883 223.846H336.942C337.044 225.964 338.71 227.342 341.154 227.342C343.622 227.342 345.445 225.867 345.445 223.879C345.445 222.339 344.486 221.264 342.938 221.08V220.943C344.195 220.671 344.988 219.636 344.988 218.282C344.988 216.509 343.346 215.194 341.146 215.194C338.789 215.194 337.265 216.517 337.162 218.642H339.056C339.134 217.551 339.912 216.878 341.083 216.878C342.27 216.878 343.032 217.544 343.032 218.569C343.032 219.604 342.238 220.318 341.083 220.318H339.7V221.922ZM352.132 218.121C352.132 216.405 351.094 215.242 349.57 215.242C348.045 215.242 346.993 216.412 346.993 218.121C346.993 219.829 348.045 221.008 349.57 221.008C351.094 221.008 352.132 219.829 352.132 218.121ZM349.57 219.652C348.957 219.652 348.572 219.051 348.572 218.113C348.572 217.175 348.957 216.589 349.57 216.589C350.183 216.589 350.561 217.158 350.561 218.113C350.561 219.051 350.168 219.652 349.57 219.652ZM350.033 227.054L353.57 221.609L357.939 215.483H356.013L352.399 221.008L348.1 227.054H350.033ZM358.992 224.407C358.992 222.699 357.955 221.529 356.43 221.529C354.906 221.529 353.861 222.699 353.861 224.407C353.861 226.124 354.906 227.295 356.43 227.295C357.955 227.295 358.992 226.124 358.992 224.407ZM356.43 225.94C355.817 225.94 355.432 225.346 355.432 224.407C355.432 223.469 355.817 222.876 356.43 222.876C357.043 222.876 357.42 223.454 357.42 224.407C357.42 225.346 357.027 225.94 356.43 225.94Z" fill="#E4E4E4"/>
<path d="M374.64 226.088V216.428M384.107 216.428L374.64 226.088L384.107 216.428ZM374.64 226.088H384.107H374.64Z" stroke="#E4E4E4" stroke-linecap="round" stroke-linejoin="round"/>
</g>
<g filter="url(#filter5_dd)">
<path d="M666.667 218.894C666.667 224.272 662.429 228.632 657.2 228.632L368.467 228.632C363.238 228.632 359 224.272 359 218.894V160.468C359 155.09 363.238 150.73 368.467 150.73L657.2 150.73C662.429 150.73 666.667 155.09 666.667 160.468V218.894Z" fill="white"/>
<path opacity="0.7" d="M541.158 189.681C541.158 205.772 528.476 218.817 512.833 218.817C497.19 218.817 484.508 205.772 484.508 189.681C484.508 173.59 497.19 160.545 512.833 160.545C528.476 160.545 541.158 173.59 541.158 189.681ZM490.174 189.681C490.174 202.554 500.318 212.989 512.833 212.989C525.347 212.989 535.493 202.554 535.493 189.681C535.493 176.808 525.347 166.373 512.833 166.373C500.318 166.373 490.174 176.808 490.174 189.681Z" fill="#E4E4E4"/>
<path d="M512.833 163.459C512.833 161.85 514.105 160.53 515.661 160.691C521.533 161.297 527.103 163.779 531.564 167.826C536.739 172.518 540.07 178.99 540.934 186.029C541.799 193.068 540.137 200.19 536.26 206.058C532.916 211.119 528.123 214.948 522.581 217.037C521.112 217.591 519.562 216.638 519.173 215.079C518.784 213.521 519.706 211.95 521.161 211.358C525.37 209.648 529.006 206.669 531.575 202.782C534.676 198.088 536.006 192.391 535.314 186.76C534.623 181.129 531.957 175.951 527.818 172.197C524.391 169.089 520.148 167.135 515.658 166.554C514.107 166.354 512.833 165.068 512.833 163.459Z" fill="#F7DC39"/>
<path d="M505.888 193.964H507.189V192.506H508.218V191.324H507.189V186.141H505.271C503.927 188.223 502.858 189.963 502.172 191.259V192.506H505.888V193.964ZM503.432 191.275C504.317 189.67 505.108 188.385 505.836 187.28H505.91V191.356H503.432V191.275ZM512.534 194.154C514.189 194.154 515.359 193.015 515.359 191.405C515.359 189.904 514.3 188.803 512.856 188.803C511.96 188.803 511.243 189.231 510.884 189.974H510.795C510.795 188.185 511.454 187.117 512.566 187.117C513.22 187.117 513.725 187.485 513.894 188.076H515.254C515.027 186.792 513.963 185.946 512.576 185.946C510.637 185.946 509.494 187.507 509.494 190.137C509.494 191.134 509.677 191.969 510.03 192.609C510.537 193.612 511.417 194.154 512.534 194.154ZM512.518 192.988C511.67 192.988 511.022 192.316 511.022 191.427C511.022 190.554 511.66 189.914 512.529 189.914C513.399 189.914 514.026 190.554 514.026 191.449C514.026 192.322 513.372 192.988 512.518 192.988ZM519.844 187.925C519.844 186.765 519.149 185.978 518.126 185.978C517.104 185.978 516.398 186.77 516.398 187.925C516.398 189.079 517.104 189.876 518.126 189.876C519.149 189.876 519.844 189.079 519.844 187.925ZM518.126 188.96C517.715 188.96 517.457 188.554 517.457 187.919C517.457 187.285 517.715 186.889 518.126 186.889C518.537 186.889 518.791 187.274 518.791 187.919C518.791 188.554 518.527 188.96 518.126 188.96ZM518.438 193.964L520.809 190.283L523.739 186.141H522.448L520.023 189.876L517.141 193.964H518.438ZM524.446 192.175C524.446 191.02 523.75 190.229 522.728 190.229C521.705 190.229 521.004 191.02 521.004 192.175C521.004 193.335 521.705 194.127 522.728 194.127C523.75 194.127 524.446 193.335 524.446 192.175ZM522.728 193.211C522.316 193.211 522.058 192.809 522.058 192.175C522.058 191.541 522.316 191.14 522.728 191.14C523.139 191.14 523.392 191.53 523.392 192.175C523.392 192.809 523.128 193.211 522.728 193.211Z" fill="#151522"/>
<path d="M383.418 174.278C380.589 174.278 378.821 176.353 378.821 179.663C378.821 182.958 380.547 185.055 383.418 185.055C386.274 185.055 387.994 182.951 387.994 179.663C387.994 176.361 386.261 174.278 383.418 174.278ZM383.418 175.462C385.463 175.462 386.711 177.088 386.711 179.663C386.711 182.216 385.47 183.871 383.418 183.871C381.338 183.871 380.104 182.216 380.104 179.663C380.104 177.088 381.379 175.462 383.418 175.462ZM390.012 184.812H391.204V180.262C391.204 178.914 391.974 178.094 393.166 178.094C394.359 178.094 394.927 178.75 394.927 180.133V184.812H396.12V179.834C396.12 178.008 395.184 176.988 393.506 176.988C392.362 176.988 391.634 177.487 391.26 178.336H391.149V177.124H390.012V184.812ZM398.374 184.812H399.566V174.071H398.374V184.812ZM401.91 184.812H403.102V177.124H401.91V184.812ZM402.506 175.562C402.964 175.562 403.338 175.177 403.338 174.706C403.338 174.235 402.964 173.85 402.506 173.85C402.048 173.85 401.674 174.235 401.674 174.706C401.674 175.177 402.048 175.562 402.506 175.562ZM405.376 184.812H406.569V180.262C406.569 178.914 407.339 178.094 408.531 178.094C409.724 178.094 410.292 178.75 410.292 180.133V184.812H411.485V179.834C411.485 178.008 410.549 176.988 408.871 176.988C407.727 176.988 406.999 177.487 406.624 178.336H406.514V177.124H405.376V184.812ZM416.65 178.072C417.836 178.072 418.627 178.971 418.654 180.333H414.536C414.626 178.971 415.458 178.072 416.65 178.072ZM418.62 182.822C418.308 183.5 417.656 183.864 416.692 183.864C415.423 183.864 414.598 182.901 414.536 181.382V181.325H419.909V180.854C419.909 178.465 418.682 176.988 416.664 176.988C414.612 176.988 413.295 178.557 413.295 180.975C413.295 183.407 414.591 184.948 416.664 184.948C418.301 184.948 419.452 184.142 419.812 182.822H418.62ZM383.334 204.288L387.023 193.996H385.713L382.773 202.626H382.662L379.722 193.996H378.412L382.1 204.288H383.334ZM388.653 204.288H389.845V196.599H388.653V204.288ZM389.249 195.037C389.707 195.037 390.081 194.652 390.081 194.181C390.081 193.711 389.707 193.326 389.249 193.326C388.791 193.326 388.417 193.711 388.417 194.181C388.417 194.652 388.791 195.037 389.249 195.037ZM391.946 198.703C391.946 199.816 392.584 200.436 393.984 200.786L395.267 201.107C396.065 201.306 396.453 201.663 396.453 202.191C396.453 202.897 395.732 203.389 394.726 203.389C393.77 203.389 393.173 202.975 392.972 202.326H391.745C391.877 203.603 393.021 204.423 394.685 204.423C396.384 204.423 397.68 203.475 397.68 202.098C397.68 200.993 397.001 200.365 395.593 200.015L394.442 199.73C393.562 199.509 393.146 199.181 393.146 198.653C393.146 197.969 393.839 197.505 394.726 197.505C395.628 197.505 396.21 197.912 396.37 198.525H397.548C397.389 197.262 396.3 196.464 394.733 196.464C393.146 196.464 391.946 197.426 391.946 198.703ZM399.58 204.288H400.773V196.599H399.58V204.288ZM400.176 195.037C400.634 195.037 401.008 194.652 401.008 194.181C401.008 193.711 400.634 193.326 400.176 193.326C399.719 193.326 399.344 193.711 399.344 194.181C399.344 194.652 399.719 195.037 400.176 195.037ZM403.546 194.609V196.599H402.339V197.626H403.546V202.291C403.546 203.76 404.163 204.345 405.702 204.345C405.938 204.345 406.167 204.316 406.403 204.273V203.239C406.181 203.261 406.063 203.268 405.848 203.268C405.071 203.268 404.739 202.883 404.739 201.977V197.626H406.403V196.599H404.739V194.609H403.546ZM411.166 204.423C413.295 204.423 414.612 202.911 414.612 200.443C414.612 197.969 413.295 196.464 411.166 196.464C409.037 196.464 407.72 197.969 407.72 200.443C407.72 202.911 409.037 204.423 411.166 204.423ZM411.166 203.318C409.752 203.318 408.954 202.262 408.954 200.443C408.954 198.618 409.752 197.569 411.166 197.569C412.58 197.569 413.378 198.618 413.378 200.443C413.378 202.262 412.58 203.318 411.166 203.318ZM416.484 204.288H417.677V199.523C417.677 198.439 418.502 197.655 419.639 197.655C419.875 197.655 420.305 197.698 420.402 197.726V196.499C420.249 196.478 419.999 196.464 419.805 196.464C418.814 196.464 417.954 196.991 417.732 197.74H417.621V196.599H416.484V204.288ZM421.58 198.703C421.58 199.816 422.218 200.436 423.619 200.786L424.901 201.107C425.699 201.306 426.087 201.663 426.087 202.191C426.087 202.897 425.366 203.389 424.361 203.389C423.404 203.389 422.807 202.975 422.606 202.326H421.379C421.511 203.603 422.655 204.423 424.319 204.423C426.018 204.423 427.314 203.475 427.314 202.098C427.314 200.993 426.635 200.365 425.227 200.015L424.076 199.73C423.196 199.509 422.78 199.181 422.78 198.653C422.78 197.969 423.473 197.505 424.361 197.505C425.262 197.505 425.844 197.912 426.004 198.525H427.183C427.023 197.262 425.935 196.464 424.368 196.464C422.78 196.464 421.58 197.426 421.58 198.703Z" fill="#151522"/>
<path d="M616.567 175.561V170.072H615.795L613.968 174.614H613.908L612.082 170.072H611.309V175.561H611.931V171.369H611.974L613.657 175.523H614.22L615.902 171.369H615.946V175.561H616.567ZM619.074 175.059C618.612 175.059 618.268 174.816 618.268 174.397C618.268 173.986 618.534 173.77 619.141 173.728L620.214 173.656V174.032C620.214 174.618 619.729 175.059 619.074 175.059ZM618.956 175.634C619.489 175.634 619.925 175.394 620.184 174.956H620.243V175.561H620.849V172.754C620.849 171.902 620.306 171.389 619.333 171.389C618.482 171.389 617.854 171.822 617.77 172.48H618.412C618.501 172.157 618.835 171.97 619.311 171.97C619.906 171.97 620.214 172.248 620.214 172.754V173.127L619.064 173.199C618.135 173.256 617.611 173.678 617.611 174.413C617.611 175.162 618.183 175.634 618.956 175.634ZM623.438 174.013L624.381 175.561H625.136L623.764 173.484L625.117 171.461H624.396L623.46 172.986H623.401L622.455 171.461H621.696L623.076 173.511L621.711 175.561H622.432L623.379 174.013H623.438ZM629.898 175.691C631.004 175.691 631.762 174.93 631.762 173.815C631.762 172.735 631.052 171.978 630.038 171.978C629.547 171.978 629.17 172.134 628.911 172.446H628.852L629.004 170.685H631.458V170.072H628.482L628.19 173.184H628.815C629.033 172.792 629.432 172.568 629.917 172.568C630.616 172.568 631.097 173.081 631.097 173.834C631.097 174.587 630.62 175.09 629.906 175.09C629.277 175.09 628.818 174.694 628.759 174.101H628.105C628.164 175.048 628.889 175.691 629.898 175.691ZM634.102 175.561H634.769V170.072H634.106L632.686 171.122V171.845L634.044 170.833H634.102V175.561ZM636.329 171.617V171.621H636.973V171.617C636.973 170.97 637.394 170.54 638.019 170.54C638.607 170.54 639.062 170.963 639.062 171.51C639.062 171.952 638.895 172.248 638.207 173.017L636.362 175.09V175.561H639.816V174.945H637.316V174.884L638.599 173.465C639.476 172.499 639.727 172.054 639.727 171.484C639.727 170.613 638.995 169.943 638.038 169.943C637.046 169.943 636.329 170.643 636.329 171.617Z" fill="#151522"/>
<path d="M608.984 197.188H611.289C613.605 197.188 615.029 198.373 615.029 200.316C615.029 202.087 613.514 203.325 611.366 203.325C609.14 203.325 607.742 202.154 607.587 200.396H604.403C604.571 203.818 607.238 206.134 611.341 206.134C615.417 206.134 618.42 203.845 618.42 200.45C618.42 197.774 616.608 196.016 613.812 195.803V195.723C616.116 195.311 617.669 193.593 617.669 191.21C617.669 188.215 615.054 186.151 611.38 186.151C607.522 186.151 604.947 188.388 604.765 191.836H607.871C608.001 190.039 609.295 188.88 611.223 188.88C613.32 188.88 614.459 189.999 614.459 191.676C614.459 193.393 613.153 194.605 611.237 194.605H608.984V197.188ZM625.745 205.748H629.02V186.537H625.72L620.841 190.065V193.3L625.668 189.812H625.745V205.748ZM633.227 192.235V192.275H636.358V192.222C636.358 190.318 637.809 188.907 639.749 188.907C641.6 188.907 642.985 190.172 642.985 191.756C642.985 193.194 642.403 194.179 640.28 196.402L633.407 203.432V205.748H646.531V202.939H637.86V202.873L642.48 198.173C644.927 195.63 646.247 193.899 646.247 191.61C646.247 188.494 643.58 186.151 639.853 186.151C635.983 186.151 633.227 188.694 633.227 192.235Z" fill="#F7DC39"/>
</g>
<g filter="url(#filter6_dd)">
<path fill-rule="evenodd" clip-rule="evenodd" d="M411.099 19.8818H610.2C615.429 19.8818 619.667 24.2203 619.667 29.572V87.7132C619.667 93.065 615.429 97.4031 610.2 97.4031H411.099C402.631 104.54 391.783 108.826 379.959 108.826C368.133 108.826 357.286 104.54 348.818 97.4031H321.467C316.238 97.4031 312 93.065 312 87.7132V29.572C312 24.2203 316.238 19.8818 321.467 19.8818H348.818C357.286 12.7453 368.133 8.45975 379.959 8.45975C391.783 8.45975 402.631 12.7453 411.099 19.8818Z" fill="white"/>
<path opacity="0.7" d="M417.22 58.6426C417.22 79.7077 400.538 96.7842 379.959 96.7842C359.38 96.7842 342.697 79.7077 342.697 58.6426C342.697 37.5777 359.38 20.501 379.959 20.501C400.538 20.501 417.22 37.5777 417.22 58.6426ZM350.149 58.6426C350.149 75.4946 363.495 89.1559 379.959 89.1559C396.422 89.1559 409.768 75.4946 409.768 58.6426C409.768 41.7907 396.422 28.1293 379.959 28.1293C363.495 28.1293 350.149 41.7907 350.149 58.6426Z" fill="#E4E4E4"/>
<path d="M379.958 24.3152C379.958 22.2087 381.631 20.4812 383.679 20.6915C391.405 21.4848 398.73 24.7345 404.6 30.0322C411.407 36.1744 415.789 44.6476 416.927 53.8622C418.064 63.0769 415.877 72.3996 410.777 80.0814C406.378 86.7072 400.072 91.7194 392.782 94.4544C390.85 95.1794 388.811 93.9319 388.299 91.8917C387.786 89.8513 389 87.7947 390.914 87.0206C396.451 84.781 401.235 80.8821 404.613 75.7936C408.694 69.6482 410.443 62.19 409.533 54.8183C408.623 47.4466 405.117 40.6681 399.672 35.7543C395.164 31.6857 389.582 29.1271 383.675 28.3674C381.633 28.1048 379.958 26.4217 379.958 24.3152Z" fill="#F7DC39"/>
<path d="M370.822 63.4878H372.535V61.5786H373.887V60.0314H372.535V53.2464H370.011C368.243 55.9718 366.835 58.2501 365.934 59.9462V61.5786H370.822V63.4878ZM367.591 59.9676C368.756 57.8667 369.796 56.1847 370.753 54.7369H370.85V60.0741H367.591V59.9676ZM379.565 63.7363C381.743 63.7363 383.281 62.2458 383.281 60.1379C383.281 58.172 381.888 56.7312 379.988 56.7312C378.81 56.7312 377.867 57.2919 377.395 58.2642H377.277C377.277 55.9221 378.144 54.5239 379.607 54.5239C380.467 54.5239 381.132 55.0066 381.354 55.7801H383.143C382.845 54.0981 381.445 52.9909 379.621 52.9909C377.069 52.9909 375.565 55.035 375.565 58.4771C375.565 59.7831 375.807 60.876 376.272 61.7135C376.937 63.0266 378.095 63.7363 379.565 63.7363ZM379.544 62.2104C378.428 62.2104 377.575 61.3303 377.575 60.1663C377.575 59.0236 378.414 58.1861 379.558 58.1861C380.703 58.1861 381.527 59.0236 381.527 60.1947C381.527 61.3374 380.667 62.2104 379.544 62.2104ZM389.182 55.5815C389.182 54.0626 388.267 53.0335 386.922 53.0335C385.577 53.0335 384.647 54.0697 384.647 55.5815C384.647 57.0932 385.577 58.1365 386.922 58.1365C388.267 58.1365 389.182 57.0932 389.182 55.5815ZM386.922 56.937C386.381 56.937 386.042 56.4048 386.042 55.5743C386.042 54.744 386.381 54.2258 386.922 54.2258C387.463 54.2258 387.796 54.7297 387.796 55.5743C387.796 56.4048 387.448 56.937 386.922 56.937ZM387.331 63.4878L390.451 58.6688L394.306 53.2464H392.608L389.418 58.1365L385.625 63.4878H387.331ZM395.235 61.1457C395.235 59.634 394.32 58.5978 392.975 58.5978C391.63 58.5978 390.708 59.634 390.708 61.1457C390.708 62.6645 391.63 63.7008 392.975 63.7008C394.32 63.7008 395.235 62.6645 395.235 61.1457ZM392.975 62.5014C392.434 62.5014 392.095 61.9761 392.095 61.1457C392.095 60.3153 392.434 59.7901 392.975 59.7901C393.516 59.7901 393.849 60.3012 393.849 61.1457C393.849 61.9761 393.501 62.5014 392.975 62.5014Z" fill="#151522"/>
<path d="M572.455 60.3753H575.068V59.4649H572.455V56.7893H571.565V59.4649H568.951V60.3753H571.565V63.051H572.455V60.3753ZM576.913 57.1092V57.1153H577.958V57.1092C577.958 56.0635 578.644 55.3684 579.66 55.3684C580.615 55.3684 581.354 56.0512 581.354 56.937C581.354 57.6504 581.083 58.1302 579.965 59.3727L576.967 62.725V63.4877H582.58V62.4913H578.518V62.3928L580.603 60.0985C582.027 58.5361 582.435 57.8165 582.435 56.8938C582.435 55.4853 581.245 54.4027 579.689 54.4027C578.079 54.4027 576.913 55.5345 576.913 57.1092ZM587.267 63.6968C589.064 63.6968 590.295 62.4667 590.295 60.6644C590.295 58.9175 589.141 57.6935 587.495 57.6935C586.696 57.6935 586.083 57.9457 585.662 58.4501H585.566L585.813 55.6021H589.802V54.6118H584.966L584.491 59.6433H585.506C585.86 59.0098 586.51 58.6469 587.297 58.6469C588.432 58.6469 589.213 59.4772 589.213 60.6952C589.213 61.9131 588.439 62.725 587.278 62.725C586.257 62.725 585.512 62.0853 585.416 61.1257H584.352C584.449 62.6574 585.627 63.6968 587.267 63.6968ZM595.235 56.5925C595.235 55.3377 594.472 54.458 593.39 54.458C592.308 54.458 591.539 55.3438 591.539 56.5925C591.539 57.8473 592.308 58.733 593.39 58.733C594.472 58.733 595.235 57.8473 595.235 56.5925ZM593.39 57.9457C592.855 57.9457 592.501 57.4105 592.501 56.5925C592.501 55.7743 592.85 55.2453 593.39 55.2453C593.931 55.2453 594.273 55.7621 594.273 56.5925C594.273 57.4044 593.919 57.9457 593.39 57.9457ZM593.294 63.4877L596.269 59.3235L599.633 54.6118H598.54L595.499 58.8622L592.189 63.4877H593.294ZM600.253 61.5009C600.253 60.2462 599.49 59.3666 598.407 59.3666C597.326 59.3666 596.557 60.2523 596.557 61.5009C596.557 62.7557 597.326 63.6415 598.407 63.6415C599.49 63.6415 600.253 62.7557 600.253 61.5009ZM598.407 62.8542C597.873 62.8542 597.519 62.3191 597.519 61.5009C597.519 60.6829 597.867 60.1539 598.407 60.1539C598.949 60.1539 599.291 60.6706 599.291 61.5009C599.291 62.3129 598.937 62.8542 598.407 62.8542Z" fill="#D99913"/>
<path d="M447.985 62.6077H442.979V53.2463H442.03V63.4877H447.985V62.6077ZM452.388 56.5395C453.74 56.5395 454.634 57.5686 454.655 59.1442H450.003C450.087 57.5686 451.03 56.5395 452.388 56.5395ZM454.565 61.5999C454.246 62.3521 453.483 62.7851 452.423 62.7851C450.98 62.7851 450.045 61.6779 449.996 59.9532V59.9107H455.606V59.499C455.606 57.164 454.385 55.7162 452.396 55.7162C450.364 55.7162 449.06 57.2705 449.06 59.6694C449.06 62.0825 450.35 63.6155 452.402 63.6155C453.969 63.6155 455.12 62.8419 455.487 61.5999H454.565ZM460.528 62.5793C459.037 62.5793 458.136 61.3798 458.136 59.57C458.136 57.7531 459.037 56.5536 460.528 56.5536C462.005 56.5536 462.955 57.7673 462.955 59.5842C462.955 61.3941 462.026 62.5793 460.528 62.5793ZM460.604 66.3551C462.567 66.3551 463.849 65.2621 463.849 63.6013V55.8439H462.975V57.3557H462.892C462.483 56.362 461.492 55.7162 460.348 55.7162C458.434 55.7162 457.2 57.2776 457.2 59.57C457.2 61.8625 458.428 63.4096 460.348 63.4096C461.492 63.4096 462.407 62.8206 462.851 61.8128H462.941V63.5304C462.941 64.7653 462.047 65.5389 460.604 65.5389C459.467 65.5389 458.691 65.0847 458.524 64.382H457.561C457.755 65.5743 458.892 66.3551 460.604 66.3551ZM469.14 56.5395C470.492 56.5395 471.387 57.5686 471.407 59.1442H466.755C466.838 57.5686 467.781 56.5395 469.14 56.5395ZM471.317 61.5999C470.998 62.3521 470.235 62.7851 469.174 62.7851C467.733 62.7851 466.796 61.6779 466.748 59.9532V59.9107H472.357V59.499C472.357 57.164 471.137 55.7162 469.147 55.7162C467.115 55.7162 465.812 57.2705 465.812 59.6694C465.812 62.0825 467.101 63.6155 469.153 63.6155C470.72 63.6155 471.871 62.8419 472.239 61.5999H471.317ZM474.326 63.4877H475.235V58.9454C475.235 57.5047 476.136 56.5536 477.453 56.5536C478.75 56.5536 479.401 57.2989 479.401 58.7539V63.4877H480.31V58.5197C480.31 56.7382 479.359 55.7162 477.696 55.7162C476.503 55.7162 475.678 56.2769 475.283 57.2208H475.193V55.8439H474.326V63.4877ZM485.378 63.6155C486.522 63.6155 487.486 62.9838 487.93 61.9618H488.013V63.4877H488.887V52.7991H487.978V57.3343H487.896C487.472 56.3336 486.515 55.7162 485.378 55.7162C483.485 55.7162 482.216 57.2989 482.216 59.6694C482.216 62.0399 483.472 63.6155 485.378 63.6155ZM485.572 56.5536C487.035 56.5536 487.992 57.7886 487.992 59.6623C487.992 61.5502 487.043 62.771 485.572 62.771C484.096 62.771 483.153 61.5643 483.153 59.6623C483.153 57.7673 484.096 56.5536 485.572 56.5536Z" fill="#999999"/>
</g>
<defs>
<filter id="filter0_dd" x="0" y="168.318" width="371.5" height="364.209" filterUnits="userSpaceOnUse" color-interpolation-filters="sRGB">
<feFlood flood-opacity="0" result="BackgroundImageFix"/>
<feColorMatrix in="SourceAlpha" type="matrix" values="0 0 0 0 0 0 0 0 0 0 0 0 0 0 0 0 0 0 127 0"/>
<feOffset dy="24"/>
<feGaussianBlur stdDeviation="16"/>
<feColorMatrix type="matrix" values="0 0 0 0 0.196487 0 0 0 0 0.196487 0 0 0 0 0.279476 0 0 0 0.08 0"/>
<feBlend mode="multiply" in2="BackgroundImageFix" result="effect1_dropShadow"/>
<feColorMatrix in="SourceAlpha" type="matrix" values="0 0 0 0 0 0 0 0 0 0 0 0 0 0 0 0 0 0 127 0"/>
<feOffset dy="16"/>
<feGaussianBlur stdDeviation="8"/>
<feColorMatrix type="matrix" values="0 0 0 0 0.196487 0 0 0 0 0.196487 0 0 0 0 0.279476 0 0 0 0.08 0"/>
<feBlend mode="multiply" in2="effect1_dropShadow" result="effect2_dropShadow"/>
<feBlend mode="normal" in="SourceGraphic" in2="effect2_dropShadow" result="shape"/>
</filter>
<filter id="filter1_dd" x="256.116" y="352.398" width="21.3539" height="21.621" filterUnits="userSpaceOnUse" color-interpolation-filters="sRGB">
<feFlood flood-opacity="0" result="BackgroundImageFix"/>
<feColorMatrix in="SourceAlpha" type="matrix" values="0 0 0 0 0 0 0 0 0 0 0 0 0 0 0 0 0 0 127 0"/>
<feOffset dy="2"/>
<feGaussianBlur stdDeviation="2"/>
<feColorMatrix type="matrix" values="0 0 0 0 0.196487 0 0 0 0 0.196487 0 0 0 0 0.279476 0 0 0 0.06 0"/>
<feBlend mode="multiply" in2="BackgroundImageFix" result="effect1_dropShadow"/>
<feColorMatrix in="SourceAlpha" type="matrix" values="0 0 0 0 0 0 0 0 0 0 0 0 0 0 0 0 0 0 127 0"/>
<feOffset dy="2"/>
<feGaussianBlur stdDeviation="1"/>
<feColorMatrix type="matrix" values="0 0 0 0 0.196487 0 0 0 0 0.196487 0 0 0 0 0.279476 0 0 0 0.06 0"/>
<feBlend mode="multiply" in2="effect1_dropShadow" result="effect2_dropShadow"/>
<feBlend mode="normal" in="SourceGraphic" in2="effect2_dropShadow" result="shape"/>
</filter>
<filter id="filter2_dd" x="223.312" y="287.484" width="86.9615" height="76.0419" filterUnits="userSpaceOnUse" color-interpolation-filters="sRGB">
<feFlood flood-opacity="0" result="BackgroundImageFix"/>
<feColorMatrix in="SourceAlpha" type="matrix" values="0 0 0 0 0 0 0 0 0 0 0 0 0 0 0 0 0 0 127 0"/>
<feOffset dy="4"/>
<feGaussianBlur stdDeviation="4"/>
<feColorMatrix type="matrix" values="0 0 0 0 0.196487 0 0 0 0 0.196487 0 0 0 0 0.279476 0 0 0 0.06 0"/>
<feBlend mode="multiply" in2="BackgroundImageFix" result="effect1_dropShadow"/>
<feColorMatrix in="SourceAlpha" type="matrix" values="0 0 0 0 0 0 0 0 0 0 0 0 0 0 0 0 0 0 127 0"/>
<feOffset dy="4"/>
<feGaussianBlur stdDeviation="2"/>
<feColorMatrix type="matrix" values="0 0 0 0 0.196487 0 0 0 0 0.196487 0 0 0 0 0.279476 0 0 0 0.08 0"/>
<feBlend mode="multiply" in2="effect1_dropShadow" result="effect2_dropShadow"/>
<feBlend mode="normal" in="SourceGraphic" in2="effect2_dropShadow" result="shape"/>
</filter>
<filter id="filter3_dd" x="289" y="262.483" width="371.5" height="204.573" filterUnits="userSpaceOnUse" color-interpolation-filters="sRGB">
<feFlood flood-opacity="0" result="BackgroundImageFix"/>
<feColorMatrix in="SourceAlpha" type="matrix" values="0 0 0 0 0 0 0 0 0 0 0 0 0 0 0 0 0 0 127 0"/>
<feOffset dy="24"/>
<feGaussianBlur stdDeviation="16"/>
<feColorMatrix type="matrix" values="0 0 0 0 0.196487 0 0 0 0 0.196487 0 0 0 0 0.279476 0 0 0 0.08 0"/>
<feBlend mode="multiply" in2="BackgroundImageFix" result="effect1_dropShadow"/>
<feColorMatrix in="SourceAlpha" type="matrix" values="0 0 0 0 0 0 0 0 0 0 0 0 0 0 0 0 0 0 127 0"/>
<feOffset dy="16"/>
<feGaussianBlur stdDeviation="8"/>
<feColorMatrix type="matrix" values="0 0 0 0 0.196487 0 0 0 0 0.196487 0 0 0 0 0.279476 0 0 0 0.08 0"/>
<feBlend mode="multiply" in2="effect1_dropShadow" result="effect2_dropShadow"/>
<feBlend mode="normal" in="SourceGraphic" in2="effect2_dropShadow" result="shape"/>
</filter>
<filter id="filter4_dd" x="96.6666" y="0" width="371.667" height="363.478" filterUnits="userSpaceOnUse" color-interpolation-filters="sRGB">
<feFlood flood-opacity="0" result="BackgroundImageFix"/>
<feColorMatrix in="SourceAlpha" type="matrix" values="0 0 0 0 0 0 0 0 0 0 0 0 0 0 0 0 0 0 127 0"/>
<feOffset dy="24"/>
<feGaussianBlur stdDeviation="16"/>
<feColorMatrix type="matrix" values="0 0 0 0 0.196487 0 0 0 0 0.196487 0 0 0 0 0.279476 0 0 0 0.08 0"/>
<feBlend mode="multiply" in2="BackgroundImageFix" result="effect1_dropShadow"/>
<feColorMatrix in="SourceAlpha" type="matrix" values="0 0 0 0 0 0 0 0 0 0 0 0 0 0 0 0 0 0 127 0"/>
<feOffset dy="16"/>
<feGaussianBlur stdDeviation="8"/>
<feColorMatrix type="matrix" values="0 0 0 0 0.196487 0 0 0 0 0.196487 0 0 0 0 0.279476 0 0 0 0.08 0"/>
<feBlend mode="multiply" in2="effect1_dropShadow" result="effect2_dropShadow"/>
<feBlend mode="normal" in="SourceGraphic" in2="effect2_dropShadow" result="shape"/>
</filter>
<filter id="filter5_dd" x="327" y="142.73" width="371.667" height="141.902" filterUnits="userSpaceOnUse" color-interpolation-filters="sRGB">
<feFlood flood-opacity="0" result="BackgroundImageFix"/>
<feColorMatrix in="SourceAlpha" type="matrix" values="0 0 0 0 0 0 0 0 0 0 0 0 0 0 0 0 0 0 127 0"/>
<feOffset dy="24"/>
<feGaussianBlur stdDeviation="16"/>
<feColorMatrix type="matrix" values="0 0 0 0 0.196487 0 0 0 0 0.196487 0 0 0 0 0.279476 0 0 0 0.08 0"/>
<feBlend mode="multiply" in2="BackgroundImageFix" result="effect1_dropShadow"/>
<feColorMatrix in="SourceAlpha" type="matrix" values="0 0 0 0 0 0 0 0 0 0 0 0 0 0 0 0 0 0 127 0"/>
<feOffset dy="16"/>
<feGaussianBlur stdDeviation="8"/>
<feColorMatrix type="matrix" values="0 0 0 0 0.196487 0 0 0 0 0.196487 0 0 0 0 0.279476 0 0 0 0.08 0"/>
<feBlend mode="multiply" in2="effect1_dropShadow" result="effect2_dropShadow"/>
<feBlend mode="normal" in="SourceGraphic" in2="effect2_dropShadow" result="shape"/>
</filter>
<filter id="filter6_dd" x="280" y="0.459747" width="371.667" height="164.366" filterUnits="userSpaceOnUse" color-interpolation-filters="sRGB">
<feFlood flood-opacity="0" result="BackgroundImageFix"/>
<feColorMatrix in="SourceAlpha" type="matrix" values="0 0 0 0 0 0 0 0 0 0 0 0 0 0 0 0 0 0 127 0"/>
<feOffset dy="24"/>
<feGaussianBlur stdDeviation="16"/>
<feColorMatrix type="matrix" values="0 0 0 0 0.196487 0 0 0 0 0.196487 0 0 0 0 0.279476 0 0 0 0.08 0"/>
<feBlend mode="multiply" in2="BackgroundImageFix" result="effect1_dropShadow"/>
<feColorMatrix in="SourceAlpha" type="matrix" values="0 0 0 0 0 0 0 0 0 0 0 0 0 0 0 0 0 0 127 0"/>
<feOffset dy="16"/>
<feGaussianBlur stdDeviation="8"/>
<feColorMatrix type="matrix" values="0 0 0 0 0.196487 0 0 0 0 0.196487 0 0 0 0 0.279476 0 0 0 0.08 0"/>
<feBlend mode="multiply" in2="effect1_dropShadow" result="effect2_dropShadow"/>
<feBlend mode="normal" in="SourceGraphic" in2="effect2_dropShadow" result="shape"/>
</filter>
</defs>
</svg>
