<svg width="716" height="532" viewBox="0 0 716 532" fill="none" xmlns="http://www.w3.org/2000/svg">
<path d="M60.2365 332.59C60.2365 332.59 5.64654 264.35 103.127 216.59C211.337 185.39 244.587 140.04 308.817 81.0403C375.107 17.6703 559.347 -41.7897 617.817 127.83C632.447 177.39 620.747 198.99 656.817 271.13C675.337 309.13 662.307 405.66 497.917 408.58C454.517 408.58 428.707 417.13 406.777 424.11C384.918 431.116 361.58 432.128 339.197 427.04C284.537 414.52 219.717 379.75 163.907 380.21C143.577 380.492 123.46 376.042 105.147 367.21C89.3065 359.4 72.6065 348.16 60.2365 332.59Z" fill="url(#paint0_linear)"/>
<g filter="url(#filter0_dii)">
<rect width="216.409" height="440.369" rx="50" transform="matrix(-0.928776 0.370641 0.928776 0.370641 253.996 118.946)" fill="#F3F5F7"/>
</g>
<rect width="191.712" height="415.121" rx="40" transform="matrix(-0.928776 0.370641 0.928776 0.370641 253.996 123.702)" fill="#F6F2FF"/>
<path d="M298.782 103.539C298.782 100.779 295.492 87.999 293.972 82.199L272.682 93.919C271.162 94.7643 269.897 96.0014 269.018 97.5015C268.138 99.0017 267.677 100.71 267.682 102.449V162.209C267.683 162.758 267.827 163.296 268.101 163.772C268.374 164.247 268.768 164.643 269.242 164.919C269.44 165.037 269.598 165.213 269.692 165.423C269.787 165.634 269.814 165.868 269.77 166.095C269.726 166.321 269.614 166.529 269.448 166.689C269.281 166.849 269.07 166.954 268.842 166.989L268.272 167.069C267.553 167.173 266.896 167.535 266.424 168.086C265.951 168.638 265.694 169.343 265.702 170.069V175.309L256.522 185.659C256.522 185.659 256.952 186.079 257.602 186.789C259.652 188.999 263.892 194.019 264.202 197.789C264.266 198.47 264.163 199.157 263.902 199.789C268.212 197.429 272.522 194.929 275.432 193.219C277.582 190.049 279.432 187.069 280.532 185.279C280.846 184.765 281.287 184.341 281.812 184.046C282.338 183.752 282.93 183.598 283.532 183.599H288.432C288.855 183.603 289.266 183.453 289.586 183.176C289.907 182.9 290.115 182.515 290.173 182.096C290.231 181.676 290.133 181.25 289.899 180.897C289.665 180.545 289.311 180.289 288.902 180.179L284.432 178.909C283.69 178.699 283.032 178.264 282.549 177.664C282.065 177.064 281.78 176.328 281.732 175.559L278.292 118.259L281.732 175.559C281.78 176.328 282.065 177.064 282.549 177.664C283.032 178.264 283.69 178.699 284.432 178.909L288.902 180.179C289.311 180.289 289.665 180.545 289.899 180.897C290.133 181.25 290.231 181.676 290.173 182.096C290.115 182.515 289.907 182.9 289.586 183.176C289.266 183.453 288.855 183.603 288.432 183.599H283.532C282.93 183.598 282.338 183.752 281.812 184.046C281.287 184.341 280.846 184.765 280.532 185.279C279.442 187.069 277.582 190.049 275.432 193.219C274.982 193.889 274.512 194.569 274.042 195.219C273.322 196.219 272.582 197.269 271.842 198.219C271.102 199.169 270.362 200.149 269.642 201.019L269.482 201.199C268.772 202.049 268.072 202.829 267.402 203.489L267.222 203.669L266.782 204.079C266.652 204.199 266.532 204.319 266.402 204.419C266.196 204.594 266.028 204.81 265.91 205.053C265.792 205.296 265.726 205.562 265.717 205.832C265.708 206.102 265.755 206.371 265.855 206.622C265.956 206.873 266.108 207.1 266.302 207.289C270.442 211.219 278.832 217.189 286.422 213.159C288.752 211.099 292.572 205.159 296.352 198.439C297.202 196.919 298.052 195.359 298.892 193.789C300.512 190.719 302.072 187.629 303.412 184.789C306.122 179.059 308.012 174.249 308.062 172.409C308.05 172.269 308.05 172.129 308.062 171.989C307.582 169.989 303.802 156.309 300.332 142.409C297.232 129.969 294.382 117.409 294.382 112.769C295.182 108.009 298.782 107.139 298.782 103.539ZM293.922 130.439C293.923 130.538 293.901 130.636 293.859 130.725C293.817 130.815 293.755 130.894 293.678 130.956C293.601 131.019 293.511 131.063 293.415 131.086C293.319 131.109 293.219 131.11 293.122 131.089L284.122 129.199C283.983 129.169 283.858 129.096 283.764 128.99C283.671 128.884 283.614 128.75 283.602 128.609L283.232 124.789C283.223 124.681 283.24 124.573 283.282 124.473C283.325 124.373 283.39 124.285 283.474 124.217C283.557 124.148 283.656 124.1 283.762 124.078C283.868 124.056 283.978 124.06 284.082 124.089L293.442 126.799C293.582 126.837 293.705 126.92 293.792 127.036C293.879 127.152 293.925 127.294 293.922 127.439V130.439Z" fill="#A395C8"/>
<path d="M301.312 122.709L300.522 125.259L300.232 142.539C297.132 130.099 294.282 117.539 294.282 112.899C295.182 108.039 298.782 107.139 298.782 103.539C298.782 100.779 295.492 87.999 293.972 82.199L301.972 77.779C301.832 86.089 301.442 110.599 301.282 122.689L301.312 122.709Z" fill="#A395C8"/>
<path d="M315.382 26.419L315.232 26.509L315.632 26.249C315.774 26.1735 315.931 26.1332 316.092 26.1316C316.252 26.1299 316.411 26.167 316.554 26.2396C316.697 26.3121 316.821 26.4181 316.915 26.5486C317.008 26.679 317.069 26.8301 317.092 26.989C317.119 27.2343 317.159 27.478 317.212 27.719C317.169 27.551 317.136 27.3807 317.112 27.209C317.088 27.0202 317.016 26.8408 316.903 26.6876C316.79 26.5344 316.64 26.4125 316.466 26.3334C316.293 26.2544 316.103 26.2207 315.913 26.2357C315.723 26.2507 315.541 26.3138 315.382 26.419Z" fill="#56C5E0"/>
<path d="M299.292 47.939C300.112 48.149 301.292 48.129 301.712 48.219C300.895 48.2783 300.074 48.1833 299.292 47.939Z" fill="#56C5E0"/>
<path d="M298.602 47.599C298.811 47.7497 299.044 47.8646 299.292 47.939C299.036 47.888 298.798 47.7707 298.602 47.599Z" fill="#56C5E0"/>
<path d="M264.162 197.799C263.852 193.979 259.612 188.959 257.562 186.799C255.322 187.289 251.392 188.029 251.032 187.349L250.912 187.439C250.113 187.965 249.274 188.426 248.402 188.819C249.752 189.899 251.312 191.609 249.932 192.959C251.272 193.479 253.172 194.589 251.112 196.299C252.262 196.979 254.112 198.299 253.262 199.519C254.732 200.469 256.262 201.809 255.162 202.679C254.952 202.839 254.702 203.019 254.402 203.219C257.392 204.309 262.022 200.009 264.162 197.799ZM255.402 195.799C257.562 192.199 252.282 189.559 252.282 189.559C252.282 189.559 257.562 192.219 255.402 195.819V195.799ZM258.042 199.799C257.287 199.021 256.749 198.059 256.482 197.009C256.737 198.071 257.268 199.048 258.022 199.839L258.042 199.799Z" fill="#F9CAC0"/>
<path d="M252.882 199.839C253.024 199.736 253.149 199.612 253.252 199.469C254.722 200.419 256.252 201.759 255.152 202.629C254.942 202.789 254.692 202.969 254.392 203.169C252.002 204.789 247.162 207.469 245.332 207.579C243.272 207.699 241.712 208.059 239.192 206.139C238.864 205.902 238.583 205.607 238.362 205.269C238.173 204.956 238.095 204.588 238.141 204.226C238.186 203.863 238.352 203.526 238.612 203.269C241.882 204.569 250.832 201.409 252.882 199.839Z" fill="#F9CAC0"/>
<path d="M251.082 196.269C252.232 196.949 254.082 198.269 253.232 199.489C253.129 199.632 253.005 199.756 252.862 199.859C250.862 201.429 241.862 204.589 238.602 203.249C238.267 203.129 237.97 202.922 237.742 202.649C236.352 200.869 235.552 199.549 236.112 198.389C239.712 199.529 247.292 198.239 251.082 196.269Z" fill="#F9CAC0"/>
<path d="M248.402 188.769C249.274 188.376 250.113 187.915 250.912 187.389C251.202 184.519 251.332 180.179 250.542 178.599C249.642 176.799 240.102 176.079 237.222 176.439C234.342 176.799 230.022 178.439 230.022 180.759C230.022 183.079 232.722 183.639 234.522 185.619C235.043 186.128 235.393 186.787 235.522 187.504C235.651 188.221 235.553 188.96 235.242 189.619C235.455 189.699 235.665 189.769 235.872 189.829C240.033 191.068 244.508 190.689 248.402 188.769ZM243.022 181.479C236.542 182.739 234.022 181.299 234.922 179.859C235.822 178.419 240.572 178.239 240.572 178.239C240.572 178.239 249.462 180.219 243.022 181.479Z" fill="#724F46"/>
<path d="M248.402 188.769C249.752 189.849 251.312 191.559 249.932 192.909C249.597 193.231 249.203 193.486 248.772 193.659C245.332 195.189 241.542 194.399 238.122 193.659C237.703 193.575 237.294 193.448 236.902 193.279C234.902 192.399 235.282 190.829 235.902 189.789C240.049 191.032 244.512 190.668 248.402 188.769Z" fill="#F9CAC0"/>
<path d="M248.772 193.659C249.203 193.485 249.597 193.231 249.932 192.909C251.272 193.429 253.172 194.539 251.112 196.249C247.322 198.249 239.742 199.509 236.112 198.349C235.799 198.251 235.497 198.12 235.212 197.959C232.212 196.209 235.102 194.229 236.882 193.259C237.274 193.428 237.683 193.555 238.102 193.639C241.542 194.399 245.332 195.189 248.772 193.659Z" fill="#F9CAC0"/>
<path d="M301.582 46.279C300.567 46.2007 299.547 46.3265 298.582 46.649C298.582 46.649 298.252 47.089 298.432 47.439C298.329 47.326 298.267 47.1818 298.256 47.0294C298.245 46.877 298.286 46.7254 298.372 46.599C299.412 46.2931 300.501 46.1846 301.582 46.279Z" fill="#56C5E0"/>
<path d="M297.242 29.439C297.656 29.7086 298.087 29.9524 298.532 30.169C298.087 29.9524 297.656 29.7086 297.242 29.439Z" fill="#56C5E0"/>
<path d="M295.502 18.059C295.976 17.8696 296.437 17.6492 296.882 17.399C296.437 17.6492 295.976 17.8696 295.502 18.059Z" fill="#56C5E0"/>
<path d="M301.962 46.439C302.177 46.5787 302.33 46.7957 302.389 47.0451C302.449 47.2944 302.411 47.5572 302.282 47.779C302.395 47.5537 302.425 47.2958 302.366 47.0506C302.308 46.8055 302.165 46.5889 301.962 46.439Z" fill="#56C5E0"/>
<path d="M330.172 20.1189L331.582 20.049L330.172 20.1189Z" fill="#56C5E0"/>
<path d="M310.732 19.709L310.972 19.759H310.772C310.272 19.6401 309.748 19.6786 309.272 19.869C309.172 19.869 309.072 19.929 308.972 19.959C309.139 19.913 309.302 19.8562 309.462 19.789C309.863 19.6179 310.312 19.5897 310.732 19.709Z" fill="#56C5E0"/>
<path d="M298.532 30.169C298.087 29.9525 297.656 29.7087 297.242 29.439C296.442 33.989 294.942 43.069 295.482 44.139C296.202 45.579 296.682 46.779 296.682 46.779C296.682 46.779 299.082 49.899 298.362 52.059C297.642 54.219 296.472 59.259 298.492 62.379C300.457 65.5688 302.102 68.9453 303.402 72.459C303.546 72.7989 303.768 73.1006 304.049 73.3401C304.33 73.5797 304.663 73.7504 305.022 73.839C308.022 74.899 314.022 72.459 314.022 72.459C314.022 72.459 321.642 68.379 323.592 64.059C325.542 59.739 324.822 53.369 324.822 53.369C324.691 51.3223 324.734 49.2682 324.952 47.229C325.322 45.449 323.322 45.229 321.522 42.339C320.452 40.619 320.202 36.959 320.182 34.339C320.093 34.3507 320.003 34.3443 319.917 34.3202C319.831 34.2961 319.751 34.2549 319.682 34.199C319.588 34.1309 319.501 34.0539 319.422 33.969C318.904 33.2982 318.535 32.5241 318.342 31.699C318.342 31.639 318.342 31.589 318.342 31.539C318.222 31.129 318.112 30.729 317.992 30.339C317.872 29.949 317.772 29.629 317.682 29.289C317.682 29.149 317.612 29.019 317.572 28.889C317.532 28.759 317.442 28.409 317.382 28.179C317.322 27.949 317.332 27.899 317.312 27.759C317.269 27.591 317.235 27.4207 317.212 27.249C317.187 27.0602 317.115 26.8808 317.002 26.7276C316.889 26.5744 316.739 26.4525 316.566 26.3734C316.393 26.2944 316.203 26.2607 316.013 26.2757C315.823 26.2907 315.64 26.3538 315.482 26.459L315.332 26.549L314.842 26.879L314.412 27.159C314.252 27.249 314.102 27.349 313.952 27.449L313.482 27.739L313.002 28.039L312.502 28.329L312.002 28.619L311.472 28.909L310.952 29.179L310.382 29.459L309.852 29.709L309.252 29.969L308.702 30.189L308.082 30.409L307.512 30.609L306.872 30.789L306.302 30.939L305.642 31.059L305.052 31.169C304.832 31.169 304.602 31.169 304.372 31.229L303.792 31.279C303.562 31.279 303.322 31.279 303.092 31.279H302.512C302.272 31.279 302.022 31.209 301.782 31.179C301.542 31.149 301.412 31.179 301.222 31.099C301.032 31.019 300.702 30.969 300.452 30.899C300.202 30.829 300.102 30.819 299.922 30.759C299.742 30.699 299.352 30.529 299.062 30.409C298.822 30.279 298.672 30.239 298.532 30.169Z" fill="#F9CAC0"/>
<path d="M238.372 205.269C235.862 206.679 228.522 211.199 229.122 215.679C229.842 221.079 229.242 219.369 225.522 225.419C221.982 231.179 228.292 237.419 232.112 240.519C231.722 237.249 231.462 234.719 231.462 233.519C231.462 231.349 256.462 214.179 266.242 207.519C266.047 207.331 265.893 207.104 265.791 206.853C265.69 206.602 265.642 206.332 265.652 206.062C265.661 205.791 265.727 205.525 265.846 205.282C265.965 205.038 266.134 204.823 266.342 204.649C266.472 204.549 266.592 204.429 266.722 204.309L267.162 203.899L267.342 203.719C268.012 203.059 268.712 202.279 269.422 201.429L269.582 201.249C270.302 200.379 271.042 199.429 271.782 198.449C272.522 197.469 273.262 196.449 273.982 195.449C274.452 194.769 274.922 194.089 275.372 193.449C272.462 195.159 268.152 197.659 263.842 200.019C264.103 199.387 264.206 198.7 264.142 198.019C261.982 200.269 257.372 204.529 254.382 203.389C251.992 205.009 247.152 207.689 245.322 207.799C243.262 207.919 241.702 208.279 239.182 206.359C238.839 206.056 238.563 205.684 238.372 205.269ZM245.372 219.729L234.712 225.409L245.372 219.729Z" fill="#724F46"/>
<path d="M306.282 105.099L307.032 99.099H314.202L314.242 99.069L313.962 105.099H313.122H306.802H306.282Z" fill="#56C5E0"/>
<path d="M307.022 99.099L305.382 92.819C305.231 92.2389 305.221 91.6311 305.353 91.0465C305.485 90.4619 305.756 89.9175 306.142 89.459L309.142 85.899H316.142L318.862 91.179C319.251 91.9328 319.377 92.7952 319.219 93.6288C319.062 94.4625 318.63 95.2194 317.992 95.779L314.262 99.059L307.022 99.099Z" fill="#CCC5DD"/>
<path d="M326.962 232.329H327.492C330.942 232.249 335.822 231.589 335.822 231.589C335.822 231.589 330.942 232.249 327.492 232.329C324.722 231.449 323.092 228.769 324.302 227.779C324.864 227.425 325.542 227.303 326.192 227.439C335.642 229.099 330.532 214.689 330.532 214.689C330.412 214.429 330.282 214.189 330.162 213.969C332.852 213.199 335.962 215.689 339.162 215.689C340.292 215.689 341.932 214.179 342.992 213.059C346.462 213.449 351.092 217.659 353.562 220.149C353.002 222.429 352.162 225.599 351.242 228.489C350.242 231.739 349.062 234.659 348.072 235.599C345.462 238.069 337.542 240.709 336.342 240.469C336.202 240.443 336.069 240.388 335.953 240.307C335.836 240.225 335.738 240.12 335.665 239.998C335.592 239.876 335.546 239.74 335.53 239.599C335.514 239.457 335.528 239.314 335.572 239.179C335.582 239.108 335.599 239.037 335.622 238.969L341.722 236.149L335.622 238.969C335.599 239.037 335.582 239.108 335.572 239.179C333.962 239.179 332.242 238.979 332.752 237.729C333.155 236.985 333.796 236.397 334.572 236.059C336.029 235.366 337.573 234.872 339.162 234.589C337.573 234.872 336.029 235.366 334.572 236.059C333.362 236.059 331.972 236.119 330.672 236.059C329.362 236.094 328.052 235.97 326.772 235.689C326.54 235.609 326.318 235.501 326.112 235.369C324.402 234.439 323.902 232.359 326.962 232.329Z" fill="#F9CAC0"/>
<path d="M291.292 405.249C292.572 405.159 293.786 404.645 294.742 403.789C299.952 398.849 299.922 387.099 303.822 383.259C304.352 382.839 306.522 383.259 306.522 383.259C306.522 383.259 302.882 396.669 301.122 400.179C299.362 403.689 297.612 408.399 289.482 408.999C284.082 408.739 282.562 405.199 282.422 402.739C282.722 405.169 285.852 405.729 291.292 405.249Z" fill="#A295C7"/>
<path d="M315.762 124.009C317.832 120.569 320.832 117.689 323.532 112.009C325.752 111.849 327.822 108.799 328.942 106.789C330.692 110.319 331.492 112.449 327.042 117.709C324.262 121.229 318.042 133.089 315.212 139.419L315.762 124.009Z" fill="#A395C8"/>
<path d="M330.522 214.679C330.402 214.419 330.272 214.179 330.152 213.959C326.962 208.449 322.292 214.959 320.562 219.819C319.292 223.379 322.372 226.339 324.292 227.769C324.854 227.415 325.532 227.293 326.182 227.429C335.632 229.089 330.522 214.679 330.522 214.679ZM325.022 223.599C320.872 224.679 324.482 217.479 325.202 215.679C325.242 215.679 329.222 222.519 325.022 223.599ZM326.922 225.399C329.722 225.759 329.522 220.179 329.522 218.739C329.562 220.179 329.762 225.759 326.962 225.399H326.922Z" fill="#724F46"/>
<path d="M300.522 125.259L301.312 122.709L306.792 105.119H313.122L315.372 111.609L316.122 113.749L315.762 124.009L315.212 139.449C314.707 140.524 314.27 141.63 313.902 142.759C312.822 146.539 307.962 168.679 307.962 172.099C307.482 170.099 303.702 156.419 300.232 142.519L300.522 125.259Z" fill="#CCC5DD"/>
<path d="M327.192 257.089L327.022 257.009L327.142 257.079C327.218 257.124 327.303 257.151 327.391 257.16C327.48 257.169 327.568 257.158 327.652 257.129C327.577 257.155 327.497 257.165 327.418 257.159C327.338 257.152 327.261 257.128 327.192 257.089Z" fill="#56C5E0"/>
<path d="M266.322 204.579C266.452 204.479 266.572 204.359 266.702 204.239C266.572 204.359 266.452 204.479 266.322 204.579C266.116 204.754 265.948 204.97 265.83 205.213C265.712 205.456 265.646 205.722 265.637 205.992C265.628 206.262 265.675 206.531 265.775 206.782C265.876 207.033 266.028 207.26 266.222 207.449C266.027 207.261 265.874 207.034 265.772 206.783C265.67 206.532 265.623 206.262 265.632 205.992C265.641 205.721 265.708 205.455 265.827 205.212C265.946 204.968 266.114 204.753 266.322 204.579Z" fill="#56C5E0"/>
<path d="M327.692 257.129C327.803 257.093 327.901 257.022 327.969 256.926C328.037 256.831 328.073 256.716 328.072 256.599C328.079 256.717 328.044 256.835 327.975 256.931C327.906 257.027 327.806 257.097 327.692 257.129Z" fill="#56C5E0"/>
<path d="M282.402 402.339C282.392 402.472 282.392 402.606 282.402 402.739C282.702 405.169 285.832 405.739 291.272 405.249C292.552 405.159 293.766 404.645 294.722 403.789C299.932 398.849 299.902 387.099 303.802 383.259C304.332 382.839 306.502 383.259 306.502 383.259C308.781 380.061 310.897 376.751 312.842 373.339C312.979 373.097 313.045 372.822 313.032 372.544C313.02 372.266 312.93 371.998 312.772 371.769C311.232 369.459 308.612 362.769 307.302 359.289C307.255 359.167 307.17 359.063 307.06 358.994C306.949 358.925 306.819 358.893 306.689 358.905C306.559 358.916 306.436 358.969 306.339 359.057C306.242 359.144 306.176 359.261 306.152 359.389C305.492 362.799 303.692 369.009 299.302 370.299C294.542 371.699 293.922 367.229 293.882 365.169C293.876 364.898 293.771 364.638 293.587 364.439C293.402 364.24 293.152 364.116 292.882 364.089C289.732 363.879 280.882 363.609 283.652 367.779C285.552 376.599 282.402 399.309 282.402 402.339ZM307.962 367.419C307.962 367.419 301.712 377.139 296.742 374.979C301.712 377.139 307.962 367.419 307.962 367.419ZM293.832 395.499L297.832 381.229L299.272 386.859L307.912 373.539L299.322 386.859L297.882 381.229L293.832 395.499Z" fill="#A295C7"/>
<path d="M267.362 203.609C268.032 202.949 268.732 202.169 269.442 201.319C268.732 202.169 268.022 202.949 267.362 203.609Z" fill="#56C5E0"/>
<path d="M266.742 204.199L267.182 203.789L266.742 204.199Z" fill="#56C5E0"/>
<path d="M271.802 198.339C272.542 197.339 273.282 196.339 274.002 195.339C273.282 196.329 272.542 197.349 271.802 198.339Z" fill="#56C5E0"/>
<path d="M269.602 201.139C270.322 200.269 271.062 199.319 271.802 198.339C271.022 199.319 270.322 200.269 269.602 201.139Z" fill="#56C5E0"/>
<path d="M305.922 195.819L312.982 196.569C313.382 198.569 313.782 200.569 314.152 202.569L305.922 201.309C305.922 201.309 306.762 195.819 305.922 195.819Z" fill="#CCC5DD"/>
<path d="M298.832 194.009C300.452 190.939 302.012 187.849 303.352 185.009L306.282 189.649L310.472 184.649C311.252 188.259 312.132 192.369 312.982 196.649L305.922 195.899C305.352 195.819 301.362 194.699 298.832 194.009Z" fill="white"/>
<path d="M305.922 195.819V201.339L296.292 198.619C297.142 197.099 297.992 195.539 298.832 193.969C301.362 194.699 305.352 195.819 305.922 195.819Z" fill="#CCC5DD"/>
<path d="M303.352 184.939C306.062 179.209 307.952 174.399 308.002 172.559C308.182 174.199 309.192 178.739 310.472 184.559L306.282 189.559L303.352 184.939Z" fill="#CCC5DD"/>
<path d="M305.922 201.339V195.819C306.762 195.819 305.922 201.339 305.922 201.339Z" fill="#56C5E0"/>
<path d="M294.022 18.439C293.571 18.5154 293.108 18.4258 292.718 18.1868C292.328 17.9477 292.038 17.5755 291.902 17.139C292.038 17.5755 292.328 17.9477 292.718 18.1868C293.108 18.4258 293.571 18.5154 294.022 18.439Z" fill="#56C5E0"/>
<path d="M348.022 263.869C346.342 262.309 346.102 260.139 347.022 257.259C347.174 256.784 347.442 256.354 347.802 256.009L350.802 264.679C349.817 264.68 348.852 264.399 348.022 263.869Z" fill="#724F46"/>
<path d="M358.482 263.869C358.108 264.135 357.669 264.294 357.212 264.329L353.212 254.259C354.122 254.099 355.112 253.919 356.212 253.679L359.362 262.939C359.037 263.217 358.742 263.529 358.482 263.869Z" fill="#CCC5DD"/>
<path d="M361.602 269.619L359.602 270.219L358.332 267.379C359.028 267.193 359.7 266.924 360.332 266.579L361.602 269.619Z" fill="#CCC5DD"/>
<path d="M353.402 264.729L350.132 254.889C351.002 254.649 352.042 254.469 353.242 254.259L357.242 264.329C355.975 264.567 354.691 264.701 353.402 264.729Z" fill="#724F46"/>
<path d="M378.902 267.689C378.352 275.319 394.032 282.069 400.782 283.419C401.79 283.609 402.824 283.609 403.832 283.419C409.762 282.339 426.832 281.559 431.082 281.249C440.932 280.529 453.912 263.729 451.932 250.919C451.474 246.928 451.528 242.896 452.092 238.919C453.752 228.419 442.092 217.149 436.352 210.829C434.932 209.323 433.902 207.494 433.352 205.499C433.072 204.596 432.565 203.78 431.878 203.13C431.191 202.48 430.349 202.018 429.432 201.789C429.354 203.431 429.119 205.062 428.732 206.659C425.842 209.049 411.442 204.179 405.582 204.499H405.522C404.432 204.559 402.802 205.339 401.272 205.629C400.214 205.844 399.199 206.236 398.272 206.789C393.532 209.479 381.272 216.789 376.922 223.359C375.728 225.021 374.974 226.958 374.731 228.99C374.488 231.022 374.764 233.082 375.532 234.979C375.472 238.979 375.832 240.779 374.722 243.459C377.492 246.459 378.652 249.049 378.832 251.059C379.022 253.519 379.642 265.669 378.902 267.689ZM439.482 220.149C438.762 221.739 437.562 226.059 437.562 226.059C437.562 226.059 438.762 221.739 439.482 220.149ZM440.922 243.579C440.922 243.579 439.482 249.819 435.642 251.019C439.482 249.819 440.922 243.579 440.922 243.579ZM430.602 262.299C432.867 261.328 435.208 260.545 437.602 259.959C435.208 260.545 432.867 261.328 430.602 262.299ZM403.722 240.459C404.298 240.181 404.901 239.963 405.522 239.809V227.059C404.072 227.219 403.122 227.429 403.122 227.429V222.009C403.122 222.009 404.612 222.009 406.842 222.199V218.199H411.022V222.729C412.709 222.991 414.379 223.355 416.022 223.819V218.819H420.822V225.699C422.95 226.688 424.683 228.364 425.742 230.459C428.172 235.949 422.582 238.979 418.422 240.459V256.989C420.572 256.069 422.022 255.339 422.022 255.339L422.142 260.079C422.142 260.079 420.142 260.889 417.662 261.759L417.102 266.379H413.752V263.009C412.615 263.359 411.446 263.59 410.262 263.699C409.572 263.699 408.572 263.849 407.382 263.919V268.059H403.542V263.899C399.472 263.529 395.082 261.759 393.942 255.459C392.082 244.779 401.082 241.899 403.722 240.459ZM392.722 227.459C392.722 227.459 387.722 230.649 388.162 232.569C388.602 234.489 393.162 238.809 392.722 240.489C393.202 238.809 388.642 234.489 388.162 232.569C387.682 230.649 392.682 227.429 392.682 227.429L392.722 227.459Z" fill="#724F46"/>
<path d="M350.822 264.679L347.822 256.009C348.47 255.447 349.252 255.061 350.092 254.889L353.362 264.729C352.515 264.762 351.667 264.745 350.822 264.679Z" fill="#CCC5DD"/>
<path d="M348.492 241.459L346.962 238.059L350.082 237.459L351.712 241.509C350.641 241.417 349.565 241.4 348.492 241.459Z" fill="#CCC5DD"/>
<path d="M403.722 240.459C404.298 240.181 404.901 239.963 405.522 239.809C406.522 239.529 407.782 239.229 409.122 238.869C413.642 237.709 419.122 235.999 419.202 232.539C418.382 227.879 413.342 226.849 409.122 226.839C407.919 226.842 406.717 226.916 405.522 227.059C404.072 227.219 403.122 227.429 403.122 227.429V222.009C403.122 222.009 404.612 222.009 406.842 222.199C408.062 222.299 409.502 222.449 411.042 222.699C412.729 222.961 414.399 223.325 416.042 223.789C417.701 224.244 419.309 224.867 420.842 225.649C422.97 226.638 424.704 228.314 425.762 230.409C428.192 235.899 422.602 238.929 418.442 240.409C417.312 240.799 416.292 241.069 415.562 241.249C414.832 241.429 414.422 241.489 414.422 241.489C412.043 241.627 409.691 242.063 407.422 242.789C406.493 243.079 405.588 243.436 404.712 243.859C402.609 244.81 400.836 246.366 399.622 248.329C396.462 253.829 399.272 259.499 404.002 260.569C404.887 260.776 405.802 260.816 406.702 260.689L407.422 260.579C410.214 260.022 412.947 259.198 415.582 258.119C416.582 257.719 417.582 257.319 418.462 256.939C420.612 256.019 422.062 255.289 422.062 255.289L422.182 260.029C422.182 260.029 420.182 260.839 417.702 261.709C416.442 262.149 415.072 262.599 413.792 262.959C412.655 263.309 411.486 263.54 410.302 263.649C409.612 263.649 408.612 263.799 407.422 263.869C406.144 263.974 404.86 263.974 403.582 263.869C399.512 263.499 395.122 261.729 393.982 255.429C392.082 244.779 401.082 241.899 403.722 240.459Z" fill="#CCC5DD"/>
<path d="M407.442 260.509V242.719C409.711 241.993 412.063 241.557 414.442 241.419C414.442 241.419 414.882 241.339 415.582 241.179V258.009C412.955 259.101 410.229 259.938 407.442 260.509Z" fill="#724F46"/>
<path d="M406.722 260.619C405.822 260.746 404.907 260.706 404.022 260.499L404.732 243.789C405.608 243.366 406.514 243.009 407.442 242.719V260.509L406.722 260.619Z" fill="#CCC5DD"/>
<path d="M399.642 248.259C400.856 246.296 402.628 244.74 404.732 243.789L404.022 260.499C399.292 259.429 396.482 253.759 399.642 248.259Z" fill="#724F46"/>
<path d="M415.602 241.179C416.332 240.999 417.352 240.729 418.482 240.339V256.869C417.622 257.249 416.642 257.649 415.602 258.049V241.179Z" fill="#CCC5DD"/>
<path d="M407.442 263.799V267.939H403.602V263.779C404.879 263.89 406.163 263.897 407.442 263.799Z" fill="#CCC5DD"/>
<path d="M296.732 235.579L296.842 234.899L297.112 234.729C297.022 235.009 296.862 235.289 296.732 235.579Z" fill="#56C5E0"/>
<path d="M327.022 269.679C327.842 271.139 328.842 272.869 329.952 275.199C330.149 275.605 330.428 275.965 330.773 276.256C331.117 276.547 331.519 276.762 331.952 276.889C343.082 280.289 346.042 280.339 346.452 278.569C346.503 278.377 346.596 278.199 346.725 278.049C346.854 277.898 347.015 277.779 347.197 277.699C347.378 277.619 347.576 277.581 347.774 277.588C347.972 277.595 348.166 277.647 348.342 277.739C351.112 279.169 355.692 280.399 357.932 281.259C360.872 282.389 363.602 280.109 365.722 276.619C365.818 276.449 365.971 276.319 366.153 276.249C366.336 276.18 366.537 276.176 366.722 276.239C371.482 277.829 377.912 268.749 378.832 267.939C378.897 267.867 378.945 267.782 378.972 267.689C379.712 265.689 379.062 253.519 378.832 251.019C378.652 249.019 377.492 246.439 374.722 243.419C373.753 242.358 372.721 241.356 371.632 240.419C369.162 238.299 363.702 235.119 358.792 232.419C355.792 230.799 353.042 229.349 351.252 228.419C350.252 231.669 349.072 234.589 348.082 235.529C345.472 237.999 337.552 240.639 336.352 240.399C336.212 240.373 336.079 240.318 335.963 240.237C335.846 240.155 335.748 240.05 335.675 239.928C335.602 239.806 335.556 239.67 335.54 239.529C335.524 239.387 335.538 239.244 335.582 239.109C333.972 239.109 332.252 238.909 332.762 237.659C333.165 236.915 333.806 236.327 334.582 235.989C333.372 235.989 331.982 236.049 330.682 235.989C330.962 238.699 330.812 244.269 329.392 247.199C329.124 247.79 328.916 248.406 328.772 249.039C328.772 249.159 328.702 249.269 328.682 249.399C328.662 249.529 328.602 249.819 328.562 250.029C328.522 250.239 328.482 250.439 328.452 250.649C328.422 250.859 328.452 250.979 328.392 251.139C328.332 251.299 328.322 251.679 328.292 251.949V252.379C328.292 252.659 328.292 252.949 328.222 253.229C328.152 253.509 328.222 253.509 328.222 253.649C328.222 253.789 328.222 254.189 328.222 254.449C328.217 254.542 328.217 254.636 328.222 254.729C328.222 255.009 328.222 255.299 328.222 255.549C328.222 255.799 328.222 255.989 328.222 256.199V256.499C328.228 256.617 328.194 256.735 328.125 256.831C328.056 256.927 327.956 256.997 327.842 257.029C327.764 257.068 327.678 257.088 327.592 257.088C327.505 257.088 327.419 257.068 327.342 257.029L327.022 257.009L326.902 256.949L326.772 256.899L326.652 256.849H326.512H326.392H326.252H326.132C326.083 256.865 326.036 256.885 325.992 256.909L325.882 256.969C325.833 257.006 325.786 257.046 325.742 257.089L325.642 257.179C325.587 257.249 325.537 257.323 325.492 257.399L325.412 257.519C325.332 257.668 325.262 257.821 325.202 257.979C323.922 263.929 324.872 265.889 327.022 269.679ZM370.612 259.059C371.305 257.908 371.751 256.626 371.924 255.294C372.096 253.962 371.989 252.608 371.612 251.319C371.988 252.609 372.093 253.963 371.919 255.295C371.745 256.627 371.296 257.909 370.602 259.059H370.612ZM343.242 242.639L341.672 239.739L343.732 238.959L345.362 241.869C346.394 241.64 347.445 241.503 348.502 241.459L346.972 238.059L350.092 237.459L351.722 241.509C354.132 241.699 356.212 242.229 356.932 242.919C358.612 244.539 364.012 251.739 357.932 253.299C357.362 253.449 356.812 253.569 356.282 253.679L359.432 262.939C360.352 262.119 361.642 261.149 361.892 260.939C362.142 260.729 363.212 264.709 363.212 264.709C362.329 265.403 361.385 266.015 360.392 266.539L361.652 269.539L359.652 270.139L358.382 267.299L357.972 267.379C356.972 267.529 355.472 267.689 353.972 267.759L355.032 271.099L352.492 271.819L351.022 267.849C350.289 267.83 349.564 267.699 348.872 267.459C347.192 266.739 343.112 265.179 343.112 262.779C343.112 260.379 341.912 257.319 344.432 254.649C345.022 254.062 345.696 253.567 346.432 253.179L344.432 245.909C343.242 245.679 340.032 244.859 342.812 242.909C342.944 242.808 343.085 242.717 343.232 242.639H343.242ZM332.242 257.979C332.242 257.979 332.482 264.159 336.322 266.109C332.442 264.159 332.202 258.009 332.202 258.009L332.242 257.979Z" fill="#724F46"/>
<path d="M253.602 308.009C253.602 308.009 235.962 315.929 231.462 305.489C231.462 294.689 235.242 264.089 233.982 254.729C233.292 249.589 232.602 244.499 232.112 240.509C231.722 237.239 231.462 234.709 231.462 233.509C231.462 231.339 256.462 214.169 266.242 207.509C270.382 211.439 278.772 217.409 286.362 213.379C288.692 211.319 292.512 205.379 296.292 198.659L305.922 201.379L314.152 202.639C316.152 213.189 317.502 223.509 316.422 228.139C314.632 235.829 321.782 235.989 326.042 235.439C326.248 235.571 326.47 235.679 326.702 235.759C327.982 236.04 329.292 236.164 330.602 236.129C330.882 238.839 330.732 244.409 329.312 247.339C329.044 247.93 328.836 248.546 328.692 249.179C328.692 249.299 328.622 249.409 328.602 249.539C328.582 249.669 328.522 249.959 328.482 250.169C328.442 250.379 328.402 250.579 328.372 250.789C328.342 250.999 328.372 251.119 328.312 251.279C328.252 251.439 328.242 251.819 328.212 252.089V252.519C328.212 252.799 328.212 253.089 328.142 253.369C328.072 253.649 328.142 253.649 328.142 253.789C328.142 253.929 328.142 254.329 328.142 254.589C328.137 254.682 328.137 254.776 328.142 254.869C328.142 255.149 328.142 255.439 328.142 255.689C328.142 255.939 328.142 256.129 328.142 256.339V256.639C328.143 256.756 328.107 256.871 328.039 256.966C327.971 257.062 327.873 257.133 327.762 257.169C327.678 257.198 327.589 257.209 327.501 257.2C327.413 257.191 327.328 257.164 327.252 257.119L327.022 257.009L326.902 256.949L326.772 256.899L326.652 256.849H326.512H326.392H326.252H326.132C326.084 256.865 326.037 256.885 325.992 256.909L325.882 256.969C325.833 257.006 325.786 257.046 325.742 257.089L325.642 257.179C325.587 257.249 325.537 257.323 325.492 257.399L325.412 257.519C325.332 257.668 325.262 257.821 325.202 257.979C323.882 263.929 324.832 265.889 326.972 269.679L311.762 283.149C311.3 283.557 310.923 284.053 310.654 284.607C310.385 285.161 310.227 285.764 310.192 286.379C309.592 296.479 306.882 342.869 306.882 352.479C300.582 358.959 288.162 357.339 286.542 355.539C285.462 357.699 282.402 354.279 282.402 354.279C282.402 354.279 284.822 289.819 285.082 277.279C285.105 276.219 285.409 275.184 285.962 274.279C287.782 271.279 288.432 268.949 290.322 262.489C290.804 253.21 292.976 244.097 296.732 235.599C296.862 235.309 296.982 235.029 297.112 234.749C300.972 232.309 303.402 230.639 303.402 230.639C303.402 230.639 300.972 232.309 297.112 234.749C298.828 230.836 300.935 227.107 303.402 223.619C300.935 227.107 298.828 230.836 297.112 234.749L296.842 234.919L299.322 219.299L296.842 234.919C287.532 240.789 270.312 250.919 258.502 253.249C257.714 253.402 257.006 253.827 256.501 254.451C255.996 255.075 255.727 255.857 255.742 256.659C256.022 269.499 253.602 308.009 253.602 308.009Z" fill="#CCC5DD"/>
<path d="M343.722 239.009L345.352 241.919C344.613 242.079 343.9 242.338 343.232 242.689L341.662 239.789L343.722 239.009Z" fill="#CCC5DD"/>
<path d="M353.892 267.839L354.952 271.179L352.412 271.899L351.022 267.849C351.902 267.889 352.902 267.879 353.892 267.839Z" fill="#CCC5DD"/>
<path d="M219.022 338.259C215.782 345.459 220.912 348.949 225.142 348.999C227.902 348.999 238.642 343.049 241.672 341.229C241.902 341.092 242.092 340.897 242.223 340.663C242.355 340.43 242.423 340.167 242.422 339.899V337.369C242.423 337.19 242.468 337.014 242.553 336.856C242.638 336.699 242.761 336.565 242.91 336.466C243.059 336.367 243.23 336.307 243.409 336.29C243.587 336.273 243.767 336.3 243.932 336.369L245.852 337.159C246.123 337.275 246.42 337.316 246.712 337.277C247.004 337.238 247.28 337.121 247.512 336.939C250.427 334.698 253.199 332.276 255.812 329.689C256.009 329.474 256.146 329.212 256.209 328.927C256.272 328.643 256.259 328.347 256.172 328.069C255.232 325.069 253.732 317.749 253.122 314.739C253.105 314.677 253.069 314.623 253.018 314.584C252.968 314.545 252.906 314.524 252.842 314.524C252.778 314.524 252.716 314.545 252.665 314.584C252.615 314.623 252.578 314.677 252.562 314.739L251.782 318.109L247.412 319.789C247.199 319.873 247.001 319.987 246.822 320.129C245.722 320.979 241.302 323.639 238.882 325.079C238.721 325.174 238.538 325.225 238.351 325.227C238.164 325.228 237.98 325.181 237.818 325.088C237.655 324.996 237.52 324.862 237.426 324.701C237.332 324.539 237.282 324.356 237.282 324.169V319.939C237.282 319.409 237.592 318.069 237.172 317.749C236.172 316.999 232.352 315.669 231.442 316.129C230.242 316.729 228.442 322.129 228.442 325.009C228.442 327.889 222.282 331.059 219.022 338.259L218.422 340.009C218.422 342.009 221.862 345.109 225.162 345.009C229.392 344.149 233.442 341.889 237.302 339.009C241.162 336.129 239.922 334.689 240.642 333.249C241.362 331.809 243.522 333.609 245.322 333.249C247.122 332.889 253.322 326.529 255.152 324.139C253.362 326.529 247.152 332.889 245.322 333.249C243.492 333.609 241.322 331.809 240.642 333.249C239.962 334.689 241.162 336.129 237.302 339.009C233.442 341.889 229.392 344.149 225.162 345.009C221.862 345.109 218.422 342.009 218.422 340.009L219.022 338.259ZM226.582 331.419C225.142 335.019 223.702 339.719 223.702 339.719C223.702 339.719 225.162 335.009 226.602 331.419H226.582ZM234.862 331.419C232.702 335.419 229.462 340.059 226.582 339.699C229.482 340.059 232.722 335.379 234.882 331.419H234.862Z" fill="#A395C8"/>
<path d="M355.242 244.779C357.612 245.909 356.162 249.579 354.782 250.319L352.112 244.489C353.163 244.337 354.236 244.436 355.242 244.779Z" fill="#724F46"/>
<path d="M352.112 244.489L354.782 250.319C354.699 250.361 354.612 250.394 354.522 250.419L352.812 250.829L350.022 244.749C350.742 244.629 351.442 244.539 352.112 244.489Z" fill="#CCC5DD"/>
<path d="M350.022 244.749L352.782 250.829C351.366 251.171 349.973 251.602 348.612 252.119L346.712 245.449C347.672 245.219 348.842 244.949 350.022 244.749Z" fill="#724F46"/>
<path d="M346.742 245.449L348.642 252.119C347.871 252.42 347.123 252.774 346.402 253.179L344.402 245.909L344.822 245.979C344.822 245.979 345.592 245.739 346.742 245.449Z" fill="#CCC5DD"/>
<path d="M348.492 241.459C349.565 241.4 350.641 241.417 351.712 241.509C354.122 241.699 356.202 242.229 356.922 242.919C358.602 244.539 364.002 251.739 357.922 253.299C357.352 253.449 356.802 253.569 356.272 253.679C355.182 253.919 354.192 254.099 353.272 254.259C352.072 254.469 351.032 254.649 350.162 254.889C349.321 255.061 348.54 255.447 347.892 256.009C347.532 256.354 347.264 256.784 347.112 257.259C346.112 260.139 346.392 262.309 348.112 263.869C348.942 264.399 349.907 264.68 350.892 264.679C351.75 264.746 352.611 264.763 353.472 264.729C354.75 264.7 356.025 264.566 357.282 264.329C357.739 264.294 358.178 264.135 358.552 263.869C358.818 263.528 359.119 263.216 359.452 262.939C360.372 262.119 361.662 261.149 361.912 260.939C362.162 260.729 363.232 264.709 363.232 264.709C362.349 265.403 361.405 266.015 360.412 266.539C359.779 266.884 359.108 267.153 358.412 267.339L358.002 267.419C357.002 267.569 355.502 267.729 354.002 267.799C353.002 267.799 352.002 267.849 351.142 267.799C350.409 267.78 349.684 267.649 348.992 267.409C347.312 266.689 343.232 265.129 343.232 262.729C343.232 260.329 342.032 257.269 344.552 254.599C345.142 254.012 345.816 253.517 346.552 253.129C347.273 252.724 348.021 252.37 348.792 252.069C350.153 251.552 351.546 251.121 352.962 250.779L354.672 250.369C354.761 250.344 354.849 250.311 354.932 250.269C356.312 249.529 357.762 245.859 355.392 244.729C354.386 244.386 353.313 244.287 352.262 244.439C351.592 244.489 350.892 244.579 350.202 244.699C349.002 244.899 347.832 245.169 346.902 245.399C345.752 245.689 344.962 245.929 344.962 245.929L344.542 245.859C343.352 245.629 340.142 244.809 342.922 242.859C343.07 242.752 343.227 242.658 343.392 242.579C344.06 242.228 344.773 241.969 345.512 241.809C346.493 241.609 347.49 241.492 348.492 241.459Z" fill="#CCC5DD"/>
<path d="M334.102 19.799H333.922H333.682H333.622H333.352H333.242L331.712 19.909H331.602L330.192 19.979L326.972 20.089H326.722H326.022H317.322H316.892H316.442H315.992H315.582H315.132H314.742H314.322H313.962H313.552H313.242H312.852H312.562H312.222H311.952H311.652H311.432H311.162L311.022 19.759L310.782 19.709C310.371 19.5641 309.923 19.5641 309.512 19.709C309.352 19.7762 309.189 19.833 309.022 19.879L308.692 19.979L308.302 20.049L307.972 20.099C307.842 20.099 307.722 20.099 307.592 20.099H307.282L306.922 20.029C306.828 20.0138 306.734 19.9937 306.642 19.969C306.529 19.9284 306.419 19.8816 306.312 19.829L306.022 19.759C305.918 19.6879 305.818 19.6111 305.722 19.529C305.662 19.479 305.592 19.439 305.532 19.379C305.441 19.2716 305.357 19.158 305.282 19.039C305.282 18.979 305.192 18.929 305.152 18.859C305.043 18.6565 304.959 18.4416 304.902 18.219C304.871 18.0798 304.831 17.9428 304.782 17.809C304.673 17.5373 304.539 17.2762 304.382 17.029C304.136 16.6597 303.844 16.3236 303.512 16.029C302.91 15.4206 302.121 15.033 301.272 14.929C300.75 14.888 300.233 15.0531 299.832 15.389C299.253 15.8519 298.648 16.2826 298.022 16.679C297.652 16.929 297.262 17.169 296.862 17.399C296.417 17.6492 295.956 17.8696 295.482 18.059C295.189 18.1736 294.888 18.2671 294.582 18.339H294.392L293.982 18.399C293.531 18.4754 293.068 18.3858 292.678 18.1468C292.288 17.9077 291.998 17.5354 291.862 17.099C291.812 16.9709 291.752 16.8472 291.682 16.729C291.521 16.4791 291.322 16.2563 291.092 16.069C290.971 15.9644 290.844 15.8676 290.712 15.779C290.552 15.669 290.392 15.569 290.212 15.469C289.869 15.2931 289.515 15.1394 289.152 15.009C288.792 14.879 288.422 14.749 288.032 14.639L287.102 14.409C286.482 14.269 285.842 14.159 285.222 14.069C284.602 13.979 284.022 13.909 283.482 13.859C282.692 13.789 282.032 13.749 281.592 13.729H281.042C281.042 13.489 280.992 13.239 280.972 12.989C280.943 12.668 280.98 12.3445 281.081 12.0383C281.181 11.7321 281.343 11.4497 281.556 11.2082C281.77 10.9667 282.03 10.7713 282.322 10.6339C282.613 10.4964 282.93 10.4199 283.252 10.409C287.592 10.309 292.082 10.649 295.722 7.40896C299.362 4.16896 305.362 1.29896 307.462 0.318964C307.946 0.0825986 308.484 -0.0242051 309.022 0.00896431C313.332 0.288964 332.802 2.50896 334.162 19.749L334.102 19.799Z" fill="#56C5E0"/>
<path d="M328.942 106.839C327.822 108.839 325.752 111.899 323.532 112.059C320.832 117.699 317.832 120.579 315.762 124.059L316.122 113.779L315.372 111.639C318.212 102.419 326.942 81.979 331.532 71.429L338.682 82.349L339.742 82.949C335.282 88.459 327.302 98.809 327.042 102.689C327.604 104.104 328.239 105.489 328.942 106.839Z" fill="#A395C8"/>
<path d="M313.122 105.099H313.962L314.242 99.099L318.022 95.779C318.659 95.2194 319.092 94.4625 319.249 93.6289C319.407 92.7952 319.281 91.9328 318.892 91.179L316.122 85.899H309.122L306.122 89.459C305.736 89.9175 305.465 90.4619 305.333 91.0465C305.201 91.6311 305.211 92.2389 305.362 92.819L307.022 99.099L306.272 105.099H306.792L301.322 122.689C301.482 110.599 301.872 86.089 302.012 77.779L305.312 76.009C306.032 79.179 308.012 83.419 313.482 84.009C320.352 84.709 328.212 75.479 331.412 71.279L331.532 71.459C326.942 82.009 318.212 102.459 315.372 111.669L313.122 105.099Z" fill="white"/>
<path d="M355.242 222.009L356.622 220.009L378.272 188.009C379.362 186.408 379.802 184.452 379.502 182.539L367.202 102.539C366.989 101.172 366.471 99.8713 365.687 98.7322C364.903 97.5931 363.872 96.6453 362.672 95.959L339.742 82.959C335.282 88.469 327.302 98.819 327.042 102.699C327.603 104.13 328.237 105.532 328.942 106.899C330.692 110.429 331.492 112.559 327.042 117.819C324.262 121.339 318.042 133.199 315.212 139.529C314.707 140.604 314.27 141.71 313.902 142.839C312.822 146.619 307.962 168.759 307.962 172.179C307.95 172.319 307.95 172.459 307.962 172.599C308.142 174.239 309.152 178.779 310.432 184.599C311.212 188.209 312.092 192.319 312.942 196.599C313.342 198.599 313.742 200.599 314.112 202.599C316.112 213.149 317.462 223.469 316.382 228.099C314.592 235.789 321.742 235.949 326.002 235.399C324.362 234.399 323.862 232.399 326.922 232.329H327.442C324.672 231.449 323.042 228.769 324.252 227.779C322.332 226.349 319.252 223.389 320.522 219.829C322.252 214.979 326.922 208.459 330.112 213.969C332.802 213.199 335.912 215.689 339.112 215.689C340.242 215.689 341.882 214.179 342.942 213.059C342.443 212.994 341.936 213.031 341.452 213.169C343.672 208.629 347.042 201.689 349.672 196.249L346.812 165.469C346.721 164.536 346.862 163.595 347.222 162.729L350.022 156.009C347.252 143.839 344.442 131.289 344.542 130.859C344.442 131.289 347.252 143.859 350.022 156.009C352.672 167.639 355.282 178.919 355.282 178.919L362.362 180.179L355.242 179.009L353.682 188.009L349.682 196.269C347.052 201.709 343.682 208.649 341.462 213.189C341.946 213.051 342.453 213.014 342.952 213.079C346.422 213.469 351.052 217.679 353.522 220.169C354.572 221.219 355.242 222.009 355.242 222.009ZM338.172 183.809C334.652 184.909 329.422 186.109 325.042 185.409C324.897 185.385 324.764 185.316 324.661 185.212C324.557 185.108 324.489 184.974 324.466 184.829C324.443 184.685 324.466 184.536 324.531 184.405C324.597 184.274 324.702 184.167 324.832 184.099C329.452 181.749 334.662 182.809 337.922 182.569C338.074 182.562 338.224 182.61 338.345 182.704C338.465 182.798 338.548 182.932 338.578 183.082C338.608 183.232 338.584 183.387 338.509 183.521C338.435 183.654 338.315 183.756 338.172 183.809Z" fill="#A395C8"/>
<path d="M353.502 220.139C354.572 221.219 355.242 221.979 355.242 221.979L356.622 219.979L361.242 225.979C361.63 226.493 361.809 227.134 361.742 227.775C361.675 228.415 361.368 229.007 360.882 229.429L358.722 232.479C355.722 230.859 352.972 229.409 351.182 228.479C352.102 225.589 352.942 222.419 353.502 220.139Z" fill="#A395C8"/>
<path d="M425.662 183.009C428.982 182.009 431.492 180.679 431.972 179.259C435.042 170.259 416.362 168.539 412.182 168.539C396.182 168.539 398.772 183.479 406.332 185.029C408.522 185.449 418.182 185.069 425.662 183.009ZM413.662 181.669C403.662 181.049 404.312 174.259 407.892 172.799C414.172 170.249 426.482 172.499 426.462 176.629C426.432 182.009 416.362 181.809 413.652 181.649L413.662 181.669Z" fill="#724F46"/>
<path d="M331.412 71.189L330.522 69.819C330.522 69.819 329.202 57.819 328.712 55.119C328.457 53.9574 328.3 52.7766 328.242 51.589C328.226 50.8932 328.388 50.2049 328.712 49.589C329.492 48.149 330.642 45.449 331.362 44.689C332.082 43.929 331.182 39.329 331.362 36.089C331.492 33.719 324.752 32.729 321.132 32.369C321.064 32.7718 320.957 33.167 320.812 33.549C320.724 33.8514 320.533 34.1134 320.272 34.289C320.226 34.3175 320.175 34.3378 320.122 34.349C320.122 37.009 320.392 40.669 321.462 42.349C323.262 45.229 325.262 45.459 324.892 47.239C324.674 49.2782 324.631 51.3323 324.762 53.379C324.762 53.379 325.482 59.749 323.532 64.069C321.582 68.389 313.962 72.469 313.962 72.469C313.962 72.469 308.022 74.899 305.022 73.839C305.069 74.568 305.166 75.2931 305.312 76.009C306.032 79.179 308.012 83.419 313.482 84.009C320.352 84.619 328.212 75.389 331.412 71.189ZM325.782 38.619C326.082 40.299 326.462 42.219 326.992 42.699C326.462 42.219 326.082 40.299 325.782 38.619C325.482 36.939 326.322 36.459 327.402 35.979C328.482 35.499 328.242 38.139 328.242 38.139C328.242 38.139 328.482 35.499 327.402 35.979C326.322 36.459 325.482 36.939 325.782 38.619Z" fill="#F9CAC0"/>
<path d="M331.362 44.639C332.092 43.879 331.182 39.279 331.362 36.039C331.492 33.669 324.752 32.679 321.132 32.319C321.132 32.119 321.202 31.899 321.232 31.659C321.432 30.119 323.152 29.019 325.232 28.219C327.927 27.812 330.597 27.2578 333.232 26.559C334.042 30.129 335.842 38.559 335.232 41.079C334.763 43.6382 333.784 46.0768 332.352 48.249C331.159 49.6 329.737 50.7305 328.152 51.589C328.136 50.8932 328.298 50.2049 328.622 49.589C329.492 48.099 330.642 45.399 331.362 44.639Z" fill="#A395C8"/>
<path d="M321.232 31.659C321.232 31.899 321.172 32.119 321.132 32.319C321.064 32.7218 320.957 33.117 320.812 33.499C320.724 33.8014 320.533 34.0634 320.272 34.239C320.226 34.2675 320.175 34.2878 320.122 34.299C320.033 34.3106 319.943 34.3043 319.857 34.2802C319.771 34.2561 319.691 34.2149 319.622 34.159C319.528 34.0909 319.441 34.0139 319.362 33.929C318.844 33.2582 318.475 32.4841 318.282 31.659C318.282 31.599 318.282 31.549 318.282 31.499C318.162 31.089 318.052 30.689 317.932 30.299C317.812 29.909 317.712 29.589 317.622 29.249C317.622 29.109 317.552 28.979 317.512 28.849C317.472 28.719 317.382 28.369 317.322 28.139C317.262 27.909 317.272 27.859 317.252 27.719C317.199 27.4779 317.159 27.2343 317.132 26.989C317.109 26.8301 317.048 26.679 316.954 26.5486C316.861 26.4181 316.737 26.3121 316.594 26.2395C316.451 26.167 316.292 26.1299 316.132 26.1316C315.971 26.1332 315.813 26.1735 315.672 26.249L315.272 26.509L314.782 26.839L314.352 27.119C314.192 27.209 314.042 27.309 313.892 27.409L313.422 27.699L312.942 27.999L312.442 28.289L311.942 28.579L311.412 28.869L310.892 29.139L310.322 29.419L309.792 29.669L309.192 29.929L308.642 30.149L308.022 30.369L307.452 30.569L306.812 30.749L306.242 30.899L305.582 31.019L304.992 31.129C304.772 31.129 304.542 31.129 304.312 31.189L303.732 31.239C303.502 31.239 303.262 31.239 303.032 31.239H302.452C302.212 31.239 301.962 31.169 301.722 31.139C301.482 31.109 301.352 31.139 301.162 31.059C300.972 30.979 300.642 30.929 300.392 30.859C300.142 30.789 300.042 30.779 299.862 30.719C299.682 30.659 299.292 30.489 299.002 30.369C298.862 30.299 298.712 30.259 298.572 30.189C298.127 29.9724 297.696 29.7286 297.282 29.459C296.243 28.7718 295.301 27.9477 294.482 27.009C294.24 26.7215 293.896 26.5397 293.522 26.5023C293.149 26.4649 292.775 26.575 292.482 26.809C289.842 29.019 282.352 27.439 281.012 13.689H281.562C282.002 13.689 282.662 13.749 283.452 13.819C283.992 13.869 284.582 13.939 285.192 14.029C285.802 14.119 286.452 14.229 287.072 14.369L288.002 14.599C288.392 14.709 288.762 14.839 289.122 14.969C289.492 15.1051 289.853 15.2655 290.202 15.449C290.382 15.549 290.542 15.649 290.702 15.759C290.834 15.8476 290.961 15.9444 291.082 16.049C291.312 16.2363 291.511 16.4591 291.672 16.709C291.742 16.8272 291.802 16.9509 291.852 17.079C291.977 17.5366 292.269 17.9306 292.671 18.1825C293.073 18.4345 293.555 18.526 294.022 18.439L294.432 18.379H294.622C294.928 18.3071 295.229 18.2136 295.522 18.099C295.996 17.9096 296.457 17.6892 296.902 17.439C297.302 17.209 297.692 16.969 298.062 16.719C298.683 16.3057 299.28 15.8584 299.852 15.379C300.253 15.0431 300.77 14.878 301.292 14.919C302.133 15.0246 302.914 15.4083 303.512 16.009C303.843 16.3036 304.136 16.6397 304.382 17.009C304.539 17.2562 304.673 17.5173 304.782 17.789C304.831 17.9228 304.871 18.0598 304.902 18.199C304.959 18.4216 305.043 18.6365 305.152 18.839C305.152 18.909 305.242 18.959 305.282 19.019C305.357 19.138 305.441 19.2516 305.532 19.359C305.592 19.419 305.662 19.459 305.722 19.509C305.817 19.5911 305.918 19.6679 306.022 19.739L306.262 19.849C306.369 19.9016 306.479 19.9484 306.592 19.989C306.684 20.0137 306.777 20.0338 306.872 20.049L307.232 20.119H307.542C307.672 20.119 307.792 20.119 307.922 20.119L308.252 20.069L308.642 19.999L308.972 19.899C309.072 19.899 309.172 19.849 309.272 19.809C309.748 19.6186 310.272 19.5801 310.772 19.699H310.972L311.162 19.749H311.432H311.652H311.952H312.222H312.562H312.852H313.242H313.552H313.962H314.322H314.742H315.132H315.582H316.022H316.472H316.922H317.352H326.022H326.722H326.972L330.192 19.639L331.602 19.569H331.712L333.242 19.459H333.352H333.622H333.682H333.922H334.102C334.223 21.0947 334.197 22.7381 334.022 24.369C333.971 24.8466 333.763 25.2937 333.429 25.6396C333.096 25.9855 332.657 26.2105 332.182 26.279C329.799 26.5894 327.454 27.1388 325.182 27.919C322.902 28.709 321.532 29.379 321.232 31.659Z" fill="#A395C8"/>
<path d="M291.702 16.769C291.541 16.5191 291.342 16.2963 291.112 16.109C291.342 16.2963 291.541 16.5191 291.702 16.769Z" fill="#56C5E0"/>
<path d="M321.232 31.659C321.532 29.379 322.902 28.709 325.232 28.219C323.152 29.009 321.432 30.119 321.232 31.659Z" fill="#56C5E0"/>
<path d="M405.552 204.459C405.822 202.029 406.412 198.049 406.852 195.119C406.976 195.208 407.11 195.282 407.252 195.339C411.862 197.289 422.252 196.279 428.002 195.929C428.543 195.892 429.061 195.697 429.492 195.369C429.542 197.249 429.542 199.549 429.402 201.749C429.324 203.391 429.089 205.022 428.702 206.619C425.812 209.009 411.412 204.139 405.552 204.459Z" fill="#724F46"/>
<path d="M409.122 238.869C407.782 239.229 406.522 239.529 405.522 239.809V227.059C406.717 226.916 407.919 226.842 409.122 226.839V238.869Z" fill="#CCC5DD"/>
<path d="M419.202 232.539C419.122 235.999 413.642 237.709 409.122 238.869V226.869C413.342 226.849 418.382 227.879 419.202 232.539Z" fill="#724F46"/>
<path d="M417.162 266.259H413.812V262.889C415.092 262.529 416.462 262.079 417.722 261.639L417.162 266.259Z" fill="#CCC5DD"/>
<path d="M407.252 195.339C407.11 195.282 406.976 195.208 406.852 195.119C406.547 194.931 406.285 194.682 406.082 194.388C405.879 194.094 405.739 193.76 405.672 193.409C405.252 191.109 405.852 187.409 406.332 185.009C410.632 185.859 419.522 184.879 425.632 183.009C426.964 182.647 428.27 182.196 429.542 181.659C429.734 181.574 429.941 181.528 430.151 181.524C430.361 181.52 430.569 181.559 430.764 181.637C430.959 181.715 431.136 181.832 431.285 181.98C431.434 182.128 431.552 182.305 431.632 182.499C433.172 186.269 430.682 191.029 430.532 193.389C430.508 193.78 430.401 194.161 430.216 194.506C430.031 194.852 429.774 195.153 429.462 195.389C429.031 195.717 428.512 195.912 427.972 195.949C422.262 196.279 411.862 197.289 407.252 195.339Z" fill="#724F46"/>
<path d="M416.082 218.739H420.882V225.619C419.349 224.837 417.741 224.214 416.082 223.759V218.739Z" fill="#CCC5DD"/>
<path d="M406.362 185.009C408.522 185.439 418.182 185.059 425.662 183.009C419.552 184.889 410.662 185.869 406.362 185.009Z" fill="#56C5E0"/>
<path d="M406.842 218.139H411.022V222.669C409.482 222.419 408.022 222.269 406.822 222.169L406.842 218.139Z" fill="#CCC5DD"/>
<path d="M293.122 131.089L284.122 129.199C283.983 129.169 283.858 129.096 283.764 128.99C283.671 128.884 283.614 128.75 283.602 128.609L283.232 124.789C283.223 124.681 283.24 124.573 283.282 124.473C283.324 124.373 283.39 124.285 283.474 124.216C283.557 124.148 283.656 124.1 283.762 124.078C283.868 124.056 283.978 124.06 284.082 124.089L293.442 126.799C293.582 126.837 293.705 126.92 293.792 127.036C293.879 127.152 293.925 127.294 293.922 127.439V130.439C293.923 130.538 293.901 130.636 293.859 130.725C293.817 130.815 293.755 130.894 293.678 130.956C293.601 131.019 293.511 131.063 293.415 131.086C293.319 131.109 293.219 131.11 293.122 131.089Z" fill="#CCC5DD"/>
<path d="M407.882 172.779C414.162 170.229 426.472 172.479 426.452 176.609C426.452 181.999 416.362 181.809 413.652 181.609C403.632 181.009 404.302 174.239 407.882 172.779Z" fill="#CCC5DD"/>
<path d="M243.022 181.479C236.542 182.739 234.022 181.299 234.922 179.859C235.822 178.419 240.572 178.239 240.572 178.239C240.572 178.239 249.462 180.219 243.022 181.479Z" fill="#CCC5DD"/>
<path d="M325.022 223.599C320.872 224.679 324.482 217.479 325.202 215.679C325.242 215.679 329.222 222.519 325.022 223.599Z" fill="#CCC5DD"/>
<path d="M338.172 183.809C334.652 184.909 329.422 186.109 325.042 185.409C324.897 185.385 324.764 185.316 324.661 185.212C324.558 185.108 324.49 184.974 324.466 184.829C324.443 184.685 324.466 184.536 324.532 184.405C324.597 184.274 324.702 184.167 324.832 184.099C329.452 181.749 334.662 182.809 337.922 182.569C338.074 182.562 338.225 182.61 338.345 182.704C338.465 182.798 338.548 182.932 338.578 183.082C338.608 183.232 338.584 183.387 338.51 183.521C338.435 183.654 338.315 183.756 338.172 183.809Z" fill="#CCC5DD"/>
<path d="M321.132 32.319C321.132 32.119 321.202 31.899 321.232 31.659C321.652 28.389 328.952 27.049 332.232 26.579C332.707 26.5105 333.146 26.2855 333.48 25.9396C333.813 25.5937 334.021 25.1466 334.072 24.669C334.247 23.0381 334.274 21.3947 334.152 19.759C333.712 20.199 314.522 20.759 310.692 19.709C310.281 19.5641 309.833 19.5641 309.422 19.709C307.422 20.549 305.352 20.119 304.862 18.179C304.322 16.019 301.502 13.859 299.792 15.299C298.082 16.739 293.042 20.299 291.792 17.099C290.542 13.899 281.412 13.739 281.022 13.729C282.362 27.479 289.852 29.059 292.492 26.849C292.786 26.615 293.159 26.505 293.533 26.5423C293.906 26.5797 294.25 26.7615 294.492 27.049C295.303 27.9638 296.231 28.7674 297.252 29.439C304.012 33.859 311.252 29.129 315.392 26.439C315.551 26.3337 315.733 26.2707 315.923 26.2557C316.113 26.2407 316.303 26.2744 316.476 26.3534C316.65 26.4325 316.8 26.5544 316.913 26.7076C317.026 26.8608 317.098 27.0402 317.122 27.229C317.423 28.7342 317.814 30.2201 318.292 31.679C318.712 33.229 319.472 34.449 320.132 34.319" fill="#A395C8"/>
<path d="M281.022 13.009C281.022 13.259 281.022 13.509 281.092 13.749C281.462 13.749 290.752 13.979 291.932 17.159C293.112 20.339 298.172 16.799 299.932 15.359C301.692 13.919 304.462 16.079 305.002 18.239C305.472 20.109 307.462 20.579 309.372 19.849C309.849 19.6586 310.373 19.6201 310.872 19.739C314.792 20.739 333.872 20.219 334.292 19.739C332.832 2.51896 313.362 0.298963 309.022 0.00896323C308.475 -0.0325989 307.926 0.0708811 307.432 0.308963C305.332 1.30896 299.232 4.30896 295.692 7.40896C292.152 10.509 287.562 10.299 283.222 10.409C282.905 10.4302 282.595 10.5149 282.312 10.6582C282.028 10.8014 281.776 11.0002 281.571 11.2428C281.366 11.4853 281.211 11.7667 281.117 12.0701C281.023 12.3735 280.99 12.6928 281.022 13.009Z" fill="#A395C8"/>
<path d="M256.482 185.619C256.482 185.619 256.912 186.039 257.562 186.749C259.612 188.959 263.852 193.979 264.162 197.749C264.226 198.43 264.123 199.117 263.862 199.749C268.172 197.389 272.482 194.889 275.392 193.179C272.472 197.519 269.012 202.179 266.322 204.489C266.114 204.663 265.945 204.879 265.827 205.122C265.708 205.365 265.641 205.631 265.632 205.902C265.623 206.172 265.67 206.442 265.772 206.693C265.873 206.944 266.027 207.171 266.222 207.359C270.362 211.289 278.752 217.259 286.342 213.229C288.672 211.169 292.492 205.229 296.272 198.509C297.122 196.989 297.972 195.429 298.812 193.859C300.432 190.789 301.992 187.699 303.332 184.859C306.042 179.129 307.932 174.319 307.982 172.479C307.97 172.339 307.97 172.199 307.982 172.059C307.502 170.059 303.722 156.379 300.252 142.479C297.152 130.039 294.302 117.479 294.302 112.839C295.202 107.979 298.802 107.079 298.802 103.479C298.802 100.719 295.512 87.939 293.992 82.139L272.682 93.919C271.162 94.7643 269.897 96.0014 269.018 97.5015C268.138 99.0017 267.677 100.71 267.682 102.449V162.209C267.684 162.759 267.829 163.299 268.102 163.775C268.376 164.252 268.768 164.65 269.242 164.929C269.442 165.045 269.601 165.22 269.697 165.43C269.792 165.64 269.82 165.875 269.776 166.102C269.732 166.328 269.618 166.536 269.451 166.695C269.283 166.854 269.071 166.957 268.842 166.989L268.272 167.069C267.553 167.173 266.896 167.535 266.423 168.086C265.951 168.638 265.694 169.343 265.702 170.069V175.309L256.482 185.619ZM283.602 128.619L283.232 124.799C283.223 124.691 283.24 124.583 283.282 124.483C283.325 124.383 283.39 124.295 283.474 124.227C283.557 124.158 283.656 124.11 283.762 124.088C283.868 124.066 283.978 124.07 284.082 124.099L293.442 126.809C293.582 126.847 293.705 126.93 293.792 127.046C293.879 127.162 293.925 127.304 293.922 127.449V130.449C293.923 130.548 293.901 130.646 293.859 130.735C293.817 130.825 293.755 130.904 293.678 130.966C293.601 131.029 293.511 131.073 293.415 131.096C293.319 131.119 293.219 131.12 293.122 131.099L284.122 129.209C283.982 129.179 283.855 129.104 283.762 128.996C283.668 128.888 283.612 128.752 283.602 128.609V128.619Z" fill="#A395C8"/>
<path d="M306.282 105.099H313.962L314.242 99.069L314.202 99.099H307.032L306.282 105.099Z" fill="#CCC5DD"/>
<path d="M255.152 324.109C253.362 326.499 247.152 332.859 245.322 333.219C243.492 333.579 241.322 331.779 240.642 333.219C239.962 334.659 241.162 336.099 237.302 338.979C233.442 341.859 229.392 344.119 225.162 344.979C221.862 345.079 218.422 341.979 218.422 339.979L219.022 338.259C222.262 331.059 228.442 327.879 228.442 324.999C228.442 322.119 230.242 316.719 231.442 316.119C232.352 315.659 236.192 316.989 237.172 317.739C237.592 318.059 237.282 319.399 237.282 319.929V324.159C237.282 324.346 237.332 324.529 237.426 324.691C237.52 324.852 237.655 324.986 237.818 325.078C237.98 325.171 238.164 325.218 238.351 325.217C238.538 325.215 238.721 325.164 238.882 325.069C241.302 323.629 245.722 320.969 246.822 320.119C247.001 319.977 247.199 319.863 247.412 319.779L251.782 318.099L252.562 314.729C252.578 314.667 252.615 314.613 252.665 314.574C252.716 314.535 252.778 314.514 252.842 314.514C252.906 314.514 252.968 314.535 253.018 314.574C253.069 314.613 253.105 314.667 253.122 314.729C253.732 317.729 255.232 325.099 256.172 328.059C256.259 328.337 256.272 328.633 256.209 328.917C256.146 329.202 256.009 329.464 255.812 329.679C253.199 332.266 250.427 334.688 247.512 336.929C247.28 337.111 247.004 337.228 246.712 337.267C246.42 337.306 246.123 337.265 245.852 337.149L243.932 336.359C243.767 336.29 243.587 336.263 243.409 336.28C243.231 336.297 243.059 336.357 242.91 336.456C242.761 336.555 242.638 336.689 242.553 336.846C242.468 337.004 242.423 337.18 242.422 337.359V339.889C242.423 340.157 242.355 340.42 242.223 340.653C242.092 340.887 241.902 341.082 241.672 341.219C238.662 343.009 227.922 349.009 225.162 349.009C220.932 348.959 215.802 345.469 219.042 338.269" fill="#A395C8"/>
<path d="M282.402 402.339C282.392 402.472 282.392 402.606 282.402 402.739C282.702 405.169 285.832 405.739 291.272 405.249C292.552 405.159 293.766 404.645 294.722 403.789C299.932 398.849 299.902 387.099 303.802 383.259C304.332 382.839 306.502 383.259 306.502 383.259C308.781 380.061 310.897 376.751 312.842 373.339C312.979 373.097 313.045 372.822 313.032 372.544C313.02 372.266 312.93 371.998 312.772 371.769C311.232 369.459 308.612 362.769 307.302 359.289C307.255 359.167 307.17 359.063 307.06 358.994C306.949 358.925 306.819 358.893 306.689 358.905C306.559 358.916 306.436 358.969 306.339 359.057C306.242 359.144 306.176 359.261 306.152 359.389C305.492 362.799 303.692 369.009 299.302 370.299C294.542 371.699 293.922 367.229 293.882 365.169C293.876 364.898 293.771 364.638 293.587 364.439C293.402 364.24 293.152 364.116 292.882 364.089C289.732 363.879 280.882 363.609 283.652 367.779C285.552 376.599 282.402 399.309 282.402 402.339Z" fill="#A295C7"/>
<path d="M306.522 383.259C306.522 383.259 302.882 396.669 301.122 400.179C299.362 403.689 297.612 408.399 289.482 408.999C284.082 408.739 282.562 405.199 282.422 402.739" fill="#A295C7"/>
<defs>
<filter id="filter0_dii" x="0.203125" y="119.802" width="715.594" height="411.717" filterUnits="userSpaceOnUse" color-interpolation-filters="sRGB">
<feFlood flood-opacity="0" result="BackgroundImageFix"/>
<feColorMatrix in="SourceAlpha" type="matrix" values="0 0 0 0 0 0 0 0 0 0 0 0 0 0 0 0 0 0 127 0"/>
<feOffset dy="100"/>
<feGaussianBlur stdDeviation="40"/>
<feColorMatrix type="matrix" values="0 0 0 0 0.639028 0 0 0 0 0.755242 0 0 0 0 0.891667 0 0 0 0.25 0"/>
<feBlend mode="normal" in2="BackgroundImageFix" result="effect1_dropShadow"/>
<feBlend mode="normal" in="SourceGraphic" in2="effect1_dropShadow" result="shape"/>
<feColorMatrix in="SourceAlpha" type="matrix" values="0 0 0 0 0 0 0 0 0 0 0 0 0 0 0 0 0 0 127 0" result="hardAlpha"/>
<feOffset dx="9" dy="2"/>
<feGaussianBlur stdDeviation="10"/>
<feComposite in2="hardAlpha" operator="arithmetic" k2="-1" k3="1"/>
<feColorMatrix type="matrix" values="0 0 0 0 1 0 0 0 0 1 0 0 0 0 1 0 0 0 1 0"/>
<feBlend mode="normal" in2="shape" result="effect2_innerShadow"/>
<feColorMatrix in="SourceAlpha" type="matrix" values="0 0 0 0 0 0 0 0 0 0 0 0 0 0 0 0 0 0 127 0" result="hardAlpha"/>
<feOffset dx="-2" dy="-10"/>
<feGaussianBlur stdDeviation="10"/>
<feComposite in2="hardAlpha" operator="arithmetic" k2="-1" k3="1"/>
<feColorMatrix type="matrix" values="0 0 0 0 0.736667 0 0 0 0 0.804267 0 0 0 0 0.866667 0 0 0 1 0"/>
<feBlend mode="normal" in2="effect2_innerShadow" result="effect3_innerShadow"/>
</filter>
<linearGradient id="paint0_linear" x1="528.5" y1="-38" x2="108" y2="430" gradientUnits="userSpaceOnUse">
<stop stop-color="#CF9F00"/>
<stop offset="0.482877" stop-color="#E6CF85"/>
</linearGradient>
</defs>
</svg>
