<svg width="138" height="40" viewBox="0 0 138 40" fill="none" xmlns="http://www.w3.org/2000/svg">
<g clip-path="url(#clip0)">
<path fill-rule="evenodd" clip-rule="evenodd" d="M82.8269 20.2659L86.7897 24.4138C88.074 25.78 88.722 27.456 88.722 29.4027V33.1885H84.8095V29.4027C84.8095 28.5631 84.5482 27.8859 83.9889 27.2746L80.074 23.1462L76.0299 27.4109C75.4719 28.0183 75.2118 28.6883 75.2118 29.5253V33.1885H71.2987V29.5267C71.2987 27.5877 71.9604 25.9163 73.2627 24.5561L77.2882 20.2705L73.2857 16.073C71.9871 14.7108 71.3304 13.0342 71.3304 11.0894V7.62256H75.2441V11.0822C75.2441 11.899 75.5017 12.5501 76.0628 13.1255L76.0753 13.1418L80.0814 17.3732L83.9846 13.2919C84.537 12.7125 84.7928 12.051 84.7928 11.2179V7.62256H88.7052V11.2179C88.7052 13.1633 88.0497 14.8361 86.7549 16.1996L82.8269 20.2659ZM92.6395 7.62269H110.109V11.6982H103.301V33.1887H99.3869V11.6982H92.6395V7.62269ZM136.001 7.62269V33.1887H132.127V14.2725L126.424 26.0391H123.612L117.897 14.2725V33.1887H114.02V7.62269L119.085 7.62465L125.011 20.2543L130.956 7.62465L136.001 7.62269ZM58.8849 11.6893C57.289 11.793 56.0109 13.135 55.9129 14.8104V18.2348H65.3337V22.309H55.9129V33.1883H51.9985V15.0707C51.9985 10.9554 55.1698 7.62295 59.0817 7.62295H67.4131V11.6893H58.8849Z" fill="white"/>
<path d="M21.0226 9.01284L21.0314 9.02163L27.4355 15.4528L33.7992 9.05682C34.2533 8.59653 34.6212 8.1163 34.9152 7.59913C35.2889 6.93831 35.5424 6.23996 35.6539 5.4689C32.2579 2.44975 27.7823 0.613281 22.8784 0.613281C21.5624 0.613281 20.2786 0.746384 19.0371 0.997345V3.99714V4.2657C19.0371 5.42492 19.2859 6.45691 19.7881 7.38863C20.102 7.96678 20.5104 8.5074 21.0226 9.01284Z" fill="#A4E22D"/>
<path d="M38.6335 8.8711C40.8409 11.9998 42.1413 15.8231 42.1413 19.9507C42.1413 23.588 41.1301 26.9942 39.3771 29.8942C39.0973 28.4724 38.5428 27.1702 37.7073 25.9918C37.3741 25.5178 36.9947 25.0627 36.572 24.6304L30.152 18.2233L36.5345 11.8532L36.541 11.8467C36.9789 11.4033 37.3695 10.9387 37.7143 10.4495C38.0732 9.9451 38.3789 9.41954 38.6335 8.8711ZM18.3867 11.8529L24.7768 18.2265L18.3919 24.6547C17.879 25.1644 17.4323 25.7064 17.0476 26.2771C15.8995 27.977 15.3216 29.932 15.3216 32.1135V32.4854V33.1452V37.5985C8.51284 34.6445 3.75391 27.8521 3.75391 19.951C3.75391 12.0447 8.51518 5.25521 15.3216 2.30127V3.34946V4.10672V4.38358C15.3216 6.55094 15.8913 8.4954 17.019 10.19C17.4089 10.7742 17.8632 11.3303 18.3867 11.8529ZM33.8503 27.246C34.2994 27.7141 34.6782 28.2126 34.9704 28.7341C35.533 29.7418 35.8369 30.8686 35.8369 32.1186L35.7877 34.2396C34.6203 35.2925 33.321 36.2064 31.9182 36.9525C29.2384 38.3737 26.1879 39.1779 22.9483 39.1779C21.6351 39.1779 20.3523 39.0459 19.1151 38.7925V35.5723V32.4852V32.111C19.1151 30.9425 19.3633 29.8879 19.8634 28.9306C20.1743 28.3429 20.5771 27.7944 21.0964 27.273L27.51 20.8724L33.8503 27.246Z" fill="#FF5A24"/>
</g>
<defs>
<clipPath id="clip0">
<rect width="136.353" height="38.9579" fill="white" transform="translate(0.866211 0.317383)"/>
</clipPath>
</defs>
</svg>
