<svg width="138" height="19" viewBox="0 0 138 19" fill="none" xmlns="http://www.w3.org/2000/svg">
<g clip-path="url(#clip0)">
<path d="M21.1371 6.91953C20.8518 6.60691 20.3669 6.58504 20.0543 6.87031L13.2022 13.0352C12.8896 13.3204 12.8678 13.8053 13.153 14.1179C13.4383 14.4305 13.9232 14.4524 14.2358 14.1671L21.0879 8.0023C21.4005 7.71611 21.4223 7.23124 21.1371 6.91953Z" fill="white"/>
<path d="M13.7189 15.908C14.9929 15.908 16.0257 14.8753 16.0257 13.6012C16.0257 12.3272 14.9929 11.2944 13.7189 11.2944C12.4449 11.2944 11.4121 12.3272 11.4121 13.6012C11.4121 14.8753 12.4449 15.908 13.7189 15.908Z" fill="white"/>
<path d="M24.5674 17.2665L26.3738 18.0148C26.7758 16.8618 27.0209 15.6396 27.0938 14.3682H25.1379C25.0705 15.3762 24.8782 16.3469 24.5674 17.2665Z" fill="url(#paint0_linear)"/>
<path d="M23.9793 8.52103L25.7876 7.77184C25.2416 6.64442 24.5462 5.60631 23.7205 4.68213L22.3369 6.06566C22.9858 6.80756 23.5373 7.63057 23.9793 8.52103Z" fill="url(#paint1_linear)"/>
<path d="M17.3837 2.75204L18.1319 0.945608C16.979 0.543672 15.7568 0.2985 14.4854 0.225586V2.18149C15.4934 2.24894 16.464 2.44125 17.3837 2.75204Z" fill="url(#paint2_linear)"/>
<path d="M21.2532 4.98335L22.6368 3.59982C21.7126 2.77498 20.6745 2.07866 19.547 1.53271L18.7979 3.34097C19.6883 3.78301 20.5113 4.33442 21.2532 4.98335Z" fill="url(#paint3_linear)"/>
<path d="M25.1379 12.8346H27.0938C27.0218 11.5632 26.7767 10.34 26.3738 9.18799L24.5674 9.93627C24.8782 10.8559 25.0705 11.8266 25.1379 12.8346Z" fill="url(#paint4_linear)"/>
<path d="M0.303711 13.6016C0.303711 14.349 0.378447 15.0772 0.498755 15.7899H2.47836C2.33891 15.0817 2.26053 14.3517 2.26053 13.6016C2.26144 10.4344 3.54199 7.57528 5.61638 5.49907C7.52307 3.59329 10.0933 2.37107 12.9524 2.18149V0.225586C5.90166 0.6257 0.304622 6.4515 0.303711 13.6016Z" fill="white"/>
<path d="M38.5816 7.95687V7.88851H39.8248C40.1009 7.88851 40.3397 7.85844 40.5421 7.79828C40.7444 7.73813 40.9176 7.65975 41.0597 7.56405C41.2019 7.46744 41.3195 7.36171 41.4115 7.24596C41.5036 7.13112 41.582 7.01355 41.6467 6.89415C41.8399 6.53505 41.9566 6.16957 41.9985 5.7968C42.0395 5.42403 42.0605 5.06311 42.0605 4.71312C42.0605 4.36314 42.0377 4.00495 41.9921 3.63674C41.9456 3.26852 41.8071 2.91854 41.5774 2.58769C41.4389 2.37624 41.2849 2.21036 41.1153 2.09006C40.9449 1.97066 40.7681 1.88316 40.584 1.82848C40.3999 1.77288 40.2158 1.73825 40.0317 1.72458C39.8476 1.7109 39.6726 1.70361 39.5067 1.70361H33.3628V11.3674H35.1856V3.15277H35.192H35.223H38.8167C38.9635 3.15277 39.1348 3.16462 39.3271 3.18741C39.5203 3.21019 39.6908 3.29587 39.8375 3.4426C39.9387 3.54377 40.0216 3.69598 40.0863 3.89831C40.1511 4.10065 40.182 4.39504 40.182 4.78148C40.182 4.86442 40.1802 4.96559 40.1757 5.08498C40.1702 5.20438 40.162 5.32651 40.1474 5.45046C40.1337 5.57442 40.11 5.69655 40.0791 5.81594C40.0462 5.93534 40.008 6.03286 39.9615 6.10577C39.833 6.299 39.6744 6.41839 39.4848 6.46487C39.2961 6.51136 39.1239 6.53414 38.9671 6.53414H37.1452C36.8781 6.53414 36.6749 6.59612 36.5373 6.72098C36.3987 6.84494 36.3295 7.00352 36.3295 7.19766V7.41822C36.3295 7.55676 36.3805 7.70167 36.4817 7.85297C36.5828 8.00426 36.684 8.13186 36.7852 8.23303L39.9597 11.3665H42.2519L38.5816 7.95687Z" fill="white"/>
<path d="M57.464 9.91874V1.7041H55.6421V11.3679H63.3454V9.91874H57.464Z" fill="white"/>
<path d="M67.3009 9.91874V1.7041H65.478V11.3679H73.1813V9.91874H67.3009Z" fill="white"/>
<path d="M80.1733 1.70404H82.1338L78.0479 8.413V11.3678H76.2251V8.413L72.1392 1.70312H74.0987L77.1365 6.77062L80.1733 1.70404Z" fill="white"/>
<path d="M47.7331 1.83614C47.752 1.82288 47.7435 1.80867 47.7236 1.79541C47.7188 1.82856 47.7207 1.84466 47.7331 1.83614Z" fill="white"/>
<path d="M47.5395 1.7041L47.525 1.73874L43.4883 11.3679H45.4068L45.9081 10.1183L48.4437 3.69282C48.471 3.619 48.5084 3.53423 48.5549 3.43671C48.6004 3.3401 48.6551 3.2918 48.7207 3.2918C48.7855 3.2918 48.8401 3.3401 48.8866 3.43671C48.9322 3.53332 48.9696 3.61808 48.9969 3.69282L51.4878 10.0263L52.0338 11.3688H53.9532L49.9065 1.70501H47.5395V1.7041ZM47.7328 1.83535C47.72 1.84446 47.7182 1.82805 47.7236 1.79616C47.7428 1.80891 47.7519 1.82167 47.7328 1.83535Z" fill="white"/>
<path d="M100.347 7.95687V7.88851H101.59C101.866 7.88851 102.105 7.85844 102.307 7.79828C102.51 7.73813 102.683 7.65975 102.825 7.56405C102.967 7.46744 103.085 7.36171 103.177 7.24596C103.269 7.13112 103.347 7.01355 103.412 6.89415C103.605 6.53505 103.722 6.16957 103.764 5.7968C103.805 5.42403 103.826 5.06311 103.826 4.71312C103.826 4.36314 103.803 4.00495 103.757 3.63674C103.711 3.26852 103.572 2.91854 103.343 2.58769C103.204 2.37624 103.05 2.21036 102.88 2.09006C102.71 1.97066 102.533 1.88316 102.349 1.82848C102.165 1.77288 101.981 1.73825 101.797 1.72458C101.613 1.7109 101.438 1.70361 101.272 1.70361H95.1279V11.3674H96.9508V3.15277H96.9571H96.9881H100.582C100.729 3.15277 100.9 3.16462 101.092 3.18741C101.285 3.21019 101.456 3.29587 101.603 3.4426C101.704 3.54377 101.787 3.69598 101.851 3.89831C101.916 4.10065 101.947 4.39504 101.947 4.78148C101.947 4.86442 101.945 4.96559 101.941 5.08498C101.935 5.20438 101.927 5.32651 101.913 5.45046C101.898 5.57442 101.875 5.69655 101.844 5.81594C101.811 5.93534 101.773 6.03286 101.727 6.10577C101.598 6.299 101.44 6.41839 101.25 6.46487C101.061 6.51136 100.889 6.53414 100.732 6.53414H98.9103C98.6433 6.53414 98.44 6.59612 98.3024 6.72098C98.1639 6.84494 98.0946 7.00352 98.0946 7.19766V7.41822C98.0946 7.55676 98.1456 7.70167 98.2468 7.85297C98.348 8.00426 98.4491 8.13186 98.5503 8.23303L101.725 11.3665H104.017L100.347 7.95687Z" fill="white"/>
<path d="M126.998 5.52787C126.984 5.21525 126.945 4.90172 126.88 4.58911C126.816 4.27649 126.716 3.97299 126.583 3.67769C126.449 3.3833 126.268 3.10714 126.038 2.8492C125.744 2.52747 125.366 2.25587 124.906 2.03439C124.446 1.81383 123.88 1.70264 123.208 1.70264H118.06V11.3664H123.457C123.834 11.3664 124.17 11.33 124.465 11.2561C124.759 11.1823 125.017 11.0857 125.238 10.9663C125.458 10.8469 125.643 10.7184 125.79 10.5799C125.937 10.4422 126.062 10.3083 126.163 10.1798C126.356 9.92183 126.51 9.63017 126.625 9.30297C126.74 8.97668 126.827 8.6431 126.888 8.30223C126.948 7.96136 126.984 7.63052 126.998 7.30787C127.012 6.98614 127.019 6.69175 127.019 6.42471C127.019 6.13943 127.012 5.84049 126.998 5.52787ZM124.99 8.12997C124.889 8.5392 124.778 8.83633 124.658 9.02043C124.447 9.3613 124.173 9.59554 123.837 9.72496C123.502 9.85347 123.08 9.91818 122.575 9.91818H119.884C119.883 9.60921 119.882 9.30479 119.882 9.25558V3.15271H122.395C122.561 3.15271 122.735 3.16182 122.92 3.18005C123.104 3.19828 123.288 3.23291 123.472 3.28395C123.657 3.33499 123.833 3.40608 124.004 3.49813C124.174 3.59019 124.328 3.7105 124.466 3.85723C124.613 4.014 124.733 4.19081 124.825 4.38859C124.917 4.58637 124.985 4.79144 125.032 5.00289C125.078 5.21434 125.108 5.43035 125.122 5.65182C125.136 5.87239 125.142 6.08475 125.142 6.28708C125.141 7.10645 125.091 7.72075 124.99 8.12997Z" fill="white"/>
<path d="M131.15 9.91825V7.15664H136.879V5.70657H131.15V3.15277H137.017V1.70361H129.328V11.3674H137.073V9.91825H131.15Z" fill="white"/>
<path d="M109.645 1.70361L109.63 1.73825L105.593 11.3674H107.512L108.013 10.1178L110.549 3.69233C110.576 3.61851 110.613 3.53375 110.66 3.43622C110.705 3.33961 110.76 3.29131 110.826 3.29131C110.89 3.29131 110.945 3.33961 110.992 3.43622C111.037 3.53283 111.075 3.6176 111.102 3.69233L113.593 10.0258L114.139 11.3683H116.058L112.011 1.70452H109.645V1.70361ZM109.839 1.83486L109.83 1.79567L109.839 1.83486Z" fill="white"/>
<path d="M84.389 1.70361L83.5059 3.15277H87.2527V11.3674H89.0746V3.15277H92.8579V1.70361H84.389Z" fill="white"/>
<path d="M33.3628 13.3579H34.3216C34.6014 13.3579 34.8548 13.398 35.0826 13.4773C35.3105 13.5566 35.5037 13.6669 35.665 13.8091C35.8254 13.9503 35.9494 14.118 36.0369 14.3122C36.1244 14.5063 36.1681 14.7178 36.1681 14.9465C36.1681 15.1753 36.1244 15.3867 36.0369 15.5809C35.9494 15.775 35.8254 15.9427 35.665 16.084C35.5046 16.2252 35.3105 16.3364 35.0826 16.4157C34.8557 16.495 34.6014 16.5351 34.3216 16.5351H33.3628V13.3579ZM34.3362 16.0056C34.5048 16.0056 34.6607 15.9819 34.8037 15.9336C34.9468 15.8853 35.0699 15.816 35.1738 15.7249C35.2768 15.6337 35.3579 15.5225 35.4144 15.3922C35.4718 15.261 35.5001 15.1124 35.5001 14.9465C35.5001 14.7806 35.4718 14.6321 35.4144 14.5008C35.357 14.3696 35.2768 14.2593 35.1738 14.1682C35.0708 14.077 34.9468 14.0078 34.8037 13.9594C34.6607 13.9111 34.5048 13.8874 34.3362 13.8874H34.0309V16.0056H34.3362Z" fill="white"/>
<path d="M41.9123 14.3263C41.9123 14.5523 41.8485 14.7419 41.7218 14.8959C41.5942 15.0499 41.4119 15.1684 41.1731 15.2514L42.2468 16.5346H41.4165L40.496 15.3753H40.2809V16.5346H39.6128V13.3574H40.5625C40.7594 13.3574 40.9407 13.3775 41.1066 13.4167C41.2725 13.4559 41.4147 13.5169 41.5341 13.598C41.6535 13.6792 41.7464 13.7803 41.813 13.9006C41.8795 14.0228 41.9123 14.164 41.9123 14.3263ZM41.2442 14.3408C41.2442 14.1786 41.1804 14.061 41.0537 13.9881C40.9261 13.9152 40.7612 13.8788 40.5579 13.8788H40.2818V14.8713H40.4823C40.7111 14.8713 40.8961 14.8266 41.0355 14.7373C41.175 14.6471 41.2442 14.5158 41.2442 14.3408Z" fill="white"/>
<path d="M46.2306 16.5356H45.5625V13.3584H46.2306V16.5356Z" fill="white"/>
<path d="M51.7739 13.3574H52.4702L51.4011 16.5346H50.6282L49.5601 13.3574H50.2564L51.0147 15.8574L51.7739 13.3574Z" fill="white"/>
<path d="M55.7769 13.3574H57.6854V13.887H56.4449V14.6553H57.628V15.1848H56.4449V16.0051H57.7V16.5346H55.7778V13.3574H55.7769Z" fill="white"/>
<path d="M67.3561 13.3574V13.887H66.4784V16.5346H65.8103V13.887H64.9326V13.3574H67.3561Z" fill="white"/>
<path d="M72.7234 16.5356V15.1995H71.4064V16.5356H70.7383V13.3584H71.4064V14.6462H72.7234V13.3584H73.3914V16.5356H72.7234Z" fill="white"/>
<path d="M77.0166 13.3574H78.9251V13.887H77.6847V14.6553H78.8677V15.1848H77.6847V16.0051H78.9397V16.5346H77.0175V13.3574H77.0166Z" fill="white"/>
<path d="M89.1396 13.3574H89.7411L89.9744 16.5346H89.3209L89.2116 14.5596L88.5098 16.0005H87.8226L87.1208 14.5596L87.0114 16.5346H86.3579L86.5912 13.3574H87.1919L88.1653 15.409L89.1396 13.3574Z" fill="white"/>
<path d="M96.3919 16.5356H95.7001L95.4759 15.8675H94.1689L93.9447 16.5356H93.2529L94.4597 13.3584H95.1851L96.3919 16.5356ZM94.8224 13.8925L94.3457 15.338H95.3L94.8224 13.8925Z" fill="white"/>
<path d="M102.074 14.3263C102.074 14.5523 102.01 14.7419 101.883 14.8959C101.756 15.0499 101.574 15.1684 101.335 15.2514L102.408 16.5346H101.578L100.658 15.3753H100.442V16.5346H99.7744V13.3574H100.724C100.921 13.3574 101.102 13.3775 101.268 13.4167C101.433 13.4568 101.576 13.5169 101.696 13.598C101.815 13.6792 101.908 13.7803 101.975 13.9006C102.04 14.0228 102.074 14.164 102.074 14.3263ZM101.406 14.3408C101.406 14.1786 101.342 14.061 101.215 13.9881C101.088 13.9152 100.923 13.8788 100.72 13.8788H100.443V14.8713H100.644C100.873 14.8713 101.058 14.8266 101.197 14.7373C101.336 14.6471 101.406 14.5158 101.406 14.3408Z" fill="white"/>
<path d="M105.699 16.5356V13.3584H106.367V14.885L107.469 13.3584H108.242L107.072 14.9279L108.322 16.5356H107.497L106.366 14.9753V16.5356H105.699Z" fill="white"/>
<path d="M111.639 13.3574H113.547V13.887H112.307V14.6553H113.49V15.1848H112.307V16.0051H113.562V16.5346H111.64V13.3574H111.639Z" fill="white"/>
<path d="M119.282 13.3574V13.887H118.405V16.5346H117.737V13.887H116.859V13.3574H119.282Z" fill="white"/>
</g>
<defs>
<linearGradient id="paint0_linear" x1="15.3025" y1="-0.176344" x2="26.9986" y2="17.5919" gradientUnits="userSpaceOnUse">
<stop stop-color="#00C176"/>
<stop offset="0.25" stop-color="#88C100"/>
<stop offset="0.6969" stop-color="#FF8A00"/>
<stop offset="0.9209" stop-color="#FF252C"/>
<stop offset="1" stop-color="#FF003C"/>
</linearGradient>
<linearGradient id="paint1_linear" x1="18.204" y1="-2.0865" x2="29.9001" y2="15.6817" gradientUnits="userSpaceOnUse">
<stop stop-color="#00C176"/>
<stop offset="0.25" stop-color="#88C100"/>
<stop offset="0.6969" stop-color="#FF8A00"/>
<stop offset="0.9209" stop-color="#FF252C"/>
<stop offset="1" stop-color="#FF003C"/>
</linearGradient>
<linearGradient id="paint2_linear" x1="15.2054" y1="-0.111831" x2="26.9015" y2="17.6564" gradientUnits="userSpaceOnUse">
<stop stop-color="#00C176"/>
<stop offset="0.25" stop-color="#88C100"/>
<stop offset="0.6969" stop-color="#FF8A00"/>
<stop offset="0.9209" stop-color="#FF252C"/>
<stop offset="1" stop-color="#FF003C"/>
</linearGradient>
<linearGradient id="paint3_linear" x1="17.4053" y1="-1.55997" x2="29.1013" y2="16.2082" gradientUnits="userSpaceOnUse">
<stop stop-color="#00C176"/>
<stop offset="0.25" stop-color="#88C100"/>
<stop offset="0.6969" stop-color="#FF8A00"/>
<stop offset="0.9209" stop-color="#FF252C"/>
<stop offset="1" stop-color="#FF003C"/>
</linearGradient>
<linearGradient id="paint4_linear" x1="17.4572" y1="-1.59527" x2="29.1533" y2="16.1729" gradientUnits="userSpaceOnUse">
<stop stop-color="#00C176"/>
<stop offset="0.25" stop-color="#88C100"/>
<stop offset="0.6969" stop-color="#FF8A00"/>
<stop offset="0.9209" stop-color="#FF252C"/>
<stop offset="1" stop-color="#FF003C"/>
</linearGradient>
<clipPath id="clip0">
<rect width="136.769" height="17.7891" fill="white" transform="translate(0.303711 0.225586)"/>
</clipPath>
</defs>
</svg>
