<svg width="80" height="80" viewBox="0 0 80 80" fill="none" xmlns="http://www.w3.org/2000/svg">
<path d="M8.14 53.916C8.04772 54.6068 8.00095 55.303 8 56C8 65.512 16.552 73.136 26.084 71.856C28.856 76.792 34.136 80 40 80C45.864 80 51.144 76.792 53.916 71.856C63.428 73.136 72 65.512 72 56C72 55.308 71.952 54.612 71.86 53.916C76.792 51.144 80 45.86 80 40C80 34.14 76.792 28.856 71.86 26.084C71.952 25.388 72 24.692 72 24C72 14.488 63.428 6.848 53.916 8.144C51.144 3.208 45.864 0 40 0C34.136 0 28.856 3.208 26.084 8.144C16.552 6.848 8 14.488 8 24C8 24.692 8.048 25.388 8.14 26.084C3.208 28.856 0 34.14 0 40C0 45.86 3.208 51.144 8.14 53.916ZM13.908 32.304L18.316 31.132L16.58 26.92C16.1992 25.9935 16.0023 25.0017 16 24C16 19.588 19.588 16 24 16C24.988 16 25.996 16.2 26.92 16.58L31.136 18.316L32.308 13.908C32.7594 12.2127 33.7583 10.7139 35.1493 9.64482C36.5403 8.57571 38.2456 7.99611 40 7.99611C41.7544 7.99611 43.4597 8.57571 44.8507 9.64482C46.2417 10.7139 47.2406 12.2127 47.692 13.908L48.864 18.316L53.08 16.58C54.004 16.2 55.012 16 56 16C60.412 16 64 19.588 64 24C64 24.988 63.8 26 63.42 26.92L61.684 31.132L66.092 32.304C67.7834 32.761 69.2771 33.7625 70.3422 35.1536C71.4073 36.5447 71.9845 38.248 71.9845 40C71.9845 41.752 71.4073 43.4553 70.3422 44.8464C69.2771 46.2375 67.7834 47.239 66.092 47.696L61.684 48.868L63.42 53.08C63.8 54 64 55.012 64 56C64 60.412 60.412 64 56 64C55.012 64 54.004 63.8 53.08 63.42L48.864 61.684L47.692 66.092C47.2406 67.7873 46.2417 69.2861 44.8507 70.3552C43.4597 71.4243 41.7544 72.0039 40 72.0039C38.2456 72.0039 36.5403 71.4243 35.1493 70.3552C33.7583 69.2861 32.7594 67.7873 32.308 66.092L31.136 61.684L26.92 63.42C25.9934 63.8005 25.0017 63.9974 24 64C19.588 64 16 60.412 16 56C16 55.012 16.2 54 16.58 53.08L18.316 48.868L13.908 47.696C12.2166 47.239 10.7229 46.2375 9.65779 44.8464C8.59268 43.4553 8.01551 41.752 8.01551 40C8.01551 38.248 8.59268 36.5447 9.65779 35.1536C10.7229 33.7625 12.2166 32.761 13.908 32.304Z" fill="#444444"/>
<path d="M54.9679 34.8402L49.3359 29.1602L36.0119 42.3562L30.8279 37.1722L25.1719 42.8282L35.9879 53.6442L54.9679 34.8402Z" fill="#444444"/>
</svg>
