<svg width="60" height="61" viewBox="0 0 60 61" fill="none" xmlns="http://www.w3.org/2000/svg">
<path d="M28.25 10.7754C28.25 11.7419 29.0335 12.5254 30 12.5254C30.9665 12.5254 31.75 11.7419 31.75 10.7754H28.25ZM31.75 5.77539C31.75 4.80889 30.9665 4.02539 30 4.02539C29.0335 4.02539 28.25 4.80889 28.25 5.77539H31.75ZM28.25 55.7754C28.25 56.7419 29.0335 57.5254 30 57.5254C30.9665 57.5254 31.75 56.7419 31.75 55.7754H28.25ZM31.75 50.7754C31.75 49.8089 30.9665 49.0254 30 49.0254C29.0335 49.0254 28.25 49.8089 28.25 50.7754H31.75ZM30 12.7754V11.0254V12.7754ZM48 30.7754L49.75 30.7754L48 30.7754ZM50 29.0254C49.0335 29.0254 48.25 29.8089 48.25 30.7754C48.25 31.7419 49.0335 32.5254 50 32.5254V29.0254ZM55 32.5254C55.9665 32.5254 56.75 31.7419 56.75 30.7754C56.75 29.8089 55.9665 29.0254 55 29.0254V32.5254ZM5 29.0254C4.0335 29.0254 3.25 29.8089 3.25 30.7754C3.25 31.7419 4.0335 32.5254 5 32.5254V29.0254ZM10 32.5254C10.9665 32.5254 11.75 31.7419 11.75 30.7754C11.75 29.8089 10.9665 29.0254 10 29.0254V32.5254ZM31.75 10.7754V5.77539H28.25V10.7754H31.75ZM31.75 55.7754V50.7754H28.25V55.7754H31.75ZM30 11.0254C26.0938 11.0254 22.2754 12.1837 19.0275 14.3539L20.972 17.264C23.6443 15.4784 26.7861 14.5254 30 14.5254V11.0254ZM19.0275 14.3539C15.7796 16.524 13.2482 19.6086 11.7534 23.2174L14.987 24.5568C16.2169 21.5875 18.2997 19.0496 20.972 17.264L19.0275 14.3539ZM11.7534 23.2174C10.2585 26.8262 9.86743 30.7973 10.6295 34.6284L14.0622 33.9456C13.4352 30.7934 13.757 27.5261 14.987 24.5568L11.7534 23.2174ZM10.6295 34.6284C11.3915 38.4596 13.2726 41.9787 16.0346 44.7407L18.5095 42.2659C16.2369 39.9933 14.6892 37.0978 14.0622 33.9456L10.6295 34.6284ZM16.0346 44.7407C18.7967 47.5028 22.3158 49.3838 26.147 50.1459L26.8298 46.7132C23.6776 46.0861 20.7821 44.5385 18.5095 42.2659L16.0346 44.7407ZM26.147 50.1459C29.9781 50.908 33.9492 50.5168 37.558 49.022L36.2186 45.7884C33.2493 47.0184 29.982 47.3402 26.8298 46.7132L26.147 50.1459ZM37.558 49.022C41.1668 47.5272 44.2514 44.9958 46.4215 41.7479L43.5114 39.8034C41.7258 42.4757 39.1879 44.5585 36.2186 45.7884L37.558 49.022ZM46.4215 41.7479C48.5917 38.5 49.75 34.6816 49.75 30.7754H46.25C46.25 33.9893 45.297 37.1311 43.5114 39.8034L46.4215 41.7479ZM49.75 30.7754C49.75 25.5374 47.6692 20.5139 43.9654 16.81L41.4905 19.2849C44.5379 22.3324 46.25 26.4656 46.25 30.7754L49.75 30.7754ZM43.9654 16.81C40.2615 13.1062 35.238 11.0254 30 11.0254L30 14.5254C34.3098 14.5254 38.443 16.2374 41.4905 19.2849L43.9654 16.81ZM50 32.5254H55V29.0254H50V32.5254ZM5 32.5254H10V29.0254H5V32.5254Z" fill="#444444"/>
</svg>
