<svg width="80" height="85" viewBox="0 0 80 85" fill="none" xmlns="http://www.w3.org/2000/svg">
<path d="M39.7071 59.8219C49.0716 59.8219 56.6871 52.2063 56.6871 42.8419C56.6871 33.4774 49.0716 25.8618 39.7071 25.8618C30.3426 25.8618 22.7271 33.4774 22.7271 42.8419C22.7271 52.2063 30.3426 59.8219 39.7071 59.8219ZM39.7071 34.3518C44.3087 34.3518 48.1971 38.2403 48.1971 42.8419C48.1971 47.4434 44.3087 51.3319 39.7071 51.3319C35.1055 51.3319 31.2171 47.4434 31.2171 42.8419C31.2171 38.2403 35.1055 34.3518 39.7071 34.3518Z" fill="#444444"/>
<path d="M1.13694 60.0075L5.38195 67.3513C7.63605 71.244 13.0612 72.7043 16.9708 70.4502L19.2164 69.1512C21.6723 71.0831 24.3801 72.6712 27.265 73.8717V76.4102C27.265 81.0924 31.0727 84.9002 35.755 84.9002H44.245C48.9273 84.9002 52.735 81.0924 52.735 76.4102V73.8717C55.6189 72.671 58.3265 71.0844 60.7836 69.1554L63.0292 70.4544C66.9473 72.7043 72.3597 71.2525 74.6223 67.3513L78.8631 60.0117C79.9881 58.062 80.2932 55.7454 79.7113 53.5709C79.1295 51.3964 77.7083 49.5417 75.76 48.4143L73.6162 47.1748C74.072 44.0443 74.072 40.8644 73.6162 37.7339L75.76 36.4943C77.7074 35.3662 79.1279 33.5115 79.7096 31.3373C80.2914 29.1631 79.9869 26.847 78.8631 24.897L74.6223 17.5574C72.3682 13.652 66.9473 12.1874 63.0292 14.45L60.7836 15.749C58.3277 13.8171 55.6199 12.229 52.735 11.0285V8.49002C52.735 3.80777 48.9273 0 44.245 0H35.755C31.0727 0 27.265 3.80777 27.265 8.49002V11.0285C24.3811 12.2292 21.6735 13.8157 19.2164 15.7447L16.9708 14.4458C13.0484 12.1917 7.6318 13.652 5.3777 17.5531L1.13694 24.8927C0.0119354 26.8425 -0.293157 29.159 0.288678 31.3335C0.870513 33.5081 2.29169 35.3627 4.24004 36.4901L6.38377 37.7296C5.9263 40.8586 5.9263 44.0374 6.38377 47.1663L4.24004 48.4058C2.29226 49.5349 0.871747 51.3903 0.290028 53.5651C-0.29169 55.74 0.012879 58.0568 1.13694 60.0075ZM15.2558 48.2997C14.7765 46.3867 14.5327 44.4223 14.5299 42.4501C14.5299 40.4889 14.7762 38.5192 15.2516 36.6005C15.4755 35.7062 15.4018 34.7633 15.0418 33.9146C14.6818 33.0658 14.055 32.3576 13.2564 31.897L8.4893 29.1377L12.7258 21.7981L17.5863 24.6083C18.379 25.067 19.299 25.2562 20.2084 25.1475C21.1177 25.0388 21.9672 24.6381 22.6294 24.0055C25.5013 21.2741 28.9644 19.2418 32.7495 18.0668C33.619 17.8013 34.3803 17.2637 34.9213 16.5332C35.4624 15.8026 35.7546 14.9176 35.755 14.0085V8.49002H44.245V14.0085C44.2454 14.9176 44.5376 15.8026 45.0787 16.5332C45.6197 17.2637 46.381 17.8013 47.2505 18.0668C51.0349 19.2435 54.4976 21.2756 57.3706 24.0055C58.0335 24.6369 58.8829 25.0367 59.7919 25.1454C60.7009 25.254 61.6206 25.0656 62.4137 24.6083L67.2699 21.8024L71.5149 29.142L66.7436 31.897C65.9454 32.3581 65.3191 33.0664 64.9592 33.915C64.5992 34.7635 64.5252 35.7062 64.7484 36.6005C65.2238 38.5192 65.4701 40.4889 65.4701 42.4501C65.4701 44.407 65.2238 46.3767 64.7442 48.2997C64.5214 49.1945 64.596 50.1375 64.9567 50.9861C65.3174 51.8347 65.9447 52.5427 66.7436 53.0032L71.5107 55.7582L67.2742 63.0978L62.4137 60.2919C61.6212 59.8325 60.701 59.6429 59.7915 59.7516C58.882 59.8604 58.0324 60.2615 57.3706 60.8947C54.4987 63.6261 51.0356 65.6583 47.2505 66.8334C46.381 67.0989 45.6197 67.6365 45.0787 68.367C44.5376 69.0976 44.2454 69.9826 44.245 70.8917L44.2535 76.4102H35.755V70.8917C35.7546 69.9826 35.4624 69.0976 34.9213 68.367C34.3803 67.6365 33.619 67.0989 32.7495 66.8334C28.9651 65.6567 25.5024 63.6246 22.6294 60.8947C21.9685 60.2597 21.1184 59.8576 20.2083 59.7496C19.2981 59.6416 18.3776 59.8335 17.5863 60.2961L12.7301 63.1063L8.48505 55.7667L13.2564 53.0032C14.0553 52.5427 14.6826 51.8347 15.0433 50.9861C15.404 50.1375 15.4786 49.1945 15.2558 48.2997Z" fill="#444444"/>
</svg>
