<svg width="96" height="96" viewBox="0 0 96 96" fill="none" xmlns="http://www.w3.org/2000/svg">
<path d="M61.9428 39.5833V22.9809C61.9428 19.273 60.4698 15.7169 57.8479 13.0949C55.2259 10.473 51.6698 9 47.9619 9C44.2539 9 40.6978 10.473 38.0758 13.0949C35.4539 15.7169 33.9809 19.273 33.9809 22.9809V39.5833M28.3886 39.5833H67.5352C72.168 39.5833 75.9237 43.339 75.9237 47.9718V78.7299C75.9237 83.3628 72.168 87.1184 67.5352 87.1184H28.3886C23.7557 87.1184 20 83.3628 20 78.7299V47.9718C20 43.339 23.7557 39.5833 28.3886 39.5833Z" stroke="white" stroke-width="4.59" stroke-linecap="round" stroke-linejoin="round"/>
</svg>
