<svg width="92" height="92" viewBox="0 0 92 92" fill="none" xmlns="http://www.w3.org/2000/svg">
<path d="M82.4151 55.7904V44.9437C85.0851 44.0018 87.3984 42.2571 89.0379 39.9488C90.6773 37.6405 91.5626 34.8816 91.5723 32.0503C91.5723 24.4773 85.4095 18.3145 77.8365 18.3145C76.0372 18.3136 74.2555 18.6673 72.5931 19.3556C70.9307 20.0438 69.4202 21.0529 68.1481 22.3253L50.2228 15.1552C50.2686 14.6836 50.3648 14.2212 50.3648 13.7358C50.3648 6.16282 44.202 0 36.6289 0C29.0559 0 22.8931 6.16282 22.8931 13.7358C22.8931 17.2248 24.2438 20.3794 26.3957 22.8061L18.7311 33.021C17.1417 32.3867 15.4471 32.0574 13.7358 32.0503C6.16282 32.0503 0 38.2131 0 45.7862C0 53.3592 6.16282 59.522 13.7358 59.522C14.4638 59.522 15.169 59.4167 15.8649 59.3068L24.7245 71.1151C23.589 73.1113 22.8931 75.3823 22.8931 77.8365C22.8931 85.4095 29.0559 91.5723 36.6289 91.5723C39.5846 91.562 42.4578 90.5966 44.8201 88.8202C47.1824 87.0437 48.9073 84.5513 49.7375 81.7146L67.878 78.0883C69.1546 79.4512 70.6967 80.5382 72.4094 81.2823C74.1221 82.0264 75.9691 82.412 77.8365 82.4151C85.4095 82.4151 91.5723 76.2523 91.5723 68.6792C91.563 65.8485 90.6778 63.0899 89.0382 60.7823C87.3987 58.4746 85.0851 56.7309 82.4151 55.7904ZM77.8365 27.4717C78.7433 27.4708 79.6301 27.7389 80.3845 28.2422C81.1389 28.7455 81.727 29.4612 82.0745 30.2989C82.422 31.1365 82.5131 32.0584 82.3364 32.9479C82.1597 33.8374 81.7231 34.6545 81.0819 35.2957C80.4406 35.9369 79.6235 36.3735 78.7341 36.5502C77.8446 36.7269 76.9227 36.6358 76.085 36.2883C75.2474 35.9409 74.5316 35.3527 74.0284 34.5983C73.5251 33.8439 73.257 32.9572 73.2579 32.0503C73.2579 29.5275 75.3091 27.4717 77.8365 27.4717ZM36.6289 9.15723C37.5358 9.15633 38.4225 9.42447 39.1769 9.92773C39.9313 10.431 40.5195 11.1467 40.8669 11.9844C41.2144 12.8221 41.3056 13.744 41.1289 14.6334C40.9522 15.5229 40.5156 16.34 39.8743 16.9812C39.2331 17.6225 38.416 18.0591 37.5265 18.2358C36.637 18.4125 35.7151 18.3213 34.8775 17.9739C34.0398 17.6264 33.3241 17.0383 32.8208 16.2839C32.3176 15.5295 32.0494 14.6427 32.0503 13.7358C32.0503 11.213 34.1015 9.15723 36.6289 9.15723ZM9.15723 45.7862C9.15633 44.8793 9.42447 43.9926 9.92773 43.2382C10.431 42.4838 11.1467 41.8956 11.9844 41.5481C12.8221 41.2007 13.744 41.1095 14.6334 41.2862C15.5229 41.4629 16.34 41.8995 16.9812 42.5408C17.6225 43.182 18.0591 43.9991 18.2358 44.8886C18.4125 45.778 18.3213 46.7 17.9739 47.5376C17.6264 48.3753 17.0383 49.091 16.2839 49.5943C15.5295 50.0975 14.6427 50.3657 13.7358 50.3648C11.2085 50.3648 9.15723 48.309 9.15723 45.7862ZM36.6289 82.4151C35.4146 82.4151 34.25 81.9327 33.3914 81.0741C32.5327 80.2154 32.0503 79.0508 32.0503 77.8365C32.0503 76.6221 32.5327 75.4576 33.3914 74.5989C34.25 73.7402 35.4146 73.2579 36.6289 73.2579C37.8433 73.2579 39.0078 73.7402 39.8665 74.5989C40.7252 75.4576 41.2075 76.6221 41.2075 77.8365C41.2075 79.0508 40.7252 80.2154 39.8665 81.0741C39.0078 81.9327 37.8433 82.4151 36.6289 82.4151ZM49.2705 72.4703C48.2148 69.9904 46.4539 67.8751 44.2066 66.3872C41.9592 64.8992 39.3242 64.1041 36.6289 64.1006C34.8616 64.1006 33.1858 64.4623 31.6337 65.0759L23.9691 54.861C26.121 52.4297 27.4717 49.2751 27.4717 45.7862C27.4717 43.332 26.7757 41.061 25.6448 39.0693L34.5045 27.2565C35.2004 27.3664 35.9009 27.4717 36.6289 27.4717C38.4282 27.4726 40.2099 27.1188 41.8723 26.4306C43.5347 25.7424 45.0452 24.7332 46.3173 23.4608L64.2426 30.6309C64.1968 31.1025 64.1006 31.565 64.1006 32.0503C64.1006 38.0117 67.9421 43.0436 73.2579 44.9391V55.7859C70.5882 56.7269 68.275 58.4707 66.6356 60.7783C64.9961 63.0858 64.1106 65.844 64.1006 68.6747C64.1006 68.954 64.1693 69.2104 64.183 69.4851L49.2705 72.4703ZM77.8365 73.2579C76.6221 73.2579 75.4576 72.7755 74.5989 71.9168C73.7402 71.0582 73.2579 69.8936 73.2579 68.6792C73.2579 67.4649 73.7402 66.3003 74.5989 65.4417C75.4576 64.583 76.6221 64.1006 77.8365 64.1006C79.0508 64.1006 80.2154 64.583 81.0741 65.4417C81.9327 66.3003 82.4151 67.4649 82.4151 68.6792C82.4151 69.8936 81.9327 71.0582 81.0741 71.9168C80.2154 72.7755 79.0508 73.2579 77.8365 73.2579Z" fill="white"/>
</svg>
