<svg width="96" height="96" viewBox="0 0 96 96" fill="none" xmlns="http://www.w3.org/2000/svg">
<path d="M66 27H87V48M9 69L31.7569 46.2431C32.314 45.6858 32.9755 45.2437 33.7036 44.9421C34.4316 44.6405 35.212 44.4853 36 44.4853C36.788 44.4853 37.5684 44.6405 38.2964 44.9421C39.0245 45.2437 39.686 45.6858 40.2431 46.2431L49.7569 55.7569C50.314 56.3142 50.9755 56.7563 51.7036 57.0579C52.4316 57.3595 53.212 57.5147 54 57.5147C54.788 57.5147 55.5684 57.3595 56.2964 57.0579C57.0245 56.7563 57.686 56.3142 58.2431 55.7569L84 30" stroke="black" stroke-width="4" stroke-linecap="round" stroke-linejoin="round"/>
</svg>
