<svg width="96" height="96" viewBox="0 0 96 96" fill="none" xmlns="http://www.w3.org/2000/svg">
<path d="M73.3824 31.6884H22.6185C18.4131 31.6884 15.0039 35.0975 15.0039 39.3029V69.7613C15.0039 73.9667 18.4131 77.3759 22.6185 77.3759H73.3824C77.5878 77.3759 80.997 73.9667 80.997 69.7613V39.3029C80.997 35.0975 77.5878 31.6884 73.3824 31.6884Z" stroke="#444444" stroke-width="4.24833" stroke-linejoin="round"/>
<path d="M72.6463 31.6884V26.9293C72.646 25.7621 72.388 24.6093 71.8908 23.5532C71.3936 22.4972 70.6694 21.5639 69.77 20.8199C68.8706 20.0759 67.818 19.5397 66.6875 19.2493C65.5569 18.959 64.3762 18.9217 63.2296 19.1402L21.4509 26.271C19.6366 26.6167 17.9999 27.5848 16.8229 29.0082C15.646 30.4315 15.0027 32.221 15.0039 34.068V41.8412" stroke="#444444" stroke-width="4.24833" stroke-linejoin="round"/>
<path d="M65.7673 59.6087C64.7633 59.6087 63.7818 59.311 62.947 58.7532C62.1122 58.1954 61.4616 57.4026 61.0773 56.475C60.6931 55.5474 60.5926 54.5267 60.7885 53.542C60.9843 52.5572 61.4678 51.6527 62.1778 50.9428C62.8877 50.2328 63.7922 49.7493 64.777 49.5535C65.7617 49.3576 66.7824 49.4581 67.71 49.8424C68.6376 50.2266 69.4304 50.8772 69.9882 51.712C70.546 52.5468 70.8437 53.5283 70.8437 54.5323C70.8437 55.8787 70.3089 57.1699 69.3569 58.1219C68.4049 59.0739 67.1137 59.6087 65.7673 59.6087Z" fill="#444444"/>
</svg>
