<svg width="88" height="78" viewBox="0 0 88 78" fill="none" xmlns="http://www.w3.org/2000/svg">
<path d="M74.7692 19.2168H13.2308C8.13276 19.2168 4 23.3053 4 28.3487V64.8763C4 69.9197 8.13276 74.0081 13.2308 74.0081H74.7692C79.8672 74.0081 84 69.9197 84 64.8763V28.3487C84 23.3053 79.8672 19.2168 74.7692 19.2168Z" stroke="#444444" stroke-width="7.45769" stroke-linejoin="round"/>
<path d="M73.8769 19.2168V13.5093C73.8765 12.1095 73.5637 10.727 72.961 9.46053C72.3583 8.19404 71.4804 7.07476 70.3901 6.18255C69.2998 5.29034 68.0238 4.64719 66.6533 4.29899C65.2828 3.95078 63.8515 3.90611 62.4615 4.16816L11.8154 12.7198C9.616 13.1344 7.63183 14.2954 6.20509 16.0024C4.77835 17.7094 3.99848 19.8555 4 22.0705V31.3926" stroke="#444444" stroke-width="7.45769" stroke-linejoin="round"/>
<path d="M65.5386 52.7004C64.3215 52.7004 63.1317 52.3433 62.1197 51.6744C61.1077 51.0054 60.319 50.0546 59.8532 48.9422C59.3874 47.8298 59.2656 46.6057 59.503 45.4248C59.7405 44.2438 60.3266 43.1591 61.1872 42.3077C62.0478 41.4562 63.1443 40.8764 64.3381 40.6415C65.5318 40.4066 66.7691 40.5272 67.8936 40.988C69.0181 41.4487 69.9792 42.229 70.6554 43.2302C71.3315 44.2313 71.6925 45.4084 71.6925 46.6125C71.6925 48.2271 71.0441 49.7756 69.89 50.9173C68.736 52.059 67.1707 52.7004 65.5386 52.7004Z" fill="#444444"/>
</svg>
