<svg width="61" height="61" fill="none" xmlns="http://www.w3.org/2000/svg"><circle cx="30.5" cy="30.5" r="30.5" fill="url(#paint0_linear)"/><path d="M30.765 18C23.715 18 18 23.715 18 30.764c0 6.37 4.667 11.65 10.77 12.611v-8.92h-3.242v-3.691h3.242v-2.812c0-3.202 1.906-4.968 4.82-4.968 1.397 0 2.86.25 2.86.25v3.139h-1.613c-1.583 0-2.079.985-2.079 1.995v2.393h3.538l-.566 3.691h-2.97v8.92c6.103-.955 10.77-6.237 10.77-12.608C43.53 23.714 37.815 18 30.765 18z" fill="#000"/><defs><linearGradient id="paint0_linear" x1="61" y1="30.5" x2="0" y2="30.5" gradientUnits="userSpaceOnUse"><stop stop-color="#D99913"/><stop offset="1" stop-color="#F7DC39"/></linearGradient></defs></svg>