<svg width="96" height="96" fill="none" xmlns="http://www.w3.org/2000/svg"><path d="M72 45l-2.154.214a2.165 2.165 0 002.041 1.948L72 45zm-45.333-8l.215 2.154a2.165 2.165 0 001.856-1.523L26.667 37zm33.156 4.061a2.165 2.165 0 10-3.312-2.789l3.312 2.79zM40.2 61l-1.607 1.45a2.165 2.165 0 003.263-.055L40.2 61zm-6.093-9.984a2.165 2.165 0 00-3.214 2.901l3.214-2.9zm40.047-6.23C72.574 28.876 61.397 18.835 48 18.835v4.33c10.937 0 20.462 8.113 21.846 22.049l4.308-.428zM48 18.835c-12.656 0-20.764 8.866-23.404 17.534l4.142 1.262C30.95 30.365 37.656 23.165 48 23.165v-4.33zm-21.549 16.01c-5.362.537-10.498 2.496-14.327 5.988-3.87 3.53-6.289 8.53-6.289 14.834h4.33c0-5.099 1.915-8.933 4.877-11.635 3.005-2.74 7.202-4.414 11.84-4.878l-.43-4.308zM5.835 55.668c0 12.387 10.17 20.831 22.165 20.831v-4.33c-10.006 0-17.835-6.889-17.835-16.501h-4.33zM28 76.498h43.333v-4.33H28v4.33zm43.333 0c4.91 0 9.605-1.22 13.12-4.02 3.585-2.854 5.712-7.17 5.712-12.811h-4.33c0 4.451-1.623 7.469-4.08 9.424-2.526 2.012-6.165 3.077-10.422 3.077v4.33zm18.832-16.831c0-5.72-2.573-9.907-6.162-12.652-3.52-2.692-7.965-3.973-11.89-4.177l-.226 4.324c3.242.169 6.796 1.236 9.485 3.292 2.62 2.003 4.463 4.963 4.463 9.213h4.33zM56.511 38.272L38.544 59.605l3.312 2.79L59.823 41.06l-3.312-2.789zM41.807 59.55l-7.7-8.534-3.214 2.901 7.7 8.533 3.214-2.9z" fill="#fff"/></svg>