<svg width="96" height="96" viewBox="0 0 96 96" fill="none" xmlns="http://www.w3.org/2000/svg">
<path d="M72 45L69.8456 45.2139C69.9513 46.2786 70.8189 47.1064 71.8874 47.1621L72 45ZM26.6667 37L26.8821 39.1543C27.7513 39.0673 28.4832 38.4665 28.7377 37.6308L26.6667 37ZM59.8226 41.0613C60.5929 40.1467 60.4759 38.7809 59.5613 38.0107C58.6467 37.2405 57.2809 37.3575 56.5107 38.272L59.8226 41.0613ZM40.2 61L38.5926 62.4504C39.0118 62.9149 39.6114 63.1754 40.237 63.1647C40.8626 63.154 41.4529 62.8732 41.856 62.3946L40.2 61ZM34.1074 51.0163C33.3063 50.1286 31.9373 50.0583 31.0496 50.8593C30.1619 51.6603 30.0916 53.0293 30.8926 53.9171L34.1074 51.0163ZM74.1544 44.7861C72.5748 28.8758 61.3966 18.835 48 18.835V23.165C58.9368 23.165 68.4619 31.2775 69.8456 45.2139L74.1544 44.7861ZM48 18.835C35.3443 18.835 27.2358 27.7014 24.5956 36.3692L28.7377 37.6308C30.9508 30.3653 37.6557 23.165 48 23.165V18.835ZM26.4512 34.8457C21.0888 35.382 15.9532 37.3407 12.1243 40.8332C8.25345 44.3639 5.835 49.3632 5.835 55.6667H10.165C10.165 50.5685 12.0799 46.7344 15.0423 44.0323C18.0468 41.2918 22.2445 39.618 26.8821 39.1543L26.4512 34.8457ZM5.835 55.6667C5.835 68.0541 16.0055 76.4983 28 76.4983V72.1683C17.9945 72.1683 10.165 65.2792 10.165 55.6667H5.835ZM28 76.4983H71.3333V72.1683H28V76.4983ZM71.3333 76.4983C76.2431 76.4983 80.9378 75.2771 84.4526 72.4788C88.0379 69.6244 90.165 65.3082 90.165 59.6667H85.835C85.835 64.1185 84.2121 67.1356 81.7557 69.0912C79.2289 71.1029 75.5902 72.1683 71.3333 72.1683V76.4983ZM90.165 59.6667C90.165 53.9463 87.592 49.7596 84.0026 47.0148C80.4831 44.3234 76.0377 43.0424 72.1126 42.8379L71.8874 47.1621C75.129 47.3309 78.6835 48.3982 81.3724 50.4544C83.9913 52.4571 85.835 55.4171 85.835 59.6667H90.165ZM56.5107 38.272L38.544 59.6054L41.856 62.3946L59.8226 41.0613L56.5107 38.272ZM41.8074 59.5496L34.1074 51.0163L30.8926 53.9171L38.5926 62.4504L41.8074 59.5496Z" fill="white"/>
</svg>
