<svg width="60" height="60" fill="none" xmlns="http://www.w3.org/2000/svg"><path d="M50.624 10.547a1.172 1.172 0 00-2.343 0v1.332a3.528 3.528 0 00-2.324 3.306 3.52 3.52 0 003.515 3.516 1.171 1.171 0 01.002 2.344h-.01c-.508-.005-1.03-.311-1.512-.886a1.171 1.171 0 10-1.796 1.506c.62.739 1.35 1.257 2.125 1.52v1.424a1.172 1.172 0 002.343 0v-1.413a3.516 3.516 0 00-1.152-6.839 1.173 1.173 0 01-1.171-1.172c0-.64.52-1.166 1.16-1.172.414 0 .862.21 1.279.613a1.172 1.172 0 101.63-1.684c-.601-.582-1.203-.91-1.745-1.086v-1.31z" fill="#D99913"/><path d="M55.207 1.657A1.172 1.172 0 0054.141 0h-9.375a1.172 1.172 0 00-1.067 1.657l1.798 3.955c-3.334 3.532-6.59 9.6-6.59 14.31v2.344c0 5.213 3.844 8.203 10.546 8.203 6.703 0 10.547-2.99 10.547-8.203v-2.344c0-4.71-3.257-10.778-6.591-14.31l1.798-3.955zm-2.887.687l-1.066 2.344h-3.602l-1.066-2.344h5.734zm5.336 17.578v2.344c0 4.478-3.73 5.859-8.203 5.859-4.475 0-8.203-1.382-8.203-5.86v-2.343c0-4.154 3.121-9.8 6.132-12.89h4.143c3.01 3.09 6.131 8.736 6.131 12.89zM34.708 31.123a1.173 1.173 0 01-1.172-1.172c0-.641.52-1.167 1.16-1.172h.009c.417 0 .856.212 1.27.612a1.172 1.172 0 101.63-1.684c-.6-.582-1.203-.909-1.745-1.085v-1.31a1.172 1.172 0 00-2.344 0v1.333a3.528 3.528 0 00-2.324 3.306 3.52 3.52 0 003.516 3.515 1.171 1.171 0 01.002 2.344h-.011c-.508-.004-1.03-.31-1.512-.885a1.172 1.172 0 10-1.796 1.506c.62.739 1.35 1.256 2.125 1.52v1.424a1.172 1.172 0 002.344 0v-1.413a3.516 3.516 0 00-1.152-6.84zm-14.073 7.031c-.507-.005-1.03-.31-1.511-.885a1.172 1.172 0 10-1.796 1.505c.62.74 1.35 1.257 2.125 1.521v1.424a1.172 1.172 0 002.343 0v-1.414a3.516 3.516 0 00-1.152-6.839 1.173 1.173 0 01-1.171-1.172c0-.64.52-1.166 1.16-1.171h.008c.418 0 .857.211 1.27.612a1.172 1.172 0 001.631-1.684c-.601-.582-1.203-.909-1.745-1.085v-1.31a1.172 1.172 0 00-2.344 0v1.332a3.529 3.529 0 00-2.324 3.306 3.52 3.52 0 003.515 3.516 1.171 1.171 0 11-.01 2.344zm-17.37 5.308c.62.739 1.35 1.256 2.125 1.52v1.424a1.172 1.172 0 102.344 0v-1.413a3.516 3.516 0 00-1.152-6.84 1.173 1.173 0 01-1.172-1.171c0-.641.521-1.167 1.16-1.172h.009c.417 0 .856.212 1.27.613a1.172 1.172 0 101.63-1.684c-.6-.582-1.203-.91-1.745-1.086v-1.31a1.172 1.172 0 10-2.344 0v1.333a3.528 3.528 0 00-2.324 3.306 3.52 3.52 0 003.516 3.516 1.171 1.171 0 01.002 2.344h-.011c-.507-.005-1.03-.311-1.512-.886a1.172 1.172 0 10-1.796 1.506zm37.633 15.366V44.062a1.17 1.17 0 00-1.171-1.171H30c-.647 0-1.172.524-1.172 1.172v14.765c0 .647.525 1.172 1.172 1.172h9.727c.647 0 1.171-.525 1.171-1.172zm-2.343-1.172h-7.383V45.234h7.383v12.422zm-24.141-11.25v12.422c0 .647.525 1.172 1.172 1.172h9.726c.648 0 1.172-.525 1.172-1.172V46.406c0-.647-.524-1.172-1.172-1.172h-9.726c-.647 0-1.172.525-1.172 1.172zm2.344 1.172h7.383v10.078h-7.383V47.578zM1.172 60h9.726c.648 0 1.172-.525 1.172-1.172v-7.734c0-.647-.524-1.172-1.172-1.172H1.172c-.647 0-1.172.525-1.172 1.172v7.734C0 59.475.525 60 1.172 60zm1.172-7.734h7.383v5.39H2.344v-5.39zM4.13 24.144a1.172 1.172 0 00.177 2.337c13.43-1.013 22.373-7.18 31.552-16.93v1.699a1.172 1.172 0 002.344 0V6.562a1.17 1.17 0 00-1.172-1.171h-4.687a1.172 1.172 0 000 2.342h2.006c-7.718 8.217-16.156 15.35-30.22 16.41zm50.01 23.434a1.172 1.172 0 100-2.344 1.172 1.172 0 000 2.344z" fill="#D99913"/><path d="M55.313 34.688c0-.648-.525-1.172-1.172-1.172h-9.727c-.647 0-1.172.524-1.172 1.172v24.14c0 .647.525 1.172 1.172 1.172h9.727c.647 0 1.172-.525 1.172-1.172V51.68a1.172 1.172 0 00-2.344 0v5.976h-7.383V35.86h7.383v5.274a1.172 1.172 0 002.343 0v-6.446z" fill="#D99913"/></svg>