<svg width="24" height="24" fill="none" xmlns="http://www.w3.org/2000/svg"><path d="M20.203 15.028c-.047-.169.056-.403.155-.572a7.594 7.594 0 001.392-4.378c.014-4.322-3.633-7.828-8.142-7.828-3.933 0-7.214 2.677-7.983 6.23a7.532 7.532 0 00-.173 1.603c0 4.326 3.506 7.926 8.015 7.926.717 0 1.683-.215 2.213-.36.53-.146 1.054-.338 1.19-.39a1.236 1.236 0 01.91.014l2.657.943c.059.024.12.04.183.046a.375.375 0 00.375-.375.6.6 0 00-.023-.126l-.769-2.733z" stroke="#444" stroke-width="2" stroke-miterlimit="10" stroke-linecap="round"/><path d="M3.115 10.875a6.855 6.855 0 00.3 7.156c.108.164.17.29.15.375-.018.085-.559 2.9-.559 2.9a.375.375 0 00.127.36.383.383 0 00.378.056l2.635-1.031a.736.736 0 01.563.009c.888.346 1.87.563 2.851.563a7.463 7.463 0 003.752-1.008" stroke="#444" stroke-width="2" stroke-miterlimit="10" stroke-linecap="round"/></svg>