<svg width="24" height="24" fill="none" xmlns="http://www.w3.org/2000/svg"><path d="M20.381 6.452l-7-3.192c-.76-.347-2.002-.347-2.76 0L3.623 6.452c-.825.375-.825.989 0 1.364l6.937 3.164c.792.36 2.095.36 2.887 0l6.937-3.164c.821-.375.821-.99-.004-1.364zM7.5 14.462l-3.876 1.74c-.825.375-.825.989 0 1.364l6.937 3.164c.792.36 2.095.36 2.887 0l6.937-3.164c.825-.375.825-.99 0-1.364l-3.747-1.804" stroke="#444" stroke-width="2" stroke-linecap="round" stroke-linejoin="round"/><path d="M7.5 9.586l-3.881 1.742c-.825.375-.825.989 0 1.364l6.937 3.163c.792.361 2.095.361 2.887 0l6.937-3.163c.83-.375.83-.99.005-1.364L16.5 9.586" stroke="#444" stroke-width="2" stroke-linecap="round" stroke-linejoin="round"/></svg>