<svg width="74" height="74" viewBox="0 0 74 74" fill="none" xmlns="http://www.w3.org/2000/svg">
<g clip-path="url(#clip0)">
<path d="M36.5345 8.5401L31.2556 28.2414L26.7243 30.8552C25.9752 31.285 25.3188 31.8593 24.7931 32.5446C24.2675 33.2299 23.883 34.0127 23.662 34.8477L19.2117 51.4565L18.3061 51.2138C18.0659 51.1495 17.81 51.1832 17.5947 51.3075C17.3794 51.4318 17.2223 51.6366 17.1579 51.8767L15.2168 59.1212C15.1524 59.3613 15.1861 59.6172 15.3104 59.8326C15.4347 60.0479 15.6395 60.205 15.8797 60.2694L32.1797 64.6369C32.4198 64.7013 32.6757 64.6676 32.8911 64.5433C33.1064 64.419 33.2635 64.2142 33.3279 63.974L35.269 56.7296C35.3334 56.4894 35.2997 56.2335 35.1754 56.0182C35.051 55.8029 34.8463 55.6457 34.6061 55.5814L33.7005 55.3388L33.8859 54.6469L35.3254 53.0235C37.0833 51.0328 38.0038 48.4398 37.8946 45.7863L48.1418 48.532C48.382 48.5964 48.6379 48.5627 48.8532 48.4383C49.0686 48.314 49.2257 48.1093 49.29 47.8691L58.2678 14.3635C58.3322 14.1234 58.2985 13.8675 58.1742 13.6521C58.0499 13.4368 57.8451 13.2797 57.6049 13.2153L37.6827 7.87719C37.4425 7.81284 37.1866 7.84653 36.9713 7.97085C36.756 8.09517 36.5988 8.29994 36.5345 8.5401ZM33.2153 57.1499L31.7594 62.5832L17.2705 58.7009L18.7264 53.2676L33.2153 57.1499ZM33.9221 51.7808L32.3311 53.5674C32.2362 53.6771 32.1681 53.8074 32.1321 53.9479L31.8894 54.8535L21.0228 51.9418L25.4731 35.333C25.6311 34.7366 25.9058 34.1775 26.2814 33.688C26.6569 33.1986 27.1259 32.7885 27.661 32.4814L30.5694 30.8023L29.0305 36.5453L27.0478 37.6893C26.9412 37.7509 26.8478 37.8329 26.7728 37.9306C26.6979 38.0283 26.643 38.1398 26.6111 38.2588C26.5793 38.3777 26.5712 38.5018 26.5873 38.6239C26.6034 38.746 26.6435 38.8637 26.7051 38.9703C26.7667 39.0769 26.8487 39.1703 26.9464 39.2453C27.0441 39.3202 27.1556 39.3752 27.2746 39.407C27.3935 39.4388 27.5176 39.4469 27.6397 39.4308C27.7618 39.4147 27.8795 39.3747 27.9861 39.3131L35.1736 35.1641C35.2856 35.1014 35.4091 35.0621 35.5368 35.0485C35.6644 35.0349 35.7935 35.0473 35.9162 35.085C36.0389 35.1227 36.1527 35.1849 36.2507 35.2678C36.3487 35.3507 36.4289 35.4526 36.4864 35.5674C36.5789 35.8027 36.5809 36.064 36.4922 36.3008C36.4035 36.5375 36.2303 36.7331 36.006 36.8498L30.29 40.1507C30.0747 40.275 29.9176 40.4798 29.8533 40.7199C29.789 40.96 29.8226 41.2158 29.9469 41.4312L30.0795 41.6608C30.3582 42.1457 30.5476 42.6768 30.6387 43.2286C30.6412 43.2516 30.6502 43.2725 30.6548 43.2951C30.7841 44.141 30.6793 45.0063 30.3517 45.7969C30.0242 46.5875 29.4865 47.2734 28.797 47.7802L28.0173 48.3536C27.9181 48.4265 27.8342 48.5183 27.7705 48.6237C27.7067 48.729 27.6644 48.8459 27.6458 48.9677C27.6083 49.2136 27.6701 49.4643 27.8174 49.6646C27.8904 49.7638 27.9822 49.8477 28.0875 49.9114C28.1929 49.9752 28.3098 50.0175 28.4315 50.0361C28.6774 50.0736 28.9281 50.0119 29.1285 49.8645L29.9084 49.2902C30.6892 48.7166 31.3328 47.9765 31.7925 47.1236C32.2522 46.2706 32.5165 45.3262 32.5663 44.3585L35.982 45.2738C36.1075 46.4419 35.9892 47.6233 35.6346 48.7434C35.28 49.8634 34.6969 50.8977 33.9221 51.7808ZM35.6585 40.3342C35.6603 39.9838 35.6127 39.6348 35.517 39.2976L36.944 38.4745C37.6331 38.079 38.1372 37.4262 38.3456 36.6595C38.521 36.0216 38.4594 35.3417 38.1722 34.7457C38.1004 34.6074 38.0173 34.4754 37.9237 34.351C39.3731 35.5993 41.2463 36.2438 43.1569 36.1515C45.0676 36.0592 46.8699 35.2371 48.1923 33.8549L46.4302 40.4311C45.7604 40.4264 45.1015 40.6005 44.5214 40.9354C43.9413 41.2703 43.4611 41.7539 43.1303 42.3363L35.6585 40.3342ZM41.3351 34.0907C40.2605 33.8028 39.2954 33.2026 38.5618 32.3662C37.8283 31.5298 37.3593 30.4946 37.2141 29.3916C37.0689 28.2886 37.254 27.1673 37.746 26.1695C38.2381 25.1717 39.015 24.3422 39.9784 23.786C40.9419 23.2297 42.0487 22.9717 43.1588 23.0444C44.269 23.1172 45.3326 23.5175 46.2152 24.1948C47.0979 24.872 47.7598 25.7958 48.1174 26.8493C48.475 27.9028 48.5122 29.0386 48.2243 30.1132C47.8368 31.5534 46.8939 32.7811 45.6023 33.5268C44.3107 34.2724 42.776 34.4753 41.3351 34.0907ZM44.7321 21.4129C43.437 21.0668 42.0728 21.0741 40.7814 21.434C39.4901 21.794 38.3189 22.4936 37.3896 23.4598L39.3943 15.9781C40.0641 15.9828 40.7231 15.8087 41.3031 15.4738C41.8832 15.1389 42.3634 14.6553 42.6943 14.0729L50.1669 16.0752C50.1622 16.745 50.3363 17.4039 50.6712 17.984C51.0061 18.564 51.4897 19.0443 52.0721 19.3751L50.0674 26.8568C49.7458 25.5554 49.0812 24.364 48.1429 23.4065C47.2046 22.4491 46.0268 21.7607 44.7321 21.4129ZM37.2261 33.6691C36.8715 33.4172 36.4621 33.2532 36.0316 33.1907C35.6012 33.1282 35.162 33.1689 34.7504 33.3095L35.5145 30.4579C35.8148 31.6518 36.4024 32.7542 37.2261 33.6691ZM56.2141 14.7838L47.7216 46.4782L32.3751 42.3662C32.2832 42.0085 32.1612 41.6593 32.0104 41.3221L33.774 40.3039C33.7764 40.466 33.7576 40.6277 33.718 40.7848C33.6536 41.025 33.6873 41.2809 33.8116 41.4962C33.9359 41.7116 34.1407 41.8687 34.3809 41.933L43.4364 44.3595C43.6766 44.4238 43.9325 44.3901 44.1478 44.2658C44.3632 44.1415 44.5203 43.9367 44.5846 43.6966C44.7133 43.2162 45.0276 42.8067 45.4582 42.5581C45.8889 42.3094 46.4007 42.242 46.881 42.3707C47.1212 42.4351 47.3771 42.4014 47.5924 42.2771C47.8078 42.1528 47.9649 41.948 48.0292 41.7078L54.0953 19.0689C54.1597 18.8288 54.126 18.5729 54.0016 18.3575C53.8773 18.1422 53.6726 17.9851 53.4324 17.9207C52.9521 17.792 52.5425 17.4778 52.2939 17.0471C52.0452 16.6165 51.9779 16.1047 52.1066 15.6243C52.1709 15.3842 52.1372 15.1283 52.0129 14.9129C51.8886 14.6976 51.6838 14.5405 51.4437 14.4761L42.3881 12.0497C42.1479 11.9854 41.892 12.0191 41.6767 12.1434C41.4614 12.2677 41.3043 12.4725 41.2399 12.7126C41.1112 13.193 40.7969 13.6025 40.3663 13.8511C39.9356 14.0998 39.4238 14.1672 38.9435 14.0385C38.7033 13.9741 38.4474 14.0078 38.2321 14.1321C38.0168 14.2564 37.8597 14.4612 37.7953 14.7014L32.4751 34.5566L31.3269 35.2195L38.103 9.93095L56.2141 14.7838Z" fill="#D99913"/>
<path d="M38.0207 28.3497L38.1873 28.3944C38.2382 29.0551 38.5213 29.6765 38.9864 30.1484C39.4515 30.6204 40.0687 30.9126 40.7285 30.9731C41.3884 31.0337 42.0484 30.8588 42.5917 30.4793C43.135 30.0999 43.5264 29.5404 43.6967 28.9C43.7447 28.7209 43.8447 28.5601 43.9841 28.4378C44.1235 28.3156 44.2961 28.2374 44.4799 28.2132C44.6637 28.189 44.8506 28.2199 45.0169 28.3019C45.1832 28.3839 45.3214 28.5134 45.4142 28.6739C45.5069 28.8345 45.5499 29.019 45.5377 29.204C45.5256 29.389 45.4589 29.5663 45.346 29.7134C45.2331 29.8605 45.0792 29.9708 44.9036 30.0304C44.728 30.09 44.5387 30.0962 44.3596 30.0482C44.1194 29.9839 43.8635 30.0176 43.6482 30.1419C43.4329 30.2662 43.2758 30.471 43.2114 30.7112C43.1471 30.9513 43.1807 31.2072 43.3051 31.4226C43.4294 31.6379 43.6342 31.795 43.8743 31.8594C44.4348 32.0071 45.0273 31.978 45.5706 31.7761C46.1139 31.5742 46.5816 31.2094 46.9097 30.7315L47.0763 30.7762C47.3164 30.8405 47.5723 30.8068 47.7877 30.6825C48.003 30.5582 48.1601 30.3534 48.2245 30.1133C48.2888 29.8731 48.2551 29.6172 48.1308 29.4019C48.0065 29.1865 47.8017 29.0294 47.5616 28.9651L47.3949 28.9204C47.3441 28.2597 47.061 27.6384 46.5959 27.1664C46.1308 26.6944 45.5136 26.4022 44.8537 26.3417C44.1939 26.2811 43.5338 26.456 42.9906 26.8355C42.4473 27.2149 42.0559 27.7744 41.8856 28.4148C41.8376 28.5939 41.7376 28.7547 41.5982 28.877C41.4588 28.9992 41.2862 29.0774 41.1024 29.1016C40.9186 29.1258 40.7317 29.0949 40.5654 29.0129C40.3991 28.9309 40.2608 28.8014 40.1681 28.6409C40.0754 28.4803 40.0324 28.2958 40.0445 28.1108C40.0567 27.9258 40.1234 27.7485 40.2363 27.6014C40.3491 27.4543 40.5031 27.344 40.6787 27.2844C40.8543 27.2248 41.0436 27.2186 41.2227 27.2666C41.4628 27.3309 41.7187 27.2972 41.9341 27.1729C42.1494 27.0486 42.3065 26.8438 42.3709 26.6037C42.4352 26.3635 42.4015 26.1076 42.2772 25.8923C42.1529 25.6769 41.9481 25.5198 41.708 25.4555C41.1475 25.3078 40.555 25.3368 40.0117 25.5387C39.4684 25.7406 39.0007 26.1054 38.6726 26.5833L38.506 26.5386C38.2658 26.4743 38.0099 26.508 37.7946 26.6323C37.5793 26.7566 37.4222 26.9614 37.3578 27.2015C37.2935 27.4417 37.3271 27.6976 37.4515 27.9129C37.5758 28.1283 37.7806 28.2854 38.0207 28.3497Z" fill="#D99913"/>
<path d="M41.0274 38.8612C41.0917 38.621 41.058 38.3651 40.9337 38.1498C40.8094 37.9345 40.6046 37.7773 40.3644 37.713C40.1243 37.6486 39.8684 37.6823 39.653 37.8066C39.4377 37.931 39.2806 38.1357 39.2162 38.3759L38.9736 39.2815C38.9092 39.5216 38.9429 39.7775 39.0673 39.9928C39.1916 40.2082 39.3963 40.3653 39.6365 40.4297C39.8767 40.494 40.1326 40.4603 40.3479 40.336C40.5632 40.2117 40.7204 40.0069 40.7847 39.7667L41.0274 38.8612Z" fill="#D99913"/>
<path d="M45.9455 16.8851C45.7053 16.8208 45.4494 16.8544 45.2341 16.9788C45.0188 17.1031 44.8617 17.3079 44.7973 17.548L44.5547 18.4536C44.4903 18.6937 44.524 18.9496 44.6483 19.165C44.7726 19.3803 44.9774 19.5374 45.2176 19.6018C45.4577 19.6661 45.7136 19.6324 45.929 19.5081C46.1443 19.3838 46.3014 19.179 46.3658 18.9389L46.6084 18.0333C46.6728 17.7931 46.6391 17.5372 46.5148 17.3219C46.3904 17.1066 46.1857 16.9495 45.9455 16.8851Z" fill="#D99913"/>
</g>
<defs>
<clipPath id="clip0">
<rect width="60" height="60" fill="white" transform="translate(0 57.9556) rotate(-75)"/>
</clipPath>
</defs>
</svg>
