<svg width="60" height="60" viewBox="0 0 60 60" fill="none" xmlns="http://www.w3.org/2000/svg">
<path d="M5.56818 12.346H4.31818H5.56818ZM9.09902 42.8736C8.40866 42.8736 7.84902 43.4332 7.84902 44.1236C7.84902 44.8139 8.40866 45.3736 9.09902 45.3736V42.8736ZM51.4692 45.3736C52.1595 45.3736 52.7192 44.8139 52.7192 44.1236C52.7192 43.4332 52.1595 42.8736 51.4692 42.8736V45.3736ZM12.6299 48.1699C11.9395 48.1699 11.3799 48.7295 11.3799 49.4199C11.3799 50.1102 11.9395 50.6699 12.6299 50.6699V48.1699ZM47.9383 50.6699C48.6287 50.6699 49.1883 50.1102 49.1883 49.4199C49.1883 48.7295 48.6287 48.1699 47.9383 48.1699V50.6699ZM55 19.4077V20.6577C55.5056 20.6577 55.9614 20.3531 56.1548 19.886C56.3483 19.4189 56.2414 18.8813 55.8839 18.5238L55 19.4077ZM46.1729 10.5806L47.0568 9.69668C46.6993 9.33919 46.1616 9.23224 45.6945 9.42572C45.2274 9.61919 44.9229 10.075 44.9229 10.5806H46.1729ZM5.56818 19.4077L4.68429 18.5238C4.3268 18.8813 4.21985 19.4189 4.41333 19.886C4.6068 20.3531 5.0626 20.6577 5.56818 20.6577V19.4077ZM14.3953 10.5806H15.6453C15.6453 10.075 15.3407 9.61919 14.8736 9.42572C14.4065 9.23224 13.8689 9.33919 13.5114 9.69668L14.3953 10.5806ZM55 30.0002L55.8839 30.8841C56.2414 30.5266 56.3483 29.9889 56.1548 29.5219C55.9614 29.0548 55.5056 28.7502 55 28.7502V30.0002ZM46.1729 38.8273H44.9229C44.9229 39.3329 45.2274 39.7887 45.6945 39.9822C46.1616 40.1756 46.6993 40.0687 47.0568 39.7112L46.1729 38.8273ZM5.56818 28.7502C4.87782 28.7502 4.31818 29.3099 4.31818 30.0002C4.31818 30.6906 4.87782 31.2502 5.56818 31.2502V28.7502ZM13.1453 38.8273C13.1453 39.5177 13.7049 40.0773 14.3953 40.0773C15.0856 40.0773 15.6453 39.5177 15.6453 38.8273H13.1453ZM53.2346 37.5773H7.3336V40.0773H53.2346V37.5773ZM7.3336 37.5773C7.04894 37.5773 6.81818 37.3466 6.81818 37.0619H4.31818C4.31818 38.7273 5.66823 40.0773 7.3336 40.0773V37.5773ZM6.81818 37.0619V12.346H4.31818V37.0619H6.81818ZM6.81818 12.346C6.81818 12.0613 7.04894 11.8306 7.3336 11.8306V9.33057C5.66823 9.33057 4.31818 10.6806 4.31818 12.346H6.81818ZM7.3336 11.8306H53.2346V9.33057H7.3336V11.8306ZM53.2346 11.8306C53.5192 11.8306 53.75 12.0613 53.75 12.346H56.25C56.25 10.6806 54.8999 9.33057 53.2346 9.33057V11.8306ZM53.75 12.346V37.0619H56.25V12.346H53.75ZM53.75 37.0619C53.75 37.3466 53.5192 37.5773 53.2346 37.5773V40.0773C54.8999 40.0773 56.25 38.7273 56.25 37.0619H53.75ZM9.09902 45.3736H51.4692V42.8736H9.09902V45.3736ZM12.6299 50.6699H47.9383V48.1699H12.6299V50.6699ZM37.8612 24.7039C37.8612 28.8887 34.4688 32.2811 30.2841 32.2811V34.7811C35.8495 34.7811 40.3612 30.2694 40.3612 24.7039H37.8612ZM30.2841 32.2811C26.0994 32.2811 22.707 28.8887 22.707 24.7039H20.207C20.207 30.2694 24.7187 34.7811 30.2841 34.7811V32.2811ZM22.707 24.7039C22.707 20.5192 26.0994 17.1268 30.2841 17.1268V14.6268C24.7187 14.6268 20.207 19.1385 20.207 24.7039H22.707ZM30.2841 17.1268C34.4688 17.1268 37.8612 20.5192 37.8612 24.7039H40.3612C40.3612 19.1385 35.8495 14.6268 30.2841 14.6268V17.1268ZM55 18.1577C52.9904 18.1577 51.0632 17.3594 49.6422 15.9384L47.8744 17.7062C49.7642 19.596 52.3274 20.6577 55 20.6577V18.1577ZM49.6422 15.9384C48.2212 14.5174 47.4229 12.5901 47.4229 10.5806H44.9229C44.9229 13.2532 45.9846 15.8163 47.8744 17.7062L49.6422 15.9384ZM45.289 11.4644L54.1161 20.2916L55.8839 18.5238L47.0568 9.69668L45.289 11.4644ZM5.56818 20.6577C6.89152 20.6577 8.20191 20.397 9.42452 19.8906L8.46781 17.5809C7.54851 17.9617 6.56322 18.1577 5.56818 18.1577V20.6577ZM9.42452 19.8906C10.6471 19.3842 11.758 18.6419 12.6938 17.7062L10.926 15.9384C10.2224 16.642 9.38711 17.2001 8.46781 17.5809L9.42452 19.8906ZM12.6938 17.7062C13.6295 16.7704 14.3718 15.6595 14.8782 14.4369L12.5685 13.4802C12.1877 14.3995 11.6296 15.2348 10.926 15.9384L12.6938 17.7062ZM14.8782 14.4369C15.3846 13.2143 15.6453 11.9039 15.6453 10.5806H13.1453C13.1453 11.5756 12.9493 12.5609 12.5685 13.4802L14.8782 14.4369ZM13.5114 9.69668L4.68429 18.5238L6.45206 20.2916L15.2792 11.4644L13.5114 9.69668ZM55 28.7502C52.3274 28.7502 49.7642 29.8119 47.8744 31.7017L49.6422 33.4695C51.0632 32.0485 52.9904 31.2502 55 31.2502V28.7502ZM47.8744 31.7017C45.9846 33.5916 44.9229 36.1547 44.9229 38.8273H47.4229C47.4229 36.8177 48.2212 34.8905 49.6422 33.4695L47.8744 31.7017ZM47.0568 39.7112L55.8839 30.8841L54.1161 29.1163L45.289 37.9434L47.0568 39.7112ZM5.56818 31.2502C6.56322 31.2502 7.54851 31.4462 8.46781 31.827L9.42452 29.5173C8.20191 29.0109 6.89152 28.7502 5.56818 28.7502V31.2502ZM8.46781 31.827C9.38711 32.2078 10.2224 32.7659 10.926 33.4695L12.6938 31.7017C11.758 30.766 10.6471 30.0237 9.42452 29.5173L8.46781 31.827ZM10.926 33.4695C11.6296 34.1731 12.1877 35.0084 12.5685 35.9277L14.8782 34.971C14.3718 33.7484 13.6295 32.6375 12.6938 31.7017L10.926 33.4695ZM12.5685 35.9277C12.9493 36.847 13.1453 37.8323 13.1453 38.8273H15.6453C15.6453 37.504 15.3846 36.1936 14.8782 34.971L12.5685 35.9277Z" fill="black"/>
</svg>
