<svg width="60" height="60" fill="none" xmlns="http://www.w3.org/2000/svg"><path d="M5.568 12.346h-1.25 1.25zM9.1 42.874a1.25 1.25 0 100 2.5v-2.5zm42.37 2.5a1.25 1.25 0 000-2.5v2.5zM12.63 48.17a1.25 1.25 0 100 2.5v-2.5zm35.31 2.5a1.25 1.25 0 000-2.5v2.5zM55 19.408v1.25a1.25 1.25 0 00.884-2.134l-.884.884zm-8.827-8.827l.884-.884a1.25 1.25 0 00-2.134.884h1.25zM5.568 19.408l-.884-.884a1.25 1.25 0 00.884 2.134v-1.25zm8.827-8.827h1.25a1.25 1.25 0 00-2.134-.884l.884.884zM55 30l.884.883A1.25 1.25 0 0055 28.75V30zm-8.827 8.826h-1.25a1.25 1.25 0 002.134.884l-.884-.884zM5.568 28.75a1.25 1.25 0 000 2.5v-2.5zm7.577 10.077a1.25 1.25 0 102.5 0h-2.5zm40.09-1.25H7.334v2.5h45.9v-2.5zm-45.901 0a.515.515 0 01-.516-.515h-2.5a3.015 3.015 0 003.016 3.015v-2.5zm-.516-.515V12.346h-2.5v24.716h2.5zm0-24.716c0-.285.23-.515.516-.515v-2.5a3.015 3.015 0 00-3.016 3.015h2.5zm.516-.515h45.9v-2.5h-45.9v2.5zm45.9 0c.285 0 .516.23.516.515h2.5a3.015 3.015 0 00-3.015-3.015v2.5zm.516.515v24.716h2.5V12.346h-2.5zm0 24.716c0 .285-.23.515-.515.515v2.5a3.015 3.015 0 003.015-3.015h-2.5zM9.099 45.374h42.37v-2.5H9.1v2.5zm3.53 5.296h35.31v-2.5h-35.31v2.5zm25.232-25.966a7.577 7.577 0 01-7.577 7.577v2.5c5.566 0 10.077-4.512 10.077-10.077h-2.5zm-7.577 7.577a7.577 7.577 0 01-7.577-7.577h-2.5c0 5.565 4.512 10.077 10.077 10.077v-2.5zm-7.577-7.577a7.577 7.577 0 017.577-7.577v-2.5c-5.565 0-10.077 4.511-10.077 10.077h2.5zm7.577-7.577a7.577 7.577 0 017.577 7.577h2.5c0-5.566-4.511-10.077-10.077-10.077v2.5zM55 18.157a7.577 7.577 0 01-5.358-2.219l-1.768 1.768A10.077 10.077 0 0055 20.658v-2.5zm-5.358-2.219a7.577 7.577 0 01-2.22-5.357h-2.5c0 2.672 1.063 5.235 2.952 7.125l1.768-1.768zm-4.353-4.474l8.827 8.828 1.768-1.768-8.827-8.827-1.768 1.767zm-39.72 9.194c1.323 0 2.633-.261 3.856-.767l-.957-2.31c-.92.38-1.905.577-2.9.577v2.5zm3.856-.767a10.078 10.078 0 003.269-2.185l-1.768-1.768a7.577 7.577 0 01-2.458 1.643l.957 2.31zm3.269-2.185a10.078 10.078 0 002.184-3.27l-2.31-.956a7.577 7.577 0 01-1.642 2.458l1.768 1.768zm2.184-3.27c.507-1.222.767-2.532.767-3.855h-2.5c0 .995-.196 1.98-.576 2.9l2.31.956zm-1.367-4.74l-8.827 8.828 1.768 1.768 8.827-8.828-1.768-1.767zM55 28.75a10.077 10.077 0 00-7.126 2.952l1.768 1.767A7.577 7.577 0 0155 31.25v-2.5zm-7.126 2.952a10.077 10.077 0 00-2.951 7.125h2.5c0-2.01.798-3.936 2.22-5.358l-1.769-1.767zm-.817 8.01l8.827-8.828-1.768-1.768-8.827 8.827 1.768 1.768zM5.568 31.25c.995 0 1.98.196 2.9.577l.957-2.31a10.078 10.078 0 00-3.857-.767v2.5zm2.9.577c.92.38 1.754.939 2.458 1.642l1.768-1.767a10.078 10.078 0 00-3.27-2.185l-.956 2.31zm2.458 1.642a7.577 7.577 0 011.643 2.459l2.31-.957a10.078 10.078 0 00-2.185-3.27l-1.768 1.768zm1.643 2.459c.38.919.576 1.904.576 2.9h2.5c0-1.324-.26-2.634-.767-3.857l-2.31.957z" fill="#000"/></svg>