<svg width="24" height="24" fill="none" xmlns="http://www.w3.org/2000/svg"><path d="M20.047 16.473c-1.203-1.473-2.053-2.223-2.053-6.285 0-3.72-1.9-5.044-3.463-5.688a.835.835 0 01-.466-.495C13.79 3.072 13.022 2.25 12 2.25s-1.791.823-2.063 1.756a.827.827 0 01-.466.494c-1.565.645-3.463 1.965-3.463 5.688-.002 4.062-.852 4.812-2.056 6.285-.498.61-.061 1.527.811 1.527h14.479c.867 0 1.301-.92.805-1.527zM15 18v.75a3 3 0 01-6 0V18" stroke="#444" stroke-width="2" stroke-linecap="round" stroke-linejoin="round"/></svg>