<svg width="96" height="96" fill="none" xmlns="http://www.w3.org/2000/svg"><path d="M74.465 32.05l-2.394-.173 2.394.173zm-23.925 0l2.394-.17-2.394.17zM36.486 73.993l2.328.58-2.328-.58zm52.035 0l-2.331.571v.002l2.33-.573zM37.852 35.302l-2.394-.173 2.394.173zm-19.212 0l-2.394.169 2.394-.17zm19.3 23.942a2.4 2.4 0 002-4.363l-2 4.363zM7.466 68.798l-2.33-.58v.003l2.33.577zM29.515 73.6a2.4 2.4 0 000-4.8v4.8zM72.07 31.878c-.464 6.44-5.166 10.822-9.569 10.822v4.8c7.523 0 13.758-6.976 14.357-15.278l-4.788-.345zM62.502 42.7c-4.405 0-9.113-4.382-9.568-10.82l-4.788.34c.588 8.309 6.835 15.28 14.356 15.28v-4.8zm-9.568-10.82c-.229-3.222.773-5.811 2.44-7.589 1.673-1.784 4.149-2.891 7.128-2.891v-4.8c-4.203 0-7.98 1.584-10.63 4.407-2.654 2.83-4.042 6.766-3.726 11.213l4.788-.34zm9.568-10.48c5.79 0 10.012 4.339 9.569 10.477l4.787.346c.645-8.92-5.78-15.623-14.356-15.623v4.8zm0 32.9c-12.443 0-25.134 6.22-28.345 19.113l4.657 1.16c2.48-9.96 12.507-15.473 23.688-15.473v-4.8zM34.157 73.412c-.672 2.694 1.013 5.988 4.453 5.988v-4.8s.012 0 .034.006a.31.31 0 01.162.105c.019.026-.022-.017.008-.137l-4.657-1.162zM38.61 79.4h47.786v-4.8H38.61v4.8zm47.786 0c3.449 0 5.114-3.301 4.455-5.98l-4.661 1.146c.03.125-.01.172.007.146a.313.313 0 01.165-.106c.022-.006.035-.006.034-.006v4.8zm4.456-5.978C87.64 60.322 74.925 54.3 62.502 54.3v4.8c11.205 0 21.207 5.346 23.688 15.464l4.662-1.142zM35.458 35.129c-.358 4.97-4.021 8.296-7.212 8.296v4.8c6.335 0 11.51-5.948 12-12.75l-4.788-.346zm-7.212 8.296c-3.194 0-6.86-3.326-7.212-8.293l-4.788.34c.482 6.81 5.667 12.753 12 12.753v-4.8zm-7.212-8.293c-.335-4.728 2.858-7.932 7.212-7.932v-4.8c-7.123 0-12.532 5.55-12 13.071l4.788-.339zm7.212-7.932c4.338 0 7.546 3.3 7.212 7.93l4.788.344c.533-7.395-4.861-13.074-12-13.074v4.8zm11.693 27.68c-3.672-1.682-7.64-2.293-11.693-2.293v4.8c3.584 0 6.823.542 9.694 1.857l2-4.363zm-11.693-2.293c-10.056 0-20.469 5.038-23.11 15.631l4.658 1.16c1.91-7.658 9.658-11.99 18.452-11.99v-4.8zM5.136 68.221c-.591 2.386.901 5.379 4.028 5.379v-4.8c.084 0 .2.023.316.086.112.06.19.14.24.212.094.14.083.246.075.278L5.136 68.22zM9.164 73.6h20.35v-4.8H9.165v4.8z" fill="#fff"/></svg>