<svg width="0" height="0" class="hidden">
  <symbol fill="none" xmlns="http://www.w3.org/2000/svg" viewBox="0 0 20 20" id="menu-alt">
    <path fill-rule="evenodd" clip-rule="evenodd" d="M3 5a1 1 0 011-1h12a1 1 0 110 2H4a1 1 0 01-1-1zm0 5a1 1 0 011-1h12a1 1 0 110 2H4a1 1 0 01-1-1zm6 5a1 1 0 011-1h6a1 1 0 010 2h-6a1 1 0 01-1-1z" fill="#444"></path>
  </symbol>

    <symbol fill="none" xmlns="http://www.w3.org/2000/svg" viewBox="0 0 96 96" id="person-group-icon">
    <path d="M74.465 32.05l-2.394-.173 2.394.173zm-23.925 0l2.394-.17-2.394.17zM36.486 73.993l2.329.58-2.329-.58zm52.035 0l-2.33.571v.002l2.33-.573zM37.853 35.302l-2.394-.173 2.394.173zm-19.213 0l-2.394.169 2.394-.17zm19.3 23.942a2.4 2.4 0 102-4.363l-2 4.363zM7.466 68.798l-2.329-.58v.003l2.33.577zm22.05 4.802a2.4 2.4 0 000-4.8v4.8zM72.07 31.878c-.464 6.44-5.165 10.822-9.568 10.822v4.8c7.523 0 13.758-6.976 14.356-15.278l-4.788-.345zM62.503 42.7c-4.406 0-9.113-4.382-9.569-10.82l-4.788.34c.588 8.309 6.836 15.28 14.357 15.28v-4.8zm-9.569-10.82c-.228-3.222.774-5.811 2.44-7.589 1.673-1.784 4.15-2.891 7.129-2.891v-4.8c-4.204 0-7.981 1.584-10.63 4.407-2.654 2.83-4.042 6.766-3.727 11.213l4.788-.34zm9.569-10.48c5.79 0 10.012 4.339 9.568 10.477l4.788.346c.644-8.92-5.78-15.623-14.356-15.623v4.8zm0 32.9c-12.444 0-25.135 6.22-28.346 19.113l4.658 1.16c2.48-9.96 12.507-15.473 23.688-15.473v-4.8zM34.157 73.412c-.671 2.694 1.013 5.988 4.453 5.988v-4.8s.012 0 .034.006a.309.309 0 01.163.105c.018.026-.022-.017.008-.137l-4.658-1.162zM38.61 79.4h47.787v-4.8H38.61v4.8zm47.787 0c3.448 0 5.113-3.301 4.455-5.98l-4.662 1.146c.031.125-.01.172.007.146a.313.313 0 01.165-.106c.023-.006.035-.006.035-.006v4.8zm4.455-5.978c-3.21-13.1-15.927-19.122-28.35-19.122v4.8c11.206 0 21.208 5.346 23.688 15.464l4.662-1.142zM35.46 35.129c-.358 4.97-4.022 8.296-7.213 8.296v4.8c6.336 0 11.51-5.948 12-12.75l-4.787-.346zm-7.213 8.296c-3.193 0-6.86-3.326-7.212-8.293l-4.788.34c.482 6.81 5.667 12.753 12 12.753v-4.8zm-7.212-8.293c-.334-4.728 2.859-7.932 7.212-7.932v-4.8c-7.123 0-12.532 5.55-12 13.071l4.788-.339zm7.212-7.932c4.338 0 7.546 3.3 7.213 7.93l4.787.344c.533-7.395-4.86-13.074-12-13.074v4.8zM39.94 54.88c-3.672-1.682-7.64-2.293-11.694-2.293v4.8c3.585 0 6.823.542 9.695 1.857l1.999-4.363zm-11.694-2.293c-10.055 0-20.468 5.038-23.109 15.631l4.658 1.16c1.909-7.658 9.657-11.99 18.451-11.99v-4.8zM5.136 68.221c-.59 2.386.902 5.379 4.028 5.379v-4.8c.085 0 .2.023.316.086.112.06.19.14.24.212.095.14.084.246.076.278l-4.66-1.155zM9.165 73.6h20.351v-4.8H9.165v4.8z" fill="#fff"></path>
  </symbol>

  <symbol fill="none" xmlns="http://www.w3.org/2000/svg" viewBox="0 0 96 96" id="wallet-icon">
    <path d="M73.382 31.688H22.618a7.615 7.615 0 00-7.614 7.615v30.458a7.615 7.615 0 007.615 7.615h50.763a7.615 7.615 0 007.615-7.615V39.303a7.615 7.615 0 00-7.615-7.615z" stroke="#fff" stroke-width="4.248" stroke-linejoin="round"></path>
    <path d="M72.646 31.688V26.93a7.931 7.931 0 00-9.416-7.789l-41.78 7.131a7.932 7.932 0 00-6.446 7.797v7.773" stroke="#fff" stroke-width="4.248" stroke-linejoin="round"></path>
    <path d="M65.767 59.609a5.076 5.076 0 110-10.153 5.076 5.076 0 010 10.153z" fill="#fff"></path>
  </symbol>

    <symbol fill="none" xmlns="http://www.w3.org/2000/svg" viewBox="0 0 96 96" id="stats-icon">
    <path d="M24.25 58h-5c-.69 0-1.25.56-1.25 1.25v22.5c0 .69.56 1.25 1.25 1.25h5c.69 0 1.25-.56 1.25-1.25v-22.5c0-.69-.56-1.25-1.25-1.25zm35-15h-5c-.69 0-1.25.56-1.25 1.25v37.5c0 .69.56 1.25 1.25 1.25h5c.69 0 1.25-.56 1.25-1.25v-37.5c0-.69-.56-1.25-1.25-1.25zm17.5-17.5h-5c-.69 0-1.25.56-1.25 1.25v55c0 .69.56 1.25 1.25 1.25h5c.69 0 1.25-.56 1.25-1.25v-55c0-.69-.56-1.25-1.25-1.25zm-35-12.5h-5c-.69 0-1.25.56-1.25 1.25v67.5c0 .69.56 1.25 1.25 1.25h5c.69 0 1.25-.56 1.25-1.25v-67.5c0-.69-.56-1.25-1.25-1.25z" stroke="#fff" stroke-width="4" stroke-linecap="round" stroke-linejoin="round"></path>
  </symbol>

 <symbol fill="none" xmlns="http://www.w3.org/2000/svg" viewBox="0 0 60 60" id="user-icon">
    <path d="M42.757 18.064l1.19.088-1.19-.088zm-18.114 0l-1.19.087 1.19-.087zM13.974 48.797l1.174.215v-.003l-1.174-.212zm39.45 0l1.175-.211-1.175.211zm-39.117-27.44a1.193 1.193 0 00-2.386 0h2.386zm-2.386 11.528a1.193 1.193 0 102.386 0h-2.386zm6.957-4.57a1.193 1.193 0 100-2.387v2.387zM7.35 25.928a1.193 1.193 0 000 2.387v-2.387zm34.216-7.952c-.37 4.995-4.126 8.775-7.867 8.775v2.387c5.316 0 9.81-5.098 10.247-10.986l-2.38-.176zM33.7 26.75c-3.743 0-7.504-3.78-7.867-8.774l-2.38.174c.428 5.892 4.932 10.987 10.247 10.987V26.75zm-7.867-8.774c-.362-4.973 3.109-8.6 7.867-8.6V6.99c-6.152 0-10.71 4.812-10.248 11.16l2.38-.173zm7.867-8.6c4.75 0 8.228 3.722 7.867 8.599l2.38.176C44.41 11.912 39.86 6.99 33.7 6.99v2.386zm0 23.962c-9.293 0-19.078 5.147-20.899 15.247l2.349.423c1.542-8.55 9.934-13.284 18.55-13.284V33.34zM12.8 48.582c-.152.835-.003 1.713.477 2.413a2.746 2.746 0 002.308 1.198v-2.386c-.185 0-.275-.068-.34-.162-.082-.12-.15-.343-.097-.633l-2.347-.43zm2.785 3.611h36.229v-2.386H15.586v2.386zm36.229 0c.992 0 1.81-.472 2.307-1.199.48-.7.628-1.576.478-2.408l-2.349.423c.053.292-.015.516-.098.637-.064.094-.154.16-.338.16v2.387zm2.785-3.608C52.777 38.486 42.993 33.34 33.7 33.34v2.386c8.615 0 17.008 4.733 18.551 13.284l2.349-.424zM11.922 21.358v11.527h2.386V21.358h-2.386zm6.957 4.57H7.35v2.387h11.53v-2.387z" fill="url(#paint0_linear)"></path>
    <defs>
      <linearGradient id="paint0_linear" x1="53.463" y1="29.591" x2="7.351" y2="29.591" gradientUnits="userSpaceOnUse">
        <stop stop-color="#D99913"></stop>
        <stop offset="1" stop-color="#F7DC39"></stop>
      </linearGradient>
    </defs>
  </symbol>

   <symbol fill="none" xmlns="http://www.w3.org/2000/svg" viewBox="0 0 96 96" id="finanical-freedom-icon">
    <path d="M72 45l-2.154.214a2.165 2.165 0 002.041 1.948L72 45zm-45.333-8l.215 2.154a2.165 2.165 0 001.856-1.523L26.667 37zm33.156 4.061a2.165 2.165 0 10-3.312-2.789l3.312 2.79zM40.2 61l-1.607 1.45a2.165 2.165 0 003.263-.055L40.2 61zm-6.093-9.984a2.165 2.165 0 00-3.214 2.901l3.214-2.9zm40.047-6.23C72.574 28.876 61.397 18.835 48 18.835v4.33c10.937 0 20.462 8.113 21.846 22.049l4.308-.428zM48 18.835c-12.656 0-20.764 8.866-23.404 17.534l4.142 1.262C30.95 30.365 37.656 23.165 48 23.165v-4.33zm-21.549 16.01c-5.362.537-10.498 2.496-14.327 5.988-3.87 3.53-6.289 8.53-6.289 14.834h4.33c0-5.099 1.915-8.933 4.877-11.635 3.005-2.74 7.202-4.414 11.84-4.878l-.43-4.308zM5.835 55.668c0 12.387 10.17 20.831 22.165 20.831v-4.33c-10.006 0-17.835-6.889-17.835-16.501h-4.33zM28 76.498h43.333v-4.33H28v4.33zm43.333 0c4.91 0 9.605-1.22 13.12-4.02 3.585-2.854 5.712-7.17 5.712-12.811h-4.33c0 4.451-1.623 7.469-4.08 9.424-2.526 2.012-6.165 3.077-10.422 3.077v4.33zm18.832-16.831c0-5.72-2.573-9.907-6.162-12.652-3.52-2.692-7.965-3.973-11.89-4.177l-.226 4.324c3.242.169 6.796 1.236 9.485 3.292 2.62 2.003 4.463 4.963 4.463 9.213h4.33zM56.511 38.272L38.544 59.605l3.312 2.79L59.823 41.06l-3.312-2.789zM41.807 59.55l-7.7-8.534-3.214 2.901 7.7 8.533 3.214-2.9z" fill="#fff"></path>
  </symbol>

   <symbol fill="none" xmlns="http://www.w3.org/2000/svg" viewBox="0 0 24 24" id="menu-alt-2">
    <path d="M4 18h7M4 6h16H4zm0 6h16H4z" stroke="#444" stroke-width="2.2" stroke-linecap="round" stroke-linejoin="round"></path>
  </symbol>

  <symbol fill="none" xmlns="http://www.w3.org/2000/svg" viewBox="0 0 24 24" id="notification-bell">
    <path d="M20.047 16.473c-1.203-1.473-2.053-2.223-2.053-6.285 0-3.72-1.9-5.044-3.463-5.688a.835.835 0 01-.466-.495C13.79 3.072 13.022 2.25 12 2.25s-1.791.823-2.063 1.756a.827.827 0 01-.466.494c-1.565.645-3.463 1.965-3.463 5.688-.002 4.062-.852 4.812-2.056 6.285-.498.61-.061 1.527.811 1.527h14.479c.867 0 1.301-.92.805-1.527zM15 18v.75a3 3 0 01-6 0V18" stroke="#444" stroke-width="2" stroke-linecap="round" stroke-linejoin="round"></path>
  </symbol>

   <symbol fill="none" xmlns="http://www.w3.org/2000/svg" viewBox="0 0 24 24" id="ion_chatbubbles-outline">
    <path d="M20.203 15.028c-.047-.169.056-.403.155-.572a7.594 7.594 0 001.392-4.378c.014-4.322-3.633-7.828-8.142-7.828-3.933 0-7.214 2.677-7.983 6.23a7.532 7.532 0 00-.173 1.603c0 4.326 3.506 7.926 8.015 7.926.717 0 1.683-.215 2.213-.36.53-.146 1.054-.338 1.19-.39a1.236 1.236 0 01.91.014l2.657.943c.059.024.12.04.183.046a.375.375 0 00.375-.375.6.6 0 00-.023-.126l-.769-2.733z" stroke="#444" stroke-width="2" stroke-miterlimit="10" stroke-linecap="round"></path>
    <path d="M3.115 10.875a6.855 6.855 0 00.3 7.156c.108.164.17.29.15.375-.018.085-.559 2.9-.559 2.9a.375.375 0 00.127.36.383.383 0 00.378.056l2.635-1.031a.736.736 0 01.563.009c.888.346 1.87.563 2.851.563a7.463 7.463 0 003.752-1.008" stroke="#444" stroke-width="2" stroke-miterlimit="10" stroke-linecap="round"></path>
  </symbol>

   <symbol fill="none" xmlns="http://www.w3.org/2000/svg" viewBox="0 0 24 24" id="ion_person-circle-outline">
    <path d="M12.136 2.25c-5.483-.073-9.96 4.403-9.886 9.887.073 5.259 4.355 9.54 9.614 9.614 5.485.075 9.96-4.402 9.885-9.885-.072-5.26-4.354-9.542-9.613-9.615zm5.926 15.34a.186.186 0 01-.148.06.187.187 0 01-.14-.074 5.826 5.826 0 00-1.516-1.387C15.064 15.423 13.552 15 12 15s-3.064.422-4.258 1.188a5.825 5.825 0 00-1.516 1.386.188.188 0 01-.288.015 8.218 8.218 0 01-2.188-5.448c-.076-4.562 3.667-8.38 8.23-8.391 4.563-.011 8.27 3.694 8.27 8.25a8.218 8.218 0 01-2.188 5.59z" fill="#444"></path>
    <path d="M12 6.75c-.924 0-1.76.346-2.354.976-.594.63-.89 1.5-.824 2.434C8.958 12 10.384 13.5 12 13.5c1.616 0 3.039-1.5 3.178-3.34.069-.925-.225-1.787-.83-2.428-.595-.633-1.43-.982-2.348-.982z" fill="#444"></path>
  </symbol>

  <symbol fill="none" xmlns="http://www.w3.org/2000/svg" viewBox="0 0 24 24" id="ion_log-out-outline">
    <path d="M14.25 15.75v1.875a1.875 1.875 0 01-1.875 1.875h-7.5A1.875 1.875 0 013 17.625V6.375A1.875 1.875 0 014.875 4.5H12c1.036 0 2.25.84 2.25 1.875V8.25m3 7.5L21 12l-3.75-3.75m-9 3.75h12" stroke="#444" stroke-width="2" stroke-linecap="round" stroke-linejoin="round"></path>
  </symbol>

   <symbol fill="none" xmlns="http://www.w3.org/2000/svg" viewBox="0 0 24 24" id="ion_layers-outline">
    <path d="M20.381 6.452l-7-3.192c-.76-.347-2.002-.347-2.76 0L3.623 6.452c-.825.375-.825.989 0 1.364l6.937 3.164c.792.36 2.095.36 2.887 0l6.937-3.164c.821-.375.821-.99-.004-1.364zM7.5 14.462l-3.876 1.74c-.825.375-.825.989 0 1.364l6.937 3.164c.792.36 2.095.36 2.887 0l6.937-3.164c.825-.375.825-.99 0-1.364l-3.747-1.804" stroke="#444" stroke-width="2" stroke-linecap="round" stroke-linejoin="round"></path>
    <path d="M7.5 9.586l-3.881 1.742c-.825.375-.825.989 0 1.364l6.937 3.163c.792.361 2.095.361 2.887 0l6.937-3.163c.83-.375.83-.99.005-1.364L16.5 9.586" stroke="#444" stroke-width="1.5" stroke-linecap="round" stroke-linejoin="round"></path>
  </symbol>

   <symbol fill="none" xmlns="http://www.w3.org/2000/svg" viewBox="0 0 16 16" id="arrow-left">
    <path d="M6.667 12.667L2 8.001m0 0l4.667-4.667M2 8.001h12" stroke="#444" stroke-width="2" stroke-linecap="round" stroke-linejoin="round"></path>
  </symbol>

   <symbol fill="none" xmlns="http://www.w3.org/2000/svg" viewBox="0 0 24 24" id="ion_mail-outline">
    <path d="M19.875 4.5H4.125c-1.036 0-1.875.84-1.875 1.875v11.25c0 1.035.84 1.875 1.875 1.875h15.75c1.035 0 1.875-.84 1.875-1.875V6.375c0-1.036-.84-1.875-1.875-1.875z" stroke="#444" stroke-width="2" stroke-linecap="round" stroke-linejoin="round"></path>
    <path d="M5.25 7.5L12 12.75l6.75-5.25" stroke="#444" stroke-width="2" stroke-linecap="round" stroke-linejoin="round"></path>
  </symbol>
</svg>