<svg width="96" height="96" fill="none" xmlns="http://www.w3.org/2000/svg"><path d="M24.25 58h-4.999c-.69 0-1.25.56-1.25 1.25v22.5c0 .69.56 1.25 1.25 1.25h5c.69 0 1.25-.56 1.25-1.25v-22.5c0-.69-.56-1.25-1.25-1.25zm35-15h-5c-.69 0-1.25.56-1.25 1.25v37.5c0 .69.56 1.25 1.25 1.25h5c.69 0 1.25-.56 1.25-1.25v-37.5c0-.69-.56-1.25-1.25-1.25zm17.5-17.5h-5c-.69 0-1.25.56-1.25 1.25v55c0 .69.56 1.25 1.25 1.25h5c.69 0 1.25-.56 1.25-1.25v-55c0-.69-.56-1.25-1.25-1.25zm-35-12.5h-5c-.69 0-1.25.56-1.25 1.25v67.5c0 .69.56 1.25 1.25 1.25h5c.691 0 1.25-.56 1.25-1.25v-67.5c0-.69-.559-1.25-1.25-1.25z" stroke="#fff" stroke-width="4" stroke-linecap="round" stroke-linejoin="round"/></svg>