<svg width="61" height="61" viewBox="0 0 61 61" fill="none" xmlns="http://www.w3.org/2000/svg">
<circle cx="30.5" cy="30.4995" r="30.5" fill="url(#paint0_linear)"/>
<path d="M41.8268 20.1404L19.1931 28.8684C17.6484 29.4888 17.6574 30.3505 18.9097 30.7347L24.7207 32.5474L38.1655 24.0646C38.8013 23.6778 39.3821 23.8859 38.9047 24.3097L28.0117 34.1406H28.0091L28.0117 34.1419L27.6108 40.1316C28.1981 40.1316 28.4572 39.8622 28.7866 39.5443L31.6091 36.7997L37.48 41.1362C38.5626 41.7324 39.34 41.426 39.6094 40.1341L43.4633 21.971C43.8578 20.3893 42.8595 19.6732 41.8268 20.1404Z" fill="black"/>
<defs>
<linearGradient id="paint0_linear" x1="61" y1="30.4995" x2="1.67176e-09" y2="30.4995" gradientUnits="userSpaceOnUse">
<stop stop-color="#D99913"/>
<stop offset="1" stop-color="#F7DC39"/>
</linearGradient>
</defs>
</svg>
