<svg width="61" height="61" fill="none" xmlns="http://www.w3.org/2000/svg"><circle cx="30.5" cy="30.5" r="30.5" fill="url(#paint0_linear)"/><path d="M41.827 20.14l-22.634 8.728c-1.545.62-1.536 1.483-.283 1.867l5.81 1.812 13.446-8.482c.635-.387 1.216-.18.739.245l-10.893 9.83h-.003l.003.002-.401 5.99c.587 0 .846-.27 1.176-.588l2.822-2.744 5.871 4.336c1.083.596 1.86.29 2.13-1.002l3.853-18.163c.395-1.582-.604-2.298-1.636-1.83z" fill="#000"/><defs><linearGradient id="paint0_linear" x1="61" y1="30.5" x2="0" y2="30.5" gradientUnits="userSpaceOnUse"><stop stop-color="#D99913"/><stop offset="1" stop-color="#F7DC39"/></linearGradient></defs></svg>