<svg width="60" height="60" viewBox="0 0 60 60" fill="none" xmlns="http://www.w3.org/2000/svg">
<path d="M42.7573 18.0639L43.9474 18.1522L43.9474 18.1521L42.7573 18.0639ZM24.6425 18.0639L23.4523 18.1505L23.4523 18.1506L24.6425 18.0639ZM13.9753 48.7974L15.1491 49.0123L15.1497 49.0092L13.9753 48.7974ZM53.4255 48.7974L54.5999 48.5855L54.5998 48.5854L53.4255 48.7974ZM14.3082 21.3575C14.3082 20.6985 13.7739 20.1642 13.1149 20.1642C12.4558 20.1642 11.9216 20.6985 11.9216 21.3575H14.3082ZM11.9216 32.8851C11.9216 33.5442 12.4558 34.0784 13.1149 34.0784C13.7739 34.0784 14.3082 33.5442 14.3082 32.8851H11.9216ZM18.8787 28.3146C19.5377 28.3146 20.072 27.7804 20.072 27.1213C20.072 26.4623 19.5377 25.928 18.8787 25.928V28.3146ZM7.35107 25.928C6.69203 25.928 6.15776 26.4623 6.15776 27.1213C6.15776 27.7804 6.69203 28.3146 7.35107 28.3146V25.928ZM41.5673 17.9757C41.1969 22.9708 37.4411 26.7514 33.6999 26.7514V29.138C39.0162 29.138 43.5108 24.0403 43.9474 18.1522L41.5673 17.9757ZM33.6999 26.7514C29.9575 26.7514 26.1962 22.9706 25.8327 17.9773L23.4523 18.1506C23.8813 24.0426 28.3849 29.138 33.6999 29.138V26.7514ZM25.8327 17.9774C25.471 13.0042 28.9417 9.37642 33.6999 9.37642V6.98979C27.5481 6.98979 22.9906 11.8019 23.4523 18.1505L25.8327 17.9774ZM33.6999 9.37642C38.4506 9.37642 41.9285 13.0991 41.5673 17.9758L43.9474 18.1521C44.4095 11.9128 39.8592 6.98979 33.6999 6.98979V9.37642ZM33.6999 33.3386C24.4066 33.3386 14.6224 38.4862 12.801 48.5856L15.1497 49.0092C16.6918 40.4585 25.0842 35.7252 33.6999 35.7252V33.3386ZM12.8015 48.5824C12.6488 49.4166 12.7978 50.2949 13.2778 50.995C13.7759 51.7214 14.594 52.1933 15.5861 52.1933V49.8066C15.4008 49.8066 15.3106 49.7392 15.2461 49.6453C15.1637 49.5251 15.0961 49.302 15.1491 49.0123L12.8015 48.5824ZM15.5861 52.1933H51.8147V49.8066H15.5861V52.1933ZM51.8147 52.1933C52.8074 52.1933 53.6248 51.7209 54.1223 50.9943C54.6014 50.2946 54.75 49.4177 54.5999 48.5855L52.2512 49.0092C52.3038 49.3009 52.2357 49.5253 52.1531 49.6459C52.0889 49.7397 51.9995 49.8066 51.8147 49.8066V52.1933ZM54.5998 48.5854C52.7773 38.4862 42.9932 33.3386 33.6999 33.3386V35.7252C42.3155 35.7252 50.7081 40.4585 52.2512 49.0093L54.5998 48.5854ZM11.9216 21.3575V32.8851H14.3082V21.3575H11.9216ZM18.8787 25.928H7.35107V28.3146H18.8787V25.928Z" fill="url(#paint0_linear)"/>
<defs>
<linearGradient id="paint0_linear" x1="53.4628" y1="29.5915" x2="7.35107" y2="29.5915" gradientUnits="userSpaceOnUse">
<stop stop-color="#D99913"/>
<stop offset="1" stop-color="#F7DC39"/>
</linearGradient>
</defs>
</svg>
