<svg width="96" height="96" viewBox="0 0 96 96" fill="none" xmlns="http://www.w3.org/2000/svg">
<path d="M73.3824 31.6884H22.6185C18.4131 31.6884 15.0039 35.0976 15.0039 39.303V69.7613C15.0039 73.9668 18.4131 77.3759 22.6185 77.3759H73.3824C77.5878 77.3759 80.997 73.9668 80.997 69.7613V39.303C80.997 35.0976 77.5878 31.6884 73.3824 31.6884Z" stroke="white" stroke-width="4.24833" stroke-linejoin="round"/>
<path d="M72.6463 31.6884V26.9293C72.646 25.7621 72.388 24.6093 71.8908 23.5532C71.3936 22.4972 70.6694 21.5639 69.77 20.8199C68.8706 20.0759 67.818 19.5397 66.6875 19.2493C65.5569 18.959 64.3762 18.9217 63.2296 19.1402L21.4509 26.271C19.6366 26.6167 17.9999 27.5848 16.8229 29.0082C15.646 30.4315 15.0027 32.221 15.0039 34.068V41.8412" stroke="white" stroke-width="4.24833" stroke-linejoin="round"/>
<path d="M65.7668 59.6087C64.7628 59.6087 63.7813 59.311 62.9465 58.7532C62.1117 58.1954 61.4611 57.4026 61.0768 56.475C60.6926 55.5474 60.5921 54.5267 60.788 53.542C60.9838 52.5572 61.4673 51.6527 62.1773 50.9428C62.8872 50.2328 63.7917 49.7493 64.7765 49.5535C65.7612 49.3576 66.7819 49.4581 67.7095 49.8424C68.6371 50.2266 69.4299 50.8772 69.9877 51.712C70.5455 52.5468 70.8432 53.5283 70.8432 54.5323C70.8432 55.8787 70.3084 57.1699 69.3564 58.1219C68.4044 59.0739 67.1132 59.6087 65.7668 59.6087Z" fill="white"/>
</svg>
