<svg width="60" height="60" fill="none" xmlns="http://www.w3.org/2000/svg"><path d="M30 20c-4.142 0-7.5 2.238-7.5 5s3.358 5 7.5 5c4.142 0 7.5 2.237 7.5 5s-3.358 5-7.5 5m0-20v20m0-20c2.775 0 5.2 1.005 6.498 2.5M30 20v-2.5M30 40v2.5m0-2.5c-2.775 0-5.2-1.005-6.497-2.5M52.5 30a22.5 22.5 0 11-45.001 0A22.5 22.5 0 0152.5 30z" stroke="url(#paint0_linear)" stroke-width="3.156" stroke-linecap="round" stroke-linejoin="round"/><defs><linearGradient id="paint0_linear" x1="52.5" y1="30" x2="7.5" y2="30" gradientUnits="userSpaceOnUse"><stop stop-color="#D99913"/><stop offset="1" stop-color="#F7DC39"/></linearGradient></defs></svg>