<svg width="24" height="24" fill="none" xmlns="http://www.w3.org/2000/svg"><path d="M12.136 2.25c-5.483-.073-9.96 4.403-9.886 9.887.073 5.259 4.355 9.54 9.614 9.614 5.485.075 9.96-4.402 9.885-9.885-.072-5.26-4.354-9.542-9.613-9.615zm5.926 15.34a.186.186 0 01-.148.06.187.187 0 01-.14-.074 5.826 5.826 0 00-1.516-1.387C15.064 15.423 13.552 15 12 15s-3.064.422-4.258 1.188a5.825 5.825 0 00-1.516 1.386.188.188 0 01-.288.015 8.218 8.218 0 01-2.188-5.448c-.076-4.562 3.667-8.38 8.23-8.391 4.563-.011 8.27 3.694 8.27 8.25a8.218 8.218 0 01-2.188 5.59z" fill="#444"/><path d="M12 6.75c-.924 0-1.76.346-2.354.976-.594.63-.89 1.5-.824 2.434C8.958 12 10.384 13.5 12 13.5c1.616 0 3.039-1.5 3.178-3.34.069-.925-.225-1.787-.83-2.428-.595-.633-1.43-.982-2.348-.982z" fill="#444"/></svg>