<svg width="74" height="74" fill="none" xmlns="http://www.w3.org/2000/svg"><g clip-path="url(#clip0)" fill="#D99913"><path d="M36.535 8.54l-5.28 19.701-4.53 2.614a6.53 6.53 0 00-3.063 3.993l-4.45 16.608-.906-.242a.938.938 0 00-1.148.663l-1.941 7.244a.937.937 0 00.663 1.148l16.3 4.368a.937.937 0 001.148-.663l1.941-7.244a.937.937 0 00-.663-1.149l-.906-.242.186-.692 1.44-1.623a10.294 10.294 0 002.569-7.238l10.247 2.746a.937.937 0 001.148-.663l8.978-33.505a.937.937 0 00-.663-1.149L37.683 7.877a.937.937 0 00-1.148.663zm-3.32 48.61l-1.456 5.433-14.489-3.882 1.456-5.433 14.49 3.882zm.707-5.37l-1.59 1.787a.937.937 0 00-.2.38l-.243.906-10.866-2.911 4.45-16.609a4.664 4.664 0 012.188-2.852l2.908-1.679-1.538 5.743-1.983 1.144a.939.939 0 00.592 1.742.937.937 0 00.346-.118l7.188-4.149a.95.95 0 011.312.403 1.023 1.023 0 01-.48 1.283l-5.716 3.3a.937.937 0 00-.343 1.281l.133.23c.278.485.468 1.016.559 1.568.002.023.011.044.016.066a4.686 4.686 0 01-1.858 4.485l-.78.574a.936.936 0 00.07 1.557.938.938 0 001.041-.047l.78-.574a6.537 6.537 0 002.658-4.931l3.416.915a8.49 8.49 0 01-2.06 6.507zm1.736-11.446a3.7 3.7 0 00-.141-1.036l1.427-.824a3 3 0 001.402-1.814 2.737 2.737 0 00-.174-1.914 2.81 2.81 0 00-.248-.395 7.467 7.467 0 0010.268-.496L46.43 40.43a3.765 3.765 0 00-3.3 1.905l-7.472-2.002zm5.677-6.243a5.625 5.625 0 112.912-10.868 5.625 5.625 0 01-2.912 10.868zm3.397-12.678a7.502 7.502 0 00-7.342 2.047l2.004-7.482a3.765 3.765 0 003.3-1.905l7.473 2.002a3.765 3.765 0 001.905 3.3l-2.005 7.482a7.5 7.5 0 00-5.335-5.444zm-7.506 12.256a2.743 2.743 0 00-2.476-.36l.764-2.851a7.553 7.553 0 001.712 3.211zm18.988-18.885l-8.492 31.694-15.347-4.112a6.55 6.55 0 00-.365-1.044l1.764-1.018c.002.162-.016.324-.056.48a.937.937 0 00.663 1.149l9.055 2.426a.938.938 0 001.149-.662 1.875 1.875 0 012.296-1.326.937.937 0 001.148-.663l6.066-22.64a.937.937 0 00-.663-1.147 1.875 1.875 0 01-1.325-2.297.938.938 0 00-.663-1.148l-9.056-2.426a.938.938 0 00-1.148.663 1.875 1.875 0 01-2.297 1.326.937.937 0 00-1.148.662l-5.32 19.856-1.148.662 6.776-25.288 18.111 4.853z"/><path d="M38.02 28.35l.167.044a2.806 2.806 0 005.51.506.938.938 0 11.663 1.148.938.938 0 00-.486 1.811 2.812 2.812 0 003.036-1.128l.166.045a.938.938 0 00.486-1.81l-.167-.046a2.805 2.805 0 00-5.51-.505.938.938 0 11-.662-1.148.938.938 0 00.485-1.811 2.812 2.812 0 00-3.035 1.127l-.167-.044a.938.938 0 00-.485 1.81zm3.007 10.511a.938.938 0 00-1.81-.485l-.243.906a.937.937 0 101.81.485l.243-.906zm4.919-21.976a.937.937 0 00-1.149.663l-.242.906a.937.937 0 101.81.485l.243-.906a.937.937 0 00-.662-1.148z"/></g><defs><clipPath id="clip0"><path fill="#fff" transform="rotate(-75 37.765 28.978)" d="M0 0h60v60H0z"/></clipPath></defs></svg>