<svg width="61" height="61" fill="none" xmlns="http://www.w3.org/2000/svg"><circle cx="30.5" cy="30.5" r="30.5" fill="url(#paint0_linear)"/><path d="M40.51 25.078c.016.223.016.445.016.667 0 6.798-5.174 14.631-14.63 14.631-2.912 0-5.619-.844-7.896-2.31.414.048.812.065 1.242.065a10.302 10.302 0 006.384-2.197 5.152 5.152 0 01-4.809-3.566c.318.047.637.08.972.08.46 0 .924-.064 1.354-.175a5.14 5.14 0 01-4.123-5.047v-.064c.686.382 1.48.62 2.323.653a5.135 5.135 0 01-2.292-4.282 5.1 5.1 0 01.7-2.594 14.627 14.627 0 0010.602 5.38 5.846 5.846 0 01-.127-1.177A5.138 5.138 0 0135.368 20c1.48 0 2.817.62 3.757 1.623a10.157 10.157 0 003.263-1.242 5.132 5.132 0 01-2.261 2.834 10.301 10.301 0 002.96-.796 11.034 11.034 0 01-2.577 2.659z" fill="#000"/><defs><linearGradient id="paint0_linear" x1="61" y1="30.5" x2="0" y2="30.5" gradientUnits="userSpaceOnUse"><stop stop-color="#D99913"/><stop offset="1" stop-color="#F7DC39"/></linearGradient></defs></svg>