<svg width="60" height="60" fill="none" xmlns="http://www.w3.org/2000/svg"><path d="M42.757 18.064l1.19.088-1.19-.088zm-18.114 0l-1.19.087 1.19-.087zM13.974 48.797l1.174.215v-.003l-1.174-.212zm39.45 0l1.175-.211-1.175.211zm-39.117-27.44a1.193 1.193 0 00-2.386 0h2.386zm-2.386 11.528a1.193 1.193 0 102.386 0h-2.386zm6.957-4.57a1.193 1.193 0 100-2.387v2.387zM7.35 25.928a1.193 1.193 0 000 2.387v-2.387zm34.216-7.952c-.37 4.995-4.126 8.775-7.867 8.775v2.387c5.316 0 9.81-5.098 10.247-10.986l-2.38-.176zM33.7 26.75c-3.743 0-7.504-3.78-7.867-8.774l-2.38.174c.428 5.892 4.932 10.987 10.247 10.987V26.75zm-7.867-8.774c-.362-4.973 3.109-8.6 7.867-8.6V6.99c-6.152 0-10.71 4.812-10.248 11.16l2.38-.173zm7.867-8.6c4.75 0 8.228 3.722 7.867 8.599l2.38.176C44.41 11.912 39.86 6.99 33.7 6.99v2.386zm0 23.962c-9.293 0-19.078 5.147-20.899 15.247l2.349.423c1.542-8.55 9.934-13.284 18.55-13.284V33.34zM12.8 48.582c-.152.835-.003 1.713.477 2.413a2.746 2.746 0 002.308 1.198v-2.386c-.185 0-.275-.068-.34-.162-.082-.12-.15-.343-.097-.633l-2.347-.43zm2.785 3.611h36.229v-2.386H15.586v2.386zm36.229 0c.992 0 1.81-.472 2.307-1.199.48-.7.628-1.576.478-2.408l-2.349.423c.053.292-.015.516-.098.637-.064.094-.154.16-.338.16v2.387zm2.785-3.608C52.777 38.486 42.993 33.34 33.7 33.34v2.386c8.615 0 17.008 4.733 18.551 13.284l2.349-.424zM11.922 21.358v11.527h2.386V21.358h-2.386zm6.957 4.57H7.35v2.387h11.53v-2.387z" fill="url(#paint0_linear)"/><defs><linearGradient id="paint0_linear" x1="53.463" y1="29.591" x2="7.351" y2="29.591" gradientUnits="userSpaceOnUse"><stop stop-color="#D99913"/><stop offset="1" stop-color="#F7DC39"/></linearGradient></defs></svg>