<svg width="96" height="96" fill="none" xmlns="http://www.w3.org/2000/svg"><path d="M73.382 31.688H22.618a7.615 7.615 0 00-7.614 7.615v30.458a7.615 7.615 0 007.615 7.615h50.763a7.615 7.615 0 007.615-7.615V39.303a7.615 7.615 0 00-7.615-7.615z" stroke="#444" stroke-width="4.248" stroke-linejoin="round"/><path d="M72.646 31.688V26.93a7.931 7.931 0 00-9.416-7.789l-41.78 7.131a7.932 7.932 0 00-6.446 7.797v7.773" stroke="#444" stroke-width="4.248" stroke-linejoin="round"/><path d="M65.767 59.609a5.076 5.076 0 110-10.153 5.076 5.076 0 010 10.153z" fill="#444"/></svg>