<svg width="96" height="96" fill="none" xmlns="http://www.w3.org/2000/svg"><path d="M9 63h78a3 3 0 003-3V18a3 3 0 00-3-3H9a3 3 0 00-3 3v42a3 3 0 003 3z" stroke="#444" stroke-width="4" stroke-linejoin="round"/><path d="M18 81h60m-66-9h72-72z" stroke="#444" stroke-width="4" stroke-linecap="round" stroke-linejoin="round"/><path d="M48 54c8.284 0 15-6.716 15-15 0-8.284-6.716-15-15-15-8.284 0-15 6.716-15 15 0 8.284 6.716 15 15 15z" stroke="#444" stroke-width="6" stroke-linecap="round" stroke-linejoin="round"/><path d="M6 48a15 15 0 0115 15m69-33a15 15 0 01-15-15l15 15zM6 30a15 15 0 0015-15L6 30zm84 18a15 15 0 00-15 15l15-15z" stroke="#444" stroke-width="4" stroke-linecap="round" stroke-linejoin="round"/></svg>