<svg width="52" height="52" fill="none" xmlns="http://www.w3.org/2000/svg"><path d="M42.25 9.525v-1.25a1.25 1.25 0 01.724 2.27l-.724-1.02zm-32.5 0l-.724 1.02a1.25 1.25 0 01.724-2.27v1.25zm.723 33.52a1.25 1.25 0 01-1.447-2.038l1.447 2.038zm32.501-2.038a1.25 1.25 0 11-1.447 2.038l1.447-2.038zM26 .15c14.152 0 25.625 11.474 25.625 25.625h-2.5C49.125 13.005 38.771 2.65 26 2.65V.15zm25.625 25.625C51.625 39.927 40.152 51.4 26 51.4v-2.5c12.771 0 23.125-10.354 23.125-23.125h2.5zM26 51.4C11.848 51.4.375 39.927.375 25.775h2.5C2.875 38.546 13.229 48.9 26 48.9v2.5zM.375 25.775C.375 11.624 11.848.15 26 .15v2.5c-12.771 0-23.125 10.354-23.125 23.125h-2.5zM26 .15c4.091 0 7.72 3.235 10.246 7.783 2.567 4.62 4.207 10.928 4.207 17.842h-2.5c0-6.546-1.558-12.426-3.892-16.628C31.687 4.872 28.713 2.65 26 2.65V.15zm14.453 25.625c0 6.915-1.64 13.223-4.207 17.843C33.72 48.166 30.091 51.4 26 51.4v-2.5c2.713 0 5.687-2.222 8.06-6.496 2.335-4.202 3.893-10.082 3.893-16.629h2.5zM26 51.4c-4.091 0-7.72-3.234-10.246-7.782-2.567-4.62-4.207-10.928-4.207-17.843h2.5c0 6.547 1.558 12.427 3.892 16.629C20.313 46.678 23.287 48.9 26 48.9v2.5zM11.546 25.775c0-6.914 1.641-13.222 4.208-17.842C18.28 3.385 21.909.15 26 .15v2.5c-2.713 0-5.687 2.222-8.06 6.497-2.335 4.202-3.894 10.082-3.894 16.628h-2.5zm31.428-15.23c-4.693 3.33-10.587 5.308-16.974 5.308v-2.5c5.869 0 11.257-1.817 15.527-4.848l1.447 2.038zM26 15.853c-6.387 0-12.281-1.978-16.974-5.31l1.447-2.038c4.27 3.031 9.658 4.848 15.527 4.848v2.5zM9.75 8.275h32.5v2.5H9.75v-2.5zm-.724 32.732c4.693-3.332 10.587-5.31 16.974-5.31v2.5c-5.869 0-11.257 1.817-15.527 4.848l-1.447-2.038zM26 35.697c6.387 0 12.281 1.978 16.974 5.31l-1.447 2.038c-4.27-3.031-9.658-4.848-15.527-4.848v-2.5zM27.25 1.4v48.75h-2.5V1.4h2.5zM1.625 24.525h48.75v2.5H1.625v-2.5z" fill="#444"/></svg>