<svg width="80" height="80" fill="none" xmlns="http://www.w3.org/2000/svg"><path d="M40 0C17.944 0 0 17.944 0 40s17.944 40 40 40 40-17.944 40-40S62.056 0 40 0zm31.724 36H60.668A58.68 58.68 0 0053.5 11.028 32.053 32.053 0 0171.724 36zM42.12 8.108c4.14 5.456 9.708 15.12 10.508 27.892H28.12c.556-10.384 3.976-20.112 9.804-27.896C38.612 8.064 39.3 8 40 8c.716 0 1.416.064 2.12.108zm-15.368 2.8C22.816 18.472 20.544 27.048 20.12 36H8.276a32.05 32.05 0 0118.476-25.092zM8.276 44h11.896c.544 9.516 2.66 17.912 6.224 24.92A32.041 32.041 0 018.276 44zM37.8 71.892C32.196 65.1 28.888 55.584 28.164 44h24.452c-.832 11.092-4.468 20.784-10.412 27.888-.728.048-1.456.112-2.204.112-.744 0-1.468-.064-2.2-.108zm16.044-3.088C57.664 61.628 59.996 53.2 60.608 44H71.72a32.02 32.02 0 01-17.876 24.804z" fill="#444"/></svg>