<svg width="699" height="533" fill="none" xmlns="http://www.w3.org/2000/svg"><g filter="url(#filter0_dd)"><path d="M330.038 176.318H41.461c-5.225 0-9.461 4.336-9.461 9.684v280.841c0 5.348 4.236 9.684 9.462 9.684h288.576c5.226 0 9.462-4.336 9.462-9.684V186.002c0-5.348-4.236-9.684-9.462-9.684z" fill="#fff"/><path d="M75.05 418.906h247.892M75.05 383.075h247.892M75.05 347.243h247.892M75.05 311.412h247.892M75.05 275.581h247.892" stroke="#E4E4E4" stroke-opacity=".2" stroke-linecap="square"/><path d="M75.05 372.953c10.89-1.915 19.845-13.584 32.838-15.546 6.926-1.045 12.474.99 18.664 4.152 6.19 3.161 4.979 4.526 18.899 6.963 11.49 2.012 14.495 8.937 25.752 9.77 11.257.834 16.464-25.241 28.35-23.064 11.885 2.176 14.26-3.451 25.432 7.214 11.172 10.665 21.495 2.154 35.52-.022 14.025-2.177 17.677 4.576 24.333 3.706 6.656-.871 12.648 15.59 18.353 17.984 5.706 2.395 7.324-6.302 19.447-6.302" stroke="#F7DC39" stroke-width="2" stroke-linecap="round" stroke-linejoin="round"/><path d="M75.25 355.335c14.298-2.386 13.345 11.781 32.17 13.848 18.825 2.067 24.068-12.401 32.647-16.535 8.578-4.133 12.391-22.971 26.689-21.698 14.297 1.271 21.446 14.016 33.36 15.606 11.915 1.59 14.299 12.134 25.498 19.925 11.2 7.79 21.447 8.744 35.507 7.154 14.058-1.589 17.871-17.664 24.544-18.3 6.672-.637 12.629 7.029 18.348 8.778 5.719 1.749 7.387 9.522 19.54 9.522" stroke="#9BA6FA" stroke-width="2" stroke-linecap="round" stroke-linejoin="round"/><path fill-rule="evenodd" clip-rule="evenodd" d="M266.32 418.048v-58.775h.946v58.775h-.946z" fill="#F7DC39"/><g filter="url(#filter1_dd)"><path d="M273.416 361.21c0-3.744-2.965-6.779-6.623-6.779-3.658 0-6.623 3.035-6.623 6.779 0 3.744 2.965 6.779 6.623 6.779 3.658 0 6.623-3.035 6.623-6.779z" fill="#F7DC39"/><path d="M272.47 361.209c0-3.209-2.542-5.811-5.677-5.811-3.136 0-5.677 2.602-5.677 5.811s2.541 5.81 5.677 5.81c3.135 0 5.677-2.601 5.677-5.81z" stroke="#fff" stroke-width="2"/></g><g filter="url(#filter2_dd)"><path fill-rule="evenodd" clip-rule="evenodd" d="M270.541 349.734c-1.809 2.389-4.742 2.389-6.551 0l-2.978-3.385a4.684 4.684 0 00-3.515-1.602h-7.991c-6.326 0-8.621-.674-10.934-1.94-2.313-1.266-4.127-3.124-5.365-5.491-1.236-2.368-1.895-4.715-1.895-11.191v-16.018c0-6.476.659-8.823 1.895-11.191 1.238-2.367 3.052-4.225 5.365-5.491s4.608-1.941 10.934-1.941h34.574c6.326 0 8.62.675 10.933 1.941 2.313 1.266 4.128 3.124 5.364 5.491 1.238 2.368 1.897 4.715 1.897 11.191v16.018c0 6.476-.659 8.823-1.897 11.191-1.236 2.367-3.051 4.225-5.364 5.491-2.313 1.266-4.607 1.94-10.933 1.94h-4.94a9.37 9.37 0 00-7.03 3.203l-1.569 1.784z" fill="#fff"/></g><path d="M264.338 333.126v-7.505h-1.062l-2.511 6.21h-.081l-2.511-6.21h-1.062v7.505h.854v-5.731h.061l2.312 5.68h.772l2.313-5.68h.061v5.731h.854zm3.445-.686c-.635 0-1.107-.333-1.107-.905 0-.562.365-.858 1.198-.915l1.474-.099v.514c0 .801-.666 1.405-1.565 1.405zm-.162.786c.731 0 1.331-.329 1.687-.927h.081v.827h.834v-3.838c0-1.166-.748-1.868-2.084-1.868-1.169 0-2.033.594-2.149 1.493h.883c.122-.442.58-.697 1.235-.697.818 0 1.24.38 1.24 1.072v.51l-1.58.098c-1.276.079-1.997.656-1.997 1.659 0 1.026.787 1.671 1.85 1.671zm4.482 1.929c.97 0 1.408-.385 1.875-1.685l2.139-5.951h-.93l-1.499 4.614h-.081l-1.504-4.614h-.946l2.028 5.613-.101.333c-.229.676-.504.92-1.007.92-.122 0-.259-.005-.365-.026v.765c.121.02.274.031.391.031z" fill="#666"/><path d="M243.654 316.66v-.923c2.086-.177 3.285-1.276 3.285-3.035 0-1.497-.839-2.412-2.599-2.831l-.686-.149v-2.872c.831.113 1.413.695 1.434 1.425h1.657c-.035-1.596-1.241-2.73-3.091-2.9v-.979h-.957v.979c-1.954.17-3.132 1.27-3.132 2.943 0 1.419.866 2.383 2.467 2.788l.665.163v3.021c-.963-.106-1.593-.674-1.656-1.468h-1.69c.006 1.674 1.282 2.795 3.346 2.923v.915h.957zm1.594-3.774c0 .837-.582 1.355-1.594 1.419v-2.851c1.094.22 1.594.673 1.594 1.432zm-3.971-4.717c0-.724.596-1.276 1.42-1.326v2.674c-.928-.199-1.42-.666-1.42-1.348zm7.616.284v.029h1.677v-.029c0-1.042.707-1.744 1.753-1.744.984 0 1.705.652 1.705 1.553 0 .723-.339 1.255-1.705 2.674l-3.333 3.489v1.269h6.944v-1.553h-4.491v-.12l2.093-2.149c1.698-1.717 2.245-2.624 2.245-3.723 0-1.711-1.427-2.944-3.403-2.944-2.051 0-3.485 1.333-3.485 3.248zm9.473 7.241h1.871l4.276-8.674v-1.56h-6.957v1.539h5.155v.113l-4.345 8.582zm7.36 2.71l1.198-4.283h-1.739l-.645 4.283h1.186zm6.756-2.461c2.176 0 3.715-1.489 3.715-3.596 0-1.964-1.393-3.404-3.292-3.404-1.178 0-2.12.559-2.593 1.532h-.117c0-2.341.867-3.738 2.329-3.738.859 0 1.524.482 1.746 1.255h1.788c-.299-1.681-1.698-2.787-3.52-2.787-2.551 0-4.054 2.042-4.054 5.483 0 1.304.242 2.397.706 3.233.665 1.312 1.823 2.022 3.292 2.022zm-.021-1.525c-1.115 0-1.968-.879-1.968-2.042 0-1.142.839-1.98 1.982-1.98s1.968.838 1.968 2.008c0 1.142-.859 2.014-1.982 2.014zm7.886-3.263h1.255c1.233 0 1.989.617 1.989 1.618 0 .964-.804 1.638-1.947 1.638-1.151 0-1.941-.603-2.018-1.553h-1.711c.09 1.872 1.559 3.092 3.714 3.092 2.177 0 3.784-1.304 3.784-3.064 0-1.362-.846-2.313-2.21-2.475v-.121c1.108-.241 1.808-1.156 1.808-2.355 0-1.567-1.449-2.73-3.388-2.73-2.08 0-3.424 1.169-3.514 3.049h1.67c.07-.964.756-1.56 1.788-1.56 1.046 0 1.718.589 1.718 1.496 0 .915-.699 1.547-1.718 1.547h-1.22v1.418zm6.896-2.702v.029h1.677v-.029c0-1.042.706-1.744 1.753-1.744.984 0 1.705.652 1.705 1.553 0 .723-.34 1.255-1.705 2.674l-3.334 3.489v1.269h6.944v-1.553h-4.49v-.12l2.093-2.149c1.697-1.717 2.245-2.624 2.245-3.723 0-1.711-1.428-2.944-3.402-2.944-2.052 0-3.486 1.333-3.486 3.248z" fill="#151522"/><path d="M263.646 445.538v-7.506h-1.062l-2.511 6.211h-.08l-2.511-6.211h-1.062v7.506h.854v-5.732h.06l2.313 5.679h.773l2.312-5.679h.061v5.732h.853zm3.446-.687c-.635 0-1.108-.333-1.108-.906 0-.561.366-.858 1.2-.915l1.473-.098v.515c0 .801-.665 1.404-1.565 1.404zm-.163.785c.732 0 1.331-.327 1.687-.926h.081v.828h.834v-3.839c0-1.165-.746-1.867-2.083-1.867-1.169 0-2.034.592-2.15 1.492h.885c.121-.442.579-.696 1.234-.696.818 0 1.24.379 1.24 1.071v.509l-1.58.1c-1.276.077-1.998.655-1.998 1.659 0 1.024.789 1.669 1.85 1.669zm4.482 1.93c.971 0 1.408-.385 1.875-1.686l2.141-5.95h-.931l-1.499 4.614h-.082l-1.504-4.614h-.945l2.027 5.612-.101.333c-.229.676-.503.921-1.006.921-.122 0-.259-.005-.366-.026v.764c.122.022.275.032.391.032zm-55.557-2.028h.96l-2.703-7.506h-.905l-2.704 7.506h.961l.737-2.148h2.917l.737 2.148zm-2.236-6.294h.081l1.149 3.35h-2.379l1.149-3.35zm7.038.588c-.747 0-1.403.39-1.753 1.035h-.081v-.937h-.834v7.48h.875v-2.715h.081c.3.593.93.941 1.712.941 1.392 0 2.302-1.149 2.302-2.902 0-1.763-.904-2.902-2.302-2.902zm-.209 4.999c-.986 0-1.61-.812-1.61-2.097 0-1.29.624-2.097 1.616-2.097 1.001 0 1.601.786 1.601 2.097 0 1.31-.6 2.097-1.607 2.097zm3.883.707h.875v-3.475c0-.79.604-1.363 1.438-1.363.172 0 .487.031.559.053v-.895a3.593 3.593 0 00-.437-.026c-.727 0-1.357.384-1.52.93h-.081v-.832h-.834v5.608zm-52.629 0v-7.506h-1.062l-2.51 6.211h-.081l-2.512-6.211h-1.061v7.506h.853v-5.732h.062l2.311 5.679h.773l2.313-5.679h.06v5.732h.854zm3.446-.687c-.635 0-1.108-.333-1.108-.906 0-.561.366-.858 1.199-.915l1.473-.098v.515c0 .801-.665 1.404-1.564 1.404zm-.163.785c.732 0 1.331-.327 1.687-.925h.081v.827h.834v-3.839c0-1.165-.747-1.867-2.084-1.867-1.168 0-2.032.592-2.149 1.492h.884c.122-.442.579-.696 1.235-.696.818 0 1.239.379 1.239 1.071v.509l-1.58.1c-1.275.077-1.997.655-1.997 1.659 0 1.024.788 1.669 1.85 1.669zm4.218-.098h.874v-3.475c0-.79.605-1.363 1.438-1.363.173 0 .488.031.559.053v-.895a3.58 3.58 0 00-.437-.026c-.726 0-1.357.384-1.519.93h-.082v-.832h-.833v5.608zm-59.902 0v-3.251h3.247v-.832H119.3v-2.58h3.536v-.843h-4.451v7.506h.915zm7.115-4.916c.868 0 1.447.656 1.468 1.649h-3.019c.066-.993.677-1.649 1.551-1.649zm1.443 3.464c-.229.495-.707.76-1.413.76-.93 0-1.535-.702-1.581-1.81v-.041h3.939v-.344c0-1.742-.9-2.819-2.379-2.819-1.504 0-2.469 1.144-2.469 2.907 0 1.774.95 2.897 2.469 2.897 1.2 0 2.044-.587 2.308-1.55h-.874zm5.041 1.55c1.387 0 2.297-1.149 2.297-2.902 0-1.763-.904-2.902-2.297-2.902-.752 0-1.418.379-1.717.983h-.082v-3.111h-.874v7.834h.833v-.895h.082c.345.624.995.993 1.758.993zm-.204-4.999c1.001 0 1.597.786 1.597 2.097 0 1.31-.596 2.097-1.597 2.097-.995 0-1.616-.802-1.616-2.097s.621-2.097 1.616-2.097zm171.309 3.148c0 1.149.864 1.93 2.094 1.93 1.326 0 2.134-.838 2.134-2.268v-5.415h-.914v5.409c0 .921-.443 1.41-1.226 1.41-.69 0-1.158-.437-1.179-1.066h-.909zm10.417-3.855h-.873v3.319c0 .983-.529 1.571-1.495 1.571-.873 0-1.239-.469-1.239-1.478v-3.412h-.875v3.631c0 1.327.641 2.075 1.871 2.075.838 0 1.423-.353 1.697-.978h.082v.88h.832v-5.608zm1.648 5.608h.873v-3.319c0-.983.565-1.582 1.438-1.582.874 0 1.292.48 1.292 1.489v3.412h.874v-3.631c0-1.332-.687-2.075-1.916-2.075-.839 0-1.373.364-1.647.983h-.082v-.885h-.832v5.608zm-243.615-1.753c0 1.149.864 1.93 2.093 1.93 1.327 0 2.135-.838 2.135-2.268v-5.415h-.915v5.409c0 .921-.442 1.41-1.225 1.41-.69 0-1.158-.437-1.179-1.066h-.91zm7.673 1.066c-.635 0-1.108-.333-1.108-.906 0-.561.366-.858 1.2-.915l1.473-.098v.515c0 .801-.665 1.404-1.565 1.404zm-.162.785c.731 0 1.331-.327 1.687-.925h.081v.827h.834v-3.839c0-1.165-.747-1.867-2.084-1.867-1.169 0-2.033.592-2.15 1.492h.885c.121-.442.579-.696 1.234-.696.819 0 1.24.379 1.24 1.071v.509l-1.58.1c-1.275.077-1.997.655-1.997 1.659 0 1.024.788 1.669 1.85 1.669zm4.218-.098h.874v-3.319c0-.983.564-1.582 1.438-1.582s1.29.48 1.29 1.489v3.412h.875v-3.631c0-1.332-.686-2.075-1.916-2.075-.839 0-1.372.364-1.647.983h-.081v-.885h-.834v5.608zm-19.029-24.034c1.647 0 2.592-1.425 2.592-3.917 0-2.486-.96-3.942-2.592-3.942-1.641 0-2.602 1.45-2.602 3.927 0 2.496.95 3.932 2.602 3.932zm0-.817c-1.082 0-1.682-1.108-1.682-3.115 0-1.982.61-3.105 1.682-3.105s1.672 1.113 1.672 3.105c0 2.013-.59 3.115-1.672 3.115zm-15.357-40.585v.006h.884v-.006c0-.884.58-1.472 1.438-1.472.808 0 1.433.577 1.433 1.327 0 .603-.228 1.009-1.174 2.059l-2.535 2.835v.645h4.746v-.843h-3.435v-.083l1.763-1.94c1.204-1.322 1.55-1.93 1.55-2.71 0-1.191-1.006-2.107-2.322-2.107-1.362 0-2.348.957-2.348 2.289zm8.802 5.571c1.646 0 2.591-1.425 2.591-3.917 0-2.486-.96-3.943-2.591-3.943-1.642 0-2.602 1.451-2.602 3.927 0 2.497.95 3.933 2.602 3.933zm0-.817c-1.083 0-1.682-1.108-1.682-3.116 0-1.981.61-3.104 1.681-3.104 1.073 0 1.672 1.112 1.672 3.104 0 2.014-.59 3.116-1.672 3.116zm6.555.817c1.647 0 2.592-1.425 2.592-3.917 0-2.486-.96-3.943-2.592-3.943-1.641 0-2.602 1.451-2.602 3.927 0 2.497.95 3.933 2.602 3.933zm0-.817c-1.082 0-1.682-1.108-1.682-3.116 0-1.981.61-3.104 1.682-3.104s1.672 1.112 1.672 3.104c0 2.014-.59 3.116-1.672 3.116zm-12.369-35.191h.894v-1.556h1.042v-.837H53.68v-5.113h-1.326c-1.321 2.023-2.485 3.906-3.14 5.097v.853h3.572v1.556zm-2.637-2.451a75.696 75.696 0 012.581-4.187h.061v4.25h-2.642v-.063zm8.45 2.628c1.647 0 2.592-1.426 2.592-3.918 0-2.485-.96-3.942-2.591-3.942-1.642 0-2.602 1.451-2.602 3.927 0 2.497.95 3.933 2.602 3.933zm0-.818c-1.082 0-1.681-1.107-1.681-3.115 0-1.981.61-3.105 1.682-3.105s1.672 1.113 1.672 3.105c0 2.013-.59 3.115-1.672 3.115zm6.556.818c1.647 0 2.592-1.426 2.592-3.918 0-2.485-.96-3.942-2.592-3.942-1.641 0-2.602 1.451-2.602 3.927 0 2.497.95 3.933 2.602 3.933zm0-.818c-1.082 0-1.682-1.107-1.682-3.115 0-1.981.61-3.105 1.682-3.105 1.073 0 1.672 1.113 1.672 3.105 0 2.013-.59 3.115-1.672 3.115zm-13.065-35.019c1.504 0 2.571-1.077 2.571-2.585 0-1.457-1.011-2.512-2.409-2.512-.874 0-1.59.426-1.951 1.154h-.081c.05-1.998.726-3.079 1.92-3.079.722 0 1.276.427 1.474 1.129h.94c-.233-1.207-1.158-1.961-2.403-1.961-1.794 0-2.82 1.477-2.82 4.056 0 .827.116 1.52.355 2.092.457 1.102 1.3 1.706 2.404 1.706zm-.01-.822c-.94 0-1.657-.76-1.657-1.763 0-.994.696-1.702 1.667-1.702.97 0 1.646.708 1.646 1.733 0 .983-.716 1.732-1.656 1.732zm6.52.827c1.646 0 2.591-1.425 2.591-3.917 0-2.486-.96-3.942-2.591-3.942-1.642 0-2.602 1.45-2.602 3.927 0 2.496.95 3.932 2.602 3.932zm0-.817c-1.083 0-1.682-1.108-1.682-3.115 0-1.982.61-3.105 1.682-3.105s1.672 1.113 1.672 3.105c0 2.013-.59 3.115-1.672 3.115zm6.555.817c1.647 0 2.592-1.425 2.592-3.917 0-2.486-.96-3.942-2.592-3.942-1.641 0-2.602 1.45-2.602 3.927 0 2.496.95 3.932 2.602 3.932zm0-.817c-1.082 0-1.682-1.108-1.682-3.115 0-1.982.61-3.105 1.682-3.105 1.073 0 1.672 1.113 1.672 3.105 0 2.013-.59 3.115-1.672 3.115zm-13.162-35.014c1.555 0 2.643-.901 2.643-2.185 0-.978-.605-1.737-1.525-1.914v-.084c.757-.213 1.225-.853 1.225-1.674 0-1.171-.97-2.003-2.343-2.003-1.372 0-2.343.832-2.343 2.003 0 .816.478 1.466 1.225 1.674v.084c-.92.177-1.524.936-1.524 1.914 0 1.284 1.087 2.185 2.642 2.185zm0-.802c-1.016 0-1.717-.592-1.717-1.45 0-.859.7-1.452 1.717-1.452 1.017 0 1.718.593 1.718 1.452 0 .858-.701 1.45-1.718 1.45zm0-3.692c-.864 0-1.443-.51-1.443-1.275 0-.775.574-1.29 1.443-1.29.87 0 1.444.515 1.444 1.29 0 .765-.58 1.275-1.444 1.275zm6.607 4.494c1.646 0 2.591-1.425 2.591-3.917 0-2.486-.96-3.943-2.591-3.943-1.642 0-2.602 1.451-2.602 3.927 0 2.497.95 3.933 2.602 3.933zm0-.817c-1.083 0-1.682-1.108-1.682-3.116 0-1.981.61-3.104 1.682-3.104s1.672 1.112 1.672 3.104c0 2.014-.59 3.116-1.672 3.116zm6.555.817c1.647 0 2.592-1.425 2.592-3.917 0-2.486-.96-3.943-2.592-3.943-1.641 0-2.602 1.451-2.602 3.927 0 2.497.95 3.933 2.602 3.933zm0-.817c-1.082 0-1.682-1.108-1.682-3.116 0-1.981.61-3.104 1.682-3.104 1.073 0 1.672 1.112 1.672 3.104 0 2.014-.59 3.116-1.672 3.116z" fill="#999"/><path d="M135.131 236.581c0-2.139-1.695-3.874-3.785-3.874s-3.784 1.735-3.784 3.874c0 2.139 1.694 3.874 3.784 3.874s3.785-1.735 3.785-3.874z" fill="#9BA6FA"/><path d="M145.855 239.286h-3.748v-7.019h-1.242v8.188h4.99v-1.169zm3.637-4.091c.88 0 1.458.629 1.485 1.6h-3.049c.067-.965.682-1.6 1.564-1.6zm1.479 3.591c-.221.483-.715.75-1.435.75-.954 0-1.57-.687-1.608-1.771v-.068h4.263v-.426c0-1.94-1.014-3.115-2.694-3.115-1.702 0-2.783 1.254-2.783 3.229s1.058 3.189 2.788 3.189c1.38 0 2.345-.681 2.617-1.788h-1.148zm5.179.523c-1.026 0-1.603-.789-1.603-2.021 0-1.231.577-2.02 1.603-2.02 1.014 0 1.635.789 1.635 2.02 0 1.237-.615 2.021-1.635 2.021zm.016 3.506c1.708 0 2.789-.896 2.789-2.309v-6.231h-1.142v.988h-.095c-.337-.67-1.064-1.09-1.896-1.09-1.541 0-2.505 1.237-2.505 3.121 0 1.85.954 3.07 2.494 3.07.832 0 1.497-.369 1.863-1.038h.089v1.185c0 .818-.588 1.3-1.58 1.3-.804 0-1.309-.29-1.408-.738h-1.22c.127 1.05 1.104 1.742 2.611 1.742zm6.997-7.62c.881 0 1.458.629 1.485 1.6H161.6c.066-.965.681-1.6 1.563-1.6zm1.479 3.591c-.221.483-.714.75-1.435.75-.954 0-1.569-.687-1.607-1.771v-.068h4.262v-.426c0-1.94-1.014-3.115-2.694-3.115-1.702 0-2.783 1.254-2.783 3.229s1.059 3.189 2.789 3.189c1.38 0 2.344-.681 2.616-1.788h-1.148zm2.651 1.669h1.192v-3.615c0-.964.56-1.566 1.441-1.566s1.303.494 1.303 1.487v3.694h1.192v-4.001c0-1.469-.743-2.298-2.09-2.298-.91 0-1.509.414-1.802 1.101h-.089v-.982h-1.147v6.18zm9.014.102c.831 0 1.536-.403 1.896-1.078h.094v.976h1.142v-8.591h-1.192v3.393h-.088c-.327-.681-1.026-1.084-1.852-1.084-1.525 0-2.506 1.237-2.506 3.189 0 1.958.97 3.195 2.506 3.195zm.338-5.289c.998 0 1.625.812 1.625 2.1 0 1.294-.621 2.094-1.625 2.094-1.008 0-1.613-.789-1.613-2.1 0-1.299.609-2.094 1.613-2.094zm7.623-.635v.017h1.176v-.017c0-.874.593-1.464 1.474-1.464.826 0 1.453.562 1.453 1.311 0 .601-.261 1.032-1.331 2.173l-2.705 2.883v.919h5.388v-1.141h-3.659v-.096l1.78-1.844c1.342-1.391 1.751-2.1 1.751-2.968 0-1.351-1.119-2.338-2.639-2.338-1.574 0-2.688 1.056-2.688 2.565z" fill="#151522"/><path d="M54.708 236.581c0-2.139-1.695-3.874-3.785-3.874s-3.785 1.735-3.785 3.874c0 2.139 1.695 3.874 3.785 3.874s3.785-1.735 3.785-3.874z" fill="#F7DC39"/><path d="M65.431 239.286h-3.747v-7.019h-1.242v8.188h4.99v-1.169zm3.637-4.091c.882 0 1.458.629 1.486 1.6h-3.05c.067-.965.683-1.6 1.564-1.6zm1.48 3.591c-.221.483-.715.75-1.436.75-.953 0-1.568-.687-1.607-1.771v-.068h4.263v-.426c0-1.94-1.014-3.115-2.694-3.115-1.702 0-2.783 1.254-2.783 3.229s1.059 3.189 2.788 3.189c1.38 0 2.345-.681 2.617-1.788h-1.148zm5.178.523c-1.025 0-1.602-.789-1.602-2.021 0-1.231.577-2.02 1.602-2.02 1.015 0 1.636.789 1.636 2.02 0 1.237-.615 2.021-1.636 2.021zm.017 3.506c1.708 0 2.789-.896 2.789-2.309v-6.231H77.39v.988h-.095c-.338-.67-1.064-1.09-1.896-1.09-1.54 0-2.505 1.237-2.505 3.121 0 1.85.953 3.07 2.494 3.07.832 0 1.497-.369 1.863-1.038h.089v1.185c0 .818-.588 1.3-1.58 1.3-.804 0-1.309-.29-1.409-.738h-1.22c.128 1.05 1.104 1.742 2.612 1.742zm6.996-7.62c.882 0 1.458.629 1.486 1.6h-3.049c.067-.965.682-1.6 1.563-1.6zm1.48 3.591c-.221.483-.715.75-1.435.75-.954 0-1.57-.687-1.608-1.771v-.068h4.263v-.426c0-1.94-1.014-3.115-2.694-3.115-1.702 0-2.783 1.254-2.783 3.229s1.059 3.189 2.788 3.189c1.38 0 2.346-.681 2.617-1.788H84.22zm2.65 1.669h1.192v-3.615c0-.964.56-1.566 1.442-1.566.881 0 1.303.494 1.303 1.487v3.694h1.192v-4.001c0-1.469-.743-2.298-2.09-2.298-.91 0-1.508.414-1.802 1.101h-.089v-.982H86.87v6.18zm9.015.102c.831 0 1.536-.403 1.896-1.078h.094v.976h1.142v-8.591h-1.192v3.393h-.088c-.328-.681-1.026-1.084-1.852-1.084-1.525 0-2.506 1.237-2.506 3.189 0 1.958.97 3.195 2.506 3.195zm.338-5.289c.998 0 1.625.812 1.625 2.1 0 1.294-.621 2.094-1.625 2.094-1.009 0-1.613-.789-1.613-2.1 0-1.299.61-2.094 1.613-2.094zm9.607 5.187h1.243v-8.188h-1.237l-2.106 1.52v1.3l2.007-1.453h.093v6.821z" fill="#151522"/></g><g filter="url(#filter3_dd)"><path d="M619.038 270.483H330.462c-5.226 0-9.462 4.336-9.462 9.684v121.205c0 5.348 4.236 9.684 9.462 9.684h288.576c5.226 0 9.462-4.336 9.462-9.684V280.167c0-5.348-4.236-9.684-9.462-9.684z" fill="#fff"/><path d="M347.555 387.499h-3.747v-7.019h-1.242v8.188h4.989v-1.169zm3.41.244c-.649 0-1.12-.324-1.12-.88 0-.544.377-.833 1.209-.89l1.474-.096v.516c0 .766-.665 1.35-1.563 1.35zm-.305 1.027c.793 0 1.453-.351 1.813-.97h.094v.868h1.148v-4.222c0-1.305-.854-2.076-2.368-2.076-1.369 0-2.345.681-2.467 1.741h1.154c.133-.437.593-.686 1.258-.686.815 0 1.236.369 1.236 1.021v.534l-1.635.096c-1.436.091-2.245.732-2.245 1.845 0 1.129.848 1.849 2.012 1.849zm4.612-4.534c0 .919.533 1.447 1.68 1.725l1.054.25c.604.148.887.386.887.755 0 .493-.527.834-1.27.834-.721 0-1.164-.295-1.314-.772h-1.192c.106 1.095 1.043 1.759 2.478 1.759 1.442 0 2.501-.777 2.501-1.94 0-.908-.538-1.413-1.686-1.686l-1.003-.238c-.654-.153-.959-.386-.959-.755 0-.482.504-.805 1.17-.805.676 0 1.108.289 1.219.742h1.142c-.116-1.089-1.003-1.735-2.361-1.735-1.364 0-2.346.771-2.346 1.866zm6.637-3.285v1.566h-.96v1.027h.96v3.49c0 1.191.526 1.669 1.851 1.669.233 0 .455-.03.649-.063v-1.016c-.166.017-.272.029-.455.029-.593 0-.854-.284-.854-.931v-3.178h1.309v-1.027H363.1v-1.566h-1.191zm12.096 1.538h-1.192v3.614c0 .971-.526 1.555-1.491 1.555-.876 0-1.27-.477-1.27-1.475v-3.694h-1.191v4.011c0 1.453.742 2.287 2.078 2.287.915 0 1.531-.397 1.824-1.1h.095v.981h1.147v-6.179zm4.862-.103c-.82 0-1.53.421-1.896 1.124h-.088v-1.021h-1.148v8.234h1.192v-2.991h.094c.316.652.998 1.038 1.857 1.038 1.525 0 2.495-1.232 2.495-3.195 0-1.963-.97-3.189-2.506-3.189zm-.338 5.289c-.998 0-1.624-.806-1.624-2.094 0-1.294.626-2.099 1.63-2.099 1.009 0 1.613.788 1.613 2.093 0 1.312-.604 2.1-1.619 2.1zm6.486 1.095c.832 0 1.536-.403 1.896-1.078h.095v.976h1.142v-8.591h-1.192v3.393h-.089c-.327-.681-1.026-1.084-1.852-1.084-1.524 0-2.505 1.237-2.505 3.189 0 1.959.97 3.195 2.505 3.195zm.339-5.288c.997 0 1.624.811 1.624 2.099 0 1.294-.621 2.094-1.624 2.094-1.009 0-1.614-.788-1.614-2.1 0-1.299.61-2.093 1.614-2.093zm6.558 4.261c-.649 0-1.12-.324-1.12-.88 0-.544.377-.833 1.208-.89l1.475-.096v.516c0 .766-.665 1.35-1.563 1.35zm-.305 1.027c.792 0 1.453-.351 1.812-.97h.095v.868h1.148v-4.222c0-1.305-.854-2.076-2.368-2.076-1.369 0-2.344.681-2.466 1.741h1.152c.134-.437.593-.686 1.259-.686.815 0 1.236.369 1.236 1.021v.534l-1.635.096c-1.436.091-2.245.732-2.245 1.845 0 1.129.848 1.849 2.012 1.849zm5.172-7.819v1.566h-.958v1.027h.958v3.49c0 1.191.527 1.669 1.852 1.669.233 0 .455-.03.649-.063v-1.016c-.167.017-.272.029-.455.029-.593 0-.854-.284-.854-.931v-3.178h1.309v-1.027h-1.309v-1.566h-1.192zm6.315 2.457c.882 0 1.458.63 1.485 1.6h-3.048c.066-.965.681-1.6 1.563-1.6zm1.481 3.592c-.223.482-.716.749-1.437.749-.953 0-1.568-.687-1.607-1.771v-.067h4.263v-.427c0-1.94-1.015-3.114-2.694-3.114-1.703 0-2.783 1.253-2.783 3.228 0 1.975 1.059 3.189 2.788 3.189 1.381 0 2.345-.681 2.616-1.787h-1.146zm6.352 3.91c1.231 0 1.802-.483 2.318-1.987l2.251-6.434h-1.264l-1.508 4.908h-.095l-1.513-4.908h-1.297l2.184 6.202-.089.3c-.204.625-.526.863-1.092.863-.111 0-.293-.006-.388-.022v1.049a5 5 0 00.493.029zm8.034-7.502c.881 0 1.458.63 1.485 1.6h-3.049c.067-.965.682-1.6 1.564-1.6zm1.48 3.592c-.222.482-.716.749-1.436.749-.953 0-1.569-.687-1.608-1.771v-.067h4.263v-.427c0-1.94-1.014-3.114-2.694-3.114-1.702 0-2.783 1.253-2.783 3.228 0 1.975 1.059 3.189 2.788 3.189 1.381 0 2.346-.681 2.617-1.787h-1.147zm2.511-2.764c0 .919.532 1.447 1.68 1.725l1.053.25c.605.148.888.386.888.755 0 .493-.527.834-1.27.834-.721 0-1.165-.295-1.314-.772h-1.192c.106 1.095 1.042 1.759 2.478 1.759 1.441 0 2.5-.777 2.5-1.94 0-.908-.537-1.413-1.685-1.686l-1.004-.238c-.654-.153-.958-.386-.958-.755 0-.482.504-.805 1.169-.805.677 0 1.109.289 1.22.742h1.142c-.117-1.089-1.004-1.735-2.362-1.735-1.364 0-2.345.771-2.345 1.866zm6.636-3.285v1.566h-.959v1.027h.959v3.49c0 1.191.527 1.669 1.852 1.669.232 0 .455-.03.649-.063v-1.016c-.167.017-.272.029-.455.029-.594 0-.854-.284-.854-.931v-3.178h1.309v-1.027h-1.309v-1.566h-1.192zm6.315 2.457c.882 0 1.458.63 1.485 1.6h-3.048c.066-.965.681-1.6 1.563-1.6zm1.479 3.592c-.221.482-.715.749-1.435.749-.954 0-1.569-.687-1.607-1.771v-.067h4.262v-.427c0-1.94-1.014-3.114-2.694-3.114-1.702 0-2.783 1.253-2.783 3.228 0 1.975 1.059 3.189 2.789 3.189 1.38 0 2.345-.681 2.616-1.787h-1.148zm2.651 1.668h1.192v-3.648c0-.869.638-1.453 1.541-1.453.21 0 .565.04.665.074v-1.203a2.458 2.458 0 00-.532-.052c-.788 0-1.458.443-1.63 1.05h-.089v-.947h-1.147v6.179zm6.597.102c.832 0 1.536-.403 1.896-1.078h.094v.976h1.142v-8.591h-1.191v3.393h-.089c-.328-.681-1.026-1.084-1.852-1.084-1.525 0-2.506 1.237-2.506 3.189 0 1.959.971 3.195 2.506 3.195zm.338-5.288c.998 0 1.625.811 1.625 2.099 0 1.294-.621 2.094-1.625 2.094-1.009 0-1.613-.788-1.613-2.1 0-1.299.61-2.093 1.613-2.093zm6.559 4.261c-.649 0-1.121-.324-1.121-.88 0-.544.378-.833 1.21-.89l1.474-.096v.516c0 .766-.665 1.35-1.563 1.35zm-.305 1.027c.792 0 1.452-.351 1.813-.97h.094v.868h1.147v-4.222c0-1.305-.853-2.076-2.367-2.076-1.369 0-2.345.681-2.467 1.741h1.153c.133-.437.593-.686 1.259-.686.815 0 1.236.369 1.236 1.021v.534l-1.635.096c-1.436.091-2.245.732-2.245 1.845 0 1.129.847 1.849 2.012 1.849zm5.15 2.14c1.231 0 1.801-.483 2.317-1.987l2.251-6.434h-1.264l-1.508 4.908h-.094l-1.514-4.908h-1.297l2.185 6.202-.089.3c-.206.625-.527.863-1.092.863-.112 0-.294-.006-.389-.022v1.049c.112.017.394.029.494.029zm77.52-1.415l2.703-7.507h-.96l-2.154 6.294h-.082l-2.155-6.294h-.96l2.704 7.507h.904zm3.897 0h.875v-5.608h-.875v5.608zm.438-6.746a.62.62 0 00.61-.625.62.62 0 00-.61-.624.62.62 0 00-.61.624.62.62 0 00.61.625zm4.288 1.83c.87 0 1.449.656 1.47 1.649h-3.019c.066-.993.675-1.649 1.549-1.649zm1.444 3.464c-.229.495-.707.76-1.412.76-.93 0-1.536-.703-1.581-1.811v-.041h3.938v-.343c0-1.742-.899-2.819-2.378-2.819-1.505 0-2.47 1.143-2.47 2.907 0 1.774.95 2.897 2.47 2.897 1.2 0 2.043-.587 2.307-1.55h-.874zm9.208-4.156h-.879l-1.077 4.484h-.082l-1.224-4.484h-.838l-1.226 4.484h-.081l-1.077-4.484h-.884l1.534 5.608h.885l1.219-4.339h.082l1.224 4.339h.89l1.534-5.608zm.89 1.534c0 .812.467 1.265 1.494 1.52l.94.233c.584.147.869.406.869.791 0 .516-.528.874-1.265.874-.701 0-1.139-.301-1.286-.775h-.9c.097.931.936 1.529 2.155 1.529 1.245 0 2.195-.691 2.195-1.695 0-.807-.497-1.264-1.53-1.519l-.843-.208c-.645-.162-.95-.401-.95-.785 0-.5.508-.838 1.159-.838.66 0 1.087.296 1.204.744h.864c-.117-.921-.915-1.503-2.064-1.503-1.163 0-2.042.702-2.042 1.632z" fill="#999"/><path d="M566.983 389.672c1.519 0 2.561-1.041 2.561-2.565 0-1.477-.975-2.513-2.368-2.513-.676 0-1.194.214-1.55.641h-.081l.208-2.409h3.375v-.838h-4.091l-.403 4.256h.86c.299-.536.848-.843 1.514-.843.961 0 1.621.702 1.621 1.732s-.656 1.717-1.636 1.717c-.864 0-1.494-.542-1.575-1.353h-.9c.081 1.295 1.078 2.175 2.465 2.175zm5.523-3.637h.931c1.041 0 1.686.542 1.686 1.41 0 .822-.685 1.409-1.651 1.409-.945 0-1.605-.514-1.687-1.316h-.884c.066 1.285 1.093 2.134 2.582 2.134 1.448 0 2.581-.963 2.581-2.2 0-1.026-.605-1.733-1.601-1.863v-.083c.803-.198 1.286-.853 1.286-1.748 0-1.092-1.022-1.966-2.302-1.966-1.398 0-2.308.801-2.399 2.102h.89c.076-.807.63-1.285 1.473-1.285.844 0 1.408.509 1.408 1.274 0 .781-.59 1.332-1.423 1.332h-.89v.8zm7.74-2.371c0-1.062-.645-1.805-1.559-1.805-.915 0-1.566.749-1.566 1.805 0 1.061.651 1.81 1.566 1.81.914 0 1.559-.749 1.559-1.81zm-1.559 1.144c-.453 0-.752-.453-.752-1.144 0-.692.294-1.139.752-1.139.457 0 .746.437.746 1.139 0 .686-.3 1.144-.746 1.144zm-.082 4.687l2.515-3.522 2.846-3.985h-.924l-2.572 3.595-2.8 3.912h.935zm5.885-1.681c0-1.061-.646-1.805-1.561-1.805-.914 0-1.565.75-1.565 1.805 0 1.062.651 1.81 1.565 1.81.915 0 1.561-.748 1.561-1.81zm-1.561 1.145c-.452 0-.752-.453-.752-1.145 0-.691.295-1.138.752-1.138.458 0 .748.436.748 1.138 0 .687-.3 1.145-.748 1.145z" fill="#F7DC39"/><path d="M346.583 353.359h5.61v-32.752h-5.654l-8.36 6.015v5.515l8.271-5.947h.133v27.169zm12.818-23.038v.068h5.366v-.09c0-3.246 2.484-5.652 5.81-5.652 3.171 0 5.544 2.156 5.544 4.857 0 2.452-.998 4.131-4.635 7.922l-11.775 11.984v3.949h22.486v-4.789h-14.858v-.114l7.917-8.012c4.191-4.335 6.453-7.286 6.453-11.189 0-5.312-4.568-9.306-10.955-9.306-6.63 0-11.353 4.335-11.353 10.372zm39.073 23.696c7.827 0 12.484-6.605 12.484-17.091s-4.7-16.977-12.484-16.977c-7.806 0-12.529 6.536-12.529 17 0 10.509 4.678 17.068 12.529 17.068zm0-4.789c-4.258 0-6.763-4.585-6.763-12.302 0-7.581 2.549-12.188 6.763-12.188 4.191 0 6.697 4.562 6.697 12.211 0 7.717-2.461 12.279-6.697 12.279zm22.929 4.131v-10.532l3.15-3.767 10.4 14.299h6.962l-13.283-18.226 12.33-14.526h-6.586l-12.774 15.32h-.199v-15.32h-5.721v32.752h5.721z" fill="#151522"/><path d="M344.294 365.606v-4.846h1.718v-.613h-4.102v.613h1.719v4.846h.665zm3.563.071c1.134 0 1.836-.801 1.836-2.11 0-1.313-.702-2.111-1.836-2.111-1.135 0-1.837.798-1.837 2.111 0 1.309.702 2.11 1.837 2.11zm0-.585c-.754 0-1.179-.56-1.179-1.525 0-.968.425-1.524 1.179-1.524s1.179.556 1.179 1.524c0 .965-.425 1.525-1.179 1.525zm3.101-4.62v1.056h-.644v.545h.644v2.473c0 .78.328 1.09 1.149 1.09.126 0 .248-.015.373-.038v-.548a2.47 2.47 0 01-.295.015c-.414 0-.592-.204-.592-.684v-2.308h.887v-.545h-.887v-1.056h-.635zm3.71 4.635c-.462 0-.806-.242-.806-.658 0-.409.267-.625.873-.667l1.072-.071v.374c0 .582-.485 1.022-1.139 1.022zm-.118.57c.532 0 .968-.238 1.227-.673h.059v.602h.606v-2.792c0-.848-.543-1.358-1.515-1.358-.85 0-1.478.431-1.563 1.086h.643c.088-.322.421-.507.898-.507.595 0 .902.276.902.779v.371l-1.15.071c-.928.058-1.452.478-1.452 1.208 0 .745.573 1.213 1.345 1.213zm3.104-.071h.636v-5.697h-.636v5.697zm7.259-4.078h-.68l-1.09 3.359h-.059l-1.091-3.359h-.68l1.475 4.078h.651l1.474-4.078zm.865 4.078h.636v-4.078h-.636v4.078zm.318-4.906a.45.45 0 00.443-.454.45.45 0 00-.443-.455.451.451 0 00-.444.455c0 .249.2.454.444.454zm3.119 1.331c.632 0 1.054.477 1.068 1.199h-2.195c.048-.722.492-1.199 1.127-1.199zm1.05 2.519c-.166.359-.514.553-1.028.553-.676 0-1.116-.511-1.149-1.317v-.03h2.864v-.25c0-1.266-.654-2.05-1.729-2.05-1.094 0-1.797.832-1.797 2.115 0 1.29.692 2.106 1.797 2.106.872 0 1.485-.427 1.678-1.127h-.636zm6.697-3.022h-.639l-.784 3.26h-.059l-.891-3.26h-.61l-.89 3.26h-.06l-.783-3.26h-.643l1.116 4.078h.643l.887-3.155h.059l.891 3.155h.647l1.116-4.078zm.647 1.116c0 .59.34.919 1.086 1.104l.684.171c.425.105.632.295.632.575 0 .374-.384.635-.92.635-.51 0-.828-.22-.935-.563h-.654c.07.677.68 1.111 1.567 1.111.905 0 1.596-.502 1.596-1.232 0-.586-.362-.919-1.112-1.105l-.614-.151c-.469-.118-.691-.292-.691-.572 0-.363.37-.609.843-.609.48 0 .791.216.876.541h.628c-.085-.669-.665-1.093-1.5-1.093-.847 0-1.486.51-1.486 1.188z" fill="#999"/><path fill-rule="evenodd" clip-rule="evenodd" d="M581.681 363.849v-46.094c0-1.83 1.449-3.313 3.236-3.313 1.788 0 3.237 1.483 3.237 3.313v46.094h-6.473z" fill="#D99913"/><path fill-rule="evenodd" clip-rule="evenodd" d="M571.274 363.849v-30.444c0-1.829 1.448-3.312 3.235-3.312 1.789 0 3.237 1.483 3.237 3.312v30.444h-6.472z" fill="#F7DC39"/><path fill-rule="evenodd" clip-rule="evenodd" d="M559.387 363.849v-39.65c0-1.829 1.45-3.312 3.237-3.312 1.787 0 3.236 1.483 3.236 3.312v39.65h-6.473z" fill="#D99913"/><path fill-rule="evenodd" clip-rule="evenodd" d="M548.979 363.849v-21.237c0-1.83 1.45-3.313 3.237-3.313 1.787 0 3.236 1.483 3.236 3.313v21.237h-6.473z" fill="#F7DC39"/><path fill-rule="evenodd" clip-rule="evenodd" d="M537.094 363.849v-33.512c0-1.83 1.448-3.313 3.236-3.313 1.787 0 3.236 1.483 3.236 3.313v33.512h-6.472z" fill="#D99913"/><path fill-rule="evenodd" clip-rule="evenodd" d="M526.686 363.849v-24.306c0-1.83 1.449-3.313 3.236-3.313 1.787 0 3.236 1.483 3.236 3.313v24.306h-6.472z" fill="#F7DC39"/><path fill-rule="evenodd" clip-rule="evenodd" d="M514.8 363.849V321.13c0-1.829 1.448-3.312 3.235-3.312 1.788 0 3.237 1.483 3.237 3.312v42.719H514.8z" fill="#D99913"/><path fill-rule="evenodd" clip-rule="evenodd" d="M504.392 363.849v-36.581c0-1.829 1.448-3.312 3.236-3.312 1.787 0 3.237 1.483 3.237 3.312v36.581h-6.473z" fill="#F7DC39"/><path fill-rule="evenodd" clip-rule="evenodd" d="M603.9 363.849v-46.017c0-1.872 1.482-3.39 3.311-3.39s3.312 1.518 3.312 3.39v46.017H603.9z" fill="#D99913"/><path fill-rule="evenodd" clip-rule="evenodd" d="M593.492 363.849v-21.16c0-1.872 1.483-3.39 3.312-3.39 1.828 0 3.311 1.518 3.311 3.39v21.16h-6.623z" fill="#F7DC39"/><path fill-rule="evenodd" clip-rule="evenodd" d="M492.505 363.849v-36.581c0-1.829 1.449-3.312 3.237-3.312 1.787 0 3.236 1.483 3.236 3.312v36.581h-6.473z" fill="#D99913"/><path fill-rule="evenodd" clip-rule="evenodd" d="M482.098 363.849v-21.237c0-1.83 1.448-3.313 3.236-3.313 1.788 0 3.236 1.483 3.236 3.313v21.237h-6.472z" fill="#F7DC39"/><path d="M605.792 389.01l-5.677-5.81-5.677 5.81" stroke="#F7DC39" stroke-width="2" stroke-linecap="round" stroke-linejoin="round"/></g><g filter="url(#filter4_dd)"><path d="M426.867 8H138.133c-5.228 0-9.466 4.325-9.466 9.66v280.157c0 5.335 6.105 9.661 11.333 9.661h286.867c5.228 0 9.466-4.326 9.466-9.661V17.661c0-5.336-4.238-9.661-9.466-9.661z" fill="#fff"/><path d="M271.711 168.402h-3.438v-6.418h-1.138v7.487h4.576v-1.069zm6.193 1.069h1.21l-2.649-7.487h-1.226l-2.649 7.487h1.169l.676-1.988h2.798l.671 1.988zm-2.11-6.128h.086l1.062 3.165h-2.216l1.068-3.165zm7.616 6.128c1.566 0 2.506-.804 2.506-2.123 0-.975-.66-1.696-1.651-1.8v-.088c.721-.125 1.286-.825 1.286-1.609 0-1.152-.829-1.867-2.207-1.867h-2.949v7.487h3.015zm-1.877-6.502h1.546c.845 0 1.338.405 1.338 1.095 0 .711-.524 1.089-1.531 1.089h-1.353v-2.184zm0 5.516v-2.413h1.582c1.073 0 1.637.41 1.637 1.193 0 .794-.543 1.22-1.57 1.22h-1.649zm10.506-.073h-3.519v-2.246h3.33v-1.007h-3.33v-2.118h3.519v-1.057h-4.658v7.487h4.658v-1.059zm6.223-.01h-3.436v-6.418h-1.14v7.487h4.576v-1.069z" fill="#696974"/><path d="M267.578 154.98l3.921-11.572h-2.162l-2.828 9.159h-.134l-2.852-9.159h-2.24l3.96 11.572h2.335zm7.701-1.419c-.866 0-1.486-.442-1.486-1.179 0-.714.511-1.115 1.603-1.187l1.941-.129v.699c0 1.018-.88 1.796-2.058 1.796zm-.574 1.564c1.124 0 2.067-.498 2.546-1.348h.133v1.203h1.878v-5.991c0-1.859-1.241-2.959-3.449-2.959-2.043 0-3.466.987-3.623 2.535h1.839c.181-.594.793-.915 1.689-.915 1.054 0 1.619.481 1.619 1.339v.738l-2.215.137c-2.091.128-3.262 1.042-3.262 2.63 0 1.604 1.186 2.631 2.845 2.631zm6.985-.145h1.95v-12.165h-1.95v12.165zm11.897-8.773h-1.948v5.108c0 1.299-.692 2.093-1.957 2.093-1.163 0-1.705-.657-1.705-1.997v-5.204h-1.949v5.702c0 2.053 1.1 3.248 2.978 3.248 1.312 0 2.153-.57 2.57-1.572h.134v1.395h1.877v-8.773zm5.996 1.404c1.171 0 1.941.833 1.981 2.133h-4.047c.086-1.283.903-2.133 2.066-2.133zm1.996 4.956c-.283.649-.95 1.01-1.917 1.01-1.281 0-2.106-.915-2.154-2.375v-.103h6.004v-.641c0-2.767-1.469-4.428-3.921-4.428-2.491 0-4.038 1.773-4.038 4.596 0 2.823 1.524 4.531 4.054 4.531 2.027 0 3.45-.995 3.819-2.59h-1.847z" fill="#171725"/><path opacity=".7" d="M261.657 106.906c-.606-1.902.413-3.956 2.305-4.478a69.622 69.622 0 0129.645-1.621c11.067 1.788 21.561 6.224 30.626 12.945 9.064 6.721 16.442 15.535 21.528 25.723a73.592 73.592 0 017.65 29.273c.098 1.998-1.501 3.621-3.461 3.621-1.961 0-3.54-1.623-3.649-3.621a66.24 66.24 0 00-6.866-25.983c-4.578-9.169-11.218-17.102-19.376-23.151a63.204 63.204 0 00-27.563-11.651 62.657 62.657 0 00-26.337 1.366c-1.896.511-3.896-.52-4.502-2.423z" fill="#E4E4E4"/><path d="M215.143 168.766c-1.959-.104-3.472-1.81-3.271-3.801 1.405-13.965 6.761-27.242 15.451-38.193 9.435-11.891 22.318-20.428 36.801-24.388a69.653 69.653 0 0143.82 2.343c12.891 5.05 24.034 13.815 32.094 25.192 1.149 1.622.674 3.872-.97 4.962-1.644 1.09-3.835.606-4.993-1.01-7.236-10.097-17.185-17.878-28.675-22.379a62.685 62.685 0 00-39.438-2.11c-13.035 3.565-24.63 11.248-33.121 21.95-7.747 9.761-12.549 21.577-13.869 34.014-.211 1.989-1.872 3.526-3.829 3.42z" fill="#D99913"/><path d="M203.508 247.625h-3.75v-7.002h-1.242v8.168h4.992v-1.166zm3.639-4.082c.882 0 1.459.628 1.486 1.596h-3.05c.067-.962.682-1.596 1.564-1.596zm1.481 3.583c-.222.481-.715.747-1.436.747-.955 0-1.57-.685-1.609-1.766v-.068h4.265v-.424c0-1.936-1.015-3.108-2.695-3.108-1.703 0-2.785 1.251-2.785 3.221 0 1.97 1.06 3.181 2.791 3.181 1.381 0 2.345-.679 2.617-1.783h-1.148zm5.181.521c-1.026 0-1.603-.787-1.603-2.015 0-1.228.577-2.016 1.603-2.016 1.015 0 1.637.788 1.637 2.016 0 1.233-.617 2.015-1.637 2.015zm.017 3.498c1.708 0 2.79-.895 2.79-2.304v-6.215h-1.143v.985h-.095c-.338-.668-1.065-1.087-1.897-1.087-1.542 0-2.506 1.234-2.506 3.113 0 1.846.954 3.063 2.496 3.063.832 0 1.498-.368 1.863-1.036h.089v1.183c0 .815-.588 1.296-1.581 1.296-.804 0-1.309-.289-1.409-.736h-1.22c.128 1.047 1.104 1.738 2.613 1.738zm7-7.602c.882 0 1.458.628 1.486 1.596h-3.05c.066-.962.681-1.596 1.564-1.596zm1.481 3.583c-.222.481-.716.747-1.437.747-.954 0-1.57-.685-1.608-1.766v-.068h4.265v-.424c0-1.936-1.015-3.108-2.696-3.108-1.703 0-2.784 1.251-2.784 3.221 0 1.97 1.059 3.181 2.79 3.181 1.381 0 2.346-.679 2.617-1.783h-1.147zm2.651 1.665h1.193v-3.607c0-.962.56-1.562 1.442-1.562.882 0 1.304.493 1.304 1.483v3.686h1.192V244.8c0-1.467-.743-2.293-2.091-2.293-.91 0-1.509.413-1.803 1.098h-.089v-.979h-1.148v6.165zm9.02.101c.832 0 1.536-.402 1.897-1.075h.093v.974h1.143v-8.57h-1.193v3.384h-.088c-.327-.679-1.026-1.081-1.852-1.081-1.526 0-2.508 1.234-2.508 3.181 0 1.953.971 3.187 2.508 3.187zm.338-5.276c.998 0 1.625.81 1.625 2.095 0 1.29-.621 2.088-1.625 2.088-1.01 0-1.614-.786-1.614-2.094 0-1.296.61-2.089 1.614-2.089zm9.612 5.175h1.243v-8.168h-1.237l-2.108 1.516v1.297l2.008-1.449h.094v6.804z" fill="#151522"/><path d="M212.086 223.253h3.301v-1.749h-3.301v-3.351h-1.697v3.351h-3.308v1.749h3.308v3.36h1.697v-3.36zm12.667-1.331h1.423c1.398 0 2.255.697 2.255 1.828 0 1.091-.912 1.852-2.208 1.852-1.305 0-2.201-.681-2.287-1.756h-1.941c.102 2.118 1.768 3.496 4.212 3.496 2.467 0 4.291-1.475 4.291-3.463 0-1.54-.959-2.615-2.507-2.799v-.137c1.257-.272 2.05-1.307 2.05-2.661 0-1.773-1.641-3.088-3.842-3.088-2.357 0-3.881 1.323-3.984 3.448h1.894c.078-1.091.856-1.764 2.027-1.764 1.187 0 1.95.666 1.95 1.691 0 1.035-.795 1.749-1.95 1.749h-1.383v1.604zm8.597 8.196l1.359-4.844h-1.972l-.73 4.844h1.343zm8.958-3.064h1.941v-2.157h1.533v-1.748h-1.533v-7.666h-2.86c-2.004 3.079-3.599 5.653-4.621 7.57v1.844h5.54v2.157zm-3.661-3.978a86.648 86.648 0 013.583-5.909h.11v6.03h-3.693v-.121zm13.193 4.259c2.884 0 4.597-2.302 4.597-6.199 0-1.467-.275-2.703-.802-3.657-.762-1.483-2.074-2.285-3.732-2.285-2.467 0-4.212 1.692-4.212 4.065 0 2.23 1.572 3.85 3.733 3.85 1.328 0 2.404-.634 2.938-1.732h.135c0 2.646-.983 4.225-2.642 4.225-.974 0-1.728-.544-1.988-1.419h-2.019c.338 1.9 1.917 3.152 3.992 3.152zm.071-5.87c-1.304 0-2.232-.947-2.232-2.27 0-1.291.974-2.277 2.24-2.277 1.265 0 2.24 1.002 2.24 2.309 0 1.291-.952 2.238-2.248 2.238zm11.205-3.344c0-1.716-1.037-2.879-2.562-2.879-1.524 0-2.576 1.17-2.576 2.879 0 1.708 1.052 2.887 2.576 2.887 1.525 0 2.562-1.179 2.562-2.887zm-2.562 1.531c-.612 0-.997-.601-.997-1.539s.385-1.524.997-1.524c.614 0 .991.569.991 1.524 0 .938-.393 1.539-.991 1.539zm.464 7.402l3.537-5.445 4.369-6.126h-1.926l-3.614 5.525-4.299 6.046h1.933zm8.959-2.647c0-1.708-1.038-2.878-2.562-2.878-1.524 0-2.569 1.17-2.569 2.878 0 1.717 1.045 2.888 2.569 2.888s2.562-1.171 2.562-2.888zm-2.562 1.533c-.613 0-.998-.594-.998-1.533 0-.938.385-1.531.998-1.531.612 0 .99.578.99 1.531 0 .939-.393 1.533-.99 1.533z" fill="#D99913"/><path d="M190.36 216.428v9.66m-9.466 0l9.466-9.66-9.466 9.66zm9.466-9.66h-9.466 9.466z" stroke="#D99913" stroke-linecap="round" stroke-linejoin="round"/><path d="M326.596 247.625h-3.75v-7.002h-1.242v8.168h4.992v-1.166zm3.639-4.082c.881 0 1.458.628 1.486 1.596h-3.051c.067-.962.682-1.596 1.565-1.596zm1.48 3.583c-.221.481-.715.747-1.436.747-.954 0-1.57-.685-1.609-1.766v-.068h4.265v-.424c0-1.936-1.014-3.108-2.695-3.108-1.703 0-2.785 1.251-2.785 3.221 0 1.97 1.06 3.181 2.79 3.181 1.381 0 2.347-.679 2.619-1.783h-1.149zm5.181.521c-1.026 0-1.602-.787-1.602-2.015 0-1.228.576-2.016 1.602-2.016 1.015 0 1.636.788 1.636 2.016 0 1.233-.615 2.015-1.636 2.015zm.016 3.498c1.709 0 2.791-.895 2.791-2.304v-6.215h-1.142v.985h-.095c-.338-.668-1.065-1.087-1.897-1.087-1.542 0-2.507 1.234-2.507 3.113 0 1.846.954 3.063 2.495 3.063.833 0 1.498-.368 1.864-1.036h.089v1.183c0 .815-.587 1.296-1.581 1.296-.804 0-1.309-.289-1.408-.736h-1.22c.126 1.047 1.103 1.738 2.611 1.738zm7.001-7.602c.882 0 1.459.628 1.486 1.596h-3.05c.066-.962.682-1.596 1.564-1.596zm1.481 3.583c-.222.481-.715.747-1.436.747-.955 0-1.57-.685-1.609-1.766v-.068h4.266v-.424c0-1.936-1.016-3.108-2.696-3.108-1.703 0-2.785 1.251-2.785 3.221 0 1.97 1.06 3.181 2.79 3.181 1.382 0 2.346-.679 2.618-1.783h-1.148zm2.651 1.665h1.193v-3.607c0-.962.56-1.562 1.442-1.562.882 0 1.303.493 1.303 1.483v3.686h1.193V244.8c0-1.467-.743-2.293-2.091-2.293-.91 0-1.509.413-1.802 1.098h-.089v-.979h-1.149v6.165zm9.02.101c.831 0 1.537-.402 1.896-1.075h.095v.974h1.143v-8.57h-1.193v3.384h-.088c-.328-.679-1.026-1.081-1.853-1.081-1.526 0-2.508 1.234-2.508 3.181 0 1.953.972 3.187 2.508 3.187zm.338-5.276c.999 0 1.625.81 1.625 2.095 0 1.29-.621 2.088-1.625 2.088-1.009 0-1.614-.786-1.614-2.094 0-1.296.61-2.089 1.614-2.089zm7.627-.633v.016h1.176v-.016c0-.872.594-1.461 1.475-1.461.826 0 1.454.56 1.454 1.308 0 .6-.261 1.03-1.332 2.168l-2.706 2.875v.918h5.391v-1.138h-3.661v-.097l1.781-1.839c1.342-1.388 1.752-2.095 1.752-2.96 0-1.348-1.12-2.333-2.64-2.333-1.575 0-2.69 1.053-2.69 2.559z" fill="#151522"/><path d="M307.828 223.325v-1.868h-5.163v1.868h5.163zm10.93 4.017c2.712 0 4.323-2.245 4.323-6.069 0-3.842-1.635-6.079-4.323-6.079-2.695 0-4.329 2.237-4.329 6.062 0 3.841 1.61 6.086 4.329 6.086zm0-1.715c-1.438 0-2.278-1.524-2.278-4.371 0-2.823.856-4.338 2.278-4.338 1.423 0 2.271 1.508 2.271 4.338 0 2.847-.833 4.371-2.271 4.371zm7.049 4.491l1.36-4.844h-1.972l-.731 4.844h1.343zm6.043-3.064h2.027v-11.571h-2.019l-2.963 2.117v1.989l2.821-2.021h.134v9.486zm7.85-5.132h1.422c1.399 0 2.256.697 2.256 1.828 0 1.091-.911 1.852-2.208 1.852-1.305 0-2.2-.681-2.287-1.756h-1.941c.102 2.118 1.768 3.496 4.212 3.496 2.468 0 4.291-1.475 4.291-3.463 0-1.54-.959-2.615-2.507-2.799v-.137c1.257-.272 2.05-1.307 2.05-2.661 0-1.773-1.642-3.088-3.842-3.088-2.357 0-3.881 1.323-3.984 3.448h1.894c.078-1.091.856-1.764 2.027-1.764 1.187 0 1.949.666 1.949 1.691 0 1.035-.794 1.749-1.949 1.749H339.7v1.604zm12.432-3.801c0-1.716-1.038-2.879-2.562-2.879-1.525 0-2.577 1.17-2.577 2.879 0 1.708 1.052 2.887 2.577 2.887 1.524 0 2.562-1.179 2.562-2.887zm-2.562 1.531c-.613 0-.998-.601-.998-1.539s.385-1.524.998-1.524.991.569.991 1.524c0 .938-.393 1.539-.991 1.539zm.463 7.402l3.537-5.445 4.369-6.126h-1.926l-3.614 5.525-4.299 6.046h1.933zm8.959-2.647c0-1.708-1.037-2.878-2.562-2.878-1.524 0-2.569 1.17-2.569 2.878 0 1.717 1.045 2.888 2.569 2.888 1.525 0 2.562-1.171 2.562-2.888zm-2.562 1.533c-.613 0-.998-.594-.998-1.533 0-.938.385-1.531.998-1.531s.99.578.99 1.531c0 .939-.393 1.533-.99 1.533z" fill="#E4E4E4"/><path d="M374.64 226.088v-9.66m9.467 0l-9.467 9.66 9.467-9.66zm-9.467 9.66h9.467-9.467z" stroke="#E4E4E4" stroke-linecap="round" stroke-linejoin="round"/></g><g filter="url(#filter5_dd)"><path d="M666.667 218.894c0 5.378-4.238 9.738-9.467 9.738H368.467c-5.229 0-9.467-4.36-9.467-9.738v-58.426c0-5.378 4.238-9.738 9.467-9.738H657.2c5.229 0 9.467 4.36 9.467 9.738v58.426z" fill="#fff"/><path opacity=".7" d="M541.158 189.681c0 16.091-12.682 29.136-28.325 29.136-15.643 0-28.325-13.045-28.325-29.136s12.682-29.136 28.325-29.136c15.643 0 28.325 13.045 28.325 29.136zm-50.984 0c0 12.873 10.144 23.308 22.659 23.308 12.514 0 22.66-10.435 22.66-23.308s-10.146-23.308-22.66-23.308c-12.515 0-22.659 10.435-22.659 23.308z" fill="#E4E4E4"/><path d="M512.833 163.459c0-1.609 1.272-2.929 2.828-2.768 5.872.606 11.442 3.088 15.903 7.135 5.175 4.692 8.506 11.164 9.37 18.203.865 7.039-.797 14.161-4.674 20.029-3.344 5.061-8.137 8.89-13.679 10.979-1.469.554-3.019-.399-3.408-1.958-.389-1.558.533-3.129 1.988-3.721 4.209-1.71 7.845-4.689 10.414-8.576 3.101-4.694 4.431-10.391 3.739-16.022-.691-5.631-3.357-10.809-7.496-14.563a22.378 22.378 0 00-12.16-5.643c-1.551-.2-2.825-1.486-2.825-3.095z" fill="#F7DC39"/><path d="M505.888 193.964h1.301v-1.458h1.029v-1.182h-1.029v-5.183h-1.918c-1.344 2.082-2.413 3.822-3.099 5.118v1.247h3.716v1.458zm-2.456-2.689a58.41 58.41 0 012.404-3.995h.074v4.076h-2.478v-.081zm9.102 2.879c1.655 0 2.825-1.139 2.825-2.749 0-1.501-1.059-2.602-2.503-2.602-.896 0-1.613.428-1.972 1.171h-.089c0-1.789.659-2.857 1.771-2.857.654 0 1.159.368 1.328.959h1.36c-.227-1.284-1.291-2.13-2.678-2.13-1.939 0-3.082 1.561-3.082 4.191 0 .997.183 1.832.536 2.472.507 1.003 1.387 1.545 2.504 1.545zm-.016-1.166c-.848 0-1.496-.672-1.496-1.561 0-.873.638-1.513 1.507-1.513.87 0 1.497.64 1.497 1.535 0 .873-.654 1.539-1.508 1.539zm7.326-5.063c0-1.16-.695-1.947-1.718-1.947-1.022 0-1.728.792-1.728 1.947 0 1.154.706 1.951 1.728 1.951 1.023 0 1.718-.797 1.718-1.951zm-1.718 1.035c-.411 0-.669-.406-.669-1.041 0-.634.258-1.03.669-1.03.411 0 .665.385.665 1.03 0 .635-.264 1.041-.665 1.041zm.312 5.004l2.371-3.681 2.93-4.142h-1.291l-2.425 3.735-2.882 4.088h1.297zm6.008-1.789c0-1.155-.696-1.946-1.718-1.946-1.023 0-1.724.791-1.724 1.946 0 1.16.701 1.952 1.724 1.952 1.022 0 1.718-.792 1.718-1.952zm-1.718 1.036c-.412 0-.67-.402-.67-1.036s.258-1.035.67-1.035c.411 0 .664.39.664 1.035 0 .634-.264 1.036-.664 1.036zm-139.31-18.933c-2.829 0-4.597 2.075-4.597 5.385 0 3.295 1.726 5.392 4.597 5.392 2.856 0 4.576-2.104 4.576-5.392 0-3.302-1.733-5.385-4.576-5.385zm0 1.184c2.045 0 3.293 1.626 3.293 4.201 0 2.553-1.241 4.208-3.293 4.208-2.08 0-3.314-1.655-3.314-4.208 0-2.575 1.275-4.201 3.314-4.201zm6.594 9.35h1.192v-4.55c0-1.348.77-2.168 1.962-2.168 1.193 0 1.761.656 1.761 2.039v4.679h1.193v-4.978c0-1.826-.936-2.846-2.614-2.846-1.144 0-1.872.499-2.246 1.348h-.111v-1.212h-1.137v7.688zm8.362 0h1.192v-10.741h-1.192v10.741zm3.536 0h1.192v-7.688h-1.192v7.688zm.596-9.25a.846.846 0 00.832-.856.846.846 0 00-.832-.856.846.846 0 00-.832.856c0 .471.374.856.832.856zm2.87 9.25h1.193v-4.55c0-1.348.77-2.168 1.962-2.168 1.193 0 1.761.656 1.761 2.039v4.679h1.193v-4.978c0-1.826-.936-2.846-2.614-2.846-1.144 0-1.872.499-2.247 1.348h-.11v-1.212h-1.138v7.688zm11.274-6.74c1.186 0 1.977.899 2.004 2.261h-4.118c.09-1.362.922-2.261 2.114-2.261zm1.97 4.75c-.312.678-.964 1.042-1.928 1.042-1.269 0-2.094-.963-2.156-2.482v-.057h5.373v-.471c0-2.389-1.227-3.866-3.245-3.866-2.052 0-3.369 1.569-3.369 3.987 0 2.432 1.296 3.973 3.369 3.973 1.637 0 2.788-.806 3.148-2.126h-1.192zm-35.286 21.466l3.689-10.292h-1.31l-2.94 8.63h-.111l-2.94-8.63h-1.31l3.688 10.292h1.234zm5.319 0h1.192v-7.689h-1.192v7.689zm.596-9.251a.846.846 0 00.832-.856.846.846 0 00-.832-.855.846.846 0 00-.832.855c0 .471.374.856.832.856zm2.697 3.666c0 1.113.638 1.733 2.038 2.083l1.283.321c.798.199 1.186.556 1.186 1.084 0 .706-.721 1.198-1.727 1.198-.956 0-1.553-.414-1.754-1.063h-1.227c.132 1.277 1.276 2.097 2.94 2.097 1.699 0 2.995-.948 2.995-2.325 0-1.105-.679-1.733-2.087-2.083l-1.151-.285c-.88-.221-1.296-.549-1.296-1.077 0-.684.693-1.148 1.58-1.148.902 0 1.484.407 1.644 1.02h1.178c-.159-1.263-1.248-2.061-2.815-2.061-1.587 0-2.787.962-2.787 2.239zm7.634 5.585h1.193v-7.689h-1.193v7.689zm.596-9.251a.846.846 0 00.832-.856.846.846 0 00-.832-.855.847.847 0 00-.832.855c0 .471.375.856.832.856zm3.37-.428v1.99h-1.207v1.027h1.207v4.665c0 1.469.617 2.054 2.156 2.054.236 0 .465-.029.701-.072v-1.034c-.222.022-.34.029-.555.029-.777 0-1.109-.385-1.109-1.291v-4.351h1.664v-1.027h-1.664v-1.99h-1.193zm7.62 9.814c2.129 0 3.446-1.512 3.446-3.98 0-2.474-1.317-3.979-3.446-3.979-2.129 0-3.446 1.505-3.446 3.979 0 2.468 1.317 3.98 3.446 3.98zm0-1.105c-1.414 0-2.212-1.056-2.212-2.875 0-1.825.798-2.874 2.212-2.874 1.414 0 2.212 1.049 2.212 2.874 0 1.819-.798 2.875-2.212 2.875zm5.318.97h1.193v-4.765c0-1.084.825-1.868 1.962-1.868.236 0 .666.043.763.071v-1.227a5.094 5.094 0 00-.597-.035c-.991 0-1.851.527-2.073 1.276h-.111v-1.141h-1.137v7.689zm5.096-5.585c0 1.113.638 1.733 2.039 2.083l1.282.321c.798.199 1.186.556 1.186 1.084 0 .706-.721 1.198-1.726 1.198-.957 0-1.554-.414-1.755-1.063h-1.227c.132 1.277 1.276 2.097 2.94 2.097 1.699 0 2.995-.948 2.995-2.325 0-1.105-.679-1.733-2.087-2.083l-1.151-.285c-.88-.221-1.296-.549-1.296-1.077 0-.684.693-1.148 1.581-1.148.901 0 1.483.407 1.643 1.02h1.179c-.16-1.263-1.248-2.061-2.815-2.061-1.588 0-2.788.962-2.788 2.239zm194.987-23.142v-5.489h-.772l-1.827 4.542h-.06l-1.826-4.542h-.773v5.489h.622v-4.192h.043l1.683 4.154h.563l1.682-4.154h.044v4.192h.621zm2.507-.502c-.462 0-.806-.243-.806-.662 0-.411.266-.627.873-.669l1.073-.072v.376c0 .586-.485 1.027-1.14 1.027zm-.118.575c.533 0 .969-.24 1.228-.678h.059v.605h.606v-2.807c0-.852-.543-1.365-1.516-1.365-.851 0-1.479.433-1.563 1.091h.642c.089-.323.423-.51.899-.51.595 0 .903.278.903.784v.373l-1.15.072c-.929.057-1.453.479-1.453 1.214 0 .749.572 1.221 1.345 1.221zm4.482-1.621l.943 1.548h.755l-1.372-2.077 1.353-2.023h-.721l-.936 1.525h-.059l-.946-1.525h-.759l1.38 2.05-1.365 2.05h.721l.947-1.548h.059zm6.46 1.678c1.106 0 1.864-.761 1.864-1.876 0-1.08-.71-1.837-1.724-1.837-.491 0-.868.156-1.127.468h-.059l.152-1.761h2.454v-.613h-2.976l-.292 3.112h.625c.218-.392.617-.616 1.102-.616.699 0 1.18.513 1.18 1.266s-.477 1.256-1.191 1.256c-.629 0-1.088-.396-1.147-.989h-.654c.059.947.784 1.59 1.793 1.59zm4.204-.13h.667v-5.489h-.663l-1.42 1.05v.723l1.358-1.012h.058v4.728zm2.227-3.944v.004h.644v-.004c0-.647.421-1.077 1.046-1.077.588 0 1.043.423 1.043.97 0 .442-.167.738-.855 1.507l-1.845 2.073v.471h3.454v-.616h-2.5v-.061l1.283-1.419c.877-.966 1.128-1.411 1.128-1.981 0-.871-.732-1.541-1.689-1.541-.992 0-1.709.7-1.709 1.674z" fill="#151522"/><path d="M608.984 197.188h2.305c2.316 0 3.74 1.185 3.74 3.128 0 1.771-1.515 3.009-3.663 3.009-2.226 0-3.624-1.171-3.779-2.929h-3.184c.168 3.422 2.835 5.738 6.938 5.738 4.076 0 7.079-2.289 7.079-5.684 0-2.676-1.812-4.434-4.608-4.647v-.08c2.304-.412 3.857-2.13 3.857-4.513 0-2.995-2.615-5.059-6.289-5.059-3.858 0-6.433 2.237-6.615 5.685h3.106c.13-1.797 1.424-2.956 3.352-2.956 2.097 0 3.236 1.119 3.236 2.796 0 1.717-1.306 2.929-3.222 2.929h-2.253v2.583zm16.761 8.56h3.275v-19.211h-3.3l-4.879 3.528v3.235l4.827-3.488h.077v15.936zm7.482-13.513v.04h3.131v-.053c0-1.904 1.451-3.315 3.391-3.315 1.851 0 3.236 1.265 3.236 2.849 0 1.438-.582 2.423-2.705 4.646l-6.873 7.03v2.316h13.124v-2.809h-8.671v-.066l4.62-4.7c2.447-2.543 3.767-4.274 3.767-6.563 0-3.116-2.667-5.459-6.394-5.459-3.87 0-6.626 2.543-6.626 6.084z" fill="#F7DC39"/></g><g filter="url(#filter6_dd)"><path fill-rule="evenodd" clip-rule="evenodd" d="M411.099 19.882H610.2c5.229 0 9.467 4.338 9.467 9.69v58.141c0 5.352-4.238 9.69-9.467 9.69H411.099c-8.468 7.137-19.316 11.423-31.14 11.423-11.826 0-22.673-4.286-31.141-11.423h-27.351c-5.229 0-9.467-4.338-9.467-9.69V29.572c0-5.352 4.238-9.69 9.467-9.69h27.351c8.468-7.137 19.315-11.422 31.141-11.422 11.824 0 22.672 4.285 31.14 11.422z" fill="#fff"/><path opacity=".7" d="M417.22 58.643c0 21.065-16.682 38.141-37.261 38.141-20.579 0-37.262-17.076-37.262-38.141 0-21.065 16.683-38.142 37.262-38.142s37.261 17.077 37.261 38.142zm-67.071 0c0 16.852 13.346 30.513 29.81 30.513 16.463 0 29.809-13.661 29.809-30.513 0-16.852-13.346-30.514-29.809-30.514-16.464 0-29.81 13.662-29.81 30.514z" fill="#E4E4E4"/><path d="M379.958 24.315c0-2.106 1.673-3.834 3.721-3.623 7.726.793 15.051 4.043 20.921 9.34 6.807 6.142 11.189 14.616 12.327 23.83 1.137 9.215-1.05 18.538-6.15 26.22-4.399 6.625-10.705 11.637-17.995 14.372-1.932.725-3.971-.522-4.483-2.562-.513-2.04.701-4.097 2.615-4.871 5.537-2.24 10.321-6.139 13.699-11.227 4.081-6.146 5.83-13.604 4.92-20.976-.91-7.371-4.416-14.15-9.861-19.064-4.508-4.068-10.09-6.627-15.997-7.387-2.042-.262-3.717-1.945-3.717-4.052z" fill="#F7DC39"/><path d="M370.822 63.488h1.713v-1.91h1.352v-1.547h-1.352v-6.785h-2.524c-1.768 2.726-3.176 5.004-4.077 6.7v1.633h4.888v1.909zm-3.231-3.52a77.405 77.405 0 013.162-5.231h.097v5.337h-3.259v-.106zm11.974 3.768c2.178 0 3.716-1.49 3.716-3.598 0-1.966-1.393-3.407-3.293-3.407-1.178 0-2.121.56-2.593 1.533h-.118c0-2.342.867-3.74 2.33-3.74.86 0 1.525.483 1.747 1.256h1.789c-.298-1.682-1.698-2.79-3.522-2.79-2.552 0-4.056 2.045-4.056 5.487 0 1.306.242 2.399.707 3.237.665 1.313 1.823 2.022 3.293 2.022zm-.021-1.526c-1.116 0-1.969-.88-1.969-2.044 0-1.142.839-1.98 1.983-1.98 1.145 0 1.969.838 1.969 2.009 0 1.142-.86 2.015-1.983 2.015zm9.638-6.629c0-1.518-.915-2.548-2.26-2.548-1.345 0-2.275 1.037-2.275 2.548 0 1.512.93 2.555 2.275 2.555 1.345 0 2.26-1.043 2.26-2.555zm-2.26 1.356c-.541 0-.88-.532-.88-1.363 0-.83.339-1.348.88-1.348.541 0 .874.504.874 1.348 0 .83-.348 1.363-.874 1.363zm.409 6.55l3.12-4.818 3.855-5.423h-1.698l-3.19 4.89-3.793 5.352h1.706zm7.904-2.341c0-1.512-.915-2.548-2.26-2.548-1.345 0-2.267 1.036-2.267 2.548 0 1.518.922 2.555 2.267 2.555 1.345 0 2.26-1.037 2.26-2.555zm-2.26 1.355c-.541 0-.88-.525-.88-1.355s.339-1.356.88-1.356c.541 0 .874.511.874 1.356 0 .83-.348 1.355-.874 1.355z" fill="#151522"/><path d="M572.455 60.375h2.613v-.91h-2.613v-2.676h-.89v2.676h-2.614v.91h2.614v2.676h.89v-2.676zm4.458-3.266v.006h1.045v-.006c0-1.046.686-1.74 1.702-1.74.955 0 1.694.682 1.694 1.568 0 .713-.271 1.193-1.389 2.436l-2.998 3.352v.763h5.613v-.997h-4.062v-.098l2.085-2.294c1.424-1.563 1.832-2.282 1.832-3.205 0-1.409-1.19-2.491-2.746-2.491-1.61 0-2.776 1.132-2.776 2.706zm10.354 6.588c1.797 0 3.028-1.23 3.028-3.033 0-1.747-1.154-2.97-2.8-2.97-.799 0-1.412.252-1.833.756h-.096l.247-2.848h3.989v-.99h-4.836l-.475 5.031h1.015c.354-.633 1.004-.996 1.791-.996 1.135 0 1.916.83 1.916 2.048s-.774 2.03-1.935 2.03c-1.021 0-1.766-.64-1.862-1.6h-1.064c.097 1.532 1.275 2.572 2.915 2.572zm7.968-7.105c0-1.254-.763-2.134-1.845-2.134-1.082 0-1.851.886-1.851 2.135 0 1.254.769 2.14 1.851 2.14 1.082 0 1.845-.886 1.845-2.14zm-1.845 1.354c-.535 0-.889-.535-.889-1.353 0-.819.349-1.348.889-1.348.541 0 .883.517.883 1.348 0 .811-.354 1.353-.883 1.353zm-.096 5.542l2.975-4.164 3.364-4.712h-1.093l-3.041 4.25-3.31 4.626h1.105zm6.959-1.987c0-1.255-.763-2.134-1.846-2.134-1.081 0-1.85.885-1.85 2.134 0 1.255.769 2.14 1.85 2.14 1.083 0 1.846-.885 1.846-2.14zm-1.846 1.353c-.534 0-.888-.535-.888-1.353s.348-1.347.888-1.347c.542 0 .884.517.884 1.347 0 .812-.354 1.353-.884 1.353z" fill="#D99913"/><path d="M447.985 62.608h-5.006v-9.362h-.949v10.242h5.955v-.88zm4.403-6.069c1.352 0 2.246 1.03 2.267 2.605h-4.652c.084-1.575 1.027-2.605 2.385-2.605zm2.177 5.06c-.319.753-1.082 1.186-2.142 1.186-1.443 0-2.378-1.107-2.427-2.832v-.042h5.61v-.412c0-2.335-1.221-3.783-3.21-3.783-2.032 0-3.336 1.554-3.336 3.953 0 2.414 1.29 3.947 3.342 3.947 1.567 0 2.718-.774 3.085-2.016h-.922zm5.963.98c-1.491 0-2.392-1.2-2.392-3.009 0-1.817.901-3.016 2.392-3.016 1.477 0 2.427 1.213 2.427 3.03 0 1.81-.929 2.995-2.427 2.995zm.076 3.776c1.963 0 3.245-1.093 3.245-2.754v-7.757h-.874v1.512h-.083c-.409-.994-1.4-1.64-2.544-1.64-1.914 0-3.148 1.562-3.148 3.854s1.228 3.84 3.148 3.84c1.144 0 2.059-.59 2.503-1.597h.09v1.717c0 1.235-.894 2.009-2.337 2.009-1.137 0-1.913-.454-2.08-1.157h-.963c.194 1.192 1.331 1.973 3.043 1.973zm8.536-9.816c1.352 0 2.247 1.03 2.267 2.605h-4.652c.083-1.575 1.026-2.605 2.385-2.605zm2.177 5.06c-.319.753-1.082 1.186-2.143 1.186-1.441 0-2.378-1.107-2.426-2.832v-.042h5.609v-.412c0-2.335-1.22-3.783-3.21-3.783-2.032 0-3.335 1.554-3.335 3.953 0 2.414 1.289 3.947 3.341 3.947 1.567 0 2.718-.774 3.086-2.016h-.922zm3.009 1.889h.909v-4.543c0-1.44.901-2.391 2.218-2.391 1.297 0 1.948.745 1.948 2.2v4.734h.909V58.52c0-1.782-.951-2.804-2.614-2.804-1.193 0-2.018.56-2.413 1.505h-.09v-1.377h-.867v7.644zm11.052.127c1.144 0 2.108-.631 2.552-1.653h.083v1.526h.874V52.799h-.909v4.535h-.082c-.424-1-1.381-1.618-2.518-1.618-1.893 0-3.162 1.583-3.162 3.953s1.256 3.947 3.162 3.947zm.194-7.061c1.463 0 2.42 1.235 2.42 3.108 0 1.888-.949 3.109-2.42 3.109-1.476 0-2.419-1.207-2.419-3.109 0-1.895.943-3.108 2.419-3.108z" fill="#999"/></g><defs><filter id="filter0_dd" x="0" y="168.318" width="371.5" height="364.209" filterUnits="userSpaceOnUse" color-interpolation-filters="sRGB"><feFlood flood-opacity="0" result="BackgroundImageFix"/><feColorMatrix in="SourceAlpha" values="0 0 0 0 0 0 0 0 0 0 0 0 0 0 0 0 0 0 127 0"/><feOffset dy="24"/><feGaussianBlur stdDeviation="16"/><feColorMatrix values="0 0 0 0 0.196487 0 0 0 0 0.196487 0 0 0 0 0.279476 0 0 0 0.08 0"/><feBlend mode="multiply" in2="BackgroundImageFix" result="effect1_dropShadow"/><feColorMatrix in="SourceAlpha" values="0 0 0 0 0 0 0 0 0 0 0 0 0 0 0 0 0 0 127 0"/><feOffset dy="16"/><feGaussianBlur stdDeviation="8"/><feColorMatrix values="0 0 0 0 0.196487 0 0 0 0 0.196487 0 0 0 0 0.279476 0 0 0 0.08 0"/><feBlend mode="multiply" in2="effect1_dropShadow" result="effect2_dropShadow"/><feBlend in="SourceGraphic" in2="effect2_dropShadow" result="shape"/></filter><filter id="filter1_dd" x="256.116" y="352.398" width="21.354" height="21.621" filterUnits="userSpaceOnUse" color-interpolation-filters="sRGB"><feFlood flood-opacity="0" result="BackgroundImageFix"/><feColorMatrix in="SourceAlpha" values="0 0 0 0 0 0 0 0 0 0 0 0 0 0 0 0 0 0 127 0"/><feOffset dy="2"/><feGaussianBlur stdDeviation="2"/><feColorMatrix values="0 0 0 0 0.196487 0 0 0 0 0.196487 0 0 0 0 0.279476 0 0 0 0.06 0"/><feBlend mode="multiply" in2="BackgroundImageFix" result="effect1_dropShadow"/><feColorMatrix in="SourceAlpha" values="0 0 0 0 0 0 0 0 0 0 0 0 0 0 0 0 0 0 127 0"/><feOffset dy="2"/><feGaussianBlur stdDeviation="1"/><feColorMatrix values="0 0 0 0 0.196487 0 0 0 0 0.196487 0 0 0 0 0.279476 0 0 0 0.06 0"/><feBlend mode="multiply" in2="effect1_dropShadow" result="effect2_dropShadow"/><feBlend in="SourceGraphic" in2="effect2_dropShadow" result="shape"/></filter><filter id="filter2_dd" x="223.312" y="287.484" width="86.962" height="76.042" filterUnits="userSpaceOnUse" color-interpolation-filters="sRGB"><feFlood flood-opacity="0" result="BackgroundImageFix"/><feColorMatrix in="SourceAlpha" values="0 0 0 0 0 0 0 0 0 0 0 0 0 0 0 0 0 0 127 0"/><feOffset dy="4"/><feGaussianBlur stdDeviation="4"/><feColorMatrix values="0 0 0 0 0.196487 0 0 0 0 0.196487 0 0 0 0 0.279476 0 0 0 0.06 0"/><feBlend mode="multiply" in2="BackgroundImageFix" result="effect1_dropShadow"/><feColorMatrix in="SourceAlpha" values="0 0 0 0 0 0 0 0 0 0 0 0 0 0 0 0 0 0 127 0"/><feOffset dy="4"/><feGaussianBlur stdDeviation="2"/><feColorMatrix values="0 0 0 0 0.196487 0 0 0 0 0.196487 0 0 0 0 0.279476 0 0 0 0.08 0"/><feBlend mode="multiply" in2="effect1_dropShadow" result="effect2_dropShadow"/><feBlend in="SourceGraphic" in2="effect2_dropShadow" result="shape"/></filter><filter id="filter3_dd" x="289" y="262.483" width="371.5" height="204.573" filterUnits="userSpaceOnUse" color-interpolation-filters="sRGB"><feFlood flood-opacity="0" result="BackgroundImageFix"/><feColorMatrix in="SourceAlpha" values="0 0 0 0 0 0 0 0 0 0 0 0 0 0 0 0 0 0 127 0"/><feOffset dy="24"/><feGaussianBlur stdDeviation="16"/><feColorMatrix values="0 0 0 0 0.196487 0 0 0 0 0.196487 0 0 0 0 0.279476 0 0 0 0.08 0"/><feBlend mode="multiply" in2="BackgroundImageFix" result="effect1_dropShadow"/><feColorMatrix in="SourceAlpha" values="0 0 0 0 0 0 0 0 0 0 0 0 0 0 0 0 0 0 127 0"/><feOffset dy="16"/><feGaussianBlur stdDeviation="8"/><feColorMatrix values="0 0 0 0 0.196487 0 0 0 0 0.196487 0 0 0 0 0.279476 0 0 0 0.08 0"/><feBlend mode="multiply" in2="effect1_dropShadow" result="effect2_dropShadow"/><feBlend in="SourceGraphic" in2="effect2_dropShadow" result="shape"/></filter><filter id="filter4_dd" x="96.667" y="0" width="371.667" height="363.478" filterUnits="userSpaceOnUse" color-interpolation-filters="sRGB"><feFlood flood-opacity="0" result="BackgroundImageFix"/><feColorMatrix in="SourceAlpha" values="0 0 0 0 0 0 0 0 0 0 0 0 0 0 0 0 0 0 127 0"/><feOffset dy="24"/><feGaussianBlur stdDeviation="16"/><feColorMatrix values="0 0 0 0 0.196487 0 0 0 0 0.196487 0 0 0 0 0.279476 0 0 0 0.08 0"/><feBlend mode="multiply" in2="BackgroundImageFix" result="effect1_dropShadow"/><feColorMatrix in="SourceAlpha" values="0 0 0 0 0 0 0 0 0 0 0 0 0 0 0 0 0 0 127 0"/><feOffset dy="16"/><feGaussianBlur stdDeviation="8"/><feColorMatrix values="0 0 0 0 0.196487 0 0 0 0 0.196487 0 0 0 0 0.279476 0 0 0 0.08 0"/><feBlend mode="multiply" in2="effect1_dropShadow" result="effect2_dropShadow"/><feBlend in="SourceGraphic" in2="effect2_dropShadow" result="shape"/></filter><filter id="filter5_dd" x="327" y="142.73" width="371.667" height="141.902" filterUnits="userSpaceOnUse" color-interpolation-filters="sRGB"><feFlood flood-opacity="0" result="BackgroundImageFix"/><feColorMatrix in="SourceAlpha" values="0 0 0 0 0 0 0 0 0 0 0 0 0 0 0 0 0 0 127 0"/><feOffset dy="24"/><feGaussianBlur stdDeviation="16"/><feColorMatrix values="0 0 0 0 0.196487 0 0 0 0 0.196487 0 0 0 0 0.279476 0 0 0 0.08 0"/><feBlend mode="multiply" in2="BackgroundImageFix" result="effect1_dropShadow"/><feColorMatrix in="SourceAlpha" values="0 0 0 0 0 0 0 0 0 0 0 0 0 0 0 0 0 0 127 0"/><feOffset dy="16"/><feGaussianBlur stdDeviation="8"/><feColorMatrix values="0 0 0 0 0.196487 0 0 0 0 0.196487 0 0 0 0 0.279476 0 0 0 0.08 0"/><feBlend mode="multiply" in2="effect1_dropShadow" result="effect2_dropShadow"/><feBlend in="SourceGraphic" in2="effect2_dropShadow" result="shape"/></filter><filter id="filter6_dd" x="280" y=".46" width="371.667" height="164.366" filterUnits="userSpaceOnUse" color-interpolation-filters="sRGB"><feFlood flood-opacity="0" result="BackgroundImageFix"/><feColorMatrix in="SourceAlpha" values="0 0 0 0 0 0 0 0 0 0 0 0 0 0 0 0 0 0 127 0"/><feOffset dy="24"/><feGaussianBlur stdDeviation="16"/><feColorMatrix values="0 0 0 0 0.196487 0 0 0 0 0.196487 0 0 0 0 0.279476 0 0 0 0.08 0"/><feBlend mode="multiply" in2="BackgroundImageFix" result="effect1_dropShadow"/><feColorMatrix in="SourceAlpha" values="0 0 0 0 0 0 0 0 0 0 0 0 0 0 0 0 0 0 127 0"/><feOffset dy="16"/><feGaussianBlur stdDeviation="8"/><feColorMatrix values="0 0 0 0 0.196487 0 0 0 0 0.196487 0 0 0 0 0.279476 0 0 0 0.08 0"/><feBlend mode="multiply" in2="effect1_dropShadow" result="effect2_dropShadow"/><feBlend in="SourceGraphic" in2="effect2_dropShadow" result="shape"/></filter></defs></svg>