<svg width="61" height="61" fill="none" xmlns="http://www.w3.org/2000/svg"><circle cx="30.5" cy="30.5" r="30.5" fill="url(#paint0_linear)"/><path d="M30.485 24.58a5.903 5.903 0 100 11.806 5.903 5.903 0 000-11.805zm0 9.737a3.835 3.835 0 110-7.67 3.835 3.835 0 010 7.67zm6.137-8.577a1.376 1.376 0 100-2.752 1.376 1.376 0 000 2.752z" fill="#000"/><path d="M41.38 22.965a5.877 5.877 0 00-3.362-3.36 8.433 8.433 0 00-2.79-.537c-1.23-.053-1.619-.069-4.736-.069-3.118 0-3.517 0-4.736.07-.954.018-1.896.2-2.788.536a5.872 5.872 0 00-3.362 3.36 8.403 8.403 0 00-.535 2.79c-.054 1.228-.071 1.618-.071 4.736 0 3.118 0 3.515.072 4.736.019.955.199 1.897.534 2.792a5.885 5.885 0 003.363 3.36 8.41 8.41 0 002.79.575c1.229.053 1.618.07 4.735.07 3.118 0 3.517 0 4.736-.07a8.45 8.45 0 002.791-.535 5.89 5.89 0 003.361-3.361 8.408 8.408 0 00.535-2.791c.055-1.228.072-1.617.072-4.736 0-3.119 0-3.515-.072-4.736a8.4 8.4 0 00-.537-2.83zm-1.555 12.168a6.44 6.44 0 01-.397 2.155 3.813 3.813 0 01-2.186 2.184 6.362 6.362 0 01-2.132.397c-1.212.056-1.554.07-4.664.07-3.113 0-3.43 0-4.666-.07a6.334 6.334 0 01-2.13-.397 3.81 3.81 0 01-2.195-2.184 6.483 6.483 0 01-.397-2.13c-.055-1.214-.068-1.556-.068-4.666 0-3.11 0-3.428.068-4.665a6.432 6.432 0 01.397-2.154 3.812 3.812 0 012.194-2.185 6.396 6.396 0 012.13-.398c1.215-.054 1.556-.07 4.667-.07 3.11 0 3.43 0 4.664.07.729.01 1.45.144 2.132.398a3.818 3.818 0 012.186 2.185 6.51 6.51 0 01.397 2.13c.055 1.215.069 1.555.069 4.666 0 3.11 0 3.445-.055 4.665h-.014v-.001z" fill="#000"/><defs><linearGradient id="paint0_linear" x1="61" y1="30.5" x2="0" y2="30.5" gradientUnits="userSpaceOnUse"><stop stop-color="#D99913"/><stop offset="1" stop-color="#F7DC39"/></linearGradient></defs></svg>