<svg width="86" height="91" fill="none" xmlns="http://www.w3.org/2000/svg"><path d="M11.333 57.643H4.667c-.92 0-1.667.68-1.667 1.518v27.321C3 87.32 3.746 88 4.667 88h6.666c.92 0 1.667-.68 1.667-1.518V59.161c0-.839-.746-1.518-1.667-1.518zM58 39.428h-6.667c-.92 0-1.666.68-1.666 1.518v45.536c0 .838.746 1.518 1.666 1.518H58c.92 0 1.667-.68 1.667-1.518V40.946c0-.838-.747-1.517-1.667-1.517zm23.333-21.25h-6.666c-.92 0-1.667.68-1.667 1.518v66.786c0 .838.746 1.518 1.667 1.518h6.666c.92 0 1.667-.68 1.667-1.518V19.696c0-.838-.746-1.518-1.667-1.518zM34.667 3H28c-.92 0-1.667.68-1.667 1.518v81.964C26.333 87.32 27.08 88 28 88h6.667c.92 0 1.666-.68 1.666-1.518V4.518c0-.838-.746-1.518-1.666-1.518z" stroke="#444" stroke-width="6" stroke-linecap="round" stroke-linejoin="round"/></svg>