<svg width="80" height="80" fill="none" xmlns="http://www.w3.org/2000/svg"><path d="M8.14 53.916A15.78 15.78 0 008 56c0 9.512 8.552 17.136 18.084 15.856A15.976 15.976 0 0040 80a15.976 15.976 0 0013.916-8.144C63.428 73.136 72 65.512 72 56c0-.692-.048-1.388-.14-2.084A15.985 15.985 0 0080 40c0-5.86-3.208-11.144-8.14-13.916.092-.696.14-1.392.14-2.084 0-9.512-8.572-17.152-18.084-15.856A15.976 15.976 0 0040 0a15.976 15.976 0 00-13.916 8.144C16.552 6.848 8 14.488 8 24c0 .692.048 1.388.14 2.084A15.985 15.985 0 000 40c0 5.86 3.208 11.144 8.14 13.916zm5.768-21.612l4.408-1.172-1.736-4.212A7.728 7.728 0 0116 24c0-4.412 3.588-8 8-8 .988 0 1.996.2 2.92.58l4.216 1.736 1.172-4.408a7.96 7.96 0 0115.384 0l1.172 4.408 4.216-1.736A7.742 7.742 0 0156 16c4.412 0 8 3.588 8 8 0 .988-.2 2-.58 2.92l-1.736 4.212 4.408 1.172a7.972 7.972 0 010 15.392l-4.408 1.172 1.736 4.212c.38.92.58 1.932.58 2.92 0 4.412-3.588 8-8 8-.988 0-1.996-.2-2.92-.58l-4.216-1.736-1.172 4.408a7.96 7.96 0 01-15.384 0l-1.172-4.408-4.216 1.736A7.74 7.74 0 0124 64c-4.412 0-8-3.588-8-8 0-.988.2-2 .58-2.92l1.736-4.212-4.408-1.172a7.972 7.972 0 010-15.392z" fill="#444"/><path d="M54.968 34.84l-5.632-5.68-13.324 13.196-5.184-5.184-5.656 5.656 10.816 10.816 18.98-18.804z" fill="#444"/></svg>