<svg width="64" height="73" fill="none" xmlns="http://www.w3.org/2000/svg"><path d="M42.123 72.72L64 67.98s-7.891-53.413-7.956-53.767c-.065-.35-.35-.585-.642-.585-.293 0-5.85-.41-5.85-.41s-3.86-3.86-4.327-4.27c-.11-.118-.231-.175-.35-.235L42.124 72.72zM43.937 8.6c-.066 0-.175.057-.232.057-.065 0-.882.24-2.167.642-1.293-3.736-3.574-7.188-7.607-7.188h-.35C32.408.642 31.009 0 29.777 0 20.36 0 15.848 11.758 14.45 17.722c-3.627 1.118-6.253 1.935-6.558 2.053-2.049.642-2.102.7-2.333 2.634C5.326 23.808 0 65.053 0 65.053l41.131 7.72L43.937 8.6zm-10.713 2.86v.415c-2.273.703-4.79 1.463-7.25 2.223 1.408-5.378 4.034-8.017 6.315-9.013.593 1.525.935 3.57.935 6.375zm-3.74-8.944c.406 0 .817.113 1.231.414-2.975 1.4-6.255 4.97-7.605 12.11a240.464 240.464 0 01-5.737 1.756c1.581-5.446 5.387-14.279 12.11-14.279zm1.634 31.76s-2.456-1.28-5.375-1.28c-4.39 0-4.566 2.748-4.566 3.45 0 3.745 9.831 5.205 9.831 14.04 0 6.96-4.39 11.407-10.355 11.407-7.14 0-10.766-4.447-10.766-4.447l1.932-6.318s3.748 3.22 6.899 3.22c2.057 0 2.931-1.635 2.931-2.806 0-4.915-8.074-5.155-8.074-13.22 0-6.786 4.858-13.397 14.746-13.397 3.805 0 5.671 1.106 5.671 1.106l-2.874 8.245zm3.748-29.602c2.106.244 3.456 2.635 4.326 5.33-1.049.354-2.224.704-3.508 1.11v-.76c0-2.28-.293-4.155-.818-5.68z" fill="#444"/></svg>