<svg width="88" height="78" fill="none" xmlns="http://www.w3.org/2000/svg"><path d="M74.77 19.217H13.23c-5.097 0-9.23 4.088-9.23 9.132v36.527c0 5.044 4.133 9.132 9.23 9.132h61.54c5.097 0 9.23-4.088 9.23-9.132V28.35c0-5.044-4.133-9.132-9.23-9.132z" stroke="#444" stroke-width="7.458" stroke-linejoin="round"/><path d="M73.877 19.217v-5.708c0-1.4-.313-2.782-.916-4.048a9.527 9.527 0 00-2.57-3.278 9.654 9.654 0 00-3.738-1.884 9.717 9.717 0 00-4.192-.13l-50.646 8.55a9.636 9.636 0 00-5.61 3.283A9.45 9.45 0 004 22.071v9.322" stroke="#444" stroke-width="7.458" stroke-linejoin="round"/><path d="M65.539 52.7a6.202 6.202 0 01-3.42-1.026 6.103 6.103 0 01-2.266-2.732 6.027 6.027 0 01-.35-3.517 6.068 6.068 0 011.684-3.117 6.174 6.174 0 013.151-1.666 6.216 6.216 0 013.556.346 6.14 6.14 0 012.761 2.242 6.042 6.042 0 011.037 3.383 6.055 6.055 0 01-1.802 4.304 6.188 6.188 0 01-4.351 1.783z" fill="#444"/></svg>