<svg width="61" height="61" viewBox="0 0 61 61" fill="none" xmlns="http://www.w3.org/2000/svg">
<circle cx="30.5" cy="30.4995" r="30.5" fill="url(#paint0_linear)"/>
<path d="M30.7645 17.9995C23.7152 17.9995 18 23.7147 18 30.764C18 37.1341 22.6672 42.414 28.7705 43.3753V34.4546H25.528V30.764H28.7705V27.9517C28.7705 24.75 30.6764 22.9845 33.5908 22.9845C34.9874 22.9845 36.4503 23.2335 36.4503 23.2335V26.3726H34.8367C33.2538 26.3726 32.7585 27.3581 32.7585 28.3678V30.7614H36.2959L35.7303 34.452H32.7585V43.3727C38.8618 42.4166 43.5289 37.1354 43.5289 30.764C43.5289 23.7147 37.8137 17.9995 30.7645 17.9995Z" fill="black"/>
<defs>
<linearGradient id="paint0_linear" x1="61" y1="30.4995" x2="1.67176e-09" y2="30.4995" gradientUnits="userSpaceOnUse">
<stop stop-color="#D99913"/>
<stop offset="1" stop-color="#F7DC39"/>
</linearGradient>
</defs>
</svg>
