<svg width="60" height="60" viewBox="0 0 60 60" fill="none" xmlns="http://www.w3.org/2000/svg">
<path d="M36.6149 5.11161L12.1429 35.3571H26.4286L22.9118 54.6907C22.9052 54.7287 22.9069 54.7676 22.9169 54.8048C22.9268 54.842 22.9449 54.8766 22.9697 54.906C22.9945 54.9355 23.0254 54.9592 23.0604 54.9754C23.0953 54.9916 23.1334 55 23.1719 54.9999V54.9999C23.2129 54.9998 23.2533 54.9902 23.2899 54.9718C23.3265 54.9534 23.3583 54.9267 23.3828 54.8939L47.8571 24.6428H33.5714L37.1049 5.30692C37.1096 5.2684 37.1061 5.22931 37.0946 5.19224C37.0831 5.15518 37.0638 5.12099 37.038 5.09196C37.0123 5.06293 36.9806 5.03971 36.9452 5.02385C36.9098 5.008 36.8714 4.99987 36.8326 5V5C36.7901 5.00017 36.7482 5.01037 36.7104 5.02976C36.6726 5.04915 36.6399 5.07719 36.6149 5.11161V5.11161Z" stroke="black" stroke-width="2.94375" stroke-linecap="round" stroke-linejoin="round"/>
</svg>
