<svg width="96" height="96" viewBox="0 0 96 96" fill="none" xmlns="http://www.w3.org/2000/svg">
<path d="M9 63L87 63C88.6569 63 90 61.6569 90 60V18C90 16.3431 88.6569 15 87 15L9 15C7.34315 15 6 16.3431 6 18V60C6 61.6569 7.34315 63 9 63Z" stroke="#444444" stroke-width="4" stroke-linejoin="round"/>
<path d="M18 81H78M12 72H84H12Z" stroke="#444444" stroke-width="4" stroke-linecap="round" stroke-linejoin="round"/>
<path d="M48 54C56.2843 54 63 47.2843 63 39C63 30.7157 56.2843 24 48 24C39.7157 24 33 30.7157 33 39C33 47.2843 39.7157 54 48 54Z" stroke="#444444" stroke-width="6" stroke-linecap="round" stroke-linejoin="round"/>
<path d="M6 48C7.96983 48 9.92037 48.388 11.7403 49.1418C13.5601 49.8956 15.2137 51.0005 16.6066 52.3934C17.9995 53.7863 19.1044 55.4399 19.8582 57.2597C20.612 59.0796 21 61.0302 21 63M90 30C86.0218 30 82.2064 28.4196 79.3934 25.6066C76.5804 22.7936 75 18.9782 75 15L90 30ZM6 30C7.96983 30 9.92037 29.612 11.7403 28.8582C13.5601 28.1044 15.2137 26.9995 16.6066 25.6066C17.9995 24.2137 19.1044 22.5601 19.8582 20.7403C20.612 18.9204 21 16.9698 21 15L6 30ZM90 48C86.0218 48 82.2064 49.5804 79.3934 52.3934C76.5804 55.2064 75 59.0218 75 63L90 48Z" stroke="#444444" stroke-width="4" stroke-linecap="round" stroke-linejoin="round"/>
</svg>
