<svg width="120" height="88" viewBox="0 0 120 88" fill="none" xmlns="http://www.w3.org/2000/svg">
<path d="M95.8507 22.6783C95.1313 32.6642 87.7236 40.3567 79.6456 40.3567C71.5676 40.3567 64.1476 32.6666 63.4404 22.6783C62.7038 12.2899 69.9151 5 79.6456 5C89.376 5 96.5873 12.4789 95.8507 22.6783Z" stroke="#444444" stroke-width="8.28554" stroke-linecap="round" stroke-linejoin="round"/>
<path d="M79.6453 56.0707C63.6439 56.0707 48.2564 64.0186 44.4015 79.4969C43.8908 81.5447 45.1749 83.5703 47.2792 83.5703H112.014C114.118 83.5703 115.395 81.5447 114.891 79.4969C111.037 63.7706 95.6491 56.0707 79.6453 56.0707Z" stroke="#444444" stroke-width="8.28554" stroke-miterlimit="10"/>
<path d="M46.2527 27.0832C45.6782 35.0581 39.6921 41.3388 33.2395 41.3388C26.7869 41.3388 20.791 35.0606 20.2263 27.0832C19.6394 18.7867 25.4659 12.8571 33.2395 12.8571C41.013 12.8571 46.8395 18.9389 46.2527 27.0832Z" stroke="#444444" stroke-width="8.28554" stroke-linecap="round" stroke-linejoin="round"/>
<path d="M47.7261 56.562C43.2942 54.5314 38.413 53.7506 33.2396 53.7506C20.4719 53.7506 8.17075 60.0976 5.08931 72.4602C4.68419 74.0954 5.71051 75.7135 7.38996 75.7135H34.9584" stroke="#444444" stroke-width="8.28554" stroke-miterlimit="10" stroke-linecap="round"/>
</svg>
