<svg width="60" height="61" viewBox="0 0 60 61" fill="none" xmlns="http://www.w3.org/2000/svg">
<path d="M44.4069 11.4313C44.2087 11.4318 44.0141 11.3792 43.8432 11.2788C39.1411 8.76136 35.0757 7.69336 30.2019 7.69336C25.3525 7.69336 20.7478 8.8885 16.5595 11.2788C15.9673 11.6136 15.2372 11.3805 14.894 10.766C14.7407 10.4694 14.7062 10.1256 14.7973 9.80439C14.8884 9.48322 15.0984 9.20879 15.3845 9.03684C19.9016 6.47489 25.0089 5.13537 30.2019 5.15052C35.4179 5.15052 39.9739 6.34566 44.9705 9.01565C45.2621 9.17594 45.4792 9.4441 45.5752 9.76261C45.6713 10.0811 45.6387 10.4246 45.4844 10.7194C45.3917 10.9286 45.2409 11.1069 45.0499 11.2331C44.8589 11.3593 44.6358 11.4281 44.4069 11.4313ZM9.35903 24.7813C9.10456 24.7795 8.85677 24.6996 8.64915 24.5524C8.37904 24.3517 8.19737 24.054 8.14243 23.7219C8.08749 23.3899 8.16356 23.0495 8.35461 22.7724C10.7798 19.2125 13.8641 16.4153 17.5396 14.4573C25.2296 10.3422 35.0757 10.3125 42.7901 14.4319C46.4645 16.3899 49.5498 19.1616 51.975 22.6962C52.1653 22.9735 52.2409 23.3136 52.186 23.6454C52.1311 23.9772 51.9499 24.2749 51.6805 24.4762C51.5498 24.5739 51.4004 24.6437 51.2416 24.6814C51.0827 24.719 50.9179 24.7237 50.7572 24.6951C50.5965 24.6665 50.4434 24.6052 50.3074 24.5151C50.1713 24.4249 50.0552 24.3078 49.9662 24.171C47.7624 20.967 44.9706 18.4496 41.6638 16.695C34.6349 12.9571 25.646 12.9571 18.6415 16.7205C15.3104 18.5005 12.5185 21.0433 10.3147 24.2431C10.2197 24.4114 10.0804 24.5506 9.91194 24.6455C9.74348 24.7403 9.55228 24.7873 9.35903 24.7813ZM24.6659 55.4777C24.5041 55.4793 24.3437 55.446 24.1959 55.3802C24.048 55.3144 23.916 55.2176 23.8088 55.0963C21.6781 52.8798 20.5232 51.4515 18.8862 48.3789C17.191 45.2512 16.3148 41.4369 16.3148 37.343C16.3148 29.7907 22.5352 23.637 30.1775 23.637C37.8199 23.637 44.0445 29.7907 44.0445 37.343C44.0493 37.5068 44.0212 37.6699 43.9619 37.8226C43.9025 37.9754 43.8131 38.1147 43.699 38.2322C43.5848 38.3498 43.4482 38.4433 43.2973 38.5071C43.1463 38.5709 42.9841 38.6038 42.8203 38.6038C42.6564 38.6038 42.4942 38.5709 42.3432 38.5071C42.1923 38.4433 42.0557 38.3498 41.9415 38.2322C41.8274 38.1147 41.738 37.9754 41.6786 37.8226C41.6193 37.6699 41.5912 37.5068 41.596 37.343C41.596 31.1893 36.4764 26.1799 30.1828 26.1799C23.8893 26.1799 18.7644 31.1893 18.7644 37.343C18.7644 41.0047 19.5474 44.3866 21.0413 47.1329C22.6094 50.0572 23.6901 51.3032 25.5729 53.2866C25.7961 53.5334 25.9198 53.8544 25.9198 54.1872C25.9198 54.52 25.7961 54.841 25.5729 55.0878C25.3325 55.3303 25.0073 55.4701 24.6659 55.4777ZM42.2275 50.7734C39.3127 50.7734 36.7413 50.0106 34.6349 48.5103C32.8404 47.2525 31.3744 45.5819 30.3603 43.6392C29.3461 41.6965 28.8136 39.5386 28.8076 37.3472C28.8007 37.1821 28.8273 37.0173 28.8858 36.8627C28.9442 36.7081 29.0333 36.5669 29.1477 36.4476C29.2621 36.3284 29.3995 36.2335 29.5515 36.1686C29.7035 36.1038 29.8671 36.0704 30.0324 36.0704C30.1977 36.0704 30.3612 36.1038 30.5132 36.1686C30.6653 36.2335 30.8026 36.3284 30.917 36.4476C31.0314 36.5669 31.1206 36.7081 31.179 36.8627C31.2375 37.0173 31.2641 37.1821 31.2572 37.3472C31.2613 39.1272 31.6954 40.8799 32.5226 42.456C33.3498 44.0322 34.5455 45.3851 36.0081 46.3997C37.7467 47.6203 39.78 48.2009 42.2296 48.2009C43.0827 48.1858 43.9332 48.1007 44.7724 47.9466C45.4336 47.8195 46.0703 48.2772 46.1922 48.9892C46.2543 49.3178 46.1835 49.6576 45.9954 49.9341C45.8073 50.2105 45.5172 50.4011 45.1888 50.4641C44.2132 50.6568 43.2219 50.759 42.2275 50.7692V50.7734ZM37.3039 56.0075C37.1963 56.003 37.0896 55.9859 36.986 55.9566C33.0912 54.8377 30.5441 53.3375 27.8741 50.6166C24.4445 47.0821 22.5596 42.3778 22.5596 37.343C22.5596 33.2235 25.9395 29.867 30.1023 29.867C34.2652 29.867 37.6461 33.2235 37.6461 37.343C37.6461 40.0638 39.9241 42.2761 42.7403 42.2761C45.5565 42.2761 47.8344 40.0638 47.8344 37.343C47.8344 27.7564 39.8743 19.9753 30.0779 19.9753C23.1222 19.9753 16.7545 23.993 13.8895 30.223C12.936 32.2827 12.4444 34.6984 12.4444 37.343C12.4444 39.3264 12.6149 42.4541 14.0845 46.5226C14.3303 47.1838 14.0114 47.9212 13.3746 48.1501C13.2233 48.2077 13.0619 48.2341 12.9001 48.2278C12.7382 48.2215 12.5794 48.1825 12.433 48.1132C12.2866 48.044 12.1558 47.9458 12.0483 47.8247C11.9408 47.7036 11.859 47.562 11.8076 47.4084C10.6259 44.1841 10.0205 40.777 10.0191 37.343C10.0191 34.2915 10.5828 31.5156 11.6847 29.1041C14.9427 22.0054 22.1676 17.407 30.0779 17.407C41.222 17.407 50.284 26.3324 50.284 37.3175C50.284 41.4369 46.9042 44.7935 42.7403 44.7935C38.5763 44.7935 35.1965 41.4369 35.1965 37.3175C35.1975 34.5967 32.9196 32.3802 30.1034 32.3802C27.2872 32.3802 25.0092 34.5924 25.0092 37.3133C25.0092 41.6573 26.626 45.7301 29.5895 48.7815C31.9204 51.1718 34.1454 52.4899 37.5984 53.4858C38.2596 53.6638 38.6272 54.3758 38.4556 55.0369C38.4021 55.3053 38.259 55.5476 38.0497 55.7239C37.8404 55.9003 37.5774 56.0002 37.3039 56.0075Z" fill="#444444"/>
</svg>
