<svg width="52" height="52" viewBox="0 0 52 52" fill="none" xmlns="http://www.w3.org/2000/svg">
<path d="M42.2504 9.525V8.275C42.7944 8.275 43.276 8.62689 43.4413 9.14523C43.6066 9.66356 43.4176 10.2293 42.974 10.5442L42.2504 9.525ZM9.7496 9.525L9.02596 10.5442C8.58235 10.2293 8.3934 9.66356 8.55869 9.14523C8.72398 8.62689 9.20555 8.275 9.7496 8.275V9.525ZM10.4733 43.045C9.91034 43.4447 9.13003 43.3123 8.73037 42.7494C8.33071 42.1865 8.46305 41.4062 9.02596 41.0066L10.4733 43.045ZM42.974 41.0066C43.5369 41.4062 43.6693 42.1865 43.2696 42.7494C42.87 43.3123 42.0897 43.4447 41.5267 43.045L42.974 41.0066ZM26 0.150391C40.1517 0.150391 51.625 11.6237 51.625 25.7754H49.125C49.125 13.0044 38.771 2.65039 26 2.65039V0.150391ZM51.625 25.7754C51.625 39.9271 40.1517 51.4004 26 51.4004V48.9004C38.771 48.9004 49.125 38.5464 49.125 25.7754H51.625ZM26 51.4004C11.8483 51.4004 0.375 39.9271 0.375 25.7754H2.875C2.875 38.5464 13.229 48.9004 26 48.9004V51.4004ZM0.375 25.7754C0.375 11.6237 11.8483 0.150391 26 0.150391V2.65039C13.229 2.65039 2.875 13.0044 2.875 25.7754H0.375ZM26 0.150391C30.0915 0.150391 33.7202 3.38514 36.2464 7.93291C38.8127 12.5529 40.4535 18.8606 40.4535 25.7754H37.9535C37.9535 19.2289 36.3951 13.349 34.0609 9.14688C31.6866 4.87247 28.7135 2.65039 26 2.65039V0.150391ZM40.4535 25.7754C40.4535 32.6902 38.8127 38.9979 36.2464 43.6179C33.7202 48.1656 30.0915 51.4004 26 51.4004V48.9004C28.7135 48.9004 31.6866 46.6783 34.0609 42.4039C36.3951 38.2017 37.9535 32.3219 37.9535 25.7754H40.4535ZM26 51.4004C21.9085 51.4004 18.2798 48.1656 15.7536 43.6179C13.1873 38.9979 11.5465 32.6902 11.5465 25.7754H14.0465C14.0465 32.3219 15.6049 38.2017 17.9391 42.4039C20.3134 46.6783 23.2865 48.9004 26 48.9004V51.4004ZM11.5465 25.7754C11.5465 18.8606 13.1873 12.5529 15.7536 7.93291C18.2798 3.38514 21.9085 0.150391 26 0.150391V2.65039C23.2865 2.65039 20.3134 4.87247 17.9391 9.14688C15.6049 13.349 14.0465 19.2289 14.0465 25.7754H11.5465ZM42.974 10.5442C38.2811 13.8762 32.3867 15.8539 26 15.8539V13.3539C31.8688 13.3539 37.2572 11.5371 41.5267 8.50577L42.974 10.5442ZM26 15.8539C19.6133 15.8539 13.7189 13.8762 9.02596 10.5442L10.4733 8.50577C14.7428 11.5371 20.1312 13.3539 26 13.3539V15.8539ZM9.7496 8.275H42.2504V10.775H9.7496V8.275ZM9.02596 41.0066C13.7189 37.6746 19.6133 35.6969 26 35.6969V38.1969C20.1312 38.1969 14.7428 40.0137 10.4733 43.045L9.02596 41.0066ZM26 35.6969C32.3867 35.6969 38.2811 37.6746 42.974 41.0066L41.5267 43.045C37.2572 40.0137 31.8688 38.1969 26 38.1969V35.6969ZM27.25 1.40039V50.1504H24.75V1.40039H27.25ZM1.625 24.5254H50.375V27.0254H1.625V24.5254Z" fill="#444444"/>
</svg>
