<svg xmlns="http://www.w3.org/2000/svg" xmlns:xlink="http://www.w3.org/1999/xlink" viewBox="0 0 600 450"><defs><style>.cls-1{isolation:isolate;}.cls-14,.cls-2,.cls-27,.cls-28,.cls-3,.cls-35,.cls-36,.cls-37,.cls-42,.cls-43,.cls-48,.cls-49{opacity:0.4;}.cls-2,.cls-27,.cls-28,.cls-3,.cls-36,.cls-37,.cls-42,.cls-43,.cls-48,.cls-49{mix-blend-mode:lighten;}.cls-2{fill:url(#Áåçûìÿííûé_ãðàäèåíò_7);}.cls-3{fill:url(#Áåçûìÿííûé_ãðàäèåíò_11);}.cls-12,.cls-13,.cls-14,.cls-15,.cls-16,.cls-19,.cls-4,.cls-5{fill:#f7dc39;}.cls-4{opacity:0.3;}.cls-6{fill:url(#Áåçûìÿííûé_ãðàäèåíò_9);}.cls-7{fill:#a06c10;}.cls-13,.cls-7{opacity:0.6;}.cls-8{fill:url(#Áåçûìÿííûé_ãðàäèåíò_4);}.cls-34,.cls-9{fill:#b56b00;}.cls-10{fill:url(#Áåçûìÿííûé_ãðàäèåíò_2);}.cls-11{fill:#d99913;}.cls-12,.cls-34{opacity:0.8;}.cls-15{opacity:0.2;}.cls-16{opacity:0.1;}.cls-17{fill:url(#Áåçûìÿííûé_ãðàäèåíò_4-2);}.cls-18{fill:url(#Áåçûìÿííûé_ãðàäèåíò_2-2);}.cls-19{opacity:0.5;}.cls-20{fill:url(#Áåçûìÿííûé_ãðàäèåíò_4-3);}.cls-21{fill:url(#Áåçûìÿííûé_ãðàäèåíò_2-3);}.cls-22{fill:url(#Áåçûìÿííûé_ãðàäèåíò_4-4);}.cls-23{fill:url(#Áåçûìÿííûé_ãðàäèåíò_2-4);}.cls-24{fill:url(#Áåçûìÿííûé_ãðàäèåíò_4-5);}.cls-25{fill:url(#Áåçûìÿííûé_ãðàäèåíò_2-5);}.cls-26,.cls-35{fill:#fff;}.cls-27{fill:url(#Áåçûìÿííûé_ãðàäèåíò_7-2);}.cls-28{fill:url(#Áåçûìÿííûé_ãðàäèåíò_11-2);}.cls-29{fill:url(#Áåçûìÿííûé_ãðàäèåíò_2-6);}.cls-30{fill:url(#Áåçûìÿííûé_ãðàäèåíò_2-7);}.cls-31{fill:url(#Áåçûìÿííûé_ãðàäèåíò_8);}.cls-32{fill:url(#Áåçûìÿííûé_ãðàäèåíò_4-6);}.cls-33{fill:url(#Áåçûìÿííûé_ãðàäèåíò_8-2);}.cls-36{fill:url(#Áåçûìÿííûé_ãðàäèåíò_7-3);}.cls-37{fill:url(#Áåçûìÿííûé_ãðàäèåíò_11-3);}.cls-38{fill:url(#Áåçûìÿííûé_ãðàäèåíò_10);}.cls-39{fill:url(#Áåçûìÿííûé_ãðàäèåíò_4-7);}.cls-40{fill:url(#Áåçûìÿííûé_ãðàäèåíò_9-2);}.cls-41{fill:url(#Áåçûìÿííûé_ãðàäèåíò_2-8);}.cls-42{fill:url(#Áåçûìÿííûé_ãðàäèåíò_7-4);}.cls-43{fill:url(#Áåçûìÿííûé_ãðàäèåíò_11-4);}.cls-44{fill:url(#Áåçûìÿííûé_ãðàäèåíò_10-2);}.cls-45{fill:url(#Áåçûìÿííûé_ãðàäèåíò_4-8);}.cls-46{fill:url(#Áåçûìÿííûé_ãðàäèåíò_9-3);}.cls-47{fill:url(#Áåçûìÿííûé_ãðàäèåíò_2-9);}.cls-48{fill:url(#Áåçûìÿííûé_ãðàäèåíò_7-5);}.cls-49{fill:url(#Áåçûìÿííûé_ãðàäèåíò_11-5);}.cls-50{fill:url(#Áåçûìÿííûé_ãðàäèåíò_10-3);}.cls-51{fill:url(#Áåçûìÿííûé_ãðàäèåíò_4-9);}.cls-52{fill:url(#Áåçûìÿííûé_ãðàäèåíò_9-4);}.cls-53{fill:url(#Áåçûìÿííûé_ãðàäèåíò_2-10);}</style><radialGradient id="Áåçûìÿííûé_ãðàäèåíò_7" cx="-2723.95" cy="202.81" r="68.5" gradientTransform="matrix(0.87, 0.5, -0.87, 0.5, 2806.39, 1509.72)" gradientUnits="userSpaceOnUse"><stop offset="0.01" stop-color="#f7dc39"/><stop offset="0.22" stop-color="#d9b52b"/><stop offset="0.43" stop-color="#c0951f"/><stop offset="0.64" stop-color="#ae7e17"/><stop offset="0.83" stop-color="#a47112"/><stop offset="1" stop-color="#a06c10"/></radialGradient><radialGradient id="Áåçûìÿííûé_ãðàäèåíò_11" cx="-2746.29" cy="225.16" r="68.5" gradientTransform="matrix(0.87, 0.5, -0.87, 0.5, 2806.39, 1509.72)" gradientUnits="userSpaceOnUse"><stop offset="0.01" stop-color="#b56b00"/><stop offset="0.08" stop-color="#b26b02"/><stop offset="0.57" stop-color="#a56c0c"/><stop offset="1" stop-color="#a06c10"/></radialGradient><linearGradient id="Áåçûìÿííûé_ãðàäèåíò_9" x1="217.87" y1="244.81" x2="277.24" y2="244.81" gradientUnits="userSpaceOnUse"><stop offset="0" stop-color="#b56b00"/><stop offset="0.23" stop-color="#b56b00"/><stop offset="0.51" stop-color="#f7dc39"/><stop offset="0.78" stop-color="#f7dc39"/><stop offset="1" stop-color="#f7dc39"/></linearGradient><linearGradient id="Áåçûìÿííûé_ãðàäèåíò_4" x1="-35.29" y1="237.42" x2="23.75" y2="237.42" gradientTransform="translate(253.32)" gradientUnits="userSpaceOnUse"><stop offset="0" stop-color="#4c4c4c"/><stop offset="0.07" stop-color="#403e41"/><stop offset="0.18" stop-color="#322e35"/><stop offset="0.31" stop-color="#2a252d"/><stop offset="0.48" stop-color="#27222b"/><stop offset="0.58" stop-color="#433427"/><stop offset="0.78" stop-color="#8a641e"/><stop offset="1" stop-color="#d99913"/></linearGradient><linearGradient id="Áåçûìÿííûé_ãðàäèåíò_2" x1="290.93" y1="1046.56" x2="339.14" y2="1046.56" gradientTransform="matrix(0.87, 0.5, -0.87, 0.5, 881.06, -453.03)" gradientUnits="userSpaceOnUse"><stop offset="0" stop-color="#464047"/><stop offset="0.13" stop-color="#4f4544"/><stop offset="0.33" stop-color="#66533c"/><stop offset="0.58" stop-color="#8c6a2e"/><stop offset="0.87" stop-color="#c08a1c"/><stop offset="1" stop-color="#d99913"/></linearGradient><linearGradient id="Áåçûìÿííûé_ãðàäèåíò_4-2" x1="-35.29" y1="216.66" x2="23.75" y2="216.66" xlink:href="#Áåçûìÿííûé_ãðàäèåíò_4"/><linearGradient id="Áåçûìÿííûé_ãðàäèåíò_2-2" x1="270.16" y1="1025.8" x2="318.37" y2="1025.8" xlink:href="#Áåçûìÿííûé_ãðàäèåíò_2"/><linearGradient id="Áåçûìÿííûé_ãðàäèåíò_4-3" x1="-35.29" y1="195.89" x2="23.75" y2="195.89" xlink:href="#Áåçûìÿííûé_ãðàäèåíò_4"/><linearGradient id="Áåçûìÿííûé_ãðàäèåíò_2-3" x1="249.4" y1="1005.03" x2="297.61" y2="1005.03" xlink:href="#Áåçûìÿííûé_ãðàäèåíò_2"/><linearGradient id="Áåçûìÿííûé_ãðàäèåíò_4-4" x1="-35.29" y1="175.13" x2="23.75" y2="175.13" xlink:href="#Áåçûìÿííûé_ãðàäèåíò_4"/><linearGradient id="Áåçûìÿííûé_ãðàäèåíò_2-4" x1="228.63" y1="984.26" x2="276.84" y2="984.26" xlink:href="#Áåçûìÿííûé_ãðàäèåíò_2"/><linearGradient id="Áåçûìÿííûé_ãðàäèåíò_4-5" x1="-35.29" y1="154.36" x2="23.75" y2="154.36" xlink:href="#Áåçûìÿííûé_ãðàäèåíò_4"/><linearGradient id="Áåçûìÿííûé_ãðàäèåíò_2-5" x1="207.87" y1="963.5" x2="256.08" y2="963.5" xlink:href="#Áåçûìÿííûé_ãðàäèåíò_2"/><radialGradient id="Áåçûìÿííûé_ãðàäèåíò_7-2" cx="-2960.74" cy="-413.69" r="84.78" gradientTransform="matrix(0.87, 0.5, -0.87, 0.5, 2706.83, 1928.47)" xlink:href="#Áåçûìÿííûé_ãðàäèåíò_7"/><radialGradient id="Áåçûìÿííûé_ãðàäèåíò_11-2" cx="-3160.36" cy="-312.95" r="84.78" gradientTransform="matrix(0.87, 0.5, -0.87, 0.5, 2706.48, 2025.39)" xlink:href="#Áåçûìÿííûé_ãðàäèåíò_11"/><linearGradient id="Áåçûìÿííûé_ãðàäèåíò_2-6" x1="148.47" y1="249.4" x2="644.01" y2="249.4" gradientTransform="matrix(1, 0, 0, 1, 0, 0)" xlink:href="#Áåçûìÿííûé_ãðàäèåíò_2"/><linearGradient id="Áåçûìÿííûé_ãðàäèåíò_2-7" x1="-1170.8" y1="1040.25" x2="-1035.13" y2="1040.25" gradientTransform="matrix(0.87, 0.5, -1, 0.58, 2383.64, 192.27)" xlink:href="#Áåçûìÿííûé_ãðàäèåíò_2"/><radialGradient id="Áåçûìÿííûé_ãðàäèåíò_8" cx="-1848.92" cy="-1440.34" r="269.78" gradientTransform="matrix(0.84, 0.49, -1.07, 0.62, 285.67, 1954.47)" gradientUnits="userSpaceOnUse"><stop offset="0.01" stop-color="#f7dc39"/><stop offset="0.2" stop-color="#dcb92c"/><stop offset="0.43" stop-color="#c29820"/><stop offset="0.64" stop-color="#af8017"/><stop offset="0.84" stop-color="#a47112"/><stop offset="1" stop-color="#a06c10"/></radialGradient><linearGradient id="Áåçûìÿííûé_ãðàäèåíò_4-6" x1="264.52" y1="241.81" x2="510.61" y2="241.81" gradientTransform="matrix(1, 0, 0, 1, 0, 0)" xlink:href="#Áåçûìÿííûé_ãðàäèåíò_4"/><radialGradient id="Áåçûìÿííûé_ãðàäèåíò_8-2" cx="-1107.46" cy="736.2" r="12.83" gradientTransform="matrix(0.87, 0.5, -0.87, 0.5, 2090.51, 361.23)" xlink:href="#Áåçûìÿííûé_ãðàäèåíò_8"/><radialGradient id="Áåçûìÿííûé_ãðàäèåíò_7-3" cx="737.54" cy="1681.28" fx="721.3960357847553" fy="1688.2224364580113" r="25.25" gradientTransform="matrix(-0.86, 0.87, -0.54, -1.38, 2086.63, 1972.31)" xlink:href="#Áåçûìÿííûé_ãðàäèåíò_7"/><radialGradient id="Áåçûìÿííûé_ãðàäèåíò_11-3" cx="-2581.87" cy="-712.23" r="38.16" gradientTransform="matrix(0.87, 0.5, -0.87, 0.5, 2137.82, 1923.48)" xlink:href="#Áåçûìÿííûé_ãðàäèåíò_11"/><linearGradient id="Áåçûìÿííûé_ãðàäèåíò_10" x1="514.59" y1="279.31" x2="553.53" y2="279.31" xlink:href="#Áåçûìÿííûé_ãðàäèåíò_9"/><linearGradient id="Áåçûìÿííûé_ãðàäèåíò_4-7" x1="514.84" y1="272.61" x2="554.23" y2="272.61" gradientTransform="matrix(1, 0, 0, 1, 0, 0)" xlink:href="#Áåçûìÿííûé_ãðàäèåíò_4"/><linearGradient id="Áåçûìÿííûé_ãðàäèåíò_9-2" x1="514.84" y1="276.97" x2="554.23" y2="276.97" xlink:href="#Áåçûìÿííûé_ãðàäèåíò_9"/><linearGradient id="Áåçûìÿííûé_ãðàäèåíò_2-8" x1="779.87" y1="682.71" x2="798.42" y2="666.64" gradientTransform="matrix(0.87, 0.5, -1, 0.58, 525, -518.49)" xlink:href="#Áåçûìÿííûé_ãðàäèåíò_2"/><radialGradient id="Áåçûìÿííûé_ãðàäèåíò_7-4" cx="751.62" cy="1721.7" fx="735.4700548319263" fy="1728.649280934877" r="25.25" gradientTransform="matrix(-0.86, 0.87, -0.54, -1.38, 2072.8, 2044.24)" xlink:href="#Áåçûìÿííûé_ãðàäèåíò_7"/><radialGradient id="Áåçûìÿííûé_ãðàäèåíò_11-4" cx="-2581.16" cy="-656.63" r="38.16" gradientTransform="matrix(0.87, 0.5, -0.87, 0.5, 2137.82, 1923.48)" xlink:href="#Áåçûìÿííûé_ãðàäèåíò_11"/><linearGradient id="Áåçûìÿííûé_ãðàäèåíò_10-2" x1="467.06" y1="307.47" x2="506" y2="307.47" xlink:href="#Áåçûìÿííûé_ãðàäèåíò_9"/><linearGradient id="Áåçûìÿííûé_ãðàäèåíò_4-8" x1="467.31" y1="300.76" x2="506.69" y2="300.76" gradientTransform="matrix(1, 0, 0, 1, 0, 0)" xlink:href="#Áåçûìÿííûé_ãðàäèåíò_4"/><linearGradient id="Áåçûìÿííûé_ãðàäèåíò_9-3" x1="467.31" y1="305.13" x2="506.69" y2="305.13" xlink:href="#Áåçûìÿííûé_ãðàäèåíò_9"/><linearGradient id="Áåçûìÿííûé_ãðàäèåíò_2-9" x1="780.57" y1="730.85" x2="799.12" y2="714.79" gradientTransform="matrix(0.87, 0.5, -1, 0.58, 525, -518.49)" xlink:href="#Áåçûìÿííûé_ãðàäèåíò_2"/><radialGradient id="Áåçûìÿííûé_ãðàäèåíò_7-5" cx="765.69" cy="1762.13" fx="749.5440886246578" fy="1769.0761634896573" r="25.25" gradientTransform="matrix(-0.86, 0.87, -0.54, -1.38, 2058.95, 2116.18)" xlink:href="#Áåçûìÿííûé_ãðàäèåíò_7"/><radialGradient id="Áåçûìÿííûé_ãðàäèåíò_11-5" cx="-2580.45" cy="-601.03" r="38.16" gradientTransform="matrix(0.87, 0.5, -0.87, 0.5, 2137.82, 1923.48)" xlink:href="#Áåçûìÿííûé_ãðàäèåíò_11"/><linearGradient id="Áåçûìÿííûé_ãðàäèåíò_10-3" x1="419.52" y1="335.62" x2="458.46" y2="335.62" xlink:href="#Áåçûìÿííûé_ãðàäèåíò_9"/><linearGradient id="Áåçûìÿííûé_ãðàäèåíò_4-9" x1="419.77" y1="328.92" x2="459.16" y2="328.92" gradientTransform="matrix(1, 0, 0, 1, 0, 0)" xlink:href="#Áåçûìÿííûé_ãðàäèåíò_4"/><linearGradient id="Áåçûìÿííûé_ãðàäèåíò_9-4" x1="419.77" y1="333.28" x2="459.16" y2="333.28" xlink:href="#Áåçûìÿííûé_ãðàäèåíò_9"/><linearGradient id="Áåçûìÿííûé_ãðàäèåíò_2-10" x1="781.28" y1="779" x2="799.83" y2="762.94" gradientTransform="matrix(0.87, 0.5, -1, 0.58, 525, -518.49)" xlink:href="#Áåçûìÿííûé_ãðàäèåíò_2"/></defs><title>Artboard 34</title><g class="cls-1"><g id="Ñëîé_1" data-name="Ñëîé 1"><ellipse class="cls-2" cx="271.81" cy="249.15" rx="83.89" ry="48.44"/><ellipse class="cls-3" cx="233.11" cy="249.15" rx="83.89" ry="48.44"/><path class="cls-4" d="M247.46,267.82a56,56,0,0,1-15.69-2.2c-10.16-3-17.12-8.6-19.08-15.4-1.37-4.76-.08-9.7,3.64-13.91h0l.4-.45c8.91-10.1,29.37-14,46.57-9,10.17,3,17.13,8.6,19.09,15.39,1.37,4.76.08,9.7-3.64,13.91l-.4.46C272.07,263.76,260,267.82,247.46,267.82Zm-27.6-28.39c-2.65,3-3.56,6.28-2.64,9.49,1.48,5.13,7.42,9.69,15.88,12.18,15.34,4.51,34,1.11,41.72-7.58l.4-.46c2.65-3,3.56-6.28,2.64-9.48-1.48-5.14-7.42-9.69-15.89-12.18-15.33-4.51-34-1.11-41.71,7.58Z"/><path class="cls-5" d="M247.27,265.73a53.49,53.49,0,0,1-14.92-2.07c-9.48-2.79-15.93-7.9-17.69-14-1.19-4.13-.08-8.27,3.2-12l.4-.45c8.29-9.39,28.24-13.14,44.47-8.37,9.48,2.79,15.93,7.89,17.69,14,1.19,4.12.08,8.27-3.2,12l-.4.45C271,261.91,259.32,265.73,247.27,265.73Zm-28.94-27.65c-3.14,3.55-4.2,7.5-3.07,11.4,1.67,5.82,8.13,10.89,17.27,13.58,16,4.71,35.68,1,43.82-8.19l.4-.45c3.14-3.56,4.2-7.5,3.07-11.41-1.67-5.81-8.13-10.89-17.27-13.58-16-4.71-35.68-1-43.82,8.19Z"/><path class="cls-6" d="M247.55,262c-7.59,0-15.18-1.67-21-5s-8.73-7.58-8.73-12.19,3.1-8.95,8.73-12.2c11.55-6.67,30.35-6.67,41.91,0,5.63,3.25,8.73,7.58,8.73,12.2s-3.1,8.94-8.73,12.19S255.14,262,247.55,262Zm0-34.07c-7.53,0-15.06,1.65-20.79,5-5.53,3.19-8.57,7.42-8.57,11.92s3,8.72,8.57,11.91c11.46,6.62,30.12,6.62,41.59,0,5.52-3.19,8.56-7.42,8.56-11.91s-3-8.73-8.56-11.92C262.61,229.58,255.08,227.93,247.55,227.93Z"/><ellipse class="cls-7" cx="247.55" cy="244.81" rx="24.93" ry="14.39"/><path class="cls-8" d="M277.07,237.41v-9.65h-5.22a24.21,24.21,0,0,0-3.42-2.39c-11.53-6.65-30.22-6.65-41.75,0a23.64,23.64,0,0,0-3.42,2.39H218v9.66h0c0,4.37,2.88,8.73,8.65,12.06,11.53,6.65,30.22,6.65,41.75,0C274.2,246.15,277.08,241.78,277.07,237.41Z"/><path class="cls-9" d="M218.3,237.17v-9.41H218v9.66c0,3.91,2.33,7.81,6.95,11C220.53,245.1,218.3,241.14,218.3,237.17Z"/><path class="cls-5" d="M276.61,227.76v9.34c0,4.37-2.88,8.73-8.65,12.07-11.53,6.65-30.22,6.65-41.75,0-.59-.34-1.12-.7-1.65-1.06.66.47,1.36.93,2.12,1.37,11.53,6.65,30.22,6.65,41.75,0,5.77-3.33,8.65-7.7,8.64-12.07v-9.65Z"/><ellipse class="cls-10" cx="247.55" cy="227.76" rx="29.52" ry="17.05"/><path class="cls-9" d="M227.47,215.89c5.86-3.39,13.51-5.09,21.19-5.14-7.92-.17-15.94,1.47-22,5-9,5.18-11.05,13-5.92,19.17C216.34,228.54,218.58,221,227.47,215.89Z"/><path class="cls-5" d="M268.43,215.71A36.45,36.45,0,0,0,258,211.83a35.58,35.58,0,0,1,9.41,3.65c11.53,6.65,11.53,17.44,0,24.1-8.46,4.89-20.79,6.17-31.3,3.88,10.73,2.61,23.59,1.4,32.34-3.65C280,233.16,280,222.37,268.43,215.71Z"/><ellipse class="cls-5" cx="247.41" cy="227.76" rx="18.87" ry="10.89"/><path class="cls-5" d="M234.07,225.9c7.37-4.26,19.31-4.26,26.68,0a11.48,11.48,0,0,1,4.83,4.78c1.75-3.66.15-7.74-4.83-10.62-7.37-4.25-19.31-4.25-26.68,0-5,2.88-6.58,7-4.83,10.62A11.48,11.48,0,0,1,234.07,225.9Z"/><path class="cls-5" d="M234.07,223.84c7.37-4.26,19.31-4.26,26.68,0,2.85,1.64,4.58,3.68,5.23,5.81,1-3.38-.71-7-5.23-9.59-7.37-4.25-19.31-4.25-26.68,0-4.52,2.61-6.25,6.21-5.23,9.59C229.49,227.52,231.22,225.48,234.07,223.84Z"/><path class="cls-11" d="M234.07,222c7.37-4.26,19.31-4.26,26.68,0,3.26,1.88,5.07,4.28,5.45,6.73.47-3.1-1.34-6.3-5.45-8.67-7.37-4.25-19.31-4.25-26.68,0-4.11,2.37-5.92,5.57-5.45,8.67C229,226.27,230.81,223.88,234.07,222Z"/><path class="cls-5" d="M262.83,214.6a1.85,1.85,0,0,0-1.74.24c-.37.34-.18.79.41,1a1.85,1.85,0,0,0,1.74-.24C263.61,215.26,263.42,214.81,262.83,214.6Z"/><path class="cls-12" d="M267,216.62a2,2,0,0,0-1.76,0c-.47.29-.44.74.06,1a2,2,0,0,0,1.76,0C267.53,217.34,267.5,216.89,267,216.62Z"/><path class="cls-13" d="M270.42,219.06a1.92,1.92,0,0,0-1.74-.16c-.56.24-.68.68-.28,1a1.91,1.91,0,0,0,1.74.16C270.69,219.83,270.82,219.39,270.42,219.06Z"/><path class="cls-14" d="M272.94,221.85a1.7,1.7,0,0,0-1.65-.36c-.62.17-.9.59-.61.95a1.74,1.74,0,0,0,1.65.36C273,222.63,273.23,222.21,272.94,221.85Z"/><path class="cls-15" d="M274.48,224.86a1.43,1.43,0,0,0-1.5-.53c-.67.09-1.08.47-.92.86a1.43,1.43,0,0,0,1.5.53C274.23,225.63,274.64,225.24,274.48,224.86Z"/><path class="cls-16" d="M274.85,228.33c.3-.36,0-.79-.57-1a1.73,1.73,0,0,0-1.67.33c-.3.35,0,.78.57,1A1.76,1.76,0,0,0,274.85,228.33Z"/><path class="cls-17" d="M277.07,216.64V207h-5.22a23.41,23.41,0,0,0-3.42-2.39c-11.53-6.66-30.22-6.66-41.75,0a22.88,22.88,0,0,0-3.42,2.39H218v9.66h0c0,4.36,2.88,8.72,8.65,12.05,11.53,6.66,30.22,6.66,41.75,0C274.2,225.38,277.08,221,277.07,216.64Z"/><path class="cls-9" d="M218.3,216.41V207H218v9.66c0,3.9,2.33,7.8,6.95,11C220.53,224.34,218.3,220.37,218.3,216.41Z"/><path class="cls-5" d="M276.61,207v9.33c0,4.37-2.88,8.74-8.65,12.07-11.53,6.66-30.22,6.66-41.75,0-.59-.34-1.12-.69-1.65-1.05.66.47,1.36.92,2.12,1.36,11.53,6.66,30.22,6.66,41.75,0,5.77-3.33,8.65-7.7,8.64-12.07V207Z"/><ellipse class="cls-18" cx="247.55" cy="207" rx="29.52" ry="17.04"/><path class="cls-9" d="M227.47,195.12c5.86-3.38,13.51-5.09,21.19-5.14-7.92-.17-15.94,1.47-22,5-9,5.19-11.05,13-5.92,19.17C216.34,207.78,218.58,200.26,227.47,195.12Z"/><path class="cls-5" d="M268.43,194.94A36.75,36.75,0,0,0,258,191.06a35.58,35.58,0,0,1,9.41,3.65c11.53,6.66,11.53,17.45,0,24.11-8.46,4.88-20.79,6.17-31.3,3.88,10.73,2.61,23.59,1.4,32.34-3.65C280,212.39,280,201.6,268.43,194.94Z"/><path class="cls-5" d="M260.75,214.7c-7.37,4.25-19.31,4.25-26.68,0s-7.37-11.15,0-15.41,19.31-4.25,26.68,0S268.12,210.44,260.75,214.7Z"/><path class="cls-5" d="M234.07,205.13c7.37-4.25,19.31-4.25,26.68,0a11.49,11.49,0,0,1,4.83,4.79c1.75-3.66.15-7.75-4.83-10.63-7.37-4.25-19.31-4.25-26.68,0-5,2.88-6.58,7-4.83,10.62A11.53,11.53,0,0,1,234.07,205.13Z"/><path class="cls-5" d="M234.07,203.07c7.37-4.25,19.31-4.25,26.68,0,2.85,1.64,4.58,3.69,5.23,5.81,1-3.37-.71-7-5.23-9.59-7.37-4.25-19.31-4.25-26.68,0-4.52,2.61-6.25,6.22-5.23,9.59C229.49,206.75,231.22,204.71,234.07,203.07Z"/><path class="cls-11" d="M234.07,201.23c7.37-4.25,19.31-4.25,26.68,0,3.26,1.88,5.07,4.28,5.45,6.74.47-3.1-1.34-6.3-5.45-8.68-7.37-4.25-19.31-4.25-26.68,0-4.11,2.38-5.92,5.57-5.45,8.68C229,205.51,230.81,203.11,234.07,201.23Z"/><path class="cls-5" d="M262.83,193.83a1.88,1.88,0,0,0-1.74.24c-.37.35-.18.8.41,1a1.88,1.88,0,0,0,1.74-.24C263.61,194.49,263.42,194,262.83,193.83Z"/><path class="cls-12" d="M267,195.85a2,2,0,0,0-1.76,0c-.47.29-.44.75.06,1a2,2,0,0,0,1.76,0C267.53,196.58,267.5,196.12,267,195.85Z"/><path class="cls-13" d="M270.42,198.3a1.89,1.89,0,0,0-1.74-.16c-.56.23-.68.68-.28,1a1.91,1.91,0,0,0,1.74.16C270.69,199.07,270.82,198.62,270.42,198.3Z"/><path class="cls-14" d="M272.94,201.08a1.7,1.7,0,0,0-1.65-.35c-.62.16-.9.59-.61,1a1.71,1.71,0,0,0,1.65.35C273,201.87,273.23,201.44,272.94,201.08Z"/><path class="cls-15" d="M274.48,204.09a1.46,1.46,0,0,0-1.5-.53c-.67.09-1.08.48-.92.87a1.46,1.46,0,0,0,1.5.53C274.23,204.87,274.64,204.48,274.48,204.09Z"/><path class="cls-16" d="M274.85,207.56c.3-.35,0-.78-.57-1a1.78,1.78,0,0,0-1.67.33c-.3.36,0,.79.57,1A1.73,1.73,0,0,0,274.85,207.56Z"/><path class="cls-19" d="M277.08,194.78l-9.15-.11c-11.11-6.13-28.48-6.28-39.91-.45l-10-.12v12.43h0c-.21,4.52,2.66,9.07,8.63,12.52,11.53,6.66,30.22,6.66,41.75,0,6-3.45,8.84-8,8.63-12.52h0Z"/><path class="cls-20" d="M277.07,195.88v-9.65h-5.22a24.21,24.21,0,0,0-3.42-2.39c-11.53-6.65-30.22-6.65-41.75,0a23.64,23.64,0,0,0-3.42,2.39H218v9.66h0c0,4.37,2.88,8.73,8.65,12.06,11.53,6.65,30.22,6.65,41.75,0C274.2,204.61,277.08,200.25,277.07,195.88Z"/><path class="cls-9" d="M218.3,195.64v-9.41H218v9.66c0,3.91,2.33,7.81,6.95,11C220.53,203.57,218.3,199.61,218.3,195.64Z"/><path class="cls-5" d="M276.61,186.23v9.34c0,4.37-2.88,8.73-8.65,12.07-11.53,6.65-30.22,6.65-41.75,0-.59-.34-1.12-.7-1.65-1.06.66.47,1.36.93,2.12,1.37,11.53,6.65,30.22,6.65,41.75,0,5.77-3.34,8.65-7.7,8.64-12.07v-9.65Z"/><ellipse class="cls-21" cx="247.55" cy="186.23" rx="29.52" ry="17.05"/><path class="cls-9" d="M227.47,174.35c5.86-3.38,13.51-5.08,21.19-5.13-7.92-.17-15.94,1.47-22,5-9,5.18-11.05,13-5.92,19.17C216.34,187,218.58,179.49,227.47,174.35Z"/><path class="cls-5" d="M268.43,174.18A36.45,36.45,0,0,0,258,170.3a35.58,35.58,0,0,1,9.41,3.65c11.53,6.65,11.53,17.44,0,24.1-8.46,4.89-20.79,6.17-31.3,3.88,10.73,2.61,23.59,1.4,32.34-3.65C280,191.63,280,180.84,268.43,174.18Z"/><ellipse class="cls-5" cx="247.41" cy="186.23" rx="18.87" ry="10.89"/><path class="cls-5" d="M234.07,184.37c7.37-4.26,19.31-4.26,26.68,0a11.48,11.48,0,0,1,4.83,4.78c1.75-3.66.15-7.74-4.83-10.62-7.37-4.26-19.31-4.26-26.68,0-5,2.88-6.58,7-4.83,10.62A11.48,11.48,0,0,1,234.07,184.37Z"/><path class="cls-5" d="M234.07,182.3c7.37-4.25,19.31-4.25,26.68,0,2.85,1.65,4.58,3.69,5.23,5.82,1-3.38-.71-7-5.23-9.59-7.37-4.26-19.31-4.26-26.68,0-4.52,2.61-6.25,6.21-5.23,9.59C229.49,186,231.22,184,234.07,182.3Z"/><path class="cls-11" d="M234.07,180.47c7.37-4.26,19.31-4.26,26.68,0,3.26,1.88,5.07,4.28,5.45,6.73.47-3.1-1.34-6.3-5.45-8.67-7.37-4.26-19.31-4.26-26.68,0-4.11,2.37-5.92,5.57-5.45,8.67C229,184.74,230.81,182.35,234.07,180.47Z"/><path class="cls-5" d="M262.83,173.07a1.85,1.85,0,0,0-1.74.24c-.37.34-.18.79.41,1a1.85,1.85,0,0,0,1.74-.24C263.61,173.73,263.42,173.28,262.83,173.07Z"/><path class="cls-12" d="M267,175.09a2,2,0,0,0-1.76,0c-.47.29-.44.74.06,1a1.92,1.92,0,0,0,1.76,0C267.53,175.81,267.5,175.36,267,175.09Z"/><path class="cls-13" d="M270.42,177.53a1.92,1.92,0,0,0-1.74-.16c-.56.23-.68.68-.28,1a1.91,1.91,0,0,0,1.74.16C270.69,178.3,270.82,177.85,270.42,177.53Z"/><path class="cls-14" d="M272.94,180.31a1.72,1.72,0,0,0-1.65-.35c-.62.17-.9.59-.61.95a1.74,1.74,0,0,0,1.65.36C273,181.1,273.23,180.68,272.94,180.31Z"/><path class="cls-15" d="M274.48,183.33a1.43,1.43,0,0,0-1.5-.53c-.67.09-1.08.47-.92.86s.83.62,1.5.53S274.64,183.71,274.48,183.33Z"/><path class="cls-16" d="M274.85,186.8c.3-.36,0-.79-.57-1a1.73,1.73,0,0,0-1.67.33c-.3.35,0,.78.57,1A1.78,1.78,0,0,0,274.85,186.8Z"/><path class="cls-22" d="M277.07,175.11v-9.64h-5.22a23.41,23.41,0,0,0-3.42-2.39c-11.53-6.66-30.22-6.66-41.75,0a22.88,22.88,0,0,0-3.42,2.39H218v9.66h0c0,4.36,2.88,8.72,8.65,12.05,11.53,6.66,30.22,6.66,41.75,0C274.2,183.85,277.08,179.48,277.07,175.11Z"/><path class="cls-9" d="M218.3,174.88v-9.41H218v9.66c0,3.9,2.33,7.8,6.95,11C220.53,182.81,218.3,178.84,218.3,174.88Z"/><path class="cls-5" d="M276.61,165.47v9.33c0,4.37-2.88,8.74-8.65,12.07-11.53,6.66-30.22,6.66-41.75,0-.59-.34-1.12-.69-1.65-1.05.66.47,1.36.92,2.12,1.36,11.53,6.66,30.22,6.66,41.75,0,5.77-3.33,8.65-7.7,8.64-12.07v-9.64Z"/><ellipse class="cls-23" cx="247.55" cy="165.47" rx="29.52" ry="17.04"/><path class="cls-9" d="M227.47,153.59c5.86-3.38,13.51-5.09,21.19-5.14-7.92-.17-15.94,1.47-22,5-9,5.19-11.05,13-5.92,19.17C216.34,166.25,218.58,158.72,227.47,153.59Z"/><path class="cls-5" d="M268.43,153.41A36.45,36.45,0,0,0,258,149.53a35.58,35.58,0,0,1,9.41,3.65c11.53,6.66,11.53,17.45,0,24.11-8.46,4.88-20.79,6.17-31.3,3.88,10.73,2.61,23.59,1.4,32.34-3.65C280,170.86,280,160.07,268.43,153.41Z"/><path class="cls-5" d="M260.75,173.17c-7.37,4.25-19.31,4.25-26.68,0s-7.37-11.15,0-15.41,19.31-4.25,26.68,0S268.12,168.91,260.75,173.17Z"/><path class="cls-5" d="M234.07,163.6c7.37-4.25,19.31-4.25,26.68,0a11.49,11.49,0,0,1,4.83,4.79c1.75-3.66.15-7.75-4.83-10.63-7.37-4.25-19.31-4.25-26.68,0-5,2.88-6.58,7-4.83,10.62A11.53,11.53,0,0,1,234.07,163.6Z"/><path class="cls-5" d="M234.07,161.54c7.37-4.25,19.31-4.25,26.68,0,2.85,1.64,4.58,3.68,5.23,5.81,1-3.37-.71-7-5.23-9.59-7.37-4.25-19.31-4.25-26.68,0-4.52,2.61-6.25,6.22-5.23,9.59C229.49,165.22,231.22,163.18,234.07,161.54Z"/><path class="cls-11" d="M234.07,159.7c7.37-4.25,19.31-4.25,26.68,0,3.26,1.88,5.07,4.28,5.45,6.74.47-3.11-1.34-6.3-5.45-8.68-7.37-4.25-19.31-4.25-26.68,0-4.11,2.38-5.92,5.57-5.45,8.68C229,164,230.81,161.58,234.07,159.7Z"/><path class="cls-5" d="M262.83,152.3a1.88,1.88,0,0,0-1.74.24c-.37.34-.18.8.41,1a1.88,1.88,0,0,0,1.74-.24C263.61,153,263.42,152.51,262.83,152.3Z"/><path class="cls-12" d="M267,154.32a2,2,0,0,0-1.76,0c-.47.29-.44.75.06,1a2,2,0,0,0,1.76,0C267.53,155.05,267.5,154.59,267,154.32Z"/><path class="cls-13" d="M270.42,156.77a1.89,1.89,0,0,0-1.74-.16c-.56.23-.68.68-.28,1a1.91,1.91,0,0,0,1.74.16C270.69,157.54,270.82,157.09,270.42,156.77Z"/><path class="cls-14" d="M272.94,159.55a1.7,1.7,0,0,0-1.65-.35c-.62.16-.9.59-.61,1a1.71,1.71,0,0,0,1.65.35C273,160.34,273.23,159.91,272.94,159.55Z"/><path class="cls-15" d="M274.48,162.56A1.46,1.46,0,0,0,273,162c-.67.09-1.08.48-.92.87a1.46,1.46,0,0,0,1.5.53C274.23,163.34,274.64,163,274.48,162.56Z"/><path class="cls-16" d="M274.85,166c.3-.35,0-.78-.57-1a1.78,1.78,0,0,0-1.67.33c-.3.36,0,.79.57,1A1.73,1.73,0,0,0,274.85,166Z"/><path class="cls-19" d="M277.08,153.25l-9.15-.11c-11.11-6.13-28.48-6.28-39.91-.45l-10-.12V165h0c-.21,4.52,2.66,9.07,8.63,12.52,11.53,6.65,30.22,6.65,41.75,0,6-3.45,8.84-8,8.63-12.52h0Z"/><path class="cls-24" d="M277.07,154.35V144.7h-5.22a24.21,24.21,0,0,0-3.42-2.39c-11.53-6.66-30.22-6.66-41.75,0a23.64,23.64,0,0,0-3.42,2.39H218v9.66h0c0,4.37,2.88,8.73,8.65,12.06,11.53,6.65,30.22,6.65,41.75,0C274.2,163.08,277.08,158.72,277.07,154.35Z"/><path class="cls-9" d="M218.3,154.11V144.7H218v9.66c0,3.91,2.33,7.81,6.95,11C220.53,162,218.3,158.08,218.3,154.11Z"/><path class="cls-5" d="M276.61,144.7V154c0,4.37-2.88,8.73-8.65,12.07-11.53,6.65-30.22,6.65-41.75,0-.59-.34-1.12-.7-1.65-1.06.66.47,1.36.93,2.12,1.37,11.53,6.65,30.22,6.65,41.75,0,5.77-3.34,8.65-7.7,8.64-12.07V144.7Z"/><path class="cls-25" d="M268.43,156.75c-11.53,6.66-30.22,6.66-41.75,0s-11.53-17.45,0-24.1,30.22-6.66,41.75,0S280,150.1,268.43,156.75Z"/><path class="cls-9" d="M227.47,132.82c5.86-3.38,13.51-5.08,21.19-5.13-7.92-.17-15.94,1.47-22,5-9,5.18-11.05,13-5.92,19.17C216.34,145.48,218.58,138,227.47,132.82Z"/><path class="cls-5" d="M268.43,132.65A36.45,36.45,0,0,0,258,128.77a35.58,35.58,0,0,1,9.41,3.65c11.53,6.65,11.53,17.44,0,24.1-8.46,4.89-20.79,6.17-31.3,3.88,10.73,2.61,23.59,1.4,32.34-3.65C280,150.1,280,139.3,268.43,132.65Z"/><ellipse class="cls-5" cx="247.41" cy="144.7" rx="18.87" ry="10.89"/><path class="cls-5" d="M234.07,142.84c7.37-4.26,19.31-4.26,26.68,0a11.48,11.48,0,0,1,4.83,4.78c1.75-3.66.15-7.74-4.83-10.62-7.37-4.26-19.31-4.26-26.68,0-5,2.88-6.58,7-4.83,10.62A11.48,11.48,0,0,1,234.07,142.84Z"/><path class="cls-5" d="M234.07,140.77c7.37-4.25,19.31-4.25,26.68,0,2.85,1.65,4.58,3.69,5.23,5.82,1-3.38-.71-7-5.23-9.59-7.37-4.26-19.31-4.26-26.68,0-4.52,2.61-6.25,6.21-5.23,9.59C229.49,144.46,231.22,142.42,234.07,140.77Z"/><path class="cls-11" d="M234.07,138.94c7.37-4.26,19.31-4.26,26.68,0,3.26,1.88,5.07,4.27,5.45,6.73.47-3.1-1.34-6.3-5.45-8.67-7.37-4.26-19.31-4.26-26.68,0-4.11,2.37-5.92,5.57-5.45,8.67C229,143.21,230.81,140.82,234.07,138.94Z"/><path class="cls-5" d="M262.83,131.54a1.85,1.85,0,0,0-1.74.24c-.37.34-.18.79.41,1a1.85,1.85,0,0,0,1.74-.24C263.61,132.2,263.42,131.75,262.83,131.54Z"/><path class="cls-12" d="M267,133.56a2,2,0,0,0-1.76,0c-.47.29-.44.74.06,1a1.92,1.92,0,0,0,1.76,0C267.53,134.28,267.5,133.83,267,133.56Z"/><path class="cls-13" d="M270.42,136a1.92,1.92,0,0,0-1.74-.16c-.56.23-.68.68-.28,1a1.88,1.88,0,0,0,1.74.17C270.69,136.77,270.82,136.32,270.42,136Z"/><path class="cls-14" d="M272.94,138.78a1.72,1.72,0,0,0-1.65-.35c-.62.17-.9.59-.61.95a1.74,1.74,0,0,0,1.65.36C273,139.57,273.23,139.15,272.94,138.78Z"/><path class="cls-15" d="M274.48,141.8a1.45,1.45,0,0,0-1.5-.54c-.67.1-1.08.48-.92.87s.83.62,1.5.53S274.64,142.18,274.48,141.8Z"/><path class="cls-16" d="M274.85,145.27c.3-.36,0-.79-.57-1a1.73,1.73,0,0,0-1.67.33c-.3.35,0,.78.57,1A1.78,1.78,0,0,0,274.85,145.27Z"/><circle class="cls-5" cx="247.97" cy="166.44" r="1.85"/><path class="cls-11" d="M248,167.6a1.86,1.86,0,0,1-1.82-1.51,2,2,0,0,0,0,.35,1.86,1.86,0,0,0,3.71,0,1.34,1.34,0,0,0,0-.35A1.85,1.85,0,0,1,248,167.6Z"/><circle class="cls-5" cx="247.97" cy="187.2" r="1.85"/><path class="cls-11" d="M248,188.36a1.86,1.86,0,0,1-1.82-1.51,2.07,2.07,0,0,0,0,.35,1.86,1.86,0,1,0,3.71,0,1.39,1.39,0,0,0,0-.35A1.85,1.85,0,0,1,248,188.36Z"/><circle class="cls-5" cx="247.97" cy="207.97" r="1.85"/><path class="cls-11" d="M248,209.13a1.86,1.86,0,0,1-1.82-1.51,2,2,0,0,0,0,.35,1.86,1.86,0,0,0,3.71,0,1.34,1.34,0,0,0,0-.35A1.85,1.85,0,0,1,248,209.13Z"/><circle class="cls-5" cx="247.97" cy="228.73" r="1.85"/><path class="cls-11" d="M248,229.89a1.86,1.86,0,0,1-1.82-1.51,2.07,2.07,0,0,0,0,.35,1.86,1.86,0,1,0,3.71,0,1.39,1.39,0,0,0,0-.35A1.85,1.85,0,0,1,248,229.89Z"/><circle class="cls-5" cx="247.97" cy="249.5" r="1.85"/><path class="cls-11" d="M248,250.66a1.86,1.86,0,0,1-1.82-1.51,2,2,0,0,0,0,.35,1.86,1.86,0,0,0,3.71,0,1.34,1.34,0,0,0,0-.35A1.85,1.85,0,0,1,248,250.66Z"/><path class="cls-4" d="M406.41,353.53a9.39,9.39,0,0,1-4.65-1.13l-47-27.18a1.34,1.34,0,1,1,1.35-2.32l47,27.18a7.45,7.45,0,0,0,6.62,0l148.62-85.21c.61-.35,1-.77,1-1.13s-.36-.78-1-1.14l-47-27.18a1.32,1.32,0,0,1-.49-1.83,1.34,1.34,0,0,1,1.83-.49l47,27.18a3.74,3.74,0,0,1,0,6.92L411.06,352.41A9.47,9.47,0,0,1,406.41,353.53Z"/><path class="cls-5" d="M406.41,352.46a8.33,8.33,0,0,1-4.11-1l-47-27.18.27-.46,47,27.18a8.5,8.5,0,0,0,7.7,0l148.61-85.2a2.17,2.17,0,0,0,0-4.14l-47-27.18.26-.46,47,27.18a2.69,2.69,0,0,1,0,5.06l-148.62,85.2A8.33,8.33,0,0,1,406.41,352.46Z"/><path class="cls-26" d="M518.27,237.88a1.21,1.21,0,1,1-.44-1.64A1.2,1.2,0,0,1,518.27,237.88Z"/><path class="cls-26" d="M524.53,241.5a1.21,1.21,0,1,1-.44-1.64A1.2,1.2,0,0,1,524.53,241.5Z"/><path class="cls-26" d="M530.79,245.12a1.21,1.21,0,1,1-.44-1.64A1.2,1.2,0,0,1,530.79,245.12Z"/><path class="cls-26" d="M537.05,248.74a1.21,1.21,0,1,1-.44-1.64A1.2,1.2,0,0,1,537.05,248.74Z"/><path class="cls-26" d="M543.31,252.36a1.21,1.21,0,1,1-.44-1.64A1.2,1.2,0,0,1,543.31,252.36Z"/><path class="cls-26" d="M549.57,256a1.21,1.21,0,1,1-.44-1.64A1.2,1.2,0,0,1,549.57,256Z"/><path class="cls-26" d="M555.83,259.6a1.21,1.21,0,1,1-.44-1.64A1.2,1.2,0,0,1,555.83,259.6Z"/><path class="cls-26" d="M560.56,264.33a2.79,2.79,0,0,1-.77-.45c-.2-.16-.34-.24-.38-.37a1.88,1.88,0,0,1,.51-1.37.91.91,0,0,1,.9-.26,1.31,1.31,0,0,1,.89.9,1.4,1.4,0,0,1-.23,1.32A.86.86,0,0,1,560.56,264.33Z"/><path class="cls-26" d="M554.78,268.46a1.21,1.21,0,1,1,1.65.45A1.21,1.21,0,0,1,554.78,268.46Z"/><path class="cls-26" d="M548.51,272.06a1.21,1.21,0,1,1,2.09-1.2,1.21,1.21,0,0,1-2.09,1.2Z"/><path class="cls-26" d="M542.23,275.65a1.2,1.2,0,0,1,.45-1.64,1.21,1.21,0,1,1-.45,1.64Z"/><path class="cls-26" d="M536,279.25a1.21,1.21,0,0,1,2.09-1.2,1.21,1.21,0,1,1-2.09,1.2Z"/><path class="cls-26" d="M529.69,282.85a1.21,1.21,0,1,1,2.09-1.2,1.21,1.21,0,0,1-2.09,1.2Z"/><path class="cls-26" d="M523.41,286.44a1.2,1.2,0,1,1,1.65.45A1.2,1.2,0,0,1,523.41,286.44Z"/><path class="cls-26" d="M517.14,290a1.21,1.21,0,1,1,1.64.45A1.2,1.2,0,0,1,517.14,290Z"/><path class="cls-26" d="M510.87,293.64a1.21,1.21,0,1,1,1.64.44A1.2,1.2,0,0,1,510.87,293.64Z"/><path class="cls-26" d="M504.59,297.23a1.2,1.2,0,1,1,1.65.45A1.2,1.2,0,0,1,504.59,297.23Z"/><path class="cls-26" d="M498.32,300.83a1.21,1.21,0,1,1,1.64.45A1.2,1.2,0,0,1,498.32,300.83Z"/><path class="cls-26" d="M492.05,304.43a1.21,1.21,0,1,1,1.64.44A1.2,1.2,0,0,1,492.05,304.43Z"/><path class="cls-26" d="M485.77,308a1.2,1.2,0,1,1,1.65.45A1.2,1.2,0,0,1,485.77,308Z"/><path class="cls-26" d="M479.5,311.62a1.21,1.21,0,1,1,1.64.45A1.2,1.2,0,0,1,479.5,311.62Z"/><path class="cls-26" d="M473.22,315.22a1.21,1.21,0,1,1,1.65.44A1.21,1.21,0,0,1,473.22,315.22Z"/><path class="cls-26" d="M467,318.82a1.21,1.21,0,1,1,1.65.44A1.21,1.21,0,0,1,467,318.82Z"/><path class="cls-26" d="M460.68,322.41a1.21,1.21,0,1,1,1.64.45A1.2,1.2,0,0,1,460.68,322.41Z"/><path class="cls-26" d="M454.4,326a1.21,1.21,0,1,1,2.09-1.2,1.21,1.21,0,0,1-2.09,1.2Z"/><path class="cls-26" d="M448.13,329.61a1.21,1.21,0,1,1,1.65.44A1.21,1.21,0,0,1,448.13,329.61Z"/><path class="cls-26" d="M441.86,333.2a1.2,1.2,0,0,1,.44-1.64,1.21,1.21,0,1,1,1.2,2.09A1.2,1.2,0,0,1,441.86,333.2Z"/><path class="cls-26" d="M435.58,336.8a1.21,1.21,0,1,1,1.65.45A1.21,1.21,0,0,1,435.58,336.8Z"/><path class="cls-26" d="M429.31,340.4a1.21,1.21,0,1,1,1.64.44A1.21,1.21,0,0,1,429.31,340.4Z"/><path class="cls-26" d="M423,344a1.19,1.19,0,0,1,.44-1.64,1.21,1.21,0,1,1,1.2,2.09A1.2,1.2,0,0,1,423,344Z"/><path class="cls-26" d="M416.76,347.59a1.21,1.21,0,0,1,.45-1.65,1.2,1.2,0,0,1,1.64.45,1.21,1.21,0,1,1-2.09,1.2Z"/><path class="cls-26" d="M410.49,351.19a1.21,1.21,0,1,1,2.09-1.2,1.21,1.21,0,0,1-2.09,1.2Z"/><path class="cls-26" d="M403.48,351.71a1.21,1.21,0,0,1,2.36.47,1.21,1.21,0,1,1-2.36-.47Z"/><path class="cls-26" d="M397.17,348.2a1.2,1.2,0,1,1,.44,1.64A1.19,1.19,0,0,1,397.17,348.2Z"/><path class="cls-26" d="M390.91,344.58a1.2,1.2,0,1,1,.44,1.64A1.19,1.19,0,0,1,390.91,344.58Z"/><path class="cls-26" d="M384.65,341a1.2,1.2,0,1,1,.44,1.64A1.19,1.19,0,0,1,384.65,341Z"/><path class="cls-26" d="M378.39,337.34a1.2,1.2,0,1,1,.44,1.64A1.19,1.19,0,0,1,378.39,337.34Z"/><path class="cls-26" d="M372.13,333.72a1.2,1.2,0,1,1,.44,1.64A1.19,1.19,0,0,1,372.13,333.72Z"/><path class="cls-26" d="M365.87,330.1a1.2,1.2,0,1,1,.44,1.64A1.19,1.19,0,0,1,365.87,330.1Z"/><path class="cls-26" d="M359.61,326.48a1.2,1.2,0,1,1,.44,1.64A1.19,1.19,0,0,1,359.61,326.48Z"/><ellipse class="cls-27" cx="501.08" cy="241.37" rx="103.83" ry="59.94" transform="translate(-53.29 196.5) rotate(-21.09)"/><ellipse class="cls-28" cx="240.6" cy="288.87" rx="103.83" ry="59.94" transform="translate(-87.84 105.94) rotate(-21.09)"/><path class="cls-7" d="M327,364.57,218.82,302.13c-2.58-1.49-2.25-4.09.72-5.81L439.43,169.37c3-1.72,7.48-1.91,10.06-.42l108.14,62.44c2.58,1.49,2.26,4.09-.72,5.81L337,364.15C334,365.87,329.54,366.05,327,364.57Z"/><path class="cls-29" d="M559.37,208.54l-5.51,3.32L449.49,151.6c-2.58-1.49-7.08-1.31-10.06.41L223,277l-5.92-2.65v8.06h0a3,3,0,0,0,1.73,2.39L327,347.21c2.58,1.49,7.08,1.3,10.06-.42l219.89-127c1.67-1,2.51-2.21,2.46-3.38h0Z"/><path class="cls-9" d="M223,277l-5.92-2.65v8.06h0a3,3,0,0,0,1.73,2.39l.23.13a2.47,2.47,0,0,1-.52-1.35h0v-8.06l5.92,2.65,8.36-4.83c-.38-.45-.78-.89-1.18-1.32Z"/><path class="cls-5" d="M553.86,211.86l-51.23-29.58-1.55,1L552.46,213l5.52-3.31v7.91h0a3.11,3.11,0,0,1-1,2.22c1.6-1,2.4-2.17,2.35-3.31h0v-7.92Z"/><path class="cls-30" d="M327,339.23,218.82,276.79c-2.58-1.49-2.25-4.08.72-5.8L439.43,144c3-1.71,7.48-1.9,10.06-.41l108.14,62.43c2.58,1.49,2.26,4.09-.72,5.81L337,338.81C334,340.53,329.54,340.72,327,339.23Z"/><path class="cls-9" d="M328.46,339.23,220.32,276.79c-2.58-1.49-2.26-4.08.72-5.8L440.93,144a11.4,11.4,0,0,1,5-1.39,11.89,11.89,0,0,0-6.48,1.39L219.54,271c-3,1.72-3.3,4.31-.72,5.8L327,339.23a9.45,9.45,0,0,0,5.07,1A8.41,8.41,0,0,1,328.46,339.23Z"/><path class="cls-5" d="M557.63,206.05,449.49,143.62a9.33,9.33,0,0,0-5.07-1,8.46,8.46,0,0,1,3.62,1l108.15,62.43c2.57,1.49,2.25,4.09-.73,5.81l-219.89,127a11.45,11.45,0,0,1-5,1.4,11.84,11.84,0,0,0,6.44-1.4L556.91,211.86C559.89,210.14,560.21,207.54,557.63,206.05Z"/><polygon class="cls-31" points="339.3 335.39 225.47 269.67 435.82 148.22 549.65 213.94 339.3 335.39"/><polygon class="cls-32" points="350.92 312.85 264.51 262.96 424.2 170.77 510.61 220.66 350.92 312.85"/><path class="cls-33" d="M503.32,182.06,491,175c-.46-.27-.4-.74.13-1h0a2,2,0,0,1,1.81-.07l12.27,7.08c.47.27.41.74-.13,1.05h0A2,2,0,0,1,503.32,182.06Z"/><path class="cls-12" d="M321,191.48s5.28-58.31,16.59-51.76,5.84,40.37,17.58,47.14c11.54,6.67,5.25-96.56,22.69-86.5,12.51,7.23,8.51,85.63,19.68,92.08,12.54,7.24,8.95-22.29,20.06-21,6.38.77,9.73,20,18.77,24.28s4.74-78.76,19.05-70.5c14.48,8.36,18.66,154.68,18.66,154.68Z"/><path class="cls-26" d="M338.11,139.17a2.41,2.41,0,1,1-2.4-2.4A2.41,2.41,0,0,1,338.11,139.17Z"/><path class="cls-26" d="M378,99.67a2.41,2.41,0,1,1-2.41-2.4A2.41,2.41,0,0,1,378,99.67Z"/><path class="cls-26" d="M419.7,171.3a2.41,2.41,0,1,1-2.4-2.41A2.4,2.4,0,0,1,419.7,171.3Z"/><path class="cls-26" d="M456,124.44a2.4,2.4,0,1,1-2.4-2.4A2.39,2.39,0,0,1,456,124.44Z"/><path class="cls-34" d="M285.91,208.81s3.94-57.93,12.38-53,4.36,38.81,13.12,43.86,3.92-84.08,16.93-76.57c9.34,5.4,6.36,35.2,14.69,40,9.36,5.41,7.74-9.41,15-5.23s7.26,23,14,26.06,3.54-64.46,14.21-58.29,13.93,149.23,13.93,149.23Z"/><path class="cls-26" d="M300,155.52a2.41,2.41,0,1,1-2.4-2.4A2.4,2.4,0,0,1,300,155.52Z"/><path class="cls-26" d="M329.33,122.62a2.4,2.4,0,1,1-2.4-2.4A2.4,2.4,0,0,1,329.33,122.62Z"/><path class="cls-26" d="M358.11,157.24a2.41,2.41,0,1,1-2.4-2.4A2.4,2.4,0,0,1,358.11,157.24Z"/><path class="cls-26" d="M387.19,125.41a2.4,2.4,0,1,1-2.4-2.41A2.4,2.4,0,0,1,387.19,125.41Z"/><polygon class="cls-12" points="332.35 279.31 315.05 269.33 321.1 265.83 338.39 275.82 332.35 279.31"/><polygon class="cls-34" points="343.12 273.18 325.83 263.19 331.88 259.7 349.17 269.68 343.12 273.18"/><path class="cls-35" d="M297.6,216.07a.5.5,0,0,1-.5-.5v-60a.5.5,0,0,1,.5-.5.5.5,0,0,1,.5.5v60A.51.51,0,0,1,297.6,216.07Z"/><path class="cls-35" d="M326.93,233a.5.5,0,0,1-.5-.5V122.62a.5.5,0,0,1,1,0v109.9A.5.5,0,0,1,326.93,233Z"/><path class="cls-35" d="M355.71,249.66a.5.5,0,0,1-.5-.5V157.24a.5.5,0,0,1,.5-.5.5.5,0,0,1,.5.5v91.92A.51.51,0,0,1,355.71,249.66Z"/><path class="cls-35" d="M384.79,266.34a.5.5,0,0,1-.5-.5V125.62a.5.5,0,0,1,1,0V265.84A.5.5,0,0,1,384.79,266.34Z"/><path class="cls-26" d="M262.17,181.11a.49.49,0,0,1-.41-.21.49.49,0,0,1,.12-.69l35.38-25.06,29.3-32.86a.52.52,0,0,1,.38-.17.53.53,0,0,1,.37.18l28.41,34.18,28.7-31.41,34.07-39.89a.51.51,0,0,1,.71-.06.49.49,0,0,1,.05.7l-34.08,39.91-29.09,31.85a.55.55,0,0,1-.38.16.51.51,0,0,1-.38-.18l-28.4-34.17L298,155.85a.6.6,0,0,1-.08.08L262.46,181A.52.52,0,0,1,262.17,181.11Z"/><ellipse class="cls-36" cx="555.08" cy="283.38" rx="25.49" ry="41.24" transform="translate(206.68 800.13) rotate(-83.06)"/><ellipse class="cls-37" cx="518.71" cy="276.43" rx="46.73" ry="26.98"/><path class="cls-7" d="M531.17,288.07,518.9,281c-1.49-.86-1.3-2.36.42-3.35l11.82-6.84a6.47,6.47,0,0,1,5.81-.24l12.27,7.07c1.49.86,1.3,2.37-.42,3.36L537,287.83A6.47,6.47,0,0,1,531.17,288.07Z"/><path class="cls-38" d="M533.63,290.67a6.23,6.23,0,0,1-3.14-.72l-14.56-8.39a2.34,2.34,0,0,1-1.34-2,3.13,3.13,0,0,1,1.84-2.51l14-8.11a8,8,0,0,1,7.19-.29l14.55,8.39a2.34,2.34,0,0,1,1.34,2,3.15,3.15,0,0,1-1.83,2.51l-14,8.11A8.41,8.41,0,0,1,533.63,290.67Zm.87-22.14a7.7,7.7,0,0,0-3.75.94l-14,8.11a2.58,2.58,0,0,0-1.54,2,1.78,1.78,0,0,0,1,1.47l14.55,8.39a7.36,7.36,0,0,0,6.6-.29l14-8.11a2.57,2.57,0,0,0,1.54-2,1.77,1.77,0,0,0-1.05-1.47l-14.55-8.39A5.76,5.76,0,0,0,534.5,268.53Z"/><path class="cls-39" d="M550.23,265.51H539.84L537,263.85a6.47,6.47,0,0,0-5.81.24l-2.85,1.66H517.9v7h0a1.68,1.68,0,0,0,1,1.56l12.27,7.07a6.47,6.47,0,0,0,5.81-.24l11.82-6.84a2.45,2.45,0,0,0,1.42-1.79h0Z"/><path class="cls-40" d="M548.8,273.8,537,280.64a6.47,6.47,0,0,1-5.81.24l-12.27-7.07a1.68,1.68,0,0,1-1-1.56h0v.48h0a1.68,1.68,0,0,0,1,1.56l12.27,7.07a6.47,6.47,0,0,0,5.81-.24l11.82-6.84a2.45,2.45,0,0,0,1.42-1.79h0V272h0A2.46,2.46,0,0,1,548.8,273.8Z"/><path class="cls-9" d="M518.56,273.21h0v-7h10.38l2.86-1.66a6.44,6.44,0,0,1,5.81-.25l2.88,1.66h9.74v-.48H539.84L537,263.85a6.47,6.47,0,0,0-5.81.24l-2.85,1.66H517.9v7h0a1.68,1.68,0,0,0,1,1.56l.12.06A1.46,1.46,0,0,1,518.56,273.21Z"/><path class="cls-41" d="M531.17,274.39l-12.27-7.08c-1.49-.86-1.3-2.36.42-3.35l11.82-6.84a6.47,6.47,0,0,1,5.81-.24L549.22,264c1.49.86,1.3,2.37-.42,3.36L537,274.15A6.47,6.47,0,0,1,531.17,274.39Z"/><path class="cls-5" d="M549.22,264,537,256.88a5.38,5.38,0,0,0-2.93-.57,4.91,4.91,0,0,1,2.11.57L548.4,264c1.49.86,1.3,2.37-.42,3.36l-11.82,6.84a6.62,6.62,0,0,1-2.87.8,6.85,6.85,0,0,0,3.69-.8l11.82-6.84C550.52,266.32,550.71,264.81,549.22,264Z"/><path class="cls-9" d="M532.11,274.39l-12.27-7.08c-1.49-.86-1.3-2.36.42-3.35l11.82-6.84a6.58,6.58,0,0,1,2.83-.8,6.8,6.8,0,0,0-3.77.8L519.32,264c-1.72,1-1.91,2.49-.42,3.35l12.27,7.08a5.45,5.45,0,0,0,3,.56A4.81,4.81,0,0,1,532.11,274.39Z"/><path class="cls-5" d="M540.06,269.1a13.28,13.28,0,0,1-12,0c-3.31-1.92-3.31-5,0-6.93a13.28,13.28,0,0,1,12,0C543.37,264.08,543.37,267.18,540.06,269.1Z"/><path class="cls-11" d="M528.06,264a13.28,13.28,0,0,1,12,0,4.91,4.91,0,0,1,2.34,2.56c.5-1.54-.28-3.19-2.34-4.38a13.28,13.28,0,0,0-12,0c-2.06,1.19-2.83,2.84-2.33,4.38A4.88,4.88,0,0,1,528.06,264Z"/><ellipse class="cls-42" cx="507.54" cy="311.53" rx="25.49" ry="41.24" transform="translate(136.94 777.69) rotate(-83.06)"/><ellipse class="cls-43" cx="471.18" cy="304.58" rx="46.73" ry="26.98"/><path class="cls-7" d="M483.64,316.22l-12.27-7.07c-1.49-.86-1.3-2.37.42-3.36L483.61,299a6.47,6.47,0,0,1,5.81-.24l12.27,7.08c1.49.86,1.3,2.36-.42,3.35L489.45,316A6.47,6.47,0,0,1,483.64,316.22Z"/><path class="cls-44" d="M486.09,318.83a6.47,6.47,0,0,1-3.14-.72l-14.55-8.4a2.31,2.31,0,0,1-1.34-2,3.15,3.15,0,0,1,1.83-2.51l14-8.11a8,8,0,0,1,7.18-.28l14.56,8.39a2.34,2.34,0,0,1,1.34,2,3.11,3.11,0,0,1-1.84,2.51l-14,8.11A8.28,8.28,0,0,1,486.09,318.83Zm.87-22.14a7.73,7.73,0,0,0-3.75.94l-14,8.11a2.57,2.57,0,0,0-1.54,2,1.77,1.77,0,0,0,1.05,1.47l14.55,8.39a7.36,7.36,0,0,0,6.59-.28l14-8.11a2.58,2.58,0,0,0,1.54-2,1.78,1.78,0,0,0-1-1.47l-14.55-8.39A5.8,5.8,0,0,0,487,296.69Z"/><path class="cls-45" d="M502.69,293.67H492.3L489.42,292a6.47,6.47,0,0,0-5.81.24l-2.86,1.66H470.37v7h0a1.68,1.68,0,0,0,1,1.56l12.27,7.08a6.47,6.47,0,0,0,5.81-.24l11.82-6.84a2.46,2.46,0,0,0,1.41-1.8h0Z"/><path class="cls-46" d="M501.27,302l-11.82,6.83a6.44,6.44,0,0,1-5.81.25L471.37,302a1.68,1.68,0,0,1-1-1.56h0v.48h0a1.68,1.68,0,0,0,1,1.56l12.27,7.08a6.47,6.47,0,0,0,5.81-.24l11.82-6.84a2.46,2.46,0,0,0,1.41-1.8h0v-.48h0A2.46,2.46,0,0,1,501.27,302Z"/><path class="cls-9" d="M471,301.36h0v-7h10.39l2.85-1.66a6.47,6.47,0,0,1,5.81-.24l2.89,1.66h9.73v-.48H492.3L489.42,292a6.47,6.47,0,0,0-5.81.24l-2.86,1.66H470.37v7h0a1.68,1.68,0,0,0,1,1.56l.12.07A1.45,1.45,0,0,1,471,301.36Z"/><path class="cls-47" d="M483.64,302.54l-12.27-7.07c-1.49-.86-1.3-2.37.42-3.36l11.82-6.84a6.47,6.47,0,0,1,5.81-.24l12.27,7.08c1.49.86,1.3,2.36-.42,3.35l-11.82,6.84A6.47,6.47,0,0,1,483.64,302.54Z"/><path class="cls-5" d="M501.69,292.11,489.42,285a5.38,5.38,0,0,0-2.93-.56,4.81,4.81,0,0,1,2.11.56l12.27,7.08c1.49.86,1.3,2.36-.42,3.35l-11.82,6.84a6.63,6.63,0,0,1-2.88.81,6.9,6.9,0,0,0,3.7-.81l11.82-6.84C503,294.47,503.18,293,501.69,292.11Z"/><path class="cls-9" d="M484.58,302.54l-12.27-7.07c-1.49-.86-1.3-2.37.42-3.36l11.82-6.84a6.54,6.54,0,0,1,2.83-.8,6.85,6.85,0,0,0-3.77.8l-11.82,6.84c-1.72,1-1.91,2.5-.42,3.36l12.27,7.07a5.45,5.45,0,0,0,3,.56A4.77,4.77,0,0,1,484.58,302.54Z"/><path class="cls-5" d="M492.53,297.25a13.28,13.28,0,0,1-12,0c-3.31-1.91-3.31-5,0-6.93a13.28,13.28,0,0,1,12,0C495.84,292.24,495.84,295.34,492.53,297.25Z"/><path class="cls-11" d="M480.53,292.15a13.28,13.28,0,0,1,12,0,4.83,4.83,0,0,1,2.33,2.55c.5-1.54-.27-3.19-2.33-4.38a13.28,13.28,0,0,0-12,0c-2.06,1.19-2.84,2.84-2.34,4.38A4.89,4.89,0,0,1,480.53,292.15Z"/><ellipse class="cls-48" cx="460.01" cy="339.69" rx="25.49" ry="41.24" transform="translate(67.2 755.26) rotate(-83.06)"/><ellipse class="cls-49" cx="423.64" cy="332.74" rx="46.73" ry="26.98"/><path class="cls-7" d="M436.1,344.38l-12.27-7.08c-1.49-.86-1.3-2.36.42-3.36l11.82-6.83a6.47,6.47,0,0,1,5.81-.24l12.27,7.07c1.49.86,1.3,2.36-.42,3.36l-11.82,6.83A6.44,6.44,0,0,1,436.1,344.38Z"/><path class="cls-50" d="M438.56,347a6.34,6.34,0,0,1-3.14-.72l-14.56-8.39a2.35,2.35,0,0,1-1.34-2,3.11,3.11,0,0,1,1.84-2.5l14-8.11a8,8,0,0,1,7.19-.29l14.55,8.39a2.34,2.34,0,0,1,1.34,2,3.15,3.15,0,0,1-1.83,2.51l-14,8.11A8.41,8.41,0,0,1,438.56,347Zm.87-22.14a7.7,7.7,0,0,0-3.75.94l-14,8.11a2.58,2.58,0,0,0-1.54,2,1.79,1.79,0,0,0,1,1.48l14.55,8.39a7.36,7.36,0,0,0,6.6-.29l14-8.11a2.57,2.57,0,0,0,1.54-2,1.77,1.77,0,0,0-1.05-1.47l-14.55-8.39A5.76,5.76,0,0,0,439.43,324.84Z"/><path class="cls-51" d="M455.16,321.82H444.77l-2.89-1.66a6.47,6.47,0,0,0-5.81.24l-2.85,1.66H422.83v7h0a1.68,1.68,0,0,0,1,1.56l12.27,7.07a6.47,6.47,0,0,0,5.81-.24l11.82-6.84a2.46,2.46,0,0,0,1.42-1.8h0Z"/><path class="cls-52" d="M453.73,330.11,441.91,337a6.47,6.47,0,0,1-5.81.24l-12.27-7.08a1.66,1.66,0,0,1-1-1.55h0V329h0a1.68,1.68,0,0,0,1,1.56l12.27,7.07a6.47,6.47,0,0,0,5.81-.24l11.82-6.84a2.46,2.46,0,0,0,1.42-1.8h0v-.48h0A2.46,2.46,0,0,1,453.73,330.11Z"/><path class="cls-9" d="M423.49,329.52h0v-7h10.38l2.86-1.66a6.47,6.47,0,0,1,5.81-.24l2.88,1.66h9.74v-.48H444.77l-2.89-1.66a6.47,6.47,0,0,0-5.81.24l-2.85,1.66H422.83v7h0a1.68,1.68,0,0,0,1,1.56l.12.06A1.46,1.46,0,0,1,423.49,329.52Z"/><path class="cls-53" d="M436.1,330.7l-12.27-7.08c-1.49-.86-1.3-2.36.42-3.35l11.82-6.84a6.47,6.47,0,0,1,5.81-.24l12.27,7.07c1.49.86,1.3,2.37-.42,3.36l-11.82,6.83A6.44,6.44,0,0,1,436.1,330.7Z"/><path class="cls-5" d="M454.15,320.26l-12.27-7.07a5.38,5.38,0,0,0-2.93-.57,4.77,4.77,0,0,1,2.11.57l12.27,7.07c1.49.86,1.3,2.37-.42,3.36l-11.82,6.83a6.63,6.63,0,0,1-2.88.81,6.79,6.79,0,0,0,3.7-.81l11.82-6.83C455.45,322.63,455.64,321.12,454.15,320.26Z"/><path class="cls-9" d="M437,330.7l-12.27-7.08c-1.49-.86-1.3-2.36.42-3.35L437,313.43a6.73,6.73,0,0,1,2.83-.81,6.89,6.89,0,0,0-3.77.81l-11.82,6.84c-1.72,1-1.91,2.49-.42,3.35l12.27,7.08a5.45,5.45,0,0,0,3,.56A4.92,4.92,0,0,1,437,330.7Z"/><path class="cls-5" d="M445,325.4a13.22,13.22,0,0,1-12,0c-3.31-1.91-3.31-5,0-6.92a13.28,13.28,0,0,1,12,0C448.3,320.39,448.3,323.49,445,325.4Z"/><path class="cls-11" d="M433,320.3a13.28,13.28,0,0,1,12,0,4.93,4.93,0,0,1,2.34,2.55c.5-1.53-.28-3.18-2.34-4.37a13.28,13.28,0,0,0-12,0c-2.06,1.19-2.83,2.84-2.33,4.37A4.86,4.86,0,0,1,433,320.3Z"/></g></g></svg>