<svg width="61" height="61" viewBox="0 0 61 61" fill="none" xmlns="http://www.w3.org/2000/svg">
<circle cx="30.5" cy="30.5" r="30.5" fill="url(#paint0_linear)"/>
<path d="M30.4853 24.5812C28.9198 24.5812 27.4184 25.2031 26.3114 26.3101C25.2044 27.4171 24.5825 28.9185 24.5825 30.4841C24.5825 32.0496 25.2044 33.551 26.3114 34.658C27.4184 35.765 28.9198 36.3869 30.4853 36.3869C32.0509 36.3869 33.5523 35.765 34.6593 34.658C35.7663 33.551 36.3882 32.0496 36.3882 30.4841C36.3882 28.9185 35.7663 27.4171 34.6593 26.3101C33.5523 25.2031 32.0509 24.5812 30.4853 24.5812ZM30.4853 34.3176C29.4683 34.3176 28.4929 33.9136 27.7737 33.1944C27.0545 32.4753 26.6505 31.4998 26.6505 30.4828C26.6505 29.4657 27.0545 28.4903 27.7737 27.7712C28.4929 27.052 29.4683 26.648 30.4853 26.648C31.5024 26.648 32.4778 27.052 33.197 27.7712C33.9161 28.4903 34.3202 29.4657 34.3202 30.4828C34.3202 31.4998 33.9161 32.4753 33.197 33.1944C32.4778 33.9136 31.5024 34.3176 30.4853 34.3176Z" fill="black"/>
<path d="M36.6218 25.7403C37.3819 25.7403 37.998 25.1242 37.998 24.3642C37.998 23.6041 37.3819 22.988 36.6218 22.988C35.8618 22.988 35.2457 23.6041 35.2457 24.3642C35.2457 25.1242 35.8618 25.7403 36.6218 25.7403Z" fill="black"/>
<path d="M41.3796 22.965C41.0841 22.2019 40.6325 21.5088 40.0537 20.9303C39.4749 20.3517 38.7817 19.9003 38.0184 19.6051C37.1252 19.2698 36.1816 19.0885 35.2278 19.0689C33.9985 19.0153 33.6091 19 30.4917 19C27.3743 19 26.9748 19 25.7556 19.0689C24.8025 19.0875 23.8596 19.2688 22.9676 19.6051C22.2041 19.9 21.5107 20.3512 20.9319 20.9298C20.353 21.5085 19.9016 22.2017 19.6064 22.965C19.271 23.8581 19.0901 24.8018 19.0715 25.7556C19.0166 26.9837 19 27.3731 19 30.4917C19 33.6091 19 34.0061 19.0715 35.2278C19.0906 36.1827 19.2706 37.1248 19.6064 38.0197C19.9024 38.7828 20.3543 39.4757 20.9333 40.0543C21.5123 40.6328 22.2056 41.0842 22.9689 41.3796C23.8592 41.7284 24.8025 41.9227 25.7582 41.9541C26.9875 42.0077 27.3769 42.0243 30.4943 42.0243C33.6117 42.0243 34.0112 42.0243 35.2304 41.9541C36.1841 41.9347 37.1277 41.7538 38.021 41.4192C38.784 41.1233 39.477 40.6715 40.0558 40.0928C40.6345 39.5141 41.0863 38.8211 41.3822 38.058C41.7179 37.1644 41.8979 36.2223 41.9171 35.2674C41.972 34.0393 41.9886 33.65 41.9886 30.5313C41.9886 27.4126 41.9886 27.0169 41.9171 25.7952C41.9022 24.8279 41.7204 23.8704 41.3796 22.965ZM39.8248 35.1333C39.8165 35.869 39.6822 36.5979 39.4277 37.2882C39.236 37.7846 38.9425 38.2354 38.5661 38.6116C38.1898 38.9878 37.7388 39.281 37.2422 39.4724C36.5596 39.7258 35.8385 39.86 35.1104 39.8694C33.8976 39.9256 33.5555 39.9397 30.4458 39.9397C27.3335 39.9397 27.0156 39.9397 25.7799 39.8694C25.0521 39.8605 24.3314 39.7262 23.6493 39.4724C23.151 39.2822 22.6982 38.9895 22.3202 38.6132C21.9422 38.237 21.6474 37.7856 21.4549 37.2882C21.2039 36.6053 21.0697 35.885 21.0578 35.1576C21.0029 33.9449 20.9902 33.6027 20.9902 30.493C20.9902 27.382 20.9902 27.0641 21.0578 25.8271C21.0661 25.0918 21.2004 24.3634 21.4549 23.6735C21.8442 22.6663 22.6421 21.8736 23.6493 21.488C24.3317 21.2355 25.0523 21.1012 25.7799 21.091C26.9939 21.0361 27.3348 21.0208 30.4458 21.0208C33.5568 21.0208 33.8759 21.0208 35.1104 21.091C35.8385 21.0998 36.5597 21.2341 37.2422 21.488C37.7387 21.6799 38.1896 21.9734 38.566 22.3498C38.9424 22.7261 39.2359 23.177 39.4277 23.6735C39.6787 24.3564 39.8129 25.0767 39.8248 25.8041C39.8797 27.0182 39.8937 27.359 39.8937 30.47C39.8937 33.5798 39.8937 33.9142 39.8388 35.1346H39.8248V35.1333Z" fill="black"/>
<defs>
<linearGradient id="paint0_linear" x1="-1.20284e-06" y1="44" x2="61" y2="25" gradientUnits="userSpaceOnUse">
<stop stop-color="#D3BB4C"/>
<stop offset="1" stop-color="#A26725"/>
</linearGradient>
</defs>
</svg>
