<svg width="61" height="61" viewBox="0 0 61 61" fill="none" xmlns="http://www.w3.org/2000/svg">
<circle cx="30.5" cy="30.4995" r="30.5" fill="url(#paint0_linear)"/>
<path d="M30.4853 24.5807C28.9198 24.5807 27.4184 25.2026 26.3114 26.3096C25.2044 27.4166 24.5825 28.918 24.5825 30.4836C24.5825 32.0491 25.2044 33.5505 26.3114 34.6575C27.4184 35.7645 28.9198 36.3865 30.4853 36.3865C32.0509 36.3865 33.5523 35.7645 34.6593 34.6575C35.7663 33.5505 36.3882 32.0491 36.3882 30.4836C36.3882 28.918 35.7663 27.4166 34.6593 26.3096C33.5523 25.2026 32.0509 24.5807 30.4853 24.5807ZM30.4853 34.3171C29.4683 34.3171 28.4929 33.9131 27.7737 33.1939C27.0545 32.4748 26.6505 31.4994 26.6505 30.4823C26.6505 29.4652 27.0545 28.4898 27.7737 27.7707C28.4929 27.0515 29.4683 26.6475 30.4853 26.6475C31.5024 26.6475 32.4778 27.0515 33.197 27.7707C33.9161 28.4898 34.3202 29.4652 34.3202 30.4823C34.3202 31.4994 33.9161 32.4748 33.197 33.1939C32.4778 33.9131 31.5024 34.3171 30.4853 34.3171Z" fill="black"/>
<path d="M36.6218 25.7398C37.3819 25.7398 37.998 25.1237 37.998 24.3637C37.998 23.6037 37.3819 22.9875 36.6218 22.9875C35.8618 22.9875 35.2457 23.6037 35.2457 24.3637C35.2457 25.1237 35.8618 25.7398 36.6218 25.7398Z" fill="black"/>
<path d="M41.3796 22.9646C41.0841 22.2014 40.6325 21.5083 40.0537 20.9298C39.4749 20.3512 38.7817 19.8998 38.0184 19.6046C37.1252 19.2693 36.1816 19.088 35.2278 19.0684C33.9985 19.0148 33.6091 18.9995 30.4917 18.9995C27.3743 18.9995 26.9748 18.9995 25.7556 19.0684C24.8025 19.087 23.8596 19.2684 22.9676 19.6046C22.2041 19.8995 21.5107 20.3507 20.9319 20.9293C20.353 21.508 19.9016 22.2012 19.6064 22.9646C19.271 23.8577 19.0901 24.8013 19.0715 25.7551C19.0166 26.9832 19 27.3726 19 30.4912C19 33.6086 19 34.0056 19.0715 35.2273C19.0906 36.1822 19.2706 37.1243 19.6064 38.0192C19.9024 38.7823 20.3543 39.4752 20.9333 40.0538C21.5123 40.6323 22.2056 41.0837 22.9689 41.3791C23.8592 41.7279 24.8025 41.9222 25.7582 41.9536C26.9875 42.0072 27.3769 42.0238 30.4943 42.0238C33.6117 42.0238 34.0112 42.0238 35.2304 41.9536C36.1841 41.9342 37.1277 41.7533 38.021 41.4187C38.784 41.1228 39.477 40.671 40.0558 40.0923C40.6345 39.5136 41.0863 38.8206 41.3822 38.0575C41.7179 37.1639 41.8979 36.2218 41.9171 35.2669C41.972 34.0388 41.9886 33.6495 41.9886 30.5308C41.9886 27.4121 41.9886 27.0164 41.9171 25.7947C41.9022 24.8274 41.7204 23.87 41.3796 22.9646ZM39.8248 35.1329C39.8165 35.8686 39.6822 36.5974 39.4277 37.2877C39.236 37.7841 38.9425 38.2349 38.5661 38.6111C38.1898 38.9873 37.7388 39.2805 37.2422 39.4719C36.5596 39.7253 35.8385 39.8596 35.1104 39.869C33.8976 39.9251 33.5555 39.9392 30.4458 39.9392C27.3335 39.9392 27.0156 39.9392 25.7799 39.869C25.0521 39.86 24.3314 39.7257 23.6493 39.4719C23.151 39.2817 22.6982 38.989 22.3202 38.6128C21.9422 38.2365 21.6474 37.7851 21.4549 37.2877C21.2039 36.6048 21.0697 35.8846 21.0578 35.1571C21.0029 33.9444 20.9902 33.6022 20.9902 30.4925C20.9902 27.3815 20.9902 27.0636 21.0578 25.8266C21.0661 25.0914 21.2004 24.3629 21.4549 23.6731C21.8442 22.6658 22.6421 21.8731 23.6493 21.4876C24.3317 21.235 25.0523 21.1007 25.7799 21.0905C26.9939 21.0356 27.3348 21.0203 30.4458 21.0203C33.5568 21.0203 33.8759 21.0203 35.1104 21.0905C35.8385 21.0993 36.5597 21.2336 37.2422 21.4876C37.7387 21.6794 38.1896 21.9729 38.566 22.3493C38.9424 22.7257 39.2359 23.1766 39.4277 23.6731C39.6787 24.356 39.8129 25.0762 39.8248 25.8037C39.8797 27.0177 39.8937 27.3585 39.8937 30.4695C39.8937 33.5793 39.8937 33.9137 39.8388 35.1341H39.8248V35.1329Z" fill="black"/>
<defs>
<linearGradient id="paint0_linear" x1="61" y1="30.4995" x2="1.67176e-09" y2="30.4995" gradientUnits="userSpaceOnUse">
<stop stop-color="#D99913"/>
<stop offset="1" stop-color="#F7DC39"/>
</linearGradient>
</defs>
</svg>
