<svg width="86" height="91" viewBox="0 0 86 91" fill="none" xmlns="http://www.w3.org/2000/svg">
<path d="M11.3333 57.6428H4.66667C3.74619 57.6428 3 58.3224 3 59.1607V86.4821C3 87.3204 3.74619 88 4.66667 88H11.3333C12.2538 88 13 87.3204 13 86.4821V59.1607C13 58.3224 12.2538 57.6428 11.3333 57.6428Z" stroke="#444444" stroke-width="6" stroke-linecap="round" stroke-linejoin="round"/>
<path d="M58 39.4285H51.3333C50.4129 39.4285 49.6667 40.1081 49.6667 40.9464V86.4821C49.6667 87.3204 50.4129 88 51.3333 88H58C58.9205 88 59.6667 87.3204 59.6667 86.4821V40.9464C59.6667 40.1081 58.9205 39.4285 58 39.4285Z" stroke="#444444" stroke-width="6" stroke-linecap="round" stroke-linejoin="round"/>
<path d="M81.3333 18.1785H74.6667C73.7462 18.1785 73 18.8581 73 19.6964V86.4821C73 87.3204 73.7462 88 74.6667 88H81.3333C82.2538 88 83 87.3204 83 86.4821V19.6964C83 18.8581 82.2538 18.1785 81.3333 18.1785Z" stroke="#444444" stroke-width="6" stroke-linecap="round" stroke-linejoin="round"/>
<path d="M34.6667 3H28C27.0795 3 26.3333 3.67957 26.3333 4.51786V86.4821C26.3333 87.3204 27.0795 88 28 88H34.6667C35.5871 88 36.3333 87.3204 36.3333 86.4821V4.51786C36.3333 3.67957 35.5871 3 34.6667 3Z" stroke="#444444" stroke-width="6" stroke-linecap="round" stroke-linejoin="round"/>
</svg>
