<svg width="74" height="92" viewBox="0 0 74 92" fill="none" xmlns="http://www.w3.org/2000/svg">
<path d="M36.6289 0C24.0057 0 13.7358 10.2698 13.7358 22.8931V36.6289H9.15723C4.10702 36.6289 0 40.736 0 45.7862V82.4151C0 87.4653 4.10702 91.5723 9.15723 91.5723H64.1006C69.1508 91.5723 73.2579 87.4653 73.2579 82.4151V45.7862C73.2579 40.736 69.1508 36.6289 64.1006 36.6289H59.522V22.8931C59.522 10.2698 49.2522 0 36.6289 0ZM64.1006 45.7862L64.1098 82.4151H9.15723V45.7862H64.1006ZM22.8931 36.6289V22.8931C22.8931 15.3201 29.0559 9.15723 36.6289 9.15723C44.202 9.15723 50.3648 15.3201 50.3648 22.8931V36.6289H22.8931Z" fill="white"/>
</svg>
