<svg width="137" height="18" viewBox="0 0 137 18" fill="none" xmlns="http://www.w3.org/2000/svg">
<g clip-path="url(#clip0)">
<path d="M8.60087 11.5121C8.50618 11.3227 8.41149 10.3758 8.41149 9.80768C8.41149 6.77762 10.5893 4.22101 16.176 4.22101H19.1114C19.1114 4.22101 18.4486 4.50508 16.9335 5.54666C15.5132 6.58824 8.60087 11.5121 8.60087 11.5121ZM31.7997 9.23954L42.4996 1.28564H37.197L29.1484 7.34576L27.0653 6.02011H22.0467L26.5918 9.33423L23.0883 12.2696C21.2892 13.7846 18.7326 15.8678 15.0397 15.8678C13.5247 15.8678 11.4415 15.5837 10.3053 14.2581L27.5387 1.38033H17.1229C10.684 1.38033 7.36991 4.97853 7.36991 9.42892C7.36991 10.3758 7.55929 11.5121 7.84336 12.0802L0.646973 17.2881H6.13895L9.45307 14.8262C10.684 16.3412 13.2406 17.6669 15.8919 17.6669C20.3423 17.6669 24.414 14.8262 25.8343 13.6899L29.0538 11.1333L37.5758 17.2881H43.5412L31.7997 9.23954Z" fill="#FFCF01"/>
<path d="M105.847 7.91257C105.563 6.20817 104.143 5.45065 102.817 5.45065C101.492 5.45065 100.071 6.30286 99.7873 7.91257H105.847ZM108.972 12.5524C108.593 13.4992 107.362 16.2452 102.912 16.2452C100.829 16.2452 99.3139 15.6771 98.0829 14.4461C96.6626 13.1205 96.0945 11.5108 96.0945 9.61698C96.0945 7.15506 97.136 5.64003 97.9882 4.69314C99.5033 3.2728 101.208 2.89404 102.817 2.89404C105.374 2.89404 106.889 3.93563 107.741 4.97721C109.067 6.58693 109.256 8.48071 109.256 9.90105V10.1851H99.7873C99.7873 10.9426 99.9767 11.7001 100.45 12.2683C100.829 12.7417 101.586 13.4046 103.007 13.4046C104.332 13.4046 105.374 12.7417 105.942 11.7948L108.972 12.5524ZM56.7984 7.91257C56.5143 6.20817 55.094 5.45065 53.7683 5.45065C52.4427 5.45065 51.0224 6.30286 50.7383 7.91257H56.7984ZM59.9231 12.5524C59.5444 13.4992 58.3134 16.2452 53.863 16.2452C51.7799 16.2452 50.2648 15.6771 49.0339 14.4461C47.6135 13.1205 47.0454 11.5108 47.0454 9.61698C47.0454 7.15506 48.087 5.64003 48.9392 4.69314C50.4542 3.2728 52.1586 2.89404 53.7683 2.89404C56.325 2.89404 57.84 3.93563 58.6922 4.97721C60.0178 6.58693 60.2072 8.48071 60.2072 9.90105V10.1851H50.7383C50.7383 10.9426 50.9277 11.7001 51.4011 12.2683C51.7799 12.7417 52.5374 13.4046 53.9577 13.4046C55.2834 13.4046 56.325 12.7417 56.8931 11.7948L59.9231 12.5524ZM79.6185 3.17811H83.5008V5.26127C84.2583 4.40907 85.4893 2.98873 87.7618 2.98873C90.6025 2.98873 92.2122 4.50376 92.2122 8.48071V15.9612H88.5193V8.67009C88.5193 7.15506 87.7618 6.20817 86.6255 6.20817C85.2999 6.20817 84.1636 6.96568 83.5008 7.81789V15.7718H79.6185V3.17811ZM126.016 14.5408L127.058 11.7948C128.478 12.8364 130.561 13.4046 131.792 13.4046C132.929 13.4046 133.402 13.0258 133.402 12.4577V12.363C133.402 11.6055 132.076 11.3214 130.656 10.8479C128.762 10.2798 126.679 9.52229 126.679 6.96568C126.679 4.40907 128.857 2.89404 131.508 2.89404C133.213 2.89404 134.728 3.2728 136.148 4.125L135.39 6.87099C134.065 6.11348 132.455 5.64003 131.508 5.64003C130.561 5.64003 130.088 6.01879 130.088 6.49224V6.58692C130.088 7.34444 131.319 7.62851 132.739 8.10195C134.633 8.67009 136.716 9.52229 136.716 11.8895V11.9842C136.716 14.8249 134.538 16.1505 131.603 16.1505C129.899 16.1505 127.815 15.8665 126.016 14.5408ZM112.57 14.5408L113.612 11.7948C115.032 12.8364 117.115 13.4046 118.346 13.4046C119.388 13.4046 119.956 13.0258 119.956 12.4577V12.363C119.956 11.6055 118.63 11.3214 117.21 10.8479C115.316 10.2798 113.233 9.52229 113.233 6.96568C113.233 4.40907 115.411 2.89404 118.062 2.89404C119.767 2.89404 121.282 3.2728 122.702 4.125L121.945 6.87099C120.619 6.11348 119.009 5.64003 118.062 5.64003C117.115 5.64003 116.642 6.01879 116.642 6.49224V6.58692C116.642 7.34444 117.873 7.62851 119.293 8.10195C121.187 8.67009 123.27 9.52229 123.27 11.8895V11.9842C123.27 14.8249 121.092 16.1505 118.157 16.1505C116.453 16.1505 114.369 15.8665 112.57 14.5408ZM69.0133 6.87099L71.6646 3.17811H75.8309L71.0018 9.4276L76.0203 15.9612H71.6646L68.8239 11.9842L65.9833 15.9612H61.8169L66.9302 9.4276L62.101 3.17811H66.4567L69.0133 6.87099Z" fill="white"/>
</g>
<defs>
<clipPath id="clip0">
<rect width="136.353" height="17.0441" fill="white" transform="translate(0.647461 0.907227)"/>
</clipPath>
</defs>
</svg>
