<svg width="64" height="73" viewBox="0 0 64 73" fill="none" xmlns="http://www.w3.org/2000/svg">
<path d="M42.1234 72.7208L64.0002 67.9804C64.0002 67.9804 56.1089 14.5669 56.0439 14.2132C55.9788 13.8636 55.6942 13.6278 55.4015 13.6278C55.1088 13.6278 49.5511 13.2172 49.5511 13.2172C49.5511 13.2172 45.6929 9.35894 45.2254 8.94832C45.1156 8.83042 44.9936 8.7735 44.8757 8.71251L42.1234 72.7208ZM43.9366 8.59868C43.8715 8.59868 43.7618 8.6556 43.7049 8.6556C43.6398 8.6556 42.8226 8.89546 41.5379 9.29796C40.2451 5.5617 37.9643 2.11003 33.9312 2.11003C33.8133 2.11003 33.6995 2.11003 33.5816 2.11003C32.4066 0.64236 31.0081 0 29.7762 0C20.3604 0 15.8476 11.7576 14.449 17.7218C10.8225 18.8398 8.19619 19.657 7.89127 19.7749C5.84222 20.4173 5.78937 20.4742 5.55763 22.4094C5.32589 23.808 0 65.0532 0 65.0532L41.1314 72.7737L43.9366 8.59868ZM33.2238 11.4608C33.2238 11.5828 33.2238 11.7576 33.2238 11.8755C30.9512 12.5789 28.4346 13.3391 25.9749 14.0994C27.3816 8.72065 30.008 6.08209 32.2887 5.08603C32.8823 6.61062 33.2238 8.6556 33.2238 11.4608ZM29.4835 2.51659C29.8901 2.51659 30.3007 2.63042 30.7154 2.93128C27.7394 4.32983 24.4585 7.8994 23.1087 15.0385C21.1206 15.6768 19.1854 16.2623 17.3722 16.7949C18.9537 11.3511 22.7591 2.51659 29.4835 2.51659ZM31.1179 34.2768C31.1179 34.2768 28.6623 32.9962 25.7432 32.9962C21.3524 32.9962 21.1775 35.7445 21.1775 36.4478C21.1775 40.1922 31.0081 41.6518 31.0081 50.4862C31.0081 57.4465 26.6173 61.8942 20.6531 61.8942C13.5139 61.8942 9.88746 57.4465 9.88746 57.4465L11.8186 51.1286C11.8186 51.1286 15.5671 54.3485 18.7179 54.3485C20.7751 54.3485 21.6492 52.7142 21.6492 51.5433C21.6492 46.628 13.5749 46.3881 13.5749 38.3221C13.5749 31.5366 18.4333 24.926 28.3207 24.926C32.1261 24.926 33.9922 26.0318 33.9922 26.0318L31.1179 34.2768ZM34.8663 4.6754C36.9723 4.91934 38.322 7.30989 39.1921 10.0054C38.1432 10.3591 36.9682 10.7087 35.6835 11.1153C35.6835 10.8795 35.6835 10.6437 35.6835 10.355C35.6835 8.07422 35.3908 6.19999 34.8663 4.6754Z" fill="#444444"/>
</svg>
