<svg width="0" height="0" class="hidden">
  <symbol fill="none" xmlns="http://www.w3.org/2000/svg" viewBox="0 0 61 61" id="Telegram icon">
    <circle cx="30.5" cy="30.5" r="30.5" fill="url(#paint0_linear)"></circle>
    <path d="M41.827 20.14l-22.634 8.728c-1.545.62-1.536 1.483-.283 1.867l5.81 1.812 13.446-8.482c.635-.387 1.216-.18.739.245l-10.893 9.83h-.003l.003.002-.401 5.99c.587 0 .846-.27 1.176-.588l2.822-2.744 5.871 4.336c1.083.596 1.86.29 2.13-1.002l3.853-18.163c.395-1.582-.604-2.298-1.636-1.83z" fill="#000"></path>
    <defs>
      <linearGradient id="paint0_linear" x1="61" y1="30.5" x2="0" y2="30.5" gradientUnits="userSpaceOnUse">
        <stop stop-color="#D99913"></stop>
        <stop offset="1" stop-color="#F7DC39"></stop>
      </linearGradient>
    </defs>
  </symbol>
  <symbol fill="none" xmlns="http://www.w3.org/2000/svg" viewBox="0 0 61 61" id="Twiiter icon">
    <circle cx="30.5" cy="30.5" r="30.5" fill="url(#paint0_linear)"></circle>
    <path d="M40.51 25.078c.016.223.016.445.016.667 0 6.798-5.174 14.631-14.63 14.631-2.912 0-5.619-.844-7.896-2.31.414.048.812.065 1.242.065a10.302 10.302 0 006.384-2.197 5.152 5.152 0 01-4.809-3.566c.318.047.637.08.972.08.46 0 .924-.064 1.354-.175a5.14 5.14 0 01-4.123-5.047v-.064c.686.382 1.48.62 2.323.653a5.135 5.135 0 01-2.292-4.282 5.1 5.1 0 01.7-2.594 14.627 14.627 0 0010.602 5.38 5.846 5.846 0 01-.127-1.177A5.138 5.138 0 0135.368 20c1.48 0 2.817.62 3.757 1.623a10.157 10.157 0 003.263-1.242 5.132 5.132 0 01-2.261 2.834 10.301 10.301 0 002.96-.796 11.034 11.034 0 01-2.577 2.659z" fill="#000"></path>
    <defs>
      <linearGradient id="paint0_linear" x1="61" y1="30.5" x2="0" y2="30.5" gradientUnits="userSpaceOnUse">
        <stop stop-color="#D99913"></stop>
        <stop offset="1" stop-color="#F7DC39"></stop>
      </linearGradient>
    </defs>
  </symbol>
  <symbol fill="none" xmlns="http://www.w3.org/2000/svg" viewBox="0 0 96 96" id="wallet-icon">
    <path d="M73.382 31.688H22.618a7.615 7.615 0 00-7.614 7.615V69.76a7.615 7.615 0 007.615 7.615h50.763a7.615 7.615 0 007.615-7.615V39.303a7.615 7.615 0 00-7.615-7.615z" stroke="#444" stroke-width="4.248" stroke-linejoin="round"></path>
    <path d="M72.646 31.688V26.93a7.931 7.931 0 00-9.416-7.789l-41.78 7.131a7.932 7.932 0 00-6.446 7.797v7.773" stroke="#444" stroke-width="4.248" stroke-linejoin="round"></path>
    <path d="M65.767 59.609a5.076 5.076 0 110-10.153 5.076 5.076 0 010 10.153z" fill="#444"></path>
  </symbol>
  <symbol fill="none" xmlns="http://www.w3.org/2000/svg" viewBox="0 0 61 61" id="Facebook icon">
    <circle cx="30.5" cy="30.5" r="30.5" fill="url(#paint0_linear)"></circle>
    <path d="M30.765 18C23.715 18 18 23.715 18 30.764c0 6.37 4.667 11.65 10.77 12.611v-8.92h-3.242v-3.691h3.242v-2.812c0-3.202 1.906-4.968 4.82-4.968 1.397 0 2.86.25 2.86.25v3.139h-1.613c-1.583 0-2.079.985-2.079 1.995v2.393h3.538l-.566 3.691h-2.97v8.92c6.103-.955 10.77-6.237 10.77-12.608C43.53 23.714 37.815 18 30.765 18z" fill="#000"></path>
    <defs>
      <linearGradient id="paint0_linear" x1="61" y1="30.5" x2="0" y2="30.5" gradientUnits="userSpaceOnUse">
        <stop stop-color="#D99913"></stop>
        <stop offset="1" stop-color="#F7DC39"></stop>
      </linearGradient>
    </defs>
  </symbol>
  <symbol fill="none" xmlns="http://www.w3.org/2000/svg" viewBox="0 0 96 96" id="finanical-freedom-icon">
    <path d="M72 45l-2.154.214a2.165 2.165 0 002.041 1.948L72 45zm-45.333-8l.215 2.154a2.165 2.165 0 001.856-1.523L26.667 37zm33.156 4.061a2.165 2.165 0 10-3.312-2.789l3.312 2.79zM40.2 61l-1.607 1.45a2.165 2.165 0 003.263-.055L40.2 61zm-6.093-9.984a2.165 2.165 0 00-3.214 2.901l3.214-2.9zm40.047-6.23C72.574 28.876 61.397 18.835 48 18.835v4.33c10.937 0 20.462 8.113 21.846 22.049l4.308-.428zM48 18.835c-12.656 0-20.764 8.866-23.404 17.534l4.142 1.262C30.95 30.365 37.656 23.165 48 23.165v-4.33zm-21.549 16.01c-5.362.537-10.498 2.496-14.327 5.988-3.87 3.53-6.289 8.53-6.289 14.834h4.33c0-5.099 1.915-8.933 4.877-11.635 3.005-2.74 7.202-4.414 11.84-4.878l-.43-4.308zM5.835 55.668c0 12.387 10.17 20.831 22.165 20.831v-4.33c-10.006 0-17.835-6.889-17.835-16.501h-4.33zM28 76.498h43.333v-4.33H28v4.33zm43.333 0c4.91 0 9.605-1.22 13.12-4.02 3.585-2.854 5.712-7.17 5.712-12.811h-4.33c0 4.451-1.623 7.469-4.08 9.424-2.526 2.012-6.165 3.077-10.422 3.077v4.33zm18.832-16.831c0-5.72-2.573-9.907-6.162-12.652-3.52-2.692-7.965-3.973-11.89-4.177l-.226 4.324c3.242.169 6.796 1.236 9.485 3.292 2.62 2.003 4.463 4.963 4.463 9.213h4.33zM56.511 38.272L38.544 59.605l3.312 2.79L59.823 41.06l-3.312-2.789zM41.807 59.55l-7.7-8.534-3.214 2.901 7.7 8.533 3.214-2.9z" fill="#fff"></path>
  </symbol>
  <symbol fill="none" xmlns="http://www.w3.org/2000/svg" viewBox="0 0 60 61" id="finger-print-icon">
    <path d="M44.407 11.431c-.198 0-.393-.052-.564-.152-4.702-2.518-8.767-3.586-13.641-3.586-4.85 0-9.454 1.196-13.643 3.586-.592.335-1.322.101-1.665-.513a1.314 1.314 0 01.49-1.73 29.858 29.858 0 0114.818-3.885c5.216 0 9.772 1.195 14.768 3.865a1.27 1.27 0 01.514 1.703 1.197 1.197 0 01-1.077.712zM9.359 24.781a1.243 1.243 0 01-.71-.229 1.299 1.299 0 01-.294-1.78c2.425-3.56 5.51-6.357 9.185-8.315 7.69-4.115 17.536-4.145 25.25-.025 3.675 1.958 6.76 4.73 9.185 8.264a1.302 1.302 0 01-.294 1.78 1.193 1.193 0 01-1.715-.305c-2.204-3.204-4.995-5.721-8.302-7.476-7.03-3.738-16.018-3.738-23.023.026-3.33 1.78-6.122 4.322-8.326 7.522a1.06 1.06 0 01-.956.538zm15.307 30.697a1.129 1.129 0 01-.857-.382c-2.13-2.216-3.286-3.644-4.923-6.717-1.695-3.128-2.571-6.942-2.571-11.036 0-7.552 6.22-13.706 13.862-13.706 7.643 0 13.867 6.154 13.867 13.706a1.226 1.226 0 11-2.448 0c0-6.154-5.12-11.163-11.413-11.163-6.294 0-11.419 5.01-11.419 11.163 0 3.662.783 7.044 2.277 9.79 1.568 2.924 2.65 4.17 4.532 6.154a1.343 1.343 0 010 1.8c-.24.243-.566.383-.907.39zm17.561-4.705c-2.914 0-5.486-.762-7.592-2.263a13.678 13.678 0 01-5.827-11.163 1.224 1.224 0 012.109-.9 1.226 1.226 0 01.34.9 11.048 11.048 0 004.751 9.053c1.739 1.22 3.772 1.8 6.222 1.8a15.61 15.61 0 002.542-.253c.662-.128 1.298.33 1.42 1.042a1.263 1.263 0 01-1.003 1.475c-.976.193-1.967.295-2.962.305v.004zm-4.923 5.234a1.38 1.38 0 01-.318-.05c-3.895-1.12-6.442-2.62-9.112-5.34-3.43-3.535-5.314-8.24-5.314-13.274 0-4.12 3.38-7.476 7.542-7.476 4.163 0 7.544 3.357 7.544 7.476 0 2.72 2.278 4.933 5.094 4.933 2.816 0 5.094-2.212 5.094-4.933 0-9.587-7.96-17.368-17.756-17.368-6.956 0-13.323 4.018-16.189 10.248-.953 2.06-1.445 4.475-1.445 7.12 0 1.983.17 5.111 1.64 9.18.246.66-.073 1.398-.71 1.627a1.202 1.202 0 01-1.566-.742 29.285 29.285 0 01-1.789-10.065c0-3.052.564-5.827 1.666-8.239 3.258-7.099 10.483-11.697 18.393-11.697 11.144 0 20.206 8.925 20.206 19.91 0 4.12-3.38 7.477-7.544 7.477s-7.544-3.357-7.544-7.476c.002-2.721-2.276-4.938-5.093-4.938-2.816 0-5.094 2.212-5.094 4.933 0 4.344 1.617 8.417 4.58 11.468 2.331 2.39 4.556 3.709 8.01 4.705.66.178 1.028.89.857 1.55a1.207 1.207 0 01-1.152.971z" fill="#444"></path>
  </symbol>
  <symbol fill="none" xmlns="http://www.w3.org/2000/svg" viewBox="0 0 52 52" id="global-expertise-icon">
    <path d="M42.25 9.525v-1.25a1.25 1.25 0 01.724 2.27l-.724-1.02zm-32.5 0l-.724 1.02a1.25 1.25 0 01.724-2.27v1.25zm.723 33.52a1.25 1.25 0 01-1.447-2.038l1.447 2.038zm32.501-2.038a1.25 1.25 0 11-1.447 2.038l1.447-2.038zM26 .15c14.152 0 25.625 11.474 25.625 25.625h-2.5C49.125 13.005 38.771 2.65 26 2.65V.15zm25.625 25.625C51.625 39.927 40.152 51.4 26 51.4v-2.5c12.771 0 23.125-10.354 23.125-23.125h2.5zM26 51.4C11.848 51.4.375 39.927.375 25.775h2.5C2.875 38.546 13.229 48.9 26 48.9v2.5zM.375 25.775C.375 11.624 11.848.15 26 .15v2.5c-12.771 0-23.125 10.354-23.125 23.125h-2.5zM26 .15c4.091 0 7.72 3.235 10.246 7.783 2.567 4.62 4.207 10.928 4.207 17.842h-2.5c0-6.546-1.558-12.426-3.892-16.628C31.687 4.872 28.713 2.65 26 2.65V.15zm14.453 25.625c0 6.915-1.64 13.223-4.207 17.843C33.72 48.166 30.091 51.4 26 51.4v-2.5c2.713 0 5.687-2.222 8.06-6.496 2.335-4.202 3.893-10.082 3.893-16.629h2.5zM26 51.4c-4.091 0-7.72-3.234-10.246-7.782-2.567-4.62-4.207-10.928-4.207-17.843h2.5c0 6.547 1.558 12.427 3.892 16.629C20.313 46.678 23.287 48.9 26 48.9v2.5zM11.546 25.775c0-6.914 1.641-13.222 4.208-17.842C18.28 3.385 21.909.15 26 .15v2.5c-2.713 0-5.687 2.222-8.06 6.497-2.335 4.202-3.894 10.082-3.894 16.628h-2.5zm31.428-15.23c-4.693 3.33-10.587 5.308-16.974 5.308v-2.5c5.869 0 11.257-1.817 15.527-4.848l1.447 2.038zM26 15.853c-6.387 0-12.281-1.978-16.974-5.31l1.447-2.038c4.27 3.031 9.658 4.848 15.527 4.848v2.5zM9.75 8.275h32.5v2.5H9.75v-2.5zm-.724 32.732c4.693-3.332 10.587-5.31 16.974-5.31v2.5c-5.869 0-11.257 1.817-15.527 4.848l-1.447-2.038zM26 35.697c6.387 0 12.281 1.978 16.974 5.31l-1.447 2.038c-4.27-3.031-9.658-4.848-15.527-4.848v-2.5zM27.25 1.4v48.75h-2.5V1.4h2.5zM1.625 24.525h48.75v2.5H1.625v-2.5z" fill="#444"></path>
  </symbol>
  <symbol fill="none" xmlns="http://www.w3.org/2000/svg" viewBox="0 0 61 61" id="Instagram icon">
    <circle cx="30.5" cy="30.5" r="30.5" fill="url(#paint0_linear)"></circle>
    <path d="M30.485 24.58a5.903 5.903 0 100 11.806 5.903 5.903 0 000-11.805zm0 9.737a3.835 3.835 0 110-7.67 3.835 3.835 0 010 7.67zm6.137-8.577a1.376 1.376 0 100-2.752 1.376 1.376 0 000 2.752z" fill="#000"></path>
    <path d="M41.38 22.965a5.877 5.877 0 00-3.362-3.36 8.433 8.433 0 00-2.79-.537c-1.23-.053-1.619-.069-4.736-.069-3.118 0-3.517 0-4.736.07-.954.018-1.896.2-2.788.536a5.872 5.872 0 00-3.362 3.36 8.403 8.403 0 00-.535 2.79c-.054 1.228-.071 1.618-.071 4.736 0 3.118 0 3.515.072 4.736.019.955.199 1.897.534 2.792a5.885 5.885 0 003.363 3.36 8.41 8.41 0 002.79.575c1.229.053 1.618.07 4.735.07 3.118 0 3.517 0 4.736-.07a8.45 8.45 0 002.791-.535 5.89 5.89 0 003.361-3.361 8.408 8.408 0 00.535-2.791c.055-1.228.072-1.617.072-4.736 0-3.119 0-3.515-.072-4.736a8.4 8.4 0 00-.537-2.83zm-1.555 12.168a6.44 6.44 0 01-.397 2.155 3.813 3.813 0 01-2.186 2.184 6.362 6.362 0 01-2.132.397c-1.212.056-1.554.07-4.664.07-3.113 0-3.43 0-4.666-.07a6.334 6.334 0 01-2.13-.397 3.81 3.81 0 01-2.195-2.184 6.483 6.483 0 01-.397-2.13c-.055-1.214-.068-1.556-.068-4.666 0-3.11 0-3.428.068-4.665a6.432 6.432 0 01.397-2.154 3.812 3.812 0 012.194-2.185 6.396 6.396 0 012.13-.398c1.215-.054 1.556-.07 4.667-.07 3.11 0 3.43 0 4.664.07.729.01 1.45.144 2.132.398a3.818 3.818 0 012.186 2.185 6.51 6.51 0 01.397 2.13c.055 1.215.069 1.555.069 4.666 0 3.11 0 3.445-.055 4.665h-.014v-.001z" fill="#000"></path>
    <defs>
      <linearGradient id="paint0_linear" x1="61" y1="30.5" x2="0" y2="30.5" gradientUnits="userSpaceOnUse">
        <stop stop-color="#D99913"></stop>
        <stop offset="1" stop-color="#F7DC39"></stop>
      </linearGradient>
    </defs>
  </symbol>
  <symbol fill="none" xmlns="http://www.w3.org/2000/svg" viewBox="0 0 96 96" id="make-money-anywhere-icon">
    <path d="M48 48.143s8.571 17.143 22.5 17.143c9.664 0 17.5-7.679 17.5-17.143S80.164 31 70.5 31c-6.698 0-12.679 4.002-16.786 8.571M48 48.143S39.429 31 25.5 31C15.836 31 8 38.679 8 48.143s7.836 17.143 17.5 17.143c6.698 0 12.679-4.002 16.786-8.572L48 48.143z" stroke="#fff" stroke-width="4.71" stroke-miterlimit="10" stroke-linecap="round"></path>
  </symbol>
  <symbol fill="none" xmlns="http://www.w3.org/2000/svg" viewBox="0 0 96 96" id="person-group-icon">
    <path d="M74.465 32.05l-2.394-.173 2.394.173zm-23.925 0l2.394-.17-2.394.17zM36.486 73.993l2.329.58-2.329-.58zm52.035 0l-2.33.571v.002l2.33-.573zM37.853 35.302l-2.394-.173 2.394.173zm-19.213 0l-2.394.169 2.394-.17zm19.3 23.942a2.4 2.4 0 102-4.363l-2 4.363zM7.466 68.798l-2.329-.58v.003l2.33.577zm22.05 4.802a2.4 2.4 0 000-4.8v4.8zM72.07 31.878c-.464 6.44-5.165 10.822-9.568 10.822v4.8c7.523 0 13.758-6.976 14.356-15.278l-4.788-.345zM62.503 42.7c-4.406 0-9.113-4.382-9.569-10.82l-4.788.34c.588 8.309 6.836 15.28 14.357 15.28v-4.8zm-9.569-10.82c-.228-3.222.774-5.811 2.44-7.589 1.673-1.784 4.15-2.891 7.129-2.891v-4.8c-4.204 0-7.981 1.584-10.63 4.407-2.654 2.83-4.042 6.766-3.727 11.213l4.788-.34zm9.569-10.48c5.79 0 10.012 4.339 9.568 10.477l4.788.346c.644-8.92-5.78-15.623-14.356-15.623v4.8zm0 32.9c-12.444 0-25.135 6.22-28.346 19.113l4.658 1.16c2.48-9.96 12.507-15.473 23.688-15.473v-4.8zM34.157 73.412c-.671 2.694 1.013 5.988 4.453 5.988v-4.8s.012 0 .034.006a.309.309 0 01.163.105c.018.026-.022-.017.008-.137l-4.658-1.162zM38.61 79.4h47.787v-4.8H38.61v4.8zm47.787 0c3.448 0 5.113-3.301 4.455-5.98l-4.662 1.146c.031.125-.01.172.007.146a.313.313 0 01.165-.106c.023-.006.035-.006.035-.006v4.8zm4.455-5.978c-3.21-13.1-15.927-19.122-28.35-19.122v4.8c11.206 0 21.208 5.346 23.688 15.464l4.662-1.142zM35.46 35.129c-.358 4.97-4.022 8.296-7.213 8.296v4.8c6.336 0 11.51-5.948 12-12.75l-4.787-.346zm-7.213 8.296c-3.193 0-6.86-3.326-7.212-8.293l-4.788.34c.482 6.81 5.667 12.753 12 12.753v-4.8zm-7.212-8.293c-.334-4.728 2.859-7.932 7.212-7.932v-4.8c-7.123 0-12.532 5.55-12 13.071l4.788-.339zm7.212-7.932c4.338 0 7.546 3.3 7.213 7.93l4.787.344c.533-7.395-4.86-13.074-12-13.074v4.8zM39.94 54.88c-3.672-1.682-7.64-2.293-11.694-2.293v4.8c3.585 0 6.823.542 9.695 1.857l1.999-4.363zm-11.694-2.293c-10.055 0-20.468 5.038-23.109 15.631l4.658 1.16c1.909-7.658 9.657-11.99 18.451-11.99v-4.8zM5.136 68.221c-.59 2.386.902 5.379 4.028 5.379v-4.8c.085 0 .2.023.316.086.112.06.19.14.24.212.095.14.084.246.076.278l-4.66-1.155zM9.165 73.6h20.351v-4.8H9.165v4.8z" fill="#444"></path>
  </symbol>
  <symbol fill="none" xmlns="http://www.w3.org/2000/svg" viewBox="0 0 60 61" id="profitable-icon">
    <path d="M55.39 15.15L28.048 46.4l-11.72-11.718m0 11.718L4.61 34.682M43.672 15.15l-8.3 9.522-8.302 9.521" stroke="#444" stroke-width="3.281" stroke-linecap="round" stroke-linejoin="round"></path>
  </symbol>
  <symbol fill="none" xmlns="http://www.w3.org/2000/svg" viewBox="0 0 60 61" id="reliable-icon">
    <path d="M28.25 10.775a1.75 1.75 0 103.5 0h-3.5zm3.5-5a1.75 1.75 0 10-3.5 0h3.5zm-3.5 50a1.75 1.75 0 103.5 0h-3.5zm3.5-5a1.75 1.75 0 10-3.5 0h3.5zm-1.75-38v-1.75 1.75zm18 18h1.75H48zm2-1.75a1.75 1.75 0 100 3.5v-3.5zm5 3.5a1.75 1.75 0 100-3.5v3.5zm-50-3.5a1.75 1.75 0 100 3.5v-3.5zm5 3.5a1.75 1.75 0 100-3.5v3.5zm21.75-21.75v-5h-3.5v5h3.5zm0 45v-5h-3.5v5h3.5zM30 11.025a19.75 19.75 0 00-10.973 3.329l1.945 2.91A16.25 16.25 0 0130 14.525v-3.5zm-10.973 3.329a19.75 19.75 0 00-7.274 8.863l3.234 1.34a16.25 16.25 0 015.985-7.293l-1.945-2.91zm-7.274 8.863a19.75 19.75 0 00-1.123 11.411l3.432-.682a16.25 16.25 0 01.925-9.39l-3.234-1.339zM10.63 34.628a19.75 19.75 0 005.405 10.113l2.474-2.475a16.25 16.25 0 01-4.447-8.32l-3.432.682zm5.405 10.113a19.75 19.75 0 0010.112 5.405l.683-3.433a16.25 16.25 0 01-8.32-4.447l-2.475 2.475zm10.112 5.405a19.75 19.75 0 0011.411-1.124l-1.34-3.234a16.25 16.25 0 01-9.388.925l-.683 3.433zm11.411-1.124a19.75 19.75 0 008.864-7.274l-2.91-1.945a16.25 16.25 0 01-7.293 5.985l1.339 3.234zm8.864-7.274a19.75 19.75 0 003.328-10.973h-3.5a16.25 16.25 0 01-2.739 9.028l2.91 1.945zm3.328-10.973a19.75 19.75 0 00-5.785-13.965l-2.475 2.475a16.25 16.25 0 014.76 11.49h3.5zM43.965 16.81A19.75 19.75 0 0030 11.025v3.5a16.25 16.25 0 0111.49 4.76l2.475-2.475zM50 32.525h5v-3.5h-5v3.5zm-45 0h5v-3.5H5v3.5z" fill="#444"></path>
  </symbol>
  <symbol fill="none" xmlns="http://www.w3.org/2000/svg" viewBox="0 0 96 96" id="security-icon">
    <path d="M61.943 39.583V22.981a13.981 13.981 0 00-27.962 0v16.602m-5.592 0h39.146a8.389 8.389 0 018.389 8.389V78.73a8.388 8.388 0 01-8.389 8.388H28.39A8.389 8.389 0 0120 78.73V47.972a8.389 8.389 0 018.389-8.389z" stroke="#fff" stroke-width="4.59" stroke-linecap="round" stroke-linejoin="round"></path>
  </symbol>
  <symbol fill="none" xmlns="http://www.w3.org/2000/svg" viewBox="0 0 96 96" id="stats-icon">
    <path d="M24.25 58h-5c-.69 0-1.25.56-1.25 1.25v22.5c0 .69.56 1.25 1.25 1.25h5c.69 0 1.25-.56 1.25-1.25v-22.5c0-.69-.56-1.25-1.25-1.25zm35-15h-5c-.69 0-1.25.56-1.25 1.25v37.5c0 .69.56 1.25 1.25 1.25h5c.69 0 1.25-.56 1.25-1.25v-37.5c0-.69-.56-1.25-1.25-1.25zm17.5-17.5h-5c-.69 0-1.25.56-1.25 1.25v55c0 .69.56 1.25 1.25 1.25h5c.69 0 1.25-.56 1.25-1.25v-55c0-.69-.56-1.25-1.25-1.25zm-35-12.5h-5c-.69 0-1.25.56-1.25 1.25v67.5c0 .69.56 1.25 1.25 1.25h5c.69 0 1.25-.56 1.25-1.25v-67.5c0-.69-.56-1.25-1.25-1.25z" stroke="#444" stroke-width="4" stroke-linecap="round" stroke-linejoin="round"></path>
  </symbol>
</svg>