<svg width="96" height="96" viewBox="0 0 96 96" fill="none" xmlns="http://www.w3.org/2000/svg">
<path d="M24.2504 57.9999H19.2505C18.5601 57.9999 18.0005 58.5595 18.0005 59.2499V81.7497C18.0005 82.44 18.5601 82.9997 19.2505 82.9997H24.2504C24.9408 82.9997 25.5004 82.44 25.5004 81.7497V59.2499C25.5004 58.5595 24.9408 57.9999 24.2504 57.9999Z" stroke="white" stroke-width="3.99996" stroke-linecap="round" stroke-linejoin="round"/>
<path d="M59.2501 43H54.2502C53.5598 43 53.0002 43.5597 53.0002 44.25V81.7497C53.0002 82.44 53.5598 82.9997 54.2502 82.9997H59.2501C59.9405 82.9997 60.5001 82.44 60.5001 81.7497V44.25C60.5001 43.5597 59.9405 43 59.2501 43Z" stroke="white" stroke-width="3.99996" stroke-linecap="round" stroke-linejoin="round"/>
<path d="M76.7499 25.5002H71.75C71.0596 25.5002 70.5 26.0598 70.5 26.7502V81.7497C70.5 82.44 71.0596 82.9997 71.75 82.9997H76.7499C77.4403 82.9997 77.9999 82.44 77.9999 81.7497V26.7502C77.9999 26.0598 77.4403 25.5002 76.7499 25.5002Z" stroke="white" stroke-width="3.99996" stroke-linecap="round" stroke-linejoin="round"/>
<path d="M41.7503 13.0003H36.7503C36.06 13.0003 35.5003 13.5599 35.5003 14.2503V81.7497C35.5003 82.44 36.06 82.9997 36.7503 82.9997H41.7503C42.4406 82.9997 43.0003 82.44 43.0003 81.7497V14.2503C43.0003 13.5599 42.4406 13.0003 41.7503 13.0003Z" stroke="white" stroke-width="3.99996" stroke-linecap="round" stroke-linejoin="round"/>
</svg>
