<svg width="61" height="61" viewBox="0 0 61 61" fill="none" xmlns="http://www.w3.org/2000/svg">
<circle cx="30.5" cy="30.5" r="30.5" fill="url(#paint0_linear)"/>
<path d="M41.8268 20.1409L19.1931 28.8688C17.6484 29.4893 17.6574 30.3509 18.9097 30.7352L24.7207 32.5479L38.1655 24.0651C38.8013 23.6783 39.3821 23.8864 38.9047 24.3102L28.0117 34.1411H28.0091L28.0117 34.1424L27.6108 40.1321C28.1981 40.1321 28.4572 39.8627 28.7866 39.5448L31.6091 36.8002L37.48 41.1367C38.5626 41.7329 39.34 41.4265 39.6094 40.1346L43.4633 21.9715C43.8578 20.3898 42.8595 19.6737 41.8268 20.1409Z" fill="black"/>
<defs>
<linearGradient id="paint0_linear" x1="-1.20284e-06" y1="44" x2="61" y2="25" gradientUnits="userSpaceOnUse">
<stop stop-color="#D3BB4C"/>
<stop offset="1" stop-color="#A26725"/>
</linearGradient>
</defs>
</svg>
