<svg width="61" height="61" viewBox="0 0 61 61" fill="none" xmlns="http://www.w3.org/2000/svg">
<circle cx="30.5" cy="30.5" r="30.5" fill="url(#paint0_linear)"/>
<path d="M40.5098 25.0782C40.5264 25.3016 40.5264 25.5237 40.5264 25.7459C40.5264 32.5436 35.3525 40.3767 25.8969 40.3767C22.9837 40.3767 20.2774 39.5329 18 38.0674C18.4136 38.1146 18.8119 38.1312 19.2421 38.1312C21.5565 38.1368 23.8054 37.3629 25.6263 35.9342C24.5532 35.9148 23.513 35.5608 22.6509 34.9215C21.7887 34.2823 21.1478 33.3899 20.8174 32.3687C21.1353 32.416 21.4544 32.4479 21.7889 32.4479C22.2497 32.4479 22.7131 32.3841 23.1433 32.273C21.9788 32.0379 20.9316 31.4066 20.1799 30.4867C19.4282 29.5667 19.0183 28.4147 19.02 27.2267V27.1629C19.7055 27.5446 20.5008 27.7833 21.3433 27.8152C20.6375 27.3462 20.0588 26.7097 19.6587 25.9626C19.2587 25.2155 19.0497 24.381 19.0506 23.5336C19.0506 22.5787 19.3047 21.703 19.7502 20.9396C21.0423 22.5289 22.6538 23.8292 24.4803 24.7561C26.3069 25.683 28.3078 26.2159 30.3534 26.3203C30.2743 25.9373 30.2258 25.5403 30.2258 25.142C30.2254 24.4667 30.3582 23.7979 30.6165 23.1739C30.8748 22.5499 31.2535 21.9829 31.7311 21.5053C32.2086 21.0278 32.7756 20.649 33.3996 20.3907C34.0236 20.1324 34.6924 19.9997 35.3678 20C36.8486 20 38.1852 20.6204 39.1248 21.6238C40.2759 21.4012 41.3799 20.9809 42.3877 20.3817C42.004 21.57 41.2002 22.5775 40.1269 23.2157C41.1479 23.0992 42.1457 22.8307 43.0872 22.4191C42.384 23.4443 41.5126 24.3433 40.5098 25.0782Z" fill="black"/>
<defs>
<linearGradient id="paint0_linear" x1="-1.20284e-06" y1="44" x2="61" y2="25" gradientUnits="userSpaceOnUse">
<stop stop-color="#D3BB4C"/>
<stop offset="1" stop-color="#A26725"/>
</linearGradient>
</defs>
</svg>
