<svg width="61" height="61" viewBox="0 0 61 61" fill="none" xmlns="http://www.w3.org/2000/svg">
<circle cx="30.5" cy="30.4995" r="30.5" fill="url(#paint0_linear)"/>
<path d="M40.5098 25.0777C40.5264 25.3011 40.5264 25.5233 40.5264 25.7454C40.5264 32.5431 35.3525 40.3762 25.8969 40.3762C22.9837 40.3762 20.2774 39.5324 18 38.0669C18.4136 38.1141 18.8119 38.1307 19.2421 38.1307C21.5565 38.1363 23.8054 37.3624 25.6263 35.9337C24.5532 35.9143 23.513 35.5603 22.6509 34.9211C21.7887 34.2818 21.1478 33.3894 20.8174 32.3682C21.1353 32.4155 21.4544 32.4474 21.7889 32.4474C22.2497 32.4474 22.7131 32.3836 23.1433 32.2725C21.9788 32.0374 20.9316 31.4062 20.1799 30.4862C19.4282 29.5662 19.0183 28.4142 19.02 27.2262V27.1624C19.7055 27.5441 20.5008 27.7828 21.3433 27.8147C20.6375 27.3457 20.0588 26.7092 19.6587 25.9621C19.2587 25.215 19.0497 24.3805 19.0506 23.5331C19.0506 22.5782 19.3047 21.7025 19.7502 20.9391C21.0423 22.5284 22.6538 23.8287 24.4803 24.7556C26.3069 25.6825 28.3078 26.2154 30.3534 26.3198C30.2743 25.9369 30.2258 25.5398 30.2258 25.1416C30.2254 24.4662 30.3582 23.7974 30.6165 23.1734C30.8748 22.5494 31.2535 21.9824 31.7311 21.5048C32.2086 21.0273 32.7756 20.6485 33.3996 20.3902C34.0236 20.132 34.6924 19.9992 35.3678 19.9995C36.8486 19.9995 38.1852 20.6199 39.1248 21.6233C40.2759 21.4007 41.3799 20.9805 42.3877 20.3812C42.004 21.5695 41.2002 22.577 40.1269 23.2152C41.1479 23.0988 42.1457 22.8303 43.0872 22.4186C42.384 23.4438 41.5126 24.3429 40.5098 25.0777Z" fill="black"/>
<defs>
<linearGradient id="paint0_linear" x1="61" y1="30.4995" x2="1.67176e-09" y2="30.4995" gradientUnits="userSpaceOnUse">
<stop stop-color="#D99913"/>
<stop offset="1" stop-color="#F7DC39"/>
</linearGradient>
</defs>
</svg>
