<svg width="84" height="79" viewBox="0 0 84 79" fill="none" xmlns="http://www.w3.org/2000/svg">
<path d="M62.9004 19.7164C62.2178 28.9226 55.2387 36.4328 47.577 36.4328C39.9154 36.4328 32.9241 28.9243 32.2537 19.7164C31.5572 10.1393 38.3482 3 47.577 3C56.8059 3 63.5969 10.3134 62.9004 19.7164Z" fill="#444444"/>
<path d="M47.577 47.577C32.4278 47.577 17.0522 55.9352 14.2069 71.7113C13.8587 73.6128 14.94 75.4377 16.9321 75.4377H78.2238C80.2158 75.4377 81.2919 73.6128 80.9489 71.7113C78.1019 55.9352 62.7263 47.577 47.577 47.577Z" fill="#444444"/>
<path d="M62.9004 19.7164L65.6788 19.9224L65.6789 19.9222L62.9004 19.7164ZM32.2537 19.7164L29.475 19.9185L29.475 19.9187L32.2537 19.7164ZM14.2069 71.7113L16.9474 72.2133L16.9488 72.2058L14.2069 71.7113ZM80.9489 71.7113L83.6907 71.2167L83.6907 71.2165L80.9489 71.7113ZM15.5373 25.2885C15.5373 23.7498 14.2899 22.5025 12.7512 22.5025C11.2125 22.5025 9.96516 23.7498 9.96516 25.2885H15.5373ZM9.96516 44.791C9.96516 46.3297 11.2125 47.577 12.7512 47.577C14.2899 47.577 15.5373 46.3297 15.5373 44.791H9.96516ZM22.5025 37.8258C24.0412 37.8258 25.2885 36.5785 25.2885 35.0398C25.2885 33.5011 24.0412 32.2537 22.5025 32.2537V37.8258ZM3 32.2537C1.4613 32.2537 0.213935 33.5011 0.213935 35.0398C0.213935 36.5785 1.4613 37.8258 3 37.8258V32.2537ZM60.122 19.5104C59.5167 27.6741 53.4 33.6467 47.577 33.6467V39.2188C57.0775 39.2188 64.919 30.1711 65.6788 19.9224L60.122 19.5104ZM47.577 33.6467C41.7513 33.6467 35.6264 27.6729 35.0324 19.5141L29.475 19.9187C30.2218 30.1757 38.0795 39.2188 47.577 39.2188V33.6467ZM35.0324 19.5143C34.4527 11.5427 39.975 5.78607 47.577 5.78607V0.213935C36.7214 0.213935 28.6617 8.73584 29.475 19.9185L35.0324 19.5143ZM47.577 5.78607C55.1615 5.78607 60.7006 11.6983 60.122 19.5106L65.6789 19.9222C66.4932 8.92852 58.4503 0.213935 47.577 0.213935V5.78607ZM47.577 44.791C31.6368 44.791 14.6364 53.6328 11.4651 71.2168L16.9488 72.2058C19.468 58.2377 33.2188 50.3631 47.577 50.3631V44.791ZM11.4665 71.2094C11.1759 72.7958 11.4541 74.4923 12.3941 75.8632C13.3762 77.2954 14.9942 78.2238 16.9321 78.2238V72.6516C16.8698 72.6516 16.8824 72.6402 16.9291 72.6652C16.9721 72.6881 16.9908 72.7136 16.9897 72.712C16.9859 72.7065 16.9598 72.6648 16.9425 72.5744C16.9255 72.4849 16.9203 72.3614 16.9474 72.2133L11.4665 71.2094ZM16.9321 78.2238H78.2238V72.6516H16.9321V78.2238ZM78.2238 78.2238C80.1628 78.2238 81.7798 77.2943 82.7607 75.8617C83.6988 74.4917 83.976 72.7984 83.6907 71.2167L78.2071 72.206C78.2342 72.3562 78.2288 72.4816 78.2114 72.5729C78.1938 72.6651 78.1672 72.7077 78.1632 72.7135C78.162 72.7152 78.181 72.6892 78.2249 72.6658C78.2725 72.6403 78.286 72.6516 78.2238 72.6516V78.2238ZM83.6907 71.2165C80.5174 53.6329 63.5174 44.791 47.577 44.791V50.3631C61.9351 50.3631 75.6863 58.2376 78.2071 72.2061L83.6907 71.2165ZM9.96516 25.2885V44.791H15.5373V25.2885H9.96516ZM22.5025 32.2537H3V37.8258H22.5025V32.2537Z" fill="#444444"/>
</svg>
