<svg width="24" height="24" viewBox="0 0 24 24" fill="none" xmlns="http://www.w3.org/2000/svg">
<path d="M15.4454 4.19743H4.28831C3.24141 4.19743 2.39111 5.04773 2.39111 6.09463V22.1028C2.39111 23.1497 3.24141 24 4.28831 24H15.4454C16.4923 24 17.3426 23.1497 17.3426 22.1028V6.09463C17.3377 5.04773 16.4874 4.19743 15.4454 4.19743ZM16.0106 22.0979C16.0106 22.4125 15.755 22.668 15.4405 22.668H4.28339C3.96883 22.668 3.71325 22.4125 3.71325 22.0979V6.09463C3.71325 5.78007 3.96883 5.52449 4.28339 5.52449H15.4405C15.755 5.52449 16.0106 5.78007 16.0106 6.09463V22.0979Z" fill="#444444"/>
<path d="M19.7116 0H8.55454C7.50765 0 6.65735 0.850297 6.65735 1.89719C6.65735 2.26582 6.95225 2.56072 7.32088 2.56072C7.6895 2.56072 7.9844 2.26582 7.9844 1.89719C7.9844 1.58263 8.23998 1.32705 8.55454 1.32705H19.7116C20.0262 1.32705 20.2818 1.58263 20.2818 1.89719V17.9054C20.2818 18.2199 20.0262 18.4755 19.7116 18.4755C19.343 18.4755 19.0481 18.7704 19.0481 19.1391C19.0481 19.5077 19.343 19.8026 19.7116 19.8026C20.7585 19.8026 21.6088 18.9523 21.6088 17.9054V1.89719C21.6088 0.850297 20.7585 0 19.7116 0Z" fill="#444444"/>
</svg>
