<svg width="60" height="60" viewBox="0 0 60 60" fill="none" xmlns="http://www.w3.org/2000/svg">
<path d="M50.6244 10.5469C50.6244 9.89977 50.0997 9.375 49.4525 9.375C48.8053 9.375 48.2806 9.89977 48.2806 10.5469V11.8791C46.9283 12.3701 45.9568 13.6699 45.9568 15.1852C45.9568 17.1237 47.5339 18.7008 49.4724 18.7008C50.1186 18.7008 50.6443 19.2265 50.6443 19.8727C50.6443 20.5218 50.1184 21.0446 49.4741 21.0446C49.4706 21.0446 49.4669 21.0446 49.4633 21.0445C48.956 21.04 48.4333 20.7339 47.9518 20.1593C47.536 19.6631 46.7969 19.5981 46.3009 20.0141C45.8049 20.4299 45.7399 21.1689 46.1557 21.6649C46.7752 22.404 47.5054 22.9215 48.2807 23.1859V24.6094C48.2807 25.2565 48.8054 25.7812 49.4526 25.7812C50.0998 25.7812 50.6245 25.2565 50.6245 24.6094V23.196C51.974 22.7293 52.9882 21.439 52.9882 19.8727C52.9882 17.9341 51.4111 16.357 49.4725 16.357C48.8264 16.357 48.3007 15.8313 48.3007 15.1852C48.3007 14.5441 48.8217 14.0186 49.4608 14.0133C49.8754 14.0122 50.3229 14.2221 50.74 14.6257C51.2052 15.0758 51.947 15.0639 52.3972 14.5986C52.8473 14.1335 52.8351 13.3917 52.3701 12.9416C51.7689 12.3598 51.1667 12.0326 50.6246 11.8561V10.5469H50.6244Z" fill="#D99913"/>
<path d="M55.2074 1.65703C55.3724 1.29422 55.3417 0.872695 55.1259 0.537539C54.9102 0.202383 54.5391 0 54.1406 0H44.7656C44.3672 0 43.9961 0.2025 43.7803 0.537539C43.5646 0.872578 43.5339 1.29422 43.6989 1.65703L45.4972 5.61176C42.1629 9.14449 38.9062 15.2118 38.9062 19.9219V22.2656C38.9062 27.4788 42.7505 30.4688 49.4531 30.4688C56.1558 30.4688 60 27.4788 60 22.2656V19.9219C60 15.2118 56.7434 9.14449 53.409 5.61164L55.2074 1.65703ZM52.3204 2.34375L51.2545 4.6875H47.6517L46.5859 2.34375H52.3204ZM57.6562 19.9219V22.2656C57.6562 26.7437 53.9268 28.125 49.4531 28.125C44.9779 28.125 41.25 26.7428 41.25 22.2656V19.9219C41.25 15.7682 44.3712 10.1229 47.3815 7.03125H51.5246C54.5351 10.1229 57.6562 15.7682 57.6562 19.9219Z" fill="#D99913"/>
<path d="M34.7077 31.1227C34.0615 31.1227 33.5358 30.597 33.5358 29.9508C33.5358 29.3098 34.0568 28.7842 34.6959 28.7789C34.6988 28.7789 34.7017 28.7788 34.7046 28.7788C35.1219 28.7788 35.561 28.9905 35.9752 29.3913C36.4403 29.8416 37.1821 29.8294 37.6323 29.3643C38.0824 28.8991 38.0702 28.1573 37.6052 27.7072C37.0041 27.1254 36.4018 26.7982 35.8597 26.6217V25.3125C35.8597 24.6654 35.3351 24.1406 34.6879 24.1406C34.0406 24.1406 33.516 24.6654 33.516 25.3125V26.6447C32.1636 27.1357 31.1922 28.4355 31.1922 29.9508C31.1922 31.8893 32.7693 33.4664 34.7078 33.4664C35.3539 33.4664 35.8797 33.9921 35.8797 34.6383C35.8797 35.2874 35.3537 35.8103 34.7094 35.8103C34.7059 35.8103 34.7023 35.8103 34.6986 35.8102C34.1913 35.8056 33.6687 35.4995 33.1872 34.9249C32.7714 34.4289 32.0322 34.3637 31.5362 34.7797C31.0403 35.1955 30.9752 35.9345 31.391 36.4305C32.0106 37.1696 32.7408 37.6871 33.5161 37.9515V39.375C33.5161 40.0221 34.0407 40.5469 34.688 40.5469C35.3352 40.5469 35.8598 40.0221 35.8598 39.375V37.9616C37.2094 37.495 38.2235 36.2046 38.2235 34.6383C38.2233 32.6998 36.6462 31.1227 34.7077 31.1227Z" fill="#D99913"/>
<path d="M20.6352 38.1539C20.1279 38.1493 19.6052 37.8432 19.1237 37.2687C18.7079 36.7725 17.9688 36.7076 17.4727 37.1235C16.9768 37.5393 16.9118 38.2782 17.3275 38.7743C17.9471 39.5134 18.6773 40.0309 19.4526 40.2953V41.7188C19.4526 42.3659 19.9773 42.8906 20.6245 42.8906C21.2717 42.8906 21.7964 42.3659 21.7964 41.7188V40.3054C23.1459 39.8387 24.16 38.5484 24.16 36.982C24.16 35.0435 22.5829 33.4664 20.6444 33.4664C19.9982 33.4664 19.4725 32.9407 19.4725 32.2945C19.4725 31.6535 19.9936 31.1279 20.6327 31.1227C20.6355 31.1227 20.6384 31.1225 20.6414 31.1225C21.0587 31.1225 21.4978 31.3343 21.9119 31.7351C22.377 32.1853 23.1188 32.1731 23.5691 31.708C24.0192 31.2429 24.007 30.5011 23.542 30.051C22.9408 29.4691 22.3386 29.142 21.7965 28.9655V27.6562C21.7965 27.0091 21.2718 26.4844 20.6246 26.4844C19.9774 26.4844 19.4527 27.0091 19.4527 27.6562V28.9884C18.1004 29.4795 17.1289 30.7793 17.1289 32.2945C17.1289 34.233 18.706 35.8102 20.6445 35.8102C21.2907 35.8102 21.8164 36.3359 21.8164 36.982C21.8162 37.6317 21.2834 38.1642 20.6352 38.1539Z" fill="#D99913"/>
<path d="M3.26502 43.4618C3.88459 44.2009 4.61479 44.7184 5.3901 44.9828V46.4062C5.3901 47.0534 5.91475 47.5781 6.56198 47.5781C7.2092 47.5781 7.73385 47.0534 7.73385 46.4062V44.9929C9.08338 44.5262 10.0975 43.2359 10.0975 41.6695C10.0975 39.731 8.52041 38.1539 6.5819 38.1539C5.93573 38.1539 5.41002 37.6282 5.41002 36.982C5.41002 36.341 5.93104 35.8154 6.57018 35.8102C6.57299 35.8102 6.57592 35.81 6.57885 35.81C6.99616 35.81 7.43526 36.0218 7.8494 36.4226C8.31452 36.8728 9.05631 36.8606 9.50655 36.3955C9.95666 35.9304 9.94448 35.1886 9.47948 34.7385C8.8783 34.1566 8.27608 33.8295 7.73397 33.653V32.3438C7.73397 31.6966 7.20932 31.1719 6.56209 31.1719C5.91487 31.1719 5.39022 31.6966 5.39022 32.3438V33.6759C4.03787 34.167 3.06639 35.4668 3.06639 36.982C3.06639 38.9205 4.6435 40.4977 6.58202 40.4977C7.22819 40.4977 7.75389 41.0234 7.75389 41.6695C7.75389 42.3186 7.22795 42.8415 6.58366 42.8415C6.58014 42.8415 6.57651 42.8415 6.57287 42.8414C6.06557 42.8368 5.54291 42.5307 5.06139 41.9562C4.64561 41.46 3.90651 41.395 3.41045 41.811C2.91428 42.2268 2.84924 42.9659 3.26502 43.4618Z" fill="#D99913"/>
<path d="M40.8984 58.8281V44.0625C40.8984 43.4154 40.3738 42.8906 39.7266 42.8906H30C29.3528 42.8906 28.8281 43.4154 28.8281 44.0625V58.8281C28.8281 59.4752 29.3528 60 30 60H39.7266C40.3738 60 40.8984 59.4752 40.8984 58.8281ZM38.5547 57.6562H31.1719V45.2344H38.5547V57.6562Z" fill="#D99913"/>
<path d="M14.4141 46.4062V58.8281C14.4141 59.4752 14.9387 60 15.5859 60H25.3125C25.9597 60 26.4844 59.4752 26.4844 58.8281V46.4062C26.4844 45.7591 25.9597 45.2344 25.3125 45.2344H15.5859C14.9387 45.2344 14.4141 45.7591 14.4141 46.4062ZM16.7578 47.5781H24.1406V57.6562H16.7578V47.5781Z" fill="#D99913"/>
<path d="M1.17188 60H10.8984C11.5457 60 12.0703 59.4752 12.0703 58.8281V51.0938C12.0703 50.4466 11.5457 49.9219 10.8984 49.9219H1.17188C0.524648 49.9219 0 50.4466 0 51.0938V58.8281C0 59.4752 0.524648 60 1.17188 60ZM2.34375 52.2656H9.72656V57.6562H2.34375V52.2656Z" fill="#D99913"/>
<path d="M4.13071 24.1439C3.48536 24.1925 3.00161 24.7553 3.05024 25.4006C3.09665 26.016 3.6104 26.4844 4.21755 26.4844C4.24708 26.4844 4.27696 26.4833 4.30696 26.4811C17.7371 25.4685 26.6798 19.3001 35.8595 9.55195V11.25C35.8595 11.8971 36.3841 12.4219 37.0313 12.4219C37.6786 12.4219 38.2032 11.8971 38.2032 11.25V6.5625C38.2032 5.91539 37.6786 5.39062 37.0313 5.39062H32.3438C31.6966 5.39062 31.172 5.91539 31.172 6.5625C31.172 7.20961 31.6966 7.7332 32.3438 7.7332H34.3502C26.6318 15.9496 18.194 23.0836 4.13071 24.1439Z" fill="#D99913"/>
<path d="M54.1406 47.5781C54.7878 47.5781 55.3125 47.0535 55.3125 46.4062C55.3125 45.759 54.7878 45.2344 54.1406 45.2344C53.4934 45.2344 52.9688 45.759 52.9688 46.4062C52.9688 47.0535 53.4934 47.5781 54.1406 47.5781Z" fill="#D99913"/>
<path d="M55.3125 34.6875C55.3125 34.0404 54.7879 33.5156 54.1406 33.5156H44.4141C43.7668 33.5156 43.2422 34.0404 43.2422 34.6875V58.8281C43.2422 59.4752 43.7668 60 44.4141 60H54.1406C54.7879 60 55.3125 59.4752 55.3125 58.8281V51.6798C55.3125 51.0327 54.7879 50.5079 54.1406 50.5079C53.4934 50.5079 52.9688 51.0327 52.9688 51.6798V57.6562H45.5859V35.8594H52.9688V41.1328C52.9688 41.7799 53.4934 42.3047 54.1406 42.3047C54.7879 42.3047 55.3125 41.7799 55.3125 41.1328V34.6875Z" fill="#D99913"/>
</svg>
