<svg width="24" height="24" viewBox="0 0 24 24" fill="none" xmlns="http://www.w3.org/2000/svg">
<path d="M12.136 2.25091C6.65255 2.17684 2.17599 6.65341 2.25005 12.1368C2.32318 17.3958 6.60521 21.6778 11.8641 21.7509C17.3485 21.8259 21.8241 17.3493 21.7491 11.8659C21.6769 6.60606 17.3949 2.32403 12.136 2.25091ZM18.0619 17.5907C18.0433 17.6109 18.0204 17.6268 17.9949 17.6371C17.9694 17.6475 17.942 17.6521 17.9145 17.6507C17.887 17.6493 17.8602 17.6418 17.836 17.6289C17.8117 17.6159 17.7906 17.5978 17.7741 17.5757C17.3548 17.0272 16.8414 16.5575 16.2577 16.1887C15.0643 15.4228 13.5521 15.0009 12.0001 15.0009C10.448 15.0009 8.93583 15.4228 7.74239 16.1887C7.15874 16.5574 6.64528 17.0269 6.22599 17.5753C6.20952 17.5973 6.1884 17.6154 6.16414 17.6284C6.13988 17.6413 6.11306 17.6488 6.0856 17.6502C6.05813 17.6517 6.03069 17.647 6.00521 17.6367C5.97973 17.6263 5.95685 17.6105 5.93818 17.5903C4.56271 16.1055 3.78356 14.1653 3.75005 12.1415C3.67365 7.58012 7.41661 3.76216 11.9799 3.75091C16.5432 3.73966 20.2501 7.44512 20.2501 12.0009C20.2516 14.0734 19.4701 16.07 18.0619 17.5907Z" fill="#444444"/>
<path d="M12 6.75C11.0756 6.75 10.2398 7.09641 9.6459 7.72594C9.05199 8.35547 8.75527 9.22594 8.82231 10.1602C8.95824 12 10.3837 13.5 12 13.5C13.6162 13.5 15.0389 12 15.1776 10.1606C15.247 9.23531 14.9526 8.37281 14.3489 7.73156C13.7526 7.09875 12.9182 6.75 12 6.75Z" fill="#444444"/>
</svg>
