<svg width="24" height="24" viewBox="0 0 24 24" fill="none" xmlns="http://www.w3.org/2000/svg">
<path d="M20.3813 6.45234L13.3801 3.26016C12.6212 2.91328 11.379 2.91328 10.6201 3.26016L3.62351 6.45234C2.79851 6.82734 2.79851 7.44094 3.62351 7.81594L10.561 10.98C11.3527 11.3409 12.6559 11.3409 13.4476 10.98L20.3851 7.81594C21.2063 7.44094 21.2063 6.82687 20.3813 6.45234Z" stroke="#444444" stroke-width="2" stroke-linecap="round" stroke-linejoin="round"/>
<path d="M7.50007 14.4622L3.62351 16.2017C2.79851 16.5767 2.79851 17.1908 3.62351 17.5658L10.561 20.7298C11.3527 21.0903 12.6559 21.0903 13.4476 20.7298L20.3851 17.5658C21.2101 17.1908 21.2101 16.5767 20.3851 16.2017L16.6379 14.3984" stroke="#444444" stroke-width="2" stroke-linecap="round" stroke-linejoin="round"/>
<path d="M7.5 9.58594L3.61875 11.3278C2.79375 11.7028 2.79375 12.3169 3.61875 12.6919L10.5562 15.8555C11.348 16.2164 12.6511 16.2164 13.4428 15.8555L20.3803 12.6919C21.21 12.3169 21.21 11.7028 20.385 11.3278L16.5 9.58594" stroke="#444444" stroke-width="2" stroke-linecap="round" stroke-linejoin="round"/>
</svg>
