<svg width="96" height="96" viewBox="0 0 96 96" fill="none" xmlns="http://www.w3.org/2000/svg">
<path d="M74.4652 32.05L72.0714 31.8771L72.0714 31.8775L74.4652 32.05ZM50.5402 32.05L52.9342 31.8805L52.9341 31.8803L50.5402 32.05ZM36.486 73.9931L38.8147 74.5738L38.8149 74.5731L36.486 73.9931ZM88.5211 73.9931L86.1901 74.5644L86.1905 74.5659L88.5211 73.9931ZM37.8527 35.3016L35.4589 35.1291L35.4589 35.1292L37.8527 35.3016ZM18.6402 35.3016L16.2461 35.471L16.2461 35.4711L18.6402 35.3016ZM37.9405 59.2444C39.1455 59.7965 40.5699 59.2672 41.122 58.0622C41.6742 56.8572 41.1449 55.4327 39.9398 54.8806L37.9405 59.2444ZM7.46609 68.7984L5.13734 68.218L5.13652 68.2213L7.46609 68.7984ZM29.5152 73.6C30.8406 73.6 31.9152 72.5255 31.9152 71.2C31.9152 69.8745 30.8406 68.8 29.5152 68.8V73.6ZM72.0714 31.8775C71.6073 38.3187 66.9056 42.7 62.5027 42.7V47.5C70.026 47.5 76.2609 40.5242 76.859 32.2225L72.0714 31.8775ZM62.5027 42.7C58.0973 42.7 53.3899 38.318 52.9342 31.8805L48.1461 32.2195C48.7344 40.5285 54.9817 47.5 62.5027 47.5V42.7ZM52.9341 31.8803C52.7057 28.6583 53.7075 26.0685 55.3745 24.291C57.0475 22.5071 59.5231 21.4 62.5027 21.4V16.6C58.2993 16.6 54.5217 18.1836 51.8733 21.0075C49.2188 23.8378 47.8309 27.773 48.1462 32.2197L52.9341 31.8803ZM62.5027 21.4C68.2931 21.4 72.5147 25.739 72.0714 31.8771L76.8589 32.2229C77.5031 23.3028 71.0781 16.6 62.5027 16.6V21.4ZM62.5027 54.3C50.0593 54.3 37.3681 60.5202 34.1572 73.4131L38.8149 74.5731C41.2952 64.6139 51.3218 59.1 62.5027 59.1V54.3ZM34.1574 73.4123C33.4856 76.1056 35.1701 79.4 38.6103 79.4V74.6C38.6097 74.6 38.6223 74.6001 38.6444 74.6057C38.6664 74.6112 38.6912 74.6205 38.716 74.634C38.7674 74.6619 38.7957 74.6945 38.8067 74.7106C38.825 74.7375 38.7847 74.694 38.8147 74.5738L34.1574 73.4123ZM38.6103 79.4H86.3968V74.6H38.6103V79.4ZM86.3968 79.4C89.8453 79.4 91.5101 76.0986 90.8517 73.4202L86.1905 74.5659C86.2212 74.691 86.1796 74.7382 86.1972 74.7123C86.2081 74.6963 86.2367 74.6632 86.2891 74.6347C86.3144 74.6209 86.3396 74.6114 86.362 74.6058C86.3845 74.6001 86.3974 74.6 86.3968 74.6V79.4ZM90.8521 73.4217C87.6411 60.3223 74.9255 54.3 62.5027 54.3V59.1C73.7076 59.1 83.7098 64.4457 86.1901 74.5644L90.8521 73.4217ZM35.4589 35.1292C35.1007 40.0999 31.4375 43.425 28.2464 43.425V48.225C34.5818 48.225 39.7563 42.2774 40.2464 35.4741L35.4589 35.1292ZM28.2464 43.425C25.0529 43.425 21.3858 40.0992 21.0342 35.1322L16.2461 35.4711C16.7283 42.2817 21.9134 48.225 28.2464 48.225V43.425ZM21.0342 35.1323C20.6997 30.4039 23.8928 27.2 28.2464 27.2V22.4C21.1232 22.4 15.7142 27.9505 16.2461 35.471L21.0342 35.1323ZM28.2464 27.2C32.5842 27.2 35.7924 30.4997 35.4589 35.1291L40.2464 35.4741C40.7793 28.0794 35.3853 22.4 28.2464 22.4V27.2ZM39.9398 54.8806C36.2678 53.1982 32.3 52.5872 28.2464 52.5872V57.3872C31.8306 57.3872 35.0694 57.9289 37.9405 59.2444L39.9398 54.8806ZM28.2464 52.5872C18.1906 52.5872 7.77765 57.6252 5.13734 68.218L9.79484 69.3789C11.7039 61.7198 19.4522 57.3872 28.2464 57.3872V52.5872ZM5.13652 68.2213C4.54536 70.6074 6.03781 73.6 9.1644 73.6V68.8C9.24894 68.8 9.36393 68.8227 9.48018 68.8859C9.59206 68.9467 9.67076 69.0261 9.72008 69.0983C9.81486 69.2371 9.80356 69.3437 9.79566 69.3756L5.13652 68.2213ZM9.1644 73.6H29.5152V68.8H9.1644V73.6Z" fill="#444444"/>
</svg>
