<svg width="96" height="96" viewBox="0 0 96 96" fill="none" xmlns="http://www.w3.org/2000/svg">
<path d="M74.4647 32.05L72.0709 31.8771L72.0709 31.8775L74.4647 32.05ZM50.5397 32.05L52.9337 31.8805L52.9337 31.8803L50.5397 32.05ZM36.4855 73.9931L38.8142 74.5738L38.8144 74.5731L36.4855 73.9931ZM88.5206 73.9931L86.1896 74.5644L86.19 74.5659L88.5206 73.9931ZM37.8522 35.3016L35.4584 35.1291L35.4584 35.1292L37.8522 35.3016ZM18.6397 35.3016L16.2456 35.471L16.2457 35.4711L18.6397 35.3016ZM37.94 59.2444C39.145 59.7965 40.5694 59.2672 41.1216 58.0622C41.6737 56.8572 41.1444 55.4327 39.9393 54.8806L37.94 59.2444ZM7.4656 68.7984L5.13685 68.218L5.13603 68.2213L7.4656 68.7984ZM29.5147 73.6C30.8401 73.6 31.9147 72.5255 31.9147 71.2C31.9147 69.8745 30.8401 68.8 29.5147 68.8V73.6ZM72.0709 31.8775C71.6068 38.3187 66.9051 42.7 62.5022 42.7V47.5C70.0255 47.5 76.2604 40.5242 76.8585 32.2225L72.0709 31.8775ZM62.5022 42.7C58.0968 42.7 53.3894 38.318 52.9337 31.8805L48.1457 32.2195C48.7339 40.5285 54.9813 47.5 62.5022 47.5V42.7ZM52.9337 31.8803C52.7052 28.6583 53.707 26.0685 55.374 24.291C57.0471 22.5071 59.5226 21.4 62.5022 21.4V16.6C58.2988 16.6 54.5212 18.1836 51.8728 21.0075C49.2184 23.8378 47.8304 27.773 48.1457 32.2197L52.9337 31.8803ZM62.5022 21.4C68.2926 21.4 72.5142 25.739 72.0709 31.8771L76.8584 32.2229C77.5026 23.3028 71.0776 16.6 62.5022 16.6V21.4ZM62.5022 54.3C50.0589 54.3 37.3676 60.5202 34.1567 73.4131L38.8144 74.5731C41.2947 64.6139 51.3214 59.1 62.5022 59.1V54.3ZM34.1569 73.4123C33.4852 76.1056 35.1696 79.4 38.6098 79.4V74.6C38.6093 74.6 38.6218 74.6001 38.6439 74.6057C38.666 74.6112 38.6907 74.6205 38.7156 74.634C38.7669 74.6619 38.7952 74.6945 38.8062 74.7106C38.8246 74.7375 38.7842 74.694 38.8142 74.5738L34.1569 73.4123ZM38.6098 79.4H86.3964V74.6H38.6098V79.4ZM86.3964 79.4C89.8448 79.4 91.5096 76.0986 90.8512 73.4202L86.19 74.5659C86.2207 74.691 86.1791 74.7382 86.1968 74.7123C86.2076 74.6963 86.2362 74.6632 86.2886 74.6347C86.3139 74.6209 86.3391 74.6114 86.3615 74.6058C86.3841 74.6001 86.3969 74.6 86.3964 74.6V79.4ZM90.8516 73.4217C87.6407 60.3223 74.925 54.3 62.5022 54.3V59.1C73.7071 59.1 83.7093 64.4457 86.1896 74.5644L90.8516 73.4217ZM35.4584 35.1292C35.1003 40.0999 31.437 43.425 28.2459 43.425V48.225C34.5813 48.225 39.7558 42.2774 40.246 35.4741L35.4584 35.1292ZM28.2459 43.425C25.0524 43.425 21.3853 40.0992 21.0337 35.1322L16.2457 35.4711C16.7278 42.2817 21.9129 48.225 28.2459 48.225V43.425ZM21.0337 35.1323C20.6992 30.4039 23.8923 27.2 28.2459 27.2V22.4C21.1228 22.4 15.7137 27.9505 16.2456 35.471L21.0337 35.1323ZM28.2459 27.2C32.5837 27.2 35.7919 30.4997 35.4584 35.1291L40.246 35.4741C40.7788 28.0794 35.3849 22.4 28.2459 22.4V27.2ZM39.9393 54.8806C36.2673 53.1982 32.2996 52.5872 28.2459 52.5872V57.3872C31.8301 57.3872 35.0689 57.9289 37.94 59.2444L39.9393 54.8806ZM28.2459 52.5872C18.1901 52.5872 7.77716 57.6252 5.13685 68.218L9.79435 69.3789C11.7034 61.7198 19.4517 57.3872 28.2459 57.3872V52.5872ZM5.13603 68.2213C4.54487 70.6074 6.03732 73.6 9.16391 73.6V68.8C9.24845 68.8 9.36344 68.8227 9.4797 68.8859C9.59157 68.9467 9.67027 69.0261 9.71959 69.0983C9.81437 69.2371 9.80307 69.3437 9.79517 69.3756L5.13603 68.2213ZM9.16391 73.6H29.5147V68.8H9.16391V73.6Z" fill="white"/>
</svg>
