<svg width="96" height="96" viewBox="0 0 96 96" fill="none" xmlns="http://www.w3.org/2000/svg">
<path d="M24.2509 57.9999H19.251C18.5606 57.9999 18.001 58.5595 18.001 59.2499V81.7497C18.001 82.44 18.5606 82.9997 19.251 82.9997H24.2509C24.9413 82.9997 25.5009 82.44 25.5009 81.7497V59.2499C25.5009 58.5595 24.9413 57.9999 24.2509 57.9999Z" stroke="white" stroke-width="3.99996" stroke-linecap="round" stroke-linejoin="round"/>
<path d="M59.2506 43H54.2506C53.5603 43 53.0007 43.5597 53.0007 44.25V81.7497C53.0007 82.44 53.5603 82.9997 54.2506 82.9997H59.2506C59.9409 82.9997 60.5006 82.44 60.5006 81.7497V44.25C60.5006 43.5597 59.9409 43 59.2506 43Z" stroke="white" stroke-width="3.99996" stroke-linecap="round" stroke-linejoin="round"/>
<path d="M76.7504 25.5002H71.7505C71.0601 25.5002 70.5005 26.0598 70.5005 26.7502V81.7497C70.5005 82.44 71.0601 82.9997 71.7505 82.9997H76.7504C77.4408 82.9997 78.0004 82.44 78.0004 81.7497V26.7502C78.0004 26.0598 77.4408 25.5002 76.7504 25.5002Z" stroke="white" stroke-width="3.99996" stroke-linecap="round" stroke-linejoin="round"/>
<path d="M41.7508 13.0003H36.7508C36.0605 13.0003 35.5008 13.5599 35.5008 14.2503V81.7497C35.5008 82.44 36.0605 82.9997 36.7508 82.9997H41.7508C42.4411 82.9997 43.0007 82.44 43.0007 81.7497V14.2503C43.0007 13.5599 42.4411 13.0003 41.7508 13.0003Z" stroke="white" stroke-width="3.99996" stroke-linecap="round" stroke-linejoin="round"/>
</svg>
