<svg xmlns="http://www.w3.org/2000/svg" xmlns:xlink="http://www.w3.org/1999/xlink" viewBox="0 0 600 450"><defs><linearGradient id="Áåçûìÿííûé_ãðàäèåíò_9" x1="217.87" y1="244.81" x2="277.24" y2="244.81" gradientUnits="userSpaceOnUse"><stop offset="0" stop-color="#b56b00"/><stop offset=".23" stop-color="#b56b00"/><stop offset=".51" stop-color="#f7dc39"/><stop offset=".78" stop-color="#f7dc39"/><stop offset="1" stop-color="#f7dc39"/></linearGradient><linearGradient id="Áåçûìÿííûé_ãðàäèåíò_4" x1="-35.29" y1="237.42" x2="23.75" y2="237.42" gradientTransform="translate(253.32)" gradientUnits="userSpaceOnUse"><stop offset="0" stop-color="#4c4c4c"/><stop offset=".07" stop-color="#403e41"/><stop offset=".18" stop-color="#322e35"/><stop offset=".31" stop-color="#2a252d"/><stop offset=".48" stop-color="#27222b"/><stop offset=".58" stop-color="#433427"/><stop offset=".78" stop-color="#8a641e"/><stop offset="1" stop-color="#d99913"/></linearGradient><linearGradient id="Áåçûìÿííûé_ãðàäèåíò_2" x1="290.93" y1="1046.56" x2="339.14" y2="1046.56" gradientTransform="matrix(.87 .5 -.87 .5 881.06 -453.03)" gradientUnits="userSpaceOnUse"><stop offset="0" stop-color="#464047"/><stop offset=".13" stop-color="#4f4544"/><stop offset=".33" stop-color="#66533c"/><stop offset=".58" stop-color="#8c6a2e"/><stop offset=".87" stop-color="#c08a1c"/><stop offset="1" stop-color="#d99913"/></linearGradient><linearGradient id="Áåçûìÿííûé_ãðàäèåíò_4-2" x1="-35.29" y1="216.66" x2="23.75" y2="216.66" xlink:href="#Áåçûìÿííûé_ãðàäèåíò_4"/><linearGradient id="Áåçûìÿííûé_ãðàäèåíò_2-2" x1="270.16" y1="1025.8" x2="318.37" y2="1025.8" xlink:href="#Áåçûìÿííûé_ãðàäèåíò_2"/><linearGradient id="Áåçûìÿííûé_ãðàäèåíò_4-3" x1="-35.29" y1="195.89" x2="23.75" y2="195.89" xlink:href="#Áåçûìÿííûé_ãðàäèåíò_4"/><linearGradient id="Áåçûìÿííûé_ãðàäèåíò_2-3" x1="249.4" y1="1005.03" x2="297.61" y2="1005.03" xlink:href="#Áåçûìÿííûé_ãðàäèåíò_2"/><linearGradient id="Áåçûìÿííûé_ãðàäèåíò_4-4" x1="-35.29" y1="175.13" x2="23.75" y2="175.13" xlink:href="#Áåçûìÿííûé_ãðàäèåíò_4"/><linearGradient id="Áåçûìÿííûé_ãðàäèåíò_2-4" x1="228.63" y1="984.26" x2="276.84" y2="984.26" xlink:href="#Áåçûìÿííûé_ãðàäèåíò_2"/><linearGradient id="Áåçûìÿííûé_ãðàäèåíò_4-5" x1="-35.29" y1="154.36" x2="23.75" y2="154.36" xlink:href="#Áåçûìÿííûé_ãðàäèåíò_4"/><linearGradient id="Áåçûìÿííûé_ãðàäèåíò_2-5" x1="207.87" y1="963.5" x2="256.08" y2="963.5" xlink:href="#Áåçûìÿííûé_ãðàäèåíò_2"/><linearGradient id="Áåçûìÿííûé_ãðàäèåíò_2-6" x1="148.47" y1="249.4" x2="644.01" y2="249.4" xlink:href="#Áåçûìÿííûé_ãðàäèåíò_2"/><linearGradient id="Áåçûìÿííûé_ãðàäèåíò_2-7" x1="-1170.8" y1="1040.25" x2="-1035.13" y2="1040.25" gradientTransform="matrix(.87 .5 -1 .58 2383.64 192.27)" xlink:href="#Áåçûìÿííûé_ãðàäèåíò_2"/><linearGradient id="Áåçûìÿííûé_ãðàäèåíò_4-6" x1="264.52" y1="241.81" x2="510.61" y2="241.81" xlink:href="#Áåçûìÿííûé_ãðàäèåíò_4"/><linearGradient id="Áåçûìÿííûé_ãðàäèåíò_10" x1="514.59" y1="279.31" x2="553.53" y2="279.31" xlink:href="#Áåçûìÿííûé_ãðàäèåíò_9"/><linearGradient id="Áåçûìÿííûé_ãðàäèåíò_4-7" x1="514.84" y1="272.61" x2="554.23" y2="272.61" xlink:href="#Áåçûìÿííûé_ãðàäèåíò_4"/><linearGradient id="Áåçûìÿííûé_ãðàäèåíò_9-2" x1="514.84" y1="276.97" x2="554.23" y2="276.97" xlink:href="#Áåçûìÿííûé_ãðàäèåíò_9"/><linearGradient id="Áåçûìÿííûé_ãðàäèåíò_2-8" x1="779.87" y1="682.71" x2="798.42" y2="666.64" gradientTransform="matrix(.87 .5 -1 .58 525 -518.49)" xlink:href="#Áåçûìÿííûé_ãðàäèåíò_2"/><linearGradient id="Áåçûìÿííûé_ãðàäèåíò_10-2" x1="467.06" y1="307.47" x2="506" y2="307.47" xlink:href="#Áåçûìÿííûé_ãðàäèåíò_9"/><linearGradient id="Áåçûìÿííûé_ãðàäèåíò_4-8" x1="467.31" y1="300.76" x2="506.69" y2="300.76" xlink:href="#Áåçûìÿííûé_ãðàäèåíò_4"/><linearGradient id="Áåçûìÿííûé_ãðàäèåíò_9-3" x1="467.31" y1="305.13" x2="506.69" y2="305.13" xlink:href="#Áåçûìÿííûé_ãðàäèåíò_9"/><linearGradient id="Áåçûìÿííûé_ãðàäèåíò_2-9" x1="780.57" y1="730.85" x2="799.12" y2="714.79" gradientTransform="matrix(.87 .5 -1 .58 525 -518.49)" xlink:href="#Áåçûìÿííûé_ãðàäèåíò_2"/><linearGradient id="Áåçûìÿííûé_ãðàäèåíò_10-3" x1="419.52" y1="335.62" x2="458.46" y2="335.62" xlink:href="#Áåçûìÿííûé_ãðàäèåíò_9"/><linearGradient id="Áåçûìÿííûé_ãðàäèåíò_4-9" x1="419.77" y1="328.92" x2="459.16" y2="328.92" xlink:href="#Áåçûìÿííûé_ãðàäèåíò_4"/><linearGradient id="Áåçûìÿííûé_ãðàäèåíò_9-4" x1="419.77" y1="333.28" x2="459.16" y2="333.28" xlink:href="#Áåçûìÿííûé_ãðàäèåíò_9"/><linearGradient id="Áåçûìÿííûé_ãðàäèåíò_2-10" x1="781.28" y1="779" x2="799.83" y2="762.94" gradientTransform="matrix(.87 .5 -1 .58 525 -518.49)" xlink:href="#Áåçûìÿííûé_ãðàäèåíò_2"/><radialGradient id="Áåçûìÿííûé_ãðàäèåíò_7" cx="-2723.95" cy="202.81" r="68.5" gradientTransform="matrix(.87 .5 -.87 .5 2806.39 1509.72)" gradientUnits="userSpaceOnUse"><stop offset=".01" stop-color="#f7dc39"/><stop offset=".22" stop-color="#d9b52b"/><stop offset=".43" stop-color="#c0951f"/><stop offset=".64" stop-color="#ae7e17"/><stop offset=".83" stop-color="#a47112"/><stop offset="1" stop-color="#a06c10"/></radialGradient><radialGradient id="Áåçûìÿííûé_ãðàäèåíò_11" cx="-2746.29" cy="225.16" r="68.5" gradientTransform="matrix(.87 .5 -.87 .5 2806.39 1509.72)" gradientUnits="userSpaceOnUse"><stop offset=".01" stop-color="#b56b00"/><stop offset=".08" stop-color="#b26b02"/><stop offset=".57" stop-color="#a56c0c"/><stop offset="1" stop-color="#a06c10"/></radialGradient><radialGradient id="Áåçûìÿííûé_ãðàäèåíò_7-2" cx="-2960.74" cy="-413.69" r="84.78" gradientTransform="matrix(.87 .5 -.87 .5 2706.83 1928.47)" xlink:href="#Áåçûìÿííûé_ãðàäèåíò_7"/><radialGradient id="Áåçûìÿííûé_ãðàäèåíò_11-2" cx="-3160.36" cy="-312.95" r="84.78" gradientTransform="matrix(.87 .5 -.87 .5 2706.48 2025.39)" xlink:href="#Áåçûìÿííûé_ãðàäèåíò_11"/><radialGradient id="Áåçûìÿííûé_ãðàäèåíò_8" cx="-1848.92" cy="-1440.34" r="269.78" gradientTransform="matrix(.84 .49 -1.07 .62 285.67 1954.47)" gradientUnits="userSpaceOnUse"><stop offset=".01" stop-color="#f7dc39"/><stop offset=".2" stop-color="#dcb92c"/><stop offset=".43" stop-color="#c29820"/><stop offset=".64" stop-color="#af8017"/><stop offset=".84" stop-color="#a47112"/><stop offset="1" stop-color="#a06c10"/></radialGradient><radialGradient id="Áåçûìÿííûé_ãðàäèåíò_8-2" cx="-1107.46" cy="736.2" r="12.83" gradientTransform="matrix(.87 .5 -.87 .5 2090.51 361.23)" xlink:href="#Áåçûìÿííûé_ãðàäèåíò_8"/><radialGradient id="Áåçûìÿííûé_ãðàäèåíò_7-3" cx="737.54" cy="1681.28" fx="721.396" fy="1688.222" r="25.25" gradientTransform="matrix(-.86 .87 -.54 -1.38 2086.63 1972.31)" xlink:href="#Áåçûìÿííûé_ãðàäèåíò_7"/><radialGradient id="Áåçûìÿííûé_ãðàäèåíò_11-3" cx="-2581.87" cy="-712.23" r="38.16" gradientTransform="matrix(.87 .5 -.87 .5 2137.82 1923.48)" xlink:href="#Áåçûìÿííûé_ãðàäèåíò_11"/><radialGradient id="Áåçûìÿííûé_ãðàäèåíò_7-4" cx="751.62" cy="1721.7" fx="735.47" fy="1728.649" r="25.25" gradientTransform="matrix(-.86 .87 -.54 -1.38 2072.8 2044.24)" xlink:href="#Áåçûìÿííûé_ãðàäèåíò_7"/><radialGradient id="Áåçûìÿííûé_ãðàäèåíò_11-4" cx="-2581.16" cy="-656.63" r="38.16" gradientTransform="matrix(.87 .5 -.87 .5 2137.82 1923.48)" xlink:href="#Áåçûìÿííûé_ãðàäèåíò_11"/><radialGradient id="Áåçûìÿííûé_ãðàäèåíò_7-5" cx="765.69" cy="1762.13" fx="749.544" fy="1769.076" r="25.25" gradientTransform="matrix(-.86 .87 -.54 -1.38 2058.95 2116.18)" xlink:href="#Áåçûìÿííûé_ãðàäèåíò_7"/><radialGradient id="Áåçûìÿííûé_ãðàäèåíò_11-5" cx="-2580.45" cy="-601.03" r="38.16" gradientTransform="matrix(.87 .5 -.87 .5 2137.82 1923.48)" xlink:href="#Áåçûìÿííûé_ãðàäèåíò_11"/><style>.cls-14{opacity:.4}.cls-12,.cls-13,.cls-14,.cls-15,.cls-16,.cls-19,.cls-4,.cls-5{fill:#f7dc39}.cls-4{opacity:.3}.cls-7{fill:#a06c10}.cls-13,.cls-7{opacity:.6}.cls-34,.cls-9{fill:#b56b00}.cls-11{fill:#d99913}.cls-12,.cls-34{opacity:.8}.cls-15{opacity:.2}.cls-16{opacity:.1}.cls-19{opacity:.5}.cls-26{fill:#fff}</style></defs><g style="isolation:isolate"><g id="Ñëîé_1" data-name="Ñëîé 1"><ellipse cx="271.81" cy="249.15" rx="83.89" ry="48.44" style="mix-blend-mode:lighten" fill="url(#Áåçûìÿííûé_ãðàäèåíò_7)" opacity=".4"/><ellipse cx="233.11" cy="249.15" rx="83.89" ry="48.44" style="mix-blend-mode:lighten" fill="url(#Áåçûìÿííûé_ãðàäèåíò_11)" opacity=".4"/><path class="cls-4" d="M247.46 267.82a56 56 0 01-15.69-2.2c-10.16-3-17.12-8.6-19.08-15.4-1.37-4.76-.08-9.7 3.64-13.91l.4-.45c8.91-10.1 29.37-14 46.57-9 10.17 3 17.13 8.6 19.09 15.39 1.37 4.76.08 9.7-3.64 13.91l-.4.46c-6.28 7.14-18.35 11.2-30.89 11.2zm-27.6-28.39c-2.65 3-3.56 6.28-2.64 9.49 1.48 5.13 7.42 9.69 15.88 12.18 15.34 4.51 34 1.11 41.72-7.58l.4-.46c2.65-3 3.56-6.28 2.64-9.48-1.48-5.14-7.42-9.69-15.89-12.18-15.33-4.51-34-1.11-41.71 7.58z"/><path class="cls-5" d="M247.27 265.73a53.49 53.49 0 01-14.92-2.07c-9.48-2.79-15.93-7.9-17.69-14-1.19-4.13-.08-8.27 3.2-12l.4-.45c8.29-9.39 28.24-13.14 44.47-8.37 9.48 2.79 15.93 7.89 17.69 14 1.19 4.12.08 8.27-3.2 12l-.4.45c-5.82 6.62-17.5 10.44-29.55 10.44zm-28.94-27.65c-3.14 3.55-4.2 7.5-3.07 11.4 1.67 5.82 8.13 10.89 17.27 13.58 16 4.71 35.68 1 43.82-8.19l.4-.45c3.14-3.56 4.2-7.5 3.07-11.41-1.67-5.81-8.13-10.89-17.27-13.58-16-4.71-35.68-1-43.82 8.19z"/><path d="M247.55 262c-7.59 0-15.18-1.67-21-5s-8.73-7.58-8.73-12.19 3.1-8.95 8.73-12.2c11.55-6.67 30.35-6.67 41.91 0 5.63 3.25 8.73 7.58 8.73 12.2s-3.1 8.94-8.73 12.19-13.32 5-20.91 5zm0-34.07c-7.53 0-15.06 1.65-20.79 5-5.53 3.19-8.57 7.42-8.57 11.92s3 8.72 8.57 11.91c11.46 6.62 30.12 6.62 41.59 0 5.52-3.19 8.56-7.42 8.56-11.91s-3-8.73-8.56-11.92c-5.74-3.35-13.27-5-20.8-5z" fill="url(#Áåçûìÿííûé_ãðàäèåíò_9)"/><ellipse class="cls-7" cx="247.55" cy="244.81" rx="24.93" ry="14.39"/><path d="M277.07 237.41v-9.65h-5.22a24.21 24.21 0 00-3.42-2.39c-11.53-6.65-30.22-6.65-41.75 0a23.64 23.64 0 00-3.42 2.39H218v9.66c0 4.37 2.88 8.73 8.65 12.06 11.53 6.65 30.22 6.65 41.75 0 5.8-3.33 8.68-7.7 8.67-12.07z" fill="url(#Áåçûìÿííûé_ãðàäèåíò_4)"/><path class="cls-9" d="M218.3 237.17v-9.41h-.3v9.66c0 3.91 2.33 7.81 6.95 11-4.42-3.32-6.65-7.28-6.65-11.25z"/><path class="cls-5" d="M276.61 227.76v9.34c0 4.37-2.88 8.73-8.65 12.07-11.53 6.65-30.22 6.65-41.75 0-.59-.34-1.12-.7-1.65-1.06.66.47 1.36.93 2.12 1.37 11.53 6.65 30.22 6.65 41.75 0 5.77-3.33 8.65-7.7 8.64-12.07v-9.65z"/><ellipse cx="247.55" cy="227.76" rx="29.52" ry="17.05" fill="url(#Áåçûìÿííûé_ãðàäèåíò_2)"/><path class="cls-9" d="M227.47 215.89c5.86-3.39 13.51-5.09 21.19-5.14-7.92-.17-15.94 1.47-22 5-9 5.18-11.05 13-5.92 19.17-4.4-6.38-2.16-13.92 6.73-19.03z"/><path class="cls-5" d="M268.43 215.71a36.45 36.45 0 00-10.43-3.88 35.58 35.58 0 019.41 3.65c11.53 6.65 11.53 17.44 0 24.1-8.46 4.89-20.79 6.17-31.3 3.88 10.73 2.61 23.59 1.4 32.34-3.65 11.55-6.65 11.55-17.44-.02-24.1z"/><ellipse class="cls-5" cx="247.41" cy="227.76" rx="18.87" ry="10.89"/><path class="cls-5" d="M234.07 225.9c7.37-4.26 19.31-4.26 26.68 0a11.48 11.48 0 014.83 4.78c1.75-3.66.15-7.74-4.83-10.62-7.37-4.25-19.31-4.25-26.68 0-5 2.88-6.58 7-4.83 10.62a11.48 11.48 0 014.83-4.78z"/><path class="cls-5" d="M234.07 223.84c7.37-4.26 19.31-4.26 26.68 0 2.85 1.64 4.58 3.68 5.23 5.81 1-3.38-.71-7-5.23-9.59-7.37-4.25-19.31-4.25-26.68 0-4.52 2.61-6.25 6.21-5.23 9.59.65-2.13 2.38-4.17 5.23-5.81z"/><path class="cls-11" d="M234.07 222c7.37-4.26 19.31-4.26 26.68 0 3.26 1.88 5.07 4.28 5.45 6.73.47-3.1-1.34-6.3-5.45-8.67-7.37-4.25-19.31-4.25-26.68 0-4.11 2.37-5.92 5.57-5.45 8.67.38-2.46 2.19-4.85 5.45-6.73z"/><path class="cls-5" d="M262.83 214.6a1.85 1.85 0 00-1.74.24c-.37.34-.18.79.41 1a1.85 1.85 0 001.74-.24c.37-.34.18-.79-.41-1z"/><path class="cls-12" d="M267 216.62a2 2 0 00-1.76 0c-.47.29-.44.74.06 1a2 2 0 001.76 0c.47-.28.44-.73-.06-1z"/><path class="cls-13" d="M270.42 219.06a1.92 1.92 0 00-1.74-.16c-.56.24-.68.68-.28 1a1.91 1.91 0 001.74.16c.55-.23.68-.67.28-1z"/><path class="cls-14" d="M272.94 221.85a1.7 1.7 0 00-1.65-.36c-.62.17-.9.59-.61.95a1.74 1.74 0 001.65.36c.67-.17.9-.59.61-.95z"/><path class="cls-15" d="M274.48 224.86a1.43 1.43 0 00-1.5-.53c-.67.09-1.08.47-.92.86a1.43 1.43 0 001.5.53c.67-.09 1.08-.48.92-.86z"/><path class="cls-16" d="M274.85 228.33c.3-.36 0-.79-.57-1a1.73 1.73 0 00-1.67.33c-.3.35 0 .78.57 1a1.76 1.76 0 001.67-.33z"/><path d="M277.07 216.64V207h-5.22a23.41 23.41 0 00-3.42-2.39c-11.53-6.66-30.22-6.66-41.75 0a22.88 22.88 0 00-3.42 2.39H218v9.66c0 4.36 2.88 8.72 8.65 12.05 11.53 6.66 30.22 6.66 41.75 0 5.8-3.33 8.68-7.71 8.67-12.07z" fill="url(#Áåçûìÿííûé_ãðàäèåíò_4-2)"/><path class="cls-9" d="M218.3 216.41V207h-.3v9.66c0 3.9 2.33 7.8 6.95 11-4.42-3.32-6.65-7.29-6.65-11.25z"/><path class="cls-5" d="M276.61 207v9.33c0 4.37-2.88 8.74-8.65 12.07-11.53 6.66-30.22 6.66-41.75 0-.59-.34-1.12-.69-1.65-1.05.66.47 1.36.92 2.12 1.36 11.53 6.66 30.22 6.66 41.75 0 5.77-3.33 8.65-7.7 8.64-12.07V207z"/><ellipse cx="247.55" cy="207" rx="29.52" ry="17.04" fill="url(#Áåçûìÿííûé_ãðàäèåíò_2-2)"/><path class="cls-9" d="M227.47 195.12c5.86-3.38 13.51-5.09 21.19-5.14-7.92-.17-15.94 1.47-22 5-9 5.19-11.05 13-5.92 19.17-4.4-6.37-2.16-13.89 6.73-19.03z"/><path class="cls-5" d="M268.43 194.94a36.75 36.75 0 00-10.43-3.88 35.58 35.58 0 019.41 3.65c11.53 6.66 11.53 17.45 0 24.11-8.46 4.88-20.79 6.17-31.3 3.88 10.73 2.61 23.59 1.4 32.34-3.65 11.55-6.66 11.55-17.45-.02-24.11z"/><path class="cls-5" d="M260.75 214.7c-7.37 4.25-19.31 4.25-26.68 0s-7.37-11.15 0-15.41 19.31-4.25 26.68 0 7.37 11.15 0 15.41z"/><path class="cls-5" d="M234.07 205.13c7.37-4.25 19.31-4.25 26.68 0a11.49 11.49 0 014.83 4.79c1.75-3.66.15-7.75-4.83-10.63-7.37-4.25-19.31-4.25-26.68 0-5 2.88-6.58 7-4.83 10.62a11.53 11.53 0 014.83-4.78z"/><path class="cls-5" d="M234.07 203.07c7.37-4.25 19.31-4.25 26.68 0 2.85 1.64 4.58 3.69 5.23 5.81 1-3.37-.71-7-5.23-9.59-7.37-4.25-19.31-4.25-26.68 0-4.52 2.61-6.25 6.22-5.23 9.59.65-2.13 2.38-4.17 5.23-5.81z"/><path class="cls-11" d="M234.07 201.23c7.37-4.25 19.31-4.25 26.68 0 3.26 1.88 5.07 4.28 5.45 6.74.47-3.1-1.34-6.3-5.45-8.68-7.37-4.25-19.31-4.25-26.68 0-4.11 2.38-5.92 5.57-5.45 8.68.38-2.46 2.19-4.86 5.45-6.74z"/><path class="cls-5" d="M262.83 193.83a1.88 1.88 0 00-1.74.24c-.37.35-.18.8.41 1a1.88 1.88 0 001.74-.24c.37-.34.18-.83-.41-1z"/><path class="cls-12" d="M267 195.85a2 2 0 00-1.76 0c-.47.29-.44.75.06 1a2 2 0 001.76 0c.47-.27.44-.73-.06-1z"/><path class="cls-13" d="M270.42 198.3a1.89 1.89 0 00-1.74-.16c-.56.23-.68.68-.28 1a1.91 1.91 0 001.74.16c.55-.23.68-.68.28-1z"/><path class="cls-14" d="M272.94 201.08a1.7 1.7 0 00-1.65-.35c-.62.16-.9.59-.61 1a1.71 1.71 0 001.65.35c.67-.21.9-.64.61-1z"/><path class="cls-15" d="M274.48 204.09a1.46 1.46 0 00-1.5-.53c-.67.09-1.08.48-.92.87a1.46 1.46 0 001.5.53c.67-.09 1.08-.48.92-.87z"/><path class="cls-16" d="M274.85 207.56c.3-.35 0-.78-.57-1a1.78 1.78 0 00-1.67.33c-.3.36 0 .79.57 1a1.73 1.73 0 001.67-.33z"/><path class="cls-19" d="M277.08 194.78l-9.15-.11c-11.11-6.13-28.48-6.28-39.91-.45l-10-.12v12.43c-.21 4.52 2.66 9.07 8.63 12.52 11.53 6.66 30.22 6.66 41.75 0 6-3.45 8.84-8 8.63-12.52z"/><path d="M277.07 195.88v-9.65h-5.22a24.21 24.21 0 00-3.42-2.39c-11.53-6.65-30.22-6.65-41.75 0a23.64 23.64 0 00-3.42 2.39H218v9.66c0 4.37 2.88 8.73 8.65 12.06 11.53 6.65 30.22 6.65 41.75 0 5.8-3.34 8.68-7.7 8.67-12.07z" fill="url(#Áåçûìÿííûé_ãðàäèåíò_4-3)"/><path class="cls-9" d="M218.3 195.64v-9.41h-.3v9.66c0 3.91 2.33 7.81 6.95 11-4.42-3.32-6.65-7.28-6.65-11.25z"/><path class="cls-5" d="M276.61 186.23v9.34c0 4.37-2.88 8.73-8.65 12.07-11.53 6.65-30.22 6.65-41.75 0-.59-.34-1.12-.7-1.65-1.06.66.47 1.36.93 2.12 1.37 11.53 6.65 30.22 6.65 41.75 0 5.77-3.34 8.65-7.7 8.64-12.07v-9.65z"/><ellipse cx="247.55" cy="186.23" rx="29.52" ry="17.05" fill="url(#Áåçûìÿííûé_ãðàäèåíò_2-3)"/><path class="cls-9" d="M227.47 174.35c5.86-3.38 13.51-5.08 21.19-5.13-7.92-.17-15.94 1.47-22 5-9 5.18-11.05 13-5.92 19.17-4.4-6.39-2.16-13.9 6.73-19.04z"/><path class="cls-5" d="M268.43 174.18A36.45 36.45 0 00258 170.3a35.58 35.58 0 019.41 3.65c11.53 6.65 11.53 17.44 0 24.1-8.46 4.89-20.79 6.17-31.3 3.88 10.73 2.61 23.59 1.4 32.34-3.65 11.55-6.65 11.55-17.44-.02-24.1z"/><ellipse class="cls-5" cx="247.41" cy="186.23" rx="18.87" ry="10.89"/><path class="cls-5" d="M234.07 184.37c7.37-4.26 19.31-4.26 26.68 0a11.48 11.48 0 014.83 4.78c1.75-3.66.15-7.74-4.83-10.62-7.37-4.26-19.31-4.26-26.68 0-5 2.88-6.58 7-4.83 10.62a11.48 11.48 0 014.83-4.78z"/><path class="cls-5" d="M234.07 182.3c7.37-4.25 19.31-4.25 26.68 0 2.85 1.65 4.58 3.69 5.23 5.82 1-3.38-.71-7-5.23-9.59-7.37-4.26-19.31-4.26-26.68 0-4.52 2.61-6.25 6.21-5.23 9.59.65-2.12 2.38-4.12 5.23-5.82z"/><path class="cls-11" d="M234.07 180.47c7.37-4.26 19.31-4.26 26.68 0 3.26 1.88 5.07 4.28 5.45 6.73.47-3.1-1.34-6.3-5.45-8.67-7.37-4.26-19.31-4.26-26.68 0-4.11 2.37-5.92 5.57-5.45 8.67.38-2.46 2.19-4.85 5.45-6.73z"/><path class="cls-5" d="M262.83 173.07a1.85 1.85 0 00-1.74.24c-.37.34-.18.79.41 1a1.85 1.85 0 001.74-.24c.37-.34.18-.79-.41-1z"/><path class="cls-12" d="M267 175.09a2 2 0 00-1.76 0c-.47.29-.44.74.06 1a1.92 1.92 0 001.76 0c.47-.28.44-.73-.06-1z"/><path class="cls-13" d="M270.42 177.53a1.92 1.92 0 00-1.74-.16c-.56.23-.68.68-.28 1a1.91 1.91 0 001.74.16c.55-.23.68-.68.28-1z"/><path class="cls-14" d="M272.94 180.31a1.72 1.72 0 00-1.65-.35c-.62.17-.9.59-.61.95a1.74 1.74 0 001.65.36c.67-.17.9-.59.61-.96z"/><path class="cls-15" d="M274.48 183.33a1.43 1.43 0 00-1.5-.53c-.67.09-1.08.47-.92.86s.83.62 1.5.53 1.08-.48.92-.86z"/><path class="cls-16" d="M274.85 186.8c.3-.36 0-.79-.57-1a1.73 1.73 0 00-1.67.33c-.3.35 0 .78.57 1a1.78 1.78 0 001.67-.33z"/><path d="M277.07 175.11v-9.64h-5.22a23.41 23.41 0 00-3.42-2.39c-11.53-6.66-30.22-6.66-41.75 0a22.88 22.88 0 00-3.42 2.39H218v9.66c0 4.36 2.88 8.72 8.65 12.05 11.53 6.66 30.22 6.66 41.75 0 5.8-3.33 8.68-7.7 8.67-12.07z" fill="url(#Áåçûìÿííûé_ãðàäèåíò_4-4)"/><path class="cls-9" d="M218.3 174.88v-9.41h-.3v9.66c0 3.9 2.33 7.8 6.95 11-4.42-3.32-6.65-7.29-6.65-11.25z"/><path class="cls-5" d="M276.61 165.47v9.33c0 4.37-2.88 8.74-8.65 12.07-11.53 6.66-30.22 6.66-41.75 0-.59-.34-1.12-.69-1.65-1.05.66.47 1.36.92 2.12 1.36 11.53 6.66 30.22 6.66 41.75 0 5.77-3.33 8.65-7.7 8.64-12.07v-9.64z"/><ellipse cx="247.55" cy="165.47" rx="29.52" ry="17.04" fill="url(#Áåçûìÿííûé_ãðàäèåíò_2-4)"/><path class="cls-9" d="M227.47 153.59c5.86-3.38 13.51-5.09 21.19-5.14-7.92-.17-15.94 1.47-22 5-9 5.19-11.05 13-5.92 19.17-4.4-6.37-2.16-13.9 6.73-19.03z"/><path class="cls-5" d="M268.43 153.41a36.45 36.45 0 00-10.43-3.88 35.58 35.58 0 019.41 3.65c11.53 6.66 11.53 17.45 0 24.11-8.46 4.88-20.79 6.17-31.3 3.88 10.73 2.61 23.59 1.4 32.34-3.65 11.55-6.66 11.55-17.45-.02-24.11z"/><path class="cls-5" d="M260.75 173.17c-7.37 4.25-19.31 4.25-26.68 0s-7.37-11.15 0-15.41 19.31-4.25 26.68 0 7.37 11.15 0 15.41z"/><path class="cls-5" d="M234.07 163.6c7.37-4.25 19.31-4.25 26.68 0a11.49 11.49 0 014.83 4.79c1.75-3.66.15-7.75-4.83-10.63-7.37-4.25-19.31-4.25-26.68 0-5 2.88-6.58 7-4.83 10.62a11.53 11.53 0 014.83-4.78z"/><path class="cls-5" d="M234.07 161.54c7.37-4.25 19.31-4.25 26.68 0 2.85 1.64 4.58 3.68 5.23 5.81 1-3.37-.71-7-5.23-9.59-7.37-4.25-19.31-4.25-26.68 0-4.52 2.61-6.25 6.22-5.23 9.59.65-2.13 2.38-4.17 5.23-5.81z"/><path class="cls-11" d="M234.07 159.7c7.37-4.25 19.31-4.25 26.68 0 3.26 1.88 5.07 4.28 5.45 6.74.47-3.11-1.34-6.3-5.45-8.68-7.37-4.25-19.31-4.25-26.68 0-4.11 2.38-5.92 5.57-5.45 8.68.38-2.44 2.19-4.86 5.45-6.74z"/><path class="cls-5" d="M262.83 152.3a1.88 1.88 0 00-1.74.24c-.37.34-.18.8.41 1a1.88 1.88 0 001.74-.24c.37-.3.18-.79-.41-1z"/><path class="cls-12" d="M267 154.32a2 2 0 00-1.76 0c-.47.29-.44.75.06 1a2 2 0 001.76 0c.47-.27.44-.73-.06-1z"/><path class="cls-13" d="M270.42 156.77a1.89 1.89 0 00-1.74-.16c-.56.23-.68.68-.28 1a1.91 1.91 0 001.74.16c.55-.23.68-.68.28-1z"/><path class="cls-14" d="M272.94 159.55a1.7 1.7 0 00-1.65-.35c-.62.16-.9.59-.61 1a1.71 1.71 0 001.65.35c.67-.21.9-.64.61-1z"/><path class="cls-15" d="M274.48 162.56A1.46 1.46 0 00273 162c-.67.09-1.08.48-.92.87a1.46 1.46 0 001.5.53c.65-.06 1.06-.4.9-.84z"/><path class="cls-16" d="M274.85 166c.3-.35 0-.78-.57-1a1.78 1.78 0 00-1.67.33c-.3.36 0 .79.57 1a1.73 1.73 0 001.67-.33z"/><path class="cls-19" d="M277.08 153.25l-9.15-.11c-11.11-6.13-28.48-6.28-39.91-.45l-10-.12V165c-.21 4.52 2.66 9.07 8.63 12.52 11.53 6.65 30.22 6.65 41.75 0 6-3.45 8.84-8 8.63-12.52z"/><path d="M277.07 154.35v-9.65h-5.22a24.21 24.21 0 00-3.42-2.39c-11.53-6.66-30.22-6.66-41.75 0a23.64 23.64 0 00-3.42 2.39H218v9.66c0 4.37 2.88 8.73 8.65 12.06 11.53 6.65 30.22 6.65 41.75 0 5.8-3.34 8.68-7.7 8.67-12.07z" fill="url(#Áåçûìÿííûé_ãðàäèåíò_4-5)"/><path class="cls-9" d="M218.3 154.11v-9.41h-.3v9.66c0 3.91 2.33 7.81 6.95 11-4.42-3.36-6.65-7.28-6.65-11.25z"/><path class="cls-5" d="M276.61 144.7v9.3c0 4.37-2.88 8.73-8.65 12.07-11.53 6.65-30.22 6.65-41.75 0-.59-.34-1.12-.7-1.65-1.06.66.47 1.36.93 2.12 1.37 11.53 6.65 30.22 6.65 41.75 0 5.77-3.34 8.65-7.7 8.64-12.07v-9.61z"/><path d="M268.43 156.75c-11.53 6.66-30.22 6.66-41.75 0s-11.53-17.45 0-24.1 30.22-6.66 41.75 0 11.57 17.45 0 24.1z" fill="url(#Áåçûìÿííûé_ãðàäèåíò_2-5)"/><path class="cls-9" d="M227.47 132.82c5.86-3.38 13.51-5.08 21.19-5.13-7.92-.17-15.94 1.47-22 5-9 5.18-11.05 13-5.92 19.17-4.4-6.38-2.16-13.86 6.73-19.04z"/><path class="cls-5" d="M268.43 132.65a36.45 36.45 0 00-10.43-3.88 35.58 35.58 0 019.41 3.65c11.53 6.65 11.53 17.44 0 24.1-8.46 4.89-20.79 6.17-31.3 3.88 10.73 2.61 23.59 1.4 32.34-3.65 11.55-6.65 11.55-17.45-.02-24.1z"/><ellipse class="cls-5" cx="247.41" cy="144.7" rx="18.87" ry="10.89"/><path class="cls-5" d="M234.07 142.84c7.37-4.26 19.31-4.26 26.68 0a11.48 11.48 0 014.83 4.78c1.75-3.66.15-7.74-4.83-10.62-7.37-4.26-19.31-4.26-26.68 0-5 2.88-6.58 7-4.83 10.62a11.48 11.48 0 014.83-4.78z"/><path class="cls-5" d="M234.07 140.77c7.37-4.25 19.31-4.25 26.68 0 2.85 1.65 4.58 3.69 5.23 5.82 1-3.38-.71-7-5.23-9.59-7.37-4.26-19.31-4.26-26.68 0-4.52 2.61-6.25 6.21-5.23 9.59.65-2.13 2.38-4.17 5.23-5.82z"/><path class="cls-11" d="M234.07 138.94c7.37-4.26 19.31-4.26 26.68 0 3.26 1.88 5.07 4.27 5.45 6.73.47-3.1-1.34-6.3-5.45-8.67-7.37-4.26-19.31-4.26-26.68 0-4.11 2.37-5.92 5.57-5.45 8.67.38-2.46 2.19-4.85 5.45-6.73z"/><path class="cls-5" d="M262.83 131.54a1.85 1.85 0 00-1.74.24c-.37.34-.18.79.41 1a1.85 1.85 0 001.74-.24c.37-.34.18-.79-.41-1z"/><path class="cls-12" d="M267 133.56a2 2 0 00-1.76 0c-.47.29-.44.74.06 1a1.92 1.92 0 001.76 0c.47-.28.44-.73-.06-1z"/><path class="cls-13" d="M270.42 136a1.92 1.92 0 00-1.74-.16c-.56.23-.68.68-.28 1a1.88 1.88 0 001.74.17c.55-.24.68-.69.28-1.01z"/><path class="cls-14" d="M272.94 138.78a1.72 1.72 0 00-1.65-.35c-.62.17-.9.59-.61.95a1.74 1.74 0 001.65.36c.67-.17.9-.59.61-.96z"/><path class="cls-15" d="M274.48 141.8a1.45 1.45 0 00-1.5-.54c-.67.1-1.08.48-.92.87s.83.62 1.5.53 1.08-.48.92-.86z"/><path class="cls-16" d="M274.85 145.27c.3-.36 0-.79-.57-1a1.73 1.73 0 00-1.67.33c-.3.35 0 .78.57 1a1.78 1.78 0 001.67-.33z"/><circle class="cls-5" cx="247.97" cy="166.44" r="1.85"/><path class="cls-11" d="M248 167.6a1.86 1.86 0 01-1.82-1.51 2 2 0 000 .35 1.86 1.86 0 003.71 0 1.34 1.34 0 000-.35 1.85 1.85 0 01-1.89 1.51z"/><circle class="cls-5" cx="247.97" cy="187.2" r="1.85"/><path class="cls-11" d="M248 188.36a1.86 1.86 0 01-1.82-1.51 2.07 2.07 0 000 .35 1.86 1.86 0 103.71 0 1.39 1.39 0 000-.35 1.85 1.85 0 01-1.89 1.51z"/><circle class="cls-5" cx="247.97" cy="207.97" r="1.85"/><path class="cls-11" d="M248 209.13a1.86 1.86 0 01-1.82-1.51 2 2 0 000 .35 1.86 1.86 0 003.71 0 1.34 1.34 0 000-.35 1.85 1.85 0 01-1.89 1.51z"/><circle class="cls-5" cx="247.97" cy="228.73" r="1.85"/><path class="cls-11" d="M248 229.89a1.86 1.86 0 01-1.82-1.51 2.07 2.07 0 000 .35 1.86 1.86 0 103.71 0 1.39 1.39 0 000-.35 1.85 1.85 0 01-1.89 1.51z"/><circle class="cls-5" cx="247.97" cy="249.5" r="1.85"/><path class="cls-11" d="M248 250.66a1.86 1.86 0 01-1.82-1.51 2 2 0 000 .35 1.86 1.86 0 003.71 0 1.34 1.34 0 000-.35 1.85 1.85 0 01-1.89 1.51z"/><path class="cls-4" d="M406.41 353.53a9.39 9.39 0 01-4.65-1.13l-47-27.18a1.34 1.34 0 111.35-2.32l47 27.18a7.45 7.45 0 006.62 0l148.62-85.21c.61-.35 1-.77 1-1.13s-.36-.78-1-1.14l-47-27.18a1.32 1.32 0 01-.49-1.83 1.34 1.34 0 011.83-.49l47 27.18a3.74 3.74 0 010 6.92l-148.63 85.21a9.47 9.47 0 01-4.65 1.12z"/><path class="cls-5" d="M406.41 352.46a8.33 8.33 0 01-4.11-1l-47-27.18.27-.46 47 27.18a8.5 8.5 0 007.7 0l148.61-85.2a2.17 2.17 0 000-4.14l-47-27.18.26-.46 47 27.18a2.69 2.69 0 010 5.06l-148.62 85.2a8.33 8.33 0 01-4.11 1z"/><path class="cls-26" d="M518.27 237.88a1.21 1.21 0 11-.44-1.64 1.2 1.2 0 01.44 1.64zm6.26 3.62a1.21 1.21 0 11-.44-1.64 1.2 1.2 0 01.44 1.64zm6.26 3.62a1.21 1.21 0 11-.44-1.64 1.2 1.2 0 01.44 1.64zm6.26 3.62a1.21 1.21 0 11-.44-1.64 1.2 1.2 0 01.44 1.64zm6.26 3.62a1.21 1.21 0 11-.44-1.64 1.2 1.2 0 01.44 1.64zm6.26 3.64a1.21 1.21 0 11-.44-1.64 1.2 1.2 0 01.44 1.64zm6.26 3.6a1.21 1.21 0 11-.44-1.64 1.2 1.2 0 01.44 1.64zm4.73 4.73a2.79 2.79 0 01-.77-.45c-.2-.16-.34-.24-.38-.37a1.88 1.88 0 01.51-1.37.91.91 0 01.9-.26 1.31 1.31 0 01.89.9 1.4 1.4 0 01-.23 1.32.86.86 0 01-.92.23zm-5.78 4.13a1.21 1.21 0 111.65.45 1.21 1.21 0 01-1.65-.45zm-6.27 3.6a1.21 1.21 0 112.09-1.2 1.21 1.21 0 01-2.09 1.2zm-6.28 3.59a1.2 1.2 0 01.45-1.64 1.21 1.21 0 11-.45 1.64zm-6.23 3.6a1.21 1.21 0 012.09-1.2 1.21 1.21 0 11-2.09 1.2zm-6.31 3.6a1.21 1.21 0 112.09-1.2 1.21 1.21 0 01-2.09 1.2zm-6.28 3.59a1.2 1.2 0 111.65.45 1.2 1.2 0 01-1.65-.45zm-6.27 3.56a1.21 1.21 0 111.64.45 1.2 1.2 0 01-1.64-.45zm-6.27 3.64a1.21 1.21 0 111.64.44 1.2 1.2 0 01-1.64-.44zm-6.28 3.59a1.2 1.2 0 111.65.45 1.2 1.2 0 01-1.65-.45zm-6.27 3.6a1.21 1.21 0 111.64.45 1.2 1.2 0 01-1.64-.45zm-6.27 3.6a1.21 1.21 0 111.64.44 1.2 1.2 0 01-1.64-.44zm-6.28 3.57a1.2 1.2 0 111.65.45 1.2 1.2 0 01-1.65-.45zm-6.27 3.62a1.21 1.21 0 111.64.45 1.2 1.2 0 01-1.64-.45zm-6.28 3.6a1.21 1.21 0 111.65.44 1.21 1.21 0 01-1.65-.44zm-6.22 3.6a1.21 1.21 0 111.65.44 1.21 1.21 0 01-1.65-.44zm-6.32 3.59a1.21 1.21 0 111.64.45 1.2 1.2 0 01-1.64-.45zM454.4 326a1.21 1.21 0 112.09-1.2 1.21 1.21 0 01-2.09 1.2zm-6.27 3.61a1.21 1.21 0 111.65.44 1.21 1.21 0 01-1.65-.44zm-6.27 3.59a1.2 1.2 0 01.44-1.64 1.21 1.21 0 111.2 2.09 1.2 1.2 0 01-1.64-.45zm-6.28 3.6a1.21 1.21 0 111.65.45 1.21 1.21 0 01-1.65-.45zm-6.27 3.6a1.21 1.21 0 111.64.44 1.21 1.21 0 01-1.64-.44zM423 344a1.19 1.19 0 01.44-1.64 1.21 1.21 0 111.2 2.09A1.2 1.2 0 01423 344zm-6.24 3.59a1.21 1.21 0 01.45-1.65 1.2 1.2 0 011.64.45 1.21 1.21 0 11-2.09 1.2zm-6.27 3.6a1.21 1.21 0 112.09-1.2 1.21 1.21 0 01-2.09 1.2zm-7.01.52a1.21 1.21 0 012.36.47 1.21 1.21 0 11-2.36-.47zm-6.31-3.51a1.2 1.2 0 11.44 1.64 1.19 1.19 0 01-.44-1.64zm-6.26-3.62a1.2 1.2 0 11.44 1.64 1.19 1.19 0 01-.44-1.64zm-6.26-3.58a1.2 1.2 0 11.44 1.64 1.19 1.19 0 01-.44-1.64zm-6.26-3.66a1.2 1.2 0 11.44 1.64 1.19 1.19 0 01-.44-1.64zm-6.26-3.62a1.2 1.2 0 11.44 1.64 1.19 1.19 0 01-.44-1.64zm-6.26-3.62a1.2 1.2 0 11.44 1.64 1.19 1.19 0 01-.44-1.64zm-6.26-3.62a1.2 1.2 0 11.44 1.64 1.19 1.19 0 01-.44-1.64z"/><ellipse cx="501.08" cy="241.37" rx="103.83" ry="59.94" transform="rotate(-21.09 501.15 241.386)" style="mix-blend-mode:lighten" fill="url(#Áåçûìÿííûé_ãðàäèåíò_7-2)" opacity=".4"/><ellipse cx="240.6" cy="288.87" rx="103.83" ry="59.94" transform="rotate(-21.09 240.633 288.907)" style="mix-blend-mode:lighten" fill="url(#Áåçûìÿííûé_ãðàäèåíò_11-2)" opacity=".4"/><path class="cls-7" d="M327 364.57l-108.18-62.44c-2.58-1.49-2.25-4.09.72-5.81l219.89-126.95c3-1.72 7.48-1.91 10.06-.42l108.14 62.44c2.58 1.49 2.26 4.09-.72 5.81L337 364.15c-3 1.72-7.46 1.9-10 .42z"/><path d="M559.37 208.54l-5.51 3.32-104.37-60.26c-2.58-1.49-7.08-1.31-10.06.41L223 277l-5.92-2.65v8.06a3 3 0 001.73 2.39L327 347.21c2.58 1.49 7.08 1.3 10.06-.42l219.89-127c1.67-1 2.51-2.21 2.46-3.38z" fill="url(#Áåçûìÿííûé_ãðàäèåíò_2-6)"/><path class="cls-9" d="M223 277l-5.92-2.65v8.06a3 3 0 001.73 2.39l.23.13a2.47 2.47 0 01-.52-1.35v-8.06l5.92 2.65 8.36-4.83c-.38-.45-.78-.89-1.18-1.32z"/><path class="cls-5" d="M553.86 211.86l-51.23-29.58-1.55 1L552.46 213l5.52-3.31v7.91a3.11 3.11 0 01-1 2.22c1.6-1 2.4-2.17 2.35-3.31v-7.92z"/><path d="M327 339.23l-108.18-62.44c-2.58-1.49-2.25-4.08.72-5.8L439.43 144c3-1.71 7.48-1.9 10.06-.41l108.14 62.43c2.58 1.49 2.26 4.09-.72 5.81L337 338.81c-3 1.72-7.46 1.91-10 .42z" fill="url(#Áåçûìÿííûé_ãðàäèåíò_2-7)"/><path class="cls-9" d="M328.46 339.23l-108.14-62.44c-2.58-1.49-2.26-4.08.72-5.8L440.93 144a11.4 11.4 0 015-1.39 11.89 11.89 0 00-6.48 1.39L219.54 271c-3 1.72-3.3 4.31-.72 5.8L327 339.23a9.45 9.45 0 005.07 1 8.41 8.41 0 01-3.61-1z"/><path class="cls-5" d="M557.63 206.05l-108.14-62.43a9.33 9.33 0 00-5.07-1 8.46 8.46 0 013.62 1l108.15 62.43c2.57 1.49 2.25 4.09-.73 5.81l-219.89 127a11.45 11.45 0 01-5 1.4 11.84 11.84 0 006.44-1.4l219.9-127c2.98-1.72 3.3-4.32.72-5.81z"/><path fill="url(#Áåçûìÿííûé_ãðàäèåíò_8)" d="M339.3 335.39l-113.83-65.72 210.35-121.45 113.83 65.72L339.3 335.39z"/><path fill="url(#Áåçûìÿííûé_ãðàäèåíò_4-6)" d="M350.92 312.85l-86.41-49.89 159.69-92.19 86.41 49.89-159.69 92.19z"/><path d="M503.32 182.06L491 175c-.46-.27-.4-.74.13-1a2 2 0 011.81-.07l12.27 7.08c.47.27.41.74-.13 1.05a2 2 0 01-1.76 0z" fill="url(#Áåçûìÿííûé_ãðàäèåíò_8-2)"/><path class="cls-12" d="M321 191.48s5.28-58.31 16.59-51.76 5.84 40.37 17.58 47.14c11.54 6.67 5.25-96.56 22.69-86.5 12.51 7.23 8.51 85.63 19.68 92.08 12.54 7.24 8.95-22.29 20.06-21 6.38.77 9.73 20 18.77 24.28s4.74-78.76 19.05-70.5c14.48 8.36 18.66 154.68 18.66 154.68z"/><path class="cls-26" d="M338.11 139.17a2.41 2.41 0 11-2.4-2.4 2.41 2.41 0 012.4 2.4zM378 99.67a2.41 2.41 0 11-2.41-2.4 2.41 2.41 0 012.41 2.4zm41.7 71.63a2.41 2.41 0 11-2.4-2.41 2.4 2.4 0 012.4 2.41zm36.3-46.86a2.4 2.4 0 11-2.4-2.4 2.39 2.39 0 012.4 2.4z"/><path class="cls-34" d="M285.91 208.81s3.94-57.93 12.38-53 4.36 38.81 13.12 43.86 3.92-84.08 16.93-76.57c9.34 5.4 6.36 35.2 14.69 40 9.36 5.41 7.74-9.41 15-5.23s7.26 23 14 26.06 3.54-64.46 14.21-58.29 13.93 149.23 13.93 149.23z"/><path class="cls-26" d="M300 155.52a2.41 2.41 0 11-2.4-2.4 2.4 2.4 0 012.4 2.4zm29.33-32.9a2.4 2.4 0 11-2.4-2.4 2.4 2.4 0 012.4 2.4zm28.78 34.62a2.41 2.41 0 11-2.4-2.4 2.4 2.4 0 012.4 2.4zm29.08-31.83a2.4 2.4 0 11-2.4-2.41 2.4 2.4 0 012.4 2.41z"/><path class="cls-12" d="M332.35 279.31l-17.3-9.98 6.05-3.5 17.29 9.99-6.04 3.49z"/><path class="cls-34" d="M343.12 273.18l-17.29-9.99 6.05-3.49 17.29 9.98-6.05 3.5z"/><path d="M297.6 216.07a.5.5 0 01-.5-.5v-60a.5.5 0 01.5-.5.5.5 0 01.5.5v60a.51.51 0 01-.5.5zM326.93 233a.5.5 0 01-.5-.5V122.62a.5.5 0 011 0v109.9a.5.5 0 01-.5.48zm28.78 16.66a.5.5 0 01-.5-.5v-91.92a.5.5 0 01.5-.5.5.5 0 01.5.5v91.92a.51.51 0 01-.5.5zm29.08 16.68a.5.5 0 01-.5-.5V125.62a.5.5 0 011 0v140.22a.5.5 0 01-.5.5z" fill="#fff" opacity=".4"/><path class="cls-26" d="M262.17 181.11a.49.49 0 01-.41-.21.49.49 0 01.12-.69l35.38-25.06 29.3-32.86a.52.52 0 01.38-.17.53.53 0 01.37.18l28.41 34.18 28.7-31.41 34.07-39.89a.51.51 0 01.71-.06.49.49 0 01.05.7l-34.08 39.91-29.09 31.85a.55.55 0 01-.38.16.51.51 0 01-.38-.18l-28.4-34.17L298 155.85a.6.6 0 01-.08.08L262.46 181a.52.52 0 01-.29.11z"/><ellipse cx="555.08" cy="283.38" rx="25.49" ry="41.24" transform="rotate(-83.06 555.054 283.384)" style="mix-blend-mode:lighten" fill="url(#Áåçûìÿííûé_ãðàäèåíò_7-3)" opacity=".4"/><ellipse cx="518.71" cy="276.43" rx="46.73" ry="26.98" style="mix-blend-mode:lighten" fill="url(#Áåçûìÿííûé_ãðàäèåíò_11-3)" opacity=".4"/><path class="cls-7" d="M531.17 288.07L518.9 281c-1.49-.86-1.3-2.36.42-3.35l11.82-6.84a6.47 6.47 0 015.81-.24l12.27 7.07c1.49.86 1.3 2.37-.42 3.36l-11.8 6.83a6.47 6.47 0 01-5.83.24z"/><path d="M533.63 290.67a6.23 6.23 0 01-3.14-.72l-14.56-8.39a2.34 2.34 0 01-1.34-2 3.13 3.13 0 011.84-2.51l14-8.11a8 8 0 017.19-.29l14.55 8.39a2.34 2.34 0 011.34 2 3.15 3.15 0 01-1.83 2.51l-14 8.11a8.41 8.41 0 01-4.05 1.01zm.87-22.14a7.7 7.7 0 00-3.75.94l-14 8.11a2.58 2.58 0 00-1.54 2 1.78 1.78 0 001 1.47l14.55 8.39a7.36 7.36 0 006.6-.29l14-8.11a2.57 2.57 0 001.54-2 1.77 1.77 0 00-1.05-1.47l-14.55-8.39a5.76 5.76 0 00-2.8-.65z" fill="url(#Áåçûìÿííûé_ãðàäèåíò_10)"/><path d="M550.23 265.51h-10.39l-2.84-1.66a6.47 6.47 0 00-5.81.24l-2.85 1.66H517.9v7a1.68 1.68 0 001 1.56l12.27 7.07a6.47 6.47 0 005.81-.24l11.82-6.84a2.45 2.45 0 001.42-1.79z" fill="url(#Áåçûìÿííûé_ãðàäèåíò_4-7)"/><path d="M548.8 273.8l-11.8 6.84a6.47 6.47 0 01-5.81.24l-12.27-7.07a1.68 1.68 0 01-1-1.56v.48a1.68 1.68 0 001 1.56l12.27 7.07a6.47 6.47 0 005.81-.24l11.82-6.84a2.45 2.45 0 001.42-1.79V272a2.46 2.46 0 01-1.44 1.8z" fill="url(#Áåçûìÿííûé_ãðàäèåíò_9-2)"/><path class="cls-9" d="M518.56 273.21v-7h10.38l2.86-1.66a6.44 6.44 0 015.81-.25l2.88 1.66h9.74v-.48h-10.39l-2.84-1.63a6.47 6.47 0 00-5.81.24l-2.85 1.66H517.9v7a1.68 1.68 0 001 1.56l.12.06a1.46 1.46 0 01-.46-1.16z"/><path d="M531.17 274.39l-12.27-7.08c-1.49-.86-1.3-2.36.42-3.35l11.82-6.84a6.47 6.47 0 015.81-.24l12.27 7.12c1.49.86 1.3 2.37-.42 3.36l-11.8 6.79a6.47 6.47 0 01-5.83.24z" fill="url(#Áåçûìÿííûé_ãðàäèåíò_2-8)"/><path class="cls-5" d="M549.22 264L537 256.88a5.38 5.38 0 00-2.93-.57 4.91 4.91 0 012.11.57L548.4 264c1.49.86 1.3 2.37-.42 3.36l-11.82 6.84a6.62 6.62 0 01-2.87.8 6.85 6.85 0 003.69-.8l11.82-6.84c1.72-1.04 1.91-2.55.42-3.36z"/><path class="cls-9" d="M532.11 274.39l-12.27-7.08c-1.49-.86-1.3-2.36.42-3.35l11.82-6.84a6.58 6.58 0 012.83-.8 6.8 6.8 0 00-3.77.8L519.32 264c-1.72 1-1.91 2.49-.42 3.35l12.27 7.08a5.45 5.45 0 003 .56 4.81 4.81 0 01-2.06-.6z"/><path class="cls-5" d="M540.06 269.1a13.28 13.28 0 01-12 0c-3.31-1.92-3.31-5 0-6.93a13.28 13.28 0 0112 0c3.31 1.91 3.31 5.01 0 6.93z"/><path class="cls-11" d="M528.06 264a13.28 13.28 0 0112 0 4.91 4.91 0 012.34 2.56c.5-1.54-.28-3.19-2.34-4.38a13.28 13.28 0 00-12 0c-2.06 1.19-2.83 2.84-2.33 4.38a4.88 4.88 0 012.33-2.56z"/><ellipse cx="507.54" cy="311.53" rx="25.49" ry="41.24" transform="rotate(-83.06 507.516 311.535)" style="mix-blend-mode:lighten" fill="url(#Áåçûìÿííûé_ãðàäèåíò_7-4)" opacity=".4"/><ellipse cx="471.18" cy="304.58" rx="46.73" ry="26.98" style="mix-blend-mode:lighten" fill="url(#Áåçûìÿííûé_ãðàäèåíò_11-4)" opacity=".4"/><path class="cls-7" d="M483.64 316.22l-12.27-7.07c-1.49-.86-1.3-2.37.42-3.36l11.82-6.79a6.47 6.47 0 015.81-.24l12.27 7.08c1.49.86 1.3 2.36-.42 3.35L489.45 316a6.47 6.47 0 01-5.81.22z"/><path d="M486.09 318.83a6.47 6.47 0 01-3.14-.72l-14.55-8.4a2.31 2.31 0 01-1.34-2 3.15 3.15 0 011.83-2.51l14-8.11a8 8 0 017.18-.28l14.56 8.39a2.34 2.34 0 011.34 2 3.11 3.11 0 01-1.84 2.51l-14 8.11a8.28 8.28 0 01-4.04 1.01zm.87-22.14a7.73 7.73 0 00-3.75.94l-14 8.11a2.57 2.57 0 00-1.54 2 1.77 1.77 0 001.05 1.47l14.55 8.39a7.36 7.36 0 006.59-.28l14-8.11a2.58 2.58 0 001.54-2 1.78 1.78 0 00-1-1.47l-14.55-8.39a5.8 5.8 0 00-2.85-.66z" fill="url(#Áåçûìÿííûé_ãðàäèåíò_10-2)"/><path d="M502.69 293.67H492.3l-2.88-1.67a6.47 6.47 0 00-5.81.24l-2.86 1.66h-10.38v7a1.68 1.68 0 001 1.56l12.27 7.08a6.47 6.47 0 005.81-.24l11.82-6.84a2.46 2.46 0 001.41-1.8z" fill="url(#Áåçûìÿííûé_ãðàäèåíò_4-8)"/><path d="M501.27 302l-11.82 6.83a6.44 6.44 0 01-5.81.25L471.37 302a1.68 1.68 0 01-1-1.56v.48a1.68 1.68 0 001 1.56l12.27 7.08a6.47 6.47 0 005.81-.24l11.82-6.84a2.46 2.46 0 001.41-1.8v-.48a2.46 2.46 0 01-1.41 1.8z" fill="url(#Áåçûìÿííûé_ãðàäèåíò_9-3)"/><path class="cls-9" d="M471 301.36v-7h10.39l2.85-1.66a6.47 6.47 0 015.81-.24l2.89 1.66h9.73v-.48H492.3l-2.88-1.64a6.47 6.47 0 00-5.81.24l-2.86 1.66h-10.38v7a1.68 1.68 0 001 1.56l.12.07a1.45 1.45 0 01-.49-1.17z"/><path d="M483.64 302.54l-12.27-7.07c-1.49-.86-1.3-2.37.42-3.36l11.82-6.84a6.47 6.47 0 015.81-.24l12.27 7.08c1.49.86 1.3 2.36-.42 3.35l-11.82 6.84a6.47 6.47 0 01-5.81.24z" fill="url(#Áåçûìÿííûé_ãðàäèåíò_2-9)"/><path class="cls-5" d="M501.69 292.11L489.42 285a5.38 5.38 0 00-2.93-.56 4.81 4.81 0 012.11.56l12.27 7.08c1.49.86 1.3 2.36-.42 3.35l-11.82 6.84a6.63 6.63 0 01-2.88.81 6.9 6.9 0 003.7-.81l11.82-6.84c1.73-.96 1.91-2.43.42-3.32z"/><path class="cls-9" d="M484.58 302.54l-12.27-7.07c-1.49-.86-1.3-2.37.42-3.36l11.82-6.84a6.54 6.54 0 012.83-.8 6.85 6.85 0 00-3.77.8l-11.82 6.84c-1.72 1-1.91 2.5-.42 3.36l12.27 7.07a5.45 5.45 0 003 .56 4.77 4.77 0 01-2.06-.56z"/><path class="cls-5" d="M492.53 297.25a13.28 13.28 0 01-12 0c-3.31-1.91-3.31-5 0-6.93a13.28 13.28 0 0112 0c3.31 1.92 3.31 5.02 0 6.93z"/><path class="cls-11" d="M480.53 292.15a13.28 13.28 0 0112 0 4.83 4.83 0 012.33 2.55c.5-1.54-.27-3.19-2.33-4.38a13.28 13.28 0 00-12 0c-2.06 1.19-2.84 2.84-2.34 4.38a4.89 4.89 0 012.34-2.55z"/><ellipse cx="460.01" cy="339.69" rx="25.49" ry="41.24" transform="rotate(-83.06 459.983 339.692)" style="mix-blend-mode:lighten" fill="url(#Áåçûìÿííûé_ãðàäèåíò_7-5)" opacity=".4"/><ellipse cx="423.64" cy="332.74" rx="46.73" ry="26.98" style="mix-blend-mode:lighten" fill="url(#Áåçûìÿííûé_ãðàäèåíò_11-5)" opacity=".4"/><path class="cls-7" d="M436.1 344.38l-12.27-7.08c-1.49-.86-1.3-2.36.42-3.36l11.82-6.83a6.47 6.47 0 015.81-.24l12.27 7.07c1.49.86 1.3 2.36-.42 3.36l-11.82 6.83a6.44 6.44 0 01-5.81.25z"/><path d="M438.56 347a6.34 6.34 0 01-3.14-.72l-14.56-8.39a2.35 2.35 0 01-1.34-2 3.11 3.11 0 011.84-2.5l14-8.11a8 8 0 017.19-.29l14.55 8.39a2.34 2.34 0 011.34 2 3.15 3.15 0 01-1.83 2.51l-14 8.11a8.41 8.41 0 01-4.05 1zm.87-22.14a7.7 7.7 0 00-3.75.94l-14 8.11a2.58 2.58 0 00-1.54 2 1.79 1.79 0 001 1.48l14.55 8.39a7.36 7.36 0 006.6-.29l14-8.11a2.57 2.57 0 001.54-2 1.77 1.77 0 00-1.05-1.47l-14.55-8.39a5.76 5.76 0 00-2.8-.68z" fill="url(#Áåçûìÿííûé_ãðàäèåíò_10-3)"/><path d="M455.16 321.82h-10.39l-2.89-1.66a6.47 6.47 0 00-5.81.24l-2.85 1.66h-10.39v7a1.68 1.68 0 001 1.56l12.27 7.07a6.47 6.47 0 005.81-.24l11.82-6.84a2.46 2.46 0 001.42-1.8z" fill="url(#Áåçûìÿííûé_ãðàäèåíò_4-9)"/><path d="M453.73 330.11L441.91 337a6.47 6.47 0 01-5.81.24l-12.27-7.08a1.66 1.66 0 01-1-1.55v.39a1.68 1.68 0 001 1.56l12.27 7.07a6.47 6.47 0 005.81-.24l11.82-6.84a2.46 2.46 0 001.42-1.8v-.48a2.46 2.46 0 01-1.42 1.84z" fill="url(#Áåçûìÿííûé_ãðàäèåíò_9-4)"/><path class="cls-9" d="M423.49 329.52v-7h10.38l2.86-1.66a6.47 6.47 0 015.81-.24l2.88 1.66h9.74v-.48h-10.39l-2.89-1.66a6.47 6.47 0 00-5.81.24l-2.85 1.66h-10.39v7a1.68 1.68 0 001 1.56l.12.06a1.46 1.46 0 01-.46-1.14z"/><path d="M436.1 330.7l-12.27-7.08c-1.49-.86-1.3-2.36.42-3.35l11.82-6.84a6.47 6.47 0 015.81-.24l12.27 7.07c1.49.86 1.3 2.37-.42 3.36l-11.82 6.83a6.44 6.44 0 01-5.81.25z" fill="url(#Áåçûìÿííûé_ãðàäèåíò_2-10)"/><path class="cls-5" d="M454.15 320.26l-12.27-7.07a5.38 5.38 0 00-2.93-.57 4.77 4.77 0 012.11.57l12.27 7.07c1.49.86 1.3 2.37-.42 3.36l-11.82 6.83a6.63 6.63 0 01-2.88.81 6.79 6.79 0 003.7-.81l11.82-6.83c1.72-.99 1.91-2.5.42-3.36z"/><path class="cls-9" d="M437 330.7l-12.27-7.08c-1.49-.86-1.3-2.36.42-3.35l11.85-6.84a6.73 6.73 0 012.83-.81 6.89 6.89 0 00-3.77.81l-11.82 6.84c-1.72 1-1.91 2.49-.42 3.35l12.27 7.08a5.45 5.45 0 003 .56 4.92 4.92 0 01-2.09-.56z"/><path class="cls-5" d="M445 325.4a13.22 13.22 0 01-12 0c-3.31-1.91-3.31-5 0-6.92a13.28 13.28 0 0112 0c3.3 1.91 3.3 5.01 0 6.92z"/><path class="cls-11" d="M433 320.3a13.28 13.28 0 0112 0 4.93 4.93 0 012.34 2.55c.5-1.53-.28-3.18-2.34-4.37a13.28 13.28 0 00-12 0c-2.06 1.19-2.83 2.84-2.33 4.37a4.86 4.86 0 012.33-2.55z"/></g></g></svg>