<svg width="92" height="83" fill="none" xmlns="http://www.w3.org/2000/svg"><path d="M27.472 41.208h9.157v13.735h-9.157V41.208zm0 18.314h9.157v13.736h-9.157V59.522zm13.736-9.157h9.157V64.1h-9.157V50.365zm0 18.314h9.157v13.736h-9.157V68.68zm13.735-27.471h9.158v13.735h-9.158V41.208zm0 18.314h9.158v13.736h-9.158V59.522z" fill="#fff"/><path d="M77.58 27.985C75.58 12.225 62.086 0 45.786 0c-12.614 0-23.58 7.376-28.584 19.001C7.367 21.941 0 31.221 0 41.208 0 53.83 10.27 64.1 22.893 64.1v-9.158c-7.573 0-13.736-6.162-13.736-13.735 0-6.424 5.49-12.62 12.239-13.805l2.665-.472.874-2.559c3.219-9.386 11.213-15.215 20.851-15.215 12.623 0 22.893 10.27 22.893 22.893v4.579h4.579c5.05 0 9.157 4.107 9.157 9.157s-4.107 9.157-9.157 9.157h-4.579V64.1h4.579c10.1 0 18.314-8.214 18.314-18.315A18.351 18.351 0 0077.58 27.984z" fill="#fff"/></svg>