<svg width="120" height="88" fill="none" xmlns="http://www.w3.org/2000/svg"><path d="M95.85 22.678c-.719 9.986-8.126 17.679-16.204 17.679-8.078 0-15.498-7.69-16.206-17.679C62.704 12.29 69.915 5 79.646 5c9.73 0 16.941 7.479 16.205 17.678z" stroke="#444" stroke-width="8.286" stroke-linecap="round" stroke-linejoin="round"/><path d="M79.645 56.07c-16.001 0-31.389 7.949-35.243 23.427-.511 2.048.773 4.073 2.877 4.073h64.735c2.104 0 3.381-2.025 2.877-4.073C111.037 63.77 95.649 56.07 79.645 56.07z" stroke="#444" stroke-width="8.286" stroke-miterlimit="10"/><path d="M46.253 27.083c-.575 7.975-6.56 14.256-13.014 14.256-6.452 0-12.448-6.278-13.013-14.256-.587-8.296 5.24-14.226 13.014-14.226 7.773 0 13.6 6.082 13.013 14.226z" stroke="#444" stroke-width="8.286" stroke-linecap="round" stroke-linejoin="round"/><path d="M47.726 56.562c-4.432-2.03-9.313-2.811-14.486-2.811-12.768 0-25.07 6.347-28.15 18.71-.406 1.634.62 3.252 2.3 3.252h27.568" stroke="#444" stroke-width="8.286" stroke-miterlimit="10" stroke-linecap="round"/></svg>