<svg width="68" height="73" fill="none" xmlns="http://www.w3.org/2000/svg"><path d="M43.03 9.093c6.501 0 12.635 2.787 17.272 7.848l6.707-6.147C60.625 3.833 52.109 0 43.029 0c-9.084 0-17.595 3.833-23.97 10.798a36.53 36.53 0 00-7.288 11.935H0v9.094h9.612c-.173 1.5-.291 3.014-.291 4.546 0 1.533.118 3.047.29 4.547H0v9.093h11.771c1.646 4.41 4.097 8.462 7.289 11.94 6.374 6.96 14.885 10.793 23.97 10.793 9.08 0 17.595-3.832 23.974-10.793l-6.706-6.147c-4.633 5.06-10.767 7.847-17.268 7.847-6.502 0-12.631-2.782-17.269-7.847-1.591-1.733-2.841-3.715-3.933-5.793H40.92V40.92H18.819c-.228-1.491-.405-3-.405-4.547 0-1.546.177-3.055.405-4.546h22.1v-9.094H21.83c1.09-2.078 2.346-4.06 3.932-5.792C30.4 11.88 36.528 9.093 43.03 9.093z" fill="#444"/></svg>