<svg width="61" height="61" fill="none" xmlns="http://www.w3.org/2000/svg"><circle cx="30.5" cy="30.5" r="30.5" fill="url(#paint0_linear)"/><path d="M30.765 18C23.715 18 18 23.715 18 30.765c0 6.37 4.667 11.65 10.77 12.61v-8.92h-3.242v-3.69h3.242v-2.813c0-3.202 1.906-4.967 4.82-4.967 1.397 0 2.86.249 2.86.249v3.14h-1.613c-1.583 0-2.079.985-2.079 1.994v2.394h3.538l-.566 3.69h-2.97v8.921c6.103-.956 10.77-6.237 10.77-12.608C43.53 23.715 37.815 18 30.765 18z" fill="#000"/><defs><linearGradient id="paint0_linear" x1="0" y1="44" x2="61" y2="25" gradientUnits="userSpaceOnUse"><stop stop-color="#D3BB4C"/><stop offset="1" stop-color="#A26725"/></linearGradient></defs></svg>