<svg width="60" height="61" fill="none" xmlns="http://www.w3.org/2000/svg"><path d="M44.407 11.431c-.198 0-.393-.052-.564-.152-4.702-2.518-8.767-3.586-13.641-3.586-4.85 0-9.454 1.196-13.643 3.586-.592.335-1.322.101-1.665-.513a1.314 1.314 0 01.49-1.73 29.858 29.858 0 0114.818-3.885c5.216 0 9.772 1.195 14.768 3.865a1.27 1.27 0 01.514 1.703 1.197 1.197 0 01-1.077.712zM9.359 24.781a1.243 1.243 0 01-.71-.229 1.299 1.299 0 01-.294-1.78c2.425-3.56 5.51-6.357 9.185-8.315 7.69-4.115 17.536-4.145 25.25-.025 3.675 1.958 6.76 4.73 9.185 8.264a1.302 1.302 0 01-.294 1.78 1.193 1.193 0 01-1.715-.305c-2.204-3.204-4.995-5.721-8.302-7.476-7.03-3.738-16.018-3.738-23.023.026-3.33 1.78-6.122 4.322-8.326 7.522a1.06 1.06 0 01-.956.538zm15.307 30.697a1.129 1.129 0 01-.857-.382c-2.13-2.216-3.286-3.644-4.923-6.717-1.695-3.128-2.571-6.942-2.571-11.036 0-7.552 6.22-13.706 13.862-13.706 7.643 0 13.867 6.154 13.867 13.706a1.226 1.226 0 11-2.448 0c0-6.154-5.12-11.163-11.413-11.163-6.294 0-11.419 5.01-11.419 11.163 0 3.662.783 7.044 2.277 9.79 1.568 2.924 2.65 4.17 4.532 6.154a1.343 1.343 0 010 1.8c-.24.243-.566.383-.907.39zm17.561-4.705c-2.914 0-5.486-.762-7.592-2.263a13.678 13.678 0 01-5.827-11.163 1.224 1.224 0 012.109-.9 1.226 1.226 0 01.34.9 11.048 11.048 0 004.751 9.053c1.739 1.22 3.772 1.8 6.222 1.8a15.61 15.61 0 002.542-.253c.662-.128 1.298.33 1.42 1.042a1.263 1.263 0 01-1.003 1.475c-.976.193-1.967.295-2.962.305v.004zm-4.923 5.234a1.38 1.38 0 01-.318-.05c-3.895-1.12-6.442-2.62-9.112-5.34-3.43-3.535-5.314-8.24-5.314-13.274 0-4.12 3.38-7.476 7.542-7.476 4.163 0 7.544 3.357 7.544 7.476 0 2.72 2.278 4.933 5.094 4.933 2.816 0 5.094-2.212 5.094-4.933 0-9.587-7.96-17.368-17.756-17.368-6.956 0-13.323 4.018-16.189 10.248-.953 2.06-1.445 4.475-1.445 7.12 0 1.983.17 5.111 1.64 9.18.246.66-.073 1.398-.71 1.627a1.202 1.202 0 01-1.566-.742 29.285 29.285 0 01-1.789-10.065c0-3.052.564-5.827 1.666-8.239 3.258-7.099 10.483-11.697 18.393-11.697 11.144 0 20.206 8.925 20.206 19.91 0 4.12-3.38 7.477-7.544 7.477s-7.544-3.357-7.544-7.476c.002-2.721-2.276-4.938-5.093-4.938-2.816 0-5.094 2.212-5.094 4.933 0 4.344 1.617 8.417 4.58 11.468 2.331 2.39 4.556 3.709 8.01 4.705.66.178 1.028.89.857 1.55a1.207 1.207 0 01-1.152.971z" fill="#444"/></svg>