<svg width="138" height="42" fill="none" xmlns="http://www.w3.org/2000/svg"><path d="M18.084 11.384L19.77.636h2.932l-4.264 26.56h-2.843l2.043-13.058H7.335L5.292 27.196h-3.02L6.536.636h3.02L7.868 11.384h10.216zm4.885 7.106c.8-4.886 5.24-8.794 10.038-8.794 4.885 0 8.083 3.908 7.284 8.794-.8 4.886-5.241 8.705-10.038 8.705-4.797 0-7.995-3.908-7.284-8.705zm2.842-.089c-.533 3.375 1.422 6.13 4.886 6.13 3.464 0 6.307-2.755 6.84-6.13.533-3.376-1.422-6.13-4.886-6.13-3.464.09-6.307 2.843-6.84 6.13zM49.085.636l-4.175 26.56h-2.843L46.242.636" fill="#C31328"/><path d="M60.367 3.39l-1.244 7.905h8.794l-.444 2.754h-8.794l-2.132 13.147h-2.931L57.88.636h12.08l-.444 2.753h-9.15zm7.905 15.011c.8-4.885 5.241-8.794 10.038-8.794 4.886 0 8.084 3.909 7.284 8.794-.8 4.886-5.24 8.706-10.037 8.706-4.797 0-7.995-3.909-7.285-8.706zm2.843-.088c-.533 3.375 1.421 6.129 4.886 6.129 3.464 0 6.306-2.754 6.84-6.13.533-3.375-1.422-6.129-4.886-6.129-3.464.09-6.307 2.843-6.84 6.13zm21.141-6.396c1.243-1.332 2.22-2.398 4.086-2.398.977 0 1.688.355 2.398.799l-1.776 2.665c-.534-.444-.889-.8-1.6-.8-3.02 0-3.82 4.087-4.174 6.307l-1.333 8.617h-2.842L89.68 9.874h2.842l-.266 2.043zm8.438 7.017c-.444 3.02 1.422 5.508 4.531 5.508 2.398 0 4.175-1.421 5.596-3.376l2.132 1.333c-2.043 3.02-4.975 4.708-8.35 4.708-4.886 0-7.462-3.82-6.662-8.528.8-4.885 4.264-8.972 9.416-8.972 5.329 0 7.372 4.442 6.306 9.416h-12.969v-.088zm10.482-2.398c0-2.398-1.688-4.264-4.175-4.264-2.398 0-4.974 1.866-5.774 4.264h9.949z" fill="#fff"/><path d="M111.266.813h3.464l8.528 14.657 5.152-6.04h3.553l-7.284 8.261 12.614 21.585h-3.375l-11.282-19.364-6.395 7.195h-3.465l8.439-9.416L111.266.813zM5.647 35.367l.445-2.664h.71l-1.066 6.662h-.71l.533-3.287H2.183l-.533 3.287H.94l1.065-6.662h.711l-.444 2.664h3.375zm1.333 1.866c.178-1.244 1.333-2.22 2.488-2.22 1.243 0 2.043.976 1.865 2.22-.177 1.244-1.332 2.22-2.487 2.22-1.244 0-2.043-.977-1.865-2.22zm.711 0c-.177.888.356 1.51 1.244 1.51s1.599-.71 1.688-1.51c.177-.8-.356-1.51-1.244-1.51-.8 0-1.51.71-1.688 1.51zm5.417-1.599c.356-.355.8-.622 1.333-.622 1.155 0 1.243.8 1.155 1.777l-.356 2.487h-.71l.355-2.31c.089-.71.178-1.243-.622-1.243-.977 0-1.155.888-1.332 1.599l-.267 1.954h-.71l.621-4.175h.711l-.178.533zm3.909 1.776c-.088.8.356 1.333 1.155 1.333.622 0 1.066-.355 1.421-.888l.533.355c-.533.71-1.243 1.155-2.132 1.155-1.243 0-1.865-.977-1.687-2.132.177-1.244 1.066-2.22 2.398-2.22 1.333 0 1.866 1.065 1.599 2.309h-3.287v.089zm2.665-.621c0-.622-.444-1.066-1.066-1.066-.622 0-1.243.444-1.421 1.066h2.487zm3.375-.621c-.089-.177-.266-.444-.533-.444a.668.668 0 00-.622.444c-.089.356.356.533.8.711.444.178.888.533.8 1.155-.09.8-.8 1.332-1.6 1.332-.71 0-1.155-.355-1.332-1.066l.622-.266c.088.355.266.622.71.622.356 0 .71-.267.8-.622.177-.889-1.777-.622-1.6-1.954.09-.711.8-1.155 1.422-1.155.444 0 .888.355.977.8l-.444.443zm1.954 3.197h-.71l.533-3.465h-.444l.088-.621h.445l.266-1.51h.71l-.266 1.51h.71l-.088.621h-.71l-.534 3.465z" fill="#fff"/><path d="M26.167 35.19h.8l.977 2.931 1.776-2.931h.8l-4.086 6.485h-.8l1.777-2.754-1.244-3.731zm8.439 1.689l-.09.622H32.74l.09-.622h1.776zm9.861-.889c-.267 1.954-2.132 3.464-3.998 3.464-1.865 0-3.198-1.51-2.931-3.464.266-1.866 2.132-3.465 3.997-3.465 1.866 0 3.198 1.6 2.932 3.465zm-6.218 0c-.267 1.51.799 2.753 2.309 2.753 1.51 0 2.931-1.243 3.11-2.753.266-1.51-.8-2.754-2.31-2.754-1.422 0-2.843 1.244-3.11 2.754zm7.816-.267c.444-.444.977-.71 1.51-.71 1.244 0 1.866 1.065 1.6 2.22-.178 1.155-1.067 2.22-2.31 2.22-.533 0-1.066-.266-1.333-.71l-.444 2.931h-.71l1.065-6.484h.711l-.089.533zm-.266 1.51c-.178.8.266 1.599 1.066 1.599.888 0 1.51-.71 1.599-1.6.088-.798-.267-1.51-1.155-1.51-.71 0-1.421.712-1.51 1.51zm4.618.177c-.09.8.355 1.333 1.154 1.333.622 0 1.067-.355 1.422-.888l.533.355c-.533.71-1.244 1.155-2.132 1.155-1.244 0-1.865-.977-1.688-2.132.178-1.244 1.066-2.22 2.398-2.22 1.333 0 1.866 1.065 1.6 2.309h-3.287v.089zm2.665-.621c0-.622-.444-1.066-1.066-1.066-.622 0-1.244.444-1.422 1.066h2.488zm2.488-1.155c.355-.355.8-.622 1.332-.622 1.155 0 1.244.8 1.155 1.777l-.355 2.487h-.71l.354-2.31c.09-.71.178-1.243-.621-1.243-.977 0-1.155.888-1.333 1.599l-.266 1.954h-.711l.622-4.175h.71l-.177.533zm4.53 0c.354-.355.799-.622 1.332-.622 1.154 0 1.243.8 1.154 1.777l-.355 2.487h-.71l.355-2.31c.089-.71.177-1.243-.622-1.243-.977 0-1.155.888-1.333 1.599l-.266 1.954h-.71l.621-4.175h.71l-.177.533zm3.82 1.776c-.089.8.355 1.333 1.155 1.333.622 0 1.066-.355 1.421-.888l.533.355c-.533.71-1.243 1.155-2.132 1.155-1.243 0-1.865-.977-1.688-2.132.178-1.244 1.066-2.22 2.399-2.22 1.332 0 1.865 1.065 1.599 2.309H63.92v.089zm2.665-.621c0-.622-.444-1.066-1.066-1.066-.622 0-1.244.444-1.421 1.066h2.487zm3.375-.621c-.089-.177-.267-.444-.533-.444a.668.668 0 00-.622.444c-.089.356.355.533.8.711.444.178.888.533.799 1.155-.089.8-.8 1.332-1.599 1.332-.71 0-1.155-.355-1.332-1.066l.621-.266c.09.355.267.622.711.622.355 0 .71-.267.8-.622.177-.889-1.777-.622-1.6-1.954.09-.711.8-1.155 1.422-1.155.444 0 .888.355.977.8l-.444.443zm3.376 0c-.089-.177-.267-.444-.533-.444a.668.668 0 00-.622.444c-.089.356.355.533.8.711.444.178.888.533.799 1.155-.089.8-.8 1.332-1.599 1.332-.71 0-1.155-.355-1.332-1.066l.621-.266c.09.355.267.622.711.622.355 0 .71-.267.8-.622.177-.889-1.777-.622-1.6-1.954.09-.711.8-1.155 1.422-1.155.444 0 .888.355.977.8l-.444.443zm5.329.711l-.09.622H76.8l.09-.622h1.776zm4.53 2.486h-.71l.976-5.951h-1.599l.09-.71h3.996l-.088.71h-1.6l-1.065 5.951zm3.198-3.73c.355-.355.533-.533 1.066-.533.266 0 .444.089.622.178l-.444.621c-.178-.088-.178-.177-.356-.177-.8 0-.977.977-1.066 1.51l-.355 2.043h-.71l.621-4.175h.71l-.088.533zm5.33 3.731h-.711l.089-.533c-.444.444-.977.71-1.51.71-1.244 0-1.777-1.065-1.6-2.22.178-1.155 1.067-2.22 2.31-2.22.533 0 .977.265 1.333.71l.089-.622h.71l-.71 4.175zm-3.02-2.132c-.178.8.266 1.599 1.065 1.599.889 0 1.51-.71 1.6-1.6.088-.798-.267-1.51-1.155-1.51-.8 0-1.422.712-1.51 1.51zm5.507-1.6c.355-.355.799-.622 1.332-.622 1.155 0 1.243.8 1.155 1.777l-.356 2.487h-.8l.356-2.31c.089-.71.178-1.243-.622-1.243-.977 0-1.154.888-1.243 1.599l-.356 1.954h-.71l.622-4.175h.71l-.089.533zm5.419.534c-.089-.177-.267-.444-.533-.444a.668.668 0 00-.622.444c-.089.356.355.533.8.711.444.178.888.533.799 1.155-.089.8-.8 1.332-1.599 1.332-.71 0-1.155-.355-1.332-1.066l.621-.266c.09.355.267.622.711.622.355 0 .71-.267.8-.622.177-.889-1.777-.622-1.6-1.954.09-.711.8-1.155 1.422-1.155.444 0 .888.355.977.8l-.444.443zm2.486-.445c.445-.444.978-.71 1.511-.71 1.243 0 1.865 1.065 1.598 2.22-.177 1.155-1.065 2.22-2.309 2.22-.533 0-1.066-.266-1.332-.71l-.445 2.931h-.71l1.066-6.484h.71l-.089.533zm-.266 1.51c-.178.8.178 1.599 1.066 1.599.888 0 1.51-.71 1.599-1.6.089-.798-.267-1.51-1.155-1.51-.799 0-1.421.712-1.51 1.51zm7.729 2.133h-.711l.089-.533c-.444.444-.977.71-1.51.71-1.244 0-1.777-1.065-1.599-2.22.177-1.155 1.066-2.22 2.309-2.22.533 0 .977.265 1.333.71l.089-.622h.71l-.71 4.175zm-3.021-2.132c-.177.8.178 1.599 1.066 1.599.889 0 1.51-.71 1.599-1.6.089-.798-.266-1.51-1.154-1.51-.8 0-1.422.712-1.511 1.51zm5.507-1.599c.356-.355.533-.533 1.066-.533.267 0 .445.089.622.178l-.444.621c-.178-.088-.178-.177-.355-.177-.8 0-.977.977-1.066 1.51l-.356 2.043h-.71l.622-4.175h.71l-.089.533zm2.22 1.775c-.088.8.356 1.333 1.155 1.333.622 0 1.066-.355 1.421-.888l.533.355c-.533.71-1.243 1.155-2.131 1.155-1.244 0-1.866-.977-1.688-2.132.177-1.244 1.066-2.22 2.398-2.22 1.333 0 1.866 1.065 1.599 2.309h-3.287v.089zm2.576-.621c0-.622-.444-1.066-1.065-1.066-.622 0-1.244.444-1.422 1.066h2.487zm2.489-1.155c.355-.355.799-.622 1.332-.622 1.155 0 1.244.8 1.155 1.777l-.355 2.487h-.711l.355-2.31c.089-.71.178-1.243-.622-1.243-.977 0-1.154.888-1.332 1.599l-.267 1.954h-.71l.622-4.175h.71l-.177.533zm6.75.8c-.266-.445-.622-.711-1.243-.711-.889 0-1.599.71-1.688 1.51-.178.8.355 1.51 1.155 1.51.621 0 1.066-.267 1.421-.71l-.178.977c-.444.266-.888.444-1.332.444-1.244 0-2.043-.977-1.866-2.221.178-1.244 1.333-2.22 2.576-2.22.445 0 .889.177 1.244.443l-.089.977zm.534-1.244h.8l.977 2.931 1.776-2.931h.8l-4.086 6.485h-.8l1.777-2.754-1.244-3.731z" fill="#fff"/><path d="M42.333 11.295h12.17l-.444 2.665h-12.17" fill="#C31328"/></svg>