<svg width="594" height="595" fill="none" xmlns="http://www.w3.org/2000/svg"><path d="M0 3.074a3.074 3.074 0 116.148 0 3.074 3.074 0 01-6.148 0z" fill="url(#paint0_linear)"/><path d="M15.984 3.074a3.074 3.074 0 116.147 0 3.074 3.074 0 01-6.147 0z" fill="url(#paint1_linear)"/><path d="M31.967 3.074a3.074 3.074 0 116.148 0 3.074 3.074 0 01-6.148 0z" fill="url(#paint2_linear)"/><path d="M47.95 3.074a3.074 3.074 0 116.148 0 3.074 3.074 0 01-6.147 0z" fill="url(#paint3_linear)"/><path d="M63.934 3.074a3.074 3.074 0 116.148 0 3.074 3.074 0 01-6.148 0z" fill="url(#paint4_linear)"/><path d="M79.918 3.074a3.074 3.074 0 116.148 0 3.074 3.074 0 01-6.148 0z" fill="url(#paint5_linear)"/><path d="M95.902 3.074a3.074 3.074 0 116.147 0 3.074 3.074 0 01-6.147 0z" fill="url(#paint6_linear)"/><path d="M111.885 3.074a3.074 3.074 0 116.147 0 3.074 3.074 0 01-6.147 0z" fill="url(#paint7_linear)"/><path d="M127.869 3.074a3.074 3.074 0 116.147 0 3.074 3.074 0 01-6.147 0z" fill="url(#paint8_linear)"/><path d="M143.852 3.074a3.074 3.074 0 116.149 0 3.074 3.074 0 01-6.149 0z" fill="url(#paint9_linear)"/><path d="M0 19.057a3.074 3.074 0 116.148 0 3.074 3.074 0 01-6.148 0z" fill="url(#paint10_linear)"/><path d="M15.984 19.057a3.074 3.074 0 116.147 0 3.074 3.074 0 01-6.147 0z" fill="url(#paint11_linear)"/><path d="M31.967 19.057a3.074 3.074 0 116.148 0 3.074 3.074 0 01-6.148 0z" fill="url(#paint12_linear)"/><path d="M47.95 19.057a3.074 3.074 0 116.148 0 3.074 3.074 0 01-6.147 0z" fill="url(#paint13_linear)"/><path d="M63.934 19.057a3.074 3.074 0 116.148 0 3.074 3.074 0 01-6.148 0z" fill="url(#paint14_linear)"/><path d="M79.918 19.057a3.074 3.074 0 116.148 0 3.074 3.074 0 01-6.148 0z" fill="url(#paint15_linear)"/><path d="M95.902 19.057a3.074 3.074 0 116.147 0 3.074 3.074 0 01-6.147 0z" fill="url(#paint16_linear)"/><path d="M111.885 19.057a3.074 3.074 0 116.147 0 3.074 3.074 0 01-6.147 0z" fill="url(#paint17_linear)"/><path d="M127.869 19.057a3.074 3.074 0 116.147 0 3.074 3.074 0 01-6.147 0z" fill="url(#paint18_linear)"/><path d="M143.852 19.057a3.074 3.074 0 116.149.002 3.074 3.074 0 01-6.149-.002z" fill="url(#paint19_linear)"/><path d="M0 35.041a3.074 3.074 0 116.148 0 3.074 3.074 0 01-6.148 0z" fill="url(#paint20_linear)"/><path d="M15.984 35.041a3.074 3.074 0 116.147 0 3.074 3.074 0 01-6.147 0z" fill="url(#paint21_linear)"/><path d="M31.967 35.041a3.074 3.074 0 116.148 0 3.074 3.074 0 01-6.148 0z" fill="url(#paint22_linear)"/><path d="M47.95 35.041a3.074 3.074 0 116.148 0 3.074 3.074 0 01-6.147 0z" fill="url(#paint23_linear)"/><path d="M63.934 35.041a3.074 3.074 0 116.148 0 3.074 3.074 0 01-6.148 0z" fill="url(#paint24_linear)"/><path d="M79.918 35.041a3.074 3.074 0 116.148 0 3.074 3.074 0 01-6.148 0z" fill="url(#paint25_linear)"/><path d="M95.902 35.041a3.074 3.074 0 116.147 0 3.074 3.074 0 01-6.147 0z" fill="url(#paint26_linear)"/><path d="M111.885 35.041a3.074 3.074 0 116.147 0 3.074 3.074 0 01-6.147 0z" fill="url(#paint27_linear)"/><path d="M127.869 35.041a3.074 3.074 0 116.147 0 3.074 3.074 0 01-6.147 0z" fill="url(#paint28_linear)"/><path d="M143.852 35.041a3.074 3.074 0 116.149.001 3.074 3.074 0 01-6.149-.001z" fill="url(#paint29_linear)"/><path d="M0 51.025a3.074 3.074 0 116.148 0 3.074 3.074 0 01-6.148 0z" fill="url(#paint30_linear)"/><path d="M15.984 51.025a3.074 3.074 0 116.147 0 3.074 3.074 0 01-6.147 0z" fill="url(#paint31_linear)"/><path d="M31.967 51.025a3.074 3.074 0 116.148 0 3.074 3.074 0 01-6.148 0z" fill="url(#paint32_linear)"/><path d="M47.95 51.025a3.074 3.074 0 116.148 0 3.074 3.074 0 01-6.147 0z" fill="url(#paint33_linear)"/><path d="M63.934 51.025a3.074 3.074 0 116.148 0 3.074 3.074 0 01-6.148 0z" fill="url(#paint34_linear)"/><path d="M79.918 51.025a3.074 3.074 0 116.148 0 3.074 3.074 0 01-6.148 0z" fill="url(#paint35_linear)"/><path d="M95.902 51.025a3.074 3.074 0 116.147 0 3.074 3.074 0 01-6.147 0z" fill="url(#paint36_linear)"/><path d="M111.885 51.025a3.074 3.074 0 116.147 0 3.074 3.074 0 01-6.147 0z" fill="url(#paint37_linear)"/><path d="M127.869 51.025a3.074 3.074 0 116.147 0 3.074 3.074 0 01-6.147 0z" fill="url(#paint38_linear)"/><path d="M143.852 51.025a3.074 3.074 0 116.149 0 3.074 3.074 0 01-6.149 0z" fill="url(#paint39_linear)"/><path d="M0 67.008a3.074 3.074 0 116.148 0 3.074 3.074 0 01-6.148 0z" fill="url(#paint40_linear)"/><path d="M15.984 67.008a3.074 3.074 0 116.147 0 3.074 3.074 0 01-6.147 0z" fill="url(#paint41_linear)"/><path d="M31.967 67.008a3.074 3.074 0 116.148 0 3.074 3.074 0 01-6.148 0z" fill="url(#paint42_linear)"/><path d="M47.95 67.008a3.074 3.074 0 116.148 0 3.074 3.074 0 01-6.147 0z" fill="url(#paint43_linear)"/><path d="M63.934 67.008a3.074 3.074 0 116.148 0 3.074 3.074 0 01-6.148 0z" fill="url(#paint44_linear)"/><path d="M79.918 67.008a3.074 3.074 0 116.148 0 3.074 3.074 0 01-6.148 0z" fill="url(#paint45_linear)"/><path d="M95.902 67.008a3.074 3.074 0 116.147 0 3.074 3.074 0 01-6.147 0z" fill="url(#paint46_linear)"/><path d="M111.885 67.008a3.074 3.074 0 116.147 0 3.074 3.074 0 01-6.147 0z" fill="url(#paint47_linear)"/><path d="M127.869 67.008a3.074 3.074 0 116.147 0 3.074 3.074 0 01-6.147 0z" fill="url(#paint48_linear)"/><path d="M143.852 67.008a3.074 3.074 0 116.149.001 3.074 3.074 0 01-6.149 0z" fill="url(#paint49_linear)"/><path d="M0 82.992a3.074 3.074 0 116.148 0 3.074 3.074 0 01-6.148 0z" fill="url(#paint50_linear)"/><path d="M15.984 82.992a3.074 3.074 0 116.147 0 3.074 3.074 0 01-6.147 0z" fill="url(#paint51_linear)"/><path d="M31.967 82.992a3.074 3.074 0 116.148 0 3.074 3.074 0 01-6.148 0z" fill="url(#paint52_linear)"/><path d="M47.95 82.992a3.074 3.074 0 116.148 0 3.074 3.074 0 01-6.147 0z" fill="url(#paint53_linear)"/><path d="M63.934 82.992a3.074 3.074 0 116.148 0 3.074 3.074 0 01-6.148 0z" fill="url(#paint54_linear)"/><path d="M79.918 82.992a3.074 3.074 0 116.148 0 3.074 3.074 0 01-6.148 0z" fill="url(#paint55_linear)"/><path d="M95.902 82.992a3.074 3.074 0 116.147 0 3.074 3.074 0 01-6.147 0z" fill="url(#paint56_linear)"/><path d="M111.885 82.992a3.074 3.074 0 116.147 0 3.074 3.074 0 01-6.147 0z" fill="url(#paint57_linear)"/><path d="M127.869 82.992a3.074 3.074 0 116.147 0 3.074 3.074 0 01-6.147 0z" fill="url(#paint58_linear)"/><path d="M143.852 82.992a3.074 3.074 0 116.149 0 3.074 3.074 0 01-6.149 0z" fill="url(#paint59_linear)"/><path d="M0 98.975a3.074 3.074 0 116.148 0 3.074 3.074 0 01-6.148 0z" fill="url(#paint60_linear)"/><path d="M15.984 98.975a3.074 3.074 0 116.147 0 3.074 3.074 0 01-6.147 0z" fill="url(#paint61_linear)"/><path d="M31.967 98.975a3.074 3.074 0 116.148 0 3.074 3.074 0 01-6.148 0z" fill="url(#paint62_linear)"/><path d="M47.95 98.975a3.074 3.074 0 116.148 0 3.074 3.074 0 01-6.147 0z" fill="url(#paint63_linear)"/><path d="M63.934 98.975a3.074 3.074 0 116.148 0 3.074 3.074 0 01-6.148 0z" fill="url(#paint64_linear)"/><path d="M79.918 98.975a3.074 3.074 0 116.148 0 3.074 3.074 0 01-6.148 0z" fill="url(#paint65_linear)"/><path d="M95.902 98.975a3.074 3.074 0 116.147 0 3.074 3.074 0 01-6.147 0z" fill="url(#paint66_linear)"/><path d="M111.885 98.975a3.074 3.074 0 116.147 0 3.074 3.074 0 01-6.147 0z" fill="url(#paint67_linear)"/><path d="M127.869 98.975a3.074 3.074 0 116.147 0 3.074 3.074 0 01-6.147 0z" fill="url(#paint68_linear)"/><path d="M143.852 98.975a3.074 3.074 0 116.149.002 3.074 3.074 0 01-6.149-.002z" fill="url(#paint69_linear)"/><path d="M0 114.959a3.074 3.074 0 116.147 0 3.074 3.074 0 01-6.147 0z" fill="url(#paint70_linear)"/><path d="M15.984 114.959a3.074 3.074 0 116.147 0 3.074 3.074 0 01-6.147 0z" fill="url(#paint71_linear)"/><path d="M31.967 114.959a3.074 3.074 0 116.148 0 3.074 3.074 0 01-6.148 0z" fill="url(#paint72_linear)"/><path d="M47.95 114.959a3.074 3.074 0 116.148 0 3.074 3.074 0 01-6.147 0z" fill="url(#paint73_linear)"/><path d="M63.934 114.959a3.074 3.074 0 116.148 0 3.074 3.074 0 01-6.148 0z" fill="url(#paint74_linear)"/><path d="M79.918 114.959a3.074 3.074 0 116.147 0 3.074 3.074 0 01-6.147 0z" fill="url(#paint75_linear)"/><path d="M95.902 114.959a3.074 3.074 0 116.147 0 3.074 3.074 0 01-6.147 0z" fill="url(#paint76_linear)"/><path d="M111.885 114.959a3.074 3.074 0 116.147 0 3.074 3.074 0 01-6.147 0z" fill="url(#paint77_linear)"/><path d="M127.869 114.959a3.074 3.074 0 116.147 0 3.074 3.074 0 01-6.147 0z" fill="url(#paint78_linear)"/><path d="M143.852 114.959a3.074 3.074 0 116.149 0 3.074 3.074 0 01-6.149 0z" fill="url(#paint79_linear)"/><path d="M0 130.943a3.074 3.074 0 116.147 0 3.074 3.074 0 01-6.147 0z" fill="url(#paint80_linear)"/><path d="M15.984 130.943a3.074 3.074 0 116.147 0 3.074 3.074 0 01-6.147 0z" fill="url(#paint81_linear)"/><path d="M31.967 130.943a3.074 3.074 0 116.148 0 3.074 3.074 0 01-6.148 0z" fill="url(#paint82_linear)"/><path d="M47.95 130.943a3.074 3.074 0 116.148 0 3.074 3.074 0 01-6.147 0z" fill="url(#paint83_linear)"/><path d="M63.934 130.943a3.074 3.074 0 116.148 0 3.074 3.074 0 01-6.148 0z" fill="url(#paint84_linear)"/><path d="M79.918 130.943a3.074 3.074 0 116.147 0 3.074 3.074 0 01-6.147 0z" fill="url(#paint85_linear)"/><path d="M95.902 130.943a3.074 3.074 0 116.147 0 3.074 3.074 0 01-6.147 0z" fill="url(#paint86_linear)"/><path d="M111.885 130.943a3.074 3.074 0 116.147 0 3.074 3.074 0 01-6.147 0z" fill="url(#paint87_linear)"/><path d="M127.869 130.943a3.074 3.074 0 116.147 0 3.074 3.074 0 01-6.147 0z" fill="url(#paint88_linear)"/><path d="M143.852 130.943a3.074 3.074 0 116.149 0 3.074 3.074 0 01-6.149 0z" fill="url(#paint89_linear)"/><path d="M0 146.926a3.074 3.074 0 116.149 0 3.074 3.074 0 01-6.149 0z" fill="url(#paint90_linear)"/><path d="M15.984 146.926a3.074 3.074 0 116.148 0 3.074 3.074 0 01-6.148 0z" fill="url(#paint91_linear)"/><path d="M31.967 146.926a3.074 3.074 0 116.149 0 3.074 3.074 0 01-6.149 0z" fill="url(#paint92_linear)"/><path d="M47.95 146.926a3.074 3.074 0 116.15 0 3.074 3.074 0 01-6.15 0z" fill="url(#paint93_linear)"/><path d="M63.934 146.926a3.074 3.074 0 116.15 0 3.074 3.074 0 01-6.15 0z" fill="url(#paint94_linear)"/><path d="M79.918 146.926a3.074 3.074 0 116.149 0 3.074 3.074 0 01-6.149 0z" fill="url(#paint95_linear)"/><path d="M95.902 146.926a3.074 3.074 0 116.148 0 3.074 3.074 0 01-6.148 0z" fill="url(#paint96_linear)"/><path d="M111.885 146.926a3.074 3.074 0 116.149 0 3.074 3.074 0 01-6.149 0z" fill="url(#paint97_linear)"/><path d="M127.869 146.926a3.074 3.074 0 116.149 0 3.074 3.074 0 01-6.149 0z" fill="url(#paint98_linear)"/><path d="M143.852 146.926a3.075 3.075 0 116.15.002 3.075 3.075 0 01-6.15-.002z" fill="url(#paint99_linear)"/><path d="M244 305.074a3.074 3.074 0 116.147 0 3.074 3.074 0 01-6.147 0z" fill="url(#paint100_linear)"/><path d="M259.984 305.074a3.073 3.073 0 116.147-.001 3.073 3.073 0 01-6.147.001z" fill="url(#paint101_linear)"/><path d="M275.967 305.074a3.074 3.074 0 116.147 0 3.074 3.074 0 01-6.147 0z" fill="url(#paint102_linear)"/><path d="M291.951 305.074a3.074 3.074 0 116.147 0 3.074 3.074 0 01-6.147 0z" fill="url(#paint103_linear)"/><path d="M307.934 305.074a3.074 3.074 0 116.149 0 3.074 3.074 0 01-6.149 0z" fill="url(#paint104_linear)"/><path d="M323.918 305.074a3.074 3.074 0 116.147 0 3.074 3.074 0 01-6.147 0z" fill="url(#paint105_linear)"/><path d="M339.902 305.074a3.073 3.073 0 116.147-.001 3.073 3.073 0 01-6.147.001z" fill="url(#paint106_linear)"/><path d="M355.885 305.074a3.074 3.074 0 116.147 0 3.074 3.074 0 01-6.147 0z" fill="url(#paint107_linear)"/><path d="M371.869 305.074a3.074 3.074 0 116.147 0 3.074 3.074 0 01-6.147 0z" fill="url(#paint108_linear)"/><path d="M387.852 305.074a3.074 3.074 0 116.149 0 3.074 3.074 0 01-6.149 0z" fill="url(#paint109_linear)"/><path d="M244 321.057a3.073 3.073 0 116.147 0 3.073 3.073 0 01-6.147 0z" fill="url(#paint110_linear)"/><path d="M259.984 321.057a3.073 3.073 0 116.146 0 3.073 3.073 0 01-6.146 0z" fill="url(#paint111_linear)"/><path d="M275.967 321.057a3.073 3.073 0 116.147 0 3.073 3.073 0 01-6.147 0z" fill="url(#paint112_linear)"/><path d="M291.951 321.057a3.073 3.073 0 116.147 0 3.073 3.073 0 01-6.147 0z" fill="url(#paint113_linear)"/><path d="M307.934 321.057a3.074 3.074 0 116.148.002 3.074 3.074 0 01-6.148-.002z" fill="url(#paint114_linear)"/><path d="M323.918 321.057a3.073 3.073 0 116.147 0 3.073 3.073 0 01-6.147 0z" fill="url(#paint115_linear)"/><path d="M339.902 321.057a3.073 3.073 0 116.146 0 3.073 3.073 0 01-6.146 0z" fill="url(#paint116_linear)"/><path d="M355.885 321.057a3.073 3.073 0 116.147 0 3.073 3.073 0 01-6.147 0z" fill="url(#paint117_linear)"/><path d="M371.869 321.057a3.073 3.073 0 116.147 0 3.073 3.073 0 01-6.147 0z" fill="url(#paint118_linear)"/><path d="M387.852 321.057a3.074 3.074 0 116.148.002 3.074 3.074 0 01-6.148-.002z" fill="url(#paint119_linear)"/><path d="M244 337.041a3.074 3.074 0 116.147 0 3.074 3.074 0 01-6.147 0z" fill="url(#paint120_linear)"/><path d="M259.984 337.041a3.073 3.073 0 116.147-.001 3.073 3.073 0 01-6.147.001z" fill="url(#paint121_linear)"/><path d="M275.967 337.041a3.074 3.074 0 116.147 0 3.074 3.074 0 01-6.147 0z" fill="url(#paint122_linear)"/><path d="M291.951 337.041a3.074 3.074 0 116.147 0 3.074 3.074 0 01-6.147 0z" fill="url(#paint123_linear)"/><path d="M307.934 337.041a3.074 3.074 0 116.149 0 3.074 3.074 0 01-6.149 0z" fill="url(#paint124_linear)"/><path d="M323.918 337.041a3.074 3.074 0 116.147 0 3.074 3.074 0 01-6.147 0z" fill="url(#paint125_linear)"/><path d="M339.902 337.041a3.073 3.073 0 116.147-.001 3.073 3.073 0 01-6.147.001z" fill="url(#paint126_linear)"/><path d="M355.885 337.041a3.074 3.074 0 116.147 0 3.074 3.074 0 01-6.147 0z" fill="url(#paint127_linear)"/><path d="M371.869 337.041a3.074 3.074 0 116.147 0 3.074 3.074 0 01-6.147 0z" fill="url(#paint128_linear)"/><path d="M387.852 337.041a3.074 3.074 0 116.149 0 3.074 3.074 0 01-6.149 0z" fill="url(#paint129_linear)"/><path d="M244 353.025a3.074 3.074 0 116.147 0 3.074 3.074 0 01-6.147 0z" fill="url(#paint130_linear)"/><path d="M259.984 353.025a3.073 3.073 0 116.147-.001 3.073 3.073 0 01-6.147.001z" fill="url(#paint131_linear)"/><path d="M275.967 353.025a3.074 3.074 0 116.147 0 3.074 3.074 0 01-6.147 0z" fill="url(#paint132_linear)"/><path d="M291.951 353.025a3.074 3.074 0 116.147 0 3.074 3.074 0 01-6.147 0z" fill="url(#paint133_linear)"/><path d="M307.934 353.025a3.074 3.074 0 116.149 0 3.074 3.074 0 01-6.149 0z" fill="url(#paint134_linear)"/><path d="M323.918 353.025a3.074 3.074 0 116.147 0 3.074 3.074 0 01-6.147 0z" fill="url(#paint135_linear)"/><path d="M339.902 353.025a3.073 3.073 0 116.147-.001 3.073 3.073 0 01-6.147.001z" fill="url(#paint136_linear)"/><path d="M355.885 353.025a3.074 3.074 0 116.147 0 3.074 3.074 0 01-6.147 0z" fill="url(#paint137_linear)"/><path d="M371.869 353.025a3.074 3.074 0 116.147 0 3.074 3.074 0 01-6.147 0z" fill="url(#paint138_linear)"/><path d="M387.852 353.025a3.074 3.074 0 116.149 0 3.074 3.074 0 01-6.149 0z" fill="url(#paint139_linear)"/><path d="M244 369.008a3.074 3.074 0 116.149 0 3.074 3.074 0 01-6.149 0z" fill="url(#paint140_linear)"/><path d="M259.984 369.008a3.074 3.074 0 116.148 0 3.074 3.074 0 01-6.148 0z" fill="url(#paint141_linear)"/><path d="M275.967 369.008a3.074 3.074 0 116.149 0 3.074 3.074 0 01-6.149 0z" fill="url(#paint142_linear)"/><path d="M291.951 369.008a3.074 3.074 0 116.149 0 3.074 3.074 0 01-6.149 0z" fill="url(#paint143_linear)"/><path d="M307.934 369.008a3.075 3.075 0 116.15.002 3.075 3.075 0 01-6.15-.002z" fill="url(#paint144_linear)"/><path d="M323.918 369.008a3.074 3.074 0 116.149 0 3.074 3.074 0 01-6.149 0z" fill="url(#paint145_linear)"/><path d="M339.902 369.008a3.074 3.074 0 116.148 0 3.074 3.074 0 01-6.148 0z" fill="url(#paint146_linear)"/><path d="M355.885 369.008a3.074 3.074 0 116.149 0 3.074 3.074 0 01-6.149 0z" fill="url(#paint147_linear)"/><path d="M371.869 369.008a3.074 3.074 0 116.149 0 3.074 3.074 0 01-6.149 0z" fill="url(#paint148_linear)"/><path d="M387.852 369.008a3.075 3.075 0 116.15.002 3.075 3.075 0 01-6.15-.002z" fill="url(#paint149_linear)"/><path d="M244 384.992a3.074 3.074 0 116.147 0 3.074 3.074 0 01-6.147 0z" fill="url(#paint150_linear)"/><path d="M259.984 384.992a3.073 3.073 0 116.147-.001 3.073 3.073 0 01-6.147.001z" fill="url(#paint151_linear)"/><path d="M275.967 384.992a3.074 3.074 0 116.147 0 3.074 3.074 0 01-6.147 0z" fill="url(#paint152_linear)"/><path d="M291.951 384.992a3.074 3.074 0 116.147 0 3.074 3.074 0 01-6.147 0z" fill="url(#paint153_linear)"/><path d="M307.934 384.992a3.074 3.074 0 116.149 0 3.074 3.074 0 01-6.149 0z" fill="url(#paint154_linear)"/><path d="M323.918 384.992a3.074 3.074 0 116.147 0 3.074 3.074 0 01-6.147 0z" fill="url(#paint155_linear)"/><path d="M339.902 384.992a3.073 3.073 0 116.147-.001 3.073 3.073 0 01-6.147.001z" fill="url(#paint156_linear)"/><path d="M355.885 384.992a3.074 3.074 0 116.147 0 3.074 3.074 0 01-6.147 0z" fill="url(#paint157_linear)"/><path d="M371.869 384.992a3.074 3.074 0 116.147 0 3.074 3.074 0 01-6.147 0z" fill="url(#paint158_linear)"/><path d="M387.852 384.992a3.074 3.074 0 116.149 0 3.074 3.074 0 01-6.149 0z" fill="url(#paint159_linear)"/><path d="M244 400.975a3.073 3.073 0 116.147 0 3.073 3.073 0 01-6.147 0z" fill="url(#paint160_linear)"/><path d="M259.984 400.975a3.073 3.073 0 116.146 0 3.073 3.073 0 01-6.146 0z" fill="url(#paint161_linear)"/><path d="M275.967 400.975a3.073 3.073 0 116.147 0 3.073 3.073 0 01-6.147 0z" fill="url(#paint162_linear)"/><path d="M291.951 400.975a3.073 3.073 0 116.147 0 3.073 3.073 0 01-6.147 0z" fill="url(#paint163_linear)"/><path d="M307.934 400.975a3.074 3.074 0 116.148.002 3.074 3.074 0 01-6.148-.002z" fill="url(#paint164_linear)"/><path d="M323.918 400.975a3.073 3.073 0 116.147 0 3.073 3.073 0 01-6.147 0z" fill="url(#paint165_linear)"/><path d="M339.902 400.975a3.073 3.073 0 116.146 0 3.073 3.073 0 01-6.146 0z" fill="url(#paint166_linear)"/><path d="M355.885 400.975a3.073 3.073 0 116.147 0 3.073 3.073 0 01-6.147 0z" fill="url(#paint167_linear)"/><path d="M371.869 400.975a3.073 3.073 0 116.147 0 3.073 3.073 0 01-6.147 0z" fill="url(#paint168_linear)"/><path d="M387.852 400.975a3.074 3.074 0 116.148.002 3.074 3.074 0 01-6.148-.002z" fill="url(#paint169_linear)"/><path d="M244 416.959a3.074 3.074 0 116.147 0 3.074 3.074 0 01-6.147 0z" fill="url(#paint170_linear)"/><path d="M259.984 416.959a3.073 3.073 0 116.147-.001 3.073 3.073 0 01-6.147.001z" fill="url(#paint171_linear)"/><path d="M275.967 416.959a3.074 3.074 0 116.147 0 3.074 3.074 0 01-6.147 0z" fill="url(#paint172_linear)"/><path d="M291.951 416.959a3.074 3.074 0 116.147 0 3.074 3.074 0 01-6.147 0z" fill="url(#paint173_linear)"/><path d="M307.934 416.959a3.074 3.074 0 116.149 0 3.074 3.074 0 01-6.149 0z" fill="url(#paint174_linear)"/><path d="M323.918 416.959a3.074 3.074 0 116.147 0 3.074 3.074 0 01-6.147 0z" fill="url(#paint175_linear)"/><path d="M339.902 416.959a3.073 3.073 0 116.147-.001 3.073 3.073 0 01-6.147.001z" fill="url(#paint176_linear)"/><path d="M355.885 416.959a3.074 3.074 0 116.147 0 3.074 3.074 0 01-6.147 0z" fill="url(#paint177_linear)"/><path d="M371.869 416.959a3.074 3.074 0 116.147 0 3.074 3.074 0 01-6.147 0z" fill="url(#paint178_linear)"/><path d="M387.852 416.959a3.074 3.074 0 116.149 0 3.074 3.074 0 01-6.149 0z" fill="url(#paint179_linear)"/><path d="M244 432.943a3.074 3.074 0 116.147 0 3.074 3.074 0 01-6.147 0z" fill="url(#paint180_linear)"/><path d="M259.984 432.943a3.073 3.073 0 116.147-.001 3.073 3.073 0 01-6.147.001z" fill="url(#paint181_linear)"/><path d="M275.967 432.943a3.074 3.074 0 116.147 0 3.074 3.074 0 01-6.147 0z" fill="url(#paint182_linear)"/><path d="M291.951 432.943a3.074 3.074 0 116.147 0 3.074 3.074 0 01-6.147 0z" fill="url(#paint183_linear)"/><path d="M307.934 432.943a3.074 3.074 0 116.149 0 3.074 3.074 0 01-6.149 0z" fill="url(#paint184_linear)"/><path d="M323.918 432.943a3.074 3.074 0 116.147 0 3.074 3.074 0 01-6.147 0z" fill="url(#paint185_linear)"/><path d="M339.902 432.943a3.073 3.073 0 116.147-.001 3.073 3.073 0 01-6.147.001z" fill="url(#paint186_linear)"/><path d="M355.885 432.943a3.074 3.074 0 116.147 0 3.074 3.074 0 01-6.147 0z" fill="url(#paint187_linear)"/><path d="M371.869 432.943a3.074 3.074 0 116.147 0 3.074 3.074 0 01-6.147 0z" fill="url(#paint188_linear)"/><path d="M387.852 432.943a3.074 3.074 0 116.149 0 3.074 3.074 0 01-6.149 0z" fill="url(#paint189_linear)"/><path d="M244 448.926a3.074 3.074 0 116.149 0 3.074 3.074 0 01-6.149 0z" fill="url(#paint190_linear)"/><path d="M259.984 448.926a3.074 3.074 0 116.148 0 3.074 3.074 0 01-6.148 0z" fill="url(#paint191_linear)"/><path d="M275.967 448.926a3.074 3.074 0 116.149 0 3.074 3.074 0 01-6.149 0z" fill="url(#paint192_linear)"/><path d="M291.951 448.926a3.074 3.074 0 116.149 0 3.074 3.074 0 01-6.149 0z" fill="url(#paint193_linear)"/><path d="M307.934 448.926a3.075 3.075 0 116.15.002 3.075 3.075 0 01-6.15-.002z" fill="url(#paint194_linear)"/><path d="M323.918 448.926a3.074 3.074 0 116.149 0 3.074 3.074 0 01-6.149 0z" fill="url(#paint195_linear)"/><path d="M339.902 448.926a3.074 3.074 0 116.148 0 3.074 3.074 0 01-6.148 0z" fill="url(#paint196_linear)"/><path d="M355.885 448.926a3.074 3.074 0 116.149 0 3.074 3.074 0 01-6.149 0z" fill="url(#paint197_linear)"/><path d="M371.869 448.926a3.074 3.074 0 116.149 0 3.074 3.074 0 01-6.149 0z" fill="url(#paint198_linear)"/><path d="M387.852 448.926a3.075 3.075 0 116.15.002 3.075 3.075 0 01-6.15-.002z" fill="url(#paint199_linear)"/><path d="M62 31.584h236v358.415H62zm296 205h236v358.415H358z"/><g filter="url(#filter0_d)"><path d="M378 75h182a8 8 0 018 8v10a8 8 0 01-8 8H386a8 8 0 01-8-8V75z" fill="url(#paint200_linear)"/><path d="M401.361 91.633h-.884v-3.08h-3.359v3.08h-.878V84.97h.878v2.865h3.359V84.97h.884v6.663zm3.482.092c-.671 0-1.217-.22-1.638-.66-.421-.441-.632-1.032-.632-1.77v-.156c0-.491.093-.929.279-1.313.19-.388.452-.69.788-.906.338-.22.704-.33 1.098-.33.644 0 1.144.212 1.501.636.357.424.535 1.031.535 1.822v.352h-3.354c.012.488.154.883.425 1.185.275.3.623.449 1.044.449.299 0 .552-.061.76-.183a1.92 1.92 0 00.544-.485l.517.402c-.415.638-1.037.957-1.867.957zm-.105-4.44c-.342 0-.629.126-.861.376-.231.247-.375.595-.43 1.043h2.481v-.064c-.025-.43-.141-.762-.348-.997-.208-.238-.488-.357-.842-.357zm3.94 4.348h-.847v-7.029h.847v7.03zm2.279 0h-.847v-7.029h.847v7.03zm1.135-2.521c0-.485.094-.922.284-1.309a2.15 2.15 0 01.796-.897 2.18 2.18 0 011.167-.316c.674 0 1.219.234 1.634.7.418.467.627 1.088.627 1.863v.06c0 .482-.094.915-.28 1.3a2.088 2.088 0 01-.791.891 2.18 2.18 0 01-1.181.32c-.671 0-1.216-.233-1.634-.7-.415-.466-.622-1.084-.622-1.853v-.06zm.851.1c0 .55.127.99.38 1.323.256.333.598.499 1.025.499.43 0 .772-.168 1.025-.504.253-.338.38-.811.38-1.418 0-.543-.13-.983-.389-1.318a1.221 1.221 0 00-1.025-.508c-.418 0-.755.166-1.012.499-.256.332-.384.808-.384 1.428zm4.691 3.748l-.481-.33c.287-.399.437-.81.449-1.235v-.764h.828v.664c0 .308-.076.616-.229.924a2.132 2.132 0 01-.567.741zm6.178-1.926c.302 0 .566-.092.791-.275a.968.968 0 00.376-.686h.801a1.542 1.542 0 01-.293.81 1.93 1.93 0 01-.723.613 2.068 2.068 0 01-.952.229c-.675 0-1.211-.224-1.611-.673-.397-.451-.595-1.068-.595-1.849v-.142c0-.482.088-.91.265-1.286.177-.375.431-.666.76-.874.333-.207.725-.31 1.176-.31.555 0 1.016.166 1.382.498.369.333.566.764.591 1.295h-.801a1.16 1.16 0 00-1.172-1.098c-.43 0-.764.155-1.002.467-.235.308-.352.755-.352 1.34v.16c0 .571.117 1.01.352 1.319.235.308.57.462 1.007.462zm5.976.6c-.048-.098-.088-.272-.119-.522-.393.408-.863.613-1.409.613-.488 0-.889-.137-1.204-.412a1.35 1.35 0 01-.466-1.053c0-.515.195-.915.585-1.199.394-.286.946-.43 1.657-.43h.824v-.389c0-.296-.089-.53-.266-.705-.177-.176-.438-.265-.782-.265-.302 0-.556.076-.76.229-.204.152-.307.337-.307.554h-.851c0-.248.087-.485.261-.714.177-.232.415-.415.714-.55.302-.134.633-.2.993-.2.57 0 1.017.143 1.341.43.323.283.491.675.503 1.175v2.28c0 .454.058.816.174 1.084v.073h-.888zm-1.405-.646c.266 0 .518-.069.755-.206a1.25 1.25 0 00.518-.535V89.23h-.664c-1.037 0-1.556.303-1.556.91 0 .266.089.473.266.623.176.15.404.224.681.224zm4.247-4.306l.028.622a1.803 1.803 0 011.482-.714c1.047 0 1.575.59 1.584 1.771v3.272h-.847v-3.276c-.003-.357-.085-.621-.247-.792-.159-.17-.407-.256-.746-.256-.274 0-.516.073-.723.22a1.495 1.495 0 00-.485.576v3.528h-.847v-4.951h.801zm7.615 4.951h-.847v-4.951h.847v4.951zm-.915-6.265a.51.51 0 01.123-.347c.086-.095.211-.142.376-.142.164 0 .289.047.375.142a.5.5 0 01.128.347.485.485 0 01-.128.344c-.086.091-.211.137-.375.137-.165 0-.29-.046-.376-.137a.495.495 0 01-.123-.344zm4.398 3.748c0-.772.178-1.385.535-1.84.357-.457.83-.686 1.419-.686.604 0 1.075.214 1.414.64l.041-.548h.773v4.832c0 .641-.19 1.146-.572 1.515-.378.37-.887.554-1.528.554a2.54 2.54 0 01-1.048-.229 1.804 1.804 0 01-.783-.627l.44-.508c.363.449.807.673 1.331.673.412 0 .733-.116.961-.348.232-.232.348-.558.348-.98v-.425c-.338.39-.801.586-1.386.586-.58 0-1.05-.234-1.41-.7-.357-.467-.535-1.103-.535-1.909zm.851.097c0 .558.114.997.343 1.317.229.318.549.476.961.476.534 0 .926-.242 1.176-.727v-2.261c-.259-.473-.648-.71-1.167-.71-.412 0-.734.16-.965.481-.232.32-.348.795-.348 1.424zm6.667 2.512c-.671 0-1.217-.22-1.638-.66-.421-.441-.631-1.032-.631-1.77v-.156c0-.491.093-.929.279-1.313.189-.388.451-.69.787-.906a1.98 1.98 0 011.098-.33c.644 0 1.144.212 1.501.636.357.424.536 1.031.536 1.822v.352h-3.355c.012.488.154.883.426 1.185.274.3.622.449 1.043.449.299 0 .552-.061.76-.183a1.91 1.91 0 00.544-.485l.518.402c-.415.638-1.038.957-1.868.957zm-.105-4.44c-.342 0-.628.126-.86.376-.232.247-.375.595-.43 1.043h2.48v-.064c-.024-.43-.14-.762-.348-.997-.207-.238-.488-.357-.842-.357zm4.169-1.802v1.199h.925v.654h-.925v3.07c0 .2.041.349.124.45.082.097.222.146.421.146.097 0 .232-.018.402-.055v.686a2.448 2.448 0 01-.649.092c-.379 0-.664-.115-.856-.343-.192-.23-.288-.554-.288-.975v-3.07h-.902v-.655h.902v-1.2h.846zm7.519 4.434a.95.95 0 00-.297-.71c-.196-.191-.527-.365-.994-.52-.649-.2-1.124-.457-1.423-.774-.296-.32-.444-.726-.444-1.218 0-.5.145-.91.435-1.23.293-.32.694-.511 1.204-.573V83.89h.682v1.007c.512.07.91.285 1.194.645.287.36.43.853.43 1.478h-.842c0-.43-.102-.771-.307-1.025-.204-.253-.48-.38-.828-.38-.363 0-.641.095-.833.284-.192.186-.288.447-.288.783 0 .311.101.56.302.746.204.183.538.35 1.002.503.467.15.83.316 1.089.499.263.18.455.39.577.631.125.241.188.524.188.847 0 .516-.156.93-.467 1.245-.308.314-.742.5-1.3.558v.874h-.677v-.874c-.568-.052-1.013-.253-1.336-.604-.321-.354-.481-.833-.481-1.437h.847c0 .424.111.75.334.98.222.228.538.343.947.343.4 0 .714-.096.943-.289.229-.192.343-.454.343-.787zm5.473-.522h.925v.692h-.925v1.546h-.851v-1.546h-3.034v-.5l2.984-4.617h.901v4.425zm-2.924 0h2.073v-3.267l-.101.183-1.972 3.084zm8.791-.604c0 .992-.169 1.729-.508 2.21-.339.483-.868.724-1.588.724-.711 0-1.237-.235-1.579-.705-.341-.473-.518-1.177-.531-2.114v-1.13c0-.98.17-1.707.508-2.183.339-.476.87-.714 1.593-.714.717 0 1.245.23 1.583.69.339.458.513 1.166.522 2.124v1.098zm-.847-1.157c0-.717-.1-1.239-.302-1.565-.201-.33-.52-.495-.956-.495-.433 0-.749.163-.947.49-.199.326-.301.828-.307 1.506v1.354c0 .72.104 1.252.311 1.597.211.342.528.513.952.513.418 0 .728-.162.929-.485.204-.324.311-.833.32-1.529v-1.386zm6.11 1.157c0 .992-.17 1.729-.508 2.21-.339.483-.868.724-1.588.724-.711 0-1.237-.235-1.579-.705-.342-.473-.519-1.177-.531-2.114v-1.13c0-.98.169-1.707.508-2.183.339-.476.87-.714 1.593-.714.717 0 1.244.23 1.583.69.339.458.513 1.166.522 2.124v1.098zm-.847-1.157c0-.717-.101-1.239-.302-1.565-.201-.33-.52-.495-.956-.495-.434 0-.749.163-.948.49-.198.326-.3.828-.306 1.506v1.354c0 .72.103 1.252.311 1.597.21.342.528.513.952.513.418 0 .727-.162.929-.485.204-.324.311-.833.32-1.529v-1.386zm8.727 2.832l.952-3.784h.846l-1.441 4.951h-.686l-1.204-3.752-1.172 3.752h-.686l-1.437-4.951h.842l.975 3.707 1.153-3.707h.682l1.176 3.784zm2.439-1.354c0-.485.095-.922.284-1.309.192-.388.458-.686.796-.897a2.18 2.18 0 011.167-.316c.674 0 1.219.234 1.634.7.418.467.627 1.088.627 1.863v.06c0 .482-.093.915-.279 1.3a2.084 2.084 0 01-.792.891c-.342.214-.735.32-1.181.32-.671 0-1.215-.233-1.633-.7-.415-.466-.623-1.084-.623-1.853v-.06zm.851.1c0 .55.127.99.38 1.323.256.333.598.499 1.025.499.43 0 .772-.168 1.025-.504.254-.338.38-.811.38-1.418 0-.543-.129-.983-.389-1.318a1.221 1.221 0 00-1.025-.508c-.418 0-.755.166-1.011.499-.257.332-.385.808-.385 1.428zm7.112-1.77a2.545 2.545 0 00-.417-.033c-.555 0-.932.237-1.13.71v3.514h-.847v-4.951h.824l.014.572c.278-.443.671-.664 1.181-.664.164 0 .289.022.375.064v.787zm2.16-1.96v1.2h.924v.654h-.924v3.07c0 .2.041.349.123.45.083.097.223.146.421.146.098 0 .232-.018.403-.055v.686a2.455 2.455 0 01-.65.092c-.378 0-.663-.115-.855-.343-.193-.23-.289-.554-.289-.975v-3.07h-.901v-.655h.901v-1.2h.847zm2.764 1.8a1.799 1.799 0 011.464-.692c1.047 0 1.575.59 1.584 1.771v3.272h-.847v-3.276c-.003-.357-.085-.621-.247-.792-.159-.17-.407-.256-.746-.256-.274 0-.516.073-.723.22a1.495 1.495 0 00-.485.576v3.528h-.847v-7.029h.847v2.677zm6.416 1.83c0-.485.094-.922.284-1.309a2.15 2.15 0 01.796-.897 2.18 2.18 0 011.167-.316c.674 0 1.219.234 1.634.7.418.467.626 1.088.626 1.863v.06c0 .482-.093.915-.279 1.3a2.088 2.088 0 01-.791.891 2.18 2.18 0 01-1.181.32c-.671 0-1.216-.233-1.634-.7-.415-.466-.622-1.084-.622-1.853v-.06zm.851.1c0 .55.127.99.38 1.323.256.333.598.499 1.025.499.43 0 .772-.168 1.025-.504.253-.338.38-.811.38-1.418 0-.543-.13-.983-.389-1.318a1.221 1.221 0 00-1.025-.508c-.418 0-.755.166-1.012.499-.256.332-.384.808-.384 1.428zm5.135 2.421v-4.297h-.783v-.654h.783v-.508c0-.531.141-.941.425-1.231.284-.29.685-.435 1.204-.435.195 0 .389.026.581.078l-.046.686a2.424 2.424 0 00-.457-.04c-.275 0-.487.08-.637.242-.149.158-.224.387-.224.686v.522h1.057v.654h-1.057v4.297h-.846zm9.358-2.42c0 .756-.174 1.365-.522 1.825-.347.458-.814.687-1.4.687-.625 0-1.109-.221-1.451-.664l-.041.572h-.778v-7.029h.847v2.622c.342-.424.813-.636 1.414-.636s1.072.227 1.414.682c.345.455.517 1.077.517 1.867v.074zm-.847-.097c0-.576-.111-1.022-.334-1.336-.222-.314-.543-.471-.961-.471-.558 0-.959.259-1.203.778v2.141c.259.519.663.778 1.213.778.405 0 .721-.157.947-.471.226-.314.338-.787.338-1.419zm2.838 2.517h-.847v-4.951h.847v4.951zm-.915-6.265a.51.51 0 01.123-.347c.085-.095.211-.142.375-.142.165 0 .29.047.376.142a.5.5 0 01.128.347.485.485 0 01-.128.344c-.086.091-.211.137-.376.137-.164 0-.29-.046-.375-.137a.495.495 0 01-.123-.344zm3.423.115v1.199h.924v.654h-.924v3.07c0 .2.041.349.123.45.083.097.223.146.421.146.098 0 .232-.018.403-.055v.686a2.455 2.455 0 01-.65.092c-.378 0-.664-.115-.856-.343-.192-.23-.288-.554-.288-.975v-3.07h-.902v-.655h.902v-1.2h.847zm3.903 5.55c.302 0 .566-.09.792-.274a.963.963 0 00.375-.686h.801a1.533 1.533 0 01-.293.81 1.93 1.93 0 01-.723.613 2.065 2.065 0 01-.952.229c-.674 0-1.211-.224-1.611-.673-.396-.451-.595-1.068-.595-1.849v-.142c0-.482.089-.91.266-1.286a2.03 2.03 0 01.759-.874c.333-.207.725-.31 1.177-.31.555 0 1.015.166 1.382.498.369.333.566.764.59 1.295h-.801a1.15 1.15 0 00-.366-.787 1.12 1.12 0 00-.805-.311c-.431 0-.765.155-1.003.467-.235.308-.352.755-.352 1.34v.16c0 .571.117 1.01.352 1.319.235.308.571.462 1.007.462zm2.696-1.921c0-.485.094-.922.283-1.309.192-.388.458-.686.797-.897a2.18 2.18 0 011.167-.316c.674 0 1.218.234 1.633.7.418.467.627 1.088.627 1.863v.06c0 .482-.093.915-.279 1.3a2.084 2.084 0 01-.792.891c-.341.214-.735.32-1.18.32-.672 0-1.216-.233-1.634-.7-.415-.466-.622-1.084-.622-1.853v-.06zm.851.1c0 .55.126.99.38 1.323.256.333.598.499 1.025.499.43 0 .772-.168 1.025-.504.253-.338.38-.811.38-1.418 0-.543-.13-.983-.389-1.318a1.222 1.222 0 00-1.025-.508c-.418 0-.756.166-1.012.499-.256.332-.384.808-.384 1.428zm5.638 2.421h-.847v-4.951h.847v4.951zm-.916-6.265a.51.51 0 01.124-.347c.085-.095.211-.142.375-.142.165 0 .29.047.376.142a.5.5 0 01.128.347.485.485 0 01-.128.344c-.086.091-.211.137-.376.137-.164 0-.29-.046-.375-.137a.496.496 0 01-.124-.344zm3.076 1.314l.027.622a1.805 1.805 0 011.483-.714c1.046 0 1.574.59 1.583 1.771v3.272h-.846v-3.276c-.003-.357-.086-.621-.247-.792-.159-.17-.408-.256-.746-.256a1.22 1.22 0 00-.723.22 1.49 1.49 0 00-.486.576v3.528h-.846v-4.951h.801zm5.363 3.075c.006-.363.047-.65.124-.86.076-.21.232-.444.466-.7l.6-.618c.256-.29.384-.601.384-.934 0-.32-.084-.57-.251-.75-.168-.183-.412-.275-.733-.275-.311 0-.561.082-.75.247-.189.165-.284.386-.284.664h-.846c.006-.495.181-.893.526-1.195.348-.305.799-.457 1.354-.457.577 0 1.026.155 1.346.466.323.309.485.733.485 1.273 0 .534-.247 1.06-.741 1.579l-.499.494c-.223.247-.334.602-.334 1.066h-.847zm-.037 1.45c0-.137.042-.251.124-.342.085-.095.211-.142.375-.142.165 0 .29.047.376.142a.485.485 0 01.128.343.485.485 0 01-.128.343c-.086.088-.211.133-.376.133-.164 0-.29-.045-.375-.133a.496.496 0 01-.124-.343z" fill="#fff"/></g><g filter="url(#filter1_d)"><rect x="344" y="75" width="26" height="26" rx="13"/></g><path d="M129 442H70a8 8 0 01-8-8v-10a8 8 0 018-8h51a8 8 0 018 8v18z" fill="url(#paint201_linear)"/><path d="M76.716 433h-.879v-6.661h.879V433zm1.537-4.786l-.48-.329c.283-.397.43-.814.439-1.254v-.658h.837v.594c-.003.305-.08.61-.229.915a2.087 2.087 0 01-.567.732zm2.521-.164l.023.549c.363-.427.852-.641 1.469-.641.692 0 1.163.265 1.413.796.165-.238.379-.43.64-.576.266-.147.579-.22.939-.22 1.086 0 1.638.575 1.656 1.725V433h-.847v-3.267c0-.354-.08-.617-.242-.791-.162-.177-.433-.266-.814-.266a1.12 1.12 0 00-.783.284c-.207.186-.328.438-.361.755V433h-.851v-3.244c0-.72-.353-1.08-1.057-1.08-.555 0-.935.237-1.14.71V433h-.846v-4.95h.801zm9.521 2.429c0-.485.094-.921.284-1.308.192-.388.457-.687.796-.897a2.17 2.17 0 011.166-.316c.675 0 1.219.233 1.634.7.418.467.627 1.088.627 1.862v.06c0 .482-.094.915-.28 1.299a2.083 2.083 0 01-.791.892 2.176 2.176 0 01-1.18.321c-.672 0-1.216-.234-1.634-.701-.415-.466-.622-1.084-.622-1.852v-.06zm.851.101c0 .549.126.989.38 1.322a1.23 1.23 0 001.025.499c.43 0 .771-.168 1.024-.504.254-.338.38-.811.38-1.418 0-.543-.13-.982-.389-1.318a1.222 1.222 0 00-1.025-.507c-.417 0-.754.166-1.01.498-.257.333-.385.809-.385 1.428zm5.518-2.53l.027.622a1.804 1.804 0 011.483-.714c1.046 0 1.573.59 1.582 1.771V433h-.846v-3.276c-.003-.357-.085-.621-.247-.791-.159-.171-.407-.257-.746-.257-.274 0-.515.074-.723.22a1.49 1.49 0 00-.485.577V433h-.846v-4.95h.8zm7.613 4.95h-.847v-4.95h.847V433zm-.915-6.263a.51.51 0 01.123-.348c.086-.095.211-.142.375-.142.165 0 .29.047.376.142a.5.5 0 01.128.348.486.486 0 01-.128.343c-.086.091-.211.137-.376.137-.164 0-.289-.046-.375-.137a.496.496 0 01-.123-.343zm3.422.114v1.199h.924v.654h-.924v3.07c0 .198.041.348.124.448.082.098.222.147.42.147a2.1 2.1 0 00.403-.055V433a2.456 2.456 0 01-.65.092c-.378 0-.663-.115-.855-.344-.192-.228-.288-.553-.288-.974v-3.07h-.902v-.654h.902v-1.199h.846zm1.935 5.705c0-.146.043-.268.128-.366.089-.097.22-.146.394-.146.174 0 .305.049.393.146.092.098.138.22.138.366a.483.483 0 01-.138.352c-.088.095-.219.142-.393.142-.174 0-.305-.047-.394-.142a.505.505 0 01-.128-.352zm2.471 0c0-.146.043-.268.128-.366.088-.097.22-.146.393-.146.174 0 .305.049.394.146.091.098.137.22.137.366a.486.486 0 01-.137.352c-.089.095-.22.142-.394.142-.173 0-.305-.047-.393-.142a.505.505 0 01-.128-.352zm2.47 0c0-.146.043-.268.129-.366.088-.097.219-.146.393-.146.174 0 .305.049.394.146.091.098.137.22.137.366a.486.486 0 01-.137.352c-.089.095-.22.142-.394.142-.174 0-.305-.047-.393-.142a.501.501 0 01-.129-.352z" fill="#fff"/><rect x="137" y="416" width="26" height="26" rx="13"/><path d="M378 111h59a8 8 0 018 8v10a8 8 0 01-8 8h-51a8 8 0 01-8-8v-18z" fill="url(#paint202_linear)"/><path d="M427 123.5a2.5 2.5 0 11-5 0 2.5 2.5 0 015 0zm-9 0a2.5 2.5 0 11-5 0 2.5 2.5 0 015 0zm-9 0a2.5 2.5 0 11-5 0 2.5 2.5 0 015 0zm-9 0a2.5 2.5 0 11-5 0 2.5 2.5 0 015 0z" fill="#fff"/><defs><linearGradient id="paint0_linear" x1="150" y1="75" x2="0" y2="75" gradientUnits="userSpaceOnUse"><stop stop-color="#D99913"/><stop offset="1" stop-color="#F7DC39"/></linearGradient><linearGradient id="paint1_linear" x1="150" y1="75" x2="0" y2="75" gradientUnits="userSpaceOnUse"><stop stop-color="#D99913"/><stop offset="1" stop-color="#F7DC39"/></linearGradient><linearGradient id="paint2_linear" x1="150" y1="75" x2="0" y2="75" gradientUnits="userSpaceOnUse"><stop stop-color="#D99913"/><stop offset="1" stop-color="#F7DC39"/></linearGradient><linearGradient id="paint3_linear" x1="150" y1="75" x2="0" y2="75" gradientUnits="userSpaceOnUse"><stop stop-color="#D99913"/><stop offset="1" stop-color="#F7DC39"/></linearGradient><linearGradient id="paint4_linear" x1="150" y1="75" x2="0" y2="75" gradientUnits="userSpaceOnUse"><stop stop-color="#D99913"/><stop offset="1" stop-color="#F7DC39"/></linearGradient><linearGradient id="paint5_linear" x1="150" y1="75" x2="0" y2="75" gradientUnits="userSpaceOnUse"><stop stop-color="#D99913"/><stop offset="1" stop-color="#F7DC39"/></linearGradient><linearGradient id="paint6_linear" x1="150" y1="75" x2="0" y2="75" gradientUnits="userSpaceOnUse"><stop stop-color="#D99913"/><stop offset="1" stop-color="#F7DC39"/></linearGradient><linearGradient id="paint7_linear" x1="150" y1="75" x2="0" y2="75" gradientUnits="userSpaceOnUse"><stop stop-color="#D99913"/><stop offset="1" stop-color="#F7DC39"/></linearGradient><linearGradient id="paint8_linear" x1="150" y1="75" x2="0" y2="75" gradientUnits="userSpaceOnUse"><stop stop-color="#D99913"/><stop offset="1" stop-color="#F7DC39"/></linearGradient><linearGradient id="paint9_linear" x1="150" y1="75" x2="0" y2="75" gradientUnits="userSpaceOnUse"><stop stop-color="#D99913"/><stop offset="1" stop-color="#F7DC39"/></linearGradient><linearGradient id="paint10_linear" x1="150" y1="75" x2="0" y2="75" gradientUnits="userSpaceOnUse"><stop stop-color="#D99913"/><stop offset="1" stop-color="#F7DC39"/></linearGradient><linearGradient id="paint11_linear" x1="150" y1="75" x2="0" y2="75" gradientUnits="userSpaceOnUse"><stop stop-color="#D99913"/><stop offset="1" stop-color="#F7DC39"/></linearGradient><linearGradient id="paint12_linear" x1="150" y1="75" x2="0" y2="75" gradientUnits="userSpaceOnUse"><stop stop-color="#D99913"/><stop offset="1" stop-color="#F7DC39"/></linearGradient><linearGradient id="paint13_linear" x1="150" y1="75" x2="0" y2="75" gradientUnits="userSpaceOnUse"><stop stop-color="#D99913"/><stop offset="1" stop-color="#F7DC39"/></linearGradient><linearGradient id="paint14_linear" x1="150" y1="75" x2="0" y2="75" gradientUnits="userSpaceOnUse"><stop stop-color="#D99913"/><stop offset="1" stop-color="#F7DC39"/></linearGradient><linearGradient id="paint15_linear" x1="150" y1="75" x2="0" y2="75" gradientUnits="userSpaceOnUse"><stop stop-color="#D99913"/><stop offset="1" stop-color="#F7DC39"/></linearGradient><linearGradient id="paint16_linear" x1="150" y1="75" x2="0" y2="75" gradientUnits="userSpaceOnUse"><stop stop-color="#D99913"/><stop offset="1" stop-color="#F7DC39"/></linearGradient><linearGradient id="paint17_linear" x1="150" y1="75" x2="0" y2="75" gradientUnits="userSpaceOnUse"><stop stop-color="#D99913"/><stop offset="1" stop-color="#F7DC39"/></linearGradient><linearGradient id="paint18_linear" x1="150" y1="75" x2="0" y2="75" gradientUnits="userSpaceOnUse"><stop stop-color="#D99913"/><stop offset="1" stop-color="#F7DC39"/></linearGradient><linearGradient id="paint19_linear" x1="150" y1="75" x2="0" y2="75" gradientUnits="userSpaceOnUse"><stop stop-color="#D99913"/><stop offset="1" stop-color="#F7DC39"/></linearGradient><linearGradient id="paint20_linear" x1="150" y1="75" x2="0" y2="75" gradientUnits="userSpaceOnUse"><stop stop-color="#D99913"/><stop offset="1" stop-color="#F7DC39"/></linearGradient><linearGradient id="paint21_linear" x1="150" y1="75" x2="0" y2="75" gradientUnits="userSpaceOnUse"><stop stop-color="#D99913"/><stop offset="1" stop-color="#F7DC39"/></linearGradient><linearGradient id="paint22_linear" x1="150" y1="75" x2="0" y2="75" gradientUnits="userSpaceOnUse"><stop stop-color="#D99913"/><stop offset="1" stop-color="#F7DC39"/></linearGradient><linearGradient id="paint23_linear" x1="150" y1="75" x2="0" y2="75" gradientUnits="userSpaceOnUse"><stop stop-color="#D99913"/><stop offset="1" stop-color="#F7DC39"/></linearGradient><linearGradient id="paint24_linear" x1="150" y1="75" x2="0" y2="75" gradientUnits="userSpaceOnUse"><stop stop-color="#D99913"/><stop offset="1" stop-color="#F7DC39"/></linearGradient><linearGradient id="paint25_linear" x1="150" y1="75" x2="0" y2="75" gradientUnits="userSpaceOnUse"><stop stop-color="#D99913"/><stop offset="1" stop-color="#F7DC39"/></linearGradient><linearGradient id="paint26_linear" x1="150" y1="75" x2="0" y2="75" gradientUnits="userSpaceOnUse"><stop stop-color="#D99913"/><stop offset="1" stop-color="#F7DC39"/></linearGradient><linearGradient id="paint27_linear" x1="150" y1="75" x2="0" y2="75" gradientUnits="userSpaceOnUse"><stop stop-color="#D99913"/><stop offset="1" stop-color="#F7DC39"/></linearGradient><linearGradient id="paint28_linear" x1="150" y1="75" x2="0" y2="75" gradientUnits="userSpaceOnUse"><stop stop-color="#D99913"/><stop offset="1" stop-color="#F7DC39"/></linearGradient><linearGradient id="paint29_linear" x1="150" y1="75" x2="0" y2="75" gradientUnits="userSpaceOnUse"><stop stop-color="#D99913"/><stop offset="1" stop-color="#F7DC39"/></linearGradient><linearGradient id="paint30_linear" x1="150" y1="75" x2="0" y2="75" gradientUnits="userSpaceOnUse"><stop stop-color="#D99913"/><stop offset="1" stop-color="#F7DC39"/></linearGradient><linearGradient id="paint31_linear" x1="150" y1="75" x2="0" y2="75" gradientUnits="userSpaceOnUse"><stop stop-color="#D99913"/><stop offset="1" stop-color="#F7DC39"/></linearGradient><linearGradient id="paint32_linear" x1="150" y1="75" x2="0" y2="75" gradientUnits="userSpaceOnUse"><stop stop-color="#D99913"/><stop offset="1" stop-color="#F7DC39"/></linearGradient><linearGradient id="paint33_linear" x1="150" y1="75" x2="0" y2="75" gradientUnits="userSpaceOnUse"><stop stop-color="#D99913"/><stop offset="1" stop-color="#F7DC39"/></linearGradient><linearGradient id="paint34_linear" x1="150" y1="75" x2="0" y2="75" gradientUnits="userSpaceOnUse"><stop stop-color="#D99913"/><stop offset="1" stop-color="#F7DC39"/></linearGradient><linearGradient id="paint35_linear" x1="150" y1="75" x2="0" y2="75" gradientUnits="userSpaceOnUse"><stop stop-color="#D99913"/><stop offset="1" stop-color="#F7DC39"/></linearGradient><linearGradient id="paint36_linear" x1="150" y1="75" x2="0" y2="75" gradientUnits="userSpaceOnUse"><stop stop-color="#D99913"/><stop offset="1" stop-color="#F7DC39"/></linearGradient><linearGradient id="paint37_linear" x1="150" y1="75" x2="0" y2="75" gradientUnits="userSpaceOnUse"><stop stop-color="#D99913"/><stop offset="1" stop-color="#F7DC39"/></linearGradient><linearGradient id="paint38_linear" x1="150" y1="75" x2="0" y2="75" gradientUnits="userSpaceOnUse"><stop stop-color="#D99913"/><stop offset="1" stop-color="#F7DC39"/></linearGradient><linearGradient id="paint39_linear" x1="150" y1="75" x2="0" y2="75" gradientUnits="userSpaceOnUse"><stop stop-color="#D99913"/><stop offset="1" stop-color="#F7DC39"/></linearGradient><linearGradient id="paint40_linear" x1="150" y1="75" x2="0" y2="75" gradientUnits="userSpaceOnUse"><stop stop-color="#D99913"/><stop offset="1" stop-color="#F7DC39"/></linearGradient><linearGradient id="paint41_linear" x1="150" y1="75" x2="0" y2="75" gradientUnits="userSpaceOnUse"><stop stop-color="#D99913"/><stop offset="1" stop-color="#F7DC39"/></linearGradient><linearGradient id="paint42_linear" x1="150" y1="75" x2="0" y2="75" gradientUnits="userSpaceOnUse"><stop stop-color="#D99913"/><stop offset="1" stop-color="#F7DC39"/></linearGradient><linearGradient id="paint43_linear" x1="150" y1="75" x2="0" y2="75" gradientUnits="userSpaceOnUse"><stop stop-color="#D99913"/><stop offset="1" stop-color="#F7DC39"/></linearGradient><linearGradient id="paint44_linear" x1="150" y1="75" x2="0" y2="75" gradientUnits="userSpaceOnUse"><stop stop-color="#D99913"/><stop offset="1" stop-color="#F7DC39"/></linearGradient><linearGradient id="paint45_linear" x1="150" y1="75" x2="0" y2="75" gradientUnits="userSpaceOnUse"><stop stop-color="#D99913"/><stop offset="1" stop-color="#F7DC39"/></linearGradient><linearGradient id="paint46_linear" x1="150" y1="75" x2="0" y2="75" gradientUnits="userSpaceOnUse"><stop stop-color="#D99913"/><stop offset="1" stop-color="#F7DC39"/></linearGradient><linearGradient id="paint47_linear" x1="150" y1="75" x2="0" y2="75" gradientUnits="userSpaceOnUse"><stop stop-color="#D99913"/><stop offset="1" stop-color="#F7DC39"/></linearGradient><linearGradient id="paint48_linear" x1="150" y1="75" x2="0" y2="75" gradientUnits="userSpaceOnUse"><stop stop-color="#D99913"/><stop offset="1" stop-color="#F7DC39"/></linearGradient><linearGradient id="paint49_linear" x1="150" y1="75" x2="0" y2="75" gradientUnits="userSpaceOnUse"><stop stop-color="#D99913"/><stop offset="1" stop-color="#F7DC39"/></linearGradient><linearGradient id="paint50_linear" x1="150" y1="75" x2="0" y2="75" gradientUnits="userSpaceOnUse"><stop stop-color="#D99913"/><stop offset="1" stop-color="#F7DC39"/></linearGradient><linearGradient id="paint51_linear" x1="150" y1="75" x2="0" y2="75" gradientUnits="userSpaceOnUse"><stop stop-color="#D99913"/><stop offset="1" stop-color="#F7DC39"/></linearGradient><linearGradient id="paint52_linear" x1="150" y1="75" x2="0" y2="75" gradientUnits="userSpaceOnUse"><stop stop-color="#D99913"/><stop offset="1" stop-color="#F7DC39"/></linearGradient><linearGradient id="paint53_linear" x1="150" y1="75" x2="0" y2="75" gradientUnits="userSpaceOnUse"><stop stop-color="#D99913"/><stop offset="1" stop-color="#F7DC39"/></linearGradient><linearGradient id="paint54_linear" x1="150" y1="75" x2="0" y2="75" gradientUnits="userSpaceOnUse"><stop stop-color="#D99913"/><stop offset="1" stop-color="#F7DC39"/></linearGradient><linearGradient id="paint55_linear" x1="150" y1="75" x2="0" y2="75" gradientUnits="userSpaceOnUse"><stop stop-color="#D99913"/><stop offset="1" stop-color="#F7DC39"/></linearGradient><linearGradient id="paint56_linear" x1="150" y1="75" x2="0" y2="75" gradientUnits="userSpaceOnUse"><stop stop-color="#D99913"/><stop offset="1" stop-color="#F7DC39"/></linearGradient><linearGradient id="paint57_linear" x1="150" y1="75" x2="0" y2="75" gradientUnits="userSpaceOnUse"><stop stop-color="#D99913"/><stop offset="1" stop-color="#F7DC39"/></linearGradient><linearGradient id="paint58_linear" x1="150" y1="75" x2="0" y2="75" gradientUnits="userSpaceOnUse"><stop stop-color="#D99913"/><stop offset="1" stop-color="#F7DC39"/></linearGradient><linearGradient id="paint59_linear" x1="150" y1="75" x2="0" y2="75" gradientUnits="userSpaceOnUse"><stop stop-color="#D99913"/><stop offset="1" stop-color="#F7DC39"/></linearGradient><linearGradient id="paint60_linear" x1="150" y1="75" x2="0" y2="75" gradientUnits="userSpaceOnUse"><stop stop-color="#D99913"/><stop offset="1" stop-color="#F7DC39"/></linearGradient><linearGradient id="paint61_linear" x1="150" y1="75" x2="0" y2="75" gradientUnits="userSpaceOnUse"><stop stop-color="#D99913"/><stop offset="1" stop-color="#F7DC39"/></linearGradient><linearGradient id="paint62_linear" x1="150" y1="75" x2="0" y2="75" gradientUnits="userSpaceOnUse"><stop stop-color="#D99913"/><stop offset="1" stop-color="#F7DC39"/></linearGradient><linearGradient id="paint63_linear" x1="150" y1="75" x2="0" y2="75" gradientUnits="userSpaceOnUse"><stop stop-color="#D99913"/><stop offset="1" stop-color="#F7DC39"/></linearGradient><linearGradient id="paint64_linear" x1="150" y1="75" x2="0" y2="75" gradientUnits="userSpaceOnUse"><stop stop-color="#D99913"/><stop offset="1" stop-color="#F7DC39"/></linearGradient><linearGradient id="paint65_linear" x1="150" y1="75" x2="0" y2="75" gradientUnits="userSpaceOnUse"><stop stop-color="#D99913"/><stop offset="1" stop-color="#F7DC39"/></linearGradient><linearGradient id="paint66_linear" x1="150" y1="75" x2="0" y2="75" gradientUnits="userSpaceOnUse"><stop stop-color="#D99913"/><stop offset="1" stop-color="#F7DC39"/></linearGradient><linearGradient id="paint67_linear" x1="150" y1="75" x2="0" y2="75" gradientUnits="userSpaceOnUse"><stop stop-color="#D99913"/><stop offset="1" stop-color="#F7DC39"/></linearGradient><linearGradient id="paint68_linear" x1="150" y1="75" x2="0" y2="75" gradientUnits="userSpaceOnUse"><stop stop-color="#D99913"/><stop offset="1" stop-color="#F7DC39"/></linearGradient><linearGradient id="paint69_linear" x1="150" y1="75" x2="0" y2="75" gradientUnits="userSpaceOnUse"><stop stop-color="#D99913"/><stop offset="1" stop-color="#F7DC39"/></linearGradient><linearGradient id="paint70_linear" x1="150" y1="75" x2="0" y2="75" gradientUnits="userSpaceOnUse"><stop stop-color="#D99913"/><stop offset="1" stop-color="#F7DC39"/></linearGradient><linearGradient id="paint71_linear" x1="150" y1="75" x2="0" y2="75" gradientUnits="userSpaceOnUse"><stop stop-color="#D99913"/><stop offset="1" stop-color="#F7DC39"/></linearGradient><linearGradient id="paint72_linear" x1="150" y1="75" x2="0" y2="75" gradientUnits="userSpaceOnUse"><stop stop-color="#D99913"/><stop offset="1" stop-color="#F7DC39"/></linearGradient><linearGradient id="paint73_linear" x1="150" y1="75" x2="0" y2="75" gradientUnits="userSpaceOnUse"><stop stop-color="#D99913"/><stop offset="1" stop-color="#F7DC39"/></linearGradient><linearGradient id="paint74_linear" x1="150" y1="75" x2="0" y2="75" gradientUnits="userSpaceOnUse"><stop stop-color="#D99913"/><stop offset="1" stop-color="#F7DC39"/></linearGradient><linearGradient id="paint75_linear" x1="150" y1="75" x2="0" y2="75" gradientUnits="userSpaceOnUse"><stop stop-color="#D99913"/><stop offset="1" stop-color="#F7DC39"/></linearGradient><linearGradient id="paint76_linear" x1="150" y1="75" x2="0" y2="75" gradientUnits="userSpaceOnUse"><stop stop-color="#D99913"/><stop offset="1" stop-color="#F7DC39"/></linearGradient><linearGradient id="paint77_linear" x1="150" y1="75" x2="0" y2="75" gradientUnits="userSpaceOnUse"><stop stop-color="#D99913"/><stop offset="1" stop-color="#F7DC39"/></linearGradient><linearGradient id="paint78_linear" x1="150" y1="75" x2="0" y2="75" gradientUnits="userSpaceOnUse"><stop stop-color="#D99913"/><stop offset="1" stop-color="#F7DC39"/></linearGradient><linearGradient id="paint79_linear" x1="150" y1="75" x2="0" y2="75" gradientUnits="userSpaceOnUse"><stop stop-color="#D99913"/><stop offset="1" stop-color="#F7DC39"/></linearGradient><linearGradient id="paint80_linear" x1="150" y1="75" x2="0" y2="75" gradientUnits="userSpaceOnUse"><stop stop-color="#D99913"/><stop offset="1" stop-color="#F7DC39"/></linearGradient><linearGradient id="paint81_linear" x1="150" y1="75" x2="0" y2="75" gradientUnits="userSpaceOnUse"><stop stop-color="#D99913"/><stop offset="1" stop-color="#F7DC39"/></linearGradient><linearGradient id="paint82_linear" x1="150" y1="75" x2="0" y2="75" gradientUnits="userSpaceOnUse"><stop stop-color="#D99913"/><stop offset="1" stop-color="#F7DC39"/></linearGradient><linearGradient id="paint83_linear" x1="150" y1="75" x2="0" y2="75" gradientUnits="userSpaceOnUse"><stop stop-color="#D99913"/><stop offset="1" stop-color="#F7DC39"/></linearGradient><linearGradient id="paint84_linear" x1="150" y1="75" x2="0" y2="75" gradientUnits="userSpaceOnUse"><stop stop-color="#D99913"/><stop offset="1" stop-color="#F7DC39"/></linearGradient><linearGradient id="paint85_linear" x1="150" y1="75" x2="0" y2="75" gradientUnits="userSpaceOnUse"><stop stop-color="#D99913"/><stop offset="1" stop-color="#F7DC39"/></linearGradient><linearGradient id="paint86_linear" x1="150" y1="75" x2="0" y2="75" gradientUnits="userSpaceOnUse"><stop stop-color="#D99913"/><stop offset="1" stop-color="#F7DC39"/></linearGradient><linearGradient id="paint87_linear" x1="150" y1="75" x2="0" y2="75" gradientUnits="userSpaceOnUse"><stop stop-color="#D99913"/><stop offset="1" stop-color="#F7DC39"/></linearGradient><linearGradient id="paint88_linear" x1="150" y1="75" x2="0" y2="75" gradientUnits="userSpaceOnUse"><stop stop-color="#D99913"/><stop offset="1" stop-color="#F7DC39"/></linearGradient><linearGradient id="paint89_linear" x1="150" y1="75" x2="0" y2="75" gradientUnits="userSpaceOnUse"><stop stop-color="#D99913"/><stop offset="1" stop-color="#F7DC39"/></linearGradient><linearGradient id="paint90_linear" x1="150" y1="75" x2="0" y2="75" gradientUnits="userSpaceOnUse"><stop stop-color="#D99913"/><stop offset="1" stop-color="#F7DC39"/></linearGradient><linearGradient id="paint91_linear" x1="150" y1="75" x2="0" y2="75" gradientUnits="userSpaceOnUse"><stop stop-color="#D99913"/><stop offset="1" stop-color="#F7DC39"/></linearGradient><linearGradient id="paint92_linear" x1="150" y1="75" x2="0" y2="75" gradientUnits="userSpaceOnUse"><stop stop-color="#D99913"/><stop offset="1" stop-color="#F7DC39"/></linearGradient><linearGradient id="paint93_linear" x1="150" y1="75" x2="0" y2="75" gradientUnits="userSpaceOnUse"><stop stop-color="#D99913"/><stop offset="1" stop-color="#F7DC39"/></linearGradient><linearGradient id="paint94_linear" x1="150" y1="75" x2="0" y2="75" gradientUnits="userSpaceOnUse"><stop stop-color="#D99913"/><stop offset="1" stop-color="#F7DC39"/></linearGradient><linearGradient id="paint95_linear" x1="150" y1="75" x2="0" y2="75" gradientUnits="userSpaceOnUse"><stop stop-color="#D99913"/><stop offset="1" stop-color="#F7DC39"/></linearGradient><linearGradient id="paint96_linear" x1="150" y1="75" x2="0" y2="75" gradientUnits="userSpaceOnUse"><stop stop-color="#D99913"/><stop offset="1" stop-color="#F7DC39"/></linearGradient><linearGradient id="paint97_linear" x1="150" y1="75" x2="0" y2="75" gradientUnits="userSpaceOnUse"><stop stop-color="#D99913"/><stop offset="1" stop-color="#F7DC39"/></linearGradient><linearGradient id="paint98_linear" x1="150" y1="75" x2="0" y2="75" gradientUnits="userSpaceOnUse"><stop stop-color="#D99913"/><stop offset="1" stop-color="#F7DC39"/></linearGradient><linearGradient id="paint99_linear" x1="150" y1="75" x2="0" y2="75" gradientUnits="userSpaceOnUse"><stop stop-color="#D99913"/><stop offset="1" stop-color="#F7DC39"/></linearGradient><linearGradient id="paint100_linear" x1="394" y1="377" x2="244" y2="377" gradientUnits="userSpaceOnUse"><stop stop-color="#D99913"/><stop offset="1" stop-color="#F7DC39"/></linearGradient><linearGradient id="paint101_linear" x1="394" y1="377" x2="244" y2="377" gradientUnits="userSpaceOnUse"><stop stop-color="#D99913"/><stop offset="1" stop-color="#F7DC39"/></linearGradient><linearGradient id="paint102_linear" x1="394" y1="377" x2="244" y2="377" gradientUnits="userSpaceOnUse"><stop stop-color="#D99913"/><stop offset="1" stop-color="#F7DC39"/></linearGradient><linearGradient id="paint103_linear" x1="394" y1="377" x2="244" y2="377" gradientUnits="userSpaceOnUse"><stop stop-color="#D99913"/><stop offset="1" stop-color="#F7DC39"/></linearGradient><linearGradient id="paint104_linear" x1="394" y1="377" x2="244" y2="377" gradientUnits="userSpaceOnUse"><stop stop-color="#D99913"/><stop offset="1" stop-color="#F7DC39"/></linearGradient><linearGradient id="paint105_linear" x1="394" y1="377" x2="244" y2="377" gradientUnits="userSpaceOnUse"><stop stop-color="#D99913"/><stop offset="1" stop-color="#F7DC39"/></linearGradient><linearGradient id="paint106_linear" x1="394" y1="377" x2="244" y2="377" gradientUnits="userSpaceOnUse"><stop stop-color="#D99913"/><stop offset="1" stop-color="#F7DC39"/></linearGradient><linearGradient id="paint107_linear" x1="394" y1="377" x2="244" y2="377" gradientUnits="userSpaceOnUse"><stop stop-color="#D99913"/><stop offset="1" stop-color="#F7DC39"/></linearGradient><linearGradient id="paint108_linear" x1="394" y1="377" x2="244" y2="377" gradientUnits="userSpaceOnUse"><stop stop-color="#D99913"/><stop offset="1" stop-color="#F7DC39"/></linearGradient><linearGradient id="paint109_linear" x1="394" y1="377" x2="244" y2="377" gradientUnits="userSpaceOnUse"><stop stop-color="#D99913"/><stop offset="1" stop-color="#F7DC39"/></linearGradient><linearGradient id="paint110_linear" x1="394" y1="377" x2="244" y2="377" gradientUnits="userSpaceOnUse"><stop stop-color="#D99913"/><stop offset="1" stop-color="#F7DC39"/></linearGradient><linearGradient id="paint111_linear" x1="394" y1="377" x2="244" y2="377" gradientUnits="userSpaceOnUse"><stop stop-color="#D99913"/><stop offset="1" stop-color="#F7DC39"/></linearGradient><linearGradient id="paint112_linear" x1="394" y1="377" x2="244" y2="377" gradientUnits="userSpaceOnUse"><stop stop-color="#D99913"/><stop offset="1" stop-color="#F7DC39"/></linearGradient><linearGradient id="paint113_linear" x1="394" y1="377" x2="244" y2="377" gradientUnits="userSpaceOnUse"><stop stop-color="#D99913"/><stop offset="1" stop-color="#F7DC39"/></linearGradient><linearGradient id="paint114_linear" x1="394" y1="377" x2="244" y2="377" gradientUnits="userSpaceOnUse"><stop stop-color="#D99913"/><stop offset="1" stop-color="#F7DC39"/></linearGradient><linearGradient id="paint115_linear" x1="394" y1="377" x2="244" y2="377" gradientUnits="userSpaceOnUse"><stop stop-color="#D99913"/><stop offset="1" stop-color="#F7DC39"/></linearGradient><linearGradient id="paint116_linear" x1="394" y1="377" x2="244" y2="377" gradientUnits="userSpaceOnUse"><stop stop-color="#D99913"/><stop offset="1" stop-color="#F7DC39"/></linearGradient><linearGradient id="paint117_linear" x1="394" y1="377" x2="244" y2="377" gradientUnits="userSpaceOnUse"><stop stop-color="#D99913"/><stop offset="1" stop-color="#F7DC39"/></linearGradient><linearGradient id="paint118_linear" x1="394" y1="377" x2="244" y2="377" gradientUnits="userSpaceOnUse"><stop stop-color="#D99913"/><stop offset="1" stop-color="#F7DC39"/></linearGradient><linearGradient id="paint119_linear" x1="394" y1="377" x2="244" y2="377" gradientUnits="userSpaceOnUse"><stop stop-color="#D99913"/><stop offset="1" stop-color="#F7DC39"/></linearGradient><linearGradient id="paint120_linear" x1="394" y1="377" x2="244" y2="377" gradientUnits="userSpaceOnUse"><stop stop-color="#D99913"/><stop offset="1" stop-color="#F7DC39"/></linearGradient><linearGradient id="paint121_linear" x1="394" y1="377" x2="244" y2="377" gradientUnits="userSpaceOnUse"><stop stop-color="#D99913"/><stop offset="1" stop-color="#F7DC39"/></linearGradient><linearGradient id="paint122_linear" x1="394" y1="377" x2="244" y2="377" gradientUnits="userSpaceOnUse"><stop stop-color="#D99913"/><stop offset="1" stop-color="#F7DC39"/></linearGradient><linearGradient id="paint123_linear" x1="394" y1="377" x2="244" y2="377" gradientUnits="userSpaceOnUse"><stop stop-color="#D99913"/><stop offset="1" stop-color="#F7DC39"/></linearGradient><linearGradient id="paint124_linear" x1="394" y1="377" x2="244" y2="377" gradientUnits="userSpaceOnUse"><stop stop-color="#D99913"/><stop offset="1" stop-color="#F7DC39"/></linearGradient><linearGradient id="paint125_linear" x1="394" y1="377" x2="244" y2="377" gradientUnits="userSpaceOnUse"><stop stop-color="#D99913"/><stop offset="1" stop-color="#F7DC39"/></linearGradient><linearGradient id="paint126_linear" x1="394" y1="377" x2="244" y2="377" gradientUnits="userSpaceOnUse"><stop stop-color="#D99913"/><stop offset="1" stop-color="#F7DC39"/></linearGradient><linearGradient id="paint127_linear" x1="394" y1="377" x2="244" y2="377" gradientUnits="userSpaceOnUse"><stop stop-color="#D99913"/><stop offset="1" stop-color="#F7DC39"/></linearGradient><linearGradient id="paint128_linear" x1="394" y1="377" x2="244" y2="377" gradientUnits="userSpaceOnUse"><stop stop-color="#D99913"/><stop offset="1" stop-color="#F7DC39"/></linearGradient><linearGradient id="paint129_linear" x1="394" y1="377" x2="244" y2="377" gradientUnits="userSpaceOnUse"><stop stop-color="#D99913"/><stop offset="1" stop-color="#F7DC39"/></linearGradient><linearGradient id="paint130_linear" x1="394" y1="377" x2="244" y2="377" gradientUnits="userSpaceOnUse"><stop stop-color="#D99913"/><stop offset="1" stop-color="#F7DC39"/></linearGradient><linearGradient id="paint131_linear" x1="394" y1="377" x2="244" y2="377" gradientUnits="userSpaceOnUse"><stop stop-color="#D99913"/><stop offset="1" stop-color="#F7DC39"/></linearGradient><linearGradient id="paint132_linear" x1="394" y1="377" x2="244" y2="377" gradientUnits="userSpaceOnUse"><stop stop-color="#D99913"/><stop offset="1" stop-color="#F7DC39"/></linearGradient><linearGradient id="paint133_linear" x1="394" y1="377" x2="244" y2="377" gradientUnits="userSpaceOnUse"><stop stop-color="#D99913"/><stop offset="1" stop-color="#F7DC39"/></linearGradient><linearGradient id="paint134_linear" x1="394" y1="377" x2="244" y2="377" gradientUnits="userSpaceOnUse"><stop stop-color="#D99913"/><stop offset="1" stop-color="#F7DC39"/></linearGradient><linearGradient id="paint135_linear" x1="394" y1="377" x2="244" y2="377" gradientUnits="userSpaceOnUse"><stop stop-color="#D99913"/><stop offset="1" stop-color="#F7DC39"/></linearGradient><linearGradient id="paint136_linear" x1="394" y1="377" x2="244" y2="377" gradientUnits="userSpaceOnUse"><stop stop-color="#D99913"/><stop offset="1" stop-color="#F7DC39"/></linearGradient><linearGradient id="paint137_linear" x1="394" y1="377" x2="244" y2="377" gradientUnits="userSpaceOnUse"><stop stop-color="#D99913"/><stop offset="1" stop-color="#F7DC39"/></linearGradient><linearGradient id="paint138_linear" x1="394" y1="377" x2="244" y2="377" gradientUnits="userSpaceOnUse"><stop stop-color="#D99913"/><stop offset="1" stop-color="#F7DC39"/></linearGradient><linearGradient id="paint139_linear" x1="394" y1="377" x2="244" y2="377" gradientUnits="userSpaceOnUse"><stop stop-color="#D99913"/><stop offset="1" stop-color="#F7DC39"/></linearGradient><linearGradient id="paint140_linear" x1="394" y1="377" x2="244" y2="377" gradientUnits="userSpaceOnUse"><stop stop-color="#D99913"/><stop offset="1" stop-color="#F7DC39"/></linearGradient><linearGradient id="paint141_linear" x1="394" y1="377" x2="244" y2="377" gradientUnits="userSpaceOnUse"><stop stop-color="#D99913"/><stop offset="1" stop-color="#F7DC39"/></linearGradient><linearGradient id="paint142_linear" x1="394" y1="377" x2="244" y2="377" gradientUnits="userSpaceOnUse"><stop stop-color="#D99913"/><stop offset="1" stop-color="#F7DC39"/></linearGradient><linearGradient id="paint143_linear" x1="394" y1="377" x2="244" y2="377" gradientUnits="userSpaceOnUse"><stop stop-color="#D99913"/><stop offset="1" stop-color="#F7DC39"/></linearGradient><linearGradient id="paint144_linear" x1="394" y1="377" x2="244" y2="377" gradientUnits="userSpaceOnUse"><stop stop-color="#D99913"/><stop offset="1" stop-color="#F7DC39"/></linearGradient><linearGradient id="paint145_linear" x1="394" y1="377" x2="244" y2="377" gradientUnits="userSpaceOnUse"><stop stop-color="#D99913"/><stop offset="1" stop-color="#F7DC39"/></linearGradient><linearGradient id="paint146_linear" x1="394" y1="377" x2="244" y2="377" gradientUnits="userSpaceOnUse"><stop stop-color="#D99913"/><stop offset="1" stop-color="#F7DC39"/></linearGradient><linearGradient id="paint147_linear" x1="394" y1="377" x2="244" y2="377" gradientUnits="userSpaceOnUse"><stop stop-color="#D99913"/><stop offset="1" stop-color="#F7DC39"/></linearGradient><linearGradient id="paint148_linear" x1="394" y1="377" x2="244" y2="377" gradientUnits="userSpaceOnUse"><stop stop-color="#D99913"/><stop offset="1" stop-color="#F7DC39"/></linearGradient><linearGradient id="paint149_linear" x1="394" y1="377" x2="244" y2="377" gradientUnits="userSpaceOnUse"><stop stop-color="#D99913"/><stop offset="1" stop-color="#F7DC39"/></linearGradient><linearGradient id="paint150_linear" x1="394" y1="377" x2="244" y2="377" gradientUnits="userSpaceOnUse"><stop stop-color="#D99913"/><stop offset="1" stop-color="#F7DC39"/></linearGradient><linearGradient id="paint151_linear" x1="394" y1="377" x2="244" y2="377" gradientUnits="userSpaceOnUse"><stop stop-color="#D99913"/><stop offset="1" stop-color="#F7DC39"/></linearGradient><linearGradient id="paint152_linear" x1="394" y1="377" x2="244" y2="377" gradientUnits="userSpaceOnUse"><stop stop-color="#D99913"/><stop offset="1" stop-color="#F7DC39"/></linearGradient><linearGradient id="paint153_linear" x1="394" y1="377" x2="244" y2="377" gradientUnits="userSpaceOnUse"><stop stop-color="#D99913"/><stop offset="1" stop-color="#F7DC39"/></linearGradient><linearGradient id="paint154_linear" x1="394" y1="377" x2="244" y2="377" gradientUnits="userSpaceOnUse"><stop stop-color="#D99913"/><stop offset="1" stop-color="#F7DC39"/></linearGradient><linearGradient id="paint155_linear" x1="394" y1="377" x2="244" y2="377" gradientUnits="userSpaceOnUse"><stop stop-color="#D99913"/><stop offset="1" stop-color="#F7DC39"/></linearGradient><linearGradient id="paint156_linear" x1="394" y1="377" x2="244" y2="377" gradientUnits="userSpaceOnUse"><stop stop-color="#D99913"/><stop offset="1" stop-color="#F7DC39"/></linearGradient><linearGradient id="paint157_linear" x1="394" y1="377" x2="244" y2="377" gradientUnits="userSpaceOnUse"><stop stop-color="#D99913"/><stop offset="1" stop-color="#F7DC39"/></linearGradient><linearGradient id="paint158_linear" x1="394" y1="377" x2="244" y2="377" gradientUnits="userSpaceOnUse"><stop stop-color="#D99913"/><stop offset="1" stop-color="#F7DC39"/></linearGradient><linearGradient id="paint159_linear" x1="394" y1="377" x2="244" y2="377" gradientUnits="userSpaceOnUse"><stop stop-color="#D99913"/><stop offset="1" stop-color="#F7DC39"/></linearGradient><linearGradient id="paint160_linear" x1="394" y1="377" x2="244" y2="377" gradientUnits="userSpaceOnUse"><stop stop-color="#D99913"/><stop offset="1" stop-color="#F7DC39"/></linearGradient><linearGradient id="paint161_linear" x1="394" y1="377" x2="244" y2="377" gradientUnits="userSpaceOnUse"><stop stop-color="#D99913"/><stop offset="1" stop-color="#F7DC39"/></linearGradient><linearGradient id="paint162_linear" x1="394" y1="377" x2="244" y2="377" gradientUnits="userSpaceOnUse"><stop stop-color="#D99913"/><stop offset="1" stop-color="#F7DC39"/></linearGradient><linearGradient id="paint163_linear" x1="394" y1="377" x2="244" y2="377" gradientUnits="userSpaceOnUse"><stop stop-color="#D99913"/><stop offset="1" stop-color="#F7DC39"/></linearGradient><linearGradient id="paint164_linear" x1="394" y1="377" x2="244" y2="377" gradientUnits="userSpaceOnUse"><stop stop-color="#D99913"/><stop offset="1" stop-color="#F7DC39"/></linearGradient><linearGradient id="paint165_linear" x1="394" y1="377" x2="244" y2="377" gradientUnits="userSpaceOnUse"><stop stop-color="#D99913"/><stop offset="1" stop-color="#F7DC39"/></linearGradient><linearGradient id="paint166_linear" x1="394" y1="377" x2="244" y2="377" gradientUnits="userSpaceOnUse"><stop stop-color="#D99913"/><stop offset="1" stop-color="#F7DC39"/></linearGradient><linearGradient id="paint167_linear" x1="394" y1="377" x2="244" y2="377" gradientUnits="userSpaceOnUse"><stop stop-color="#D99913"/><stop offset="1" stop-color="#F7DC39"/></linearGradient><linearGradient id="paint168_linear" x1="394" y1="377" x2="244" y2="377" gradientUnits="userSpaceOnUse"><stop stop-color="#D99913"/><stop offset="1" stop-color="#F7DC39"/></linearGradient><linearGradient id="paint169_linear" x1="394" y1="377" x2="244" y2="377" gradientUnits="userSpaceOnUse"><stop stop-color="#D99913"/><stop offset="1" stop-color="#F7DC39"/></linearGradient><linearGradient id="paint170_linear" x1="394" y1="377" x2="244" y2="377" gradientUnits="userSpaceOnUse"><stop stop-color="#D99913"/><stop offset="1" stop-color="#F7DC39"/></linearGradient><linearGradient id="paint171_linear" x1="394" y1="377" x2="244" y2="377" gradientUnits="userSpaceOnUse"><stop stop-color="#D99913"/><stop offset="1" stop-color="#F7DC39"/></linearGradient><linearGradient id="paint172_linear" x1="394" y1="377" x2="244" y2="377" gradientUnits="userSpaceOnUse"><stop stop-color="#D99913"/><stop offset="1" stop-color="#F7DC39"/></linearGradient><linearGradient id="paint173_linear" x1="394" y1="377" x2="244" y2="377" gradientUnits="userSpaceOnUse"><stop stop-color="#D99913"/><stop offset="1" stop-color="#F7DC39"/></linearGradient><linearGradient id="paint174_linear" x1="394" y1="377" x2="244" y2="377" gradientUnits="userSpaceOnUse"><stop stop-color="#D99913"/><stop offset="1" stop-color="#F7DC39"/></linearGradient><linearGradient id="paint175_linear" x1="394" y1="377" x2="244" y2="377" gradientUnits="userSpaceOnUse"><stop stop-color="#D99913"/><stop offset="1" stop-color="#F7DC39"/></linearGradient><linearGradient id="paint176_linear" x1="394" y1="377" x2="244" y2="377" gradientUnits="userSpaceOnUse"><stop stop-color="#D99913"/><stop offset="1" stop-color="#F7DC39"/></linearGradient><linearGradient id="paint177_linear" x1="394" y1="377" x2="244" y2="377" gradientUnits="userSpaceOnUse"><stop stop-color="#D99913"/><stop offset="1" stop-color="#F7DC39"/></linearGradient><linearGradient id="paint178_linear" x1="394" y1="377" x2="244" y2="377" gradientUnits="userSpaceOnUse"><stop stop-color="#D99913"/><stop offset="1" stop-color="#F7DC39"/></linearGradient><linearGradient id="paint179_linear" x1="394" y1="377" x2="244" y2="377" gradientUnits="userSpaceOnUse"><stop stop-color="#D99913"/><stop offset="1" stop-color="#F7DC39"/></linearGradient><linearGradient id="paint180_linear" x1="394" y1="377" x2="244" y2="377" gradientUnits="userSpaceOnUse"><stop stop-color="#D99913"/><stop offset="1" stop-color="#F7DC39"/></linearGradient><linearGradient id="paint181_linear" x1="394" y1="377" x2="244" y2="377" gradientUnits="userSpaceOnUse"><stop stop-color="#D99913"/><stop offset="1" stop-color="#F7DC39"/></linearGradient><linearGradient id="paint182_linear" x1="394" y1="377" x2="244" y2="377" gradientUnits="userSpaceOnUse"><stop stop-color="#D99913"/><stop offset="1" stop-color="#F7DC39"/></linearGradient><linearGradient id="paint183_linear" x1="394" y1="377" x2="244" y2="377" gradientUnits="userSpaceOnUse"><stop stop-color="#D99913"/><stop offset="1" stop-color="#F7DC39"/></linearGradient><linearGradient id="paint184_linear" x1="394" y1="377" x2="244" y2="377" gradientUnits="userSpaceOnUse"><stop stop-color="#D99913"/><stop offset="1" stop-color="#F7DC39"/></linearGradient><linearGradient id="paint185_linear" x1="394" y1="377" x2="244" y2="377" gradientUnits="userSpaceOnUse"><stop stop-color="#D99913"/><stop offset="1" stop-color="#F7DC39"/></linearGradient><linearGradient id="paint186_linear" x1="394" y1="377" x2="244" y2="377" gradientUnits="userSpaceOnUse"><stop stop-color="#D99913"/><stop offset="1" stop-color="#F7DC39"/></linearGradient><linearGradient id="paint187_linear" x1="394" y1="377" x2="244" y2="377" gradientUnits="userSpaceOnUse"><stop stop-color="#D99913"/><stop offset="1" stop-color="#F7DC39"/></linearGradient><linearGradient id="paint188_linear" x1="394" y1="377" x2="244" y2="377" gradientUnits="userSpaceOnUse"><stop stop-color="#D99913"/><stop offset="1" stop-color="#F7DC39"/></linearGradient><linearGradient id="paint189_linear" x1="394" y1="377" x2="244" y2="377" gradientUnits="userSpaceOnUse"><stop stop-color="#D99913"/><stop offset="1" stop-color="#F7DC39"/></linearGradient><linearGradient id="paint190_linear" x1="394" y1="377" x2="244" y2="377" gradientUnits="userSpaceOnUse"><stop stop-color="#D99913"/><stop offset="1" stop-color="#F7DC39"/></linearGradient><linearGradient id="paint191_linear" x1="394" y1="377" x2="244" y2="377" gradientUnits="userSpaceOnUse"><stop stop-color="#D99913"/><stop offset="1" stop-color="#F7DC39"/></linearGradient><linearGradient id="paint192_linear" x1="394" y1="377" x2="244" y2="377" gradientUnits="userSpaceOnUse"><stop stop-color="#D99913"/><stop offset="1" stop-color="#F7DC39"/></linearGradient><linearGradient id="paint193_linear" x1="394" y1="377" x2="244" y2="377" gradientUnits="userSpaceOnUse"><stop stop-color="#D99913"/><stop offset="1" stop-color="#F7DC39"/></linearGradient><linearGradient id="paint194_linear" x1="394" y1="377" x2="244" y2="377" gradientUnits="userSpaceOnUse"><stop stop-color="#D99913"/><stop offset="1" stop-color="#F7DC39"/></linearGradient><linearGradient id="paint195_linear" x1="394" y1="377" x2="244" y2="377" gradientUnits="userSpaceOnUse"><stop stop-color="#D99913"/><stop offset="1" stop-color="#F7DC39"/></linearGradient><linearGradient id="paint196_linear" x1="394" y1="377" x2="244" y2="377" gradientUnits="userSpaceOnUse"><stop stop-color="#D99913"/><stop offset="1" stop-color="#F7DC39"/></linearGradient><linearGradient id="paint197_linear" x1="394" y1="377" x2="244" y2="377" gradientUnits="userSpaceOnUse"><stop stop-color="#D99913"/><stop offset="1" stop-color="#F7DC39"/></linearGradient><linearGradient id="paint198_linear" x1="394" y1="377" x2="244" y2="377" gradientUnits="userSpaceOnUse"><stop stop-color="#D99913"/><stop offset="1" stop-color="#F7DC39"/></linearGradient><linearGradient id="paint199_linear" x1="394" y1="377" x2="244" y2="377" gradientUnits="userSpaceOnUse"><stop stop-color="#D99913"/><stop offset="1" stop-color="#F7DC39"/></linearGradient><linearGradient id="paint200_linear" x1="568" y1="88" x2="378" y2="88" gradientUnits="userSpaceOnUse"><stop stop-color="#D99913"/><stop offset="1" stop-color="#F7DC39"/></linearGradient><linearGradient id="paint201_linear" x1="62" y1="429" x2="129" y2="429" gradientUnits="userSpaceOnUse"><stop stop-color="#D99913"/><stop offset="1" stop-color="#F7DC39"/></linearGradient><linearGradient id="paint202_linear" x1="445" y1="124" x2="378" y2="124" gradientUnits="userSpaceOnUse"><stop stop-color="#D99913"/><stop offset="1" stop-color="#F7DC39"/></linearGradient><filter id="filter0_d" x="358" y="63" width="230" height="66" filterUnits="userSpaceOnUse" color-interpolation-filters="sRGB"><feFlood flood-opacity="0" result="BackgroundImageFix"/><feColorMatrix in="SourceAlpha" values="0 0 0 0 0 0 0 0 0 0 0 0 0 0 0 0 0 0 127 0"/><feOffset dy="8"/><feGaussianBlur stdDeviation="10"/><feColorMatrix values="0 0 0 0 0.811765 0 0 0 0 0.603922 0 0 0 0 0 0 0 0 0.1 0"/><feBlend in2="BackgroundImageFix" result="effect1_dropShadow"/><feBlend in="SourceGraphic" in2="effect1_dropShadow" result="shape"/></filter><filter id="filter1_d" x="324" y="63" width="66" height="66" filterUnits="userSpaceOnUse" color-interpolation-filters="sRGB"><feFlood flood-opacity="0" result="BackgroundImageFix"/><feColorMatrix in="SourceAlpha" values="0 0 0 0 0 0 0 0 0 0 0 0 0 0 0 0 0 0 127 0"/><feOffset dy="8"/><feGaussianBlur stdDeviation="10"/><feColorMatrix values="0 0 0 0 0.811765 0 0 0 0 0.603922 0 0 0 0 0 0 0 0 0.1 0"/><feBlend in2="BackgroundImageFix" result="effect1_dropShadow"/><feBlend in="SourceGraphic" in2="effect1_dropShadow" result="shape"/></filter></defs></svg>