<svg width="716" height="532" fill="none" xmlns="http://www.w3.org/2000/svg"><path d="M60.236 332.59s-54.59-68.24 42.891-116c108.21-31.2 141.46-76.55 205.69-135.55 66.29-63.37 250.53-122.83 309 46.79 14.63 49.56 2.93 71.16 39 143.3 18.52 38 5.49 134.53-158.9 137.45-43.4 0-69.21 8.55-91.14 15.53a128.265 128.265 0 01-67.58 2.93c-54.66-12.52-119.48-47.29-175.29-46.83a131.082 131.082 0 01-58.76-13c-15.84-7.81-32.54-19.05-44.91-34.62z" fill="url(#paint0_linear)"/><g filter="url(#filter0_dii)"><rect width="216.409" height="440.369" rx="50" transform="scale(-1.31349 .52417) rotate(45 -370.61 -119.962)" fill="#F3F5F7"/></g><rect width="191.712" height="415.121" rx="40" transform="scale(-1.31349 .52417) rotate(45 -381.562 -115.426)" fill="#F6F2FF"/><path d="M298.782 103.539c0-2.76-3.29-15.54-4.81-21.34l-21.29 11.72a9.724 9.724 0 00-5 8.53v59.76a3.142 3.142 0 001.56 2.71 1.122 1.122 0 01.206 1.77c-.167.16-.378.265-.606.3l-.57.08a3 3 0 00-2.57 3v5.24l-9.18 10.35s.43.42 1.08 1.13c2.05 2.21 6.29 7.23 6.6 11a4.21 4.21 0 01-.3 2c4.31-2.36 8.62-4.86 11.53-6.57 2.15-3.17 4-6.15 5.1-7.94a3.513 3.513 0 013-1.68h4.9a1.739 1.739 0 001.467-2.702 1.74 1.74 0 00-.997-.718l-4.47-1.27a3.716 3.716 0 01-2.7-3.35l-3.44-57.3 3.44 57.3a3.722 3.722 0 002.7 3.35l4.47 1.27a1.74 1.74 0 01-.47 3.42h-4.9a3.513 3.513 0 00-3 1.68c-1.09 1.79-2.95 4.77-5.1 7.94-.45.67-.92 1.35-1.39 2-.72 1-1.46 2.05-2.2 3-.74.95-1.48 1.93-2.2 2.8l-.16.18c-.71.85-1.41 1.63-2.08 2.29l-.18.18-.44.41c-.13.12-.25.24-.38.34a1.951 1.951 0 00-.685 1.413 1.944 1.944 0 00.585 1.457c4.14 3.93 12.53 9.9 20.12 5.87 2.33-2.06 6.15-8 9.93-14.72.85-1.52 1.7-3.08 2.54-4.65a229.9 229.9 0 004.52-9c2.71-5.73 4.6-10.54 4.65-12.38a2.454 2.454 0 010-.42c-.48-2-4.26-15.68-7.73-29.58-3.1-12.44-5.95-25-5.95-29.64.8-4.76 4.4-5.63 4.4-9.23zm-4.86 26.9a.656.656 0 01-.244.517.656.656 0 01-.556.133l-9-1.89a.664.664 0 01-.52-.59l-.37-3.82a.67.67 0 01.85-.7l9.36 2.71a.65.65 0 01.48.64v3z" fill="#A395C8"/><path d="M301.312 122.709l-.79 2.55-.29 17.28c-3.1-12.44-5.95-25-5.95-29.64.9-4.86 4.5-5.76 4.5-9.36 0-2.76-3.29-15.54-4.81-21.34l8-4.42c-.14 8.31-.53 32.82-.69 44.91l.03.02z" fill="#A395C8"/><path d="M315.382 26.419l-.15.09.4-.26a.999.999 0 011.46.74c.027.245.067.489.12.73a4.655 4.655 0 01-.1-.51 1.115 1.115 0 00-.646-.876 1.118 1.118 0 00-1.084.086zm-16.09 21.52c.82.21 2 .19 2.42.28a6.53 6.53 0 01-2.42-.28zm-.69-.34c.209.15.442.266.69.34a1.489 1.489 0 01-.69-.34z" fill="#56C5E0"/><path d="M264.162 197.799c-.31-3.82-4.55-8.84-6.6-11-2.24.49-6.17 1.23-6.53.55l-.12.09c-.799.526-1.638.987-2.51 1.38 1.35 1.08 2.91 2.79 1.53 4.14 1.34.52 3.24 1.63 1.18 3.34 1.15.68 3 2 2.15 3.22 1.47.95 3 2.29 1.9 3.16-.21.16-.46.34-.76.54 2.99 1.09 7.62-3.21 9.76-5.42zm-8.76-2c2.16-3.6-3.12-6.24-3.12-6.24s5.28 2.66 3.12 6.26v-.02zm2.64 4a6.201 6.201 0 01-1.56-2.79 6.2 6.2 0 001.54 2.83l.02-.04z" fill="#F9CAC0"/><path d="M252.882 199.839c.142-.103.267-.227.37-.37 1.47.95 3 2.29 1.9 3.16-.21.16-.46.34-.76.54-2.39 1.62-7.23 4.3-9.06 4.41-2.06.12-3.62.48-6.14-1.44a3.303 3.303 0 01-.83-.87 1.627 1.627 0 01.25-2c3.27 1.3 12.22-1.86 14.27-3.43z" fill="#F9CAC0"/><path d="M251.082 196.269c1.15.68 3 2 2.15 3.22a1.624 1.624 0 01-.37.37c-2 1.57-11 4.73-14.26 3.39a1.998 1.998 0 01-.86-.6c-1.39-1.78-2.19-3.1-1.63-4.26 3.6 1.14 11.18-.15 14.97-2.12z" fill="#F9CAC0"/><path d="M248.402 188.769a18.054 18.054 0 002.51-1.38c.29-2.87.42-7.21-.37-8.79-.9-1.8-10.44-2.52-13.32-2.16-2.88.36-7.2 2-7.2 4.32 0 2.32 2.7 2.88 4.5 4.86a3.503 3.503 0 01.72 4c.213.08.423.15.63.21a17.22 17.22 0 0012.53-1.06zm-5.38-7.29c-6.48 1.26-9-.18-8.1-1.62.9-1.44 5.65-1.62 5.65-1.62s8.89 1.98 2.45 3.24z" fill="#724F46"/><path d="M248.402 188.769c1.35 1.08 2.91 2.79 1.53 4.14a3.622 3.622 0 01-1.16.75c-3.44 1.53-7.23.74-10.65 0a6.12 6.12 0 01-1.22-.38c-2-.88-1.62-2.45-1-3.49a17.222 17.222 0 0012.5-1.02z" fill="#F9CAC0"/><path d="M248.772 193.659a3.639 3.639 0 001.16-.75c1.34.52 3.24 1.63 1.18 3.34-3.79 2-11.37 3.26-15 2.1a4.665 4.665 0 01-.9-.39c-3-1.75-.11-3.73 1.67-4.7a6.12 6.12 0 001.22.38c3.44.76 7.23 1.55 10.67.02z" fill="#F9CAC0"/><path d="M301.582 46.279a7.616 7.616 0 00-3 .37s-.33.44-.15.79a.68.68 0 01-.06-.84 8.696 8.696 0 013.21-.32zm-4.34-16.84zm-1.74-11.38zm6.46 28.38a.998.998 0 01.32 1.34 1.067 1.067 0 00-.32-1.34zm28.21-26.32l1.41-.07-1.41.07zm-19.44-.41l.24.05h-.2a2.489 2.489 0 00-1.5.11c-.1 0-.2.06-.3.09a4.02 4.02 0 00.49-.17c.401-.171.85-.2 1.27-.08z" fill="#56C5E0"/><path d="M298.532 30.169c-.445-.216-.876-.46-1.29-.73-.8 4.55-2.3 13.63-1.76 14.7.72 1.44 1.2 2.64 1.2 2.64s2.4 3.12 1.68 5.28-1.89 7.2.13 10.32a56.79 56.79 0 014.91 10.08 2.377 2.377 0 001.62 1.38c3 1.06 9-1.38 9-1.38s7.62-4.08 9.57-8.4c1.95-4.32 1.23-10.69 1.23-10.69a36.08 36.08 0 01.13-6.14c.37-1.78-1.63-2-3.43-4.89-1.07-1.72-1.32-5.38-1.34-8a.662.662 0 01-.5-.14 1.788 1.788 0 01-.26-.23 5.922 5.922 0 01-1.08-2.27v-.16c-.12-.41-.23-.81-.35-1.2-.12-.39-.22-.71-.31-1.05 0-.14-.07-.27-.11-.4-.04-.13-.13-.48-.19-.71-.06-.23-.05-.28-.07-.42a4.43 4.43 0 01-.1-.51 1.127 1.127 0 00-.646-.876 1.118 1.118 0 00-1.084.086l-.15.09-.49.33-.43.28c-.16.09-.31.19-.46.29l-.47.29-.48.3-.5.29-.5.29-.53.29-.52.27-.57.28-.53.25-.6.26-.55.22-.62.22-.57.2-.64.18-.57.15-.66.12-.59.11c-.22 0-.45 0-.68.06l-.58.05h-1.28c-.24 0-.49-.07-.73-.1s-.37 0-.56-.08c-.19-.08-.52-.13-.77-.2s-.35-.08-.53-.14c-.18-.06-.57-.23-.86-.35-.24-.13-.39-.17-.53-.24z" fill="#F9CAC0"/><path d="M238.372 205.269c-2.51 1.41-9.85 5.93-9.25 10.41.72 5.4.12 3.69-3.6 9.74-3.54 5.76 2.77 12 6.59 15.1-.39-3.27-.65-5.8-.65-7 0-2.17 25-19.34 34.78-26a1.93 1.93 0 01.1-2.87c.13-.1.25-.22.38-.34l.44-.41.18-.18c.67-.66 1.37-1.44 2.08-2.29l.16-.18c.72-.87 1.46-1.82 2.2-2.8.74-.98 1.48-2 2.2-3 .47-.68.94-1.36 1.39-2-2.91 1.71-7.22 4.21-11.53 6.57a4.21 4.21 0 00.3-2c-2.16 2.25-6.77 6.51-9.76 5.37-2.39 1.62-7.23 4.3-9.06 4.41-2.06.12-3.62.48-6.14-1.44a3.291 3.291 0 01-.81-1.09zm7 14.46l-10.66 5.68 10.66-5.68z" fill="#724F46"/><path d="M306.282 105.099l.75-6h7.17l.04-.03-.28 6.03h-7.68z" fill="#56C5E0"/><path d="M307.022 99.099l-1.64-6.28a3.754 3.754 0 01.76-3.36l3-3.56h7l2.72 5.28a3.8 3.8 0 01-.87 4.6l-3.73 3.28-7.24.04z" fill="#CCC5DD"/><path d="M326.962 232.329h.53c3.45-.08 8.33-.74 8.33-.74s-4.88.66-8.33.74c-2.77-.88-4.4-3.56-3.19-4.55a2.562 2.562 0 011.89-.34c9.45 1.66 4.34-12.75 4.34-12.75-.12-.26-.25-.5-.37-.72 2.69-.77 5.8 1.72 9 1.72 1.13 0 2.77-1.51 3.83-2.63 3.47.39 8.1 4.6 10.57 7.09-.56 2.28-1.4 5.45-2.32 8.34-1 3.25-2.18 6.17-3.17 7.11-2.61 2.47-10.53 5.11-11.73 4.87a.998.998 0 01-.77-1.29c.01-.071.027-.142.05-.21l6.1-2.82-6.1 2.82c-.023.068-.04.139-.05.21-1.61 0-3.33-.2-2.82-1.45a3.792 3.792 0 011.82-1.67c-1.21 0-2.6.06-3.9 0-1.31.035-2.62-.089-3.9-.37a3.096 3.096 0 01-.66-.32c-1.71-.93-2.21-3.01.85-3.04z" fill="#F9CAC0"/><path d="M291.292 405.249a5.78 5.78 0 003.45-1.46c5.21-4.94 5.18-16.69 9.08-20.53.53-.42 2.7 0 2.7 0s-3.64 13.41-5.4 16.92c-1.76 3.51-3.51 8.22-11.64 8.82-5.4-.26-6.92-3.8-7.06-6.26.3 2.43 3.43 2.99 8.87 2.51z" fill="#A295C7"/><path d="M315.762 124.009c2.07-3.44 5.07-6.32 7.77-12 2.22-.16 4.29-3.21 5.41-5.22 1.75 3.53 2.55 5.66-1.9 10.92-2.78 3.52-9 15.38-11.83 21.71l.55-15.41z" fill="#A395C8"/><path d="M330.522 214.679c-.12-.26-.25-.5-.37-.72-3.19-5.51-7.86 1-9.59 5.86-1.27 3.56 1.81 6.52 3.73 7.95a2.562 2.562 0 011.89-.34c9.45 1.66 4.34-12.75 4.34-12.75zm-5.5 8.92c-4.15 1.08-.54-6.12.18-7.92.04 0 4.02 6.84-.18 7.92zm1.9 1.8c2.8.36 2.6-5.22 2.6-6.66.04 1.44.24 7.02-2.56 6.66h-.04z" fill="#724F46"/><path d="M300.522 125.259l.79-2.55 5.48-17.59h6.33l2.25 6.49.75 2.14-.36 10.26-.55 15.44a28.712 28.712 0 00-1.31 3.31c-1.08 3.78-5.94 25.92-5.94 29.34-.48-2-4.26-15.68-7.73-29.58l.29-17.26z" fill="#CCC5DD"/><path d="M327.192 257.089l-.17-.08.12.07a.61.61 0 00.51.05.558.558 0 01-.46-.04zm-60.87-52.51c.13-.1.25-.22.38-.34-.13.12-.25.24-.38.34a1.951 1.951 0 00-.685 1.413 1.944 1.944 0 00.585 1.457 1.938 1.938 0 01-.59-1.457 1.92 1.92 0 01.69-1.413zm61.37 52.55a.546.546 0 00.38-.53.519.519 0 01-.38.53z" fill="#56C5E0"/><path d="M282.402 402.339a2.67 2.67 0 000 .4c.3 2.43 3.43 3 8.87 2.51a5.78 5.78 0 003.45-1.46c5.21-4.94 5.18-16.69 9.08-20.53.53-.42 2.7 0 2.7 0a116.544 116.544 0 006.34-9.92 1.475 1.475 0 00-.07-1.57c-1.54-2.31-4.16-9-5.47-12.48a.605.605 0 00-.613-.384.595.595 0 00-.537.484c-.66 3.41-2.46 9.62-6.85 10.91-4.76 1.4-5.38-3.07-5.42-5.13a1.112 1.112 0 00-1-1.08c-3.15-.21-12-.48-9.23 3.69 1.9 8.82-1.25 31.53-1.25 34.56zm25.56-34.92s-6.25 9.72-11.22 7.56c4.97 2.16 11.22-7.56 11.22-7.56zm-14.13 28.08l4-14.27 1.44 5.63 8.64-13.32-8.59 13.32-1.44-5.63-4.05 14.27z" fill="#A295C7"/><path d="M267.362 203.609c.67-.66 1.37-1.44 2.08-2.29-.71.85-1.42 1.63-2.08 2.29zm-.62.59l.44-.41-.44.41zm5.06-5.86c.74-1 1.48-2 2.2-3-.72.99-1.46 2.01-2.2 3zm-2.2 2.8c.72-.87 1.46-1.82 2.2-2.8-.78.98-1.48 1.93-2.2 2.8z" fill="#56C5E0"/><path d="M305.922 195.819l7.06.75c.4 2 .8 4 1.17 6l-8.23-1.26s.84-5.49 0-5.49z" fill="#CCC5DD"/><path d="M298.832 194.009a229.9 229.9 0 004.52-9l2.93 4.64 4.19-5c.78 3.61 1.66 7.72 2.51 12l-7.06-.75c-.57-.08-4.56-1.2-7.09-1.89z" fill="#fff"/><path d="M305.922 195.819v5.52l-9.63-2.72c.85-1.52 1.7-3.08 2.54-4.65 2.53.73 6.52 1.85 7.09 1.85zm-2.57-10.88c2.71-5.73 4.6-10.54 4.65-12.38.18 1.64 1.19 6.18 2.47 12l-4.19 5-2.93-4.62z" fill="#CCC5DD"/><path d="M305.922 201.339v-5.52c.84 0 0 5.52 0 5.52zm-11.9-182.9z" fill="#56C5E0"/><path d="M348.022 263.869c-1.68-1.56-1.92-3.73-1-6.61.152-.475.42-.905.78-1.25l3 8.67a5.156 5.156 0 01-2.78-.81z" fill="#724F46"/><path d="M358.482 263.869a2.524 2.524 0 01-1.27.46l-4-10.07c.91-.16 1.9-.34 3-.58l3.15 9.26a6.1 6.1 0 00-.88.93zm3.12 5.75l-2 .6-1.27-2.84a9.056 9.056 0 002-.8l1.27 3.04z" fill="#CCC5DD"/><path d="M353.402 264.729l-3.27-9.84c.87-.24 1.91-.42 3.11-.63l4 10.07a23.57 23.57 0 01-3.84.4zm25.5 2.96c-.55 7.63 15.13 14.38 21.88 15.73 1.008.19 2.042.19 3.05 0 5.93-1.08 23-1.86 27.25-2.17 9.85-.72 22.83-17.52 20.85-30.33a47.162 47.162 0 01.16-12c1.66-10.5-10-21.77-15.74-28.09a12.682 12.682 0 01-3-5.33 5.505 5.505 0 00-3.92-3.71 25.9 25.9 0 01-.7 4.87c-2.89 2.39-17.29-2.48-23.15-2.16h-.06c-1.09.06-2.72.84-4.25 1.13a9.581 9.581 0 00-3 1.16c-4.74 2.69-17 10-21.35 16.57a12.117 12.117 0 00-1.39 11.62c-.06 4 .3 5.8-.81 8.48 2.77 3 3.93 5.59 4.11 7.6.19 2.46.81 14.61.07 16.63zm60.58-47.54c-.72 1.59-1.92 5.91-1.92 5.91s1.2-4.32 1.92-5.91zm1.44 23.43s-1.44 6.24-5.28 7.44c3.84-1.2 5.28-7.44 5.28-7.44zm-10.32 18.72zm-26.88-21.84a9.28 9.28 0 011.8-.65v-12.75c-1.45.16-2.4.37-2.4.37v-5.42s1.49 0 3.72.19v-4h4.18v4.53c1.687.262 3.357.626 5 1.09v-5h4.8v6.88a10.444 10.444 0 014.92 4.76c2.43 5.49-3.16 8.52-7.32 10v16.53c2.15-.92 3.6-1.65 3.6-1.65l.12 4.74s-2 .81-4.48 1.68l-.56 4.62h-3.35v-3.37c-1.137.35-2.306.581-3.49.69-.69 0-1.69.15-2.88.22v4.14h-3.84v-4.16c-4.07-.37-8.46-2.14-9.6-8.44-1.86-10.68 7.14-13.56 9.78-15zm-11-13s-5 3.19-4.56 5.11c.44 1.92 5 6.24 4.56 7.92.48-1.68-4.08-6-4.56-7.92-.48-1.92 4.52-5.14 4.52-5.14l.04.03z" fill="#724F46"/><path d="M350.822 264.679l-3-8.67a4.995 4.995 0 012.27-1.12l3.27 9.84c-.847.033-1.695.016-2.54-.05zm-2.33-23.22l-1.53-3.4 3.12-.6 1.63 4.05a22.92 22.92 0 00-3.22-.05zm55.23-1a9.28 9.28 0 011.8-.65c1-.28 2.26-.58 3.6-.94 4.52-1.16 10-2.87 10.08-6.33-.82-4.66-5.86-5.69-10.08-5.7a30.948 30.948 0 00-3.6.22c-1.45.16-2.4.37-2.4.37v-5.42s1.49 0 3.72.19c1.22.1 2.66.25 4.2.5 1.687.262 3.357.626 5 1.09a25.272 25.272 0 014.8 1.86 10.44 10.44 0 014.92 4.76c2.43 5.49-3.16 8.52-7.32 10-1.13.39-2.15.66-2.88.84-.73.18-1.14.24-1.14.24a28.358 28.358 0 00-7 1.3c-.929.29-1.834.647-2.71 1.07a11.608 11.608 0 00-5.09 4.47c-3.16 5.5-.35 11.17 4.38 12.24.885.207 1.8.247 2.7.12l.72-.11a44.52 44.52 0 008.16-2.46c1-.4 2-.8 2.88-1.18 2.15-.92 3.6-1.65 3.6-1.65l.12 4.74s-2 .81-4.48 1.68c-1.26.44-2.63.89-3.91 1.25-1.137.35-2.306.581-3.49.69-.69 0-1.69.15-2.88.22a23.445 23.445 0 01-3.84 0c-4.07-.37-8.46-2.14-9.6-8.44-1.9-10.65 7.1-13.53 9.74-14.97z" fill="#CCC5DD"/><path d="M407.442 260.509v-17.79a28.358 28.358 0 017-1.3s.44-.08 1.14-.24v16.83a44.45 44.45 0 01-8.14 2.5z" fill="#724F46"/><path d="M406.722 260.619c-.9.127-1.815.087-2.7-.12l.71-16.71c.876-.423 1.782-.78 2.71-1.07v17.79l-.72.11z" fill="#CCC5DD"/><path d="M399.642 248.259a11.603 11.603 0 015.09-4.47l-.71 16.71c-4.73-1.07-7.54-6.74-4.38-12.24z" fill="#724F46"/><path d="M415.602 241.179c.73-.18 1.75-.45 2.88-.84v16.53c-.86.38-1.84.78-2.88 1.18v-16.87zm-8.16 22.62v4.14h-3.84v-4.16c1.277.111 2.561.118 3.84.02z" fill="#CCC5DD"/><path d="M296.732 235.579l.11-.68.27-.17c-.09.28-.25.56-.38.85z" fill="#56C5E0"/><path d="M327.022 269.679c.82 1.46 1.82 3.19 2.93 5.52a3.22 3.22 0 002 1.69c11.13 3.4 14.09 3.45 14.5 1.68a1.315 1.315 0 01.745-.87 1.315 1.315 0 011.145.04c2.77 1.43 7.35 2.66 9.59 3.52 2.94 1.13 5.67-1.15 7.79-4.64a.84.84 0 011-.38c4.76 1.59 11.19-7.49 12.11-8.3a.638.638 0 00.14-.25c.74-2 .09-14.17-.14-16.67-.18-2-1.34-4.58-4.11-7.6a35.862 35.862 0 00-3.09-3c-2.47-2.12-7.93-5.3-12.84-8-3-1.62-5.75-3.07-7.54-4-1 3.25-2.18 6.17-3.17 7.11-2.61 2.47-10.53 5.11-11.73 4.87a.998.998 0 01-.77-1.29c-1.61 0-3.33-.2-2.82-1.45a3.792 3.792 0 011.82-1.67c-1.21 0-2.6.06-3.9 0 .28 2.71.13 8.28-1.29 11.21a9.623 9.623 0 00-.62 1.84c0 .12-.07.23-.09.36-.02.13-.08.42-.12.63-.04.21-.08.41-.11.62-.03.21 0 .33-.06.49-.06.16-.07.54-.1.81v.43c0 .28 0 .57-.07.85s0 .28 0 .42v.8a2.615 2.615 0 000 .28v1.77a.525.525 0 01-.38.53.56.56 0 01-.5 0l-.32-.02-.12-.06-.13-.05-.12-.05h-.52a.831.831 0 00-.14.06l-.11.06a1.453 1.453 0 00-.14.12l-.1.09c-.055.07-.105.144-.15.22l-.08.12a3.89 3.89 0 00-.21.46c-1.28 5.95-.33 7.91 1.82 11.7zm43.59-10.62a9.727 9.727 0 001.312-3.765 9.726 9.726 0 00-.312-3.975 9.714 9.714 0 01-1.01 7.74h.01zm-27.37-16.42l-1.57-2.9 2.06-.78 1.63 2.91a17.94 17.94 0 013.14-.41l-1.53-3.4 3.12-.6 1.63 4.05c2.41.19 4.49.72 5.21 1.41 1.68 1.62 7.08 8.82 1 10.38-.57.15-1.12.27-1.65.38l3.15 9.26c.92-.82 2.21-1.79 2.46-2 .25-.21 1.32 3.77 1.32 3.77a18.642 18.642 0 01-2.82 1.83l1.26 3-2 .6-1.27-2.84-.41.08c-1 .15-2.5.31-4 .38l1.06 3.34-2.54.72-1.47-3.97a7.123 7.123 0 01-2.15-.39c-1.68-.72-5.76-2.28-5.76-4.68s-1.2-5.46 1.32-8.13a8.367 8.367 0 012-1.47l-2-7.27c-1.19-.23-4.4-1.05-1.62-3 .132-.101.273-.192.42-.27h.01zm-11 15.34s.24 6.18 4.08 8.13c-3.88-1.95-4.12-8.1-4.12-8.1l.04-.03z" fill="#724F46"/><path d="M253.602 308.009s-17.64 7.92-22.14-2.52c0-10.8 3.78-41.4 2.52-50.76-.69-5.14-1.38-10.23-1.87-14.22-.39-3.27-.65-5.8-.65-7 0-2.17 25-19.34 34.78-26 4.14 3.93 12.53 9.9 20.12 5.87 2.33-2.06 6.15-8 9.93-14.72l9.63 2.72 8.23 1.26c2 10.55 3.35 20.87 2.27 25.5-1.79 7.69 5.36 7.85 9.62 7.3.206.132.428.24.66.32 1.28.281 2.59.405 3.9.37.28 2.71.13 8.28-1.29 11.21a9.623 9.623 0 00-.62 1.84c0 .12-.07.23-.09.36-.02.13-.08.42-.12.63-.04.21-.08.41-.11.62-.03.21 0 .33-.06.49-.06.16-.07.54-.1.81v.43c0 .28 0 .57-.07.85s0 .28 0 .42v.8a2.615 2.615 0 000 .28v1.77a.555.555 0 01-.38.53.61.61 0 01-.51-.05l-.23-.11-.12-.06-.13-.05-.12-.05h-.52a.908.908 0 00-.14.06l-.11.06a1.453 1.453 0 00-.14.12l-.1.09c-.055.07-.105.144-.15.22l-.08.12a3.89 3.89 0 00-.21.46c-1.32 5.95-.37 7.91 1.77 11.7l-15.21 13.47a4.664 4.664 0 00-1.57 3.23c-.6 10.1-3.31 56.49-3.31 66.1-6.3 6.48-18.72 4.86-20.34 3.06-1.08 2.16-4.14-1.26-4.14-1.26s2.42-64.46 2.68-77a6.004 6.004 0 01.88-3c1.82-3 2.47-5.33 4.36-11.79a76.309 76.309 0 016.41-26.89c.13-.29.25-.57.38-.85 3.86-2.44 6.29-4.11 6.29-4.11s-2.43 1.67-6.29 4.11l-.27.17 2.48-15.62-2.48 15.62c-9.31 5.87-26.53 16-38.34 18.33a3.408 3.408 0 00-2.76 3.41c.28 12.84-2.14 51.35-2.14 51.35zm90.12-69l1.63 2.91a8.36 8.36 0 00-2.12.77l-1.57-2.9 2.06-.78zm10.17 28.83l1.06 3.34-2.54.72-1.39-4.05c.88.04 1.88.03 2.87-.01z" fill="#CCC5DD"/><path d="M219.022 338.259c-3.24 7.2 1.89 10.69 6.12 10.74 2.76 0 13.5-5.95 16.53-7.77a1.537 1.537 0 00.75-1.33v-2.53a1.095 1.095 0 01.488-.903 1.085 1.085 0 011.022-.097l1.92.79a1.635 1.635 0 001.66-.22 88.237 88.237 0 008.3-7.25 1.656 1.656 0 00.36-1.62c-.94-3-2.44-10.32-3.05-13.33a.29.29 0 00-.56 0l-.78 3.37-4.37 1.68a2.312 2.312 0 00-.59.34c-1.1.85-5.52 3.51-7.94 4.95a1.067 1.067 0 01-1.064.009 1.055 1.055 0 01-.536-.919v-4.23c0-.53.31-1.87-.11-2.19-1-.75-4.82-2.08-5.73-1.62-1.2.6-3 6-3 8.88 0 2.88-6.16 6.05-9.42 13.25l-.6 1.75c0 2 3.44 5.1 6.74 5 4.23-.86 8.28-3.12 12.14-6 3.86-2.88 2.62-4.32 3.34-5.76.72-1.44 2.88.36 4.68 0 1.8-.36 8-6.72 9.83-9.11-1.79 2.39-8 8.75-9.83 9.11-1.83.36-4-1.44-4.68 0-.68 1.44.52 2.88-3.34 5.76s-7.91 5.14-12.14 6c-3.3.1-6.74-3-6.74-5l.6-1.75zm7.56-6.84c-1.44 3.6-2.88 8.3-2.88 8.3s1.46-4.71 2.9-8.3h-.02zm8.28 0c-2.16 4-5.4 8.64-8.28 8.28 2.9.36 6.14-4.32 8.3-8.28h-.02z" fill="#A395C8"/><path d="M355.242 244.779c2.37 1.13.92 4.8-.46 5.54l-2.67-5.83a6.72 6.72 0 013.13.29z" fill="#724F46"/><path d="M352.112 244.489l2.67 5.83a1.41 1.41 0 01-.26.1l-1.71.41-2.79-6.08c.72-.12 1.42-.21 2.09-.26z" fill="#CCC5DD"/><path d="M350.022 244.749l2.76 6.08a34.657 34.657 0 00-4.17 1.29l-1.9-6.67c.96-.23 2.13-.5 3.31-.7z" fill="#724F46"/><path d="M346.742 245.449l1.9 6.67c-.771.301-1.519.655-2.24 1.06l-2-7.27.42.07s.77-.24 1.92-.53z" fill="#CCC5DD"/><path d="M348.492 241.459a22.92 22.92 0 013.22.05c2.41.19 4.49.72 5.21 1.41 1.68 1.62 7.08 8.82 1 10.38-.57.15-1.12.27-1.65.38-1.09.24-2.08.42-3 .58-1.2.21-2.24.39-3.11.63a4.99 4.99 0 00-2.27 1.12c-.36.345-.628.775-.78 1.25-1 2.88-.72 5.05 1 6.61.83.53 1.795.811 2.78.81.858.067 1.719.084 2.58.05a23.44 23.44 0 003.81-.4 2.524 2.524 0 001.27-.46c.266-.341.567-.653.9-.93.92-.82 2.21-1.79 2.46-2 .25-.21 1.32 3.77 1.32 3.77a18.642 18.642 0 01-2.82 1.83 9.076 9.076 0 01-2 .8l-.41.08c-1 .15-2.5.31-4 .38-1 0-2 .05-2.86 0a7.123 7.123 0 01-2.15-.39c-1.68-.72-5.76-2.28-5.76-4.68s-1.2-5.46 1.32-8.13a8.367 8.367 0 012-1.47 17.762 17.762 0 012.24-1.06 34.657 34.657 0 014.17-1.29l1.71-.41c.089-.025.177-.058.26-.1 1.38-.74 2.83-4.41.46-5.54a6.72 6.72 0 00-3.13-.29c-.67.05-1.37.14-2.06.26-1.2.2-2.37.47-3.3.7-1.15.29-1.94.53-1.94.53l-.42-.07c-1.19-.23-4.4-1.05-1.62-3 .148-.107.305-.201.47-.28a8.36 8.36 0 012.12-.77c.981-.2 1.978-.317 2.98-.35z" fill="#CCC5DD"/><path d="M334.102 19.799h-.86l-1.53.11h-.11l-1.41.07-3.22.11h-15.81l-.14-.33-.24-.05a1.91 1.91 0 00-1.27 0 4.02 4.02 0 01-.49.17l-.33.1-.39.07-.33.05h-.69l-.36-.07a2.817 2.817 0 01-.28-.06 3.201 3.201 0 01-.33-.14l-.29-.07a3.506 3.506 0 01-.3-.23c-.06-.05-.13-.09-.19-.15a3.008 3.008 0 01-.25-.34c0-.06-.09-.11-.13-.18a2.833 2.833 0 01-.25-.64 3.24 3.24 0 00-.12-.41 4.763 4.763 0 00-.4-.78 5.162 5.162 0 00-.87-1 3.801 3.801 0 00-2.24-1.1 1.999 1.999 0 00-1.44.46c-.579.463-1.184.894-1.81 1.29-.37.25-.76.49-1.16.72-.445.25-.906.47-1.38.66a6.643 6.643 0 01-.9.28h-.19l-.41.06a1.89 1.89 0 01-2.12-1.3 2.533 2.533 0 00-.18-.37 2.822 2.822 0 00-.59-.66 3.931 3.931 0 00-.38-.29c-.16-.11-.32-.21-.5-.31a8.964 8.964 0 00-1.06-.46c-.36-.13-.73-.26-1.12-.37l-.93-.23c-.62-.14-1.26-.25-1.88-.34-.62-.09-1.2-.16-1.74-.21-.79-.07-1.45-.11-1.89-.13h-.55c0-.24-.05-.49-.07-.74a2.366 2.366 0 012.28-2.58c4.34-.1 8.83.24 12.47-3 3.64-3.24 9.64-6.11 11.74-7.09a3.12 3.12 0 011.56-.31c4.31.28 23.78 2.5 25.14 19.74l-.06.05z" fill="#56C5E0"/><path d="M328.942 106.839c-1.12 2-3.19 5.06-5.41 5.22-2.7 5.64-5.7 8.52-7.77 12l.36-10.28-.75-2.14c2.84-9.22 11.57-29.66 16.16-40.21l7.15 10.92 1.06.6c-4.46 5.51-12.44 15.86-12.7 19.74a44.755 44.755 0 001.9 4.15z" fill="#A395C8"/><path d="M313.122 105.099h.84l.28-6 3.78-3.32a3.8 3.8 0 00.87-4.6l-2.77-5.28h-7l-3 3.56a3.747 3.747 0 00-.76 3.36l1.66 6.28-.75 6h.52l-5.47 17.59c.16-12.09.55-36.6.69-44.91l3.3-1.77c.72 3.17 2.7 7.41 8.17 8 6.87.7 14.73-8.53 17.93-12.73l.12.18c-4.59 10.55-13.32 31-16.16 40.21l-2.25-6.57z" fill="#fff"/><path d="M355.242 222.009l1.38-2 21.65-32a7.622 7.622 0 001.23-5.47l-12.3-80a9.217 9.217 0 00-4.53-6.58l-22.93-13c-4.46 5.51-12.44 15.86-12.7 19.74a44.98 44.98 0 001.9 4.2c1.75 3.53 2.55 5.66-1.9 10.92-2.78 3.52-9 15.38-11.83 21.71a28.712 28.712 0 00-1.31 3.31c-1.08 3.78-5.94 25.92-5.94 29.34-.012.14-.012.28 0 .42.18 1.64 1.19 6.18 2.47 12 .78 3.61 1.66 7.72 2.51 12 .4 2 .8 4 1.17 6 2 10.55 3.35 20.87 2.27 25.5-1.79 7.69 5.36 7.85 9.62 7.3-1.64-1-2.14-3 .92-3.07h.52c-2.77-.88-4.4-3.56-3.19-4.55-1.92-1.43-5-4.39-3.73-7.95 1.73-4.85 6.4-11.37 9.59-5.86 2.69-.77 5.8 1.72 9 1.72 1.13 0 2.77-1.51 3.83-2.63a3.694 3.694 0 00-1.49.11c2.22-4.54 5.59-11.48 8.22-16.92l-2.86-30.78a5.697 5.697 0 01.41-2.74l2.8-6.72c-2.77-12.17-5.58-24.72-5.48-25.15-.1.43 2.71 13 5.48 25.15 2.65 11.63 5.26 22.91 5.26 22.91l7.08 1.26-7.12-1.17-1.56 9-4 8.26c-2.63 5.44-6 12.38-8.22 16.92a3.694 3.694 0 011.49-.11c3.47.39 8.1 4.6 10.57 7.09a34.03 34.03 0 011.72 1.84zm-17.07-38.2c-3.52 1.1-8.75 2.3-13.13 1.6a.696.696 0 01-.576-.58.7.7 0 01.366-.73c4.62-2.35 9.83-1.29 13.09-1.53a.642.642 0 01.656.513.64.64 0 01-.406.727z" fill="#A395C8"/><path d="M353.502 220.139c1.07 1.08 1.74 1.84 1.74 1.84l1.38-2 4.62 6a2.541 2.541 0 01-.36 3.45l-2.16 3.05c-3-1.62-5.75-3.07-7.54-4 .92-2.89 1.76-6.06 2.32-8.34z" fill="#A395C8"/><path d="M425.662 183.009c3.32-1 5.83-2.33 6.31-3.75 3.07-9-15.61-10.72-19.79-10.72-16 0-13.41 14.94-5.85 16.49 2.19.42 11.85.04 19.33-2.02zm-12-1.34c-10-.62-9.35-7.41-5.77-8.87 6.28-2.55 18.59-.3 18.57 3.83-.03 5.38-10.1 5.18-12.81 5.02l.01.02z" fill="#724F46"/><path d="M331.412 71.189l-.89-1.37s-1.32-12-1.81-14.7a21.311 21.311 0 01-.47-3.53 4.094 4.094 0 01.47-2c.78-1.44 1.93-4.14 2.65-4.9.72-.76-.18-5.36 0-8.6.13-2.37-6.61-3.36-10.23-3.72a6.262 6.262 0 01-.32 1.18 1.344 1.344 0 01-.54.74.47.47 0 01-.15.06c0 2.66.27 6.32 1.34 8 1.8 2.88 3.8 3.11 3.43 4.89a36.08 36.08 0 00-.13 6.14s.72 6.37-1.23 10.69c-1.95 4.32-9.57 8.4-9.57 8.4s-5.94 2.43-8.94 1.37c.047.729.144 1.454.29 2.17.72 3.17 2.7 7.41 8.17 8 6.87.61 14.73-8.62 17.93-12.82zm-5.63-32.57c.3 1.68.68 3.6 1.21 4.08-.53-.48-.91-2.4-1.21-4.08-.3-1.68.54-2.16 1.62-2.64s.84 2.16.84 2.16.24-2.64-.84-2.16-1.92.96-1.62 2.64z" fill="#F9CAC0"/><path d="M331.362 44.639c.73-.76-.18-5.36 0-8.6.13-2.37-6.61-3.36-10.23-3.72 0-.2.07-.42.1-.66.2-1.54 1.92-2.64 4-3.44a74.75 74.75 0 008-1.66c.81 3.57 2.61 12 2 14.52a19.37 19.37 0 01-2.88 7.17 15.367 15.367 0 01-4.2 3.34 4.094 4.094 0 01.47-2c.87-1.49 2.02-4.19 2.74-4.95z" fill="#A395C8"/><path d="M321.232 31.659c0 .24-.06.46-.1.66a6.262 6.262 0 01-.32 1.18 1.344 1.344 0 01-.54.74.47.47 0 01-.15.06.663.663 0 01-.5-.14 1.788 1.788 0 01-.26-.23 5.922 5.922 0 01-1.08-2.27v-.16c-.12-.41-.23-.81-.35-1.2-.12-.39-.22-.71-.31-1.05 0-.14-.07-.27-.11-.4-.04-.13-.13-.48-.19-.71-.06-.23-.05-.28-.07-.42a6.932 6.932 0 01-.12-.73.997.997 0 00-.538-.75 1 1 0 00-.922.01l-.4.26-.49.33-.43.28c-.16.09-.31.19-.46.29l-.47.29-.48.3-.5.29-.5.29-.53.29-.52.27-.57.28-.53.25-.6.26-.55.22-.62.22-.57.2-.64.18-.57.15-.66.12-.59.11c-.22 0-.45 0-.68.06l-.58.05h-1.28c-.24 0-.49-.07-.73-.1s-.37 0-.56-.08c-.19-.08-.52-.13-.77-.2s-.35-.08-.53-.14c-.18-.06-.57-.23-.86-.35-.14-.07-.29-.11-.43-.18a11.94 11.94 0 01-1.29-.73 13.872 13.872 0 01-2.8-2.45 1.442 1.442 0 00-2-.2c-2.64 2.21-10.13.63-11.47-13.12h.55c.44 0 1.1.06 1.89.13.54.05 1.13.12 1.74.21.61.09 1.26.2 1.88.34l.93.23c.39.11.76.24 1.12.37.37.136.731.296 1.08.48.18.1.34.2.5.31.132.089.259.185.38.29.23.187.429.41.59.66.07.118.13.242.18.37a1.89 1.89 0 002.17 1.36l.41-.06h.19a6.6 6.6 0 00.9-.28c.474-.19.935-.41 1.38-.66a20.27 20.27 0 002.95-2.06 1.999 1.999 0 011.44-.46 3.8 3.8 0 012.22 1.09c.331.295.624.63.87 1 .157.247.291.508.4.78.049.134.089.27.12.41.057.223.141.438.25.64 0 .07.09.12.13.18.075.119.159.233.25.34.06.06.13.1.19.15.095.082.196.159.3.23l.24.11c.107.053.217.1.33.14.092.025.185.045.28.06l.36.07h.69l.33-.05.39-.07.33-.1c.1 0 .2-.05.3-.09.476-.19 1-.229 1.5-.11h.2l.19.05h15.81l3.22-.11 1.41-.07h.11l1.53-.11h.86c.121 1.636.095 3.28-.08 4.91a2.158 2.158 0 01-1.84 1.91c-2.383.31-4.728.86-7 1.64-2.28.79-3.65 1.46-3.95 3.74z" fill="#A395C8"/><path d="M291.702 16.769zm29.53 14.89c.3-2.28 1.67-2.95 4-3.44-2.08.79-3.8 1.9-4 3.44z" fill="#56C5E0"/><path d="M405.552 204.459c.27-2.43.86-6.41 1.3-9.34.124.089.258.163.4.22 4.61 1.95 15 .94 20.75.59a2.773 2.773 0 001.49-.56c.05 1.88.05 4.18-.09 6.38a25.9 25.9 0 01-.7 4.87c-2.89 2.39-17.29-2.48-23.15-2.16z" fill="#724F46"/><path d="M409.122 238.869c-1.34.36-2.6.66-3.6.94v-12.75a30.948 30.948 0 013.6-.22v12.03z" fill="#CCC5DD"/><path d="M419.202 232.539c-.08 3.46-5.56 5.17-10.08 6.33v-12c4.22-.02 9.26 1.01 10.08 5.67z" fill="#724F46"/><path d="M417.162 266.259h-3.35v-3.37c1.28-.36 2.65-.81 3.91-1.25l-.56 4.62z" fill="#CCC5DD"/><path d="M407.252 195.339a1.899 1.899 0 01-.4-.22 2.582 2.582 0 01-1.18-1.71c-.42-2.3.18-6 .66-8.4 4.3.85 13.19-.13 19.3-2a30.865 30.865 0 003.91-1.35 1.579 1.579 0 011.222-.022 1.564 1.564 0 01.868.862c1.54 3.77-.95 8.53-1.1 10.89a2.714 2.714 0 01-1.07 2c-.431.328-.95.523-1.49.56-5.71.33-16.11 1.34-20.72-.61z" fill="#724F46"/><path d="M416.082 218.739h4.8v6.88a25.272 25.272 0 00-4.8-1.86v-5.02z" fill="#CCC5DD"/><path d="M406.362 185.009c2.16.43 11.82.05 19.3-2-6.11 1.88-15 2.86-19.3 2z" fill="#56C5E0"/><path d="M406.842 218.139h4.18v4.53c-1.54-.25-3-.4-4.2-.5l.02-4.03zm-113.72-87.05l-9-1.89a.664.664 0 01-.52-.59l-.37-3.82a.67.67 0 01.85-.7l9.36 2.71a.65.65 0 01.48.64v3a.656.656 0 01-.244.517.656.656 0 01-.556.133zm114.76 41.69c6.28-2.55 18.59-.3 18.57 3.83 0 5.39-10.09 5.2-12.8 5-10.02-.6-9.35-7.37-5.77-8.83zm-164.86 8.7c-6.48 1.26-9-.18-8.1-1.62.9-1.44 5.65-1.62 5.65-1.62s8.89 1.98 2.45 3.24zm82 42.12c-4.15 1.08-.54-6.12.18-7.92.04 0 4.02 6.84-.18 7.92zm13.15-39.79c-3.52 1.1-8.75 2.3-13.13 1.6a.696.696 0 01-.576-.58.7.7 0 01.366-.73c4.62-2.35 9.83-1.29 13.09-1.53a.64.64 0 01.25 1.24z" fill="#CCC5DD"/><path d="M321.132 32.319c0-.2.07-.42.1-.66.42-3.27 7.72-4.61 11-5.08a2.165 2.165 0 001.84-1.91c.175-1.63.202-3.274.08-4.91-.44.44-19.63 1-23.46-.05a1.91 1.91 0 00-1.27 0c-2 .84-4.07.41-4.56-1.53-.54-2.16-3.36-4.32-5.07-2.88-1.71 1.44-6.75 5-8 1.8s-10.38-3.36-10.77-3.37c1.34 13.75 8.83 15.33 11.47 13.12a1.441 1.441 0 012 .2 13.888 13.888 0 002.76 2.39c6.76 4.42 14-.31 18.14-3a1.12 1.12 0 011.73.79 38.607 38.607 0 001.17 4.45c.42 1.55 1.18 2.77 1.84 2.64" fill="#A395C8"/><path d="M281.022 13.009c0 .25 0 .5.07.74.37 0 9.66.23 10.84 3.41 1.18 3.18 6.24-.36 8-1.8 1.76-1.44 4.53.72 5.07 2.88.47 1.87 2.46 2.34 4.37 1.61a2.49 2.49 0 011.5-.11c3.92 1 23 .48 23.42 0-1.46-17.22-20.93-19.44-25.27-19.73a3.12 3.12 0 00-1.59.3c-2.1 1-8.2 4-11.74 7.1-3.54 3.1-8.13 2.89-12.47 3a2.365 2.365 0 00-1.651.834 2.368 2.368 0 00-.549 1.766zm-24.54 172.61s.43.42 1.08 1.13c2.05 2.21 6.29 7.23 6.6 11a4.21 4.21 0 01-.3 2c4.31-2.36 8.62-4.86 11.53-6.57-2.92 4.34-6.38 9-9.07 11.31a1.92 1.92 0 00-.55 2.204c.101.251.255.478.45.666 4.14 3.93 12.53 9.9 20.12 5.87 2.33-2.06 6.15-8 9.93-14.72.85-1.52 1.7-3.08 2.54-4.65a229.9 229.9 0 004.52-9c2.71-5.73 4.6-10.54 4.65-12.38a2.455 2.455 0 010-.42c-.48-2-4.26-15.68-7.73-29.58-3.1-12.44-5.95-25-5.95-29.64.9-4.86 4.5-5.76 4.5-9.36 0-2.76-3.29-15.54-4.81-21.34l-21.31 11.78a9.724 9.724 0 00-5 8.53v59.76a3.172 3.172 0 001.56 2.72c.2.116.359.291.455.501a1.116 1.116 0 01-.246 1.265c-.168.159-.38.262-.609.294l-.57.08a3.002 3.002 0 00-2.57 3v5.24l-9.22 10.31zm27.12-57l-.37-3.82a.67.67 0 01.85-.7l9.36 2.71a.65.65 0 01.48.64v3a.656.656 0 01-.244.517.656.656 0 01-.556.133l-9-1.89a.658.658 0 01-.52-.6v.01z" fill="#A395C8"/><path d="M306.282 105.099h7.68l.28-6.03-.04.03h-7.17l-.75 6z" fill="#CCC5DD"/><path d="M255.152 324.109c-1.79 2.39-8 8.75-9.83 9.11-1.83.36-4-1.44-4.68 0-.68 1.44.52 2.88-3.34 5.76s-7.91 5.14-12.14 6c-3.3.1-6.74-3-6.74-5l.6-1.72c3.24-7.2 9.42-10.38 9.42-13.26 0-2.88 1.8-8.28 3-8.88.91-.46 4.75.87 5.73 1.62.42.32.11 1.66.11 2.19v4.23a1.06 1.06 0 001.6.91c2.42-1.44 6.84-4.1 7.94-4.95.179-.142.377-.256.59-.34l4.37-1.68.78-3.37a.289.289 0 01.56 0c.61 3 2.11 10.37 3.05 13.33a1.666 1.666 0 01-.36 1.62 88.237 88.237 0 01-8.3 7.25 1.635 1.635 0 01-1.66.22l-1.92-.79a1.089 1.089 0 00-1.51 1v2.53a1.537 1.537 0 01-.75 1.33c-3.01 1.79-13.75 7.79-16.51 7.79-4.23-.05-9.36-3.54-6.12-10.74" fill="#A395C8"/><path d="M282.402 402.339a2.67 2.67 0 000 .4c.3 2.43 3.43 3 8.87 2.51a5.78 5.78 0 003.45-1.46c5.21-4.94 5.18-16.69 9.08-20.53.53-.42 2.7 0 2.7 0a116.544 116.544 0 006.34-9.92 1.475 1.475 0 00-.07-1.57c-1.54-2.31-4.16-9-5.47-12.48a.605.605 0 00-.613-.384.595.595 0 00-.537.484c-.66 3.41-2.46 9.62-6.85 10.91-4.76 1.4-5.38-3.07-5.42-5.13a1.112 1.112 0 00-1-1.08c-3.15-.21-12-.48-9.23 3.69 1.9 8.82-1.25 31.53-1.25 34.56z" fill="#A295C7"/><path d="M306.522 383.259s-3.64 13.41-5.4 16.92c-1.76 3.51-3.51 8.22-11.64 8.82-5.4-.26-6.92-3.8-7.06-6.26" fill="#A295C7"/><defs><linearGradient id="paint0_linear" x1="528.5" y1="-38" x2="108" y2="430" gradientUnits="userSpaceOnUse"><stop stop-color="#CF9F00"/><stop offset=".483" stop-color="#E6CF85"/></linearGradient><filter id="filter0_dii" x=".203" y="119.802" width="715.594" height="411.717" filterUnits="userSpaceOnUse" color-interpolation-filters="sRGB"><feFlood flood-opacity="0" result="BackgroundImageFix"/><feColorMatrix in="SourceAlpha" values="0 0 0 0 0 0 0 0 0 0 0 0 0 0 0 0 0 0 127 0"/><feOffset dy="100"/><feGaussianBlur stdDeviation="40"/><feColorMatrix values="0 0 0 0 0.639028 0 0 0 0 0.755242 0 0 0 0 0.891667 0 0 0 0.25 0"/><feBlend in2="BackgroundImageFix" result="effect1_dropShadow"/><feBlend in="SourceGraphic" in2="effect1_dropShadow" result="shape"/><feColorMatrix in="SourceAlpha" values="0 0 0 0 0 0 0 0 0 0 0 0 0 0 0 0 0 0 127 0" result="hardAlpha"/><feOffset dx="9" dy="2"/><feGaussianBlur stdDeviation="10"/><feComposite in2="hardAlpha" operator="arithmetic" k2="-1" k3="1"/><feColorMatrix values="0 0 0 0 1 0 0 0 0 1 0 0 0 0 1 0 0 0 1 0"/><feBlend in2="shape" result="effect2_innerShadow"/><feColorMatrix in="SourceAlpha" values="0 0 0 0 0 0 0 0 0 0 0 0 0 0 0 0 0 0 127 0" result="hardAlpha"/><feOffset dx="-2" dy="-10"/><feGaussianBlur stdDeviation="10"/><feComposite in2="hardAlpha" operator="arithmetic" k2="-1" k3="1"/><feColorMatrix values="0 0 0 0 0.736667 0 0 0 0 0.804267 0 0 0 0 0.866667 0 0 0 1 0"/><feBlend in2="effect2_innerShadow" result="effect3_innerShadow"/></filter></defs></svg>