<svg width="137" height="18" fill="none" xmlns="http://www.w3.org/2000/svg"><g clip-path="url(#clip0)"><path d="M8.6 11.512c-.094-.19-.189-1.136-.189-1.704 0-3.03 2.178-5.587 7.765-5.587h2.935s-.662.284-2.178 1.326c-1.42 1.041-8.332 5.965-8.332 5.965zM31.8 9.24l10.7-7.954h-5.303l-8.049 6.06-2.083-1.326h-5.018l4.545 3.314-3.504 2.936c-1.799 1.515-4.355 3.598-8.048 3.598-1.515 0-3.598-.284-4.735-1.61L27.54 1.38H17.123c-6.439 0-9.753 3.6-9.753 8.05 0 .947.19 2.083.473 2.651L.647 17.288h5.492l3.314-2.462c1.231 1.515 3.788 2.84 6.439 2.84 4.45 0 8.522-2.84 9.942-3.976l3.22-2.557 8.522 6.155h5.965L31.8 9.24z" fill="#FFCF01"/><path d="M105.847 7.913c-.284-1.705-1.704-2.462-3.03-2.462-1.325 0-2.746.852-3.03 2.462h6.06zm3.125 4.64c-.379.946-1.61 3.692-6.06 3.692-2.083 0-3.598-.568-4.83-1.799-1.42-1.325-1.987-2.935-1.987-4.829 0-2.462 1.041-3.977 1.893-4.924 1.515-1.42 3.22-1.799 4.829-1.799 2.557 0 4.072 1.042 4.924 2.083 1.326 1.61 1.515 3.504 1.515 4.924v.284h-9.469c0 .758.19 1.515.663 2.083.379.474 1.136 1.137 2.557 1.137 1.325 0 2.367-.663 2.935-1.61l3.03.757zm-52.174-4.64c-.284-1.705-1.704-2.462-3.03-2.462-1.325 0-2.746.852-3.03 2.462h6.06zm3.125 4.64c-.379.946-1.61 3.692-6.06 3.692-2.083 0-3.598-.568-4.83-1.799-1.42-1.325-1.988-2.935-1.988-4.829 0-2.462 1.042-3.977 1.894-4.924 1.515-1.42 3.22-1.799 4.83-1.799 2.556 0 4.071 1.042 4.923 2.083 1.326 1.61 1.515 3.504 1.515 4.924v.284h-9.469c0 .758.19 1.515.663 2.083.379.474 1.136 1.137 2.557 1.137 1.325 0 2.367-.663 2.935-1.61l3.03.757zm19.695-9.375h3.883v2.083c.757-.852 1.988-2.272 4.26-2.272 2.842 0 4.451 1.515 4.451 5.492v7.48H88.52v-7.29c0-1.516-.757-2.463-1.894-2.463-1.325 0-2.461.758-3.124 1.61v7.954h-3.883V3.178zm46.398 11.363l1.042-2.746c1.42 1.041 3.503 1.61 4.734 1.61 1.137 0 1.61-.38 1.61-.947v-.095c0-.758-1.326-1.042-2.746-1.515-1.894-.568-3.977-1.326-3.977-3.882 0-2.557 2.178-4.072 4.829-4.072 1.705 0 3.22.379 4.64 1.231l-.758 2.746c-1.325-.758-2.935-1.231-3.882-1.231-.947 0-1.42.379-1.42.852v.095c0 .757 1.231 1.042 2.651 1.515 1.894.568 3.977 1.42 3.977 3.787v.095c0 2.84-2.178 4.167-5.113 4.167-1.704 0-3.788-.284-5.587-1.61zm-13.446 0l1.042-2.746c1.42 1.041 3.503 1.61 4.734 1.61 1.042 0 1.61-.38 1.61-.947v-.095c0-.758-1.326-1.042-2.746-1.515-1.894-.568-3.977-1.326-3.977-3.882 0-2.557 2.178-4.072 4.829-4.072 1.705 0 3.22.379 4.64 1.231l-.757 2.746c-1.326-.758-2.936-1.231-3.883-1.231-.947 0-1.42.379-1.42.852v.095c0 .757 1.231 1.042 2.651 1.515 1.894.568 3.977 1.42 3.977 3.787v.095c0 2.84-2.178 4.167-5.113 4.167-1.704 0-3.788-.284-5.587-1.61zM69.013 6.87l2.652-3.693h4.166L71 9.428l5.02 6.533h-4.356l-2.841-3.977-2.84 3.977h-4.167l5.113-6.533-4.829-6.25h4.356l2.556 3.693z" fill="#fff"/></g><defs><clipPath id="clip0"><path fill="#fff" transform="translate(.647 .907)" d="M0 0h136.353v17.044H0z"/></clipPath></defs></svg>