<svg width="138" height="19" fill="none" xmlns="http://www.w3.org/2000/svg"><g clip-path="url(#clip0)"><path d="M21.137 6.92a.767.767 0 00-1.083-.05l-6.852 6.165a.767.767 0 001.034 1.132l6.852-6.165a.767.767 0 00.05-1.082z" fill="#fff"/><path d="M13.719 15.908a2.307 2.307 0 100-4.613 2.307 2.307 0 000 4.613z" fill="#fff"/><path d="M24.567 17.267l1.807.748c.402-1.153.647-2.375.72-3.647h-1.956a11.413 11.413 0 01-.57 2.899z" fill="url(#paint0_linear)"/><path d="M23.98 8.521l1.808-.75a13.398 13.398 0 00-2.067-3.089l-1.384 1.384a11.48 11.48 0 011.642 2.455z" fill="url(#paint1_linear)"/><path d="M17.384 2.752l.748-1.806a13.383 13.383 0 00-3.647-.72V2.18a11.44 11.44 0 012.899.571z" fill="url(#paint2_linear)"/><path d="M21.253 4.983L22.637 3.6a13.423 13.423 0 00-3.09-2.067l-.75 1.808c.891.442 1.714.993 2.456 1.642z" fill="url(#paint3_linear)"/><path d="M25.138 12.835h1.956a13.307 13.307 0 00-.72-3.647l-1.807.748c.311.92.503 1.89.57 2.899z" fill="url(#paint4_linear)"/><path d="M.304 13.602c0 .747.074 1.475.195 2.188h1.98a11.305 11.305 0 01-.218-2.188c0-3.168 1.281-6.027 3.355-8.103a11.41 11.41 0 017.336-3.318V.226C5.902.626.305 6.452.304 13.602zm38.278-5.645v-.068h1.243c.276 0 .515-.03.717-.09.202-.06.376-.14.518-.235.142-.097.26-.202.351-.318.093-.115.171-.232.236-.352.193-.359.31-.724.352-1.097.04-.373.061-.734.061-1.084 0-.35-.022-.708-.068-1.076a2.337 2.337 0 00-.415-1.05 1.824 1.824 0 00-.462-.497 1.835 1.835 0 00-.531-.262 2.562 2.562 0 00-.552-.103 7.107 7.107 0 00-.525-.021h-6.144v9.663h1.823V3.153h3.631c.147 0 .318.012.51.034a.849.849 0 01.51.256c.102.1.185.253.25.455.064.203.095.497.095.883a5.137 5.137 0 01-.035.669 2.6 2.6 0 01-.068.366 1.08 1.08 0 01-.117.29.798.798 0 01-.477.359c-.189.046-.361.07-.518.07h-1.822c-.267 0-.47.061-.608.186a.61.61 0 00-.207.477v.22c0 .139.05.284.152.435.1.151.202.279.303.38l3.175 3.133h2.292l-3.67-3.41zm18.882 1.962V1.704h-1.822v9.664h7.703v-1.45h-5.881zm9.836 0V1.704h-1.822v9.664h7.703v-1.45h-5.88zm12.873-8.215h1.96l-4.085 6.709v2.955h-1.823V8.413l-4.086-6.71h1.96l3.037 5.068 3.037-5.067zm-32.44.132c.019-.013.01-.027-.01-.04-.004.033-.002.049.01.04z" fill="#fff"/><path d="M47.54 1.704l-.015.035-4.037 9.629h1.919l.501-1.25 2.536-6.425c.027-.074.064-.159.11-.256s.101-.145.167-.145c.065 0 .12.048.166.145.045.096.083.181.11.256l2.49 6.333.547 1.343h1.92l-4.047-9.664H47.54zm.193.131c-.013.01-.015-.007-.01-.039.02.013.029.026.01.04zm52.614 6.122v-.068h1.243c.276 0 .515-.03.717-.09.203-.06.376-.14.518-.235.142-.097.26-.202.352-.318a2.37 2.37 0 00.235-.352c.193-.359.31-.724.352-1.097.041-.373.062-.734.062-1.084 0-.35-.023-.708-.069-1.076a2.338 2.338 0 00-.414-1.05 1.828 1.828 0 00-.463-.497 1.83 1.83 0 00-.531-.262 2.56 2.56 0 00-.552-.103 7.103 7.103 0 00-.525-.021h-6.144v9.663h1.823V3.153h3.631c.147 0 .318.012.51.034a.852.852 0 01.511.256c.101.1.184.253.248.455.065.203.096.497.096.883a5.871 5.871 0 01-.034.669 2.786 2.786 0 01-.069.366c-.033.12-.071.217-.117.29a.802.802 0 01-.477.359c-.189.046-.361.07-.518.07H98.91c-.267 0-.47.061-.608.186a.61.61 0 00-.207.477v.22c0 .139.05.284.152.435.101.151.202.279.303.38l3.175 3.133h2.292l-3.67-3.41zm26.651-2.429a5.906 5.906 0 00-.118-.939 4.33 4.33 0 00-.297-.911 3.288 3.288 0 00-.545-.829 3.663 3.663 0 00-1.132-.815c-.46-.22-1.026-.331-1.698-.331h-5.148v9.663h5.397a4.16 4.16 0 001.008-.11 3.33 3.33 0 00.773-.29c.22-.12.405-.248.552-.386.147-.138.272-.272.373-.4a3.25 3.25 0 00.462-.877 6.4 6.4 0 00.263-1c.06-.342.096-.672.11-.995a20.037 20.037 0 000-1.78zM124.99 8.13c-.101.41-.212.706-.332.89a1.655 1.655 0 01-.821.705c-.335.128-.757.193-1.262.193h-2.691l-.002-.662V3.153h2.513c.166 0 .34.009.525.027.184.018.368.053.552.104.185.051.361.122.532.214.17.092.324.212.462.36.147.156.267.333.359.53.092.198.16.403.207.615.046.211.076.427.09.649.014.22.02.433.02.635-.001.82-.051 1.434-.152 1.843zm6.16 1.788V7.157h5.729v-1.45h-5.729V3.153h5.867v-1.45h-7.689v9.664h7.745V9.918h-5.923zm-21.505-8.214l-.015.034-4.037 9.63h1.919l.501-1.25 2.536-6.426c.027-.073.064-.158.111-.256.045-.096.1-.145.166-.145.064 0 .119.049.166.145.045.097.083.182.11.256l2.491 6.334.546 1.342h1.919l-4.047-9.663h-2.366v-.001zm.194.13l-.009-.038.009.039zm-25.45-.13l-.883 1.449h3.747v8.214h1.822V3.153h3.783v-1.45h-8.469zM33.363 13.358h.959c.28 0 .533.04.76.12.228.079.422.189.583.331a1.476 1.476 0 01.503 1.138c0 .228-.044.44-.131.634a1.466 1.466 0 01-.372.503 1.75 1.75 0 01-.582.332 2.31 2.31 0 01-.761.12h-.96v-3.178zm.973 2.648c.169 0 .325-.024.468-.072.143-.049.266-.118.37-.21a.939.939 0 00.24-.332 1.09 1.09 0 00.086-.445c0-.166-.028-.315-.086-.446a.94.94 0 00-.24-.333 1.066 1.066 0 00-.37-.209 1.453 1.453 0 00-.468-.072h-.305v2.119h.305zm7.576-1.68a.867.867 0 01-.19.57c-.128.154-.31.272-.549.355l1.074 1.284h-.83l-.921-1.16h-.215v1.16h-.668v-3.178h.95c.196 0 .378.02.544.06.166.039.308.1.427.181.12.081.212.182.279.303.066.122.1.263.1.425zm-.668.015c0-.162-.064-.28-.19-.353a.991.991 0 00-.496-.11h-.276v.993h.2c.23 0 .414-.044.553-.134a.441.441 0 00.21-.396zm4.986 2.195h-.667v-3.178h.668v3.178zm5.544-3.179h.696l-1.069 3.178h-.773l-1.068-3.178h.696l.759 2.5.759-2.5zm4.003 0h1.908v.53h-1.24v.768h1.183v.53h-1.183v.82H57.7v.53h-1.922v-3.178h-.001zm11.579 0v.53h-.878v2.648h-.668v-2.648h-.877v-.53h2.423zm5.367 3.179v-1.337h-1.317v1.337h-.668v-3.178h.668v1.288h1.317v-1.288h.668v3.178h-.668zm4.294-3.179h1.908v.53h-1.24v.768h1.183v.53h-1.183v.82h1.255v.53h-1.922v-3.178h-.001zm12.123 0h.601l.233 3.178h-.653l-.11-1.975L88.51 16h-.687l-.702-1.44-.11 1.975h-.653l.233-3.178h.6l.974 2.052.975-2.052zm7.252 3.179H95.7l-.224-.669h-1.307l-.224.669h-.692l1.207-3.178h.725l1.207 3.178zm-1.57-2.644l-.476 1.446h.954l-.478-1.445zm7.252.434a.865.865 0 01-.191.57 1.198 1.198 0 01-.548.355l1.073 1.284h-.83l-.92-1.16h-.216v1.16h-.668v-3.178h.95c.197 0 .378.02.544.06.165.04.308.1.428.181a.884.884 0 01.279.303.892.892 0 01.099.425zm-.668.015c0-.162-.064-.28-.191-.353a.987.987 0 00-.495-.11h-.277v.993h.201c.229 0 .414-.044.553-.134a.442.442 0 00.209-.396zm4.293 2.195v-3.178h.668v1.527l1.102-1.527h.773l-1.17 1.57 1.25 1.608h-.825l-1.131-1.56v1.56h-.667zm5.94-3.179h1.908v.53h-1.24v.768h1.183v.53h-1.183v.82h1.255v.53h-1.922v-3.178h-.001zm7.643 0v.53h-.877v2.648h-.668v-2.648h-.878v-.53h2.423z" fill="#fff"/></g><defs><linearGradient id="paint0_linear" x1="15.303" y1="-.176" x2="26.999" y2="17.592" gradientUnits="userSpaceOnUse"><stop stop-color="#00C176"/><stop offset=".25" stop-color="#88C100"/><stop offset=".697" stop-color="#FF8A00"/><stop offset=".921" stop-color="#FF252C"/><stop offset="1" stop-color="#FF003C"/></linearGradient><linearGradient id="paint1_linear" x1="18.204" y1="-2.087" x2="29.9" y2="15.682" gradientUnits="userSpaceOnUse"><stop stop-color="#00C176"/><stop offset=".25" stop-color="#88C100"/><stop offset=".697" stop-color="#FF8A00"/><stop offset=".921" stop-color="#FF252C"/><stop offset="1" stop-color="#FF003C"/></linearGradient><linearGradient id="paint2_linear" x1="15.205" y1="-.112" x2="26.901" y2="17.656" gradientUnits="userSpaceOnUse"><stop stop-color="#00C176"/><stop offset=".25" stop-color="#88C100"/><stop offset=".697" stop-color="#FF8A00"/><stop offset=".921" stop-color="#FF252C"/><stop offset="1" stop-color="#FF003C"/></linearGradient><linearGradient id="paint3_linear" x1="17.405" y1="-1.56" x2="29.101" y2="16.208" gradientUnits="userSpaceOnUse"><stop stop-color="#00C176"/><stop offset=".25" stop-color="#88C100"/><stop offset=".697" stop-color="#FF8A00"/><stop offset=".921" stop-color="#FF252C"/><stop offset="1" stop-color="#FF003C"/></linearGradient><linearGradient id="paint4_linear" x1="17.457" y1="-1.595" x2="29.153" y2="16.173" gradientUnits="userSpaceOnUse"><stop stop-color="#00C176"/><stop offset=".25" stop-color="#88C100"/><stop offset=".697" stop-color="#FF8A00"/><stop offset=".921" stop-color="#FF252C"/><stop offset="1" stop-color="#FF003C"/></linearGradient><clipPath id="clip0"><path fill="#fff" transform="translate(.304 .226)" d="M0 0h136.769v17.789H0z"/></clipPath></defs></svg>