<svg width="138" height="40" fill="none" xmlns="http://www.w3.org/2000/svg"><g clip-path="url(#clip0)"><path fill-rule="evenodd" clip-rule="evenodd" d="M82.827 20.266l3.963 4.148c1.284 1.366 1.932 3.042 1.932 4.989v3.785H84.81v-3.785c0-.84-.262-1.517-.821-2.128l-3.915-4.129-4.044 4.265c-.558.607-.818 1.277-.818 2.114v3.663h-3.913v-3.661c0-1.94.661-3.61 1.964-4.97l4.025-4.287-4.002-4.197c-1.299-1.362-1.956-3.039-1.956-4.984V7.623h3.914v3.46c0 .816.258 1.467.819 2.043l.012.016 4.006 4.231 3.904-4.081c.552-.58.808-1.241.808-2.074V7.623h3.912v3.595c0 1.945-.655 3.618-1.95 4.982l-3.928 4.066zM92.64 7.623h17.469v4.075h-6.808v21.49h-3.914v-21.49h-6.748V7.623zm43.361 0v25.566h-3.874V14.273l-5.703 11.766h-2.812l-5.715-11.767V33.19h-3.877V7.623l5.065.002 5.926 12.63 5.945-12.63 5.045-.002zm-77.116 4.066c-1.596.104-2.874 1.446-2.972 3.121v3.425h9.42v4.074h-9.42v10.88h-3.914V15.07c0-4.116 3.17-7.448 7.083-7.448h8.331v4.066h-8.528z" fill="#fff"/><path d="M21.023 9.013l.008.009 6.405 6.43 6.363-6.395c.454-.46.822-.94 1.116-1.458a6.02 6.02 0 00.739-2.13A19.166 19.166 0 0022.878.613c-1.316 0-2.6.133-3.84.384v3.269c0 1.159.248 2.19.75 3.123a6.907 6.907 0 001.235 1.624z" fill="#A4E22D"/><path d="M38.633 8.871a19.157 19.157 0 013.508 11.08 19.17 19.17 0 01-2.764 9.943 10.014 10.014 0 00-1.67-3.902c-.333-.474-.712-.93-1.135-1.362l-6.42-6.407 6.383-6.37.006-.006c.438-.444.829-.908 1.173-1.397.36-.505.665-1.03.92-1.579zm-20.246 2.982l6.39 6.374-6.385 6.428c-.513.51-.96 1.051-1.344 1.622-1.148 1.7-1.726 3.655-1.726 5.837v5.484c-6.81-2.953-11.568-9.746-11.568-17.647 0-7.906 4.761-14.696 11.568-17.65v2.083c0 2.167.57 4.111 1.697 5.806.39.584.844 1.14 1.368 1.663zM33.85 27.246c.45.468.828.967 1.12 1.488a6.834 6.834 0 01.867 3.385l-.05 2.12a19.082 19.082 0 01-12.84 4.938c-1.312 0-2.595-.131-3.832-.385v-6.681c0-1.168.248-2.223.748-3.18a6.914 6.914 0 011.233-1.658l6.414-6.4 6.34 6.373z" fill="#FF5A24"/></g><defs><clipPath id="clip0"><path fill="#fff" transform="translate(.866 .317)" d="M0 0h136.353v38.958H0z"/></clipPath></defs></svg>