<svg width="96" height="96" fill="none" xmlns="http://www.w3.org/2000/svg"><path d="M74.465 32.05l-2.394-.173 2.394.173zm-23.925 0l2.394-.17-2.394.17zM36.486 73.993l2.329.58-2.329-.58zm52.035 0l-2.33.571v.002l2.33-.573zM37.853 35.302l-2.394-.173 2.394.173zm-19.213 0l-2.394.169 2.394-.17zm19.3 23.942a2.4 2.4 0 102-4.363l-2 4.363zM7.466 68.798l-2.329-.58v.003l2.33.577zm22.05 4.802a2.4 2.4 0 000-4.8v4.8zM72.07 31.878c-.464 6.44-5.165 10.822-9.568 10.822v4.8c7.523 0 13.758-6.976 14.356-15.278l-4.788-.345zM62.503 42.7c-4.406 0-9.113-4.382-9.569-10.82l-4.788.34c.588 8.309 6.836 15.28 14.357 15.28v-4.8zm-9.569-10.82c-.228-3.222.774-5.811 2.44-7.589 1.673-1.784 4.15-2.891 7.129-2.891v-4.8c-4.204 0-7.981 1.584-10.63 4.407-2.654 2.83-4.042 6.766-3.727 11.213l4.788-.34zm9.569-10.48c5.79 0 10.012 4.339 9.568 10.477l4.788.346c.644-8.92-5.78-15.623-14.356-15.623v4.8zm0 32.9c-12.444 0-25.135 6.22-28.346 19.113l4.658 1.16c2.48-9.96 12.507-15.473 23.688-15.473v-4.8zM34.157 73.412c-.671 2.694 1.013 5.988 4.453 5.988v-4.8s.012 0 .034.006a.309.309 0 01.163.105c.018.026-.022-.017.008-.137l-4.658-1.162zM38.61 79.4h47.787v-4.8H38.61v4.8zm47.787 0c3.448 0 5.113-3.301 4.455-5.98l-4.662 1.146c.031.125-.01.172.007.146a.313.313 0 01.165-.106c.023-.006.035-.006.035-.006v4.8zm4.455-5.978c-3.21-13.1-15.927-19.122-28.35-19.122v4.8c11.206 0 21.208 5.346 23.688 15.464l4.662-1.142zM35.46 35.129c-.358 4.97-4.022 8.296-7.213 8.296v4.8c6.336 0 11.51-5.948 12-12.75l-4.787-.346zm-7.213 8.296c-3.193 0-6.86-3.326-7.212-8.293l-4.788.34c.482 6.81 5.667 12.753 12 12.753v-4.8zm-7.212-8.293c-.334-4.728 2.859-7.932 7.212-7.932v-4.8c-7.123 0-12.532 5.55-12 13.071l4.788-.339zm7.212-7.932c4.338 0 7.546 3.3 7.213 7.93l4.787.344c.533-7.395-4.86-13.074-12-13.074v4.8zM39.94 54.88c-3.672-1.682-7.64-2.293-11.694-2.293v4.8c3.585 0 6.823.542 9.695 1.857l1.999-4.363zm-11.694-2.293c-10.055 0-20.468 5.038-23.109 15.631l4.658 1.16c1.909-7.658 9.657-11.99 18.451-11.99v-4.8zM5.136 68.221c-.59 2.386.902 5.379 4.028 5.379v-4.8c.085 0 .2.023.316.086.112.06.19.14.24.212.095.14.084.246.076.278l-4.66-1.155zM9.165 73.6h20.351v-4.8H9.165v4.8z" fill="#fff"/></svg>