<svg width="60" height="61" fill="none" xmlns="http://www.w3.org/2000/svg"><path d="M28.25 10.775a1.75 1.75 0 103.5 0h-3.5zm3.5-5a1.75 1.75 0 10-3.5 0h3.5zm-3.5 50a1.75 1.75 0 103.5 0h-3.5zm3.5-5a1.75 1.75 0 10-3.5 0h3.5zm-1.75-38v-1.75 1.75zm18 18h1.75H48zm2-1.75a1.75 1.75 0 100 3.5v-3.5zm5 3.5a1.75 1.75 0 100-3.5v3.5zm-50-3.5a1.75 1.75 0 100 3.5v-3.5zm5 3.5a1.75 1.75 0 100-3.5v3.5zm21.75-21.75v-5h-3.5v5h3.5zm0 45v-5h-3.5v5h3.5zM30 11.025a19.75 19.75 0 00-10.973 3.329l1.945 2.91A16.25 16.25 0 0130 14.525v-3.5zm-10.973 3.329a19.75 19.75 0 00-7.274 8.863l3.234 1.34a16.25 16.25 0 015.985-7.293l-1.945-2.91zm-7.274 8.863a19.75 19.75 0 00-1.123 11.411l3.432-.682a16.25 16.25 0 01.925-9.39l-3.234-1.339zM10.63 34.628a19.75 19.75 0 005.405 10.113l2.474-2.475a16.25 16.25 0 01-4.447-8.32l-3.432.682zm5.405 10.113a19.75 19.75 0 0010.112 5.405l.683-3.433a16.25 16.25 0 01-8.32-4.447l-2.475 2.475zm10.112 5.405a19.75 19.75 0 0011.411-1.124l-1.34-3.234a16.25 16.25 0 01-9.388.925l-.683 3.433zm11.411-1.124a19.75 19.75 0 008.864-7.274l-2.91-1.945a16.25 16.25 0 01-7.293 5.985l1.339 3.234zm8.864-7.274a19.75 19.75 0 003.328-10.973h-3.5a16.25 16.25 0 01-2.739 9.028l2.91 1.945zm3.328-10.973a19.75 19.75 0 00-5.785-13.965l-2.475 2.475a16.25 16.25 0 014.76 11.49h3.5zM43.965 16.81A19.75 19.75 0 0030 11.025v3.5a16.25 16.25 0 0111.49 4.76l2.475-2.475zM50 32.525h5v-3.5h-5v3.5zm-45 0h5v-3.5H5v3.5z" fill="#444"/></svg>