<svg width="80" height="85" fill="none" xmlns="http://www.w3.org/2000/svg"><path d="M39.707 59.822c9.365 0 16.98-7.616 16.98-16.98 0-9.365-7.615-16.98-16.98-16.98-9.364 0-16.98 7.615-16.98 16.98 0 9.364 7.616 16.98 16.98 16.98zm0-25.47c4.602 0 8.49 3.888 8.49 8.49 0 4.601-3.888 8.49-8.49 8.49s-8.49-3.889-8.49-8.49c0-4.602 3.889-8.49 8.49-8.49z" fill="#444"/><path d="M1.137 60.008l4.245 7.343c2.254 3.893 7.68 5.353 11.589 3.1l2.245-1.3a34.385 34.385 0 008.049 4.72v2.54c0 4.681 3.808 8.49 8.49 8.49h8.49c4.682 0 8.49-3.809 8.49-8.49v-2.54a34.522 34.522 0 008.049-4.716l2.245 1.3c3.918 2.25 9.33.797 11.593-3.104l4.241-7.34a8.494 8.494 0 00-3.103-11.597l-2.144-1.24c.456-3.13.456-6.31 0-9.44l2.144-1.24a8.498 8.498 0 003.103-11.597l-4.24-7.34c-2.255-3.905-7.676-5.37-11.594-3.107l-2.245 1.299a34.385 34.385 0 00-8.049-4.72V8.49c0-4.682-3.808-8.49-8.49-8.49h-8.49c-4.682 0-8.49 3.808-8.49 8.49v2.538a34.521 34.521 0 00-8.049 4.717l-2.245-1.3c-3.923-2.253-9.34-.793-11.593 3.108l-4.241 7.34A8.494 8.494 0 004.24 36.49l2.144 1.24a32.615 32.615 0 000 9.436l-2.144 1.24a8.503 8.503 0 00-3.103 11.602zM15.256 48.3a24.21 24.21 0 01-.726-5.85c0-1.961.246-3.93.722-5.85a4.24 4.24 0 00-1.996-4.703l-4.767-2.76 4.237-7.339 4.86 2.81a4.232 4.232 0 005.043-.602 25.772 25.772 0 0110.12-5.94 4.245 4.245 0 003.006-4.057V8.49h8.49v5.518a4.245 4.245 0 003.006 4.059 25.823 25.823 0 0110.12 5.939 4.24 4.24 0 005.043.602l4.856-2.806 4.245 7.34-4.771 2.755a4.244 4.244 0 00-1.996 4.703c.476 1.92.722 3.889.722 5.85 0 1.957-.246 3.927-.726 5.85a4.245 4.245 0 002 4.703l4.767 2.755-4.237 7.34-4.86-2.806a4.228 4.228 0 00-5.043.603 25.773 25.773 0 01-10.12 5.938 4.245 4.245 0 00-3.006 4.059l.009 5.518h-8.499v-5.518a4.245 4.245 0 00-3.006-4.059 25.823 25.823 0 01-10.12-5.938 4.21 4.21 0 00-5.043-.599l-4.856 2.81-4.245-7.34 4.771-2.763a4.245 4.245 0 002-4.703z" fill="#444"/></svg>