<svg width="92" height="92" fill="none" xmlns="http://www.w3.org/2000/svg"><path d="M82.415 55.79V44.944a13.723 13.723 0 009.157-12.894c0-7.573-6.163-13.735-13.736-13.735a13.688 13.688 0 00-9.688 4.01l-17.925-7.17c.046-.471.142-.934.142-1.42C50.365 6.164 44.202 0 36.629 0S22.893 6.163 22.893 13.736c0 3.489 1.35 6.643 3.503 9.07L18.73 33.021a13.63 13.63 0 00-4.995-.97C6.163 32.05 0 38.212 0 45.785s6.163 13.736 13.736 13.736c.728 0 1.433-.105 2.129-.215l8.86 11.808c-1.136 1.996-1.832 4.267-1.832 6.722 0 7.572 6.163 13.735 13.736 13.735a13.709 13.709 0 0013.108-9.857l18.141-3.627a13.675 13.675 0 009.959 4.327c7.572 0 13.735-6.163 13.735-13.736a13.712 13.712 0 00-9.157-12.889zm-4.579-28.318a4.583 4.583 0 11.01 9.166 4.583 4.583 0 01-.01-9.166zM36.63 9.157a4.583 4.583 0 11.01 9.166 4.583 4.583 0 01-.01-9.166zM9.157 45.787a4.583 4.583 0 119.166-.01 4.583 4.583 0 01-9.166.01zM36.63 82.414a4.579 4.579 0 110-9.157 4.579 4.579 0 010 9.157zm12.64-9.944a13.76 13.76 0 00-12.642-8.37c-1.767 0-3.443.362-4.995.976L23.969 54.86c2.152-2.431 3.503-5.586 3.503-9.075 0-2.454-.696-4.725-1.827-6.717l8.86-11.813c.695.11 1.396.216 2.124.216a13.69 13.69 0 009.688-4.011l17.926 7.17c-.046.471-.142.934-.142 1.42 0 5.96 3.841 10.993 9.157 12.888v10.847a13.717 13.717 0 00-9.158 12.89c0 .279.068.535.082.81L49.27 72.47zm28.566.788a4.578 4.578 0 110-9.157 4.578 4.578 0 010 9.157z" fill="#fff"/></svg>