<svg width="61" height="61" fill="none" xmlns="http://www.w3.org/2000/svg"><circle cx="30.5" cy="30.5" r="30.5" fill="url(#paint0_linear)"/><path d="M41.827 20.14l-22.634 8.73c-1.545.62-1.536 1.482-.283 1.866l5.81 1.813 13.446-8.483c.635-.387 1.216-.179.739.245l-10.893 9.831h-.003l.003.001-.401 5.99c.587 0 .846-.27 1.176-.587l2.822-2.745 5.871 4.337c1.083.596 1.86.29 2.13-1.002l3.853-18.163c.395-1.582-.604-2.298-1.636-1.831z" fill="#000"/><defs><linearGradient id="paint0_linear" x1="0" y1="44" x2="61" y2="25" gradientUnits="userSpaceOnUse"><stop stop-color="#D3BB4C"/><stop offset="1" stop-color="#A26725"/></linearGradient></defs></svg>