<svg width="61" height="61" fill="none" xmlns="http://www.w3.org/2000/svg"><circle cx="30.5" cy="30.5" r="30.5" fill="url(#paint0_linear)"/><path d="M40.51 25.078c.016.224.016.446.016.668 0 6.798-5.174 14.63-14.63 14.63-2.912 0-5.619-.843-7.896-2.309.414.048.812.064 1.242.064a10.302 10.302 0 006.384-2.197 5.151 5.151 0 01-4.809-3.565c.318.047.637.079.972.079.46 0 .924-.064 1.354-.175a5.141 5.141 0 01-4.123-5.046v-.064c.686.382 1.48.62 2.323.652a5.135 5.135 0 01-2.292-4.281 5.1 5.1 0 01.7-2.594 14.627 14.627 0 0010.602 5.38 5.847 5.847 0 01-.127-1.178A5.138 5.138 0 0135.368 20c1.48 0 2.817.62 3.757 1.624a10.16 10.16 0 003.263-1.242 5.132 5.132 0 01-2.261 2.834 10.307 10.307 0 002.96-.797 11.036 11.036 0 01-2.577 2.66z" fill="#000"/><defs><linearGradient id="paint0_linear" x1="0" y1="44" x2="61" y2="25" gradientUnits="userSpaceOnUse"><stop stop-color="#D3BB4C"/><stop offset="1" stop-color="#A26725"/></linearGradient></defs></svg>