<svg width="84" height="79" fill="none" xmlns="http://www.w3.org/2000/svg"><path d="M62.9 19.716c-.682 9.207-7.661 16.717-15.323 16.717-7.662 0-14.653-7.509-15.323-16.717C31.557 10.14 38.348 3 47.577 3s16.02 7.313 15.323 16.716zM47.577 47.577c-15.15 0-30.525 8.358-33.37 24.134-.348 1.902.733 3.727 2.725 3.727h61.292c1.992 0 3.068-1.825 2.725-3.727-2.847-15.776-18.223-24.134-33.372-24.134z" fill="#444"/><path d="M62.9 19.716l2.779.206-2.779-.206zm-30.646 0l-2.779.203 2.779-.203zM14.207 71.711l2.74.502.002-.007-2.742-.495zm66.742 0l2.742-.494-2.742.494zM15.537 25.29a2.786 2.786 0 00-5.572 0h5.572zm-5.572 19.5a2.786 2.786 0 105.572 0H9.965zm12.538-6.965a2.786 2.786 0 100-5.572v5.572zM3 32.254a2.786 2.786 0 000 5.572v-5.572zM60.122 19.51c-.605 8.164-6.722 14.137-12.545 14.137v5.572c9.5 0 17.342-9.048 18.102-19.297l-5.557-.412zM47.577 33.647c-5.826 0-11.95-5.974-12.545-14.133l-5.557.405c.747 10.257 8.605 19.3 18.102 19.3v-5.572zM35.032 19.514c-.58-7.971 4.943-13.728 12.545-13.728V.214c-10.856 0-18.915 8.522-18.102 19.705l5.557-.405zM47.577 5.786c7.584 0 13.124 5.912 12.545 13.725l5.557.411C66.493 8.93 58.45.214 47.577.214v5.572zm0 39.005c-15.94 0-32.94 8.842-36.112 26.426l5.484.989c2.519-13.968 16.27-21.843 30.628-21.843v-5.572zm-36.11 26.418c-.291 1.587-.013 3.283.927 4.654.982 1.432 2.6 2.36 4.538 2.36v-5.571c-.062 0-.05-.012-.003.013.043.023.062.049.06.047a.39.39 0 01-.047-.138.997.997 0 01.005-.36l-5.48-1.005zm5.465 7.015h61.292v-5.572H16.932v5.572zm61.292 0c1.939 0 3.556-.93 4.537-2.362.938-1.37 1.215-3.064.93-4.645l-5.484.989c.027.15.022.276.004.367a.398.398 0 01-.048.14c-.001.002.018-.024.062-.047.047-.026.061-.014-.001-.014v5.572zm5.467-7.008c-3.174-17.583-20.174-26.425-36.114-26.425v5.572c14.358 0 28.11 7.875 30.63 21.843l5.484-.99zM9.965 25.29v19.5h5.572V25.289H9.965zm12.538 6.965H3v5.572h19.503v-5.572z" fill="#444"/></svg>